<?xml version="1.0" encoding="UTF-8"?>
<svg xmlns="http://www.w3.org/2000/svg" xmlns:xlink="http://www.w3.org/1999/xlink" width="93.092pt" height="101.746pt" viewBox="0 0 93.092 101.746">
<defs>
<clipPath id="clip-0">
<path clip-rule="nonzero" d="M 51 0 L 92.636719 0 L 92.636719 49 L 51 49 Z M 51 0 "/>
</clipPath>
<clipPath id="clip-1">
<path clip-rule="nonzero" d="M 0 52 L 46 52 L 46 101.617188 L 0 101.617188 Z M 0 52 "/>
</clipPath>
<clipPath id="clip-2">
<path clip-rule="nonzero" d="M 13 87 L 28 87 L 28 101.617188 L 13 101.617188 Z M 13 87 "/>
</clipPath>
<clipPath id="clip-3">
<path clip-rule="nonzero" d="M 27 79 L 28 79 L 28 101.617188 L 27 101.617188 Z M 27 79 "/>
</clipPath>
<clipPath id="clip-4">
<path clip-rule="nonzero" d="M 70 87 L 85 87 L 85 101.617188 L 70 101.617188 Z M 70 87 "/>
</clipPath>
<clipPath id="clip-5">
<path clip-rule="nonzero" d="M 84 79 L 85 79 L 85 101.617188 L 84 101.617188 Z M 84 79 "/>
</clipPath>
</defs>
<path fill="none" stroke-width="0.3985" stroke-linecap="butt" stroke-linejoin="miter" stroke="rgb(0%, 0%, 0%)" stroke-opacity="1" stroke-miterlimit="10" d="M 0.00115625 78.718 L 0.00115625 65.425031 L -11.905094 59.968 " transform="matrix(1, 0, 0, -1, 27.534, 79.593)"/>
<path fill="none" stroke-width="0.797" stroke-linecap="butt" stroke-linejoin="miter" stroke="rgb(0%, 0%, 0%)" stroke-opacity="1" stroke-miterlimit="10" d="M -11.905094 65.425031 L -11.905094 47.964094 " transform="matrix(1, 0, 0, -1, 27.534, 79.593)"/>
<path fill="none" stroke-width="0.3985" stroke-linecap="butt" stroke-linejoin="miter" stroke="rgb(0%, 0%, 0%)" stroke-opacity="1" stroke-miterlimit="10" d="M -11.905094 53.421125 L 0.00115625 47.964094 L 0.00115625 34.667219 " transform="matrix(1, 0, 0, -1, 27.534, 79.593)"/>
<path fill-rule="nonzero" fill="rgb(0%, 0%, 0%)" fill-opacity="1" d="M 19.820312 28.09375 L 20.773438 26.015625 L 24.46875 30.222656 L 18.867188 30.175781 Z M 19.820312 28.09375 "/>
<path fill="none" stroke-width="0.3985" stroke-linecap="butt" stroke-linejoin="miter" stroke="rgb(0%, 0%, 0%)" stroke-opacity="1" stroke-miterlimit="10" d="M -11.905094 56.694562 L -24.010562 56.694562 " transform="matrix(1, 0, 0, -1, 27.534, 79.593)"/>
<g clip-path="url(#clip-0)">
<path fill="none" stroke-width="0.797" stroke-linecap="butt" stroke-linejoin="miter" stroke="rgb(0%, 0%, 0%)" stroke-opacity="1" stroke-miterlimit="10" d="M 64.696469 56.694562 C 64.696469 64.823469 58.106625 71.409406 49.981625 71.409406 C 41.852719 71.409406 35.262875 64.823469 35.262875 56.694562 C 35.262875 48.565656 41.852719 41.975812 49.981625 41.975812 C 58.106625 41.975812 64.696469 48.565656 64.696469 56.694562 Z M 64.696469 56.694562 " transform="matrix(1, 0, 0, -1, 27.534, 79.593)"/>
</g>
<path fill="none" stroke-width="0.3985" stroke-linecap="butt" stroke-linejoin="miter" stroke="rgb(0%, 0%, 0%)" stroke-opacity="1" stroke-miterlimit="10" d="M 56.692563 78.718 L 56.692563 65.425031 L 44.786313 59.968 " transform="matrix(1, 0, 0, -1, 27.534, 79.593)"/>
<path fill="none" stroke-width="0.797" stroke-linecap="butt" stroke-linejoin="miter" stroke="rgb(0%, 0%, 0%)" stroke-opacity="1" stroke-miterlimit="10" d="M 44.786313 65.425031 L 44.786313 47.964094 " transform="matrix(1, 0, 0, -1, 27.534, 79.593)"/>
<path fill="none" stroke-width="0.3985" stroke-linecap="butt" stroke-linejoin="miter" stroke="rgb(0%, 0%, 0%)" stroke-opacity="1" stroke-miterlimit="10" d="M 44.786313 53.421125 L 56.692563 47.964094 L 56.692563 34.667219 " transform="matrix(1, 0, 0, -1, 27.534, 79.593)"/>
<path fill-rule="nonzero" fill="rgb(0%, 0%, 0%)" fill-opacity="1" d="M 76.515625 28.09375 L 77.46875 26.015625 L 81.160156 30.222656 L 75.5625 30.175781 Z M 76.515625 28.09375 "/>
<path fill="none" stroke-width="0.3985" stroke-linecap="butt" stroke-linejoin="miter" stroke="rgb(0%, 0%, 0%)" stroke-opacity="1" stroke-miterlimit="10" d="M 44.786313 56.694562 L 32.68475 56.694562 " transform="matrix(1, 0, 0, -1, 27.534, 79.593)"/>
<path fill-rule="nonzero" fill="rgb(0%, 0%, 0%)" fill-opacity="1" stroke-width="0.3985" stroke-linecap="butt" stroke-linejoin="miter" stroke="rgb(0%, 0%, 0%)" stroke-opacity="1" stroke-miterlimit="10" d="M 58.282406 69.788312 C 58.282406 70.667219 57.571469 71.378156 56.692563 71.378156 C 55.817563 71.378156 55.106625 70.667219 55.106625 69.788312 C 55.106625 68.913312 55.817563 68.202375 56.692563 68.202375 C 57.571469 68.202375 58.282406 68.913312 58.282406 69.788312 Z M 58.282406 69.788312 " transform="matrix(1, 0, 0, -1, 27.534, 79.593)"/>
<g clip-path="url(#clip-1)">
<path fill="none" stroke-width="0.797" stroke-linecap="butt" stroke-linejoin="miter" stroke="rgb(0%, 0%, 0%)" stroke-opacity="1" stroke-miterlimit="10" d="M 6.860531 -0.00075 C 6.860531 8.800031 -0.272281 15.928937 -9.069156 15.928937 C -17.869937 15.928937 -25.00275 8.800031 -25.00275 -0.00075 C -25.00275 -8.797625 -17.869937 -15.930438 -9.069156 -15.930438 C -0.272281 -15.930438 6.860531 -8.797625 6.860531 -0.00075 Z M 6.860531 -0.00075 " transform="matrix(1, 0, 0, -1, 27.534, 79.593)"/>
</g>
<path fill="none" stroke-width="0.3985" stroke-linecap="butt" stroke-linejoin="miter" stroke="rgb(0%, 0%, 0%)" stroke-opacity="1" stroke-miterlimit="10" d="M 0.00115625 22.026594 L 0.00115625 7.639875 L -13.889469 7.639875 " transform="matrix(1, 0, 0, -1, 27.534, 79.593)"/>
<path fill="none" stroke-width="0.797" stroke-linecap="butt" stroke-linejoin="miter" stroke="rgb(0%, 0%, 0%)" stroke-opacity="1" stroke-miterlimit="10" d="M -13.889469 10.913312 L -13.889469 4.909406 M -13.889469 2.729719 L -13.889469 -2.727313 M -13.889469 -4.910906 L -13.889469 -10.914813 " transform="matrix(1, 0, 0, -1, 27.534, 79.593)"/>
<path fill="none" stroke-width="0.3985" stroke-linecap="butt" stroke-linejoin="miter" stroke="rgb(0%, 0%, 0%)" stroke-opacity="1" stroke-miterlimit="10" d="M -13.889469 -0.00075 L 0.200375 -0.00075 " transform="matrix(1, 0, 0, -1, 27.534, 79.593)"/>
<g clip-path="url(#clip-2)">
<path fill="none" stroke-width="0.3985" stroke-linecap="butt" stroke-linejoin="miter" stroke="rgb(0%, 0%, 0%)" stroke-opacity="1" stroke-miterlimit="10" d="M -13.889469 -7.641375 L 0.00115625 -7.641375 L 0.00115625 -22.028094 " transform="matrix(1, 0, 0, -1, 27.534, 79.593)"/>
</g>
<path fill="none" stroke-width="0.797" stroke-linecap="butt" stroke-linejoin="miter" stroke="rgb(0%, 0%, 0%)" stroke-opacity="1" stroke-miterlimit="10" d="M -17.2215 7.839094 L -17.2215 -7.840594 " transform="matrix(1, 0, 0, -1, 27.534, 79.593)"/>
<path fill-rule="nonzero" fill="rgb(0%, 0%, 0%)" fill-opacity="1" d="M 21.136719 79.59375 L 21.136719 81.878906 L 16.023438 79.59375 L 21.136719 77.304688 Z M 21.136719 79.59375 "/>
<path fill="none" stroke-width="0.3985" stroke-linecap="butt" stroke-linejoin="miter" stroke="rgb(0%, 0%, 0%)" stroke-opacity="1" stroke-miterlimit="10" d="M -17.2215 -7.641375 L -27.979312 -7.641375 " transform="matrix(1, 0, 0, -1, 27.534, 79.593)"/>
<g clip-path="url(#clip-3)">
<path fill="none" stroke-width="0.3985" stroke-linecap="butt" stroke-linejoin="miter" stroke="rgb(0%, 0%, 0%)" stroke-opacity="1" stroke-miterlimit="10" d="M 0.00115625 -0.00075 L 0.00115625 -21.828875 " transform="matrix(1, 0, 0, -1, 27.534, 79.593)"/>
</g>
<path fill="none" stroke-width="0.3985" stroke-linecap="butt" stroke-linejoin="miter" stroke="rgb(0%, 0%, 0%)" stroke-opacity="1" stroke-miterlimit="10" d="M 56.692563 22.026594 L 56.692563 7.639875 L 42.801938 7.639875 " transform="matrix(1, 0, 0, -1, 27.534, 79.593)"/>
<path fill="none" stroke-width="0.797" stroke-linecap="butt" stroke-linejoin="miter" stroke="rgb(0%, 0%, 0%)" stroke-opacity="1" stroke-miterlimit="10" d="M 42.801938 10.913312 L 42.801938 4.909406 M 42.801938 2.729719 L 42.801938 -2.727313 M 42.801938 -4.910906 L 42.801938 -10.914813 " transform="matrix(1, 0, 0, -1, 27.534, 79.593)"/>
<path fill="none" stroke-width="0.3985" stroke-linecap="butt" stroke-linejoin="miter" stroke="rgb(0%, 0%, 0%)" stroke-opacity="1" stroke-miterlimit="10" d="M 42.801938 -0.00075 L 56.891781 -0.00075 " transform="matrix(1, 0, 0, -1, 27.534, 79.593)"/>
<g clip-path="url(#clip-4)">
<path fill="none" stroke-width="0.3985" stroke-linecap="butt" stroke-linejoin="miter" stroke="rgb(0%, 0%, 0%)" stroke-opacity="1" stroke-miterlimit="10" d="M 42.801938 -7.641375 L 56.692563 -7.641375 L 56.692563 -22.028094 " transform="matrix(1, 0, 0, -1, 27.534, 79.593)"/>
</g>
<path fill="none" stroke-width="0.797" stroke-linecap="butt" stroke-linejoin="miter" stroke="rgb(0%, 0%, 0%)" stroke-opacity="1" stroke-miterlimit="10" d="M 39.469906 7.839094 L 39.469906 -7.840594 " transform="matrix(1, 0, 0, -1, 27.534, 79.593)"/>
<path fill-rule="nonzero" fill="rgb(0%, 0%, 0%)" fill-opacity="1" d="M 77.828125 79.59375 L 77.828125 81.878906 L 72.71875 79.59375 L 77.828125 77.304688 Z M 77.828125 79.59375 "/>
<path fill="none" stroke-width="0.3985" stroke-linecap="butt" stroke-linejoin="miter" stroke="rgb(0%, 0%, 0%)" stroke-opacity="1" stroke-miterlimit="10" d="M 39.469906 -7.641375 L 28.716 -7.641375 " transform="matrix(1, 0, 0, -1, 27.534, 79.593)"/>
<g clip-path="url(#clip-5)">
<path fill="none" stroke-width="0.3985" stroke-linecap="butt" stroke-linejoin="miter" stroke="rgb(0%, 0%, 0%)" stroke-opacity="1" stroke-miterlimit="10" d="M 56.692563 -0.00075 L 56.692563 -21.828875 " transform="matrix(1, 0, 0, -1, 27.534, 79.593)"/>
</g>
</svg>
