<?xml version="1.0" encoding="UTF-8"?>
<svg xmlns="http://www.w3.org/2000/svg" xmlns:xlink="http://www.w3.org/1999/xlink" width="45.36pt" height="28.288pt" viewBox="0 0 45.36 28.288">
<defs>
<clipPath id="clip-0">
<path clip-rule="nonzero" d="M 0 24 L 45.035156 24 L 45.035156 27 L 0 27 Z M 0 24 "/>
</clipPath>
<clipPath id="clip-1">
<path clip-rule="nonzero" d="M 22 0 L 45.035156 0 L 45.035156 27.933594 L 22 27.933594 Z M 22 0 "/>
</clipPath>
</defs>
<g clip-path="url(#clip-0)">
<path fill="none" stroke-width="1.59404" stroke-linecap="butt" stroke-linejoin="miter" stroke="rgb(0%, 0%, 0%)" stroke-opacity="1" stroke-miterlimit="10" d="M 0.00090625 -0.00115625 L 49.891531 -0.00115625 M 176.883719 -0.00115625 L 226.774344 -0.00115625 " transform="matrix(1, 0, 0, -1, -22.997, 25.534)"/>
</g>
<g clip-path="url(#clip-1)">
<path fill="none" stroke-width="4.78214" stroke-linecap="butt" stroke-linejoin="bevel" stroke="rgb(0%, 0%, 0%)" stroke-opacity="1" stroke-miterlimit="10" d="M 47.500906 -0.00115625 L 53.848562 -0.00115625 L 65.766531 23.811344 L 84.813406 -23.80975 L 103.864187 23.811344 L 122.911062 -23.80975 L 141.961844 23.811344 L 161.008719 -23.80975 L 172.922781 -0.00115625 L 179.274344 -0.00115625 " transform="matrix(1, 0, 0, -1, -22.997, 25.534)"/>
</g>
</svg>
