<?xml version="1.0" encoding="UTF-8"?>
<svg xmlns="http://www.w3.org/2000/svg" xmlns:xlink="http://www.w3.org/1999/xlink" width="56.712pt" height="36.82pt" viewBox="0 0 56.712 36.82">
<defs>
<clipPath id="clip-0">
<path clip-rule="nonzero" d="M 0 24 L 56.566406 24 L 56.566406 26 L 0 26 Z M 0 24 "/>
</clipPath>
<clipPath id="clip-1">
<path clip-rule="nonzero" d="M 29 12 L 31 12 L 31 36.730469 L 29 36.730469 Z M 29 12 "/>
</clipPath>
</defs>
<g clip-path="url(#clip-0)">
<path fill="none" stroke-width="0.3985" stroke-linecap="butt" stroke-linejoin="miter" stroke="rgb(0%, 0%, 0%)" stroke-opacity="1" stroke-miterlimit="10" d="M -0.00171875 -0.0005 L 22.392813 -0.0005 M 34.299063 -0.0005 L 56.693594 -0.0005 " transform="matrix(1, 0, 0, -1, -0.135, 24.812)"/>
</g>
<path fill="none" stroke-width="0.3985" stroke-linecap="butt" stroke-linejoin="miter" stroke="rgb(0%, 0%, 0%)" stroke-opacity="1" stroke-miterlimit="10" d="M 30.310781 -0.0005 L 34.299063 -0.0005 M 26.381094 -0.0005 L 22.392813 -0.0005 " transform="matrix(1, 0, 0, -1, -0.135, 24.812)"/>
<g clip-path="url(#clip-1)">
<path fill="none" stroke-width="0.797" stroke-linecap="butt" stroke-linejoin="miter" stroke="rgb(0%, 0%, 0%)" stroke-opacity="1" stroke-miterlimit="10" d="M 30.310781 11.90575 L 30.310781 -11.90675 " transform="matrix(1, 0, 0, -1, -0.135, 24.812)"/>
</g>
<path fill="none" stroke-width="2.39102" stroke-linecap="butt" stroke-linejoin="miter" stroke="rgb(0%, 0%, 0%)" stroke-opacity="1" stroke-miterlimit="10" d="M 26.381094 5.952625 L 26.381094 -5.953625 " transform="matrix(1, 0, 0, -1, -0.135, 24.812)"/>
<path fill="none" stroke-width="0.3985" stroke-linecap="butt" stroke-linejoin="miter" stroke="rgb(0%, 0%, 0%)" stroke-opacity="1" stroke-miterlimit="10" d="M 31.920156 23.812 L 27.033438 14.042469 " transform="matrix(1, 0, 0, -1, -0.135, 24.812)"/>
<path fill-rule="nonzero" fill="rgb(0%, 0%, 0%)" fill-opacity="1" d="M 25.832031 12.90625 C 26.453125 12.105469 27.613281 10.679688 28.949219 10.011719 C 27.523438 10.410156 26.8125 10.054688 26.277344 8.675781 C 26.542969 10.144531 26.097656 11.925781 25.832031 12.90625 Z M 25.832031 12.90625 "/>
<path fill="none" stroke-width="0.3985" stroke-linecap="butt" stroke-linejoin="miter" stroke="rgb(0%, 0%, 0%)" stroke-opacity="1" stroke-miterlimit="10" d="M 35.490469 21.429187 L 30.607656 11.663562 " transform="matrix(1, 0, 0, -1, -0.135, 24.812)"/>
<path fill-rule="nonzero" fill="rgb(0%, 0%, 0%)" fill-opacity="1" d="M 29.402344 15.289062 C 30.027344 14.484375 31.183594 13.058594 32.519531 12.390625 C 31.09375 12.792969 30.382812 12.4375 29.847656 11.054688 C 30.113281 12.523438 29.667969 14.308594 29.402344 15.289062 Z M 29.402344 15.289062 "/>
</svg>
