<?xml version="1.0" encoding="UTF-8"?>
<svg xmlns="http://www.w3.org/2000/svg" xmlns:xlink="http://www.w3.org/1999/xlink" width="56.712pt" height="29.602pt" viewBox="0 0 56.712 29.602">
<defs>
<clipPath id="clip-0">
<path clip-rule="nonzero" d="M 0 14 L 56.566406 14 L 56.566406 16 L 0 16 Z M 0 14 "/>
</clipPath>
<clipPath id="clip-1">
<path clip-rule="nonzero" d="M 3 0 L 54 0 L 54 29.402344 L 3 29.402344 Z M 3 0 "/>
</clipPath>
</defs>
<g clip-path="url(#clip-0)">
<path fill="none" stroke-width="0.3985" stroke-linecap="butt" stroke-linejoin="miter" stroke="rgb(0%, 0%, 0%)" stroke-opacity="1" stroke-miterlimit="10" d="M -0.00171875 0.00153125 L 14.455313 0.00153125 M 42.236563 0.00153125 L 56.693594 0.00153125 " transform="matrix(1, 0, 0, -1, -0.135, 15.107)"/>
</g>
<path fill-rule="nonzero" fill="rgb(70.001221%, 90.351868%, 98.118591%)" fill-opacity="1" d="M 42.101562 15.105469 C 42.101562 7.4375 35.882812 1.21875 28.210938 1.21875 C 20.539062 1.21875 14.320312 7.4375 14.320312 15.105469 C 14.320312 22.777344 20.539062 28.996094 28.210938 28.996094 C 35.882812 28.996094 42.101562 22.777344 42.101562 15.105469 Z M 42.101562 15.105469 "/>
<g clip-path="url(#clip-1)">
<path fill="none" stroke-width="0.797" stroke-linecap="butt" stroke-linejoin="miter" stroke="rgb(0%, 0%, 0%)" stroke-opacity="1" stroke-miterlimit="10" d="M 42.236563 0.00153125 C 42.236563 7.6695 36.017813 13.88825 28.345938 13.88825 C 20.674063 13.88825 14.455313 7.6695 14.455313 0.00153125 C 14.455313 -7.670344 20.674063 -13.889094 28.345938 -13.889094 C 36.017813 -13.889094 42.236563 -7.670344 42.236563 0.00153125 Z M 42.236563 0.00153125 " transform="matrix(1, 0, 0, -1, -0.135, 15.107)"/>
</g>
<path fill="none" stroke-width="0.3985" stroke-linecap="butt" stroke-linejoin="miter" stroke="rgb(0%, 0%, 0%)" stroke-opacity="1" stroke-miterlimit="10" d="M 21.400625 0.00153125 C 22.533438 1.778875 23.615469 3.474187 24.873281 3.474187 C 26.131094 3.474187 27.213125 1.778875 28.345938 0.00153125 C 29.47875 -1.779719 30.560781 -3.471125 31.818594 -3.471125 C 33.076406 -3.471125 34.158438 -1.779719 35.29125 0.00153125 " transform="matrix(1, 0, 0, -1, -0.135, 15.107)"/>
</svg>
