<?xml version="1.0" encoding="UTF-8"?>
<svg xmlns="http://www.w3.org/2000/svg" xmlns:xlink="http://www.w3.org/1999/xlink" width="75.159pt" height="86.464pt" viewBox="0 0 75.159 86.464">
<defs>
<clipPath id="clip-0">
<path clip-rule="nonzero" d="M 11 0 L 69 0 L 69 86.195312 L 11 86.195312 Z M 11 0 "/>
</clipPath>
<clipPath id="clip-1">
<path clip-rule="nonzero" d="M 62 26 L 74.738281 26 L 74.738281 61 L 62 61 Z M 62 26 "/>
</clipPath>
</defs>
<g clip-path="url(#clip-0)">
<path fill="none" stroke-width="0.3985" stroke-linecap="butt" stroke-linejoin="miter" stroke="rgb(0%, 0%, 0%)" stroke-opacity="1" stroke-miterlimit="10" d="M 0.00084375 0.00071875 L 0.00084375 30.614 M 0.00084375 54.4265 L 0.00084375 85.039781 L 56.69225 85.039781 L 56.69225 58.39525 M 56.69225 26.64525 L 56.69225 0.00071875 L 0.00084375 0.00071875 " transform="matrix(1, 0, 0, -1, 11.9015, 85.989)"/>
</g>
<path fill="none" stroke-width="0.797" stroke-linecap="butt" stroke-linejoin="miter" stroke="rgb(0%, 0%, 0%)" stroke-opacity="1" stroke-miterlimit="10" d="M -11.905406 42.52025 C -11.905406 35.946031 -6.577281 30.614 0.00084375 30.614 C 6.575063 30.614 11.907094 35.946031 11.907094 42.52025 C 11.907094 49.094469 6.575063 54.4265 0.00084375 54.4265 C -6.577281 54.4265 -11.905406 49.094469 -11.905406 42.52025 Z M -11.905406 42.52025 L 11.907094 42.52025 " transform="matrix(1, 0, 0, -1, 11.9015, 85.989)"/>
<g clip-path="url(#clip-1)">
<path fill="none" stroke-width="0.797" stroke-linecap="butt" stroke-linejoin="bevel" stroke="rgb(0%, 0%, 0%)" stroke-opacity="1" stroke-miterlimit="10" d="M 56.69225 58.793687 L 62.645375 55.746812 L 50.739125 50.45775 L 62.645375 45.164781 L 50.739125 39.875719 L 62.645375 34.58275 L 50.739125 29.293687 L 56.69225 26.246812 " transform="matrix(1, 0, 0, -1, 11.9015, 85.989)"/>
</g>
</svg>
