<?xml version="1.0" encoding="UTF-8"?>
<svg xmlns="http://www.w3.org/2000/svg" xmlns:xlink="http://www.w3.org/1999/xlink" width="56.712pt" height="24.814pt" viewBox="0 0 56.712 24.814">
<defs>
<clipPath id="clip-0">
<path clip-rule="nonzero" d="M 0 12 L 56.566406 12 L 56.566406 14 L 0 14 Z M 0 12 "/>
</clipPath>
<clipPath id="clip-1">
<path clip-rule="nonzero" d="M 29 0 L 31 0 L 31 24.722656 L 29 24.722656 Z M 29 0 "/>
</clipPath>
</defs>
<g clip-path="url(#clip-0)">
<path fill="none" stroke-width="0.3985" stroke-linecap="butt" stroke-linejoin="miter" stroke="rgb(0%, 0%, 0%)" stroke-opacity="1" stroke-miterlimit="10" d="M -0.00171875 -0.00140625 L 22.392813 -0.00140625 M 34.299063 -0.00140625 L 56.693594 -0.00140625 " transform="matrix(1, 0, 0, -1, -0.135, 12.815)"/>
</g>
<path fill="none" stroke-width="0.3985" stroke-linecap="butt" stroke-linejoin="miter" stroke="rgb(0%, 0%, 0%)" stroke-opacity="1" stroke-miterlimit="10" d="M 30.310781 -0.00140625 L 34.299063 -0.00140625 M 26.381094 -0.00140625 L 22.392813 -0.00140625 " transform="matrix(1, 0, 0, -1, -0.135, 12.815)"/>
<g clip-path="url(#clip-1)">
<path fill="none" stroke-width="0.797" stroke-linecap="butt" stroke-linejoin="miter" stroke="rgb(0%, 0%, 0%)" stroke-opacity="1" stroke-miterlimit="10" d="M 30.310781 11.904844 L 30.310781 -11.907656 " transform="matrix(1, 0, 0, -1, -0.135, 12.815)"/>
</g>
<path fill="none" stroke-width="2.39102" stroke-linecap="butt" stroke-linejoin="miter" stroke="rgb(0%, 0%, 0%)" stroke-opacity="1" stroke-miterlimit="10" d="M 26.381094 5.951719 L 26.381094 -5.954531 " transform="matrix(1, 0, 0, -1, -0.135, 12.815)"/>
</svg>
