<?xml version="1.0" encoding="UTF-8"?>
<svg xmlns="http://www.w3.org/2000/svg" xmlns:xlink="http://www.w3.org/1999/xlink" width="59.552pt" height="60.958pt" viewBox="0 0 59.552 60.958">
<defs>
<clipPath id="clip-0">
<path clip-rule="nonzero" d="M 0 0 L 59.328125 0 L 59.328125 60.9375 L 0 60.9375 Z M 0 0 "/>
</clipPath>
</defs>
<path fill-rule="nonzero" fill="rgb(0%, 0%, 0%)" fill-opacity="1" stroke-width="0.797" stroke-linecap="butt" stroke-linejoin="miter" stroke="rgb(0%, 0%, 0%)" stroke-opacity="1" stroke-miterlimit="10" d="M -11.904469 -4.762656 L -5.951344 4.760781 L -17.857594 4.760781 L -11.904469 -4.762656 " transform="matrix(1, 0, 0, -1, 29.549, 30.96)"/>
<path fill="none" stroke-width="0.797" stroke-linecap="butt" stroke-linejoin="miter" stroke="rgb(0%, 0%, 0%)" stroke-opacity="1" stroke-miterlimit="10" d="M -17.857594 -4.762656 L -5.951344 -4.762656 " transform="matrix(1, 0, 0, -1, 29.549, 30.96)"/>
<path fill="none" stroke-width="0.3985" stroke-linecap="butt" stroke-linejoin="miter" stroke="rgb(0%, 0%, 0%)" stroke-opacity="1" stroke-miterlimit="10" d="M -5.951344 1.905312 L -1.865406 -1.364219 " transform="matrix(1, 0, 0, -1, 29.549, 30.96)"/>
<path fill-rule="nonzero" fill="rgb(0%, 0%, 0%)" fill-opacity="1" d="M 29.550781 33.816406 C 28.894531 33.039062 27.746094 31.609375 27.371094 30.160156 C 27.464844 31.640625 26.964844 32.261719 25.503906 32.496094 C 26.996094 32.542969 28.648438 33.351562 29.550781 33.816406 Z M 29.550781 33.816406 "/>
<path fill="none" stroke-width="0.3985" stroke-linecap="butt" stroke-linejoin="miter" stroke="rgb(0%, 0%, 0%)" stroke-opacity="1" stroke-miterlimit="10" d="M -7.14275 -0.954063 L -3.056813 -4.219688 " transform="matrix(1, 0, 0, -1, 29.549, 30.96)"/>
<path fill-rule="nonzero" fill="rgb(0%, 0%, 0%)" fill-opacity="1" d="M 28.359375 36.675781 C 27.707031 35.898438 26.554688 34.464844 26.179688 33.019531 C 26.273438 34.496094 25.777344 35.117188 24.3125 35.351562 C 25.808594 35.398438 27.457031 36.207031 28.359375 36.675781 Z M 28.359375 36.675781 "/>
<path fill="none" stroke-width="0.797" stroke-linecap="butt" stroke-linejoin="miter" stroke="rgb(0%, 0%, 0%)" stroke-opacity="1" stroke-miterlimit="10" d="M 11.904125 -4.762656 L 17.85725 4.760781 L 5.951 4.760781 Z M 11.904125 -4.762656 " transform="matrix(1, 0, 0, -1, 29.549, 30.96)"/>
<path fill="none" stroke-width="0.797" stroke-linecap="butt" stroke-linejoin="miter" stroke="rgb(0%, 0%, 0%)" stroke-opacity="1" stroke-miterlimit="10" d="M 5.951 -4.762656 L 17.85725 -4.762656 " transform="matrix(1, 0, 0, -1, 29.549, 30.96)"/>
<g clip-path="url(#clip-0)">
<path fill="none" stroke-width="0.3985" stroke-linecap="butt" stroke-linejoin="miter" stroke="rgb(0%, 0%, 0%)" stroke-opacity="1" stroke-miterlimit="10" d="M -29.763844 29.764687 L -11.904469 29.764687 L -11.904469 4.760781 M -11.904469 -4.762656 L -11.904469 -29.762656 L -29.763844 -29.762656 M 29.7635 29.764687 L 11.904125 29.764687 L 11.904125 4.760781 M 11.904125 -4.762656 L 11.904125 -29.762656 L 29.7635 -29.762656 " transform="matrix(1, 0, 0, -1, 29.549, 30.96)"/>
</g>
</svg>
