<?xml version="1.0" encoding="UTF-8"?>
<svg xmlns="http://www.w3.org/2000/svg" xmlns:xlink="http://www.w3.org/1999/xlink" width="56.712pt" height="13.33pt" viewBox="0 0 56.712 13.33">
<defs>
<clipPath id="clip-0">
<path clip-rule="nonzero" d="M 0 6 L 56.566406 6 L 56.566406 8 L 0 8 Z M 0 6 "/>
</clipPath>
<clipPath id="clip-1">
<path clip-rule="nonzero" d="M 16 0 L 23 0 L 23 12.996094 L 16 12.996094 Z M 16 0 "/>
</clipPath>
<clipPath id="clip-2">
<path clip-rule="nonzero" d="M 11 0 L 29 0 L 29 12.996094 L 11 12.996094 Z M 11 0 "/>
</clipPath>
<clipPath id="clip-3">
<path clip-rule="nonzero" d="M 33 0 L 40 0 L 40 12.996094 L 33 12.996094 Z M 33 0 "/>
</clipPath>
<clipPath id="clip-4">
<path clip-rule="nonzero" d="M 27 0 L 46 0 L 46 12.996094 L 27 12.996094 Z M 27 0 "/>
</clipPath>
<clipPath id="clip-5">
<path clip-rule="nonzero" d="M 25 0 L 32 0 L 32 12.996094 L 25 12.996094 Z M 25 0 "/>
</clipPath>
</defs>
<g clip-path="url(#clip-0)">
<path fill="none" stroke-width="0.3985" stroke-linecap="butt" stroke-linejoin="miter" stroke="rgb(0%, 0%, 0%)" stroke-opacity="1" stroke-miterlimit="10" d="M -0.00171875 -0.0009375 L 17.037344 -0.0009375 M 39.658438 -0.0009375 L 56.693594 -0.0009375 " transform="matrix(1, 0, 0, -1, -0.135, 6.835)"/>
</g>
<g clip-path="url(#clip-1)">
<path fill-rule="nonzero" fill="rgb(0%, 0%, 0%)" fill-opacity="1" d="M 22.855469 0.882812 C 19.566406 0.882812 16.902344 3.546875 16.902344 6.835938 C 16.902344 10.121094 19.566406 12.789062 22.855469 12.789062 Z M 22.855469 0.882812 "/>
</g>
<g clip-path="url(#clip-2)">
<path fill="none" stroke-width="0.3985" stroke-linecap="butt" stroke-linejoin="miter" stroke="rgb(0%, 0%, 0%)" stroke-opacity="1" stroke-miterlimit="10" d="M 22.990469 5.952187 C 19.701406 5.952187 17.037344 3.288125 17.037344 -0.0009375 C 17.037344 -3.286094 19.701406 -5.954063 22.990469 -5.954063 Z M 22.990469 5.952187 " transform="matrix(1, 0, 0, -1, -0.135, 6.835)"/>
</g>
<g clip-path="url(#clip-3)">
<path fill-rule="nonzero" fill="rgb(0%, 0%, 0%)" fill-opacity="1" d="M 33.570312 0.882812 C 36.855469 0.882812 39.523438 3.546875 39.523438 6.835938 C 39.523438 10.121094 36.855469 12.789062 33.570312 12.789062 Z M 33.570312 0.882812 "/>
</g>
<g clip-path="url(#clip-4)">
<path fill="none" stroke-width="0.3985" stroke-linecap="butt" stroke-linejoin="miter" stroke="rgb(0%, 0%, 0%)" stroke-opacity="1" stroke-miterlimit="10" d="M 33.705313 5.952187 C 36.990469 5.952187 39.658438 3.288125 39.658438 -0.0009375 C 39.658438 -3.286094 36.990469 -5.954063 33.705313 -5.954063 Z M 33.705313 5.952187 " transform="matrix(1, 0, 0, -1, -0.135, 6.835)"/>
</g>
<g clip-path="url(#clip-5)">
<path fill-rule="nonzero" fill="rgb(0%, 0%, 0%)" fill-opacity="1" stroke-width="0.3985" stroke-linecap="butt" stroke-linejoin="miter" stroke="rgb(0%, 0%, 0%)" stroke-opacity="1" stroke-miterlimit="10" d="M 25.369375 5.952187 L 31.3225 5.952187 L 31.3225 -5.954063 L 25.369375 -5.954063 Z M 25.369375 5.952187 " transform="matrix(1, 0, 0, -1, -0.135, 6.835)"/>
</g>
<path fill-rule="nonzero" fill="rgb(0%, 0%, 0%)" fill-opacity="1" stroke-width="0.3985" stroke-linecap="butt" stroke-linejoin="miter" stroke="rgb(0%, 0%, 0%)" stroke-opacity="1" stroke-miterlimit="10" d="M 22.990469 3.573281 L 25.369375 3.573281 L 25.369375 -3.57125 L 22.990469 -3.57125 Z M 22.990469 3.573281 " transform="matrix(1, 0, 0, -1, -0.135, 6.835)"/>
<path fill-rule="nonzero" fill="rgb(0%, 0%, 0%)" fill-opacity="1" stroke-width="0.3985" stroke-linecap="butt" stroke-linejoin="miter" stroke="rgb(0%, 0%, 0%)" stroke-opacity="1" stroke-miterlimit="10" d="M 33.705313 3.573281 L 31.3225 3.573281 L 31.3225 -3.57125 L 33.705313 -3.57125 Z M 33.705313 3.573281 " transform="matrix(1, 0, 0, -1, -0.135, 6.835)"/>
</svg>
