<?xml version="1.0" encoding="UTF-8"?>
<svg xmlns="http://www.w3.org/2000/svg" xmlns:xlink="http://www.w3.org/1999/xlink" width="21.869pt" height="38.746pt" viewBox="0 0 21.869 38.746">
<defs>
<clipPath id="clip-0">
<path clip-rule="nonzero" d="M 0 0 L 21.804688 0 L 21.804688 38.617188 L 0 38.617188 Z M 0 0 "/>
</clipPath>
</defs>
<g clip-path="url(#clip-0)">
<path fill-rule="nonzero" fill="rgb(70.001221%, 90.351868%, 98.118591%)" fill-opacity="1" d="M -0.0546875 38.617188 L 21.796875 38.617188 L 21.796875 0.890625 L -0.0546875 0.890625 Z M -0.0546875 38.617188 "/>
</g>
<path fill="none" stroke-width="3.9851" stroke-linecap="butt" stroke-linejoin="miter" stroke="rgb(89.99939%, 89.99939%, 89.99939%)" stroke-opacity="1" stroke-miterlimit="10" d="M -3.752312 15.874094 L 3.751594 15.874094 " transform="matrix(1, 0, 0, -1, 10.8695, 19.753)"/>
<path fill-rule="nonzero" fill="rgb(89.99939%, 89.99939%, 89.99939%)" fill-opacity="1" d="M 8.113281 5.871094 L 5.125 5.871094 L 3.132812 3.878906 L 5.125 1.886719 L 8.113281 1.886719 Z M 8.113281 5.871094 "/>
<path fill-rule="nonzero" fill="rgb(89.99939%, 89.99939%, 89.99939%)" fill-opacity="1" d="M 13.625 1.886719 L 16.613281 1.886719 L 18.605469 3.878906 L 16.613281 5.871094 L 13.625 5.871094 Z M 13.625 1.886719 "/>
<path fill="none" stroke-width="3.9851" stroke-linecap="butt" stroke-linejoin="miter" stroke="rgb(89.99939%, 89.99939%, 89.99939%)" stroke-opacity="1" stroke-miterlimit="10" d="M 7.935188 11.6905 L 7.935188 4.182688 " transform="matrix(1, 0, 0, -1, 10.8695, 19.753)"/>
<path fill-rule="nonzero" fill="rgb(89.99939%, 89.99939%, 89.99939%)" fill-opacity="1" d="M 16.8125 9.058594 L 16.8125 6.070312 L 18.804688 4.078125 L 20.800781 6.070312 L 20.800781 9.058594 Z M 16.8125 9.058594 "/>
<path fill-rule="nonzero" fill="rgb(89.99939%, 89.99939%, 89.99939%)" fill-opacity="1" d="M 20.800781 14.574219 L 20.800781 17.5625 L 18.804688 19.554688 L 16.8125 17.5625 L 16.8125 14.574219 Z M 20.800781 14.574219 "/>
<path fill="none" stroke-width="3.9851" stroke-linecap="butt" stroke-linejoin="miter" stroke="rgb(89.99939%, 89.99939%, 89.99939%)" stroke-opacity="1" stroke-miterlimit="10" d="M 7.935188 -4.1845 L 7.935188 -11.688406 " transform="matrix(1, 0, 0, -1, 10.8695, 19.753)"/>
<path fill-rule="nonzero" fill="rgb(89.99939%, 89.99939%, 89.99939%)" fill-opacity="1" d="M 16.8125 24.933594 L 16.8125 21.945312 L 18.804688 19.953125 L 20.800781 21.945312 L 20.800781 24.933594 Z M 16.8125 24.933594 "/>
<path fill-rule="nonzero" fill="rgb(89.99939%, 89.99939%, 89.99939%)" fill-opacity="1" d="M 20.800781 30.445312 L 20.800781 33.433594 L 18.804688 35.425781 L 16.8125 33.433594 L 16.8125 30.445312 Z M 20.800781 30.445312 "/>
<path fill="none" stroke-width="3.9851" stroke-linecap="butt" stroke-linejoin="miter" stroke="rgb(89.99939%, 89.99939%, 89.99939%)" stroke-opacity="1" stroke-miterlimit="10" d="M 3.751594 -15.872 L -3.752312 -15.872 " transform="matrix(1, 0, 0, -1, 10.8695, 19.753)"/>
<path fill-rule="nonzero" fill="rgb(89.99939%, 89.99939%, 89.99939%)" fill-opacity="1" d="M 13.625 33.632812 L 16.613281 33.632812 L 18.605469 35.625 L 16.613281 37.621094 L 13.625 37.621094 Z M 13.625 33.632812 "/>
<path fill-rule="nonzero" fill="rgb(89.99939%, 89.99939%, 89.99939%)" fill-opacity="1" d="M 8.113281 37.621094 L 5.125 37.621094 L 3.132812 35.625 L 5.125 33.632812 L 8.113281 33.632812 Z M 8.113281 37.621094 "/>
<path fill="none" stroke-width="3.9851" stroke-linecap="butt" stroke-linejoin="miter" stroke="rgb(89.99939%, 89.99939%, 89.99939%)" stroke-opacity="1" stroke-miterlimit="10" d="M -7.935906 -11.688406 L -7.935906 -4.1845 " transform="matrix(1, 0, 0, -1, 10.8695, 19.753)"/>
<path fill-rule="nonzero" fill="rgb(89.99939%, 89.99939%, 89.99939%)" fill-opacity="1" d="M 4.925781 30.445312 L 4.925781 33.433594 L 2.933594 35.425781 L 0.941406 33.433594 L 0.941406 30.445312 Z M 4.925781 30.445312 "/>
<path fill-rule="nonzero" fill="rgb(89.99939%, 89.99939%, 89.99939%)" fill-opacity="1" d="M 0.941406 24.933594 L 0.941406 21.945312 L 2.933594 19.953125 L 4.925781 21.945312 L 4.925781 24.933594 Z M 0.941406 24.933594 "/>
<path fill="none" stroke-width="3.9851" stroke-linecap="butt" stroke-linejoin="miter" stroke="rgb(89.99939%, 89.99939%, 89.99939%)" stroke-opacity="1" stroke-miterlimit="10" d="M -7.935906 4.182688 L -7.935906 11.6905 " transform="matrix(1, 0, 0, -1, 10.8695, 19.753)"/>
<path fill-rule="nonzero" fill="rgb(89.99939%, 89.99939%, 89.99939%)" fill-opacity="1" d="M 4.925781 14.574219 L 4.925781 17.5625 L 2.933594 19.554688 L 0.941406 17.5625 L 0.941406 14.574219 Z M 4.925781 14.574219 "/>
<path fill-rule="nonzero" fill="rgb(89.99939%, 89.99939%, 89.99939%)" fill-opacity="1" d="M 0.941406 9.058594 L 0.941406 6.070312 L 2.933594 4.078125 L 4.925781 6.070312 L 4.925781 9.058594 Z M 0.941406 9.058594 "/>
<path fill="none" stroke-width="3.9851" stroke-linecap="butt" stroke-linejoin="miter" stroke="rgb(89.99939%, 89.99939%, 89.99939%)" stroke-opacity="1" stroke-miterlimit="10" d="M -3.752312 -0.00090625 L 3.751594 -0.00090625 " transform="matrix(1, 0, 0, -1, 10.8695, 19.753)"/>
<path fill-rule="nonzero" fill="rgb(89.99939%, 89.99939%, 89.99939%)" fill-opacity="1" d="M 8.113281 21.746094 L 5.125 21.746094 L 3.132812 19.753906 L 5.125 17.761719 L 8.113281 17.761719 Z M 8.113281 21.746094 "/>
<path fill-rule="nonzero" fill="rgb(89.99939%, 89.99939%, 89.99939%)" fill-opacity="1" d="M 13.625 17.761719 L 16.613281 17.761719 L 18.605469 19.753906 L 16.613281 21.746094 L 13.625 21.746094 Z M 13.625 17.761719 "/>
</svg>
