<?xml version="1.0" encoding="UTF-8"?>
<svg xmlns="http://www.w3.org/2000/svg" xmlns:xlink="http://www.w3.org/1999/xlink" width="85.058pt" height="97.588pt" viewBox="0 0 85.058 97.588">
<defs>
<clipPath id="clip-0">
<path clip-rule="nonzero" d="M 0 8 L 84.585938 8 L 84.585938 9 L 0 9 Z M 0 8 "/>
</clipPath>
<clipPath id="clip-1">
<path clip-rule="nonzero" d="M 0 36 L 84.585938 36 L 84.585938 38 L 0 38 Z M 0 36 "/>
</clipPath>
<clipPath id="clip-2">
<path clip-rule="nonzero" d="M 0 65 L 84.585938 65 L 84.585938 66 L 0 66 Z M 0 65 "/>
</clipPath>
<clipPath id="clip-3">
<path clip-rule="nonzero" d="M 0 93 L 84.585938 93 L 84.585938 95 L 0 95 Z M 0 93 "/>
</clipPath>
<clipPath id="clip-4">
<path clip-rule="nonzero" d="M 29 87 L 55 87 L 55 97.382812 L 29 97.382812 Z M 29 87 "/>
</clipPath>
</defs>
<g clip-path="url(#clip-0)">
<path fill="none" stroke-width="0.3985" stroke-linecap="butt" stroke-linejoin="miter" stroke="rgb(0%, 0%, 0%)" stroke-opacity="1" stroke-miterlimit="10" d="M 0.0010625 0.0009375 L 30.614344 0.0009375 M 54.426844 0.0009375 L 85.040125 0.0009375 " transform="matrix(1, 0, 0, -1, -0.462, 8.79)"/>
</g>
<path fill="none" stroke-width="0.797" stroke-linecap="butt" stroke-linejoin="bevel" stroke="rgb(0%, 0%, 0%)" stroke-opacity="1" stroke-miterlimit="10" d="M 30.215906 -0.159219 C 30.215906 3.129844 31.852625 5.793906 33.86825 5.793906 C 35.883875 5.793906 37.520594 3.129844 37.520594 -0.159219 C 37.520594 -1.80375 36.852625 -3.135781 36.032313 -3.135781 C 35.208094 -3.135781 34.544031 -1.80375 34.544031 -0.159219 C 34.544031 3.129844 36.176844 5.793906 38.192469 5.793906 C 40.212 5.793906 41.844813 3.129844 41.844813 -0.159219 C 41.844813 -1.80375 41.18075 -3.135781 40.356531 -3.135781 C 39.536219 -3.135781 38.86825 -1.80375 38.86825 -0.159219 C 38.86825 3.129844 40.504969 5.793906 42.520594 5.793906 C 44.536219 5.793906 46.172938 3.129844 46.172938 -0.159219 C 46.172938 -1.80375 45.504969 -3.135781 44.684656 -3.135781 C 43.860438 -3.135781 43.196375 -1.80375 43.196375 -0.159219 C 43.196375 3.129844 44.829188 5.793906 46.844813 5.793906 C 48.864344 5.793906 50.497156 3.129844 50.497156 -0.159219 C 50.497156 -1.80375 49.833094 -3.135781 49.008875 -3.135781 C 48.188563 -3.135781 47.520594 -1.80375 47.520594 -0.159219 C 47.520594 3.129844 49.157313 5.793906 51.172938 5.793906 C 53.188563 5.793906 54.825281 3.129844 54.825281 -0.159219 " transform="matrix(1, 0, 0, -1, -0.462, 8.79)"/>
<path fill="none" stroke-width="0.797" stroke-linecap="butt" stroke-linejoin="bevel" stroke="rgb(0%, 0%, 0%)" stroke-opacity="1" stroke-miterlimit="10" d="M 30.614344 7.579062 L 54.426844 7.579062 " transform="matrix(1, 0, 0, -1, -0.462, 8.79)"/>
<g clip-path="url(#clip-1)">
<path fill="none" stroke-width="0.3985" stroke-linecap="butt" stroke-linejoin="miter" stroke="rgb(0%, 0%, 0%)" stroke-opacity="1" stroke-miterlimit="10" d="M 0.0010625 -28.346719 L 30.614344 -28.346719 M 54.426844 -28.346719 L 85.040125 -28.346719 " transform="matrix(1, 0, 0, -1, -0.462, 8.79)"/>
</g>
<path fill="none" stroke-width="0.797" stroke-linecap="butt" stroke-linejoin="bevel" stroke="rgb(0%, 0%, 0%)" stroke-opacity="1" stroke-miterlimit="10" d="M 30.215906 -28.506875 C 30.215906 -25.217813 31.852625 -22.55375 33.86825 -22.55375 C 35.883875 -22.55375 37.520594 -25.217813 37.520594 -28.506875 C 37.520594 -30.151406 36.852625 -31.483438 36.032313 -31.483438 C 35.208094 -31.483438 34.544031 -30.151406 34.544031 -28.506875 C 34.544031 -25.217813 36.176844 -22.55375 38.192469 -22.55375 C 40.212 -22.55375 41.844813 -25.217813 41.844813 -28.506875 C 41.844813 -30.151406 41.18075 -31.483438 40.356531 -31.483438 C 39.536219 -31.483438 38.86825 -30.151406 38.86825 -28.506875 C 38.86825 -25.217813 40.504969 -22.55375 42.520594 -22.55375 C 44.536219 -22.55375 46.172938 -25.217813 46.172938 -28.506875 C 46.172938 -30.151406 45.504969 -31.483438 44.684656 -31.483438 C 43.860438 -31.483438 43.196375 -30.151406 43.196375 -28.506875 C 43.196375 -25.217813 44.829188 -22.55375 46.844813 -22.55375 C 48.864344 -22.55375 50.497156 -25.217813 50.497156 -28.506875 C 50.497156 -30.151406 49.833094 -31.483438 49.008875 -31.483438 C 48.188563 -31.483438 47.520594 -30.151406 47.520594 -28.506875 C 47.520594 -25.217813 49.157313 -22.55375 51.172938 -22.55375 C 53.188563 -22.55375 54.825281 -25.217813 54.825281 -28.506875 " transform="matrix(1, 0, 0, -1, -0.462, 8.79)"/>
<path fill="none" stroke-width="0.797" stroke-linecap="butt" stroke-linejoin="bevel" stroke="rgb(0%, 0%, 0%)" stroke-opacity="1" stroke-miterlimit="10" d="M 30.614344 -20.768594 L 54.426844 -20.768594 " transform="matrix(1, 0, 0, -1, -0.462, 8.79)"/>
<path fill="none" stroke-width="0.797" stroke-linecap="butt" stroke-linejoin="bevel" stroke="rgb(0%, 0%, 0%)" stroke-opacity="1" stroke-miterlimit="10" d="M 30.614344 -18.983438 L 54.426844 -18.983438 " transform="matrix(1, 0, 0, -1, -0.462, 8.79)"/>
<g clip-path="url(#clip-2)">
<path fill="none" stroke-width="0.3985" stroke-linecap="butt" stroke-linejoin="miter" stroke="rgb(0%, 0%, 0%)" stroke-opacity="1" stroke-miterlimit="10" d="M 0.0010625 -56.694375 L 30.614344 -56.694375 M 54.426844 -56.694375 L 85.040125 -56.694375 " transform="matrix(1, 0, 0, -1, -0.462, 8.79)"/>
</g>
<path fill="none" stroke-width="0.797" stroke-linecap="butt" stroke-linejoin="bevel" stroke="rgb(0%, 0%, 0%)" stroke-opacity="1" stroke-miterlimit="10" d="M 30.215906 -56.854531 C 30.215906 -53.565469 31.852625 -50.901406 33.86825 -50.901406 C 35.883875 -50.901406 37.520594 -53.565469 37.520594 -56.854531 C 37.520594 -58.495156 36.852625 -59.831094 36.032313 -59.831094 C 35.208094 -59.831094 34.544031 -58.495156 34.544031 -56.854531 C 34.544031 -53.565469 36.176844 -50.901406 38.192469 -50.901406 C 40.212 -50.901406 41.844813 -53.565469 41.844813 -56.854531 C 41.844813 -58.495156 41.18075 -59.831094 40.356531 -59.831094 C 39.536219 -59.831094 38.86825 -58.495156 38.86825 -56.854531 C 38.86825 -53.565469 40.504969 -50.901406 42.520594 -50.901406 C 44.536219 -50.901406 46.172938 -53.565469 46.172938 -56.854531 C 46.172938 -58.495156 45.504969 -59.831094 44.684656 -59.831094 C 43.860438 -59.831094 43.196375 -58.495156 43.196375 -56.854531 C 43.196375 -53.565469 44.829188 -50.901406 46.844813 -50.901406 C 48.864344 -50.901406 50.497156 -53.565469 50.497156 -56.854531 C 50.497156 -58.495156 49.833094 -59.831094 49.008875 -59.831094 C 48.188563 -59.831094 47.520594 -58.495156 47.520594 -56.854531 C 47.520594 -53.565469 49.157313 -50.901406 51.172938 -50.901406 C 53.188563 -50.901406 54.825281 -53.565469 54.825281 -56.854531 " transform="matrix(1, 0, 0, -1, -0.462, 8.79)"/>
<path fill="none" stroke-width="1.59401" stroke-linecap="butt" stroke-linejoin="bevel" stroke="rgb(0%, 0%, 0%)" stroke-opacity="1" stroke-miterlimit="10" d="M 30.614344 -49.112344 L 54.426844 -49.112344 " transform="matrix(1, 0, 0, -1, -0.462, 8.79)"/>
<path fill="none" stroke-width="1.59401" stroke-linecap="butt" stroke-linejoin="bevel" stroke="rgb(0%, 0%, 0%)" stroke-opacity="1" stroke-miterlimit="10" d="M 30.614344 -47.327188 L 54.426844 -47.327188 " transform="matrix(1, 0, 0, -1, -0.462, 8.79)"/>
<g clip-path="url(#clip-3)">
<path fill="none" stroke-width="0.3985" stroke-linecap="butt" stroke-linejoin="miter" stroke="rgb(0%, 0%, 0%)" stroke-opacity="1" stroke-miterlimit="10" d="M 0.0010625 -85.042031 L 30.614344 -85.042031 M 54.426844 -85.042031 L 85.040125 -85.042031 " transform="matrix(1, 0, 0, -1, -0.462, 8.79)"/>
</g>
<g clip-path="url(#clip-4)">
<path fill="none" stroke-width="0.797" stroke-linecap="butt" stroke-linejoin="bevel" stroke="rgb(0%, 0%, 0%)" stroke-opacity="1" stroke-miterlimit="10" d="M 30.215906 -85.198281 C 30.215906 -81.913125 31.852625 -79.245156 33.86825 -79.245156 C 35.883875 -79.245156 37.520594 -81.913125 37.520594 -85.198281 C 37.520594 -86.842813 36.852625 -88.174844 36.032313 -88.174844 C 35.208094 -88.174844 34.544031 -86.842813 34.544031 -85.198281 C 34.544031 -81.913125 36.176844 -79.245156 38.192469 -79.245156 C 40.212 -79.245156 41.844813 -81.913125 41.844813 -85.198281 C 41.844813 -86.842813 41.18075 -88.174844 40.356531 -88.174844 C 39.536219 -88.174844 38.86825 -86.842813 38.86825 -85.198281 C 38.86825 -81.913125 40.504969 -79.245156 42.520594 -79.245156 C 44.536219 -79.245156 46.172938 -81.913125 46.172938 -85.198281 C 46.172938 -86.842813 45.504969 -88.174844 44.684656 -88.174844 C 43.860438 -88.174844 43.196375 -86.842813 43.196375 -85.198281 C 43.196375 -81.913125 44.829188 -79.245156 46.844813 -79.245156 C 48.864344 -79.245156 50.497156 -81.913125 50.497156 -85.198281 C 50.497156 -86.842813 49.833094 -88.174844 49.008875 -88.174844 C 48.188563 -88.174844 47.520594 -86.842813 47.520594 -85.198281 C 47.520594 -81.913125 49.157313 -79.245156 51.172938 -79.245156 C 53.188563 -79.245156 54.825281 -81.913125 54.825281 -85.198281 " transform="matrix(1, 0, 0, -1, -0.462, 8.79)"/>
</g>
<path fill="none" stroke-width="1.59401" stroke-linecap="butt" stroke-linejoin="bevel" stroke="rgb(0%, 0%, 0%)" stroke-opacity="1" stroke-miterlimit="10" d="M 30.614344 -77.46 L 54.426844 -77.46 " transform="matrix(1, 0, 0, -1, -0.462, 8.79)"/>
</svg>
