<?xml version="1.0" encoding="UTF-8"?>
<svg xmlns="http://www.w3.org/2000/svg" xmlns:xlink="http://www.w3.org/1999/xlink" width="59.552pt" height="145.774pt" viewBox="0 0 59.552 145.774">
<defs>
<clipPath id="clip-0">
<path clip-rule="nonzero" d="M 0 85 L 59.328125 85 L 59.328125 145.660156 L 0 145.660156 Z M 0 85 "/>
</clipPath>
</defs>
<path fill="none" stroke-width="0.797" stroke-linecap="butt" stroke-linejoin="bevel" stroke="rgb(0%, 0%, 0%)" stroke-opacity="1" stroke-miterlimit="10" d="M -12.064625 6.351219 C -8.779469 6.351219 -6.1115 3.507469 -6.1115 -0.00034375 C -6.1115 -3.508156 -8.779469 -6.351906 -12.064625 -6.351906 " transform="matrix(1, 0, 0, -1, 29.549, 30.652)"/>
<path fill="none" stroke-width="0.797" stroke-linecap="butt" stroke-linejoin="bevel" stroke="rgb(0%, 0%, 0%)" stroke-opacity="1" stroke-miterlimit="10" d="M 12.064281 -12.305031 C 8.779125 -12.305031 6.111156 -10.668312 6.111156 -8.652687 C 6.111156 -6.637062 8.779125 -5.000344 12.064281 -5.000344 C 13.708812 -5.000344 15.040844 -5.668312 15.040844 -6.488625 C 15.040844 -7.312844 13.708812 -7.976906 12.064281 -7.976906 C 8.779125 -7.976906 6.111156 -6.344094 6.111156 -4.324562 C 6.111156 -2.308937 8.779125 -0.676125 12.064281 -0.676125 C 13.708812 -0.676125 15.040844 -1.340187 15.040844 -2.164406 C 15.040844 -2.984719 13.708812 -3.652687 12.064281 -3.652687 C 8.779125 -3.652687 6.111156 -2.015969 6.111156 -0.00034375 C 6.111156 2.015281 8.779125 3.652 12.064281 3.652 C 13.708812 3.652 15.040844 2.984031 15.040844 2.163719 C 15.040844 1.3395 13.708812 0.675438 12.064281 0.675438 C 8.779125 0.675438 6.111156 2.30825 6.111156 4.327781 C 6.111156 6.343406 8.779125 7.976219 12.064281 7.976219 C 13.708812 7.976219 15.040844 7.312156 15.040844 6.487938 C 15.040844 5.667625 13.708812 4.999656 12.064281 4.999656 C 8.779125 4.999656 6.111156 6.636375 6.111156 8.652 C 6.111156 10.667625 8.779125 12.304344 12.064281 12.304344 " transform="matrix(1, 0, 0, -1, 29.549, 30.652)"/>
<path fill="none" stroke-width="0.3985" stroke-linecap="butt" stroke-linejoin="miter" stroke="rgb(0%, 0%, 0%)" stroke-opacity="1" stroke-miterlimit="10" d="M -11.904469 29.765281 L -11.904469 5.952781 M -11.904469 -5.953469 L -11.904469 -29.765969 M 11.904125 29.765281 L 11.904125 11.905906 M 11.904125 -11.906594 L 11.904125 -29.765969 " transform="matrix(1, 0, 0, -1, 29.549, 30.652)"/>
<path fill="none" stroke-width="0.797" stroke-linecap="butt" stroke-linejoin="miter" stroke="rgb(0%, 0%, 0%)" stroke-opacity="1" stroke-miterlimit="10" d="M 1.490062 -14.883156 L 1.490062 14.882469 M -1.4865 -14.883156 L -1.4865 14.882469 " transform="matrix(1, 0, 0, -1, 29.549, 30.652)"/>
<path fill="none" stroke-width="0.797" stroke-linecap="butt" stroke-linejoin="bevel" stroke="rgb(0%, 0%, 0%)" stroke-opacity="1" stroke-miterlimit="10" d="M -12.064625 -72.734719 C -8.775563 -72.734719 -6.1115 -74.371437 -6.1115 -76.387062 C -6.1115 -78.402687 -8.775563 -80.039406 -12.064625 -80.039406 C -13.709156 -80.039406 -15.041188 -79.371437 -15.041188 -78.551125 C -15.041188 -77.730812 -13.709156 -77.062844 -12.064625 -77.062844 C -8.775563 -77.062844 -6.1115 -78.695656 -6.1115 -80.715187 C -6.1115 -82.730812 -8.775563 -84.363625 -12.064625 -84.363625 C -13.709156 -84.363625 -15.041188 -83.699562 -15.041188 -82.875344 C -15.041188 -82.055031 -13.709156 -81.390969 -12.064625 -81.390969 C -8.775563 -81.390969 -6.1115 -83.023781 -6.1115 -85.039406 C -6.1115 -87.058937 -8.775563 -88.69175 -12.064625 -88.69175 C -13.709156 -88.69175 -15.041188 -88.023781 -15.041188 -87.203469 C -15.041188 -86.383156 -13.709156 -85.715187 -12.064625 -85.715187 C -8.775563 -85.715187 -6.1115 -87.351906 -6.1115 -89.367531 C -6.1115 -91.383156 -8.775563 -93.019875 -12.064625 -93.019875 C -13.709156 -93.019875 -15.041188 -92.351906 -15.041188 -91.531594 C -15.041188 -90.707375 -13.709156 -90.043312 -12.064625 -90.043312 C -8.775563 -90.043312 -6.1115 -91.676125 -6.1115 -93.69175 C -6.1115 -95.711281 -8.775563 -97.344094 -12.064625 -97.344094 " transform="matrix(1, 0, 0, -1, 29.549, 30.652)"/>
<path fill="none" stroke-width="0.797" stroke-linecap="butt" stroke-linejoin="bevel" stroke="rgb(0%, 0%, 0%)" stroke-opacity="1" stroke-miterlimit="10" d="M 12.064281 -97.344094 C 8.775219 -97.344094 6.111156 -95.711281 6.111156 -93.69175 C 6.111156 -91.676125 8.775219 -90.043312 12.064281 -90.043312 C 13.708812 -90.043312 15.040844 -90.707375 15.040844 -91.531594 C 15.040844 -92.351906 13.708812 -93.019875 12.064281 -93.019875 C 8.775219 -93.019875 6.111156 -91.383156 6.111156 -89.367531 C 6.111156 -87.351906 8.775219 -85.715187 12.064281 -85.715187 C 13.708812 -85.715187 15.040844 -86.383156 15.040844 -87.203469 C 15.040844 -88.023781 13.708812 -88.69175 12.064281 -88.69175 C 8.775219 -88.69175 6.111156 -87.058937 6.111156 -85.039406 C 6.111156 -83.023781 8.775219 -81.390969 12.064281 -81.390969 C 13.708812 -81.390969 15.040844 -82.055031 15.040844 -82.875344 C 15.040844 -83.699562 13.708812 -84.363625 12.064281 -84.363625 C 8.775219 -84.363625 6.111156 -82.730812 6.111156 -80.715187 C 6.111156 -78.695656 8.775219 -77.062844 12.064281 -77.062844 C 13.708812 -77.062844 15.040844 -77.730812 15.040844 -78.551125 C 15.040844 -79.371437 13.708812 -80.039406 12.064281 -80.039406 C 8.775219 -80.039406 6.111156 -78.402687 6.111156 -76.387062 C 6.111156 -74.371437 8.775219 -72.734719 12.064281 -72.734719 " transform="matrix(1, 0, 0, -1, 29.549, 30.652)"/>
<g clip-path="url(#clip-0)">
<path fill="none" stroke-width="0.3985" stroke-linecap="butt" stroke-linejoin="miter" stroke="rgb(0%, 0%, 0%)" stroke-opacity="1" stroke-miterlimit="10" d="M -29.763844 -55.277687 L -11.904469 -55.277687 L -11.904469 -73.133156 M -11.904469 -96.945656 L -11.904469 -114.805031 L -29.763844 -114.805031 M 29.7635 -55.277687 L 11.904125 -55.277687 L 11.904125 -73.133156 M 11.904125 -96.945656 L 11.904125 -114.805031 L 29.7635 -114.805031 " transform="matrix(1, 0, 0, -1, 29.549, 30.652)"/>
</g>
</svg>
