<?xml version="1.0" encoding="UTF-8"?>
<svg xmlns="http://www.w3.org/2000/svg" xmlns:xlink="http://www.w3.org/1999/xlink" width="125.848pt" height="127.198pt" viewBox="0 0 125.848 127.198">
<defs>
<clipPath id="clip-0">
<path clip-rule="nonzero" d="M 0 7 L 120 7 L 120 126.796875 L 0 126.796875 Z M 0 7 "/>
</clipPath>
<clipPath id="clip-1">
<path clip-rule="nonzero" d="M 90 60 L 125.773438 60 L 125.773438 107 L 90 107 Z M 90 60 "/>
</clipPath>
<clipPath id="clip-2">
<path clip-rule="nonzero" d="M 0 35 L 91 35 L 91 126.796875 L 0 126.796875 Z M 0 35 "/>
</clipPath>
</defs>
<g clip-path="url(#clip-0)">
<path fill="none" stroke-width="0.3985" stroke-linecap="butt" stroke-linejoin="miter" stroke="rgb(0%, 0%, 0%)" stroke-opacity="1" stroke-miterlimit="10" d="M -0.0006875 28.345125 L 30.612594 28.345125 M 54.425094 28.345125 L 85.042281 28.345125 L 90.796188 22.591219 M 107.632125 5.755281 L 113.386031 0.001375 L 113.386031 -30.615812 M 113.386031 -54.424406 L 113.386031 -85.041594 " transform="matrix(1, 0, 0, -1, 0.071, 41.267)"/>
</g>
<path fill="none" stroke-width="0.797" stroke-linecap="butt" stroke-linejoin="miter" stroke="rgb(0%, 0%, 0%)" stroke-opacity="1" stroke-miterlimit="10" d="M 42.518844 40.251375 C 35.944625 40.251375 30.612594 34.92325 30.612594 28.345125 C 30.612594 21.770906 35.944625 16.442781 42.518844 16.442781 C 49.096969 16.442781 54.425094 21.770906 54.425094 28.345125 C 54.425094 34.92325 49.096969 40.251375 42.518844 40.251375 Z M 42.518844 40.251375 " transform="matrix(1, 0, 0, -1, 0.071, 41.267)"/>
<path fill="none" stroke-width="0.797" stroke-linecap="butt" stroke-linejoin="miter" stroke="rgb(0%, 0%, 0%)" stroke-opacity="1" stroke-miterlimit="10" d="M 42.518844 22.392 L 36.565719 22.392 L 36.565719 28.345125 L 48.471969 28.345125 L 48.471969 34.29825 L 42.518844 34.29825 " transform="matrix(1, 0, 0, -1, 0.071, 41.267)"/>
<path fill="none" stroke-width="0.797" stroke-linecap="butt" stroke-linejoin="miter" stroke="rgb(0%, 0%, 0%)" stroke-opacity="1" stroke-miterlimit="10" d="M 107.632125 22.591219 C 102.983688 27.239656 95.444625 27.239656 90.796188 22.591219 C 86.143844 17.942781 86.143844 10.403719 90.796188 5.755281 C 95.444625 1.106844 102.983688 1.106844 107.632125 5.755281 C 112.280563 10.403719 112.280563 17.942781 107.632125 22.591219 Z M 107.632125 22.591219 " transform="matrix(1, 0, 0, -1, 0.071, 41.267)"/>
<path fill="none" stroke-width="0.797" stroke-linecap="butt" stroke-linejoin="miter" stroke="rgb(0%, 0%, 0%)" stroke-opacity="1" stroke-miterlimit="10" d="M 95.003219 9.962313 L 90.796188 14.17325 L 95.003219 18.384188 L 103.421188 9.962313 L 107.632125 14.17325 L 103.421188 18.384188 " transform="matrix(1, 0, 0, -1, 0.071, 41.267)"/>
<g clip-path="url(#clip-1)">
<path fill="none" stroke-width="0.797" stroke-linecap="butt" stroke-linejoin="miter" stroke="rgb(0%, 0%, 0%)" stroke-opacity="1" stroke-miterlimit="10" d="M 125.292281 -42.522062 C 125.292281 -35.943937 119.964156 -30.615812 113.386031 -30.615812 C 106.811813 -30.615812 101.479781 -35.943937 101.479781 -42.522062 C 101.479781 -49.096281 106.811813 -54.424406 113.386031 -54.424406 C 119.964156 -54.424406 125.292281 -49.096281 125.292281 -42.522062 Z M 125.292281 -42.522062 " transform="matrix(1, 0, 0, -1, 0.071, 41.267)"/>
</g>
<path fill="none" stroke-width="0.797" stroke-linecap="butt" stroke-linejoin="miter" stroke="rgb(0%, 0%, 0%)" stroke-opacity="1" stroke-miterlimit="10" d="M 107.432906 -42.522062 L 107.432906 -36.568937 L 113.386031 -36.568937 L 113.386031 -48.471281 L 119.339156 -48.471281 L 119.339156 -42.522062 " transform="matrix(1, 0, 0, -1, 0.071, 41.267)"/>
<g clip-path="url(#clip-2)">
<path fill="none" stroke-width="0.3985" stroke-linecap="butt" stroke-linejoin="miter" stroke="rgb(100%, 0%, 0%)" stroke-opacity="1" stroke-miterlimit="10" d="M -0.0006875 0.001375 L 30.612594 0.001375 M 54.425094 0.001375 L 85.042281 0.001375 L 85.042281 -30.615812 M 85.042281 -54.424406 L 85.042281 -85.041594 L 50.940719 -50.940031 M 34.100875 -34.100187 L -0.0006875 0.001375 " transform="matrix(1, 0, 0, -1, 0.071, 41.267)"/>
</g>
<path fill="none" stroke-width="0.797" stroke-linecap="butt" stroke-linejoin="miter" stroke="rgb(100%, 0%, 0%)" stroke-opacity="1" stroke-miterlimit="10" d="M 42.518844 11.907625 C 35.944625 11.907625 30.612594 6.575594 30.612594 0.001375 C 30.612594 -6.57675 35.944625 -11.904875 42.518844 -11.904875 C 49.096969 -11.904875 54.425094 -6.57675 54.425094 0.001375 C 54.425094 6.575594 49.096969 11.907625 42.518844 11.907625 Z M 42.518844 11.907625 " transform="matrix(1, 0, 0, -1, 0.071, 41.267)"/>
<path fill="none" stroke-width="2.39102" stroke-linecap="butt" stroke-linejoin="miter" stroke="rgb(100%, 0%, 0%)" stroke-opacity="1" stroke-miterlimit="10" d="M 36.565719 0.001375 L 36.565719 5.9545 L 42.518844 5.9545 L 42.518844 -5.95175 L 48.471969 -5.95175 L 48.471969 0.001375 " transform="matrix(1, 0, 0, -1, 0.071, 41.267)"/>
<path fill="none" stroke-width="0.797" stroke-linecap="butt" stroke-linejoin="miter" stroke="rgb(100%, 0%, 0%)" stroke-opacity="1" stroke-miterlimit="10" d="M 96.944625 -42.522062 C 96.944625 -35.943937 91.6165 -30.615812 85.042281 -30.615812 C 78.464156 -30.615812 73.136031 -35.943937 73.136031 -42.522062 C 73.136031 -49.096281 78.464156 -54.424406 85.042281 -54.424406 C 91.6165 -54.424406 96.944625 -49.096281 96.944625 -42.522062 Z M 96.944625 -42.522062 " transform="matrix(1, 0, 0, -1, 0.071, 41.267)"/>
<path fill="none" stroke-width="2.39102" stroke-linecap="butt" stroke-linejoin="miter" stroke="rgb(100%, 0%, 0%)" stroke-opacity="1" stroke-miterlimit="10" d="M 79.089156 -42.522062 L 79.089156 -36.568937 L 85.042281 -36.568937 L 85.042281 -48.471281 L 90.9915 -48.471281 L 90.9915 -42.522062 " transform="matrix(1, 0, 0, -1, 0.071, 41.267)"/>
<path fill="none" stroke-width="0.797" stroke-linecap="butt" stroke-linejoin="miter" stroke="rgb(100%, 0%, 0%)" stroke-opacity="1" stroke-miterlimit="10" d="M 34.100875 -50.940031 C 38.749313 -55.588469 46.288375 -55.588469 50.940719 -50.940031 C 55.589156 -46.287687 55.589156 -38.752531 50.940719 -34.100187 C 46.288375 -29.45175 38.749313 -29.45175 34.100875 -34.100187 C 29.452438 -38.752531 29.452438 -46.287687 34.100875 -50.940031 Z M 34.100875 -50.940031 " transform="matrix(1, 0, 0, -1, 0.071, 41.267)"/>
<path fill="none" stroke-width="2.39102" stroke-linecap="butt" stroke-linejoin="miter" stroke="rgb(100%, 0%, 0%)" stroke-opacity="1" stroke-miterlimit="10" d="M 36.565719 -42.522062 L 36.565719 -36.568937 L 42.518844 -36.568937 L 42.518844 -48.471281 L 48.471969 -48.471281 L 48.471969 -42.522062 " transform="matrix(1, 0, 0, -1, 0.071, 41.267)"/>
</svg>
