<?xml version="1.0" encoding="UTF-8"?>
<svg xmlns="http://www.w3.org/2000/svg" xmlns:xlink="http://www.w3.org/1999/xlink" width="7.963pt" height="8.956pt" viewBox="0 0 7.963 8.956">
<defs>
<clipPath id="clip-0">
<path clip-rule="nonzero" d="M 0 3 L 7.945312 3 L 7.945312 6 L 0 6 Z M 0 3 "/>
</clipPath>
<clipPath id="clip-1">
<path clip-rule="nonzero" d="M 3 0 L 5 0 L 5 8.933594 L 3 8.933594 Z M 3 0 "/>
</clipPath>
</defs>
<g clip-path="url(#clip-0)">
<path fill="none" stroke-width="0.3985" stroke-linecap="butt" stroke-linejoin="bevel" stroke="rgb(0%, 0%, 0%)" stroke-opacity="1" stroke-miterlimit="10" d="M -3.970219 -0.001125 L -1.587406 -0.001125 C -1.587406 0.877781 -0.876469 1.588719 -0.00146875 1.588719 C 0.877437 1.588719 1.588375 0.877781 1.588375 -0.001125 L 3.967281 -0.001125 " transform="matrix(1, 0, 0, -1, 3.9585, 4.952)"/>
</g>
<g clip-path="url(#clip-1)">
<path fill="none" stroke-width="0.3985" stroke-linecap="butt" stroke-linejoin="bevel" stroke="rgb(0%, 0%, 0%)" stroke-opacity="1" stroke-miterlimit="10" d="M -0.00146875 3.967625 L -0.00146875 1.98325 M -0.00146875 1.190281 L -0.00146875 -3.969875 " transform="matrix(1, 0, 0, -1, 3.9585, 4.952)"/>
</g>
</svg>
