<?xml version="1.0" encoding="UTF-8"?>
<svg xmlns="http://www.w3.org/2000/svg" xmlns:xlink="http://www.w3.org/1999/xlink" width="56.712pt" height="25.642pt" viewBox="0 0 56.712 25.642">
<defs>
<clipPath id="clip-0">
<path clip-rule="nonzero" d="M 0 12 L 56.566406 12 L 56.566406 14 L 0 14 Z M 0 12 "/>
</clipPath>
<clipPath id="clip-1">
<path clip-rule="nonzero" d="M 16 1 L 41 1 L 41 25.464844 L 16 25.464844 Z M 16 1 "/>
</clipPath>
<clipPath id="clip-2">
<path clip-rule="nonzero" d="M 5 0 L 52 0 L 52 25.464844 L 5 25.464844 Z M 5 0 "/>
</clipPath>
<clipPath id="clip-3">
<path clip-rule="nonzero" d="M 21 0 L 48 0 L 48 25.464844 L 21 25.464844 Z M 21 0 "/>
</clipPath>
<clipPath id="clip-4">
<path clip-rule="nonzero" d="M 15 6 L 42 6 L 42 25.464844 L 15 25.464844 Z M 15 6 "/>
</clipPath>
</defs>
<g clip-path="url(#clip-0)">
<path fill="none" stroke-width="0.3985" stroke-linecap="butt" stroke-linejoin="miter" stroke="rgb(0%, 0%, 0%)" stroke-opacity="1" stroke-miterlimit="10" d="M -0.00171875 -0.00153125 L 16.439688 -0.00153125 M 40.252188 -0.00153125 L 56.693594 -0.00153125 " transform="matrix(1, 0, 0, -1, -0.135, 13.143)"/>
</g>
<g clip-path="url(#clip-1)">
<path fill-rule="nonzero" fill="rgb(70.001221%, 90.351868%, 98.118591%)" fill-opacity="1" d="M 28.210938 1.238281 C 21.636719 1.238281 16.304688 6.566406 16.304688 13.144531 C 16.304688 19.71875 21.636719 25.046875 28.210938 25.046875 C 34.789062 25.046875 40.117188 19.71875 40.117188 13.144531 C 40.117188 6.566406 34.789062 1.238281 28.210938 1.238281 Z M 28.210938 1.238281 "/>
</g>
<g clip-path="url(#clip-2)">
<path fill="none" stroke-width="0.797" stroke-linecap="butt" stroke-linejoin="miter" stroke="rgb(0%, 0%, 0%)" stroke-opacity="1" stroke-miterlimit="10" d="M 28.345938 11.904719 C 21.771719 11.904719 16.439688 6.576594 16.439688 -0.00153125 C 16.439688 -6.57575 21.771719 -11.903875 28.345938 -11.903875 C 34.924063 -11.903875 40.252188 -6.57575 40.252188 -0.00153125 C 40.252188 6.576594 34.924063 11.904719 28.345938 11.904719 Z M 28.345938 11.904719 " transform="matrix(1, 0, 0, -1, -0.135, 13.143)"/>
</g>
<path fill="none" stroke-width="0.3985" stroke-linecap="butt" stroke-linejoin="miter" stroke="rgb(0%, 0%, 0%)" stroke-opacity="1" stroke-miterlimit="10" d="M 16.439688 -0.00153125 L 22.392813 -0.00153125 M 40.252188 -0.00153125 L 34.299063 -0.00153125 " transform="matrix(1, 0, 0, -1, -0.135, 13.143)"/>
<path fill="none" stroke-width="0.797" stroke-linecap="butt" stroke-linejoin="miter" stroke="rgb(0%, 0%, 0%)" stroke-opacity="1" stroke-miterlimit="10" d="M 22.392813 -5.954656 L 22.392813 5.951594 " transform="matrix(1, 0, 0, -1, -0.135, 13.143)"/>
<path fill-rule="nonzero" fill="rgb(70.001221%, 90.351868%, 98.118591%)" fill-opacity="1" d="M 35.75 13.144531 C 35.75 12.265625 35.042969 11.554688 34.164062 11.554688 C 33.289062 11.554688 32.578125 12.265625 32.578125 13.144531 C 32.578125 14.019531 33.289062 14.730469 34.164062 14.730469 C 35.042969 14.730469 35.75 14.019531 35.75 13.144531 Z M 35.75 13.144531 "/>
<g clip-path="url(#clip-3)">
<path fill="none" stroke-width="0.797" stroke-linecap="butt" stroke-linejoin="miter" stroke="rgb(0%, 0%, 0%)" stroke-opacity="1" stroke-miterlimit="10" d="M 35.885 -0.00153125 C 35.885 0.877375 35.177969 1.588312 34.299063 1.588312 C 33.424063 1.588312 32.713125 0.877375 32.713125 -0.00153125 C 32.713125 -0.876531 33.424063 -1.587469 34.299063 -1.587469 C 35.177969 -1.587469 35.885 -0.876531 35.885 -0.00153125 Z M 35.885 -0.00153125 " transform="matrix(1, 0, 0, -1, -0.135, 13.143)"/>
</g>
<path fill-rule="nonzero" fill="rgb(0%, 0%, 0%)" fill-opacity="1" d="M 29.800781 19.097656 C 29.800781 18.21875 29.089844 17.507812 28.210938 17.507812 C 27.335938 17.507812 26.625 18.21875 26.625 19.097656 C 26.625 19.972656 27.335938 20.683594 28.210938 20.683594 C 29.089844 20.683594 29.800781 19.972656 29.800781 19.097656 Z M 29.800781 19.097656 "/>
<g clip-path="url(#clip-4)">
<path fill="none" stroke-width="0.797" stroke-linecap="butt" stroke-linejoin="miter" stroke="rgb(0%, 0%, 0%)" stroke-opacity="1" stroke-miterlimit="10" d="M 29.935781 -5.954656 C 29.935781 -5.07575 29.224844 -4.364813 28.345938 -4.364813 C 27.470938 -4.364813 26.76 -5.07575 26.76 -5.954656 C 26.76 -6.829656 27.470938 -7.540594 28.345938 -7.540594 C 29.224844 -7.540594 29.935781 -6.829656 29.935781 -5.954656 Z M 29.935781 -5.954656 " transform="matrix(1, 0, 0, -1, -0.135, 13.143)"/>
</g>
</svg>
