<?xml version="1.0" encoding="UTF-8"?>
<svg xmlns="http://www.w3.org/2000/svg" xmlns:xlink="http://www.w3.org/1999/xlink" width="113.408" height="61.552" viewBox="0 0 113.408 61.552">
<defs>
<clipPath id="clip-0">
<path clip-rule="nonzero" d="M 0 19 L 113.113281 19 L 113.113281 51 L 0 51 Z M 0 19 "/>
</clipPath>
<clipPath id="clip-1">
<path clip-rule="nonzero" d="M 69 11 L 113.113281 11 L 113.113281 61 L 69 61 Z M 69 11 "/>
</clipPath>
<clipPath id="clip-2">
<path clip-rule="nonzero" d="M 69 0 L 113.113281 0 L 113.113281 39 L 69 39 Z M 69 0 "/>
</clipPath>
<clipPath id="clip-3">
<path clip-rule="nonzero" d="M 79 0 L 113.113281 0 L 113.113281 31 L 79 31 Z M 79 0 "/>
</clipPath>
<clipPath id="clip-4">
<path clip-rule="nonzero" d="M 76 22 L 113.113281 22 L 113.113281 59 L 76 59 Z M 76 22 "/>
</clipPath>
<clipPath id="clip-5">
<path clip-rule="nonzero" d="M 56 56 L 69 56 L 69 61.328125 L 56 61.328125 Z M 56 56 "/>
</clipPath>
</defs>
<g clip-path="url(#clip-0)">
<path fill="none" stroke-width="0.3985" stroke-linecap="butt" stroke-linejoin="miter" stroke="rgb(0%, 0%, 0%)" stroke-opacity="1" stroke-miterlimit="10" d="M 0.00184375 -0.00090625 L 4.537 -0.00090625 M 52.158094 -0.00090625 L 62.658094 -0.00090625 M 101.978406 -0.00090625 L 113.388563 -0.00090625 M 42.634656 -0.00090625 L 62.677625 -20.043875 " transform="matrix(1, 0, 0, -1, -0.287, 25.003)"/>
</g>
<path fill="none" stroke-width="0.797" stroke-linecap="butt" stroke-linejoin="miter" stroke="rgb(0%, 0%, 0%)" stroke-opacity="1" stroke-miterlimit="10" d="M 52.158094 -0.00090625 C 52.158094 7.889719 45.763563 14.288156 37.872938 14.288156 C 29.982313 14.288156 23.583875 7.889719 23.583875 -0.00090625 C 23.583875 -7.891531 29.982313 -14.286063 37.872938 -14.286063 C 45.763563 -14.286063 52.158094 -7.891531 52.158094 -0.00090625 Z M 52.158094 -0.00090625 " transform="matrix(1, 0, 0, -1, -0.287, 25.003)"/>
<path fill="none" stroke-width="0.797" stroke-linecap="butt" stroke-linejoin="miter" stroke="rgb(0%, 0%, 0%)" stroke-opacity="1" stroke-miterlimit="10" d="M 33.107313 -0.00090625 C 33.107313 7.889719 26.712781 14.288156 18.822156 14.288156 C 10.931531 14.288156 4.537 7.889719 4.537 -0.00090625 C 4.537 -7.891531 10.931531 -14.286063 18.822156 -14.286063 C 26.712781 -14.286063 33.107313 -7.891531 33.107313 -0.00090625 Z M 33.107313 -0.00090625 " transform="matrix(1, 0, 0, -1, -0.287, 25.003)"/>
<path fill="none" stroke-width="0.797" stroke-linecap="butt" stroke-linejoin="miter" stroke="rgb(0%, 0%, 0%)" stroke-opacity="1" stroke-miterlimit="10" d="M 14.060438 -4.954031 L 9.767469 2.475656 L 18.3495 2.475656 Z M 14.060438 -4.954031 " transform="matrix(1, 0, 0, -1, -0.287, 25.003)"/>
<path fill="none" stroke-width="0.797" stroke-linecap="butt" stroke-linejoin="miter" stroke="rgb(0%, 0%, 0%)" stroke-opacity="1" stroke-miterlimit="10" d="M 14.060438 -4.954031 L 15.853406 -8.063406 " transform="matrix(1, 0, 0, -1, -0.287, 25.003)"/>
<path fill="none" stroke-width="0.797" stroke-linecap="butt" stroke-linejoin="miter" stroke="rgb(0%, 0%, 0%)" stroke-opacity="1" stroke-miterlimit="10" d="M 9.767469 2.475656 L 6.181531 2.475656 " transform="matrix(1, 0, 0, -1, -0.287, 25.003)"/>
<path fill="none" stroke-width="0.797" stroke-linecap="butt" stroke-linejoin="miter" stroke="rgb(0%, 0%, 0%)" stroke-opacity="1" stroke-miterlimit="10" d="M 18.3495 2.475656 L 20.146375 5.585031 " transform="matrix(1, 0, 0, -1, -0.287, 25.003)"/>
<path fill="none" stroke-width="0.797" stroke-linecap="butt" stroke-linejoin="miter" stroke="rgb(0%, 0%, 0%)" stroke-opacity="1" stroke-miterlimit="10" d="M 42.634656 8.542062 L 42.634656 -0.00090625 L 50.033094 -4.270438 M 42.634656 -0.00090625 L 35.236219 -4.270438 " transform="matrix(1, 0, 0, -1, -0.287, 25.003)"/>
<g clip-path="url(#clip-1)">
<path fill="none" stroke-width="0.797" stroke-linecap="butt" stroke-linejoin="miter" stroke="rgb(0%, 0%, 0%)" stroke-opacity="1" stroke-miterlimit="10" d="M 107.423719 -10.657156 C 107.423719 -3.395438 101.533094 2.495187 94.271375 2.495187 C 87.00575 2.495187 81.119031 -3.395438 81.119031 -10.657156 C 81.119031 -17.922781 87.00575 -23.8095 94.271375 -23.8095 C 101.533094 -23.8095 107.423719 -17.922781 107.423719 -10.657156 Z M 107.423719 -10.657156 " transform="matrix(1, 0, 0, -1, -0.287, 25.003)"/>
</g>
<path fill="none" stroke-width="0.797" stroke-linecap="butt" stroke-linejoin="miter" stroke="rgb(0%, 0%, 0%)" stroke-opacity="1" stroke-miterlimit="10" d="M 88.962781 -0.00090625 C 88.962781 7.264719 83.072156 13.151437 75.810438 13.151437 C 68.544813 13.151437 62.658094 7.264719 62.658094 -0.00090625 C 62.658094 -7.262625 68.544813 -13.15325 75.810438 -13.15325 C 83.072156 -13.15325 88.962781 -7.262625 88.962781 -0.00090625 Z M 88.962781 -0.00090625 " transform="matrix(1, 0, 0, -1, -0.287, 25.003)"/>
<g clip-path="url(#clip-2)">
<path fill="none" stroke-width="0.797" stroke-linecap="butt" stroke-linejoin="miter" stroke="rgb(0%, 0%, 0%)" stroke-opacity="1" stroke-miterlimit="10" d="M 107.423719 10.65925 C 107.423719 17.920969 101.533094 23.811594 94.271375 23.811594 C 87.00575 23.811594 81.119031 17.920969 81.119031 10.65925 C 81.119031 3.393625 87.00575 -2.493094 94.271375 -2.493094 C 101.533094 -2.493094 107.423719 3.393625 107.423719 10.65925 Z M 107.423719 10.65925 " transform="matrix(1, 0, 0, -1, -0.287, 25.003)"/>
</g>
<path fill="none" stroke-width="0.797" stroke-linecap="butt" stroke-linejoin="miter" stroke="rgb(0%, 0%, 0%)" stroke-opacity="1" stroke-miterlimit="10" d="M 72.841688 -8.536063 L 72.841688 -0.00090625 L 80.232313 4.268625 M 72.841688 -0.00090625 L 65.447156 4.268625 " transform="matrix(1, 0, 0, -1, -0.287, 25.003)"/>
<g clip-path="url(#clip-3)">
<path fill="none" stroke-width="0.797" stroke-linecap="butt" stroke-linejoin="miter" stroke="rgb(0%, 0%, 0%)" stroke-opacity="1" stroke-miterlimit="10" d="M 95.75575 13.229562 L 95.75575 8.960031 L 91.486219 5.835031 M 95.75575 13.229562 L 99.451063 15.362375 L 104.290906 13.229562 M 95.75575 13.229562 L 92.060438 15.362375 L 91.486219 20.620187 " transform="matrix(1, 0, 0, -1, -0.287, 25.003)"/>
</g>
<g clip-path="url(#clip-4)">
<path fill="none" stroke-width="0.797" stroke-linecap="butt" stroke-linejoin="miter" stroke="rgb(0%, 0%, 0%)" stroke-opacity="1" stroke-miterlimit="10" d="M 95.75575 -21.766531 L 88.361219 -8.961844 L 103.146375 -8.961844 Z M 95.75575 -21.766531 " transform="matrix(1, 0, 0, -1, -0.287, 25.003)"/>
</g>
<path fill="none" stroke-width="0.3985" stroke-linecap="butt" stroke-linejoin="miter" stroke="rgb(0%, 0%, 0%)" stroke-opacity="1" stroke-miterlimit="10" d="M 62.677625 -20.043875 L 62.677625 -31.950125 " transform="matrix(1, 0, 0, -1, -0.287, 25.003)"/>
<g clip-path="url(#clip-5)">
<path fill="none" stroke-width="0.797" stroke-linecap="butt" stroke-linejoin="miter" stroke="rgb(0%, 0%, 0%)" stroke-opacity="1" stroke-miterlimit="10" d="M 56.7245 -31.950125 L 68.63075 -31.950125 M 58.708875 -33.9345 L 66.646375 -33.9345 M 60.197156 -35.918875 L 65.158094 -35.918875 " transform="matrix(1, 0, 0, -1, -0.287, 25.003)"/>
</g>
<path fill="none" stroke-width="0.3985" stroke-linecap="butt" stroke-linejoin="miter" stroke="rgb(100%, 0%, 0%)" stroke-opacity="1" stroke-miterlimit="10" d="M 15.470594 -0.00090625 C 15.470594 0.776437 14.837781 1.40925 14.060438 1.40925 C 13.283094 1.40925 12.650281 0.776437 12.650281 -0.00090625 C 12.650281 -0.77825 13.283094 -1.407156 14.060438 -1.407156 C 14.837781 -1.407156 15.470594 -0.77825 15.470594 -0.00090625 Z M 15.470594 -0.00090625 " transform="matrix(1, 0, 0, -1, -0.287, 25.003)"/>
<path fill="none" stroke-width="0.3985" stroke-linecap="butt" stroke-linejoin="miter" stroke="rgb(100%, 0%, 0%)" stroke-opacity="1" stroke-miterlimit="10" d="M 44.040906 -0.00090625 C 44.040906 0.776437 43.412 1.40925 42.634656 1.40925 C 41.857313 1.40925 41.2245 0.776437 41.2245 -0.00090625 C 41.2245 -0.77825 41.857313 -1.407156 42.634656 -1.407156 C 43.412 -1.407156 44.040906 -0.77825 44.040906 -0.00090625 Z M 44.040906 -0.00090625 " transform="matrix(1, 0, 0, -1, -0.287, 25.003)"/>
<path fill="none" stroke-width="0.3985" stroke-linecap="butt" stroke-linejoin="miter" stroke="rgb(100%, 0%, 0%)" stroke-opacity="1" stroke-miterlimit="10" d="M 74.251844 -0.00090625 C 74.251844 0.776437 73.619031 1.40925 72.841688 1.40925 C 72.064344 1.40925 71.431531 0.776437 71.431531 -0.00090625 C 71.431531 -0.77825 72.064344 -1.407156 72.841688 -1.407156 C 73.619031 -1.407156 74.251844 -0.77825 74.251844 -0.00090625 Z M 74.251844 -0.00090625 " transform="matrix(1, 0, 0, -1, -0.287, 25.003)"/>
<path fill="none" stroke-width="0.3985" stroke-linecap="butt" stroke-linejoin="miter" stroke="rgb(100%, 0%, 0%)" stroke-opacity="1" stroke-miterlimit="10" d="M 97.165906 13.229562 C 97.165906 14.006906 96.533094 14.639719 95.75575 14.639719 C 94.978406 14.639719 94.345594 14.006906 94.345594 13.229562 C 94.345594 12.452219 94.978406 11.819406 95.75575 11.819406 C 96.533094 11.819406 97.165906 12.452219 97.165906 13.229562 Z M 97.165906 13.229562 " transform="matrix(1, 0, 0, -1, -0.287, 25.003)"/>
<path fill="none" stroke-width="0.3985" stroke-linecap="butt" stroke-linejoin="miter" stroke="rgb(100%, 0%, 0%)" stroke-opacity="1" stroke-miterlimit="10" d="M 97.165906 -13.227469 C 97.165906 -12.450125 96.533094 -11.821219 95.75575 -11.821219 C 94.978406 -11.821219 94.345594 -12.450125 94.345594 -13.227469 C 94.345594 -14.008719 94.978406 -14.637625 95.75575 -14.637625 C 96.533094 -14.637625 97.165906 -14.008719 97.165906 -13.227469 Z M 97.165906 -13.227469 " transform="matrix(1, 0, 0, -1, -0.287, 25.003)"/>
</svg>
