<?xml version="1.0" encoding="UTF-8"?>
<svg xmlns="http://www.w3.org/2000/svg" xmlns:xlink="http://www.w3.org/1999/xlink" width="39.703pt" height="42.238pt" viewBox="0 0 39.703 42.238">
<defs>
<clipPath id="clip-0">
<path clip-rule="nonzero" d="M 5 1 L 34 1 L 34 41.855469 L 5 41.855469 Z M 5 1 "/>
</clipPath>
<clipPath id="clip-1">
<path clip-rule="nonzero" d="M 0 0 L 39.554688 0 L 39.554688 41.855469 L 0 41.855469 Z M 0 0 "/>
</clipPath>
<clipPath id="clip-2">
<path clip-rule="nonzero" d="M 0 21 L 39.554688 21 L 39.554688 22 L 0 22 Z M 0 21 "/>
</clipPath>
</defs>
<g clip-path="url(#clip-0)">
<path fill-rule="nonzero" fill="rgb(70.001221%, 90.351868%, 98.118591%)" fill-opacity="1" d="M 33.59375 21.238281 L 5.8125 1.394531 L 5.8125 41.082031 L 33.59375 21.238281 "/>
</g>
<g clip-path="url(#clip-1)">
<path fill="none" stroke-width="0.797" stroke-linecap="butt" stroke-linejoin="miter" stroke="rgb(0%, 0%, 0%)" stroke-opacity="1" stroke-miterlimit="10" d="M 13.89025 -0.00028125 L -13.891 19.843469 L -13.891 -19.844031 L 13.89025 -0.00028125 " transform="matrix(1, 0, 0, -1, 19.7035, 21.238)"/>
</g>
<g clip-path="url(#clip-2)">
<path fill="none" stroke-width="0.3985" stroke-linecap="butt" stroke-linejoin="miter" stroke="rgb(0%, 0%, 0%)" stroke-opacity="1" stroke-miterlimit="10" d="M -19.844125 -0.00028125 L -13.891 -0.00028125 M 19.843375 -0.00028125 L 13.89025 -0.00028125 " transform="matrix(1, 0, 0, -1, 19.7035, 21.238)"/>
</g>
</svg>
