<?xml version="1.0" encoding="UTF-8"?>
<svg xmlns="http://www.w3.org/2000/svg" xmlns:xlink="http://www.w3.org/1999/xlink" width="56.712pt" height="9.91pt" viewBox="0 0 56.712 9.91">
<defs>
<clipPath id="clip-0">
<path clip-rule="nonzero" d="M 0 5 L 56.566406 5 L 56.566406 6 L 0 6 Z M 0 5 "/>
</clipPath>
<clipPath id="clip-1">
<path clip-rule="nonzero" d="M 12 0 L 44 0 L 44 9.863281 L 12 9.863281 Z M 12 0 "/>
</clipPath>
</defs>
<g clip-path="url(#clip-0)">
<path fill="none" stroke-width="0.3985" stroke-linecap="butt" stroke-linejoin="miter" stroke="rgb(0%, 0%, 0%)" stroke-opacity="1" stroke-miterlimit="10" d="M -0.00171875 0.0009375 L 22.392813 0.0009375 M 34.299063 0.0009375 L 56.693594 0.0009375 " transform="matrix(1, 0, 0, -1, -0.135, 5.415)"/>
</g>
<path fill="none" stroke-width="0.3985" stroke-linecap="butt" stroke-linejoin="miter" stroke="rgb(0%, 0%, 0%)" stroke-opacity="1" stroke-miterlimit="10" d="M 22.392813 0.0009375 L 22.392813 0.0009375 M 34.299063 0.0009375 L 34.299063 0.0009375 " transform="matrix(1, 0, 0, -1, -0.135, 5.415)"/>
<g clip-path="url(#clip-1)">
<path fill="none" stroke-width="0.797" stroke-linecap="butt" stroke-linejoin="miter" stroke="rgb(0%, 0%, 0%)" stroke-opacity="1" stroke-miterlimit="10" d="M 24.177969 4.168906 L 32.513906 -4.167031 M 24.177969 -4.167031 L 32.513906 4.168906 " transform="matrix(1, 0, 0, -1, -0.135, 5.415)"/>
</g>
</svg>
