<?xml version="1.0" encoding="UTF-8"?>
<svg xmlns="http://www.w3.org/2000/svg" xmlns:xlink="http://www.w3.org/1999/xlink" width="102.068pt" height="146.728pt" viewBox="0 0 102.068 146.728">
<defs>
<clipPath id="clip-0">
<path clip-rule="nonzero" d="M 0 17 L 101.601562 17 L 101.601562 29 L 0 29 Z M 0 17 "/>
</clipPath>
<clipPath id="clip-1">
<path clip-rule="nonzero" d="M 0 124 L 101.601562 124 L 101.601562 125 L 0 125 Z M 0 124 "/>
</clipPath>
<clipPath id="clip-2">
<path clip-rule="nonzero" d="M 35 111 L 82 111 L 82 146.59375 L 35 146.59375 Z M 35 111 "/>
</clipPath>
<clipPath id="clip-3">
<path clip-rule="nonzero" d="M 19 101 L 66 101 L 66 146.59375 L 19 146.59375 Z M 19 101 "/>
</clipPath>
<clipPath id="clip-4">
<path clip-rule="nonzero" d="M 52 126 L 71 126 L 71 146.59375 L 52 146.59375 Z M 52 126 "/>
</clipPath>
</defs>
<g clip-path="url(#clip-0)">
<path fill="none" stroke-width="0.3985" stroke-linecap="butt" stroke-linejoin="miter" stroke="rgb(0%, 0%, 0%)" stroke-opacity="1" stroke-miterlimit="10" d="M -0.00003125 102.049969 L 30.890594 102.077313 M 66.285125 102.077313 L 102.046844 102.049969 " transform="matrix(1, 0, 0, -1, -0.457, 124.757)"/>
</g>
<path fill="none" stroke-width="0.797" stroke-linecap="butt" stroke-linejoin="miter" stroke="rgb(0%, 0%, 0%)" stroke-opacity="1" stroke-miterlimit="10" d="M 71.167938 92.456219 C 71.167938 98.995281 65.871063 104.292156 59.332 104.292156 C 52.792938 104.292156 47.496063 98.995281 47.496063 92.456219 C 47.496063 85.917156 52.792938 80.620281 59.332 80.620281 C 65.871063 80.620281 71.167938 85.917156 71.167938 92.456219 Z M 71.167938 92.456219 " transform="matrix(1, 0, 0, -1, -0.457, 124.757)"/>
<path fill="none" stroke-width="0.797" stroke-linecap="butt" stroke-linejoin="miter" stroke="rgb(0%, 0%, 0%)" stroke-opacity="1" stroke-miterlimit="10" d="M 54.554656 102.049969 C 54.554656 108.585125 49.253875 113.885906 42.718719 113.885906 C 36.179656 113.885906 30.878875 108.585125 30.878875 102.049969 C 30.878875 95.510906 36.179656 90.210125 42.718719 90.210125 C 49.253875 90.210125 54.554656 95.510906 54.554656 102.049969 Z M 54.554656 102.049969 " transform="matrix(1, 0, 0, -1, -0.457, 124.757)"/>
<path fill="none" stroke-width="0.797" stroke-linecap="butt" stroke-linejoin="miter" stroke="rgb(0%, 0%, 0%)" stroke-opacity="1" stroke-miterlimit="10" d="M 71.167938 111.639813 C 71.167938 118.178875 65.871063 123.479656 59.332 123.479656 C 52.792938 123.479656 47.496063 118.178875 47.496063 111.639813 C 47.496063 105.104656 52.792938 99.803875 59.332 99.803875 C 65.871063 99.803875 71.167938 105.104656 71.167938 111.639813 Z M 71.167938 111.639813 " transform="matrix(1, 0, 0, -1, -0.457, 124.757)"/>
<path fill="none" stroke-width="0.797" stroke-linecap="butt" stroke-linejoin="miter" stroke="rgb(0%, 0%, 0%)" stroke-opacity="1" stroke-miterlimit="10" d="M 40.046844 105.889813 L 40.046844 102.049969 L 43.371063 100.128094 M 40.046844 102.049969 L 36.718719 100.128094 " transform="matrix(1, 0, 0, -1, -0.457, 124.757)"/>
<path fill="none" stroke-width="0.797" stroke-linecap="butt" stroke-linejoin="miter" stroke="rgb(0%, 0%, 0%)" stroke-opacity="1" stroke-miterlimit="10" d="M 60.667938 110.112469 L 57.339813 115.874188 L 63.992156 115.874188 Z M 60.667938 110.112469 " transform="matrix(1, 0, 0, -1, -0.457, 124.757)"/>
<path fill="none" stroke-width="0.797" stroke-linecap="butt" stroke-linejoin="miter" stroke="rgb(0%, 0%, 0%)" stroke-opacity="1" stroke-miterlimit="10" d="M 60.667938 90.143719 L 60.667938 88.221844 L 58.746063 86.815594 M 60.667938 90.143719 L 62.332 91.10075 L 64.507781 90.143719 M 60.667938 90.143719 L 59.003875 91.10075 L 58.746063 93.467938 " transform="matrix(1, 0, 0, -1, -0.457, 124.757)"/>
<g clip-path="url(#clip-1)">
<path fill="none" stroke-width="0.3985" stroke-linecap="butt" stroke-linejoin="miter" stroke="rgb(0%, 0%, 0%)" stroke-opacity="1" stroke-miterlimit="10" d="M -0.00003125 -0.0008125 L 30.890594 -0.0008125 M 66.285125 -0.0008125 L 102.046844 -0.0008125 " transform="matrix(1, 0, 0, -1, -0.457, 124.757)"/>
</g>
<g clip-path="url(#clip-2)">
<path fill="none" stroke-width="0.797" stroke-linecap="butt" stroke-linejoin="miter" stroke="rgb(0%, 0%, 0%)" stroke-opacity="1" stroke-miterlimit="10" d="M 71.167938 -9.590656 C 71.167938 -3.0555 65.871063 2.245281 59.332 2.245281 C 52.792938 2.245281 47.496063 -3.0555 47.496063 -9.590656 C 47.496063 -16.129719 52.792938 -21.4305 59.332 -21.4305 C 65.871063 -21.4305 71.167938 -16.129719 71.167938 -9.590656 Z M 71.167938 -9.590656 " transform="matrix(1, 0, 0, -1, -0.457, 124.757)"/>
</g>
<g clip-path="url(#clip-3)">
<path fill="none" stroke-width="0.797" stroke-linecap="butt" stroke-linejoin="miter" stroke="rgb(0%, 0%, 0%)" stroke-opacity="1" stroke-miterlimit="10" d="M 54.554656 -0.0008125 C 54.554656 6.53825 49.253875 11.839031 42.718719 11.839031 C 36.179656 11.839031 30.878875 6.53825 30.878875 -0.0008125 C 30.878875 -6.535969 36.179656 -11.83675 42.718719 -11.83675 C 49.253875 -11.83675 54.554656 -6.535969 54.554656 -0.0008125 Z M 54.554656 -0.0008125 " transform="matrix(1, 0, 0, -1, -0.457, 124.757)"/>
</g>
<path fill="none" stroke-width="0.797" stroke-linecap="butt" stroke-linejoin="miter" stroke="rgb(0%, 0%, 0%)" stroke-opacity="1" stroke-miterlimit="10" d="M 71.167938 9.592938 C 71.167938 16.128094 65.871063 21.428875 59.332 21.428875 C 52.792938 21.428875 47.496063 16.128094 47.496063 9.592938 C 47.496063 3.053875 52.792938 -2.243 59.332 -2.243 C 65.871063 -2.243 71.167938 3.053875 71.167938 9.592938 Z M 71.167938 9.592938 " transform="matrix(1, 0, 0, -1, -0.457, 124.757)"/>
<path fill="none" stroke-width="0.3985" stroke-linecap="butt" stroke-linejoin="miter" stroke="rgb(0%, 0%, 0%)" stroke-opacity="1" stroke-miterlimit="10" d="M 40.046844 5.378094 L 40.046844 -0.0008125 L 44.703094 -2.688312 M 40.046844 -0.0008125 L 35.390594 -2.688312 " transform="matrix(1, 0, 0, -1, -0.457, 124.757)"/>
<path fill="none" stroke-width="0.3985" stroke-linecap="butt" stroke-linejoin="miter" stroke="rgb(0%, 0%, 0%)" stroke-opacity="1" stroke-miterlimit="10" d="M 60.667938 7.299969 L 56.67575 14.210125 L 64.656219 14.210125 Z M 60.667938 7.299969 " transform="matrix(1, 0, 0, -1, -0.457, 124.757)"/>
<g clip-path="url(#clip-4)">
<path fill="none" stroke-width="0.3985" stroke-linecap="butt" stroke-linejoin="miter" stroke="rgb(0%, 0%, 0%)" stroke-opacity="1" stroke-miterlimit="10" d="M 60.667938 -11.907062 L 60.667938 -14.403156 L 58.171844 -16.227375 M 60.667938 -11.907062 L 62.828094 -10.657062 L 65.656219 -11.907062 M 60.667938 -11.907062 L 58.507781 -10.657062 L 58.171844 -7.58675 " transform="matrix(1, 0, 0, -1, -0.457, 124.757)"/>
</g>
</svg>
