<?xml version="1.0" encoding="UTF-8"?>
<svg xmlns="http://www.w3.org/2000/svg" xmlns:xlink="http://www.w3.org/1999/xlink" width="56.712pt" height="15.904pt" viewBox="0 0 56.712 15.904">
<defs>
<clipPath id="clip-0">
<path clip-rule="nonzero" d="M 0 8 L 56.566406 8 L 56.566406 9 L 0 9 Z M 0 8 "/>
</clipPath>
<clipPath id="clip-1">
<path clip-rule="nonzero" d="M 17 0 L 39 0 L 39 15.855469 L 17 15.855469 Z M 17 0 "/>
</clipPath>
</defs>
<g clip-path="url(#clip-0)">
<path fill="none" stroke-width="0.3985" stroke-linecap="butt" stroke-linejoin="miter" stroke="rgb(0%, 0%, 0%)" stroke-opacity="1" stroke-miterlimit="10" d="M -0.00171875 -0.00015625 L 18.424063 -0.00015625 M 38.267813 -0.00015625 L 56.693594 -0.00015625 " transform="matrix(1, 0, 0, -1, -0.135, 8.41)"/>
</g>
<g clip-path="url(#clip-1)">
<path fill="none" stroke-width="0.797" stroke-linecap="butt" stroke-linejoin="bevel" stroke="rgb(0%, 0%, 0%)" stroke-opacity="1" stroke-miterlimit="10" d="M 18.025625 -0.00015625 L 18.869375 5.031094 C 19.3225 7.730313 19.970938 7.718594 20.318594 4.999844 L 21.592031 -5.000156 C 21.939688 -7.718906 22.502188 -7.718906 22.849844 -5.000156 L 24.123281 4.999844 C 24.470938 7.718594 25.033438 7.718594 25.377188 4.999844 L 26.654531 -5.000156 C 26.998281 -7.718906 27.560781 -7.718906 27.908438 -5.000156 L 29.181875 4.999844 C 29.529531 7.718594 30.092031 7.718594 30.439688 4.999844 L 31.713125 -5.000156 C 32.060781 -7.718906 32.623281 -7.718906 32.967031 -5.000156 L 34.244375 4.999844 C 34.592031 7.718594 35.150625 7.718594 35.498281 4.999844 L 36.775625 -5.000156 C 37.119375 -7.718906 37.681875 -7.718906 38.029531 -5.000156 L 38.66625 -0.00015625 " transform="matrix(1, 0, 0, -1, -0.135, 8.41)"/>
</g>
</svg>
