<?xml version="1.0" encoding="UTF-8"?>
<svg xmlns="http://www.w3.org/2000/svg" xmlns:xlink="http://www.w3.org/1999/xlink" width="133.002" height="97.876" viewBox="0 0 133.002 97.876">
<defs>
<g>
<g id="glyph-0-0">
<path d="M 3.3125 -1.234375 L 3.3125 -1.796875 L 3.0625 -1.796875 L 3.0625 -1.25 C 3.0625 -0.515625 2.765625 -0.140625 2.390625 -0.140625 C 1.71875 -0.140625 1.71875 -1.046875 1.71875 -1.21875 L 1.71875 -3.984375 L 3.15625 -3.984375 L 3.15625 -4.296875 L 1.71875 -4.296875 L 1.71875 -6.125 L 1.46875 -6.125 C 1.46875 -5.3125 1.171875 -4.25 0.1875 -4.203125 L 0.1875 -3.984375 L 1.03125 -3.984375 L 1.03125 -1.234375 C 1.03125 -0.015625 1.96875 0.109375 2.328125 0.109375 C 3.03125 0.109375 3.3125 -0.59375 3.3125 -1.234375 Z M 3.3125 -1.234375 "/>
</g>
<g id="glyph-0-1">
<path d="M 4.140625 -1.1875 C 4.140625 -1.28125 4.0625 -1.3125 4 -1.3125 C 3.921875 -1.3125 3.890625 -1.25 3.875 -1.171875 C 3.53125 -0.140625 2.625 -0.140625 2.53125 -0.140625 C 2.03125 -0.140625 1.640625 -0.4375 1.40625 -0.8125 C 1.109375 -1.28125 1.109375 -1.9375 1.109375 -2.296875 L 3.890625 -2.296875 C 4.109375 -2.296875 4.140625 -2.296875 4.140625 -2.515625 C 4.140625 -3.5 3.59375 -4.46875 2.359375 -4.46875 C 1.203125 -4.46875 0.28125 -3.4375 0.28125 -2.1875 C 0.28125 -0.859375 1.328125 0.109375 2.46875 0.109375 C 3.6875 0.109375 4.140625 -1 4.140625 -1.1875 Z M 3.484375 -2.515625 L 1.109375 -2.515625 C 1.171875 -4 2.015625 -4.25 2.359375 -4.25 C 3.375 -4.25 3.484375 -2.90625 3.484375 -2.515625 Z M 3.484375 -2.515625 "/>
</g>
<g id="glyph-0-2">
<path d="M 5.140625 0 L 5.140625 -0.3125 C 4.609375 -0.3125 4.421875 -0.328125 4.203125 -0.625 L 2.859375 -2.34375 C 3.15625 -2.71875 3.53125 -3.203125 3.78125 -3.46875 C 4.09375 -3.828125 4.5 -3.984375 4.96875 -3.984375 L 4.96875 -4.296875 C 4.703125 -4.28125 4.40625 -4.265625 4.140625 -4.265625 C 3.84375 -4.265625 3.3125 -4.28125 3.1875 -4.296875 L 3.1875 -3.984375 C 3.40625 -3.96875 3.484375 -3.84375 3.484375 -3.671875 C 3.484375 -3.515625 3.375 -3.390625 3.328125 -3.328125 L 2.71875 -2.546875 L 1.9375 -3.5625 C 1.84375 -3.65625 1.84375 -3.671875 1.84375 -3.734375 C 1.84375 -3.890625 2 -3.984375 2.1875 -3.984375 L 2.1875 -4.296875 L 1.109375 -4.265625 C 0.90625 -4.265625 0.4375 -4.28125 0.171875 -4.296875 L 0.171875 -3.984375 C 0.875 -3.984375 0.875 -3.984375 1.34375 -3.375 L 2.328125 -2.09375 C 1.859375 -1.5 1.859375 -1.46875 1.390625 -0.90625 C 0.921875 -0.328125 0.328125 -0.3125 0.125 -0.3125 L 0.125 0 C 0.375 -0.015625 0.6875 -0.03125 0.953125 -0.03125 L 1.890625 0 L 1.890625 -0.3125 C 1.671875 -0.34375 1.609375 -0.46875 1.609375 -0.625 C 1.609375 -0.84375 1.890625 -1.171875 2.5 -1.890625 L 3.265625 -0.890625 C 3.34375 -0.78125 3.46875 -0.625 3.46875 -0.5625 C 3.46875 -0.46875 3.375 -0.3125 3.109375 -0.3125 L 3.109375 0 L 4.1875 -0.03125 C 4.453125 -0.03125 4.84375 -0.015625 5.140625 0 Z M 5.140625 0 "/>
</g>
<g id="glyph-1-0">
<path d="M 4.90625 0 L 4.90625 -0.28125 C 4.453125 -0.28125 4.21875 -0.28125 4.21875 -0.5625 L 4.21875 -2.28125 C 4.21875 -3.015625 4.21875 -3.28125 3.96875 -3.59375 C 3.765625 -3.84375 3.421875 -3.96875 2.96875 -3.96875 C 2.140625 -3.96875 1.75 -3.34375 1.625 -3.09375 L 1.609375 -3.09375 L 1.609375 -3.96875 L 0.3125 -3.859375 L 0.3125 -3.59375 C 0.921875 -3.59375 1 -3.53125 1 -3.078125 L 1 -0.6875 C 1 -0.28125 0.90625 -0.28125 0.3125 -0.28125 L 0.3125 0 C 0.734375 -0.015625 0.90625 -0.03125 1.34375 -0.03125 C 1.765625 -0.03125 1.890625 -0.015625 2.359375 0 L 2.359375 -0.28125 C 1.765625 -0.28125 1.671875 -0.28125 1.671875 -0.6875 L 1.671875 -2.328125 C 1.671875 -3.28125 2.34375 -3.734375 2.90625 -3.734375 C 3.4375 -3.734375 3.546875 -3.296875 3.546875 -2.765625 L 3.546875 -0.6875 C 3.546875 -0.28125 3.453125 -0.28125 2.859375 -0.28125 L 2.859375 0 C 3.28125 -0.015625 3.453125 -0.03125 3.890625 -0.03125 C 4.3125 -0.03125 4.4375 -0.015625 4.90625 0 Z M 4.90625 0 "/>
</g>
<g id="glyph-1-1">
<path d="M 4.34375 -1.90625 C 4.34375 -3.078125 3.40625 -4.015625 2.3125 -4.015625 C 1.171875 -4.015625 0.265625 -3.0625 0.265625 -1.90625 C 0.265625 -0.796875 1.1875 0.09375 2.296875 0.09375 C 3.4375 0.09375 4.34375 -0.8125 4.34375 -1.90625 Z M 3.5625 -1.984375 C 3.5625 -1.65625 3.5625 -1.140625 3.34375 -0.75 C 3.09375 -0.328125 2.6875 -0.15625 2.3125 -0.15625 C 1.859375 -0.15625 1.484375 -0.375 1.28125 -0.71875 C 1.046875 -1.109375 1.03125 -1.578125 1.03125 -1.984375 C 1.03125 -2.328125 1.03125 -2.828125 1.25 -3.203125 C 1.53125 -3.65625 1.96875 -3.796875 2.296875 -3.796875 C 2.8125 -3.796875 3.171875 -3.5 3.359375 -3.203125 C 3.5625 -2.828125 3.5625 -2.375 3.5625 -1.984375 Z M 3.5625 -1.984375 "/>
</g>
<g id="glyph-1-2">
<path d="M 3.34375 -3.40625 C 3.34375 -3.6875 3.078125 -3.96875 2.671875 -3.96875 C 2.140625 -3.96875 1.765625 -3.59375 1.546875 -3.03125 L 1.546875 -3.96875 L 0.265625 -3.859375 L 0.265625 -3.59375 C 0.875 -3.59375 0.953125 -3.53125 0.953125 -3.078125 L 0.953125 -0.6875 C 0.953125 -0.28125 0.859375 -0.28125 0.265625 -0.28125 L 0.265625 0 C 0.75 -0.015625 0.859375 -0.03125 1.3125 -0.03125 L 2.453125 0 L 2.453125 -0.28125 L 2.28125 -0.28125 C 1.625 -0.28125 1.59375 -0.375 1.59375 -0.703125 L 1.59375 -2.046875 C 1.59375 -2.421875 1.6875 -3.734375 2.71875 -3.734375 C 2.703125 -3.71875 2.5625 -3.609375 2.5625 -3.40625 C 2.5625 -3.15625 2.75 -3 2.953125 -3 C 3.140625 -3 3.34375 -3.140625 3.34375 -3.40625 Z M 3.34375 -3.40625 "/>
</g>
<g id="glyph-1-3">
<path d="M 3.0625 -1.109375 L 3.0625 -1.625 L 2.8125 -1.625 L 2.8125 -1.140625 C 2.8125 -0.46875 2.53125 -0.15625 2.21875 -0.15625 C 1.609375 -0.15625 1.609375 -0.9375 1.609375 -1.109375 L 1.609375 -3.59375 L 2.921875 -3.59375 L 2.921875 -3.859375 L 1.609375 -3.859375 L 1.609375 -5.515625 L 1.359375 -5.515625 C 1.359375 -4.765625 1.046875 -3.84375 0.171875 -3.8125 L 0.171875 -3.59375 L 0.953125 -3.59375 L 0.953125 -1.109375 C 0.953125 -0.109375 1.671875 0.09375 2.15625 0.09375 C 2.75 0.09375 3.0625 -0.46875 3.0625 -1.109375 Z M 3.0625 -1.109375 "/>
</g>
<g id="glyph-1-4">
<path d="M 4.90625 0 L 4.90625 -0.28125 C 4.453125 -0.28125 4.21875 -0.28125 4.21875 -0.5625 L 4.21875 -2.28125 C 4.21875 -3.015625 4.21875 -3.28125 3.96875 -3.59375 C 3.765625 -3.84375 3.421875 -3.96875 2.96875 -3.96875 C 2.375 -3.96875 1.921875 -3.65625 1.65625 -3.140625 L 1.640625 -3.140625 L 1.640625 -6.21875 L 0.3125 -6.125 L 0.3125 -5.84375 C 0.921875 -5.84375 1 -5.78125 1 -5.34375 L 1 -0.6875 C 1 -0.28125 0.90625 -0.28125 0.3125 -0.28125 L 0.3125 0 C 0.734375 -0.015625 0.90625 -0.03125 1.34375 -0.03125 C 1.765625 -0.03125 1.890625 -0.015625 2.359375 0 L 2.359375 -0.28125 C 1.765625 -0.28125 1.671875 -0.28125 1.671875 -0.6875 L 1.671875 -2.328125 C 1.671875 -3.28125 2.34375 -3.734375 2.90625 -3.734375 C 3.4375 -3.734375 3.546875 -3.296875 3.546875 -2.765625 L 3.546875 -0.6875 C 3.546875 -0.28125 3.453125 -0.28125 2.859375 -0.28125 L 2.859375 0 C 3.28125 -0.015625 3.453125 -0.03125 3.890625 -0.03125 C 4.3125 -0.03125 4.4375 -0.015625 4.90625 0 Z M 4.90625 0 "/>
</g>
<g id="glyph-1-5">
<path d="M 3.828125 -1.0625 C 3.828125 -1.125 3.78125 -1.1875 3.703125 -1.1875 C 3.609375 -1.1875 3.59375 -1.125 3.578125 -1.078125 C 3.28125 -0.171875 2.46875 -0.15625 2.34375 -0.15625 C 1.90625 -0.15625 1.546875 -0.390625 1.34375 -0.703125 C 1.046875 -1.140625 1.03125 -1.671875 1.03125 -2.046875 L 3.59375 -2.046875 C 3.78125 -2.046875 3.828125 -2.046875 3.828125 -2.25 C 3.828125 -3.171875 3.328125 -4.015625 2.171875 -4.015625 C 1.109375 -4.015625 0.265625 -3.078125 0.265625 -1.96875 C 0.265625 -0.796875 1.203125 0.09375 2.296875 0.09375 C 3.390625 0.09375 3.828125 -0.859375 3.828125 -1.0625 Z M 3.21875 -2.265625 L 1.046875 -2.265625 C 1.125 -3.65625 1.921875 -3.796875 2.171875 -3.796875 C 2.671875 -3.796875 3.203125 -3.421875 3.21875 -2.265625 Z M 3.21875 -2.265625 "/>
</g>
<g id="glyph-1-6">
<path d="M 4.453125 -0.796875 L 4.453125 -1.296875 L 4.203125 -1.296875 L 4.203125 -0.8125 C 4.203125 -0.703125 4.203125 -0.265625 3.890625 -0.265625 C 3.5625 -0.265625 3.5625 -0.6875 3.5625 -0.828125 L 3.5625 -2.40625 C 3.5625 -2.921875 3.5625 -3.21875 3.15625 -3.59375 C 2.828125 -3.890625 2.390625 -4.015625 1.953125 -4.015625 C 1.1875 -4.015625 0.5625 -3.640625 0.5625 -3.0625 C 0.5625 -2.796875 0.75 -2.640625 0.984375 -2.640625 C 1.234375 -2.640625 1.40625 -2.8125 1.40625 -3.046875 C 1.40625 -3.4375 1 -3.484375 1 -3.484375 C 1.234375 -3.71875 1.671875 -3.796875 1.921875 -3.796875 C 2.390625 -3.796875 2.890625 -3.453125 2.890625 -2.65625 L 2.890625 -2.375 C 2.40625 -2.34375 1.734375 -2.3125 1.140625 -2.015625 C 0.5 -1.703125 0.296875 -1.234375 0.296875 -0.875 C 0.296875 -0.140625 1.171875 0.09375 1.765625 0.09375 C 2.515625 0.09375 2.859375 -0.390625 2.984375 -0.640625 C 3.015625 -0.265625 3.28125 0.046875 3.671875 0.046875 C 3.890625 0.046875 4.453125 -0.078125 4.453125 -0.796875 Z M 2.890625 -1.265625 C 2.890625 -0.390625 2.21875 -0.125 1.828125 -0.125 C 1.40625 -0.125 1.015625 -0.4375 1.015625 -0.875 C 1.015625 -1.46875 1.53125 -2.09375 2.890625 -2.15625 Z M 2.890625 -1.265625 "/>
</g>
<g id="glyph-1-7">
<path d="M 3.3125 -1.140625 C 3.3125 -1.546875 3.140625 -1.796875 2.9375 -2 C 2.640625 -2.296875 2.3125 -2.359375 1.65625 -2.484375 C 1.421875 -2.53125 0.765625 -2.640625 0.765625 -3.15625 C 0.765625 -3.4375 0.96875 -3.828125 1.78125 -3.828125 C 2.75 -3.828125 2.8125 -3.078125 2.828125 -2.859375 C 2.84375 -2.75 2.84375 -2.6875 2.953125 -2.6875 C 3.078125 -2.6875 3.078125 -2.75 3.078125 -2.921875 L 3.078125 -3.78125 C 3.078125 -3.9375 3.078125 -4.015625 2.984375 -4.015625 C 2.9375 -4.015625 2.921875 -4.015625 2.796875 -3.90625 C 2.78125 -3.890625 2.703125 -3.8125 2.640625 -3.765625 C 2.375 -3.96875 2.09375 -4.015625 1.78125 -4.015625 C 0.59375 -4.015625 0.3125 -3.359375 0.3125 -2.90625 C 0.3125 -2.625 0.4375 -2.390625 0.640625 -2.1875 C 0.9375 -1.90625 1.28125 -1.84375 1.734375 -1.765625 C 2.203125 -1.671875 2.34375 -1.65625 2.546875 -1.5 C 2.640625 -1.421875 2.859375 -1.25 2.859375 -0.921875 C 2.859375 -0.125 1.953125 -0.125 1.828125 -0.125 C 0.921875 -0.125 0.6875 -0.890625 0.578125 -1.375 C 0.546875 -1.46875 0.53125 -1.515625 0.4375 -1.515625 C 0.3125 -1.515625 0.3125 -1.4375 0.3125 -1.28125 L 0.3125 -0.140625 C 0.3125 0.015625 0.3125 0.09375 0.40625 0.09375 C 0.46875 0.09375 0.46875 0.09375 0.640625 -0.078125 C 0.671875 -0.140625 0.765625 -0.25 0.8125 -0.296875 C 1.1875 0.078125 1.609375 0.09375 1.828125 0.09375 C 2.9375 0.09375 3.3125 -0.546875 3.3125 -1.140625 Z M 3.3125 -1.140625 "/>
</g>
<g id="glyph-1-8">
<path d="M 4.90625 0 L 4.90625 -0.28125 C 4.296875 -0.28125 4.21875 -0.34375 4.21875 -0.78125 L 4.21875 -3.96875 L 2.859375 -3.859375 L 2.859375 -3.59375 C 3.46875 -3.59375 3.546875 -3.53125 3.546875 -3.078125 L 3.546875 -1.5 C 3.546875 -0.703125 3.109375 -0.125 2.453125 -0.125 C 1.71875 -0.125 1.671875 -0.515625 1.671875 -1 L 1.671875 -3.96875 L 0.3125 -3.859375 L 0.3125 -3.59375 C 1 -3.59375 1 -3.5625 1 -2.765625 L 1 -1.421875 C 1 -0.828125 1 -0.453125 1.421875 -0.140625 C 1.671875 0.03125 2.046875 0.09375 2.40625 0.09375 C 2.875 0.09375 3.3125 -0.109375 3.5625 -0.640625 L 3.578125 -0.640625 L 3.578125 0.09375 Z M 4.90625 0 "/>
</g>
<g id="glyph-1-9">
<path d="M 6.46875 -3.59375 L 6.46875 -3.859375 C 6.109375 -3.84375 6.09375 -3.84375 5.796875 -3.84375 C 5.453125 -3.84375 5.328125 -3.84375 4.96875 -3.859375 L 4.96875 -3.59375 C 5.359375 -3.578125 5.484375 -3.34375 5.484375 -3.15625 C 5.484375 -3.0625 5.46875 -3.015625 5.4375 -2.953125 L 4.609375 -0.703125 L 3.703125 -3.171875 C 3.65625 -3.28125 3.65625 -3.3125 3.65625 -3.34375 C 3.65625 -3.5625 3.9375 -3.59375 4.171875 -3.59375 L 4.171875 -3.859375 C 3.765625 -3.84375 3.390625 -3.84375 3.25 -3.84375 C 2.96875 -3.84375 2.703125 -3.84375 2.421875 -3.859375 L 2.421875 -3.59375 C 2.703125 -3.59375 2.890625 -3.578125 2.984375 -3.453125 C 3.0625 -3.359375 3.1875 -3 3.1875 -2.96875 L 3.140625 -2.84375 L 2.40625 -0.828125 L 1.546875 -3.15625 C 1.5 -3.296875 1.5 -3.3125 1.5 -3.34375 C 1.5 -3.59375 1.84375 -3.59375 2.015625 -3.59375 L 2.015625 -3.859375 L 1.046875 -3.84375 C 0.75 -3.84375 0.484375 -3.84375 0.171875 -3.859375 L 0.171875 -3.59375 C 0.609375 -3.59375 0.71875 -3.5625 0.828125 -3.265625 L 1.984375 -0.09375 C 2.03125 0.015625 2.0625 0.09375 2.203125 0.09375 C 2.328125 0.09375 2.375 0 2.40625 -0.09375 L 3.3125 -2.59375 L 4.25 -0.09375 C 4.28125 0 4.3125 0.09375 4.453125 0.09375 C 4.578125 0.09375 4.609375 0.015625 4.640625 -0.078125 L 5.71875 -3 C 5.90625 -3.546875 6.28125 -3.578125 6.46875 -3.59375 Z M 6.46875 -3.59375 "/>
</g>
<g id="glyph-1-10">
<path d="M 3.828125 -1.0625 C 3.828125 -1.171875 3.734375 -1.171875 3.703125 -1.171875 C 3.609375 -1.171875 3.609375 -1.15625 3.546875 -1 C 3.34375 -0.390625 2.84375 -0.15625 2.390625 -0.15625 C 1.8125 -0.15625 1.078125 -0.625 1.078125 -1.953125 C 1.078125 -3.34375 1.796875 -3.765625 2.328125 -3.765625 C 2.453125 -3.765625 2.9375 -3.75 3.265625 -3.53125 C 3.078125 -3.484375 2.890625 -3.359375 2.890625 -3.109375 C 2.890625 -2.875 3.078125 -2.6875 3.3125 -2.6875 C 3.546875 -2.6875 3.734375 -2.84375 3.734375 -3.125 C 3.734375 -3.671875 3.109375 -4.015625 2.3125 -4.015625 C 1.171875 -4.015625 0.3125 -3.0625 0.3125 -1.9375 C 0.3125 -0.78125 1.234375 0.09375 2.296875 0.09375 C 3.546875 0.09375 3.828125 -0.984375 3.828125 -1.0625 Z M 3.828125 -1.0625 "/>
</g>
</g>
<clipPath id="clip-0">
<path clip-rule="nonzero" d="M 121 6 L 132.503906 6 L 132.503906 13 L 121 13 Z M 121 6 "/>
</clipPath>
<clipPath id="clip-1">
<path clip-rule="nonzero" d="M 126 87 L 132.503906 87 L 132.503906 93 L 126 93 Z M 126 87 "/>
</clipPath>
<clipPath id="clip-2">
<path clip-rule="nonzero" d="M 62 91 L 84 91 L 84 97.8125 L 62 97.8125 Z M 62 91 "/>
</clipPath>
</defs>
<path fill="none" stroke-width="0.3985" stroke-linecap="round" stroke-linejoin="miter" stroke="rgb(0%, 0%, 0%)" stroke-opacity="1" stroke-miterlimit="10" d="M 5.953063 20.04025 L 5.953063 8.137906 L -5.953187 3.173063 " transform="matrix(1, 0, 0, -1, 72.961, 45.384)"/>
<path fill="none" stroke-width="0.797" stroke-linecap="round" stroke-linejoin="miter" stroke="rgb(0%, 0%, 0%)" stroke-opacity="1" stroke-miterlimit="10" d="M -5.953187 8.731656 L -5.953187 -16.666781 " transform="matrix(1, 0, 0, -1, 72.961, 45.384)"/>
<path fill="none" stroke-width="0.3985" stroke-linecap="butt" stroke-linejoin="miter" stroke="rgb(0%, 0%, 0%)" stroke-opacity="1" stroke-miterlimit="10" d="M -5.953187 0.0011875 L -17.859437 0.0011875 " transform="matrix(1, 0, 0, -1, 72.961, 45.384)"/>
<path fill="none" stroke-width="0.3985" stroke-linecap="round" stroke-linejoin="miter" stroke="rgb(0%, 0%, 0%)" stroke-opacity="1" stroke-miterlimit="10" d="M -5.953187 -11.112094 L 5.953063 -16.073031 L 5.953063 -27.979281 " transform="matrix(1, 0, 0, -1, 72.961, 45.384)"/>
<path fill-rule="nonzero" fill="rgb(0%, 0%, 0%)" fill-opacity="1" d="M 71.175781 58.230469 L 72.054688 56.121094 L 75.890625 60.199219 L 70.296875 60.34375 Z M 71.175781 58.230469 "/>
<path fill="none" stroke-width="0.3985" stroke-linecap="round" stroke-linejoin="miter" stroke="rgb(0%, 0%, 0%)" stroke-opacity="1" stroke-miterlimit="10" d="M -5.953187 -3.174594 L 5.953063 -8.135531 " transform="matrix(1, 0, 0, -1, 72.961, 45.384)"/>
<path fill-rule="nonzero" fill="rgb(0%, 0%, 0%)" fill-opacity="1" d="M 71.175781 50.296875 L 72.054688 48.183594 L 75.890625 52.261719 L 70.296875 52.40625 Z M 71.175781 50.296875 "/>
<g fill="rgb(0%, 0%, 0%)" fill-opacity="1">
<use xlink:href="#glyph-0-0" x="78.914" y="48.521"/>
<use xlink:href="#glyph-0-1" x="82.788455" y="48.521"/>
<use xlink:href="#glyph-0-2" x="87.216831" y="48.521"/>
<use xlink:href="#glyph-0-0" x="92.475091" y="48.521"/>
</g>
<path fill="none" stroke-width="0.3985" stroke-linecap="butt" stroke-linejoin="miter" stroke="rgb(100%, 0%, 0%)" stroke-opacity="1" stroke-miterlimit="10" d="M 1.410094 20.04025 C 1.410094 20.8215 0.777281 21.450406 -0.0000625 21.450406 C -0.777406 21.450406 -1.410219 20.8215 -1.410219 20.04025 C -1.410219 19.262906 -0.777406 18.634 -0.0000625 18.634 C 0.777281 18.634 1.410094 19.262906 1.410094 20.04025 Z M 1.410094 20.04025 " transform="matrix(1, 0, 0, -1, 72.961, 45.384)"/>
<g fill="rgb(100%, 0%, 0%)" fill-opacity="1">
<use xlink:href="#glyph-1-0" x="61.943" y="7.163"/>
<use xlink:href="#glyph-1-1" x="67.062814" y="7.163"/>
<use xlink:href="#glyph-1-2" x="71.670647" y="7.163"/>
<use xlink:href="#glyph-1-3" x="75.27514" y="7.163"/>
<use xlink:href="#glyph-1-4" x="78.85901" y="7.163"/>
</g>
<path fill="none" stroke-width="0.19925" stroke-linecap="butt" stroke-linejoin="miter" stroke="rgb(100%, 0%, 0%)" stroke-opacity="1" stroke-miterlimit="10" d="M -0.0000625 21.649625 L -0.0000625 37.524625 " transform="matrix(1, 0, 0, -1, 72.961, 45.384)"/>
<path fill="none" stroke-width="0.3985" stroke-linecap="butt" stroke-linejoin="miter" stroke="rgb(100%, 0%, 0%)" stroke-opacity="1" stroke-miterlimit="10" d="M 7.363219 20.04025 C 7.363219 20.8215 6.730406 21.450406 5.953063 21.450406 C 5.175719 21.450406 4.542906 20.8215 4.542906 20.04025 C 4.542906 19.262906 5.175719 18.634 5.953063 18.634 C 6.730406 18.634 7.363219 19.262906 7.363219 20.04025 Z M 7.363219 20.04025 " transform="matrix(1, 0, 0, -1, 72.961, 45.384)"/>
<g fill="rgb(100%, 0%, 0%)" fill-opacity="1">
<use xlink:href="#glyph-1-0" x="91.973" y="12.283"/>
<use xlink:href="#glyph-1-1" x="97.092814" y="12.283"/>
<use xlink:href="#glyph-1-2" x="101.700647" y="12.283"/>
<use xlink:href="#glyph-1-3" x="105.30514" y="12.283"/>
<use xlink:href="#glyph-1-4" x="108.88901" y="12.283"/>
</g>
<g fill="rgb(100%, 0%, 0%)" fill-opacity="1">
<use xlink:href="#glyph-1-5" x="117.0843" y="12.283"/>
</g>
<g clip-path="url(#clip-0)">
<g fill="rgb(100%, 0%, 0%)" fill-opacity="1">
<use xlink:href="#glyph-1-6" x="121.174772" y="12.283"/>
<use xlink:href="#glyph-1-7" x="125.782604" y="12.283"/>
<use xlink:href="#glyph-1-3" x="129.417583" y="12.283"/>
</g>
</g>
<path fill="none" stroke-width="0.19925" stroke-linecap="butt" stroke-linejoin="miter" stroke="rgb(100%, 0%, 0%)" stroke-opacity="1" stroke-miterlimit="10" d="M 7.402281 20.739469 L 31.656188 32.403531 " transform="matrix(1, 0, 0, -1, 72.961, 45.384)"/>
<path fill="none" stroke-width="0.3985" stroke-linecap="butt" stroke-linejoin="miter" stroke="rgb(100%, 0%, 0%)" stroke-opacity="1" stroke-miterlimit="10" d="M 7.363219 0.0011875 C 7.363219 0.778531 6.730406 1.407438 5.953063 1.407438 C 5.175719 1.407438 4.542906 0.778531 4.542906 0.0011875 C 4.542906 -0.780062 5.175719 -1.408969 5.953063 -1.408969 C 6.730406 -1.408969 7.363219 -0.780062 7.363219 0.0011875 Z M 7.363219 0.0011875 " transform="matrix(1, 0, 0, -1, 72.961, 45.384)"/>
<g fill="rgb(100%, 0%, 0%)" fill-opacity="1">
<use xlink:href="#glyph-1-5" x="97.093" y="48.092"/>
<use xlink:href="#glyph-1-6" x="101.192438" y="48.092"/>
<use xlink:href="#glyph-1-7" x="105.800271" y="48.092"/>
<use xlink:href="#glyph-1-3" x="109.43525" y="48.092"/>
</g>
<path fill="none" stroke-width="0.19925" stroke-linecap="butt" stroke-linejoin="miter" stroke="rgb(100%, 0%, 0%)" stroke-opacity="1" stroke-miterlimit="10" d="M 7.562438 0.0011875 L 23.433531 0.0011875 " transform="matrix(1, 0, 0, -1, 72.961, 45.384)"/>
<path fill="none" stroke-width="0.3985" stroke-linecap="butt" stroke-linejoin="miter" stroke="rgb(100%, 0%, 0%)" stroke-opacity="1" stroke-miterlimit="10" d="M 7.363219 -27.979281 C 7.363219 -27.201937 6.730406 -26.569125 5.953063 -26.569125 C 5.175719 -26.569125 4.542906 -27.201937 4.542906 -27.979281 C 4.542906 -28.756625 5.175719 -29.389437 5.953063 -29.389437 C 6.730406 -29.389437 7.363219 -28.756625 7.363219 -27.979281 Z M 7.363219 -27.979281 " transform="matrix(1, 0, 0, -1, 72.961, 45.384)"/>
<g fill="rgb(100%, 0%, 0%)" fill-opacity="1">
<use xlink:href="#glyph-1-7" x="91.973" y="92.598"/>
<use xlink:href="#glyph-1-1" x="95.607979" y="92.598"/>
<use xlink:href="#glyph-1-8" x="100.215812" y="92.598"/>
<use xlink:href="#glyph-1-3" x="105.335626" y="92.598"/>
<use xlink:href="#glyph-1-4" x="108.919496" y="92.598"/>
</g>
<g fill="rgb(100%, 0%, 0%)" fill-opacity="1">
<use xlink:href="#glyph-1-5" x="117.114786" y="92.598"/>
<use xlink:href="#glyph-1-6" x="121.214224" y="92.598"/>
</g>
<g clip-path="url(#clip-1)">
<g fill="rgb(100%, 0%, 0%)" fill-opacity="1">
<use xlink:href="#glyph-1-7" x="125.81309" y="92.598"/>
<use xlink:href="#glyph-1-3" x="129.448069" y="92.598"/>
</g>
</g>
<path fill="none" stroke-width="0.19925" stroke-linecap="butt" stroke-linejoin="miter" stroke="rgb(100%, 0%, 0%)" stroke-opacity="1" stroke-miterlimit="10" d="M 7.402281 -28.674594 L 31.667906 -40.342562 " transform="matrix(1, 0, 0, -1, 72.961, 45.384)"/>
<path fill="none" stroke-width="0.3985" stroke-linecap="butt" stroke-linejoin="miter" stroke="rgb(100%, 0%, 0%)" stroke-opacity="1" stroke-miterlimit="10" d="M 1.410094 -27.979281 C 1.410094 -27.201937 0.777281 -26.569125 -0.0000625 -26.569125 C -0.777406 -26.569125 -1.410219 -27.201937 -1.410219 -27.979281 C -1.410219 -28.756625 -0.777406 -29.389437 -0.0000625 -29.389437 C 0.777281 -29.389437 1.410094 -28.756625 1.410094 -27.979281 Z M 1.410094 -27.979281 " transform="matrix(1, 0, 0, -1, 72.961, 45.384)"/>
<g clip-path="url(#clip-2)">
<g fill="rgb(100%, 0%, 0%)" fill-opacity="1">
<use xlink:href="#glyph-1-7" x="61.928" y="97.719"/>
<use xlink:href="#glyph-1-1" x="65.562979" y="97.719"/>
<use xlink:href="#glyph-1-8" x="70.170812" y="97.719"/>
<use xlink:href="#glyph-1-3" x="75.290626" y="97.719"/>
<use xlink:href="#glyph-1-4" x="78.874496" y="97.719"/>
</g>
</g>
<path fill="none" stroke-width="0.19925" stroke-linecap="butt" stroke-linejoin="miter" stroke="rgb(100%, 0%, 0%)" stroke-opacity="1" stroke-miterlimit="10" d="M -0.0000625 -29.588656 L -0.0000625 -45.45975 " transform="matrix(1, 0, 0, -1, 72.961, 45.384)"/>
<path fill="none" stroke-width="0.3985" stroke-linecap="butt" stroke-linejoin="miter" stroke="rgb(100%, 0%, 0%)" stroke-opacity="1" stroke-miterlimit="10" d="M -16.449281 -27.979281 C -16.449281 -27.201937 -17.078187 -26.569125 -17.859437 -26.569125 C -18.636781 -26.569125 -19.265687 -27.201937 -19.265687 -27.979281 C -19.265687 -28.756625 -18.636781 -29.389437 -17.859437 -29.389437 C -17.078187 -29.389437 -16.449281 -28.756625 -16.449281 -27.979281 Z M -16.449281 -27.979281 " transform="matrix(1, 0, 0, -1, 72.961, 45.384)"/>
<g fill="rgb(100%, 0%, 0%)" fill-opacity="1">
<use xlink:href="#glyph-1-7" x="-0.811" y="92.598"/>
<use xlink:href="#glyph-1-1" x="2.823979" y="92.598"/>
<use xlink:href="#glyph-1-8" x="7.431812" y="92.598"/>
<use xlink:href="#glyph-1-3" x="12.551626" y="92.598"/>
<use xlink:href="#glyph-1-4" x="16.135496" y="92.598"/>
</g>
<g fill="rgb(100%, 0%, 0%)" fill-opacity="1">
<use xlink:href="#glyph-1-9" x="24.330786" y="92.598"/>
</g>
<g fill="rgb(100%, 0%, 0%)" fill-opacity="1">
<use xlink:href="#glyph-1-5" x="30.726519" y="92.598"/>
<use xlink:href="#glyph-1-7" x="34.825957" y="92.598"/>
<use xlink:href="#glyph-1-3" x="38.460935" y="92.598"/>
</g>
<path fill="none" stroke-width="0.19925" stroke-linecap="butt" stroke-linejoin="miter" stroke="rgb(100%, 0%, 0%)" stroke-opacity="1" stroke-miterlimit="10" d="M -19.316469 -28.658969 L -44.261781 -40.342562 " transform="matrix(1, 0, 0, -1, 72.961, 45.384)"/>
<path fill="none" stroke-width="0.3985" stroke-linecap="butt" stroke-linejoin="miter" stroke="rgb(100%, 0%, 0%)" stroke-opacity="1" stroke-miterlimit="10" d="M -16.449281 0.0011875 C -16.449281 0.778531 -17.078187 1.407438 -17.859437 1.407438 C -18.636781 1.407438 -19.265687 0.778531 -19.265687 0.0011875 C -19.265687 -0.780062 -18.636781 -1.408969 -17.859437 -1.408969 C -17.078187 -1.408969 -16.449281 -0.780062 -16.449281 0.0011875 Z M -16.449281 0.0011875 " transform="matrix(1, 0, 0, -1, 72.961, 45.384)"/>
<g fill="rgb(100%, 0%, 0%)" fill-opacity="1">
<use xlink:href="#glyph-1-9" x="19.206" y="48.092"/>
</g>
<g fill="rgb(100%, 0%, 0%)" fill-opacity="1">
<use xlink:href="#glyph-1-5" x="25.601733" y="48.092"/>
<use xlink:href="#glyph-1-7" x="29.701171" y="48.092"/>
<use xlink:href="#glyph-1-3" x="33.33615" y="48.092"/>
</g>
<path fill="none" stroke-width="0.19925" stroke-linecap="butt" stroke-linejoin="miter" stroke="rgb(100%, 0%, 0%)" stroke-opacity="1" stroke-miterlimit="10" d="M -19.464906 0.0011875 L -35.339906 0.0011875 " transform="matrix(1, 0, 0, -1, 72.961, 45.384)"/>
<path fill="none" stroke-width="0.3985" stroke-linecap="butt" stroke-linejoin="miter" stroke="rgb(100%, 0%, 0%)" stroke-opacity="1" stroke-miterlimit="10" d="M -16.449281 20.04025 C -16.449281 20.8215 -17.078187 21.450406 -17.859437 21.450406 C -18.636781 21.450406 -19.265687 20.8215 -19.265687 20.04025 C -19.265687 19.262906 -18.636781 18.634 -17.859437 18.634 C -17.078187 18.634 -16.449281 19.262906 -16.449281 20.04025 Z M -16.449281 20.04025 " transform="matrix(1, 0, 0, -1, 72.961, 45.384)"/>
<g fill="rgb(100%, 0%, 0%)" fill-opacity="1">
<use xlink:href="#glyph-1-0" x="-0.78" y="12.283"/>
<use xlink:href="#glyph-1-1" x="4.339814" y="12.283"/>
<use xlink:href="#glyph-1-2" x="8.947647" y="12.283"/>
<use xlink:href="#glyph-1-3" x="12.55214" y="12.283"/>
<use xlink:href="#glyph-1-4" x="16.13601" y="12.283"/>
</g>
<g fill="rgb(100%, 0%, 0%)" fill-opacity="1">
<use xlink:href="#glyph-1-9" x="24.322333" y="12.283"/>
</g>
<g fill="rgb(100%, 0%, 0%)" fill-opacity="1">
<use xlink:href="#glyph-1-5" x="30.727033" y="12.283"/>
<use xlink:href="#glyph-1-7" x="34.826471" y="12.283"/>
<use xlink:href="#glyph-1-3" x="38.46145" y="12.283"/>
</g>
<path fill="none" stroke-width="0.19925" stroke-linecap="butt" stroke-linejoin="miter" stroke="rgb(100%, 0%, 0%)" stroke-opacity="1" stroke-miterlimit="10" d="M -19.316469 20.723844 L -44.250062 32.403531 " transform="matrix(1, 0, 0, -1, 72.961, 45.384)"/>
<path fill="none" stroke-width="0.3985" stroke-linecap="butt" stroke-linejoin="miter" stroke="rgb(100%, 0%, 0%)" stroke-opacity="1" stroke-miterlimit="10" d="M 1.410094 0.0011875 C 1.410094 0.778531 0.777281 1.407438 -0.0000625 1.407438 C -0.777406 1.407438 -1.410219 0.778531 -1.410219 0.0011875 C -1.410219 -0.780062 -0.777406 -1.408969 -0.0000625 -1.408969 C 0.777281 -1.408969 1.410094 -0.780062 1.410094 0.0011875 Z M 1.410094 0.0011875 " transform="matrix(1, 0, 0, -1, 72.961, 45.384)"/>
<g fill="rgb(100%, 0%, 0%)" fill-opacity="1">
<use xlink:href="#glyph-1-10" x="41.162" y="63.201"/>
<use xlink:href="#glyph-1-5" x="45.257852" y="63.201"/>
<use xlink:href="#glyph-1-0" x="49.35729" y="63.201"/>
</g>
<g fill="rgb(100%, 0%, 0%)" fill-opacity="1">
<use xlink:href="#glyph-1-3" x="54.217078" y="63.201"/>
<use xlink:href="#glyph-1-5" x="57.800948" y="63.201"/>
<use xlink:href="#glyph-1-2" x="61.900387" y="63.201"/>
</g>
<path fill="none" stroke-width="0.19925" stroke-linecap="butt" stroke-linejoin="miter" stroke="rgb(100%, 0%, 0%)" stroke-opacity="1" stroke-miterlimit="10" d="M -1.2735 -0.979281 L -15.203187 -11.701937 " transform="matrix(1, 0, 0, -1, 72.961, 45.384)"/>
</svg>
