<?xml version="1.0" encoding="UTF-8"?>
<svg xmlns="http://www.w3.org/2000/svg" xmlns:xlink="http://www.w3.org/1999/xlink" width="86.152pt" height="33.634pt" viewBox="0 0 86.152 33.634">
<defs>
<clipPath id="clip-0">
<path clip-rule="nonzero" d="M 0 17 L 85.726562 17 L 85.726562 18 L 0 18 Z M 0 17 "/>
</clipPath>
<clipPath id="clip-1">
<path clip-rule="nonzero" d="M 0 0 L 48 0 L 48 33.449219 L 0 33.449219 Z M 0 0 "/>
</clipPath>
<clipPath id="clip-2">
<path clip-rule="nonzero" d="M 0 0 L 42 0 L 42 33.449219 L 0 33.449219 Z M 0 0 "/>
</clipPath>
<clipPath id="clip-3">
<path clip-rule="nonzero" d="M 49 1 L 80 1 L 80 33.449219 L 49 33.449219 Z M 49 1 "/>
</clipPath>
<clipPath id="clip-4">
<path clip-rule="nonzero" d="M 57 24 L 72 24 L 72 33.449219 L 57 33.449219 Z M 57 24 "/>
</clipPath>
</defs>
<g clip-path="url(#clip-0)">
<path fill="none" stroke-width="0.3985" stroke-linecap="butt" stroke-linejoin="miter" stroke="rgb(0%, 0%, 0%)" stroke-opacity="1" stroke-miterlimit="10" d="M 0.000875 0.001625 L 7.371969 0.001625 M 35.149313 0.001625 L 49.8915 0.001625 M 77.668844 0.001625 L 85.039938 0.001625 " transform="matrix(1, 0, 0, -1, 0.671, 17.486)"/>
</g>
<g clip-path="url(#clip-1)">
<path fill="none" stroke-width="0.797" stroke-linecap="butt" stroke-linejoin="miter" stroke="rgb(0%, 0%, 0%)" stroke-opacity="1" stroke-miterlimit="10" d="M 7.371969 15.278969 L 35.149313 0.001625 L 7.371969 -15.279625 Z M 7.371969 15.278969 " transform="matrix(1, 0, 0, -1, 0.671, 17.486)"/>
</g>
<g clip-path="url(#clip-2)">
<path fill="none" stroke-width="0.3985" stroke-linecap="butt" stroke-linejoin="miter" stroke="rgb(0%, 0%, 0%)" stroke-opacity="1" stroke-miterlimit="10" d="M -0.963969 -13.889 L 35.106344 14.450844 " transform="matrix(1, 0, 0, -1, 0.671, 17.486)"/>
</g>
<path fill-rule="nonzero" fill="rgb(0%, 0%, 0%)" fill-opacity="1" d="M 38.597656 0.816406 C 37.640625 1.316406 35.914062 1.914062 34.542969 2.105469 L 36.390625 4.453125 C 36.898438 3.167969 37.886719 1.632812 38.597656 0.816406 "/>
<path fill="none" stroke-width="0.797" stroke-linecap="butt" stroke-linejoin="miter" stroke="rgb(0%, 0%, 0%)" stroke-opacity="1" stroke-miterlimit="10" d="M 49.8915 13.888344 L 77.668844 13.888344 L 77.668844 -13.889 L 49.8915 -13.889 Z M 49.8915 13.888344 " transform="matrix(1, 0, 0, -1, 0.671, 17.486)"/>
<g clip-path="url(#clip-3)">
<path fill="none" stroke-width="0.3985" stroke-linecap="butt" stroke-linejoin="miter" stroke="rgb(0%, 0%, 0%)" stroke-opacity="1" stroke-miterlimit="10" d="M 54.055563 10.696937 L 73.504781 0.001625 L 54.055563 -10.693688 Z M 54.055563 10.696937 " transform="matrix(1, 0, 0, -1, 0.671, 17.486)"/>
</g>
<path fill="none" stroke-width="0.3985" stroke-linecap="butt" stroke-linejoin="miter" stroke="rgb(0%, 0%, 0%)" stroke-opacity="1" stroke-miterlimit="10" d="M 48.223531 -9.721031 L 72.625875 9.450844 " transform="matrix(1, 0, 0, -1, 0.671, 17.486)"/>
<path fill-rule="nonzero" fill="rgb(0%, 0%, 0%)" fill-opacity="1" d="M 76.117188 5.820312 C 75.160156 6.320312 73.433594 6.914062 72.0625 7.105469 L 73.910156 9.457031 C 74.417969 8.167969 75.40625 6.632812 76.117188 5.820312 "/>
<path fill-rule="nonzero" fill="rgb(0%, 0%, 100%)" fill-opacity="1" stroke-width="0.3985" stroke-linecap="butt" stroke-linejoin="miter" stroke="rgb(0%, 0%, 100%)" stroke-opacity="1" stroke-miterlimit="10" d="M 22.848531 7.638344 C 22.848531 8.51725 22.137594 9.228187 21.258688 9.228187 C 20.383688 9.228187 19.67275 8.51725 19.67275 7.638344 C 19.67275 6.763344 20.383688 6.052406 21.258688 6.052406 C 22.137594 6.052406 22.848531 6.763344 22.848531 7.638344 Z M 22.848531 7.638344 " transform="matrix(1, 0, 0, -1, 0.671, 17.486)"/>
<path fill-rule="nonzero" fill="rgb(0%, 0%, 100%)" fill-opacity="1" stroke-width="0.3985" stroke-linecap="butt" stroke-linejoin="miter" stroke="rgb(0%, 0%, 100%)" stroke-opacity="1" stroke-miterlimit="10" d="M 65.368063 13.888344 C 65.368063 14.76725 64.657125 15.478187 63.782125 15.478187 C 62.903219 15.478187 62.192281 14.76725 62.192281 13.888344 C 62.192281 13.013344 62.903219 12.302406 63.782125 12.302406 C 64.657125 12.302406 65.368063 13.013344 65.368063 13.888344 Z M 65.368063 13.888344 " transform="matrix(1, 0, 0, -1, 0.671, 17.486)"/>
<path fill-rule="nonzero" fill="rgb(100%, 0%, 0%)" fill-opacity="1" stroke-width="0.3985" stroke-linecap="butt" stroke-linejoin="miter" stroke="rgb(100%, 0%, 0%)" stroke-opacity="1" stroke-miterlimit="10" d="M 22.848531 -7.639 C 22.848531 -6.764 22.137594 -6.053063 21.258688 -6.053063 C 20.383688 -6.053063 19.67275 -6.764 19.67275 -7.639 C 19.67275 -8.517906 20.383688 -9.224938 21.258688 -9.224938 C 22.137594 -9.224938 22.848531 -8.517906 22.848531 -7.639 Z M 22.848531 -7.639 " transform="matrix(1, 0, 0, -1, 0.671, 17.486)"/>
<path fill-rule="nonzero" fill="rgb(100%, 0%, 0%)" fill-opacity="1" d="M 66.039062 31.375 C 66.039062 30.5 65.328125 29.789062 64.453125 29.789062 C 63.574219 29.789062 62.863281 30.5 62.863281 31.375 C 62.863281 32.253906 63.574219 32.964844 64.453125 32.964844 C 65.328125 32.964844 66.039062 32.253906 66.039062 31.375 Z M 66.039062 31.375 "/>
<g clip-path="url(#clip-4)">
<path fill="none" stroke-width="0.3985" stroke-linecap="butt" stroke-linejoin="miter" stroke="rgb(100%, 0%, 0%)" stroke-opacity="1" stroke-miterlimit="10" d="M 65.368063 -13.889 C 65.368063 -13.014 64.657125 -12.303063 63.782125 -12.303063 C 62.903219 -12.303063 62.192281 -13.014 62.192281 -13.889 C 62.192281 -14.767906 62.903219 -15.478844 63.782125 -15.478844 C 64.657125 -15.478844 65.368063 -14.767906 65.368063 -13.889 Z M 65.368063 -13.889 " transform="matrix(1, 0, 0, -1, 0.671, 17.486)"/>
</g>
</svg>
