<?xml version="1.0" encoding="UTF-8"?>
<svg xmlns="http://www.w3.org/2000/svg" xmlns:xlink="http://www.w3.org/1999/xlink" width="88.074pt" height="59.338pt" viewBox="0 0 88.074 59.338">
<defs>
<clipPath id="clip-0">
<path clip-rule="nonzero" d="M 36 49 L 51 49 L 51 59.007812 L 36 59.007812 Z M 36 49 "/>
</clipPath>
<clipPath id="clip-1">
<path clip-rule="nonzero" d="M 84 13 L 87.609375 13 L 87.609375 17 L 84 17 Z M 84 13 "/>
</clipPath>
<clipPath id="clip-2">
<path clip-rule="nonzero" d="M 78 7 L 87.609375 7 L 87.609375 23 L 78 23 Z M 78 7 "/>
</clipPath>
</defs>
<path fill="none" stroke-width="0.3985" stroke-linecap="butt" stroke-linejoin="miter" stroke="rgb(0%, 0%, 0%)" stroke-opacity="1" stroke-miterlimit="10" d="M -13.8895 -0.0015625 L -28.061375 -0.0015625 M -28.061375 -0.0015625 L -42.237156 -0.0015625 M 0.001125 -13.888281 L 0.001125 -28.064063 M 0.001125 -28.064063 L 0.001125 -42.235938 M 13.89175 -0.0015625 L 28.063625 -0.0015625 M 28.063625 -0.0015625 L 42.2355 -0.0015625 " transform="matrix(1, 0, 0, -1, 43.577, 14.975)"/>
<path fill="none" stroke-width="0.797" stroke-linecap="butt" stroke-linejoin="miter" stroke="rgb(0%, 0%, 0%)" stroke-opacity="1" stroke-miterlimit="10" d="M 13.89175 -0.0015625 C 13.89175 7.670312 7.673 13.889062 0.001125 13.889062 C -7.67075 13.889062 -13.8895 7.670312 -13.8895 -0.0015625 C -13.8895 -7.669531 -7.67075 -13.888281 0.001125 -13.888281 C 7.673 -13.888281 13.89175 -7.669531 13.89175 -0.0015625 Z M 13.89175 -0.0015625 " transform="matrix(1, 0, 0, -1, 43.577, 14.975)"/>
<path fill="none" stroke-width="0.3985" stroke-linecap="butt" stroke-linejoin="miter" stroke="rgb(0%, 0%, 0%)" stroke-opacity="1" stroke-miterlimit="10" d="M -9.823094 9.822656 L 9.821438 -9.821875 M 9.821438 9.822656 L -9.823094 -9.821875 " transform="matrix(1, 0, 0, -1, 43.577, 14.975)"/>
<path fill-rule="nonzero" fill="rgb(100%, 100%, 100%)" fill-opacity="1" stroke-width="0.3985" stroke-linecap="butt" stroke-linejoin="miter" stroke="rgb(0%, 0%, 0%)" stroke-opacity="1" stroke-miterlimit="10" d="M -40.651219 -0.0015625 C -40.651219 0.877344 -41.35825 1.588281 -42.237156 1.588281 C -43.112156 1.588281 -43.823094 0.877344 -43.823094 -0.0015625 C -43.823094 -0.876563 -43.112156 -1.5875 -42.237156 -1.5875 C -41.35825 -1.5875 -40.651219 -0.876563 -40.651219 -0.0015625 Z M -40.651219 -0.0015625 " transform="matrix(1, 0, 0, -1, 43.577, 14.975)"/>
<path fill-rule="nonzero" fill="rgb(100%, 100%, 100%)" fill-opacity="1" d="M 45.164062 57.210938 C 45.164062 56.335938 44.453125 55.625 43.578125 55.625 C 42.699219 55.625 41.988281 56.335938 41.988281 57.210938 C 41.988281 58.089844 42.699219 58.796875 43.578125 58.796875 C 44.453125 58.796875 45.164062 58.089844 45.164062 57.210938 Z M 45.164062 57.210938 "/>
<g clip-path="url(#clip-0)">
<path fill="none" stroke-width="0.3985" stroke-linecap="butt" stroke-linejoin="miter" stroke="rgb(0%, 0%, 0%)" stroke-opacity="1" stroke-miterlimit="10" d="M 1.587063 -42.235938 C 1.587063 -41.360938 0.876125 -40.65 0.001125 -40.65 C -0.877781 -40.65 -1.588719 -41.360938 -1.588719 -42.235938 C -1.588719 -43.114844 -0.877781 -43.821875 0.001125 -43.821875 C 0.876125 -43.821875 1.587063 -43.114844 1.587063 -42.235938 Z M 1.587063 -42.235938 " transform="matrix(1, 0, 0, -1, 43.577, 14.975)"/>
</g>
<g clip-path="url(#clip-1)">
<path fill-rule="nonzero" fill="rgb(100%, 100%, 100%)" fill-opacity="1" d="M 87.402344 14.976562 C 87.402344 14.097656 86.691406 13.386719 85.8125 13.386719 C 84.9375 13.386719 84.226562 14.097656 84.226562 14.976562 C 84.226562 15.851562 84.9375 16.5625 85.8125 16.5625 C 86.691406 16.5625 87.402344 15.851562 87.402344 14.976562 Z M 87.402344 14.976562 "/>
</g>
<g clip-path="url(#clip-2)">
<path fill="none" stroke-width="0.3985" stroke-linecap="butt" stroke-linejoin="miter" stroke="rgb(0%, 0%, 0%)" stroke-opacity="1" stroke-miterlimit="10" d="M 43.825344 -0.0015625 C 43.825344 0.877344 43.114406 1.588281 42.2355 1.588281 C 41.3605 1.588281 40.649563 0.877344 40.649563 -0.0015625 C 40.649563 -0.876563 41.3605 -1.5875 42.2355 -1.5875 C 43.114406 -1.5875 43.825344 -0.876563 43.825344 -0.0015625 Z M 43.825344 -0.0015625 " transform="matrix(1, 0, 0, -1, 43.577, 14.975)"/>
</g>
<path fill-rule="nonzero" fill="rgb(0%, 0%, 0%)" fill-opacity="1" d="M 25.46875 14.976562 L 25.46875 16.960938 L 29.6875 14.976562 L 25.46875 12.992188 Z M 25.46875 14.976562 "/>
<path fill-rule="nonzero" fill="rgb(0%, 0%, 0%)" fill-opacity="1" d="M 43.578125 33.082031 L 45.5625 33.082031 L 43.578125 28.863281 L 41.59375 33.082031 Z M 43.578125 33.082031 "/>
</svg>
