<?xml version="1.0" encoding="UTF-8"?>
<svg xmlns="http://www.w3.org/2000/svg" xmlns:xlink="http://www.w3.org/1999/xlink" width="132.462" height="46.612" viewBox="0 0 132.462 46.612">
<defs>
<g>
<g id="glyph-0-0">
<path d="M 3.0625 -1.109375 L 3.0625 -1.625 L 2.8125 -1.625 L 2.8125 -1.140625 C 2.8125 -0.46875 2.53125 -0.15625 2.21875 -0.15625 C 1.609375 -0.15625 1.609375 -0.9375 1.609375 -1.109375 L 1.609375 -3.59375 L 2.921875 -3.59375 L 2.921875 -3.859375 L 1.609375 -3.859375 L 1.609375 -5.515625 L 1.359375 -5.515625 C 1.359375 -4.765625 1.046875 -3.84375 0.171875 -3.8125 L 0.171875 -3.59375 L 0.953125 -3.59375 L 0.953125 -1.109375 C 0.953125 -0.109375 1.671875 0.09375 2.15625 0.09375 C 2.75 0.09375 3.0625 -0.46875 3.0625 -1.109375 Z M 3.0625 -1.109375 "/>
</g>
<g id="glyph-0-1">
<path d="M 4.34375 -1.90625 C 4.34375 -3.078125 3.40625 -4.015625 2.3125 -4.015625 C 1.171875 -4.015625 0.265625 -3.0625 0.265625 -1.90625 C 0.265625 -0.796875 1.1875 0.09375 2.296875 0.09375 C 3.4375 0.09375 4.34375 -0.8125 4.34375 -1.90625 Z M 3.5625 -1.984375 C 3.5625 -1.65625 3.5625 -1.140625 3.34375 -0.75 C 3.09375 -0.328125 2.6875 -0.15625 2.3125 -0.15625 C 1.859375 -0.15625 1.484375 -0.375 1.28125 -0.71875 C 1.046875 -1.109375 1.03125 -1.578125 1.03125 -1.984375 C 1.03125 -2.328125 1.03125 -2.828125 1.25 -3.203125 C 1.53125 -3.65625 1.96875 -3.796875 2.296875 -3.796875 C 2.8125 -3.796875 3.171875 -3.5 3.359375 -3.203125 C 3.5625 -2.828125 3.5625 -2.375 3.5625 -1.984375 Z M 3.5625 -1.984375 "/>
</g>
<g id="glyph-0-2">
<path d="M 4.8125 -1.9375 C 4.8125 -3.0625 3.921875 -3.96875 2.875 -3.96875 C 2.390625 -3.96875 1.9375 -3.765625 1.59375 -3.40625 L 1.59375 -3.96875 L 0.265625 -3.859375 L 0.265625 -3.59375 C 0.90625 -3.59375 0.953125 -3.53125 0.953125 -3.140625 L 0.953125 1.046875 C 0.953125 1.46875 0.859375 1.46875 0.265625 1.46875 L 0.265625 1.734375 C 0.6875 1.71875 0.859375 1.71875 1.296875 1.71875 C 1.71875 1.71875 1.84375 1.71875 2.3125 1.734375 L 2.3125 1.46875 C 1.71875 1.46875 1.625 1.46875 1.625 1.046875 L 1.625 -0.4375 C 1.859375 -0.203125 2.15625 0.09375 2.75 0.09375 C 3.828125 0.09375 4.8125 -0.765625 4.8125 -1.9375 Z M 4.03125 -1.9375 C 4.03125 -0.921875 3.421875 -0.125 2.703125 -0.125 C 2.296875 -0.125 1.953125 -0.359375 1.734375 -0.671875 C 1.625 -0.859375 1.625 -0.875 1.625 -1.046875 L 1.625 -3.015625 C 1.921875 -3.53125 2.421875 -3.71875 2.796875 -3.71875 C 3.5 -3.71875 4.03125 -2.90625 4.03125 -1.9375 Z M 4.03125 -1.9375 "/>
</g>
<g id="glyph-0-3">
<path d="M 4.453125 -0.796875 L 4.453125 -1.296875 L 4.203125 -1.296875 L 4.203125 -0.8125 C 4.203125 -0.703125 4.203125 -0.265625 3.890625 -0.265625 C 3.5625 -0.265625 3.5625 -0.6875 3.5625 -0.828125 L 3.5625 -2.40625 C 3.5625 -2.921875 3.5625 -3.21875 3.15625 -3.59375 C 2.828125 -3.890625 2.390625 -4.015625 1.953125 -4.015625 C 1.1875 -4.015625 0.5625 -3.640625 0.5625 -3.0625 C 0.5625 -2.796875 0.75 -2.640625 0.984375 -2.640625 C 1.234375 -2.640625 1.40625 -2.8125 1.40625 -3.046875 C 1.40625 -3.4375 1 -3.484375 1 -3.484375 C 1.234375 -3.71875 1.671875 -3.796875 1.921875 -3.796875 C 2.390625 -3.796875 2.890625 -3.453125 2.890625 -2.65625 L 2.890625 -2.375 C 2.40625 -2.34375 1.734375 -2.3125 1.140625 -2.015625 C 0.5 -1.703125 0.296875 -1.234375 0.296875 -0.875 C 0.296875 -0.140625 1.171875 0.09375 1.765625 0.09375 C 2.515625 0.09375 2.859375 -0.390625 2.984375 -0.640625 C 3.015625 -0.265625 3.28125 0.046875 3.671875 0.046875 C 3.890625 0.046875 4.453125 -0.078125 4.453125 -0.796875 Z M 2.890625 -1.265625 C 2.890625 -0.390625 2.21875 -0.125 1.828125 -0.125 C 1.40625 -0.125 1.015625 -0.4375 1.015625 -0.875 C 1.015625 -1.46875 1.53125 -2.09375 2.890625 -2.15625 Z M 2.890625 -1.265625 "/>
</g>
<g id="glyph-0-4">
<path d="M 3.34375 -3.40625 C 3.34375 -3.6875 3.078125 -3.96875 2.671875 -3.96875 C 2.140625 -3.96875 1.765625 -3.59375 1.546875 -3.03125 L 1.546875 -3.96875 L 0.265625 -3.859375 L 0.265625 -3.59375 C 0.875 -3.59375 0.953125 -3.53125 0.953125 -3.078125 L 0.953125 -0.6875 C 0.953125 -0.28125 0.859375 -0.28125 0.265625 -0.28125 L 0.265625 0 C 0.75 -0.015625 0.859375 -0.03125 1.3125 -0.03125 L 2.453125 0 L 2.453125 -0.28125 L 2.28125 -0.28125 C 1.625 -0.28125 1.59375 -0.375 1.59375 -0.703125 L 1.59375 -2.046875 C 1.59375 -2.421875 1.6875 -3.734375 2.71875 -3.734375 C 2.703125 -3.71875 2.5625 -3.609375 2.5625 -3.40625 C 2.5625 -3.15625 2.75 -3 2.953125 -3 C 3.140625 -3 3.34375 -3.140625 3.34375 -3.40625 Z M 3.34375 -3.40625 "/>
</g>
<g id="glyph-0-5">
<path d="M 3.828125 -1.0625 C 3.828125 -1.171875 3.734375 -1.171875 3.703125 -1.171875 C 3.609375 -1.171875 3.609375 -1.15625 3.546875 -1 C 3.34375 -0.390625 2.84375 -0.15625 2.390625 -0.15625 C 1.8125 -0.15625 1.078125 -0.625 1.078125 -1.953125 C 1.078125 -3.34375 1.796875 -3.765625 2.328125 -3.765625 C 2.453125 -3.765625 2.9375 -3.75 3.265625 -3.53125 C 3.078125 -3.484375 2.890625 -3.359375 2.890625 -3.109375 C 2.890625 -2.875 3.078125 -2.6875 3.3125 -2.6875 C 3.546875 -2.6875 3.734375 -2.84375 3.734375 -3.125 C 3.734375 -3.671875 3.109375 -4.015625 2.3125 -4.015625 C 1.171875 -4.015625 0.3125 -3.0625 0.3125 -1.9375 C 0.3125 -0.78125 1.234375 0.09375 2.296875 0.09375 C 3.546875 0.09375 3.828125 -0.984375 3.828125 -1.0625 Z M 3.828125 -1.0625 "/>
</g>
<g id="glyph-0-6">
<path d="M 2.34375 0 L 2.34375 -0.28125 C 1.75 -0.28125 1.65625 -0.28125 1.65625 -0.6875 L 1.65625 -6.21875 L 0.328125 -6.125 L 0.328125 -5.84375 C 0.9375 -5.84375 1.015625 -5.78125 1.015625 -5.34375 L 1.015625 -0.6875 C 1.015625 -0.28125 0.921875 -0.28125 0.328125 -0.28125 L 0.328125 0 C 0.75 -0.015625 0.921875 -0.03125 1.328125 -0.03125 C 1.75 -0.03125 1.90625 -0.015625 2.34375 0 Z M 2.34375 0 "/>
</g>
<g id="glyph-0-7">
<path d="M 3.828125 -1.0625 C 3.828125 -1.125 3.78125 -1.1875 3.703125 -1.1875 C 3.609375 -1.1875 3.59375 -1.125 3.578125 -1.078125 C 3.28125 -0.171875 2.46875 -0.15625 2.34375 -0.15625 C 1.90625 -0.15625 1.546875 -0.390625 1.34375 -0.703125 C 1.046875 -1.140625 1.03125 -1.671875 1.03125 -2.046875 L 3.59375 -2.046875 C 3.78125 -2.046875 3.828125 -2.046875 3.828125 -2.25 C 3.828125 -3.171875 3.328125 -4.015625 2.171875 -4.015625 C 1.109375 -4.015625 0.265625 -3.078125 0.265625 -1.96875 C 0.265625 -0.796875 1.203125 0.09375 2.296875 0.09375 C 3.390625 0.09375 3.828125 -0.859375 3.828125 -1.0625 Z M 3.21875 -2.265625 L 1.046875 -2.265625 C 1.125 -3.65625 1.921875 -3.796875 2.171875 -3.796875 C 2.671875 -3.796875 3.203125 -3.421875 3.21875 -2.265625 Z M 3.21875 -2.265625 "/>
</g>
<g id="glyph-0-8">
<path d="M 3.28125 -5.6875 C 3.28125 -6.03125 2.9375 -6.328125 2.453125 -6.328125 C 1.75 -6.328125 1.015625 -5.796875 1.015625 -4.890625 L 1.015625 -3.859375 L 0.3125 -3.859375 L 0.3125 -3.59375 L 1.015625 -3.59375 L 1.015625 -0.6875 C 1.015625 -0.28125 0.921875 -0.28125 0.328125 -0.28125 L 0.328125 0 C 0.796875 -0.015625 0.921875 -0.03125 1.375 -0.03125 L 2.515625 0 L 2.515625 -0.28125 L 2.328125 -0.28125 C 1.671875 -0.28125 1.65625 -0.375 1.65625 -0.703125 L 1.65625 -3.59375 L 2.6875 -3.59375 L 2.6875 -3.859375 L 1.625 -3.859375 L 1.625 -4.875 C 1.625 -5.6875 2.0625 -6.09375 2.453125 -6.09375 C 2.53125 -6.09375 2.625 -6.078125 2.71875 -6.046875 C 2.625 -6.015625 2.484375 -5.90625 2.484375 -5.671875 C 2.484375 -5.4375 2.65625 -5.28125 2.875 -5.28125 C 3.125 -5.28125 3.28125 -5.453125 3.28125 -5.6875 Z M 3.28125 -5.6875 "/>
</g>
<g id="glyph-0-9">
<path d="M 2.265625 0 L 2.265625 -0.28125 C 1.6875 -0.28125 1.65625 -0.328125 1.65625 -0.671875 L 1.65625 -3.96875 L 0.359375 -3.859375 L 0.359375 -3.59375 C 0.9375 -3.59375 1.015625 -3.53125 1.015625 -3.09375 L 1.015625 -0.6875 C 1.015625 -0.28125 0.921875 -0.28125 0.328125 -0.28125 L 0.328125 0 C 0.71875 -0.015625 0.921875 -0.03125 1.3125 -0.03125 C 1.453125 -0.03125 1.828125 -0.03125 2.265625 0 Z M 1.765625 -5.40625 C 1.765625 -5.671875 1.546875 -5.890625 1.28125 -5.890625 C 1.015625 -5.890625 0.796875 -5.671875 0.796875 -5.40625 C 0.796875 -5.140625 1.015625 -4.921875 1.28125 -4.921875 C 1.546875 -4.921875 1.765625 -5.140625 1.765625 -5.40625 Z M 1.765625 -5.40625 "/>
</g>
<g id="glyph-0-10">
<path d="M 4.46875 -3.609375 C 4.46875 -3.78125 4.34375 -4.0625 3.984375 -4.0625 C 3.734375 -4.0625 3.328125 -3.96875 3.015625 -3.640625 C 2.765625 -3.84375 2.421875 -3.96875 2.046875 -3.96875 C 1.1875 -3.96875 0.546875 -3.359375 0.546875 -2.640625 C 0.546875 -2.1875 0.8125 -1.859375 0.953125 -1.734375 C 0.9375 -1.71875 0.6875 -1.40625 0.6875 -0.984375 C 0.6875 -0.6875 0.828125 -0.359375 1.078125 -0.203125 C 0.625 -0.046875 0.265625 0.28125 0.265625 0.703125 C 0.265625 1.34375 1.140625 1.84375 2.296875 1.84375 C 3.40625 1.84375 4.34375 1.375 4.34375 0.6875 C 4.34375 0.3125 4.171875 -0.078125 3.84375 -0.296875 C 3.34375 -0.609375 2.8125 -0.609375 1.96875 -0.609375 C 1.78125 -0.609375 1.5 -0.609375 1.421875 -0.625 C 1.171875 -0.6875 1 -0.921875 1 -1.203125 C 1 -1.359375 1.046875 -1.484375 1.125 -1.609375 C 1.34375 -1.46875 1.625 -1.328125 2.03125 -1.328125 C 2.890625 -1.328125 3.53125 -1.9375 3.53125 -2.640625 C 3.53125 -3.078125 3.28125 -3.390625 3.171875 -3.515625 C 3.53125 -3.84375 3.953125 -3.84375 4.046875 -3.84375 C 4.015625 -3.8125 3.9375 -3.765625 3.9375 -3.609375 C 3.9375 -3.5 4 -3.34375 4.203125 -3.34375 C 4.328125 -3.34375 4.46875 -3.421875 4.46875 -3.609375 Z M 2.84375 -2.640625 C 2.84375 -2.4375 2.84375 -1.5625 2.03125 -1.5625 C 1.234375 -1.5625 1.234375 -2.453125 1.234375 -2.640625 C 1.234375 -2.890625 1.25 -3.1875 1.40625 -3.40625 C 1.546875 -3.59375 1.78125 -3.71875 2.03125 -3.71875 C 2.84375 -3.71875 2.84375 -2.859375 2.84375 -2.640625 Z M 3.84375 0.6875 C 3.84375 1.203125 3.140625 1.609375 2.3125 1.609375 C 1.421875 1.609375 0.765625 1.1875 0.765625 0.6875 C 0.765625 0.546875 0.859375 -0.046875 1.625 -0.046875 L 2.453125 -0.046875 C 2.734375 -0.046875 3.84375 -0.03125 3.84375 0.6875 Z M 3.84375 0.6875 "/>
</g>
<g id="glyph-0-11">
<path d="M 4.90625 0 L 4.90625 -0.28125 C 4.453125 -0.28125 4.21875 -0.28125 4.21875 -0.5625 L 4.21875 -2.28125 C 4.21875 -3.015625 4.21875 -3.28125 3.96875 -3.59375 C 3.765625 -3.84375 3.421875 -3.96875 2.96875 -3.96875 C 2.375 -3.96875 1.921875 -3.65625 1.65625 -3.140625 L 1.640625 -3.140625 L 1.640625 -6.21875 L 0.3125 -6.125 L 0.3125 -5.84375 C 0.921875 -5.84375 1 -5.78125 1 -5.34375 L 1 -0.6875 C 1 -0.28125 0.90625 -0.28125 0.3125 -0.28125 L 0.3125 0 C 0.734375 -0.015625 0.90625 -0.03125 1.34375 -0.03125 C 1.765625 -0.03125 1.890625 -0.015625 2.359375 0 L 2.359375 -0.28125 C 1.765625 -0.28125 1.671875 -0.28125 1.671875 -0.6875 L 1.671875 -2.328125 C 1.671875 -3.28125 2.34375 -3.734375 2.90625 -3.734375 C 3.4375 -3.734375 3.546875 -3.296875 3.546875 -2.765625 L 3.546875 -0.6875 C 3.546875 -0.28125 3.453125 -0.28125 2.859375 -0.28125 L 2.859375 0 C 3.28125 -0.015625 3.453125 -0.03125 3.890625 -0.03125 C 4.3125 -0.03125 4.4375 -0.015625 4.90625 0 Z M 4.90625 0 "/>
</g>
<g id="glyph-0-12">
<path d="M 6.015625 -1.625 C 6.015625 -2.4375 5.234375 -3.09375 4.234375 -3.203125 C 5.125 -3.375 5.75 -3.953125 5.75 -4.609375 C 5.75 -5.40625 4.890625 -6.125 3.703125 -6.125 L 0.375 -6.125 L 0.375 -5.84375 L 0.578125 -5.84375 C 1.265625 -5.84375 1.28125 -5.75 1.28125 -5.421875 L 1.28125 -0.703125 C 1.28125 -0.375 1.265625 -0.28125 0.578125 -0.28125 L 0.375 -0.28125 L 0.375 0 L 3.953125 0 C 5.171875 0 6.015625 -0.796875 6.015625 -1.625 Z M 4.890625 -4.609375 C 4.890625 -3.921875 4.28125 -3.296875 3.4375 -3.296875 L 2.03125 -3.296875 L 2.03125 -5.484375 C 2.03125 -5.78125 2.046875 -5.84375 2.46875 -5.84375 L 3.640625 -5.84375 C 4.515625 -5.84375 4.890625 -5.140625 4.890625 -4.609375 Z M 5.125 -1.65625 C 5.125 -0.953125 4.578125 -0.28125 3.65625 -0.28125 L 2.46875 -0.28125 C 2.046875 -0.28125 2.03125 -0.34375 2.03125 -0.640625 L 2.03125 -3.078125 L 3.734375 -3.078125 C 4.765625 -3.078125 5.125 -2.203125 5.125 -1.65625 Z M 5.125 -1.65625 "/>
</g>
<g id="glyph-0-13">
<path d="M 2.5625 -1.65625 L 2.5625 -2.21875 L 0.09375 -2.21875 L 0.09375 -1.65625 Z M 2.5625 -1.65625 "/>
</g>
<g id="glyph-0-14">
<path d="M 4.90625 0 L 4.90625 -0.28125 C 4.296875 -0.28125 4.21875 -0.34375 4.21875 -0.78125 L 4.21875 -3.96875 L 2.859375 -3.859375 L 2.859375 -3.59375 C 3.46875 -3.59375 3.546875 -3.53125 3.546875 -3.078125 L 3.546875 -1.5 C 3.546875 -0.703125 3.109375 -0.125 2.453125 -0.125 C 1.71875 -0.125 1.671875 -0.515625 1.671875 -1 L 1.671875 -3.96875 L 0.3125 -3.859375 L 0.3125 -3.59375 C 1 -3.59375 1 -3.5625 1 -2.765625 L 1 -1.421875 C 1 -0.828125 1 -0.453125 1.421875 -0.140625 C 1.671875 0.03125 2.046875 0.09375 2.40625 0.09375 C 2.875 0.09375 3.3125 -0.109375 3.5625 -0.640625 L 3.578125 -0.640625 L 3.578125 0.09375 Z M 4.90625 0 "/>
</g>
<g id="glyph-0-15">
<path d="M 1.765625 -0.484375 C 1.765625 -0.75 1.546875 -0.96875 1.28125 -0.96875 C 1 -0.96875 0.796875 -0.75 0.796875 -0.484375 C 0.796875 -0.21875 1 0 1.28125 0 C 1.546875 0 1.765625 -0.21875 1.765625 -0.484375 Z M 1.765625 -0.484375 "/>
</g>
<g id="glyph-0-16">
<path d="M 4.90625 0 L 4.90625 -0.28125 C 4.453125 -0.28125 4.21875 -0.28125 4.21875 -0.5625 L 4.21875 -2.28125 C 4.21875 -3.015625 4.21875 -3.28125 3.96875 -3.59375 C 3.765625 -3.84375 3.421875 -3.96875 2.96875 -3.96875 C 2.140625 -3.96875 1.75 -3.34375 1.625 -3.09375 L 1.609375 -3.09375 L 1.609375 -3.96875 L 0.3125 -3.859375 L 0.3125 -3.59375 C 0.921875 -3.59375 1 -3.53125 1 -3.078125 L 1 -0.6875 C 1 -0.28125 0.90625 -0.28125 0.3125 -0.28125 L 0.3125 0 C 0.734375 -0.015625 0.90625 -0.03125 1.34375 -0.03125 C 1.765625 -0.03125 1.890625 -0.015625 2.359375 0 L 2.359375 -0.28125 C 1.765625 -0.28125 1.671875 -0.28125 1.671875 -0.6875 L 1.671875 -2.328125 C 1.671875 -3.28125 2.34375 -3.734375 2.90625 -3.734375 C 3.4375 -3.734375 3.546875 -3.296875 3.546875 -2.765625 L 3.546875 -0.6875 C 3.546875 -0.28125 3.453125 -0.28125 2.859375 -0.28125 L 2.859375 0 C 3.28125 -0.015625 3.453125 -0.03125 3.890625 -0.03125 C 4.3125 -0.03125 4.4375 -0.015625 4.90625 0 Z M 4.90625 0 "/>
</g>
</g>
<clipPath id="clip-0">
<path clip-rule="nonzero" d="M 129 1 L 132.191406 1 L 132.191406 8 L 129 8 Z M 129 1 "/>
</clipPath>
<clipPath id="clip-1">
<path clip-rule="nonzero" d="M 41 39 L 55 39 L 55 46.417969 L 41 46.417969 Z M 41 39 "/>
</clipPath>
<clipPath id="clip-2">
<path clip-rule="nonzero" d="M 60 40 L 91 40 L 91 46.417969 L 60 46.417969 Z M 60 40 "/>
</clipPath>
</defs>
<path fill="none" stroke-width="0.3985" stroke-linecap="butt" stroke-linejoin="miter" stroke="rgb(0%, 0%, 0%)" stroke-opacity="1" stroke-miterlimit="10" d="M 0.0019375 0.00009375 L 16.439438 0.00009375 M 40.251938 0.00009375 L 56.693344 0.00009375 " transform="matrix(1, 0, 0, -1, 34.709, 31.504)"/>
<path fill="none" stroke-width="0.3985" stroke-linecap="butt" stroke-linejoin="miter" stroke="rgb(0%, 0%, 0%)" stroke-opacity="1" stroke-miterlimit="10" d="M 17.630844 1.586031 C 22.392563 4.761812 34.298813 4.761812 39.060531 1.586031 " transform="matrix(1, 0, 0, -1, 34.709, 31.504)"/>
<path fill-rule="nonzero" fill="rgb(70.001221%, 90.351868%, 98.118591%)" fill-opacity="1" stroke-width="0.3985" stroke-linecap="butt" stroke-linejoin="miter" stroke="rgb(0%, 0%, 0%)" stroke-opacity="1" stroke-miterlimit="10" d="M 18.029281 0.00009375 C 18.029281 0.875094 17.318344 1.586031 16.439438 1.586031 C 15.564438 1.586031 14.8535 0.875094 14.8535 0.00009375 C 14.8535 -0.874906 15.564438 -1.585844 16.439438 -1.585844 C 17.318344 -1.585844 18.029281 -0.874906 18.029281 0.00009375 Z M 18.029281 0.00009375 " transform="matrix(1, 0, 0, -1, 34.709, 31.504)"/>
<path fill-rule="nonzero" fill="rgb(70.001221%, 90.351868%, 98.118591%)" fill-opacity="1" stroke-width="0.3985" stroke-linecap="butt" stroke-linejoin="miter" stroke="rgb(0%, 0%, 0%)" stroke-opacity="1" stroke-miterlimit="10" d="M 29.935531 0.00009375 C 29.935531 0.875094 29.224594 1.586031 28.345688 1.586031 C 27.470688 1.586031 26.75975 0.875094 26.75975 0.00009375 C 26.75975 -0.874906 27.470688 -1.585844 28.345688 -1.585844 C 29.224594 -1.585844 29.935531 -0.874906 29.935531 0.00009375 Z M 29.935531 0.00009375 " transform="matrix(1, 0, 0, -1, 34.709, 31.504)"/>
<path fill-rule="nonzero" fill="rgb(70.001221%, 90.351868%, 98.118591%)" fill-opacity="1" stroke-width="0.3985" stroke-linecap="butt" stroke-linejoin="miter" stroke="rgb(0%, 0%, 0%)" stroke-opacity="1" stroke-miterlimit="10" d="M 41.837875 0.00009375 C 41.837875 0.875094 41.130844 1.586031 40.251938 1.586031 C 39.376938 1.586031 38.666 0.875094 38.666 0.00009375 C 38.666 -0.874906 39.376938 -1.585844 40.251938 -1.585844 C 41.130844 -1.585844 41.837875 -0.874906 41.837875 0.00009375 Z M 41.837875 0.00009375 " transform="matrix(1, 0, 0, -1, 34.709, 31.504)"/>
<path fill="none" stroke-width="0.3985" stroke-linecap="butt" stroke-linejoin="miter" stroke="rgb(100%, 0%, 0%)" stroke-opacity="1" stroke-miterlimit="10" d="M 29.755844 3.968844 C 29.755844 4.746187 29.123031 5.375094 28.345688 5.375094 C 27.568344 5.375094 26.939438 4.746187 26.939438 3.968844 C 26.939438 3.1915 27.568344 2.558687 28.345688 2.558687 C 29.123031 2.558687 29.755844 3.1915 29.755844 3.968844 Z M 29.755844 3.968844 " transform="matrix(1, 0, 0, -1, 34.709, 31.504)"/>
<g fill="rgb(100%, 0%, 0%)" fill-opacity="1">
<use xlink:href="#glyph-0-0" x="-0.437" y="7.121"/>
<use xlink:href="#glyph-0-1" x="3.14687" y="7.121"/>
<use xlink:href="#glyph-0-2" x="7.754703" y="7.121"/>
</g>
<g fill="rgb(100%, 0%, 0%)" fill-opacity="1">
<use xlink:href="#glyph-0-3" x="15.949993" y="7.121"/>
<use xlink:href="#glyph-0-4" x="20.557826" y="7.121"/>
<use xlink:href="#glyph-0-5" x="24.162318" y="7.121"/>
</g>
<g fill="rgb(100%, 0%, 0%)" fill-opacity="1">
<use xlink:href="#glyph-0-6" x="31.324679" y="7.121"/>
<use xlink:href="#glyph-0-7" x="33.884586" y="7.121"/>
<use xlink:href="#glyph-0-8" x="37.984024" y="7.121"/>
<use xlink:href="#glyph-0-0" x="40.799474" y="7.121"/>
</g>
<path fill="none" stroke-width="0.19925" stroke-linecap="butt" stroke-linejoin="miter" stroke="rgb(100%, 0%, 0%)" stroke-opacity="1" stroke-miterlimit="10" d="M 26.939438 4.742281 L -4.283219 21.9415 " transform="matrix(1, 0, 0, -1, 34.709, 31.504)"/>
<path fill="none" stroke-width="0.3985" stroke-linecap="butt" stroke-linejoin="miter" stroke="rgb(100%, 0%, 0%)" stroke-opacity="1" stroke-miterlimit="10" d="M 29.755844 3.968844 C 29.755844 4.746187 29.123031 5.375094 28.345688 5.375094 C 27.568344 5.375094 26.939438 4.746187 26.939438 3.968844 C 26.939438 3.1915 27.568344 2.558687 28.345688 2.558687 C 29.123031 2.558687 29.755844 3.1915 29.755844 3.968844 Z M 29.755844 3.968844 " transform="matrix(1, 0, 0, -1, 34.709, 31.504)"/>
<g fill="rgb(100%, 0%, 0%)" fill-opacity="1">
<use xlink:href="#glyph-0-0" x="81.727" y="7.121"/>
<use xlink:href="#glyph-0-1" x="85.31087" y="7.121"/>
<use xlink:href="#glyph-0-2" x="89.918703" y="7.121"/>
</g>
<g fill="rgb(100%, 0%, 0%)" fill-opacity="1">
<use xlink:href="#glyph-0-3" x="98.113993" y="7.121"/>
<use xlink:href="#glyph-0-4" x="102.721826" y="7.121"/>
<use xlink:href="#glyph-0-5" x="106.326318" y="7.121"/>
</g>
<g fill="rgb(100%, 0%, 0%)" fill-opacity="1">
<use xlink:href="#glyph-0-4" x="113.488679" y="7.121"/>
<use xlink:href="#glyph-0-9" x="117.093172" y="7.121"/>
<use xlink:href="#glyph-0-10" x="119.653079" y="7.121"/>
<use xlink:href="#glyph-0-11" x="124.260912" y="7.121"/>
</g>
<g clip-path="url(#clip-0)">
<g fill="rgb(100%, 0%, 0%)" fill-opacity="1">
<use xlink:href="#glyph-0-0" x="129.129667" y="7.121"/>
</g>
</g>
<path fill="none" stroke-width="0.19925" stroke-linecap="butt" stroke-linejoin="miter" stroke="rgb(100%, 0%, 0%)" stroke-opacity="1" stroke-miterlimit="10" d="M 29.779281 4.699312 L 63.423813 21.9415 " transform="matrix(1, 0, 0, -1, 34.709, 31.504)"/>
<path fill="none" stroke-width="0.3985" stroke-linecap="butt" stroke-linejoin="miter" stroke="rgb(100%, 0%, 0%)" stroke-opacity="1" stroke-miterlimit="10" d="M 29.755844 -1.585844 C 29.755844 -0.8085 29.123031 -0.179594 28.345688 -0.179594 C 27.568344 -0.179594 26.939438 -0.8085 26.939438 -1.585844 C 26.939438 -2.367094 27.568344 -2.996 28.345688 -2.996 C 29.123031 -2.996 29.755844 -2.367094 29.755844 -1.585844 Z M 29.755844 -1.585844 " transform="matrix(1, 0, 0, -1, 34.709, 31.504)"/>
<g clip-path="url(#clip-1)">
<g fill="rgb(100%, 0%, 0%)" fill-opacity="1">
<use xlink:href="#glyph-0-0" x="41.228" y="44.678"/>
<use xlink:href="#glyph-0-3" x="44.81187" y="44.678"/>
<use xlink:href="#glyph-0-2" x="49.419703" y="44.678"/>
</g>
</g>
<path fill="none" stroke-width="0.19925" stroke-linecap="butt" stroke-linejoin="miter" stroke="rgb(100%, 0%, 0%)" stroke-opacity="1" stroke-miterlimit="10" d="M 26.994125 -2.456938 L 19.830063 -7.062406 " transform="matrix(1, 0, 0, -1, 34.709, 31.504)"/>
<path fill="none" stroke-width="0.3985" stroke-linecap="butt" stroke-linejoin="miter" stroke="rgb(0%, 0%, 100%)" stroke-opacity="1" stroke-miterlimit="10" d="M 41.662094 1.586031 C 41.662094 2.367281 41.029281 2.996187 40.251938 2.996187 C 39.474594 2.996187 38.841781 2.367281 38.841781 1.586031 C 38.841781 0.808687 39.474594 0.179781 40.251938 0.179781 C 41.029281 0.179781 41.662094 0.808687 41.662094 1.586031 Z M 41.662094 1.586031 " transform="matrix(1, 0, 0, -1, 34.709, 31.504)"/>
<g clip-path="url(#clip-2)">
<g fill="rgb(0%, 0%, 100%)" fill-opacity="1">
<use xlink:href="#glyph-0-12" x="59.666" y="46.336"/>
<use xlink:href="#glyph-0-13" x="66.192643" y="46.336"/>
<use xlink:href="#glyph-0-1" x="69.264531" y="46.336"/>
<use xlink:href="#glyph-0-14" x="73.872364" y="46.336"/>
<use xlink:href="#glyph-0-0" x="78.992179" y="46.336"/>
<use xlink:href="#glyph-0-15" x="82.576049" y="46.336"/>
<use xlink:href="#glyph-0-16" x="85.135956" y="46.336"/>
</g>
</g>
<path fill="none" stroke-width="0.19925" stroke-linecap="butt" stroke-linejoin="miter" stroke="rgb(0%, 0%, 100%)" stroke-opacity="1" stroke-miterlimit="10" d="M 40.251938 1.586031 L 40.251938 -7.956938 " transform="matrix(1, 0, 0, -1, 34.709, 31.504)"/>
</svg>
