<?xml version="1.0" encoding="UTF-8"?>
<svg xmlns="http://www.w3.org/2000/svg" xmlns:xlink="http://www.w3.org/1999/xlink" width="56.712pt" height="9.46pt" viewBox="0 0 56.712 9.46">
<defs>
<clipPath id="clip-0">
<path clip-rule="nonzero" d="M 0 7 L 56.566406 7 L 56.566406 9 L 0 9 Z M 0 7 "/>
</clipPath>
<clipPath id="clip-1">
<path clip-rule="nonzero" d="M 9 0 L 46 0 L 46 9.191406 L 9 9.191406 Z M 9 0 "/>
</clipPath>
<clipPath id="clip-2">
<path clip-rule="nonzero" d="M 23 1 L 28 1 L 28 9.191406 L 23 9.191406 Z M 23 1 "/>
</clipPath>
</defs>
<g clip-path="url(#clip-0)">
<path fill="none" stroke-width="0.3985" stroke-linecap="butt" stroke-linejoin="miter" stroke="rgb(0%, 0%, 0%)" stroke-opacity="1" stroke-miterlimit="10" d="M -0.00171875 -0.00125 L 21.400625 -0.00125 M 35.29125 -0.00125 L 56.693594 -0.00125 " transform="matrix(1, 0, 0, -1, -0.135, 8.03)"/>
</g>
<g clip-path="url(#clip-1)">
<path fill="none" stroke-width="0.797" stroke-linecap="butt" stroke-linejoin="miter" stroke="rgb(0%, 0%, 0%)" stroke-opacity="1" stroke-miterlimit="10" d="M 21.400625 -0.00125 L 34.595938 6.944063 " transform="matrix(1, 0, 0, -1, -0.135, 8.03)"/>
</g>
<path fill="none" stroke-width="0.3985" stroke-linecap="butt" stroke-linejoin="miter" stroke="rgb(0%, 0%, 0%)" stroke-opacity="1" stroke-miterlimit="10" d="M 35.29125 -0.00125 L 29.736563 -0.00125 L 29.736563 2.776094 " transform="matrix(1, 0, 0, -1, -0.135, 8.03)"/>
<g clip-path="url(#clip-2)">
<path fill="none" stroke-width="0.797" stroke-linecap="butt" stroke-linejoin="bevel" stroke="rgb(0%, 0%, 0%)" stroke-opacity="1" stroke-miterlimit="10" d="M 27.556875 -1.087187 C 27.943594 1.112031 27.131094 3.354219 25.420156 4.787813 C 24.955313 5.178438 24.443594 5.490938 23.896719 5.729219 " transform="matrix(1, 0, 0, -1, -0.135, 8.03)"/>
</g>
<path fill-rule="nonzero" fill="rgb(0%, 0%, 0%)" fill-opacity="1" d="M 20.722656 1.804688 C 21.867188 2.464844 23.90625 3.703125 25.003906 5.304688 C 24.234375 3.539062 24.566406 2.558594 26.25 1.625 C 24.40625 2.230469 22.03125 1.972656 20.722656 1.804688 Z M 20.722656 1.804688 "/>
</svg>
