<?xml version="1.0" encoding="UTF-8"?>
<svg xmlns="http://www.w3.org/2000/svg" xmlns:xlink="http://www.w3.org/1999/xlink" width="29.322pt" height="106.264pt" viewBox="0 0 29.322 106.264">
<defs>
<clipPath id="clip-0">
<path clip-rule="nonzero" d="M 24 0 L 28.984375 0 L 28.984375 4 L 24 4 Z M 24 0 "/>
</clipPath>
<clipPath id="clip-1">
<path clip-rule="nonzero" d="M 13 10 L 28.984375 10 L 28.984375 27 L 13 27 Z M 13 10 "/>
</clipPath>
<clipPath id="clip-2">
<path clip-rule="nonzero" d="M 13 20 L 28.984375 20 L 28.984375 37 L 13 37 Z M 13 20 "/>
</clipPath>
<clipPath id="clip-3">
<path clip-rule="nonzero" d="M 19 40 L 28.984375 40 L 28.984375 45 L 19 45 Z M 19 40 "/>
</clipPath>
<clipPath id="clip-4">
<path clip-rule="nonzero" d="M 13 34 L 28.984375 34 L 28.984375 51 L 13 51 Z M 13 34 "/>
</clipPath>
<clipPath id="clip-5">
<path clip-rule="nonzero" d="M 19 50 L 28.984375 50 L 28.984375 59 L 19 59 Z M 19 50 "/>
</clipPath>
<clipPath id="clip-6">
<path clip-rule="nonzero" d="M 13 44 L 28.984375 44 L 28.984375 65 L 13 65 Z M 13 44 "/>
</clipPath>
<clipPath id="clip-7">
<path clip-rule="nonzero" d="M 18 64 L 28.984375 64 L 28.984375 74 L 18 74 Z M 18 64 "/>
</clipPath>
<clipPath id="clip-8">
<path clip-rule="nonzero" d="M 19 82 L 28.984375 82 L 28.984375 88 L 19 88 Z M 19 82 "/>
</clipPath>
<clipPath id="clip-9">
<path clip-rule="nonzero" d="M 13 77 L 28.984375 77 L 28.984375 93 L 13 93 Z M 13 77 "/>
</clipPath>
<clipPath id="clip-10">
<path clip-rule="nonzero" d="M 0 91 L 16 91 L 16 105.894531 L 0 105.894531 Z M 0 91 "/>
</clipPath>
<clipPath id="clip-11">
<path clip-rule="nonzero" d="M 13 95 L 28.984375 95 L 28.984375 105.894531 L 13 105.894531 Z M 13 95 "/>
</clipPath>
</defs>
<path fill="none" stroke-width="0.3985" stroke-linecap="butt" stroke-linejoin="miter" stroke="rgb(0%, 0%, 0%)" stroke-opacity="1" stroke-miterlimit="10" d="M -0.0005625 -0.000625 L 25.956469 -0.000625 " transform="matrix(1, 0, 0, -1, 0.149, 2.14)"/>
<g clip-path="url(#clip-0)">
<path fill-rule="nonzero" fill="rgb(0%, 0%, 0%)" fill-opacity="1" d="M 28.496094 2.140625 C 27.5 1.941406 25.707031 1.542969 24.511719 0.644531 C 25.507812 1.742188 25.507812 2.539062 24.511719 3.632812 C 25.707031 2.738281 27.5 2.339844 28.496094 2.140625 Z M 28.496094 2.140625 "/>
</g>
<path fill="none" stroke-width="0.3985" stroke-linecap="butt" stroke-linejoin="miter" stroke="rgb(0%, 0%, 0%)" stroke-opacity="1" stroke-miterlimit="10" d="M -0.0005625 -14.1725 L 18.991625 -14.1725 " transform="matrix(1, 0, 0, -1, 0.149, 2.14)"/>
<g clip-path="url(#clip-1)">
<path fill="none" stroke-width="0.3985" stroke-linecap="butt" stroke-linejoin="miter" stroke="rgb(0%, 0%, 0%)" stroke-opacity="1" stroke-miterlimit="10" d="M -5.103115 -0.00089 L -4.251553 -0.00089 L -0.0015525 4.253016 L 4.252354 -0.00089 " transform="matrix(1, 0, 0, 1, 24.24374, 16.31339)"/>
</g>
<path fill="none" stroke-width="0.3985" stroke-linecap="butt" stroke-linejoin="miter" stroke="rgb(0%, 0%, 0%)" stroke-opacity="1" stroke-miterlimit="10" d="M -0.0005625 -28.348281 L 18.991625 -28.348281 " transform="matrix(1, 0, 0, -1, 0.149, 2.14)"/>
<g clip-path="url(#clip-2)">
<path fill="none" stroke-width="0.3985" stroke-linecap="butt" stroke-linejoin="miter" stroke="rgb(0%, 0%, 0%)" stroke-opacity="1" stroke-miterlimit="10" d="M -5.103115 -0.00149125 L -4.251553 -0.00149125 L -0.0015525 4.252415 L 4.252354 -0.00149125 " transform="matrix(1, 0, 0, -1, 24.24374, 30.48679)"/>
</g>
<path fill="none" stroke-width="0.3985" stroke-linecap="butt" stroke-linejoin="miter" stroke="rgb(0%, 0%, 0%)" stroke-opacity="1" stroke-miterlimit="10" d="M -0.0005625 -42.520156 L 18.991625 -42.520156 " transform="matrix(1, 0, 0, -1, 0.149, 2.14)"/>
<g clip-path="url(#clip-3)">
<path fill-rule="nonzero" fill="rgb(0%, 67.83905%, 93.728638%)" fill-opacity="1" d="M 19.140625 44.660156 L 19.992188 44.660156 L 24.242188 40.410156 L 28.496094 44.660156 Z M 19.140625 44.660156 "/>
</g>
<g clip-path="url(#clip-4)">
<path fill="none" stroke-width="0.3985" stroke-linecap="butt" stroke-linejoin="miter" stroke="rgb(0%, 0%, 0%)" stroke-opacity="1" stroke-miterlimit="10" d="M -5.103115 0.00003375 L -4.251553 0.00003375 L -0.0015525 4.250034 L 4.252354 0.00003375 Z M -5.103115 0.00003375 " transform="matrix(1, 0, 0, -1, 24.24374, 44.66019)"/>
</g>
<path fill="none" stroke-width="0.3985" stroke-linecap="butt" stroke-linejoin="miter" stroke="rgb(0%, 0%, 0%)" stroke-opacity="1" stroke-miterlimit="10" d="M -0.0005625 -56.692031 L 18.991625 -56.692031 " transform="matrix(1, 0, 0, -1, 0.149, 2.14)"/>
<g clip-path="url(#clip-5)">
<path fill-rule="nonzero" fill="rgb(0%, 0%, 0%)" fill-opacity="1" d="M 19.140625 58.832031 L 19.992188 58.832031 L 24.242188 50.328125 L 28.496094 58.832031 Z M 19.140625 58.832031 "/>
</g>
<g clip-path="url(#clip-6)">
<path fill="none" stroke-width="0.3985" stroke-linecap="butt" stroke-linejoin="miter" stroke="rgb(0%, 0%, 0%)" stroke-opacity="1" stroke-miterlimit="10" d="M -5.103115 0.00155875 L -4.251553 0.00155875 L -0.0015525 8.505465 L 4.252354 0.00155875 Z M -5.103115 0.00155875 " transform="matrix(1, 0, 0, -1, 24.24374, 58.83359)"/>
</g>
<path fill="none" stroke-width="0.79701" stroke-linecap="butt" stroke-linejoin="miter" stroke="rgb(0%, 0%, 0%)" stroke-opacity="1" stroke-miterlimit="10" d="M -0.0005625 -70.867813 L 18.991625 -70.867813 " transform="matrix(1, 0, 0, -1, 0.149, 2.14)"/>
<g clip-path="url(#clip-7)">
<path fill="none" stroke-width="0.79701" stroke-linecap="round" stroke-linejoin="round" stroke="rgb(0%, 0%, 0%)" stroke-opacity="1" stroke-miterlimit="10" d="M -5.103115 -0.0008425 L -4.251553 -0.0008425 L -0.0015525 8.503064 L 4.252354 -0.0008425 " transform="matrix(1, 0, 0, -1, 24.24374, 73.00697)"/>
</g>
<path fill="none" stroke-width="0.3985" stroke-linecap="butt" stroke-linejoin="miter" stroke="rgb(0%, 0%, 0%)" stroke-opacity="1" stroke-miterlimit="10" d="M 9.354906 -85.039688 L 18.991625 -85.039688 " transform="matrix(1, 0, 0, -1, 0.149, 2.14)"/>
<path fill="none" stroke-width="0.3985" stroke-linecap="butt" stroke-linejoin="miter" stroke="rgb(0%, 0%, 0%)" stroke-opacity="1" stroke-miterlimit="10" d="M -5.102866 -0.0006825 L -4.251304 -0.0006825 L -0.00130375 4.253224 L 4.252603 -0.0006825 " transform="matrix(-1, 0, 0, 1, 4.40104, 87.18037)"/>
<g clip-path="url(#clip-8)">
<path fill-rule="nonzero" fill="rgb(0%, 0%, 0%)" fill-opacity="1" d="M 19.140625 87.179688 L 19.992188 87.179688 L 24.242188 82.929688 L 28.496094 87.179688 Z M 19.140625 87.179688 "/>
</g>
<g clip-path="url(#clip-9)">
<path fill="none" stroke-width="0.3985" stroke-linecap="butt" stroke-linejoin="miter" stroke="rgb(0%, 0%, 0%)" stroke-opacity="1" stroke-miterlimit="10" d="M -5.103115 0.0006825 L -4.251553 0.0006825 L -0.0015525 4.250682 L 4.252354 0.0006825 Z M -5.103115 0.0006825 " transform="matrix(1, 0, 0, -1, 24.24374, 87.18037)"/>
</g>
<path fill="none" stroke-width="0.3985" stroke-linecap="butt" stroke-linejoin="miter" stroke="rgb(0%, 0%, 0%)" stroke-opacity="1" stroke-miterlimit="10" d="M 9.354906 -99.215469 L 18.991625 -99.215469 " transform="matrix(1, 0, 0, -1, 0.149, 2.14)"/>
<path fill-rule="nonzero" fill="rgb(0%, 0%, 0%)" fill-opacity="1" d="M 9.503906 101.355469 L 8.652344 101.355469 L 4.402344 97.101562 L 0.148438 101.355469 Z M 9.503906 101.355469 "/>
<g clip-path="url(#clip-10)">
<path fill="none" stroke-width="0.3985" stroke-linecap="butt" stroke-linejoin="miter" stroke="rgb(0%, 0%, 0%)" stroke-opacity="1" stroke-miterlimit="10" d="M -5.102866 -0.00168875 L -4.251304 -0.00168875 L -0.00130375 4.252217 L 4.252603 -0.00168875 Z M -5.102866 -0.00168875 " transform="matrix(-1, 0, 0, -1, 4.40104, 101.35378)"/>
</g>
<g clip-path="url(#clip-11)">
<path fill="none" stroke-width="0.3985" stroke-linecap="butt" stroke-linejoin="miter" stroke="rgb(0%, 0%, 0%)" stroke-opacity="1" stroke-miterlimit="10" d="M -5.103115 0.00168875 L -4.251553 0.00168875 L -0.0015525 4.251689 L 4.252354 0.00168875 " transform="matrix(1, 0, 0, 1, 24.24374, 101.35378)"/>
</g>
</svg>
