<?xml version="1.0" encoding="UTF-8"?>
<svg xmlns="http://www.w3.org/2000/svg" xmlns:xlink="http://www.w3.org/1999/xlink" width="92.995pt" height="64.072pt" viewBox="0 0 92.995 64.072">
<defs>
<clipPath id="clip-0">
<path clip-rule="nonzero" d="M 36 16 L 92.992188 16 L 92.992188 18 L 36 18 Z M 36 16 "/>
</clipPath>
<clipPath id="clip-1">
<path clip-rule="nonzero" d="M 32 20 L 33 20 L 33 63.609375 L 32 63.609375 Z M 32 20 "/>
</clipPath>
</defs>
<path fill="none" stroke-width="0.3985" stroke-linecap="butt" stroke-linejoin="bevel" stroke="rgb(0%, 0%, 0%)" stroke-opacity="1" stroke-miterlimit="10" d="M 24.377062 28.347438 L 26.759875 28.347438 C 26.759875 29.222438 27.470812 29.933375 28.345812 29.933375 C 29.224719 29.933375 29.935656 29.222438 29.935656 28.347438 L 32.314562 28.347438 " transform="matrix(1, 0, 0, -1, 3.9745, 45.449)"/>
<path fill="none" stroke-width="0.3985" stroke-linecap="butt" stroke-linejoin="bevel" stroke="rgb(0%, 0%, 0%)" stroke-opacity="1" stroke-miterlimit="10" d="M 28.345812 32.316188 L 28.345812 30.331813 M 28.345812 29.538844 L 28.345812 24.378688 " transform="matrix(1, 0, 0, -1, 3.9745, 45.449)"/>
<path fill="none" stroke-width="0.3985" stroke-linecap="butt" stroke-linejoin="miter" stroke="rgb(0%, 0%, 0%)" stroke-opacity="1" stroke-miterlimit="10" d="M 24.377062 28.347438 L -3.966688 28.347438 " transform="matrix(1, 0, 0, -1, 3.9745, 45.449)"/>
<g clip-path="url(#clip-0)">
<path fill="none" stroke-width="0.3985" stroke-linecap="butt" stroke-linejoin="miter" stroke="rgb(0%, 0%, 0%)" stroke-opacity="1" stroke-miterlimit="10" d="M 32.314562 28.347438 L 44.787219 28.347438 M 76.537219 28.347438 L 89.009875 28.347438 " transform="matrix(1, 0, 0, -1, 3.9745, 45.449)"/>
</g>
<path fill="none" stroke-width="0.797" stroke-linecap="butt" stroke-linejoin="bevel" stroke="rgb(0%, 0%, 0%)" stroke-opacity="1" stroke-miterlimit="10" d="M 44.388781 28.347438 L 47.43175 34.300563 L 52.724719 22.394313 L 58.017687 34.300563 L 63.30675 22.394313 L 68.599719 34.300563 L 73.888781 22.394313 L 76.935656 28.347438 " transform="matrix(1, 0, 0, -1, 3.9745, 45.449)"/>
<path fill="none" stroke-width="0.797" stroke-linecap="butt" stroke-linejoin="miter" stroke="rgb(0%, 0%, 0%)" stroke-opacity="1" stroke-miterlimit="10" d="M 24.377062 38.663844 L 28.345812 44.222438 L 32.314562 38.663844 " transform="matrix(1, 0, 0, -1, 3.9745, 45.449)"/>
<path fill="none" stroke-width="0.3985" stroke-linecap="butt" stroke-linejoin="miter" stroke="rgb(0%, 0%, 0%)" stroke-opacity="1" stroke-miterlimit="10" d="M 28.345812 32.316188 L 28.345812 44.222438 " transform="matrix(1, 0, 0, -1, 3.9745, 45.449)"/>
<g clip-path="url(#clip-1)">
<path fill="none" stroke-width="0.3985" stroke-linecap="butt" stroke-linejoin="miter" stroke="rgb(0%, 0%, 0%)" stroke-opacity="1" stroke-miterlimit="10" d="M 28.345812 24.378688 L 28.345812 7.085719 M 28.345812 -0.851781 L 28.345812 -18.140844 " transform="matrix(1, 0, 0, -1, 3.9745, 45.449)"/>
</g>
<path fill="none" stroke-width="0.797" stroke-linecap="butt" stroke-linejoin="miter" stroke="rgb(0%, 0%, 0%)" stroke-opacity="1" stroke-miterlimit="10" d="M 40.252062 7.085719 L 16.439562 7.085719 M 40.252062 -0.851781 L 16.439562 -0.851781 " transform="matrix(1, 0, 0, -1, 3.9745, 45.449)"/>
</svg>
