<?xml version="1.0" encoding="UTF-8"?>
<svg xmlns="http://www.w3.org/2000/svg" xmlns:xlink="http://www.w3.org/1999/xlink" width="88.496pt" height="158.464pt" viewBox="0 0 88.496 158.464">
<defs>
<clipPath id="clip-0">
<path clip-rule="nonzero" d="M 65 67 L 88.242188 67 L 88.242188 92 L 65 92 Z M 65 67 "/>
</clipPath>
<clipPath id="clip-1">
<path clip-rule="nonzero" d="M 6 133 L 30 133 L 30 158.195312 L 6 158.195312 Z M 6 133 "/>
</clipPath>
<clipPath id="clip-2">
<path clip-rule="nonzero" d="M 62 133 L 87 133 L 87 158.195312 L 62 158.195312 Z M 62 133 "/>
</clipPath>
</defs>
<path fill="none" stroke-width="0.3985" stroke-linecap="butt" stroke-linejoin="miter" stroke="rgb(0%, 0%, 0%)" stroke-opacity="1" stroke-miterlimit="10" d="M 0.00153125 135.413 L 0.00153125 122.116125 L -11.904719 116.663 " transform="matrix(1, 0, 0, -1, 23.768, 136.163)"/>
<path fill="none" stroke-width="0.797" stroke-linecap="butt" stroke-linejoin="miter" stroke="rgb(0%, 0%, 0%)" stroke-opacity="1" stroke-miterlimit="10" d="M -11.904719 122.116125 L -11.904719 104.655187 " transform="matrix(1, 0, 0, -1, 23.768, 136.163)"/>
<path fill="none" stroke-width="0.3985" stroke-linecap="butt" stroke-linejoin="miter" stroke="rgb(0%, 0%, 0%)" stroke-opacity="1" stroke-miterlimit="10" d="M -11.904719 110.112219 L 0.00153125 104.655187 L 0.00153125 91.362219 " transform="matrix(1, 0, 0, -1, 23.768, 136.163)"/>
<path fill-rule="nonzero" fill="rgb(0%, 0%, 0%)" fill-opacity="1" d="M 16.054688 27.972656 L 17.007812 25.894531 L 20.703125 30.101562 L 15.101562 30.050781 Z M 16.054688 27.972656 "/>
<path fill="none" stroke-width="0.3985" stroke-linecap="butt" stroke-linejoin="miter" stroke="rgb(0%, 0%, 0%)" stroke-opacity="1" stroke-miterlimit="10" d="M -11.904719 113.385656 L -24.010187 113.385656 " transform="matrix(1, 0, 0, -1, 23.768, 136.163)"/>
<path fill="none" stroke-width="0.3985" stroke-linecap="butt" stroke-linejoin="miter" stroke="rgb(0%, 0%, 0%)" stroke-opacity="1" stroke-miterlimit="10" d="M 56.692938 135.413 L 56.692938 122.116125 L 44.786688 116.663 " transform="matrix(1, 0, 0, -1, 23.768, 136.163)"/>
<path fill="none" stroke-width="0.797" stroke-linecap="butt" stroke-linejoin="miter" stroke="rgb(0%, 0%, 0%)" stroke-opacity="1" stroke-miterlimit="10" d="M 44.786688 122.116125 L 44.786688 104.655187 M 44.786688 122.116125 L 44.786688 124.1005 L 46.771063 124.1005 L 46.771063 122.116125 M 44.786688 104.655187 L 44.786688 102.670812 L 42.802313 102.670812 L 42.802313 104.655187 " transform="matrix(1, 0, 0, -1, 23.768, 136.163)"/>
<path fill="none" stroke-width="0.3985" stroke-linecap="butt" stroke-linejoin="miter" stroke="rgb(0%, 0%, 0%)" stroke-opacity="1" stroke-miterlimit="10" d="M 44.786688 110.112219 L 56.692938 104.655187 L 56.692938 91.362219 " transform="matrix(1, 0, 0, -1, 23.768, 136.163)"/>
<path fill-rule="nonzero" fill="rgb(0%, 0%, 0%)" fill-opacity="1" d="M 72.75 27.972656 L 73.703125 25.894531 L 77.394531 30.101562 L 71.796875 30.050781 Z M 72.75 27.972656 "/>
<path fill="none" stroke-width="0.3985" stroke-linecap="butt" stroke-linejoin="miter" stroke="rgb(0%, 0%, 0%)" stroke-opacity="1" stroke-miterlimit="10" d="M 44.786688 113.385656 L 32.681219 113.385656 " transform="matrix(1, 0, 0, -1, 23.768, 136.163)"/>
<path fill="none" stroke-width="0.3985" stroke-linecap="round" stroke-linejoin="miter" stroke="rgb(0%, 0%, 0%)" stroke-opacity="1" stroke-miterlimit="10" d="M 0.368719 62.647375 L 12.274969 62.647375 L 17.235906 50.741125 " transform="matrix(1, 0, 0, -1, 23.768, 136.163)"/>
<path fill="none" stroke-width="0.3985" stroke-linecap="round" stroke-linejoin="miter" stroke="rgb(0%, 0%, 0%)" stroke-opacity="1" stroke-miterlimit="10" d="M 20.212469 62.647375 L 25.173406 50.741125 " transform="matrix(1, 0, 0, -1, 23.768, 136.163)"/>
<path fill="none" stroke-width="0.797" stroke-linecap="round" stroke-linejoin="miter" stroke="rgb(0%, 0%, 0%)" stroke-opacity="1" stroke-miterlimit="10" d="M 11.677313 50.741125 L 52.95075 50.741125 M 11.677313 50.741125 L 9.692938 50.741125 L 9.692938 52.7255 L 11.677313 52.7255 M 52.95075 50.741125 L 54.935125 50.741125 L 54.935125 48.75675 L 52.95075 48.75675 " transform="matrix(1, 0, 0, -1, 23.768, 136.163)"/>
<path fill="none" stroke-width="0.3985" stroke-linecap="butt" stroke-linejoin="miter" stroke="rgb(0%, 0%, 0%)" stroke-opacity="1" stroke-miterlimit="10" d="M 28.345281 50.741125 L 28.345281 38.834875 " transform="matrix(1, 0, 0, -1, 23.768, 136.163)"/>
<g clip-path="url(#clip-0)">
<path fill="none" stroke-width="0.3985" stroke-linecap="round" stroke-linejoin="miter" stroke="rgb(0%, 0%, 0%)" stroke-opacity="1" stroke-miterlimit="10" d="M 47.396063 50.741125 L 52.357 62.647375 L 64.26325 62.647375 " transform="matrix(1, 0, 0, -1, 23.768, 136.163)"/>
</g>
<path fill-rule="nonzero" fill="rgb(0%, 0%, 0%)" fill-opacity="1" d="M 72.898438 81.253906 L 70.789062 80.375 L 74.867188 76.539062 L 75.011719 82.136719 Z M 72.898438 81.253906 "/>
<path fill="none" stroke-width="0.3985" stroke-linecap="round" stroke-linejoin="miter" stroke="rgb(0%, 0%, 0%)" stroke-opacity="1" stroke-miterlimit="10" d="M 39.458563 50.741125 L 44.4195 62.647375 " transform="matrix(1, 0, 0, -1, 23.768, 136.163)"/>
<path fill-rule="nonzero" fill="rgb(0%, 0%, 0%)" fill-opacity="1" d="M 64.960938 81.253906 L 62.851562 80.375 L 66.929688 76.539062 L 67.074219 82.136719 Z M 64.960938 81.253906 "/>
<path fill="none" stroke-width="0.3985" stroke-linecap="round" stroke-linejoin="miter" stroke="rgb(0%, 0%, 0%)" stroke-opacity="1" stroke-miterlimit="10" d="M 31.521063 50.741125 L 36.482 62.647375 " transform="matrix(1, 0, 0, -1, 23.768, 136.163)"/>
<path fill-rule="nonzero" fill="rgb(0%, 0%, 0%)" fill-opacity="1" d="M 57.027344 81.253906 L 54.914062 80.375 L 58.992188 76.539062 L 59.136719 82.136719 Z M 57.027344 81.253906 "/>
<path fill="none" stroke-width="0.3985" stroke-linecap="butt" stroke-linejoin="miter" stroke="rgb(0%, 0%, 0%)" stroke-opacity="1" stroke-miterlimit="10" d="M 0.00153125 22.026281 L 0.00153125 8.729406 L -11.904719 3.272375 " transform="matrix(1, 0, 0, -1, 23.768, 136.163)"/>
<path fill="none" stroke-width="0.797" stroke-linecap="butt" stroke-linejoin="miter" stroke="rgb(0%, 0%, 0%)" stroke-opacity="1" stroke-miterlimit="10" d="M -11.904719 8.729406 L -11.904719 -8.731531 M -11.904719 8.729406 L -11.904719 12.698156 L -7.935969 12.698156 L -7.935969 8.729406 M -11.904719 -8.731531 L -11.904719 -12.700281 L -15.873469 -12.700281 L -15.873469 -8.731531 " transform="matrix(1, 0, 0, -1, 23.768, 136.163)"/>
<g clip-path="url(#clip-1)">
<path fill="none" stroke-width="0.3985" stroke-linecap="butt" stroke-linejoin="miter" stroke="rgb(0%, 0%, 0%)" stroke-opacity="1" stroke-miterlimit="10" d="M -11.904719 -3.2745 L 0.00153125 -8.731531 L 0.00153125 -22.0245 " transform="matrix(1, 0, 0, -1, 23.768, 136.163)"/>
</g>
<path fill-rule="nonzero" fill="rgb(0%, 0%, 0%)" fill-opacity="1" d="M 19.574219 129.355469 L 20.527344 131.433594 L 14.929688 131.484375 L 18.621094 127.277344 Z M 19.574219 129.355469 "/>
<path fill="none" stroke-width="0.3985" stroke-linecap="butt" stroke-linejoin="miter" stroke="rgb(0%, 0%, 0%)" stroke-opacity="1" stroke-miterlimit="10" d="M -11.904719 -0.0010625 L -24.010187 -0.0010625 " transform="matrix(1, 0, 0, -1, 23.768, 136.163)"/>
<path fill="none" stroke-width="0.3985" stroke-linecap="butt" stroke-linejoin="miter" stroke="rgb(0%, 0%, 0%)" stroke-opacity="1" stroke-miterlimit="10" d="M 56.692938 22.026281 L 56.692938 8.729406 L 44.786688 3.272375 " transform="matrix(1, 0, 0, -1, 23.768, 136.163)"/>
<path fill="none" stroke-width="0.797" stroke-linecap="butt" stroke-linejoin="miter" stroke="rgb(0%, 0%, 0%)" stroke-opacity="1" stroke-miterlimit="10" d="M 44.786688 8.729406 L 44.786688 -8.731531 " transform="matrix(1, 0, 0, -1, 23.768, 136.163)"/>
<g clip-path="url(#clip-2)">
<path fill="none" stroke-width="0.3985" stroke-linecap="butt" stroke-linejoin="miter" stroke="rgb(0%, 0%, 0%)" stroke-opacity="1" stroke-miterlimit="10" d="M 44.786688 -3.2745 L 56.692938 -8.731531 L 56.692938 -22.0245 " transform="matrix(1, 0, 0, -1, 23.768, 136.163)"/>
</g>
<path fill-rule="nonzero" fill="rgb(0%, 0%, 0%)" fill-opacity="1" d="M 72.75 141.359375 L 73.703125 139.28125 L 77.394531 143.488281 L 71.796875 143.4375 Z M 72.75 141.359375 "/>
<path fill="none" stroke-width="0.3985" stroke-linecap="butt" stroke-linejoin="miter" stroke="rgb(0%, 0%, 0%)" stroke-opacity="1" stroke-miterlimit="10" d="M 44.786688 -0.0010625 L 32.681219 -0.0010625 " transform="matrix(1, 0, 0, -1, 23.768, 136.163)"/>
</svg>
