<?xml version="1.0" encoding="UTF-8"?>
<svg xmlns="http://www.w3.org/2000/svg" xmlns:xlink="http://www.w3.org/1999/xlink" width="80.136pt" height="70.768pt" viewBox="0 0 80.136 70.768">
<defs>
<clipPath id="clip-0">
<path clip-rule="nonzero" d="M 0 10 L 40 10 L 40 70.652344 L 0 70.652344 Z M 0 10 "/>
</clipPath>
<clipPath id="clip-1">
<path clip-rule="nonzero" d="M 48 0 L 79.703125 0 L 79.703125 47 L 48 47 Z M 48 0 "/>
</clipPath>
</defs>
<g clip-path="url(#clip-0)">
<path fill="none" stroke-width="0.3985" stroke-linecap="butt" stroke-linejoin="miter" stroke="rgb(0%, 0%, 0%)" stroke-opacity="1" stroke-miterlimit="10" d="M -0.001375 0.00059375 L 39.686125 0.00059375 M 39.486906 0.00059375 L 39.486906 59.527938 " transform="matrix(1, 0, 0, -1, -0.233, 70.442)"/>
</g>
<path fill="none" stroke-width="0.797" stroke-linecap="butt" stroke-linejoin="miter" stroke="rgb(0%, 0%, 0%)" stroke-opacity="1" stroke-miterlimit="10" d="M 39.486906 59.527938 L 49.408781 59.527938 L 39.486906 39.684188 L 29.565031 59.527938 L 39.486906 59.527938 " transform="matrix(1, 0, 0, -1, -0.233, 70.442)"/>
<g clip-path="url(#clip-1)">
<path fill="none" stroke-width="0.3985" stroke-linecap="butt" stroke-linejoin="miter" stroke="rgb(0%, 0%, 0%)" stroke-opacity="1" stroke-miterlimit="10" d="M 54.568938 59.527938 C 58.111906 53.391219 58.111906 45.824813 54.568938 39.684188 M 59.529875 62.008406 C 63.959563 54.336531 63.959563 44.8795 59.529875 37.203719 M 64.486906 64.488875 C 69.803313 55.281844 69.803313 43.934188 64.486906 34.72325 M 69.447844 66.969344 C 75.650969 56.227156 75.650969 42.988875 69.447844 32.242781 M 74.408781 69.449813 C 81.498625 57.172469 81.498625 42.039656 74.408781 29.762313 " transform="matrix(1, 0, 0, -1, -0.233, 70.442)"/>
</g>
</svg>
