<?xml version="1.0" encoding="UTF-8"?>
<svg xmlns="http://www.w3.org/2000/svg" xmlns:xlink="http://www.w3.org/1999/xlink" width="56.712pt" height="13.726pt" viewBox="0 0 56.712 13.726">
<defs>
<clipPath id="clip-0">
<path clip-rule="nonzero" d="M 0 7 L 56.566406 7 L 56.566406 8 L 0 8 Z M 0 7 "/>
</clipPath>
<clipPath id="clip-1">
<path clip-rule="nonzero" d="M 16 1 L 41 1 L 41 13.589844 L 16 13.589844 Z M 16 1 "/>
</clipPath>
<clipPath id="clip-2">
<path clip-rule="nonzero" d="M 5 0 L 52 0 L 52 13.589844 L 5 13.589844 Z M 5 0 "/>
</clipPath>
</defs>
<g clip-path="url(#clip-0)">
<path fill="none" stroke-width="0.3985" stroke-linecap="butt" stroke-linejoin="miter" stroke="rgb(0%, 0%, 0%)" stroke-opacity="1" stroke-miterlimit="10" d="M -0.00171875 0.00053125 L 16.439688 0.00053125 M 40.252188 0.00053125 L 56.693594 0.00053125 " transform="matrix(1, 0, 0, -1, -0.135, 7.231)"/>
</g>
<g clip-path="url(#clip-1)">
<path fill-rule="nonzero" fill="rgb(70.001221%, 90.351868%, 98.118591%)" fill-opacity="1" d="M 28.210938 1.277344 C 21.636719 1.277344 16.304688 3.941406 16.304688 7.230469 C 16.304688 10.519531 21.636719 13.183594 28.210938 13.183594 C 34.789062 13.183594 40.117188 10.519531 40.117188 7.230469 C 40.117188 3.941406 34.789062 1.277344 28.210938 1.277344 Z M 28.210938 1.277344 "/>
</g>
<g clip-path="url(#clip-2)">
<path fill="none" stroke-width="0.797" stroke-linecap="butt" stroke-linejoin="miter" stroke="rgb(0%, 0%, 0%)" stroke-opacity="1" stroke-miterlimit="10" d="M 28.345938 5.953656 C 21.771719 5.953656 16.439688 3.289594 16.439688 0.00053125 C 16.439688 -3.288531 21.771719 -5.952594 28.345938 -5.952594 C 34.924063 -5.952594 40.252188 -3.288531 40.252188 0.00053125 C 40.252188 3.289594 34.924063 5.953656 28.345938 5.953656 Z M 28.345938 5.953656 " transform="matrix(1, 0, 0, -1, -0.135, 7.231)"/>
</g>
</svg>
