<?xml version="1.0" encoding="UTF-8"?>
<svg xmlns="http://www.w3.org/2000/svg" xmlns:xlink="http://www.w3.org/1999/xlink" width="56.712pt" height="31.582pt" viewBox="0 0 56.712 31.582">
<defs>
<clipPath id="clip-0">
<path clip-rule="nonzero" d="M 0 24 L 56.566406 24 L 56.566406 26 L 0 26 Z M 0 24 "/>
</clipPath>
<clipPath id="clip-1">
<path clip-rule="nonzero" d="M 9 0 L 48 0 L 48 31.371094 L 9 31.371094 Z M 9 0 "/>
</clipPath>
</defs>
<g clip-path="url(#clip-0)">
<path fill="none" stroke-width="0.3985" stroke-linecap="butt" stroke-linejoin="miter" stroke="rgb(0%, 0%, 0%)" stroke-opacity="1" stroke-miterlimit="10" d="M -0.00171875 -0.00153125 L 20.408438 -0.00153125 M 36.283438 -0.00153125 L 56.693594 -0.00153125 " transform="matrix(1, 0, 0, -1, -0.135, 25.018)"/>
</g>
<path fill-rule="nonzero" fill="rgb(70.001221%, 90.351868%, 98.118591%)" fill-opacity="1" d="M 20.273438 8.351562 L 36.148438 8.351562 L 36.148438 30.972656 L 20.273438 30.972656 Z M 24.242188 8.351562 L 21.863281 1.207031 L 34.5625 1.207031 L 32.179688 8.351562 Z M 24.242188 8.351562 "/>
<g clip-path="url(#clip-1)">
<path fill="none" stroke-width="0.797" stroke-linecap="butt" stroke-linejoin="miter" stroke="rgb(0%, 0%, 0%)" stroke-opacity="1" stroke-miterlimit="10" d="M 20.408438 16.666437 L 36.283438 16.666437 L 36.283438 -5.954656 L 20.408438 -5.954656 Z M 24.377188 16.666437 L 21.998281 23.810969 L 34.6975 23.810969 L 32.314688 16.666437 Z M 24.377188 16.666437 " transform="matrix(1, 0, 0, -1, -0.135, 25.018)"/>
</g>
</svg>
