<?xml version="1.0" encoding="UTF-8"?>
<svg xmlns="http://www.w3.org/2000/svg" xmlns:xlink="http://www.w3.org/1999/xlink" width="241.592pt" height="62.002pt" viewBox="0 0 241.592 62.002">
<defs>
<clipPath id="clip-0">
<path clip-rule="nonzero" d="M 0 0 L 91 0 L 91 61.503906 L 0 61.503906 Z M 0 0 "/>
</clipPath>
<clipPath id="clip-1">
<path clip-rule="nonzero" d="M 12 47 L 27 47 L 27 61.503906 L 12 61.503906 Z M 12 47 "/>
</clipPath>
<clipPath id="clip-2">
<path clip-rule="nonzero" d="M 24 50 L 39 50 L 39 61.503906 L 24 61.503906 Z M 24 50 "/>
</clipPath>
<clipPath id="clip-3">
<path clip-rule="nonzero" d="M 69 0 L 180 0 L 180 61.503906 L 69 61.503906 Z M 69 0 "/>
</clipPath>
<clipPath id="clip-4">
<path clip-rule="nonzero" d="M 117 47 L 133 47 L 133 61.503906 L 117 61.503906 Z M 117 47 "/>
</clipPath>
<clipPath id="clip-5">
<path clip-rule="nonzero" d="M 122 0 L 232 0 L 232 61.503906 L 122 61.503906 Z M 122 0 "/>
</clipPath>
<clipPath id="clip-6">
<path clip-rule="nonzero" d="M 159 50 L 175 50 L 175 61.503906 L 159 61.503906 Z M 159 50 "/>
</clipPath>
<clipPath id="clip-7">
<path clip-rule="nonzero" d="M 175 0 L 241.386719 0 L 241.386719 61.503906 L 175 61.503906 Z M 175 0 "/>
</clipPath>
<clipPath id="clip-8">
<path clip-rule="nonzero" d="M 218 16 L 241.386719 16 L 241.386719 51 L 218 51 Z M 218 16 "/>
</clipPath>
<clipPath id="clip-9">
<path clip-rule="nonzero" d="M 222 47 L 237 47 L 237 61.503906 L 222 61.503906 Z M 222 47 "/>
</clipPath>
<clipPath id="clip-10">
<path clip-rule="nonzero" d="M 238 35 L 241.386719 35 L 241.386719 39 L 238 39 Z M 238 35 "/>
</clipPath>
<clipPath id="clip-11">
<path clip-rule="nonzero" d="M 232 29 L 241.386719 29 L 241.386719 45 L 232 45 Z M 232 29 "/>
</clipPath>
<clipPath id="clip-12">
<path clip-rule="nonzero" d="M 104 27 L 183 27 L 183 61.503906 L 104 61.503906 Z M 104 27 "/>
</clipPath>
</defs>
<path fill="none" stroke-width="0.3985" stroke-linecap="butt" stroke-linejoin="miter" stroke="rgb(0%, 0%, 0%)" stroke-opacity="1" stroke-miterlimit="10" d="M -0.0003125 -0.00171875 L 28.347344 -0.00171875 " transform="matrix(1, 0, 0, -1, -0.195, 37.01)"/>
<g clip-path="url(#clip-0)">
<path fill="none" stroke-width="3.17429" stroke-linecap="round" stroke-linejoin="miter" stroke="rgb(0%, 0%, 0%)" stroke-opacity="1" stroke-miterlimit="10" d="M 29.933281 -0.00171875 L 45.706719 13.236563 " transform="matrix(1, 0, 0, -1, -0.195, 37.01)"/>
</g>
<path fill="none" stroke-width="0.797" stroke-linecap="butt" stroke-linejoin="miter" stroke="rgb(0%, 0%, 0%)" stroke-opacity="1" stroke-miterlimit="10" d="M 32.999688 9.830313 C 35.433281 9.068594 37.53875 7.420156 38.85125 5.146719 C 40.058281 3.052969 40.491875 0.595938 40.073906 -1.786875 " transform="matrix(1, 0, 0, -1, -0.195, 37.01)"/>
<path fill-rule="nonzero" fill="rgb(0%, 0%, 0%)" fill-opacity="1" d="M 29.738281 26.714844 C 30.929688 27.289062 33.058594 28.371094 34.269531 29.886719 C 33.371094 28.183594 33.628906 27.183594 35.238281 26.125 C 33.445312 26.867188 31.058594 26.785156 29.738281 26.714844 Z M 29.738281 26.714844 "/>
<path fill-rule="nonzero" fill="rgb(100%, 100%, 100%)" fill-opacity="1" d="M 21.03125 54.84375 C 21.03125 53.964844 20.320312 53.253906 19.445312 53.253906 C 18.566406 53.253906 17.855469 53.964844 17.855469 54.84375 C 17.855469 55.71875 18.566406 56.429688 19.445312 56.429688 C 20.320312 56.429688 21.03125 55.71875 21.03125 54.84375 Z M 21.03125 54.84375 "/>
<g clip-path="url(#clip-1)">
<path fill="none" stroke-width="0.3985" stroke-linecap="butt" stroke-linejoin="miter" stroke="rgb(0%, 0%, 0%)" stroke-opacity="1" stroke-miterlimit="10" d="M 21.22625 -17.83375 C 21.22625 -16.954844 20.515313 -16.243906 19.640313 -16.243906 C 18.761406 -16.243906 18.050469 -16.954844 18.050469 -17.83375 C 18.050469 -18.70875 18.761406 -19.419687 19.640313 -19.419687 C 20.515313 -19.419687 21.22625 -18.70875 21.22625 -17.83375 Z M 21.22625 -17.83375 " transform="matrix(1, 0, 0, -1, -0.195, 37.01)"/>
</g>
<path fill-rule="nonzero" fill="rgb(100%, 100%, 100%)" fill-opacity="1" d="M 32.863281 57.542969 C 32.863281 56.664062 32.152344 55.953125 31.277344 55.953125 C 30.402344 55.953125 29.691406 56.664062 29.691406 57.542969 C 29.691406 58.417969 30.402344 59.128906 31.277344 59.128906 C 32.152344 59.128906 32.863281 58.417969 32.863281 57.542969 Z M 32.863281 57.542969 "/>
<g clip-path="url(#clip-2)">
<path fill="none" stroke-width="0.3985" stroke-linecap="butt" stroke-linejoin="miter" stroke="rgb(0%, 0%, 0%)" stroke-opacity="1" stroke-miterlimit="10" d="M 33.058281 -20.532969 C 33.058281 -19.654062 32.347344 -18.943125 31.472344 -18.943125 C 30.597344 -18.943125 29.886406 -19.654062 29.886406 -20.532969 C 29.886406 -21.407969 30.597344 -22.118906 31.472344 -22.118906 C 32.347344 -22.118906 33.058281 -21.407969 33.058281 -20.532969 Z M 33.058281 -20.532969 " transform="matrix(1, 0, 0, -1, -0.195, 37.01)"/>
</g>
<path fill-rule="nonzero" fill="rgb(100%, 100%, 100%)" fill-opacity="1" stroke-width="0.3985" stroke-linecap="butt" stroke-linejoin="miter" stroke="rgb(0%, 0%, 0%)" stroke-opacity="1" stroke-miterlimit="10" d="M 44.359063 -16.099375 C 44.359063 -15.220469 43.648125 -14.509531 42.773125 -14.509531 C 41.894219 -14.509531 41.183281 -15.220469 41.183281 -16.099375 C 41.183281 -16.974375 41.894219 -17.685312 42.773125 -17.685312 C 43.648125 -17.685312 44.359063 -16.974375 44.359063 -16.099375 Z M 44.359063 -16.099375 " transform="matrix(1, 0, 0, -1, -0.195, 37.01)"/>
<path fill-rule="nonzero" fill="rgb(100%, 100%, 100%)" fill-opacity="1" stroke-width="0.3985" stroke-linecap="butt" stroke-linejoin="miter" stroke="rgb(0%, 0%, 0%)" stroke-opacity="1" stroke-miterlimit="10" d="M 51.195 -6.068125 C 51.195 -5.193125 50.484063 -4.482187 49.609063 -4.482187 C 48.734063 -4.482187 48.023125 -5.193125 48.023125 -6.068125 C 48.023125 -6.947031 48.734063 -7.657969 49.609063 -7.657969 C 50.484063 -7.657969 51.195 -6.947031 51.195 -6.068125 Z M 51.195 -6.068125 " transform="matrix(1, 0, 0, -1, -0.195, 37.01)"/>
<path fill-rule="nonzero" fill="rgb(100%, 100%, 100%)" fill-opacity="1" stroke-width="0.3985" stroke-linecap="butt" stroke-linejoin="miter" stroke="rgb(0%, 0%, 0%)" stroke-opacity="1" stroke-miterlimit="10" d="M 51.195 6.068594 C 51.195 6.943594 50.484063 7.654531 49.609063 7.654531 C 48.734063 7.654531 48.023125 6.943594 48.023125 6.068594 C 48.023125 5.193594 48.734063 4.482656 49.609063 4.482656 C 50.484063 4.482656 51.195 5.193594 51.195 6.068594 Z M 51.195 6.068594 " transform="matrix(1, 0, 0, -1, -0.195, 37.01)"/>
<path fill-rule="nonzero" fill="rgb(100%, 100%, 100%)" fill-opacity="1" stroke-width="0.3985" stroke-linecap="butt" stroke-linejoin="miter" stroke="rgb(0%, 0%, 0%)" stroke-opacity="1" stroke-miterlimit="10" d="M 44.359063 16.095938 C 44.359063 16.974844 43.648125 17.685781 42.773125 17.685781 C 41.894219 17.685781 41.183281 16.974844 41.183281 16.095938 C 41.183281 15.220938 41.894219 14.51 42.773125 14.51 C 43.648125 14.51 44.359063 15.220938 44.359063 16.095938 Z M 44.359063 16.095938 " transform="matrix(1, 0, 0, -1, -0.195, 37.01)"/>
<path fill-rule="nonzero" fill="rgb(100%, 100%, 100%)" fill-opacity="1" stroke-width="0.3985" stroke-linecap="butt" stroke-linejoin="miter" stroke="rgb(0%, 0%, 0%)" stroke-opacity="1" stroke-miterlimit="10" d="M 33.058281 20.533438 C 33.058281 21.408438 32.347344 22.119375 31.472344 22.119375 C 30.597344 22.119375 29.886406 21.408438 29.886406 20.533438 C 29.886406 19.654531 30.597344 18.943594 31.472344 18.943594 C 32.347344 18.943594 33.058281 19.654531 33.058281 20.533438 Z M 33.058281 20.533438 " transform="matrix(1, 0, 0, -1, -0.195, 37.01)"/>
<path fill-rule="nonzero" fill="rgb(100%, 100%, 100%)" fill-opacity="1" stroke-width="0.3985" stroke-linecap="butt" stroke-linejoin="miter" stroke="rgb(0%, 0%, 0%)" stroke-opacity="1" stroke-miterlimit="10" d="M 21.22625 17.830313 C 21.22625 18.709219 20.515313 19.420156 19.640313 19.420156 C 18.761406 19.420156 18.050469 18.709219 18.050469 17.830313 C 18.050469 16.955313 18.761406 16.244375 19.640313 16.244375 C 20.515313 16.244375 21.22625 16.955313 21.22625 17.830313 Z M 21.22625 17.830313 " transform="matrix(1, 0, 0, -1, -0.195, 37.01)"/>
<path fill-rule="nonzero" fill="rgb(100%, 100%, 100%)" fill-opacity="1" stroke-width="0.3985" stroke-linecap="butt" stroke-linejoin="miter" stroke="rgb(0%, 0%, 0%)" stroke-opacity="1" stroke-miterlimit="10" d="M 31.519219 -0.00171875 C 31.519219 0.877188 30.812188 1.588125 29.933281 1.588125 C 29.058281 1.588125 28.347344 0.877188 28.347344 -0.00171875 C 28.347344 -0.876719 29.058281 -1.587656 29.933281 -1.587656 C 30.812188 -1.587656 31.519219 -0.876719 31.519219 -0.00171875 Z M 31.519219 -0.00171875 " transform="matrix(1, 0, 0, -1, -0.195, 37.01)"/>
<path fill="none" stroke-width="0.3985" stroke-linecap="butt" stroke-linejoin="miter" stroke="rgb(0%, 0%, 0%)" stroke-opacity="1" stroke-miterlimit="10" d="M 85.03875 -0.00171875 L 113.386406 -0.00171875 " transform="matrix(1, 0, 0, -1, -0.195, 37.01)"/>
<g clip-path="url(#clip-3)">
<path fill="none" stroke-width="3.17429" stroke-linecap="round" stroke-linejoin="miter" stroke="rgb(0%, 0%, 0%)" stroke-opacity="1" stroke-miterlimit="10" d="M 114.97625 -0.00171875 L 134.323906 7.04125 " transform="matrix(1, 0, 0, -1, -0.195, 37.01)"/>
</g>
<path fill="none" stroke-width="0.797" stroke-linecap="butt" stroke-linejoin="miter" stroke="rgb(0%, 0%, 0%)" stroke-opacity="1" stroke-miterlimit="10" d="M 121.218438 8.185781 C 123.245781 6.642813 124.659844 4.369375 125.112969 1.787344 C 125.35125 0.435781 125.316094 -0.939219 125.019219 -2.259531 " transform="matrix(1, 0, 0, -1, -0.195, 37.01)"/>
<path fill-rule="nonzero" fill="rgb(0%, 0%, 0%)" fill-opacity="1" d="M 118.300781 27.335938 C 119.222656 28.28125 120.851562 30.027344 121.472656 31.867188 C 121.210938 29.960938 121.796875 29.105469 123.671875 28.664062 C 121.730469 28.746094 119.515625 27.855469 118.300781 27.335938 Z M 118.300781 27.335938 "/>
<path fill-rule="nonzero" fill="rgb(0%, 0%, 0%)" fill-opacity="1" d="M 123.695312 42.15625 C 124.292969 40.980469 125.417969 38.875 126.957031 37.6875 C 125.238281 38.554688 124.238281 38.277344 123.214844 36.644531 C 123.921875 38.457031 123.792969 40.839844 123.695312 42.15625 Z M 123.695312 42.15625 "/>
<path fill-rule="nonzero" fill="rgb(100%, 100%, 100%)" fill-opacity="1" d="M 126.660156 54.84375 C 126.660156 53.964844 125.953125 53.253906 125.074219 53.253906 C 124.199219 53.253906 123.488281 53.964844 123.488281 54.84375 C 123.488281 55.71875 124.199219 56.429688 125.074219 56.429688 C 125.953125 56.429688 126.660156 55.71875 126.660156 54.84375 Z M 126.660156 54.84375 "/>
<g clip-path="url(#clip-4)">
<path fill="none" stroke-width="0.3985" stroke-linecap="butt" stroke-linejoin="miter" stroke="rgb(0%, 0%, 0%)" stroke-opacity="1" stroke-miterlimit="10" d="M 126.855156 -17.83375 C 126.855156 -16.954844 126.148125 -16.243906 125.269219 -16.243906 C 124.394219 -16.243906 123.683281 -16.954844 123.683281 -17.83375 C 123.683281 -18.70875 124.394219 -19.419687 125.269219 -19.419687 C 126.148125 -19.419687 126.855156 -18.70875 126.855156 -17.83375 Z M 126.855156 -17.83375 " transform="matrix(1, 0, 0, -1, -0.195, 37.01)"/>
</g>
<path fill-rule="nonzero" fill="rgb(100%, 100%, 100%)" fill-opacity="1" stroke-width="0.3985" stroke-linecap="butt" stroke-linejoin="miter" stroke="rgb(0%, 0%, 0%)" stroke-opacity="1" stroke-miterlimit="10" d="M 134.394219 -10.294687 C 134.394219 -9.419687 133.683281 -8.70875 132.808281 -8.70875 C 131.929375 -8.70875 131.218438 -9.419687 131.218438 -10.294687 C 131.218438 -11.173594 131.929375 -11.884531 132.808281 -11.884531 C 133.683281 -11.884531 134.394219 -11.173594 134.394219 -10.294687 Z M 134.394219 -10.294687 " transform="matrix(1, 0, 0, -1, -0.195, 37.01)"/>
<path fill-rule="nonzero" fill="rgb(100%, 100%, 100%)" fill-opacity="1" stroke-width="0.3985" stroke-linecap="butt" stroke-linejoin="miter" stroke="rgb(0%, 0%, 0%)" stroke-opacity="1" stroke-miterlimit="10" d="M 137.152031 -0.00171875 C 137.152031 0.877188 136.441094 1.588125 135.566094 1.588125 C 134.687188 1.588125 133.97625 0.877188 133.97625 -0.00171875 C 133.97625 -0.876719 134.687188 -1.587656 135.566094 -1.587656 C 136.441094 -1.587656 137.152031 -0.876719 137.152031 -0.00171875 Z M 137.152031 -0.00171875 " transform="matrix(1, 0, 0, -1, -0.195, 37.01)"/>
<path fill-rule="nonzero" fill="rgb(100%, 100%, 100%)" fill-opacity="1" stroke-width="0.3985" stroke-linecap="butt" stroke-linejoin="miter" stroke="rgb(0%, 0%, 0%)" stroke-opacity="1" stroke-miterlimit="10" d="M 134.394219 10.295156 C 134.394219 11.170156 133.683281 11.881094 132.808281 11.881094 C 131.929375 11.881094 131.218438 11.170156 131.218438 10.295156 C 131.218438 9.420156 131.929375 8.709219 132.808281 8.709219 C 133.683281 8.709219 134.394219 9.420156 134.394219 10.295156 Z M 134.394219 10.295156 " transform="matrix(1, 0, 0, -1, -0.195, 37.01)"/>
<path fill-rule="nonzero" fill="rgb(100%, 100%, 100%)" fill-opacity="1" stroke-width="0.3985" stroke-linecap="butt" stroke-linejoin="miter" stroke="rgb(0%, 0%, 0%)" stroke-opacity="1" stroke-miterlimit="10" d="M 126.855156 17.834219 C 126.855156 18.709219 126.148125 19.420156 125.269219 19.420156 C 124.394219 19.420156 123.683281 18.709219 123.683281 17.834219 C 123.683281 16.955313 124.394219 16.244375 125.269219 16.244375 C 126.148125 16.244375 126.855156 16.955313 126.855156 17.834219 Z M 126.855156 17.834219 " transform="matrix(1, 0, 0, -1, -0.195, 37.01)"/>
<path fill-rule="nonzero" fill="rgb(100%, 100%, 100%)" fill-opacity="1" stroke-width="0.3985" stroke-linecap="butt" stroke-linejoin="miter" stroke="rgb(0%, 0%, 0%)" stroke-opacity="1" stroke-miterlimit="10" d="M 116.562188 -0.00171875 C 116.562188 0.877188 115.85125 1.588125 114.97625 1.588125 C 114.097344 1.588125 113.386406 0.877188 113.386406 -0.00171875 C 113.386406 -0.876719 114.097344 -1.587656 114.97625 -1.587656 C 115.85125 -1.587656 116.562188 -0.876719 116.562188 -0.00171875 Z M 116.562188 -0.00171875 " transform="matrix(1, 0, 0, -1, -0.195, 37.01)"/>
<path fill="none" stroke-width="0.3985" stroke-linecap="butt" stroke-linejoin="miter" stroke="rgb(100%, 0%, 0%)" stroke-opacity="1" stroke-miterlimit="10" d="M 51.195 6.068594 L 85.03875 6.068594 L 85.03875 -0.00171875 " transform="matrix(1, 0, 0, -1, -0.195, 37.01)"/>
<path fill="none" stroke-width="0.3985" stroke-linecap="butt" stroke-linejoin="miter" stroke="rgb(0%, 0%, 100%)" stroke-opacity="1" stroke-miterlimit="10" d="M 31.472344 22.119375 L 31.472344 36.29125 L 125.269219 36.29125 L 125.269219 19.420156 " transform="matrix(1, 0, 0, -1, -0.195, 37.01)"/>
<path fill="none" stroke-width="0.3985" stroke-linecap="butt" stroke-linejoin="miter" stroke="rgb(0%, 0%, 0%)" stroke-opacity="1" stroke-miterlimit="10" d="M 137.152031 -0.00171875 L 165.499688 -0.00171875 " transform="matrix(1, 0, 0, -1, -0.195, 37.01)"/>
<g clip-path="url(#clip-5)">
<path fill="none" stroke-width="3.17429" stroke-linecap="round" stroke-linejoin="miter" stroke="rgb(0%, 0%, 0%)" stroke-opacity="1" stroke-miterlimit="10" d="M 167.085625 -0.00171875 L 186.97625 5.330313 " transform="matrix(1, 0, 0, -1, -0.195, 37.01)"/>
</g>
<path fill-rule="nonzero" fill="rgb(100%, 100%, 100%)" fill-opacity="1" d="M 168.480469 57.601562 C 168.480469 56.722656 167.769531 56.015625 166.890625 56.015625 C 166.015625 56.015625 165.304688 56.722656 165.304688 57.601562 C 165.304688 58.476562 166.015625 59.1875 166.890625 59.1875 C 167.769531 59.1875 168.480469 58.476562 168.480469 57.601562 Z M 168.480469 57.601562 "/>
<g clip-path="url(#clip-6)">
<path fill="none" stroke-width="0.3985" stroke-linecap="butt" stroke-linejoin="miter" stroke="rgb(0%, 0%, 0%)" stroke-opacity="1" stroke-miterlimit="10" d="M 168.675469 -20.591562 C 168.675469 -19.712656 167.964531 -19.005625 167.085625 -19.005625 C 166.210625 -19.005625 165.499688 -19.712656 165.499688 -20.591562 C 165.499688 -21.466562 166.210625 -22.1775 167.085625 -22.1775 C 167.964531 -22.1775 168.675469 -21.466562 168.675469 -20.591562 Z M 168.675469 -20.591562 " transform="matrix(1, 0, 0, -1, -0.195, 37.01)"/>
</g>
<path fill-rule="nonzero" fill="rgb(100%, 100%, 100%)" fill-opacity="1" stroke-width="0.3985" stroke-linecap="butt" stroke-linejoin="miter" stroke="rgb(0%, 0%, 0%)" stroke-opacity="1" stroke-miterlimit="10" d="M 183.234063 -14.560312 C 183.234063 -13.685312 182.523125 -12.974375 181.648125 -12.974375 C 180.769219 -12.974375 180.058281 -13.685312 180.058281 -14.560312 C 180.058281 -15.435312 180.769219 -16.14625 181.648125 -16.14625 C 182.523125 -16.14625 183.234063 -15.435312 183.234063 -14.560312 Z M 183.234063 -14.560312 " transform="matrix(1, 0, 0, -1, -0.195, 37.01)"/>
<path fill-rule="nonzero" fill="rgb(100%, 100%, 100%)" fill-opacity="1" stroke-width="0.3985" stroke-linecap="butt" stroke-linejoin="miter" stroke="rgb(0%, 0%, 0%)" stroke-opacity="1" stroke-miterlimit="10" d="M 189.265313 -0.00171875 C 189.265313 0.877188 188.554375 1.588125 187.675469 1.588125 C 186.800469 1.588125 186.089531 0.877188 186.089531 -0.00171875 C 186.089531 -0.876719 186.800469 -1.587656 187.675469 -1.587656 C 188.554375 -1.587656 189.265313 -0.876719 189.265313 -0.00171875 Z M 189.265313 -0.00171875 " transform="matrix(1, 0, 0, -1, -0.195, 37.01)"/>
<path fill-rule="nonzero" fill="rgb(100%, 100%, 100%)" fill-opacity="1" stroke-width="0.3985" stroke-linecap="butt" stroke-linejoin="miter" stroke="rgb(0%, 0%, 0%)" stroke-opacity="1" stroke-miterlimit="10" d="M 183.234063 14.560781 C 183.234063 15.435781 182.523125 16.146719 181.648125 16.146719 C 180.769219 16.146719 180.058281 15.435781 180.058281 14.560781 C 180.058281 13.681875 180.769219 12.970938 181.648125 12.970938 C 182.523125 12.970938 183.234063 13.681875 183.234063 14.560781 Z M 183.234063 14.560781 " transform="matrix(1, 0, 0, -1, -0.195, 37.01)"/>
<path fill-rule="nonzero" fill="rgb(100%, 100%, 100%)" fill-opacity="1" stroke-width="0.3985" stroke-linecap="butt" stroke-linejoin="miter" stroke="rgb(0%, 0%, 0%)" stroke-opacity="1" stroke-miterlimit="10" d="M 168.675469 20.592031 C 168.675469 21.467031 167.964531 22.177969 167.085625 22.177969 C 166.210625 22.177969 165.499688 21.467031 165.499688 20.592031 C 165.499688 19.713125 166.210625 19.002188 167.085625 19.002188 C 167.964531 19.002188 168.675469 19.713125 168.675469 20.592031 Z M 168.675469 20.592031 " transform="matrix(1, 0, 0, -1, -0.195, 37.01)"/>
<path fill-rule="nonzero" fill="rgb(100%, 100%, 100%)" fill-opacity="1" stroke-width="0.3985" stroke-linecap="butt" stroke-linejoin="miter" stroke="rgb(0%, 0%, 0%)" stroke-opacity="1" stroke-miterlimit="10" d="M 168.675469 -0.00171875 C 168.675469 0.877188 167.964531 1.588125 167.085625 1.588125 C 166.210625 1.588125 165.499688 0.877188 165.499688 -0.00171875 C 165.499688 -0.876719 166.210625 -1.587656 167.085625 -1.587656 C 167.964531 -1.587656 168.675469 -0.876719 168.675469 -0.00171875 Z M 168.675469 -0.00171875 " transform="matrix(1, 0, 0, -1, -0.195, 37.01)"/>
<path fill="none" stroke-width="0.3985" stroke-linecap="butt" stroke-linejoin="miter" stroke="rgb(0%, 0%, 0%)" stroke-opacity="1" stroke-miterlimit="10" d="M 189.265313 -0.00171875 L 217.612969 -0.00171875 " transform="matrix(1, 0, 0, -1, -0.195, 37.01)"/>
<g clip-path="url(#clip-7)">
<path fill="none" stroke-width="3.17429" stroke-linecap="round" stroke-linejoin="miter" stroke="rgb(0%, 0%, 0%)" stroke-opacity="1" stroke-miterlimit="10" d="M 239.78875 -0.00171875 L 220.441094 7.04125 " transform="matrix(1, 0, 0, -1, -0.195, 37.01)"/>
</g>
<g clip-path="url(#clip-8)">
<path fill="none" stroke-width="0.797" stroke-linecap="butt" stroke-linejoin="miter" stroke="rgb(0%, 0%, 0%)" stroke-opacity="1" stroke-miterlimit="10" d="M 236.269219 9.674063 C 232.812188 8.41625 230.28875 5.408438 229.652031 1.787344 C 229.409844 0.435781 229.448906 -0.939219 229.745781 -2.259531 " transform="matrix(1, 0, 0, -1, -0.195, 37.01)"/>
</g>
<path fill-rule="nonzero" fill="rgb(0%, 0%, 0%)" fill-opacity="1" d="M 230.679688 42.15625 C 230.578125 40.839844 230.453125 38.457031 231.160156 36.644531 C 230.132812 38.277344 229.136719 38.554688 227.414062 37.6875 C 228.957031 38.875 230.082031 40.980469 230.679688 42.15625 Z M 230.679688 42.15625 "/>
<path fill-rule="nonzero" fill="rgb(100%, 100%, 100%)" fill-opacity="1" d="M 227.710938 54.84375 C 227.710938 53.964844 228.421875 53.253906 229.300781 53.253906 C 230.175781 53.253906 230.886719 53.964844 230.886719 54.84375 C 230.886719 55.71875 230.175781 56.429688 229.300781 56.429688 C 228.421875 56.429688 227.710938 55.71875 227.710938 54.84375 Z M 227.710938 54.84375 "/>
<g clip-path="url(#clip-9)">
<path fill="none" stroke-width="0.3985" stroke-linecap="butt" stroke-linejoin="miter" stroke="rgb(0%, 0%, 0%)" stroke-opacity="1" stroke-miterlimit="10" d="M 227.905938 -17.83375 C 227.905938 -16.954844 228.616875 -16.243906 229.495781 -16.243906 C 230.370781 -16.243906 231.081719 -16.954844 231.081719 -17.83375 C 231.081719 -18.70875 230.370781 -19.419687 229.495781 -19.419687 C 228.616875 -19.419687 227.905938 -18.70875 227.905938 -17.83375 Z M 227.905938 -17.83375 " transform="matrix(1, 0, 0, -1, -0.195, 37.01)"/>
</g>
<path fill-rule="nonzero" fill="rgb(100%, 100%, 100%)" fill-opacity="1" stroke-width="0.3985" stroke-linecap="butt" stroke-linejoin="miter" stroke="rgb(0%, 0%, 0%)" stroke-opacity="1" stroke-miterlimit="10" d="M 220.370781 -10.294687 C 220.370781 -9.419687 221.081719 -8.70875 221.956719 -8.70875 C 222.831719 -8.70875 223.542656 -9.419687 223.542656 -10.294687 C 223.542656 -11.173594 222.831719 -11.884531 221.956719 -11.884531 C 221.081719 -11.884531 220.370781 -11.173594 220.370781 -10.294687 Z M 220.370781 -10.294687 " transform="matrix(1, 0, 0, -1, -0.195, 37.01)"/>
<path fill-rule="nonzero" fill="rgb(100%, 100%, 100%)" fill-opacity="1" stroke-width="0.3985" stroke-linecap="butt" stroke-linejoin="miter" stroke="rgb(0%, 0%, 0%)" stroke-opacity="1" stroke-miterlimit="10" d="M 217.612969 -0.00171875 C 217.612969 0.877188 218.32 1.588125 219.198906 1.588125 C 220.073906 1.588125 220.784844 0.877188 220.784844 -0.00171875 C 220.784844 -0.876719 220.073906 -1.587656 219.198906 -1.587656 C 218.32 -1.587656 217.612969 -0.876719 217.612969 -0.00171875 Z M 217.612969 -0.00171875 " transform="matrix(1, 0, 0, -1, -0.195, 37.01)"/>
<path fill-rule="nonzero" fill="rgb(100%, 100%, 100%)" fill-opacity="1" stroke-width="0.3985" stroke-linecap="butt" stroke-linejoin="miter" stroke="rgb(0%, 0%, 0%)" stroke-opacity="1" stroke-miterlimit="10" d="M 220.370781 10.295156 C 220.370781 11.170156 221.081719 11.881094 221.956719 11.881094 C 222.831719 11.881094 223.542656 11.170156 223.542656 10.295156 C 223.542656 9.420156 222.831719 8.709219 221.956719 8.709219 C 221.081719 8.709219 220.370781 9.420156 220.370781 10.295156 Z M 220.370781 10.295156 " transform="matrix(1, 0, 0, -1, -0.195, 37.01)"/>
<path fill-rule="nonzero" fill="rgb(100%, 100%, 100%)" fill-opacity="1" stroke-width="0.3985" stroke-linecap="butt" stroke-linejoin="miter" stroke="rgb(0%, 0%, 0%)" stroke-opacity="1" stroke-miterlimit="10" d="M 227.905938 17.834219 C 227.905938 18.709219 228.616875 19.420156 229.495781 19.420156 C 230.370781 19.420156 231.081719 18.709219 231.081719 17.834219 C 231.081719 16.955313 230.370781 16.244375 229.495781 16.244375 C 228.616875 16.244375 227.905938 16.955313 227.905938 17.834219 Z M 227.905938 17.834219 " transform="matrix(1, 0, 0, -1, -0.195, 37.01)"/>
<g clip-path="url(#clip-10)">
<path fill-rule="nonzero" fill="rgb(100%, 100%, 100%)" fill-opacity="1" d="M 238.007812 37.011719 C 238.007812 36.132812 238.71875 35.421875 239.59375 35.421875 C 240.472656 35.421875 241.179688 36.132812 241.179688 37.011719 C 241.179688 37.886719 240.472656 38.597656 239.59375 38.597656 C 238.71875 38.597656 238.007812 37.886719 238.007812 37.011719 Z M 238.007812 37.011719 "/>
</g>
<g clip-path="url(#clip-11)">
<path fill="none" stroke-width="0.3985" stroke-linecap="butt" stroke-linejoin="miter" stroke="rgb(0%, 0%, 0%)" stroke-opacity="1" stroke-miterlimit="10" d="M 238.202813 -0.00171875 C 238.202813 0.877188 238.91375 1.588125 239.78875 1.588125 C 240.667656 1.588125 241.374688 0.877188 241.374688 -0.00171875 C 241.374688 -0.876719 240.667656 -1.587656 239.78875 -1.587656 C 238.91375 -1.587656 238.202813 -0.876719 238.202813 -0.00171875 Z M 238.202813 -0.00171875 " transform="matrix(1, 0, 0, -1, -0.195, 37.01)"/>
</g>
<g clip-path="url(#clip-12)">
<path fill="none" stroke-width="0.3985" stroke-linecap="butt" stroke-linejoin="miter" stroke="rgb(0%, 100%, 0%)" stroke-opacity="1" stroke-dasharray="2.98883 2.98883" stroke-miterlimit="10" d="M 124.554375 4.064688 L 110.378594 -24.282969 L 176.97625 -24.282969 L 176.97625 3.076406 " transform="matrix(1, 0, 0, -1, -0.195, 37.01)"/>
</g>
</svg>
