<?xml version="1.0" encoding="UTF-8"?>
<svg xmlns="http://www.w3.org/2000/svg" xmlns:xlink="http://www.w3.org/1999/xlink" width="37.692pt" height="19.936pt" viewBox="0 0 37.692 19.936">
<defs>
<clipPath id="clip-0">
<path clip-rule="nonzero" d="M 0 0 L 37.539062 0 L 37.539062 19.902344 L 0 19.902344 Z M 0 0 "/>
</clipPath>
<clipPath id="clip-1">
<path clip-rule="nonzero" d="M -2.351562 10.4375 L 38.328125 0.519531 L 38.328125 20.359375 Z M -2.351562 10.4375 "/>
</clipPath>
</defs>
<g clip-path="url(#clip-0)">
<g clip-path="url(#clip-1)">
<path fill="none" stroke-width="0.3985" stroke-linecap="butt" stroke-linejoin="miter" stroke="rgb(0%, 0%, 0%)" stroke-opacity="1" stroke-miterlimit="10" d="M 19.843937 0.0015 C 19.843937 21.919469 2.074406 39.685094 -19.843563 39.685094 C -41.761531 39.685094 -59.527156 21.919469 -59.527156 0.0015 C -59.527156 -21.916469 -41.761531 -39.686 -19.843563 -39.686 C 2.074406 -39.686 19.843937 -21.916469 19.843937 0.0015 Z M 18.60175 0.0015 C 18.60175 21.231969 1.390812 38.446813 -19.843563 38.446813 C -41.074031 38.446813 -58.288875 21.231969 -58.288875 0.0015 C -58.288875 -21.232875 -41.074031 -38.443812 -19.843563 -38.443812 C 1.390812 -38.443812 18.60175 -21.232875 18.60175 0.0015 Z M 17.363469 0.0015 C 17.363469 20.548375 0.703312 37.204625 -19.843563 37.204625 C -40.390438 37.204625 -57.046688 20.548375 -57.046688 0.0015 C -57.046688 -20.549281 -40.390438 -37.205531 -19.843563 -37.205531 C 0.703312 -37.205531 17.363469 -20.549281 17.363469 0.0015 Z M 16.121281 0.0015 C 16.121281 19.864781 0.0197187 35.966344 -19.843563 35.966344 C -39.706844 35.966344 -55.808406 19.864781 -55.808406 0.0015 C -55.808406 -19.861781 -39.706844 -35.963344 -19.843563 -35.963344 C 0.0197187 -35.963344 16.121281 -19.861781 16.121281 0.0015 Z M 14.883 0.0015 C 14.883 19.177281 -0.663875 34.724156 -19.843563 34.724156 C -39.019344 34.724156 -54.566219 19.177281 -54.566219 0.0015 C -54.566219 -19.178187 -39.019344 -34.725062 -19.843563 -34.725062 C -0.663875 -34.725062 14.883 -19.178187 14.883 0.0015 Z M 13.640812 0.0015 C 13.640812 18.493688 -1.351375 33.485875 -19.843563 33.485875 C -38.33575 33.485875 -53.327938 18.493688 -53.327938 0.0015 C -53.327938 -18.494594 -38.33575 -33.482875 -19.843563 -33.482875 C -1.351375 -33.482875 13.640812 -18.494594 13.640812 0.0015 Z M 12.402531 0.0015 C 12.402531 17.810094 -2.034969 32.243688 -19.843563 32.243688 C -37.652156 32.243688 -52.08575 17.810094 -52.08575 0.0015 C -52.08575 -17.807094 -37.652156 -32.244594 -19.843563 -32.244594 C -2.034969 -32.244594 12.402531 -17.807094 12.402531 0.0015 Z M 11.160344 0.0015 C 11.160344 17.122594 -2.718563 31.005406 -19.843563 31.005406 C -36.964656 31.005406 -50.847469 17.122594 -50.847469 0.0015 C -50.847469 -17.1235 -36.964656 -31.002406 -19.843563 -31.002406 C -2.718563 -31.002406 11.160344 -17.1235 11.160344 0.0015 Z M 9.922062 0.0015 C 9.922062 16.439 -3.406063 29.763219 -19.843563 29.763219 C -36.281063 29.763219 -49.605281 16.439 -49.605281 0.0015 C -49.605281 -16.439906 -36.281063 -29.764125 -19.843563 -29.764125 C -3.406063 -29.764125 9.922062 -16.439906 9.922062 0.0015 Z M 8.679875 0.0015 C 8.679875 15.7515 -4.089656 28.524938 -19.843563 28.524938 C -35.597469 28.524938 -48.367 15.7515 -48.367 0.0015 C -48.367 -15.752406 -35.597469 -28.521937 -19.843563 -28.521937 C -4.089656 -28.521937 8.679875 -15.752406 8.679875 0.0015 Z M 7.441594 0.0015 C 7.441594 15.067906 -4.77325 27.28275 -19.843563 27.28275 C -34.909969 27.28275 -47.124813 15.067906 -47.124813 0.0015 C -47.124813 -15.068812 -34.909969 -27.283656 -19.843563 -27.283656 C -4.77325 -27.283656 7.441594 -15.068812 7.441594 0.0015 Z M 6.199406 0.0015 C 6.199406 14.384313 -5.46075 26.044469 -19.843563 26.044469 C -34.226375 26.044469 -45.886531 14.384313 -45.886531 0.0015 C -45.886531 -14.385219 -34.226375 -26.041469 -19.843563 -26.041469 C -5.46075 -26.041469 6.199406 -14.385219 6.199406 0.0015 Z M 4.961125 0.0015 C 4.961125 13.696813 -6.144344 24.802281 -19.843563 24.802281 C -33.542781 24.802281 -44.644344 13.696813 -44.644344 0.0015 C -44.644344 -13.697719 -33.542781 -24.803187 -19.843563 -24.803187 C -6.144344 -24.803187 4.961125 -13.697719 4.961125 0.0015 Z M 3.718937 0.0015 C 3.718937 13.013219 -6.827938 23.564 -19.843563 23.564 C -32.855281 23.564 -43.406063 13.013219 -43.406063 0.0015 C -43.406063 -13.014125 -32.855281 -23.564906 -19.843563 -23.564906 C -6.827938 -23.564906 3.718937 -13.014125 3.718937 0.0015 Z M 2.480656 0.0015 C 2.480656 12.329625 -7.515438 22.321813 -19.843563 22.321813 C -32.171688 22.321813 -42.163875 12.329625 -42.163875 0.0015 C -42.163875 -12.330531 -32.171688 -22.322719 -19.843563 -22.322719 C -7.515438 -22.322719 2.480656 -12.330531 2.480656 0.0015 Z M 1.238469 0.0015 C 1.238469 11.642125 -8.199031 21.083531 -19.843563 21.083531 C -31.488094 21.083531 -40.925594 11.642125 -40.925594 0.0015 C -40.925594 -11.643031 -31.488094 -21.084437 -19.843563 -21.084437 C -8.199031 -21.084437 1.238469 -11.643031 1.238469 0.0015 Z M 0.0001875 0.0015 C 0.0001875 10.958531 -8.882625 19.841344 -19.843563 19.841344 C -30.800594 19.841344 -39.683406 10.958531 -39.683406 0.0015 C -39.683406 -10.959437 -30.800594 -19.84225 -19.843563 -19.84225 C -8.882625 -19.84225 0.0001875 -10.959437 0.0001875 0.0015 Z M -1.242 0.0015 C -1.242 10.274938 -9.570125 18.603063 -19.843563 18.603063 C -30.117 18.603063 -38.445125 10.274938 -38.445125 0.0015 C -38.445125 -10.275844 -30.117 -18.603969 -19.843563 -18.603969 C -9.570125 -18.603969 -1.242 -10.275844 -1.242 0.0015 Z M -2.480281 0.0015 C -2.480281 9.587438 -10.253719 17.360875 -19.843563 17.360875 C -29.433406 17.360875 -37.206844 9.587438 -37.206844 0.0015 C -37.206844 -9.588344 -29.433406 -17.361781 -19.843563 -17.361781 C -10.253719 -17.361781 -2.480281 -9.588344 -2.480281 0.0015 Z M -3.722469 0.0015 C -3.722469 8.903844 -10.937313 16.122594 -19.843563 16.122594 C -28.745906 16.122594 -35.964656 8.903844 -35.964656 0.0015 C -35.964656 -8.90475 -28.745906 -16.1235 -19.843563 -16.1235 C -10.937313 -16.1235 -3.722469 -8.90475 -3.722469 0.0015 Z M -4.96075 0.0015 C -4.96075 8.22025 -11.624813 14.880406 -19.843563 14.880406 C -28.062313 14.880406 -34.726375 8.22025 -34.726375 0.0015 C -34.726375 -8.21725 -28.062313 -14.881312 -19.843563 -14.881312 C -11.624813 -14.881312 -4.96075 -8.21725 -4.96075 0.0015 Z M -6.199031 0.0015 C -6.199031 7.53275 -12.308406 13.642125 -19.843563 13.642125 C -27.378719 13.642125 -33.484188 7.53275 -33.484188 0.0015 C -33.484188 -7.533656 -27.378719 -13.643031 -19.843563 -13.643031 C -12.308406 -13.643031 -6.199031 -7.533656 -6.199031 0.0015 Z M -7.441219 0.0015 C -7.441219 6.849156 -12.992 12.399938 -19.843563 12.399938 C -26.691219 12.399938 -32.245906 6.849156 -32.245906 0.0015 C -32.245906 -6.850062 -26.691219 -12.400844 -19.843563 -12.400844 C -12.992 -12.400844 -7.441219 -6.850062 -7.441219 0.0015 Z M -8.6795 0.0015 C -8.6795 6.165563 -13.6795 11.161656 -19.843563 11.161656 C -26.007625 11.161656 -31.003719 6.165563 -31.003719 0.0015 C -31.003719 -6.162562 -26.007625 -11.162562 -19.843563 -11.162562 C -13.6795 -11.162562 -8.6795 -6.162562 -8.6795 0.0015 Z M -9.921688 0.0015 C -9.921688 5.478063 -14.363094 9.919469 -19.843563 9.919469 C -25.324031 9.919469 -29.765438 5.478063 -29.765438 0.0015 C -29.765438 -5.478969 -25.324031 -9.920375 -19.843563 -9.920375 C -14.363094 -9.920375 -9.921688 -5.478969 -9.921688 0.0015 Z M -11.159969 0.0015 C -11.159969 4.794469 -15.046688 8.681188 -19.843563 8.681188 C -24.636531 8.681188 -28.52325 4.794469 -28.52325 0.0015 C -28.52325 -4.795375 -24.636531 -8.682094 -19.843563 -8.682094 C -15.046688 -8.682094 -11.159969 -4.795375 -11.159969 0.0015 Z M -12.402156 0.0015 C -12.402156 4.110875 -15.734188 7.442906 -19.843563 7.442906 C -23.952938 7.442906 -27.284969 4.110875 -27.284969 0.0015 C -27.284969 -4.107875 -23.952938 -7.439906 -19.843563 -7.439906 C -15.734188 -7.439906 -12.402156 -4.107875 -12.402156 0.0015 Z M -13.640438 0.0015 C -13.640438 3.423375 -16.417781 6.200719 -19.843563 6.200719 C -23.265438 6.200719 -26.042781 3.423375 -26.042781 0.0015 C -26.042781 -3.424281 -23.265438 -6.201625 -19.843563 -6.201625 C -16.417781 -6.201625 -13.640438 -3.424281 -13.640438 0.0015 Z M -14.882625 0.0015 C -14.882625 2.739781 -17.101375 4.962438 -19.843563 4.962438 C -22.581844 4.962438 -24.8045 2.739781 -24.8045 0.0015 C -24.8045 -2.740687 -22.581844 -4.959437 -19.843563 -4.959437 C -17.101375 -4.959437 -14.882625 -2.740687 -14.882625 0.0015 Z M -16.120906 0.0015 C -16.120906 2.056188 -17.788875 3.72025 -19.843563 3.72025 C -21.89825 3.72025 -23.562313 2.056188 -23.562313 0.0015 C -23.562313 -2.053187 -21.89825 -3.721156 -19.843563 -3.721156 C -17.788875 -3.721156 -16.120906 -2.053187 -16.120906 0.0015 Z M -17.363094 0.0015 C -17.363094 1.368688 -18.472469 2.481969 -19.843563 2.481969 C -21.21075 2.481969 -22.324031 1.368688 -22.324031 0.0015 C -22.324031 -1.369594 -21.21075 -2.478969 -19.843563 -2.478969 C -18.472469 -2.478969 -17.363094 -1.369594 -17.363094 0.0015 Z M -17.363094 0.0015 " transform="matrix(1, 0, 0, -1, 17.492, 10.439)"/>
</g>
</g>
</svg>
