<?xml version="1.0" encoding="UTF-8"?>
<svg xmlns="http://www.w3.org/2000/svg" xmlns:xlink="http://www.w3.org/1999/xlink" width="47.64pt" height="90.748pt" viewBox="0 0 47.64 90.748">
<defs>
<clipPath id="clip-0">
<path clip-rule="nonzero" d="M 0 0 L 47.460938 0 L 47.460938 45 L 0 45 Z M 0 0 "/>
</clipPath>
<clipPath id="clip-1">
<path clip-rule="nonzero" d="M 0 1 L 47.460938 1 L 47.460938 34 L 0 34 Z M 0 1 "/>
</clipPath>
<clipPath id="clip-2">
<path clip-rule="nonzero" d="M 0 46 L 47.460938 46 L 47.460938 90.621094 L 0 90.621094 Z M 0 46 "/>
</clipPath>
<clipPath id="clip-3">
<path clip-rule="nonzero" d="M 0 58 L 47.460938 58 L 47.460938 90.621094 L 0 90.621094 Z M 0 58 "/>
</clipPath>
</defs>
<g clip-path="url(#clip-0)">
<path fill="none" stroke-width="0.797" stroke-linecap="butt" stroke-linejoin="miter" stroke="rgb(0%, 0%, 0%)" stroke-opacity="1" stroke-miterlimit="10" d="M -0.000375 15.874562 L 31.749625 -0.0004375 L -0.000375 -15.875438 Z M -0.000375 15.874562 " transform="matrix(1, 0, 0, -1, 7.766, 17.398)"/>
<path fill="none" stroke-width="0.797" stroke-linecap="butt" stroke-linejoin="miter" stroke="rgb(0%, 0%, 0%)" stroke-opacity="1" stroke-miterlimit="10" d="M 31.749625 15.874562 L -0.000375 -0.0004375 L 31.749625 -15.875438 Z M 31.749625 15.874562 " transform="matrix(1, 0, 0, -1, 7.766, 17.398)"/>
</g>
<g clip-path="url(#clip-1)">
<path fill="none" stroke-width="0.3985" stroke-linecap="butt" stroke-linejoin="miter" stroke="rgb(0%, 0%, 0%)" stroke-opacity="1" stroke-miterlimit="10" d="M 31.749625 -0.0004375 L 39.683219 -0.0004375 M -0.000375 -0.0004375 L -7.937875 -0.0004375 M 15.874625 -7.937938 L 15.874625 -15.875438 M 15.874625 7.937062 L 15.874625 15.874562 " transform="matrix(1, 0, 0, -1, 7.766, 17.398)"/>
</g>
<path fill-rule="nonzero" fill="rgb(100%, 100%, 100%)" fill-opacity="1" stroke-width="0.3985" stroke-linecap="butt" stroke-linejoin="miter" stroke="rgb(0%, 0%, 0%)" stroke-opacity="1" stroke-miterlimit="10" d="M 17.460563 10.081594 C 17.460563 10.956594 16.749625 11.667531 15.874625 11.667531 C 14.995719 11.667531 14.288688 10.956594 14.288688 10.081594 C 14.288688 9.206594 14.995719 8.495656 15.874625 8.495656 C 16.749625 8.495656 17.460563 9.206594 17.460563 10.081594 Z M 17.460563 10.081594 " transform="matrix(1, 0, 0, -1, 7.766, 17.398)"/>
<g clip-path="url(#clip-2)">
<path fill="none" stroke-width="0.797" stroke-linecap="butt" stroke-linejoin="miter" stroke="rgb(0%, 0%, 0%)" stroke-opacity="1" stroke-miterlimit="10" d="M -0.000375 -40.82075 L 31.749625 -56.691844 L -0.000375 -72.566844 Z M -0.000375 -40.82075 " transform="matrix(1, 0, 0, -1, 7.766, 17.398)"/>
<path fill="none" stroke-width="0.797" stroke-linecap="butt" stroke-linejoin="miter" stroke="rgb(0%, 0%, 0%)" stroke-opacity="1" stroke-miterlimit="10" d="M 31.749625 -40.82075 L -0.000375 -56.691844 L 31.749625 -72.566844 Z M 31.749625 -40.82075 " transform="matrix(1, 0, 0, -1, 7.766, 17.398)"/>
</g>
<g clip-path="url(#clip-3)">
<path fill="none" stroke-width="0.3985" stroke-linecap="butt" stroke-linejoin="miter" stroke="rgb(0%, 0%, 0%)" stroke-opacity="1" stroke-miterlimit="10" d="M 31.749625 -56.691844 L 39.683219 -56.691844 M -0.000375 -56.691844 L -7.937875 -56.691844 M 15.874625 -64.629344 L 15.874625 -72.566844 M 15.874625 -48.75825 L 15.874625 -40.82075 " transform="matrix(1, 0, 0, -1, 7.766, 17.398)"/>
</g>
<path fill-rule="nonzero" fill="rgb(100%, 100%, 100%)" fill-opacity="1" stroke-width="0.3985" stroke-linecap="butt" stroke-linejoin="miter" stroke="rgb(0%, 0%, 0%)" stroke-opacity="1" stroke-miterlimit="10" d="M 17.460563 -46.613719 C 17.460563 -45.734813 16.749625 -45.023875 15.874625 -45.023875 C 14.995719 -45.023875 14.288688 -45.734813 14.288688 -46.613719 C 14.288688 -47.488719 14.995719 -48.199656 15.874625 -48.199656 C 16.749625 -48.199656 17.460563 -47.488719 17.460563 -46.613719 Z M 17.460563 -46.613719 " transform="matrix(1, 0, 0, -1, 7.766, 17.398)"/>
<path fill="none" stroke-width="0.3985" stroke-linecap="butt" stroke-linejoin="miter" stroke="rgb(0%, 0%, 0%)" stroke-opacity="1" stroke-miterlimit="10" d="M 15.874625 -15.875438 L 15.874625 -40.82075 " transform="matrix(1, 0, 0, -1, 7.766, 17.398)"/>
</svg>
