<?xml version="1.0" encoding="UTF-8"?>
<svg xmlns="http://www.w3.org/2000/svg" xmlns:xlink="http://www.w3.org/1999/xlink" width="136.088pt" height="74.931pt" viewBox="0 0 136.088 74.931">
<defs>
<clipPath id="clip-0">
<path clip-rule="nonzero" d="M 0 9 L 135.632812 9 L 135.632812 21 L 0 21 Z M 0 9 "/>
</clipPath>
<clipPath id="clip-1">
<path clip-rule="nonzero" d="M 0 60 L 135.632812 60 L 135.632812 61 L 0 61 Z M 0 60 "/>
</clipPath>
<clipPath id="clip-2">
<path clip-rule="nonzero" d="M 7 46 L 37 46 L 37 74.898438 L 7 74.898438 Z M 7 46 "/>
</clipPath>
<clipPath id="clip-3">
<path clip-rule="nonzero" d="M 2 41 L 42 41 L 42 74.898438 L 2 74.898438 Z M 2 41 "/>
</clipPath>
<clipPath id="clip-4">
<path clip-rule="nonzero" d="M 53 46 L 82 46 L 82 74.898438 L 53 74.898438 Z M 53 46 "/>
</clipPath>
<clipPath id="clip-5">
<path clip-rule="nonzero" d="M 48 41 L 88 41 L 88 74.898438 L 48 74.898438 Z M 48 41 "/>
</clipPath>
<clipPath id="clip-6">
<path clip-rule="nonzero" d="M 98 46 L 128 46 L 128 74.898438 L 98 74.898438 Z M 98 46 "/>
</clipPath>
<clipPath id="clip-7">
<path clip-rule="nonzero" d="M 93 41 L 133 41 L 133 74.898438 L 93 74.898438 Z M 93 41 "/>
</clipPath>
<clipPath id="clip-8">
<path clip-rule="nonzero" d="M 109 59 L 130 59 L 130 74.898438 L 109 74.898438 Z M 109 59 "/>
</clipPath>
</defs>
<g clip-path="url(#clip-0)">
<path fill="none" stroke-width="0.3985" stroke-linecap="butt" stroke-linejoin="miter" stroke="rgb(0%, 0%, 0%)" stroke-opacity="1" stroke-miterlimit="10" d="M 0.0016875 45.355594 L 8.786844 45.3595 M 36.572 45.3595 L 45.35325 45.355594 L 54.150125 45.3595 M 81.931375 45.3595 L 90.708719 45.355594 L 99.5095 45.3595 M 127.29075 45.3595 L 136.064188 45.355594 " transform="matrix(1, 0, 0, -1, -0.447, 60.6095)"/>
</g>
<path fill="none" stroke-width="0.797" stroke-linecap="butt" stroke-linejoin="miter" stroke="rgb(0%, 0%, 0%)" stroke-opacity="1" stroke-miterlimit="10" d="M 8.786844 59.246219 L 36.568094 59.246219 L 36.568094 31.464969 L 8.786844 31.464969 Z M 8.786844 59.246219 " transform="matrix(1, 0, 0, -1, -0.447, 60.6095)"/>
<path fill="none" stroke-width="0.3985" stroke-linecap="butt" stroke-linejoin="miter" stroke="rgb(0%, 0%, 0%)" stroke-opacity="1" stroke-miterlimit="10" d="M 8.786844 31.464969 L 36.568094 59.246219 " transform="matrix(1, 0, 0, -1, -0.447, 60.6095)"/>
<path fill="none" stroke-width="0.3985" stroke-linecap="butt" stroke-linejoin="miter" stroke="rgb(0%, 0%, 0%)" stroke-opacity="1" stroke-miterlimit="10" d="M 12.122781 52.300906 C 12.892313 53.507938 13.626688 54.660281 14.482156 54.660281 C 15.337625 54.660281 16.075906 53.507938 16.845438 52.300906 C 17.614969 51.089969 18.349344 49.937625 19.204813 49.937625 C 20.060281 49.937625 20.794656 51.089969 21.568094 52.300906 " transform="matrix(1, 0, 0, -1, -0.447, 60.6095)"/>
<path fill="none" stroke-width="0.3985" stroke-linecap="butt" stroke-linejoin="miter" stroke="rgb(0%, 0%, 0%)" stroke-opacity="1" stroke-miterlimit="10" d="M 26.150125 40.144656 L 33.095438 40.144656 " transform="matrix(1, 0, 0, -1, -0.447, 60.6095)"/>
<path fill="none" stroke-width="0.3985" stroke-linecap="butt" stroke-linejoin="miter" stroke="rgb(0%, 0%, 0%)" stroke-opacity="1" stroke-miterlimit="10" d="M 26.150125 36.672 L 27.54075 36.672 M 28.927469 36.672 L 30.318094 36.672 M 31.704813 36.672 L 33.095438 36.672 " transform="matrix(1, 0, 0, -1, -0.447, 60.6095)"/>
<path fill="none" stroke-width="0.797" stroke-linecap="butt" stroke-linejoin="miter" stroke="rgb(0%, 0%, 0%)" stroke-opacity="1" stroke-miterlimit="10" d="M 54.142313 59.246219 L 81.923563 59.246219 L 81.923563 31.464969 L 54.142313 31.464969 Z M 54.142313 59.246219 " transform="matrix(1, 0, 0, -1, -0.447, 60.6095)"/>
<path fill="none" stroke-width="0.3985" stroke-linecap="butt" stroke-linejoin="miter" stroke="rgb(0%, 0%, 0%)" stroke-opacity="1" stroke-miterlimit="10" d="M 54.142313 31.464969 L 81.923563 59.246219 " transform="matrix(1, 0, 0, -1, -0.447, 60.6095)"/>
<path fill="none" stroke-width="0.3985" stroke-linecap="butt" stroke-linejoin="miter" stroke="rgb(0%, 0%, 0%)" stroke-opacity="1" stroke-miterlimit="10" d="M 57.614969 54.035281 L 64.560281 54.035281 " transform="matrix(1, 0, 0, -1, -0.447, 60.6095)"/>
<path fill="none" stroke-width="0.3985" stroke-linecap="butt" stroke-linejoin="miter" stroke="rgb(0%, 0%, 0%)" stroke-opacity="1" stroke-miterlimit="10" d="M 57.614969 50.562625 L 59.005594 50.562625 M 60.392313 50.562625 L 61.782938 50.562625 M 63.169656 50.562625 L 64.560281 50.562625 " transform="matrix(1, 0, 0, -1, -0.447, 60.6095)"/>
<path fill="none" stroke-width="0.3985" stroke-linecap="butt" stroke-linejoin="miter" stroke="rgb(0%, 0%, 0%)" stroke-opacity="1" stroke-miterlimit="10" d="M 71.505594 40.144656 L 78.450906 40.144656 " transform="matrix(1, 0, 0, -1, -0.447, 60.6095)"/>
<path fill="none" stroke-width="0.3985" stroke-linecap="butt" stroke-linejoin="miter" stroke="rgb(0%, 0%, 0%)" stroke-opacity="1" stroke-miterlimit="10" d="M 71.505594 36.672 L 72.892313 36.672 M 74.282938 36.672 L 75.673563 36.672 M 77.060281 36.672 L 78.450906 36.672 " transform="matrix(1, 0, 0, -1, -0.447, 60.6095)"/>
<path fill="none" stroke-width="0.797" stroke-linecap="butt" stroke-linejoin="miter" stroke="rgb(0%, 0%, 0%)" stroke-opacity="1" stroke-miterlimit="10" d="M 99.497781 59.246219 L 127.279031 59.246219 L 127.279031 31.464969 L 99.497781 31.464969 Z M 99.497781 59.246219 " transform="matrix(1, 0, 0, -1, -0.447, 60.6095)"/>
<path fill="none" stroke-width="0.3985" stroke-linecap="butt" stroke-linejoin="miter" stroke="rgb(0%, 0%, 0%)" stroke-opacity="1" stroke-miterlimit="10" d="M 99.497781 31.464969 L 127.279031 59.246219 " transform="matrix(1, 0, 0, -1, -0.447, 60.6095)"/>
<path fill="none" stroke-width="0.3985" stroke-linecap="butt" stroke-linejoin="miter" stroke="rgb(0%, 0%, 0%)" stroke-opacity="1" stroke-miterlimit="10" d="M 102.970438 54.035281 L 109.91575 54.035281 " transform="matrix(1, 0, 0, -1, -0.447, 60.6095)"/>
<path fill="none" stroke-width="0.3985" stroke-linecap="butt" stroke-linejoin="miter" stroke="rgb(0%, 0%, 0%)" stroke-opacity="1" stroke-miterlimit="10" d="M 102.970438 50.562625 L 104.361063 50.562625 M 105.747781 50.562625 L 107.138406 50.562625 M 108.525125 50.562625 L 109.91575 50.562625 " transform="matrix(1, 0, 0, -1, -0.447, 60.6095)"/>
<path fill="none" stroke-width="0.3985" stroke-linecap="butt" stroke-linejoin="miter" stroke="rgb(0%, 0%, 0%)" stroke-opacity="1" stroke-miterlimit="10" d="M 115.333719 38.410281 C 116.10325 39.617313 116.837625 40.769656 117.693094 40.769656 C 118.548563 40.769656 119.286844 39.617313 120.056375 38.410281 C 120.825906 37.199344 121.560281 36.047 122.41575 36.047 C 123.271219 36.047 124.005594 37.199344 124.779031 38.410281 " transform="matrix(1, 0, 0, -1, -0.447, 60.6095)"/>
<g clip-path="url(#clip-1)">
<path fill="none" stroke-width="0.3985" stroke-linecap="butt" stroke-linejoin="miter" stroke="rgb(0%, 0%, 0%)" stroke-opacity="1" stroke-dasharray="2.98883 2.98883" stroke-miterlimit="10" d="M 0.0016875 0.000125 L 8.786844 0.000125 M 36.572 0.000125 L 54.150125 0.000125 M 81.931375 0.000125 L 99.5095 0.000125 M 127.29075 0.000125 L 136.064188 0.000125 " transform="matrix(1, 0, 0, -1, -0.447, 60.6095)"/>
</g>
<g clip-path="url(#clip-2)">
<path fill="none" stroke-width="0.797" stroke-linecap="butt" stroke-linejoin="miter" stroke="rgb(0%, 0%, 0%)" stroke-opacity="1" stroke-dasharray="2.83484 2.83484" stroke-miterlimit="10" d="M 8.786844 13.89075 L 36.568094 13.89075 L 36.568094 -13.8905 L 8.786844 -13.8905 Z M 8.786844 13.89075 " transform="matrix(1, 0, 0, -1, -0.447, 60.6095)"/>
</g>
<g clip-path="url(#clip-3)">
<path fill="none" stroke-width="0.3985" stroke-linecap="butt" stroke-linejoin="miter" stroke="rgb(0%, 0%, 0%)" stroke-opacity="1" stroke-dasharray="2.83484 2.83484" stroke-miterlimit="10" d="M 8.786844 -13.8905 L 36.568094 13.89075 " transform="matrix(1, 0, 0, -1, -0.447, 60.6095)"/>
</g>
<path fill="none" stroke-width="0.3985" stroke-linecap="butt" stroke-linejoin="miter" stroke="rgb(0%, 0%, 0%)" stroke-opacity="1" stroke-miterlimit="10" d="M 12.122781 6.945438 C 12.892313 8.152469 13.626688 9.304813 14.482156 9.304813 C 15.337625 9.304813 16.075906 8.152469 16.845438 6.945438 C 17.614969 5.7345 18.349344 4.582156 19.204813 4.582156 C 20.060281 4.582156 20.794656 5.7345 21.568094 6.945438 " transform="matrix(1, 0, 0, -1, -0.447, 60.6095)"/>
<path fill="none" stroke-width="0.3985" stroke-linecap="butt" stroke-linejoin="miter" stroke="rgb(0%, 0%, 0%)" stroke-opacity="1" stroke-miterlimit="10" d="M 26.150125 -5.206906 L 33.095438 -5.206906 " transform="matrix(1, 0, 0, -1, -0.447, 60.6095)"/>
<path fill="none" stroke-width="0.3985" stroke-linecap="butt" stroke-linejoin="miter" stroke="rgb(0%, 0%, 0%)" stroke-opacity="1" stroke-miterlimit="10" d="M 26.150125 -8.679562 L 28.466531 -8.679562 M 30.779031 -8.679562 L 33.095438 -8.679562 " transform="matrix(1, 0, 0, -1, -0.447, 60.6095)"/>
<g clip-path="url(#clip-4)">
<path fill="none" stroke-width="0.797" stroke-linecap="butt" stroke-linejoin="miter" stroke="rgb(0%, 0%, 0%)" stroke-opacity="1" stroke-dasharray="0.3985 0.3985" stroke-miterlimit="10" d="M 54.142313 13.89075 L 81.923563 13.89075 L 81.923563 -13.8905 L 54.142313 -13.8905 Z M 54.142313 13.89075 " transform="matrix(1, 0, 0, -1, -0.447, 60.6095)"/>
</g>
<g clip-path="url(#clip-5)">
<path fill="none" stroke-width="0.3985" stroke-linecap="butt" stroke-linejoin="miter" stroke="rgb(0%, 0%, 0%)" stroke-opacity="1" stroke-dasharray="0.3985 0.3985" stroke-miterlimit="10" d="M 54.142313 -13.8905 L 81.923563 13.89075 " transform="matrix(1, 0, 0, -1, -0.447, 60.6095)"/>
</g>
<path fill="none" stroke-width="0.3985" stroke-linecap="butt" stroke-linejoin="miter" stroke="rgb(0%, 0%, 0%)" stroke-opacity="1" stroke-dasharray="0.3985 0.3985" stroke-miterlimit="10" d="M 57.614969 8.679813 L 64.560281 8.679813 " transform="matrix(1, 0, 0, -1, -0.447, 60.6095)"/>
<path fill="none" stroke-width="0.3985" stroke-linecap="butt" stroke-linejoin="miter" stroke="rgb(0%, 0%, 0%)" stroke-opacity="1" stroke-dasharray="0.3985 0.3985" stroke-miterlimit="10" d="M 57.614969 5.207156 L 59.931375 5.207156 M 62.243875 5.207156 L 64.560281 5.207156 " transform="matrix(1, 0, 0, -1, -0.447, 60.6095)"/>
<path fill="none" stroke-width="0.3985" stroke-linecap="butt" stroke-linejoin="miter" stroke="rgb(0%, 0%, 0%)" stroke-opacity="1" stroke-dasharray="0.3985 0.3985" stroke-miterlimit="10" d="M 71.505594 -5.206906 L 78.450906 -5.206906 " transform="matrix(1, 0, 0, -1, -0.447, 60.6095)"/>
<path fill="none" stroke-width="0.3985" stroke-linecap="butt" stroke-linejoin="miter" stroke="rgb(0%, 0%, 0%)" stroke-opacity="1" stroke-dasharray="0.3985 0.3985" stroke-miterlimit="10" d="M 71.505594 -8.679562 L 78.450906 -8.679562 " transform="matrix(1, 0, 0, -1, -0.447, 60.6095)"/>
<g clip-path="url(#clip-6)">
<path fill="none" stroke-width="0.797" stroke-linecap="butt" stroke-linejoin="miter" stroke="rgb(0%, 0%, 0%)" stroke-opacity="1" stroke-dasharray="2.83484 2.83484" stroke-miterlimit="10" d="M 99.497781 13.89075 L 127.279031 13.89075 L 127.279031 -13.8905 L 99.497781 -13.8905 Z M 99.497781 13.89075 " transform="matrix(1, 0, 0, -1, -0.447, 60.6095)"/>
</g>
<g clip-path="url(#clip-7)">
<path fill="none" stroke-width="0.3985" stroke-linecap="butt" stroke-linejoin="miter" stroke="rgb(0%, 0%, 0%)" stroke-opacity="1" stroke-dasharray="2.83484 2.83484" stroke-miterlimit="10" d="M 99.497781 -13.8905 L 127.279031 13.89075 " transform="matrix(1, 0, 0, -1, -0.447, 60.6095)"/>
</g>
<path fill="none" stroke-width="0.3985" stroke-linecap="butt" stroke-linejoin="miter" stroke="rgb(0%, 0%, 0%)" stroke-opacity="1" stroke-miterlimit="10" d="M 102.970438 8.679813 L 109.91575 8.679813 " transform="matrix(1, 0, 0, -1, -0.447, 60.6095)"/>
<path fill="none" stroke-width="0.3985" stroke-linecap="butt" stroke-linejoin="miter" stroke="rgb(0%, 0%, 0%)" stroke-opacity="1" stroke-miterlimit="10" d="M 102.970438 5.207156 L 109.91575 5.207156 " transform="matrix(1, 0, 0, -1, -0.447, 60.6095)"/>
<g clip-path="url(#clip-8)">
<path fill="none" stroke-width="0.3985" stroke-linecap="butt" stroke-linejoin="miter" stroke="rgb(0%, 0%, 0%)" stroke-opacity="1" stroke-miterlimit="10" d="M 115.333719 -6.945187 C 116.10325 -5.73425 116.837625 -4.581906 117.693094 -4.581906 C 118.548563 -4.581906 119.286844 -5.73425 120.056375 -6.945187 C 120.825906 -8.152219 121.560281 -9.304562 122.41575 -9.304562 C 123.271219 -9.304562 124.005594 -8.152219 124.779031 -6.945187 " transform="matrix(1, 0, 0, -1, -0.447, 60.6095)"/>
</g>
</svg>
