<?xml version="1.0" encoding="UTF-8"?>
<svg xmlns="http://www.w3.org/2000/svg" xmlns:xlink="http://www.w3.org/1999/xlink" width="166.05" height="89.29" viewBox="0 0 166.05 89.29">
<defs>
<g>
<g id="glyph-0-0">
<path d="M 6.484375 -1.828125 C 6.484375 -2.6875 5.671875 -3.4375 4.5625 -3.5625 C 5.53125 -3.75 6.21875 -4.390625 6.21875 -5.125 C 6.21875 -5.984375 5.296875 -6.8125 4 -6.8125 L 0.359375 -6.8125 L 0.359375 -6.5 L 0.59375 -6.5 C 1.359375 -6.5 1.390625 -6.390625 1.390625 -6.03125 L 1.390625 -0.78125 C 1.390625 -0.421875 1.359375 -0.3125 0.59375 -0.3125 L 0.359375 -0.3125 L 0.359375 0 L 4.265625 0 C 5.59375 0 6.484375 -0.890625 6.484375 -1.828125 Z M 5.25 -5.125 C 5.25 -4.484375 4.765625 -3.65625 3.65625 -3.65625 L 2.21875 -3.65625 L 2.21875 -6.09375 C 2.21875 -6.4375 2.234375 -6.5 2.703125 -6.5 L 3.9375 -6.5 C 4.90625 -6.5 5.25 -5.65625 5.25 -5.125 Z M 5.5 -1.828125 C 5.5 -1.125 4.96875 -0.3125 3.953125 -0.3125 L 2.703125 -0.3125 C 2.234375 -0.3125 2.21875 -0.375 2.21875 -0.703125 L 2.21875 -3.421875 L 4.09375 -3.421875 C 5.078125 -3.421875 5.5 -2.5 5.5 -1.828125 Z M 5.5 -1.828125 "/>
</g>
<g id="glyph-0-1">
<path d="M 7.140625 0 L 7.140625 -0.3125 L 6.96875 -0.3125 C 6.375 -0.3125 6.234375 -0.375 6.125 -0.703125 L 3.96875 -6.9375 C 3.921875 -7.0625 3.890625 -7.140625 3.734375 -7.140625 C 3.578125 -7.140625 3.546875 -7.078125 3.5 -6.9375 L 1.4375 -0.984375 C 1.25 -0.46875 0.859375 -0.3125 0.3125 -0.3125 L 0.3125 0 L 1.328125 -0.03125 L 2.484375 0 L 2.484375 -0.3125 C 1.984375 -0.3125 1.734375 -0.5625 1.734375 -0.8125 C 1.734375 -0.84375 1.75 -0.953125 1.75 -0.96875 L 2.21875 -2.265625 L 4.671875 -2.265625 L 5.203125 -0.75 C 5.21875 -0.703125 5.234375 -0.640625 5.234375 -0.609375 C 5.234375 -0.3125 4.671875 -0.3125 4.40625 -0.3125 L 4.40625 0 C 4.765625 -0.03125 5.46875 -0.03125 5.84375 -0.03125 Z M 4.5625 -2.578125 L 2.328125 -2.578125 L 3.4375 -5.828125 Z M 4.5625 -2.578125 "/>
</g>
<g id="glyph-1-0">
<path d="M 4.46875 -1.734375 L 4.234375 -1.734375 C 4.171875 -1.4375 4.109375 -1 4 -0.84375 C 3.9375 -0.765625 3.28125 -0.765625 3.0625 -0.765625 L 1.265625 -0.765625 L 2.328125 -1.796875 C 3.875 -3.171875 4.46875 -3.703125 4.46875 -4.703125 C 4.46875 -5.84375 3.578125 -6.640625 2.359375 -6.640625 C 1.234375 -6.640625 0.5 -5.71875 0.5 -4.828125 C 0.5 -4.28125 1 -4.28125 1.03125 -4.28125 C 1.203125 -4.28125 1.546875 -4.390625 1.546875 -4.8125 C 1.546875 -5.0625 1.359375 -5.328125 1.015625 -5.328125 C 0.9375 -5.328125 0.921875 -5.328125 0.890625 -5.3125 C 1.109375 -5.96875 1.65625 -6.328125 2.234375 -6.328125 C 3.140625 -6.328125 3.5625 -5.515625 3.5625 -4.703125 C 3.5625 -3.90625 3.078125 -3.125 2.515625 -2.5 L 0.609375 -0.375 C 0.5 -0.265625 0.5 -0.234375 0.5 0 L 4.203125 0 Z M 4.46875 -1.734375 "/>
</g>
<g id="glyph-1-1">
<path d="M 4.578125 -3.1875 C 4.578125 -3.984375 4.53125 -4.78125 4.1875 -5.515625 C 3.734375 -6.484375 2.90625 -6.640625 2.5 -6.640625 C 1.890625 -6.640625 1.171875 -6.375 0.75 -5.453125 C 0.4375 -4.765625 0.390625 -3.984375 0.390625 -3.1875 C 0.390625 -2.4375 0.421875 -1.546875 0.84375 -0.78125 C 1.265625 0.015625 2 0.21875 2.484375 0.21875 C 3.015625 0.21875 3.78125 0.015625 4.21875 -0.9375 C 4.53125 -1.625 4.578125 -2.40625 4.578125 -3.1875 Z M 3.765625 -3.3125 C 3.765625 -2.5625 3.765625 -1.890625 3.65625 -1.25 C 3.5 -0.296875 2.9375 0 2.484375 0 C 2.09375 0 1.5 -0.25 1.328125 -1.203125 C 1.21875 -1.796875 1.21875 -2.71875 1.21875 -3.3125 C 1.21875 -3.953125 1.21875 -4.609375 1.296875 -5.140625 C 1.484375 -6.328125 2.234375 -6.421875 2.484375 -6.421875 C 2.8125 -6.421875 3.46875 -6.234375 3.65625 -5.25 C 3.765625 -4.6875 3.765625 -3.9375 3.765625 -3.3125 Z M 3.765625 -3.3125 "/>
</g>
<g id="glyph-1-2">
<path d="M 6.75 -1.609375 L 6.5 -1.609375 C 6.453125 -1.359375 6.40625 -1.125 6.3125 -0.890625 C 6.265625 -0.734375 6.234375 -0.640625 5.65625 -0.640625 L 4.859375 -0.640625 C 5 -1.203125 5.296875 -1.6875 5.75 -2.34375 C 6.21875 -3.046875 6.625 -3.734375 6.625 -4.53125 C 6.625 -5.90625 5.28125 -7.03125 3.59375 -7.03125 C 1.890625 -7.03125 0.5625 -5.890625 0.5625 -4.53125 C 0.5625 -3.734375 0.96875 -3.046875 1.4375 -2.34375 C 1.875 -1.6875 2.1875 -1.203125 2.328125 -0.640625 L 1.53125 -0.640625 C 0.953125 -0.640625 0.921875 -0.734375 0.875 -0.875 C 0.78125 -1.109375 0.734375 -1.359375 0.6875 -1.609375 L 0.4375 -1.609375 L 0.765625 0 L 2.359375 0 C 2.578125 0 2.609375 0 2.609375 -0.203125 C 2.609375 -0.90625 2.296875 -1.78125 2.078125 -2.421875 C 1.859375 -3 1.578125 -3.78125 1.578125 -4.53125 C 1.578125 -6.125 2.6875 -6.8125 3.59375 -6.8125 C 4.546875 -6.8125 5.609375 -6.09375 5.609375 -4.53125 C 5.609375 -3.78125 5.328125 -3.03125 5.046875 -2.21875 C 4.890625 -1.796875 4.578125 -0.890625 4.578125 -0.203125 C 4.578125 0 4.609375 0 4.828125 0 L 6.421875 0 Z M 6.75 -1.609375 "/>
</g>
<g id="glyph-1-3">
<path d="M 4.171875 0 L 4.171875 -0.3125 L 3.859375 -0.3125 C 2.953125 -0.3125 2.9375 -0.421875 2.9375 -0.78125 L 2.9375 -6.375 C 2.9375 -6.625 2.9375 -6.640625 2.703125 -6.640625 C 2.078125 -6 1.203125 -6 0.890625 -6 L 0.890625 -5.6875 C 1.09375 -5.6875 1.671875 -5.6875 2.1875 -5.953125 L 2.1875 -0.78125 C 2.1875 -0.421875 2.15625 -0.3125 1.265625 -0.3125 L 0.953125 -0.3125 L 0.953125 0 C 1.296875 -0.03125 2.15625 -0.03125 2.5625 -0.03125 C 2.953125 -0.03125 3.828125 -0.03125 4.171875 0 Z M 4.171875 0 "/>
</g>
<g id="glyph-1-4">
<path d="M 4.46875 -2 C 4.46875 -3.1875 3.65625 -4.1875 2.578125 -4.1875 C 2.109375 -4.1875 1.671875 -4.03125 1.3125 -3.671875 L 1.3125 -5.625 C 1.515625 -5.5625 1.84375 -5.5 2.15625 -5.5 C 3.390625 -5.5 4.09375 -6.40625 4.09375 -6.53125 C 4.09375 -6.59375 4.0625 -6.640625 3.984375 -6.640625 C 3.984375 -6.640625 3.953125 -6.640625 3.90625 -6.609375 C 3.703125 -6.515625 3.21875 -6.3125 2.546875 -6.3125 C 2.15625 -6.3125 1.6875 -6.390625 1.21875 -6.59375 C 1.140625 -6.625 1.109375 -6.625 1.109375 -6.625 C 1 -6.625 1 -6.546875 1 -6.390625 L 1 -3.4375 C 1 -3.265625 1 -3.1875 1.140625 -3.1875 C 1.21875 -3.1875 1.234375 -3.203125 1.28125 -3.265625 C 1.390625 -3.421875 1.75 -3.96875 2.5625 -3.96875 C 3.078125 -3.96875 3.328125 -3.515625 3.40625 -3.328125 C 3.5625 -2.953125 3.59375 -2.578125 3.59375 -2.078125 C 3.59375 -1.71875 3.59375 -1.125 3.34375 -0.703125 C 3.109375 -0.3125 2.734375 -0.0625 2.28125 -0.0625 C 1.5625 -0.0625 0.984375 -0.59375 0.8125 -1.171875 C 0.84375 -1.171875 0.875 -1.15625 0.984375 -1.15625 C 1.3125 -1.15625 1.484375 -1.40625 1.484375 -1.640625 C 1.484375 -1.890625 1.3125 -2.140625 0.984375 -2.140625 C 0.84375 -2.140625 0.5 -2.0625 0.5 -1.609375 C 0.5 -0.75 1.1875 0.21875 2.296875 0.21875 C 3.453125 0.21875 4.46875 -0.734375 4.46875 -2 Z M 4.46875 -2 "/>
</g>
<g id="glyph-2-0">
<path d="M 4.671875 -3.703125 C 4.671875 -4.25 4.40625 -4.40625 4.234375 -4.40625 C 3.984375 -4.40625 3.734375 -4.140625 3.734375 -3.921875 C 3.734375 -3.796875 3.78125 -3.734375 3.890625 -3.625 C 4.109375 -3.421875 4.234375 -3.171875 4.234375 -2.8125 C 4.234375 -2.390625 3.625 -0.109375 2.46875 -0.109375 C 1.953125 -0.109375 1.71875 -0.453125 1.71875 -0.984375 C 1.71875 -1.53125 2 -2.265625 2.296875 -3.09375 C 2.375 -3.265625 2.421875 -3.40625 2.421875 -3.59375 C 2.421875 -4.03125 2.109375 -4.40625 1.609375 -4.40625 C 0.671875 -4.40625 0.296875 -2.953125 0.296875 -2.875 C 0.296875 -2.765625 0.40625 -2.765625 0.40625 -2.765625 C 0.515625 -2.765625 0.515625 -2.796875 0.5625 -2.953125 C 0.859375 -3.953125 1.28125 -4.1875 1.578125 -4.1875 C 1.65625 -4.1875 1.828125 -4.1875 1.828125 -3.875 C 1.828125 -3.625 1.71875 -3.34375 1.65625 -3.171875 C 1.21875 -2.015625 1.09375 -1.5625 1.09375 -1.125 C 1.09375 -0.046875 1.96875 0.109375 2.421875 0.109375 C 4.09375 0.109375 4.671875 -3.1875 4.671875 -3.703125 Z M 4.671875 -3.703125 "/>
</g>
<g id="glyph-3-0">
<path d="M 3.90625 -1 C 3.90625 -1.09375 3.8125 -1.09375 3.796875 -1.09375 C 3.6875 -1.09375 3.6875 -1.046875 3.65625 -0.96875 C 3.515625 -0.484375 3.09375 -0.125 2.703125 -0.125 C 2.421875 -0.125 2.28125 -0.3125 2.28125 -0.578125 C 2.28125 -0.765625 2.453125 -1.390625 2.640625 -2.171875 C 2.78125 -2.703125 3.09375 -2.875 3.328125 -2.875 C 3.328125 -2.875 3.546875 -2.875 3.703125 -2.78125 C 3.484375 -2.71875 3.390625 -2.515625 3.390625 -2.390625 C 3.390625 -2.25 3.515625 -2.140625 3.671875 -2.140625 C 3.828125 -2.140625 4.0625 -2.265625 4.0625 -2.5625 C 4.0625 -2.953125 3.609375 -3.078125 3.34375 -3.078125 C 2.984375 -3.078125 2.703125 -2.84375 2.5625 -2.578125 C 2.4375 -2.859375 2.109375 -3.078125 1.71875 -3.078125 C 0.9375 -3.078125 0.5 -2.21875 0.5 -2 C 0.5 -1.921875 0.59375 -1.921875 0.609375 -1.921875 C 0.703125 -1.921875 0.703125 -1.9375 0.75 -2.03125 C 0.921875 -2.578125 1.359375 -2.875 1.703125 -2.875 C 1.9375 -2.875 2.125 -2.75 2.125 -2.421875 C 2.125 -2.28125 2.03125 -1.9375 1.96875 -1.6875 L 1.734375 -0.734375 C 1.671875 -0.5 1.4375 -0.125 1.078125 -0.125 C 1.0625 -0.125 0.84375 -0.125 0.703125 -0.21875 C 0.984375 -0.3125 1.015625 -0.5625 1.015625 -0.609375 C 1.015625 -0.765625 0.890625 -0.859375 0.734375 -0.859375 C 0.53125 -0.859375 0.328125 -0.703125 0.328125 -0.4375 C 0.328125 -0.09375 0.71875 0.0625 1.0625 0.0625 C 1.390625 0.0625 1.671875 -0.125 1.84375 -0.421875 C 2.015625 -0.0625 2.390625 0.0625 2.671875 0.0625 C 3.484375 0.0625 3.90625 -0.796875 3.90625 -1 Z M 3.90625 -1 "/>
</g>
<g id="glyph-4-0">
<path d="M 3.90625 -1.296875 C 3.90625 -1.921875 3.46875 -2.515625 2.765625 -2.671875 L 1.734375 -2.90625 C 1.125 -3.046875 0.9375 -3.484375 0.9375 -3.78125 C 0.9375 -4.234375 1.359375 -4.671875 2 -4.671875 C 2.9375 -4.671875 3.34375 -4.046875 3.453125 -3.3125 C 3.46875 -3.21875 3.46875 -3.171875 3.578125 -3.171875 C 3.6875 -3.171875 3.6875 -3.21875 3.6875 -3.359375 L 3.6875 -4.71875 C 3.6875 -4.84375 3.6875 -4.90625 3.59375 -4.90625 C 3.546875 -4.90625 3.53125 -4.875 3.484375 -4.796875 L 3.21875 -4.40625 C 2.765625 -4.875 2.1875 -4.90625 2 -4.90625 C 1.109375 -4.90625 0.484375 -4.265625 0.484375 -3.5625 C 0.484375 -3.171875 0.65625 -2.875 0.90625 -2.640625 C 1.1875 -2.375 1.421875 -2.328125 2.171875 -2.15625 C 2.8125 -2.015625 2.953125 -1.984375 3.15625 -1.796875 C 3.3125 -1.625 3.453125 -1.40625 3.453125 -1.09375 C 3.453125 -0.609375 3.046875 -0.109375 2.390625 -0.109375 C 1.703125 -0.109375 0.78125 -0.375 0.71875 -1.421875 C 0.71875 -1.546875 0.71875 -1.578125 0.609375 -1.578125 C 0.484375 -1.578125 0.484375 -1.53125 0.484375 -1.390625 L 0.484375 -0.046875 C 0.484375 0.078125 0.484375 0.140625 0.578125 0.140625 C 0.640625 0.140625 0.65625 0.125 0.703125 0.0625 C 0.765625 -0.03125 0.90625 -0.25 0.953125 -0.34375 C 1.390625 0.046875 1.9375 0.140625 2.390625 0.140625 C 3.296875 0.140625 3.90625 -0.546875 3.90625 -1.296875 Z M 3.90625 -1.296875 "/>
</g>
<g id="glyph-4-1">
<path d="M 3.515625 -1.40625 C 3.515625 -2.1875 2.921875 -2.90625 2.0625 -2.90625 C 1.75 -2.90625 1.390625 -2.84375 1.078125 -2.578125 L 1.078125 -3.890625 C 1.4375 -3.796875 1.640625 -3.796875 1.75 -3.796875 C 2.671875 -3.796875 3.21875 -4.421875 3.21875 -4.53125 C 3.21875 -4.609375 3.171875 -4.625 3.140625 -4.625 C 3.140625 -4.625 3.109375 -4.625 3.078125 -4.609375 C 2.90625 -4.546875 2.546875 -4.40625 2.03125 -4.40625 C 1.828125 -4.40625 1.46875 -4.421875 1.015625 -4.59375 C 0.9375 -4.625 0.921875 -4.625 0.921875 -4.625 C 0.828125 -4.625 0.828125 -4.546875 0.828125 -4.4375 L 0.828125 -2.390625 C 0.828125 -2.265625 0.828125 -2.1875 0.9375 -2.1875 C 1 -2.1875 1.015625 -2.1875 1.078125 -2.28125 C 1.375 -2.65625 1.8125 -2.71875 2.046875 -2.71875 C 2.46875 -2.71875 2.65625 -2.390625 2.6875 -2.328125 C 2.8125 -2.09375 2.859375 -1.828125 2.859375 -1.421875 C 2.859375 -1.21875 2.859375 -0.8125 2.640625 -0.5 C 2.46875 -0.25 2.171875 -0.078125 1.828125 -0.078125 C 1.375 -0.078125 0.90625 -0.328125 0.734375 -0.796875 C 1 -0.78125 1.140625 -0.953125 1.140625 -1.140625 C 1.140625 -1.4375 0.875 -1.484375 0.78125 -1.484375 C 0.78125 -1.484375 0.4375 -1.484375 0.4375 -1.109375 C 0.4375 -0.484375 1.015625 0.140625 1.84375 0.140625 C 2.734375 0.140625 3.515625 -0.515625 3.515625 -1.40625 Z M 3.515625 -1.40625 "/>
</g>
</g>
<clipPath id="clip-0">
<path clip-rule="nonzero" d="M 4 11 L 152 11 L 152 88.933594 L 4 88.933594 Z M 4 11 "/>
</clipPath>
<clipPath id="clip-1">
<path clip-rule="nonzero" d="M 0 82 L 7 82 L 7 88.933594 L 0 88.933594 Z M 0 82 "/>
</clipPath>
<clipPath id="clip-2">
<path clip-rule="nonzero" d="M 2 78 L 18 78 L 18 88.933594 L 2 88.933594 Z M 2 78 "/>
</clipPath>
<clipPath id="clip-3">
<path clip-rule="nonzero" d="M 36 78 L 52 78 L 52 88.933594 L 36 88.933594 Z M 36 78 "/>
</clipPath>
<clipPath id="clip-4">
<path clip-rule="nonzero" d="M 36 78 L 52 78 L 52 88.933594 L 36 88.933594 Z M 36 78 "/>
</clipPath>
<clipPath id="clip-5">
<path clip-rule="nonzero" d="M 121 26 L 165.574219 26 L 165.574219 77 L 121 77 Z M 121 26 "/>
</clipPath>
<clipPath id="clip-6">
<path clip-rule="nonzero" d="M 139 78 L 154 78 L 154 88.933594 L 139 88.933594 Z M 139 78 "/>
</clipPath>
<clipPath id="clip-7">
<path clip-rule="nonzero" d="M 161 76 L 165.574219 76 L 165.574219 80 L 161 80 Z M 161 76 "/>
</clipPath>
<clipPath id="clip-8">
<path clip-rule="nonzero" d="M 105 78 L 120 78 L 120 88.933594 L 105 88.933594 Z M 105 78 "/>
</clipPath>
</defs>
<g clip-path="url(#clip-0)">
<path fill="none" stroke-width="0.3985" stroke-linecap="butt" stroke-linejoin="miter" stroke="rgb(0%, 0%, 0%)" stroke-opacity="1" stroke-miterlimit="10" d="M -0.00178125 0.00028125 L 17.013844 0.00028125 M 17.013844 0.00028125 L 34.01775 0.00028125 L 34.029469 18.148719 M 34.029469 49.910438 L 34.01775 68.031531 L 52.177906 68.058875 M 91.58025 64.281531 C 71.646656 54.433875 64.494312 54.433875 44.603687 64.281531 M 83.939625 68.058875 L 102.049 68.031531 L 136.064625 68.031531 L 136.115406 47.926063 M 136.115406 20.133094 L 136.064625 0.00028125 L 102.049 0.00028125 L 102.088062 18.148719 M 102.088062 49.910438 L 102.049 68.031531 M 102.049 0.00028125 L 34.01775 0.00028125 M 34.01775 68.031531 L 17.013844 68.058875 M 17.013844 68.058875 L -0.00178125 68.031531 " transform="matrix(1, 0, 0, -1, 10.201, 85.512)"/>
</g>
<g clip-path="url(#clip-1)">
<g fill="rgb(0%, 0%, 0%)" fill-opacity="1">
<use xlink:href="#glyph-0-0" x="-0.375" y="88.944"/>
</g>
</g>
<path fill-rule="nonzero" fill="rgb(100%, 100%, 100%)" fill-opacity="1" d="M 11.789062 85.511719 C 11.789062 84.636719 11.078125 83.925781 10.199219 83.925781 C 9.324219 83.925781 8.613281 84.636719 8.613281 85.511719 C 8.613281 86.386719 9.324219 87.097656 10.199219 87.097656 C 11.078125 87.097656 11.789062 86.386719 11.789062 85.511719 Z M 11.789062 85.511719 "/>
<g clip-path="url(#clip-2)">
<path fill="none" stroke-width="0.3985" stroke-linecap="butt" stroke-linejoin="miter" stroke="rgb(0%, 0%, 0%)" stroke-opacity="1" stroke-miterlimit="10" d="M 1.588062 0.00028125 C 1.588062 0.875281 0.877125 1.586219 -0.00178125 1.586219 C -0.876781 1.586219 -1.587719 0.875281 -1.587719 0.00028125 C -1.587719 -0.874719 -0.876781 -1.585656 -0.00178125 -1.585656 C 0.877125 -1.585656 1.588062 -0.874719 1.588062 0.00028125 Z M 1.588062 0.00028125 " transform="matrix(1, 0, 0, -1, 10.201, 85.512)"/>
</g>
<path fill-rule="nonzero" fill="rgb(0%, 0%, 0%)" fill-opacity="1" d="M 45.804688 85.511719 C 45.804688 84.636719 45.09375 83.925781 44.21875 83.925781 C 43.339844 83.925781 42.628906 84.636719 42.628906 85.511719 C 42.628906 86.386719 43.339844 87.097656 44.21875 87.097656 C 45.09375 87.097656 45.804688 86.386719 45.804688 85.511719 Z M 45.804688 85.511719 "/>
<g clip-path="url(#clip-3)">
<path fill="none" stroke-width="0.3985" stroke-linecap="butt" stroke-linejoin="miter" stroke="rgb(0%, 0%, 0%)" stroke-opacity="1" stroke-miterlimit="10" d="M 35.603687 0.00028125 C 35.603687 0.875281 34.89275 1.586219 34.01775 1.586219 C 33.138844 1.586219 32.427906 0.875281 32.427906 0.00028125 C 32.427906 -0.874719 33.138844 -1.585656 34.01775 -1.585656 C 34.89275 -1.585656 35.603687 -0.874719 35.603687 0.00028125 Z M 35.603687 0.00028125 " transform="matrix(1, 0, 0, -1, 10.201, 85.512)"/>
</g>
<path fill="none" stroke-width="0.797" stroke-linecap="butt" stroke-linejoin="bevel" stroke="rgb(0%, 0%, 0%)" stroke-opacity="1" stroke-miterlimit="10" d="M 34.01775 17.742469 L 28.064625 20.789344 L 39.966969 26.078406 L 28.064625 31.371375 L 39.966969 36.660438 L 28.064625 41.953406 L 39.966969 47.246375 L 34.01775 50.289344 " transform="matrix(1, 0, 0, -1, 10.201, 85.512)"/>
<path fill-rule="nonzero" fill="rgb(0%, 0%, 0%)" fill-opacity="1" d="M 45.804688 85.511719 C 45.804688 84.636719 45.09375 83.925781 44.21875 83.925781 C 43.339844 83.925781 42.628906 84.636719 42.628906 85.511719 C 42.628906 86.386719 43.339844 87.097656 44.21875 87.097656 C 45.09375 87.097656 45.804688 86.386719 45.804688 85.511719 Z M 45.804688 85.511719 "/>
<g clip-path="url(#clip-4)">
<path fill="none" stroke-width="0.3985" stroke-linecap="butt" stroke-linejoin="miter" stroke="rgb(0%, 0%, 0%)" stroke-opacity="1" stroke-miterlimit="10" d="M 35.603687 0.00028125 C 35.603687 0.875281 34.89275 1.586219 34.01775 1.586219 C 33.138844 1.586219 32.427906 0.875281 32.427906 0.00028125 C 32.427906 -0.874719 33.138844 -1.585656 34.01775 -1.585656 C 34.89275 -1.585656 35.603687 -0.874719 35.603687 0.00028125 Z M 35.603687 0.00028125 " transform="matrix(1, 0, 0, -1, 10.201, 85.512)"/>
</g>
<path fill-rule="nonzero" fill="rgb(0%, 0%, 0%)" fill-opacity="1" stroke-width="0.3985" stroke-linecap="butt" stroke-linejoin="miter" stroke="rgb(0%, 0%, 0%)" stroke-opacity="1" stroke-miterlimit="10" d="M 35.603687 68.031531 C 35.603687 68.910438 34.89275 69.617469 34.01775 69.617469 C 33.138844 69.617469 32.427906 68.910438 32.427906 68.031531 C 32.427906 67.156531 33.138844 66.445594 34.01775 66.445594 C 34.89275 66.445594 35.603687 67.156531 35.603687 68.031531 Z M 35.603687 68.031531 " transform="matrix(1, 0, 0, -1, 10.201, 85.512)"/>
<g fill="rgb(0%, 0%, 0%)" fill-opacity="1">
<use xlink:href="#glyph-1-0" x="17.521" y="53.628"/>
<use xlink:href="#glyph-1-1" x="22.5023" y="53.628"/>
</g>
<g fill="rgb(0%, 0%, 0%)" fill-opacity="1">
<use xlink:href="#glyph-1-2" x="29.147354" y="53.628"/>
</g>
<path fill="none" stroke-width="0.797" stroke-linecap="butt" stroke-linejoin="bevel" stroke="rgb(0%, 0%, 0%)" stroke-opacity="1" stroke-miterlimit="10" d="M 51.759937 68.031531 L 54.802906 73.984656 L 60.095875 62.078406 L 65.384937 73.984656 L 70.677906 62.078406 L 75.970875 73.984656 L 81.259937 62.078406 L 84.302906 68.031531 " transform="matrix(1, 0, 0, -1, 10.201, 85.512)"/>
<g fill="rgb(0%, 0%, 0%)" fill-opacity="1">
<use xlink:href="#glyph-1-3" x="68.863" y="7.672"/>
<use xlink:href="#glyph-1-1" x="73.8443" y="7.672"/>
</g>
<g fill="rgb(0%, 0%, 0%)" fill-opacity="1">
<use xlink:href="#glyph-1-2" x="80.489354" y="7.672"/>
</g>
<path fill-rule="nonzero" fill="rgb(0%, 0%, 0%)" fill-opacity="1" stroke-width="0.3985" stroke-linecap="butt" stroke-linejoin="miter" stroke="rgb(0%, 0%, 0%)" stroke-opacity="1" stroke-miterlimit="10" d="M 48.381031 62.410438 L 49.263844 64.191688 L 44.603687 64.281531 L 47.502125 60.633094 Z M 48.381031 62.410438 " transform="matrix(1, 0, 0, -1, 10.201, 85.512)"/>
<g fill="rgb(0%, 0%, 0%)" fill-opacity="1">
<use xlink:href="#glyph-2-0" x="73.376" y="37.54"/>
</g>
<g fill="rgb(0%, 0%, 0%)" fill-opacity="1">
<use xlink:href="#glyph-3-0" x="78.205" y="39.035"/>
</g>
<g clip-path="url(#clip-5)">
<path fill="none" stroke-width="0.797" stroke-linecap="butt" stroke-linejoin="miter" stroke="rgb(0%, 0%, 0%)" stroke-opacity="1" stroke-miterlimit="10" d="M 136.064625 47.906531 L 149.95525 34.015906 L 136.064625 20.125281 L 122.174 34.015906 Z M 136.064625 47.906531 " transform="matrix(1, 0, 0, -1, 10.201, 85.512)"/>
</g>
<path fill="none" stroke-width="0.797" stroke-linecap="butt" stroke-linejoin="miter" stroke="rgb(0%, 0%, 0%)" stroke-opacity="1" stroke-miterlimit="10" d="M 149.95525 34.015906 L 122.174 34.015906 " transform="matrix(1, 0, 0, -1, 10.201, 85.512)"/>
<path fill-rule="nonzero" fill="rgb(0%, 0%, 0%)" fill-opacity="1" stroke-width="0.3985" stroke-linecap="butt" stroke-linejoin="miter" stroke="rgb(0%, 0%, 0%)" stroke-opacity="1" stroke-miterlimit="10" d="M 137.650562 68.031531 C 137.650562 68.910438 136.939625 69.617469 136.064625 69.617469 C 135.189625 69.617469 134.478687 68.910438 134.478687 68.031531 C 134.478687 67.156531 135.189625 66.445594 136.064625 66.445594 C 136.939625 66.445594 137.650562 67.156531 137.650562 68.031531 Z M 137.650562 68.031531 " transform="matrix(1, 0, 0, -1, 10.201, 85.512)"/>
<path fill-rule="nonzero" fill="rgb(0%, 0%, 0%)" fill-opacity="1" d="M 147.851562 85.511719 C 147.851562 84.636719 147.140625 83.925781 146.265625 83.925781 C 145.390625 83.925781 144.679688 84.636719 144.679688 85.511719 C 144.679688 86.386719 145.390625 87.097656 146.265625 87.097656 C 147.140625 87.097656 147.851562 86.386719 147.851562 85.511719 Z M 147.851562 85.511719 "/>
<g clip-path="url(#clip-6)">
<path fill="none" stroke-width="0.3985" stroke-linecap="butt" stroke-linejoin="miter" stroke="rgb(0%, 0%, 0%)" stroke-opacity="1" stroke-miterlimit="10" d="M 137.650562 0.00028125 C 137.650562 0.875281 136.939625 1.586219 136.064625 1.586219 C 135.189625 1.586219 134.478687 0.875281 134.478687 0.00028125 C 134.478687 -0.874719 135.189625 -1.585656 136.064625 -1.585656 C 136.939625 -1.585656 137.650562 -0.874719 137.650562 0.00028125 Z M 137.650562 0.00028125 " transform="matrix(1, 0, 0, -1, 10.201, 85.512)"/>
</g>
<path fill-rule="nonzero" fill="rgb(0%, 0%, 0%)" fill-opacity="1" stroke-width="0.3985" stroke-linecap="butt" stroke-linejoin="miter" stroke="rgb(0%, 0%, 0%)" stroke-opacity="1" stroke-miterlimit="10" d="M 136.14275 11.808875 L 134.158375 11.808875 L 136.14275 7.590125 L 138.127125 11.808875 Z M 136.14275 11.808875 " transform="matrix(1, 0, 0, -1, 10.201, 85.512)"/>
<g fill="rgb(0%, 0%, 0%)" fill-opacity="1">
<use xlink:href="#glyph-4-0" x="151.084" y="74.163"/>
</g>
<path fill="none" stroke-width="0.398" stroke-linecap="butt" stroke-linejoin="miter" stroke="rgb(0%, 0%, 0%)" stroke-opacity="1" stroke-miterlimit="10" d="M 0.0019375 0.00025 L 4.400375 0.00025 " transform="matrix(1, 0, 0, -1, 151.084, 75.594)"/>
<g fill="rgb(0%, 0%, 0%)" fill-opacity="1">
<use xlink:href="#glyph-4-1" x="151.299" y="81.521"/>
</g>
<g fill="rgb(0%, 0%, 0%)" fill-opacity="1">
<use xlink:href="#glyph-2-0" x="156.68" y="78.085"/>
</g>
<g clip-path="url(#clip-7)">
<g fill="rgb(0%, 0%, 0%)" fill-opacity="1">
<use xlink:href="#glyph-3-0" x="161.509" y="79.58"/>
</g>
</g>
<path fill="none" stroke-width="0.797" stroke-linecap="butt" stroke-linejoin="bevel" stroke="rgb(0%, 0%, 0%)" stroke-opacity="1" stroke-miterlimit="10" d="M 102.049 17.742469 L 96.095875 20.789344 L 108.002125 26.078406 L 96.095875 31.371375 L 108.002125 36.660438 L 96.095875 41.953406 L 108.002125 47.246375 L 102.049 50.289344 " transform="matrix(1, 0, 0, -1, 10.201, 85.512)"/>
<path fill-rule="nonzero" fill="rgb(0%, 0%, 0%)" fill-opacity="1" d="M 113.835938 85.511719 C 113.835938 84.636719 113.125 83.925781 112.25 83.925781 C 111.371094 83.925781 110.660156 84.636719 110.660156 85.511719 C 110.660156 86.386719 111.371094 87.097656 112.25 87.097656 C 113.125 87.097656 113.835938 86.386719 113.835938 85.511719 Z M 113.835938 85.511719 "/>
<g clip-path="url(#clip-8)">
<path fill="none" stroke-width="0.3985" stroke-linecap="butt" stroke-linejoin="miter" stroke="rgb(0%, 0%, 0%)" stroke-opacity="1" stroke-miterlimit="10" d="M 103.634937 0.00028125 C 103.634937 0.875281 102.924 1.586219 102.049 1.586219 C 101.170094 1.586219 100.459156 0.875281 100.459156 0.00028125 C 100.459156 -0.874719 101.170094 -1.585656 102.049 -1.585656 C 102.924 -1.585656 103.634937 -0.874719 103.634937 0.00028125 Z M 103.634937 0.00028125 " transform="matrix(1, 0, 0, -1, 10.201, 85.512)"/>
</g>
<path fill-rule="nonzero" fill="rgb(0%, 0%, 0%)" fill-opacity="1" stroke-width="0.3985" stroke-linecap="butt" stroke-linejoin="miter" stroke="rgb(0%, 0%, 0%)" stroke-opacity="1" stroke-miterlimit="10" d="M 103.634937 68.031531 C 103.634937 68.910438 102.924 69.617469 102.049 69.617469 C 101.170094 69.617469 100.459156 68.910438 100.459156 68.031531 C 100.459156 67.156531 101.170094 66.445594 102.049 66.445594 C 102.924 66.445594 103.634937 67.156531 103.634937 68.031531 Z M 103.634937 68.031531 " transform="matrix(1, 0, 0, -1, 10.201, 85.512)"/>
<g fill="rgb(0%, 0%, 0%)" fill-opacity="1">
<use xlink:href="#glyph-1-4" x="90.56" y="53.628"/>
</g>
<g fill="rgb(0%, 0%, 0%)" fill-opacity="1">
<use xlink:href="#glyph-1-2" x="97.205054" y="53.628"/>
</g>
<path fill-rule="nonzero" fill="rgb(100%, 100%, 100%)" fill-opacity="1" stroke-width="0.3985" stroke-linecap="butt" stroke-linejoin="miter" stroke="rgb(0%, 0%, 0%)" stroke-opacity="1" stroke-miterlimit="10" d="M 1.588062 68.031531 C 1.588062 68.910438 0.877125 69.617469 -0.00178125 69.617469 C -0.876781 69.617469 -1.587719 68.910438 -1.587719 68.031531 C -1.587719 67.156531 -0.876781 66.445594 -0.00178125 66.445594 C 0.877125 66.445594 1.588062 67.156531 1.588062 68.031531 Z M 1.588062 68.031531 " transform="matrix(1, 0, 0, -1, 10.201, 85.512)"/>
<g fill="rgb(0%, 0%, 0%)" fill-opacity="1">
<use xlink:href="#glyph-0-1" x="-0.791" y="20.912"/>
</g>
</svg>
