<?xml version="1.0" encoding="UTF-8"?>
<svg xmlns="http://www.w3.org/2000/svg" xmlns:xlink="http://www.w3.org/1999/xlink" width="24.236pt" height="45.064pt" viewBox="0 0 24.236 45.064">
<defs>
<clipPath id="clip-0">
<path clip-rule="nonzero" d="M 6 0 L 23.855469 0 L 23.855469 25 L 6 25 Z M 6 0 "/>
</clipPath>
<clipPath id="clip-1">
<path clip-rule="nonzero" d="M 6 20 L 23.855469 20 L 23.855469 44.597656 L 6 44.597656 Z M 6 20 "/>
</clipPath>
</defs>
<g clip-path="url(#clip-0)">
<path fill="none" stroke-width="0.3985" stroke-linecap="butt" stroke-linejoin="miter" stroke="rgb(0%, 0%, 0%)" stroke-opacity="1" stroke-miterlimit="10" d="M -0.00128125 22.02775 L -0.00128125 9.820719 L -11.907531 3.273844 " transform="matrix(1, 0, 0, -1, 23.638, 22.559)"/>
</g>
<path fill="none" stroke-width="0.797" stroke-linecap="butt" stroke-linejoin="miter" stroke="rgb(0%, 0%, 0%)" stroke-opacity="1" stroke-miterlimit="10" d="M -14.763 8.930094 L -14.763 -8.929281 " transform="matrix(1, 0, 0, -1, 23.638, 22.559)"/>
<path fill="none" stroke-width="0.797" stroke-linecap="butt" stroke-linejoin="miter" stroke="rgb(0%, 0%, 0%)" stroke-opacity="1" stroke-miterlimit="10" d="M -11.907531 8.930094 L -11.907531 -8.929281 " transform="matrix(1, 0, 0, -1, 23.638, 22.559)"/>
<g clip-path="url(#clip-1)">
<path fill="none" stroke-width="0.3985" stroke-linecap="butt" stroke-linejoin="miter" stroke="rgb(0%, 0%, 0%)" stroke-opacity="1" stroke-miterlimit="10" d="M -11.907531 -3.273031 L -0.00128125 -9.823812 L -0.00128125 -22.026937 " transform="matrix(1, 0, 0, -1, 23.638, 22.559)"/>
</g>
<path fill-rule="nonzero" fill="rgb(0%, 0%, 0%)" fill-opacity="1" d="M 19.382812 15.078125 L 20.484375 17.082031 L 14.902344 17.539062 L 18.277344 13.074219 Z M 19.382812 15.078125 "/>
<path fill="none" stroke-width="0.3985" stroke-linecap="butt" stroke-linejoin="miter" stroke="rgb(0%, 0%, 0%)" stroke-opacity="1" stroke-miterlimit="10" d="M -14.763 8.730875 L -24.009094 8.730875 " transform="matrix(1, 0, 0, -1, 23.638, 22.559)"/>
</svg>
