<?xml version="1.0" encoding="UTF-8"?>
<svg xmlns="http://www.w3.org/2000/svg" xmlns:xlink="http://www.w3.org/1999/xlink" width="43.676pt" height="34.372pt" viewBox="0 0 43.676 34.372">
<defs>
<clipPath id="clip-0">
<path clip-rule="nonzero" d="M 0 9 L 43.515625 9 L 43.515625 26 L 0 26 Z M 0 9 "/>
</clipPath>
<clipPath id="clip-1">
<path clip-rule="nonzero" d="M 0 0 L 43.515625 0 L 43.515625 34.058594 L 0 34.058594 Z M 0 0 "/>
</clipPath>
</defs>
<g clip-path="url(#clip-0)">
<path fill="none" stroke-width="0.3985" stroke-linecap="butt" stroke-linejoin="miter" stroke="rgb(0%, 0%, 0%)" stroke-opacity="1" stroke-miterlimit="10" d="M -39.288344 7.9375 L -26.190688 7.9375 M -39.288344 -7.9375 L -26.190688 -7.9375 M 4.364 0.00000000000181899 L -8.72975 0.00000000000181899 " transform="matrix(1, 0, 0, -1, 39.136, 17.375)"/>
</g>
<g clip-path="url(#clip-1)">
<path fill="none" stroke-width="1.59401" stroke-linecap="butt" stroke-linejoin="miter" stroke="rgb(0%, 0%, 0%)" stroke-opacity="1" stroke-miterlimit="10" d="M -26.190688 15.875 L -26.190688 -15.875 C -18.358656 -15.875 -12.003188 -8.765625 -12.003188 0.00000000000181899 C -12.003188 8.765625 -18.358656 15.875 -26.190688 15.875 Z M -8.72975 0.00000000000181899 C -8.72975 0.902344 -9.464125 1.636719 -10.366469 1.636719 C -11.272719 1.636719 -12.003188 0.902344 -12.003188 0.00000000000181899 C -12.003188 -0.902344 -11.272719 -1.636719 -10.366469 -1.636719 C -9.464125 -1.636719 -8.72975 -0.902344 -8.72975 0.00000000000181899 Z M -8.72975 0.00000000000181899 " transform="matrix(1, 0, 0, -1, 39.136, 17.375)"/>
</g>
</svg>
