<?xml version="1.0" encoding="UTF-8"?>
<svg xmlns="http://www.w3.org/2000/svg" xmlns:xlink="http://www.w3.org/1999/xlink" width="241.593pt" height="102.466pt" viewBox="0 0 241.593 102.466">
<defs>
<clipPath id="clip-0">
<path clip-rule="nonzero" d="M 175 0 L 241.390625 0 L 241.390625 69 L 175 69 Z M 175 0 "/>
</clipPath>
<clipPath id="clip-1">
<path clip-rule="nonzero" d="M 218 2 L 241.390625 2 L 241.390625 37 L 218 37 Z M 218 2 "/>
</clipPath>
<clipPath id="clip-2">
<path clip-rule="nonzero" d="M 238 21 L 241.390625 21 L 241.390625 25 L 238 25 Z M 238 21 "/>
</clipPath>
<clipPath id="clip-3">
<path clip-rule="nonzero" d="M 232 15 L 241.390625 15 L 241.390625 31 L 232 31 Z M 232 15 "/>
</clipPath>
<clipPath id="clip-4">
<path clip-rule="nonzero" d="M 0 21 L 91 21 L 91 102.199219 L 0 102.199219 Z M 0 21 "/>
</clipPath>
<clipPath id="clip-5">
<path clip-rule="nonzero" d="M 12 90 L 27 90 L 27 102.199219 L 12 102.199219 Z M 12 90 "/>
</clipPath>
<clipPath id="clip-6">
<path clip-rule="nonzero" d="M 24 93 L 39 93 L 39 102.199219 L 24 102.199219 Z M 24 93 "/>
</clipPath>
<clipPath id="clip-7">
<path clip-rule="nonzero" d="M 35 88 L 50 88 L 50 102.199219 L 35 102.199219 Z M 35 88 "/>
</clipPath>
<clipPath id="clip-8">
<path clip-rule="nonzero" d="M 69 27 L 180 27 L 180 102.199219 L 69 102.199219 Z M 69 27 "/>
</clipPath>
<clipPath id="clip-9">
<path clip-rule="nonzero" d="M 117 90 L 133 90 L 133 102.199219 L 117 102.199219 Z M 117 90 "/>
</clipPath>
<clipPath id="clip-10">
<path clip-rule="nonzero" d="M 122 29 L 232 29 L 232 102.199219 L 122 102.199219 Z M 122 29 "/>
</clipPath>
<clipPath id="clip-11">
<path clip-rule="nonzero" d="M 159 93 L 175 93 L 175 102.199219 L 159 102.199219 Z M 159 93 "/>
</clipPath>
<clipPath id="clip-12">
<path clip-rule="nonzero" d="M 175 27 L 241.390625 27 L 241.390625 102.199219 L 175 102.199219 Z M 175 27 "/>
</clipPath>
<clipPath id="clip-13">
<path clip-rule="nonzero" d="M 218 58 L 241.390625 58 L 241.390625 92 L 218 92 Z M 218 58 "/>
</clipPath>
<clipPath id="clip-14">
<path clip-rule="nonzero" d="M 216 68 L 241.390625 68 L 241.390625 96 L 216 96 Z M 216 68 "/>
</clipPath>
<clipPath id="clip-15">
<path clip-rule="nonzero" d="M 222 90 L 237 90 L 237 102.199219 L 222 102.199219 Z M 222 90 "/>
</clipPath>
<clipPath id="clip-16">
<path clip-rule="nonzero" d="M 238 78 L 241.390625 78 L 241.390625 82 L 238 82 Z M 238 78 "/>
</clipPath>
<clipPath id="clip-17">
<path clip-rule="nonzero" d="M 232 72 L 241.390625 72 L 241.390625 88 L 232 88 Z M 232 72 "/>
</clipPath>
</defs>
<path fill="none" stroke-width="0.3985" stroke-linecap="butt" stroke-linejoin="miter" stroke="rgb(0%, 0%, 0%)" stroke-opacity="1" stroke-miterlimit="10" d="M -0.0008125 -0.00090625 L 28.346844 -0.00090625 " transform="matrix(1, 0, 0, -1, -0.1945, 23.128)"/>
<path fill="none" stroke-width="3.17429" stroke-linecap="round" stroke-linejoin="miter" stroke="rgb(0%, 0%, 0%)" stroke-opacity="1" stroke-miterlimit="10" d="M 29.932781 -0.00090625 L 45.706219 13.237375 " transform="matrix(1, 0, 0, -1, -0.1945, 23.128)"/>
<path fill="none" stroke-width="0.797" stroke-linecap="butt" stroke-linejoin="miter" stroke="rgb(0%, 0%, 0%)" stroke-opacity="1" stroke-miterlimit="10" d="M 32.999188 9.827219 C 35.432781 9.069406 37.53825 7.420969 38.85075 5.147531 C 40.061688 3.053781 40.491375 0.59675 40.073406 -1.786063 " transform="matrix(1, 0, 0, -1, -0.1945, 23.128)"/>
<path fill-rule="nonzero" fill="rgb(0%, 0%, 0%)" fill-opacity="1" d="M 29.738281 12.832031 C 30.929688 13.40625 33.058594 14.488281 34.269531 16.007812 C 33.371094 14.304688 33.632812 13.300781 35.242188 12.242188 C 33.445312 12.984375 31.058594 12.90625 29.738281 12.832031 Z M 29.738281 12.832031 "/>
<path fill-rule="nonzero" fill="rgb(100%, 100%, 100%)" fill-opacity="1" stroke-width="0.3985" stroke-linecap="butt" stroke-linejoin="miter" stroke="rgb(0%, 0%, 0%)" stroke-opacity="1" stroke-miterlimit="10" d="M 21.22575 -17.832938 C 21.22575 -16.954031 20.514813 -16.247 19.639813 -16.247 C 18.760906 -16.247 18.049969 -16.954031 18.049969 -17.832938 C 18.049969 -18.707938 18.760906 -19.418875 19.639813 -19.418875 C 20.514813 -19.418875 21.22575 -18.707938 21.22575 -17.832938 Z M 21.22575 -17.832938 " transform="matrix(1, 0, 0, -1, -0.1945, 23.128)"/>
<path fill-rule="nonzero" fill="rgb(100%, 100%, 100%)" fill-opacity="1" stroke-width="0.3985" stroke-linecap="butt" stroke-linejoin="miter" stroke="rgb(0%, 0%, 0%)" stroke-opacity="1" stroke-miterlimit="10" d="M 33.057781 -20.532156 C 33.057781 -19.657156 32.346844 -18.946219 31.471844 -18.946219 C 30.596844 -18.946219 29.885906 -19.657156 29.885906 -20.532156 C 29.885906 -21.407156 30.596844 -22.118094 31.471844 -22.118094 C 32.346844 -22.118094 33.057781 -21.407156 33.057781 -20.532156 Z M 33.057781 -20.532156 " transform="matrix(1, 0, 0, -1, -0.1945, 23.128)"/>
<path fill-rule="nonzero" fill="rgb(100%, 100%, 100%)" fill-opacity="1" stroke-width="0.3985" stroke-linecap="butt" stroke-linejoin="miter" stroke="rgb(0%, 0%, 0%)" stroke-opacity="1" stroke-miterlimit="10" d="M 44.358563 -16.098563 C 44.358563 -15.219656 43.647625 -14.508719 42.772625 -14.508719 C 41.893719 -14.508719 41.182781 -15.219656 41.182781 -16.098563 C 41.182781 -16.973563 41.893719 -17.6845 42.772625 -17.6845 C 43.647625 -17.6845 44.358563 -16.973563 44.358563 -16.098563 Z M 44.358563 -16.098563 " transform="matrix(1, 0, 0, -1, -0.1945, 23.128)"/>
<path fill-rule="nonzero" fill="rgb(100%, 100%, 100%)" fill-opacity="1" stroke-width="0.3985" stroke-linecap="butt" stroke-linejoin="miter" stroke="rgb(0%, 0%, 0%)" stroke-opacity="1" stroke-miterlimit="10" d="M 51.1945 -6.067313 C 51.1945 -5.192313 50.487469 -4.481375 49.608563 -4.481375 C 48.733563 -4.481375 48.022625 -5.192313 48.022625 -6.067313 C 48.022625 -6.946219 48.733563 -7.657156 49.608563 -7.657156 C 50.487469 -7.657156 51.1945 -6.946219 51.1945 -6.067313 Z M 51.1945 -6.067313 " transform="matrix(1, 0, 0, -1, -0.1945, 23.128)"/>
<path fill-rule="nonzero" fill="rgb(100%, 100%, 100%)" fill-opacity="1" stroke-width="0.3985" stroke-linecap="butt" stroke-linejoin="miter" stroke="rgb(0%, 0%, 0%)" stroke-opacity="1" stroke-miterlimit="10" d="M 51.1945 6.069406 C 51.1945 6.944406 50.487469 7.655344 49.608563 7.655344 C 48.733563 7.655344 48.022625 6.944406 48.022625 6.069406 C 48.022625 5.1905 48.733563 4.483469 49.608563 4.483469 C 50.487469 4.483469 51.1945 5.1905 51.1945 6.069406 Z M 51.1945 6.069406 " transform="matrix(1, 0, 0, -1, -0.1945, 23.128)"/>
<path fill-rule="nonzero" fill="rgb(100%, 100%, 100%)" fill-opacity="1" stroke-width="0.3985" stroke-linecap="butt" stroke-linejoin="miter" stroke="rgb(0%, 0%, 0%)" stroke-opacity="1" stroke-miterlimit="10" d="M 44.358563 16.09675 C 44.358563 16.975656 43.647625 17.686594 42.772625 17.686594 C 41.893719 17.686594 41.182781 16.975656 41.182781 16.09675 C 41.182781 15.22175 41.893719 14.510812 42.772625 14.510812 C 43.647625 14.510812 44.358563 15.22175 44.358563 16.09675 Z M 44.358563 16.09675 " transform="matrix(1, 0, 0, -1, -0.1945, 23.128)"/>
<path fill-rule="nonzero" fill="rgb(100%, 100%, 100%)" fill-opacity="1" stroke-width="0.3985" stroke-linecap="butt" stroke-linejoin="miter" stroke="rgb(0%, 0%, 0%)" stroke-opacity="1" stroke-miterlimit="10" d="M 33.057781 20.530344 C 33.057781 21.40925 32.35075 22.120187 31.471844 22.120187 C 30.596844 22.120187 29.885906 21.40925 29.885906 20.530344 C 29.885906 19.655344 30.596844 18.944406 31.471844 18.944406 C 32.35075 18.944406 33.057781 19.655344 33.057781 20.530344 Z M 33.057781 20.530344 " transform="matrix(1, 0, 0, -1, -0.1945, 23.128)"/>
<path fill-rule="nonzero" fill="rgb(100%, 100%, 100%)" fill-opacity="1" stroke-width="0.3985" stroke-linecap="butt" stroke-linejoin="miter" stroke="rgb(0%, 0%, 0%)" stroke-opacity="1" stroke-miterlimit="10" d="M 21.22575 17.831125 C 21.22575 18.710031 20.514813 19.420969 19.639813 19.420969 C 18.760906 19.420969 18.049969 18.710031 18.049969 17.831125 C 18.049969 16.956125 18.760906 16.245187 19.639813 16.245187 C 20.514813 16.245187 21.22575 16.956125 21.22575 17.831125 Z M 21.22575 17.831125 " transform="matrix(1, 0, 0, -1, -0.1945, 23.128)"/>
<path fill-rule="nonzero" fill="rgb(100%, 100%, 100%)" fill-opacity="1" stroke-width="0.3985" stroke-linecap="butt" stroke-linejoin="miter" stroke="rgb(0%, 0%, 0%)" stroke-opacity="1" stroke-miterlimit="10" d="M 31.522625 -0.00090625 C 31.522625 0.878 30.811688 1.588937 29.932781 1.588937 C 29.057781 1.588937 28.346844 0.878 28.346844 -0.00090625 C 28.346844 -0.875906 29.057781 -1.586844 29.932781 -1.586844 C 30.811688 -1.586844 31.522625 -0.875906 31.522625 -0.00090625 Z M 31.522625 -0.00090625 " transform="matrix(1, 0, 0, -1, -0.1945, 23.128)"/>
<path fill="none" stroke-width="0.3985" stroke-linecap="butt" stroke-linejoin="miter" stroke="rgb(0%, 0%, 0%)" stroke-opacity="1" stroke-miterlimit="10" d="M 85.042156 -0.00090625 L 113.385906 -0.00090625 " transform="matrix(1, 0, 0, -1, -0.1945, 23.128)"/>
<path fill="none" stroke-width="3.17429" stroke-linecap="round" stroke-linejoin="miter" stroke="rgb(0%, 0%, 0%)" stroke-opacity="1" stroke-miterlimit="10" d="M 114.97575 -0.00090625 L 134.323406 7.042062 " transform="matrix(1, 0, 0, -1, -0.1945, 23.128)"/>
<path fill="none" stroke-width="0.797" stroke-linecap="butt" stroke-linejoin="miter" stroke="rgb(0%, 0%, 0%)" stroke-opacity="1" stroke-miterlimit="10" d="M 121.217938 8.186594 C 123.245281 6.639719 124.659344 4.370187 125.112469 1.788156 C 125.35075 0.436594 125.315594 -0.942313 125.018719 -2.258719 " transform="matrix(1, 0, 0, -1, -0.1945, 23.128)"/>
<path fill-rule="nonzero" fill="rgb(0%, 0%, 0%)" fill-opacity="1" d="M 118.300781 13.453125 C 119.222656 14.398438 120.851562 16.144531 121.472656 17.984375 C 121.210938 16.078125 121.796875 15.222656 123.671875 14.78125 C 121.730469 14.863281 119.515625 13.972656 118.300781 13.453125 Z M 118.300781 13.453125 "/>
<path fill-rule="nonzero" fill="rgb(0%, 0%, 0%)" fill-opacity="1" d="M 123.695312 28.277344 C 124.292969 27.097656 125.417969 24.992188 126.957031 23.808594 C 125.238281 24.671875 124.238281 24.394531 123.214844 22.765625 C 123.921875 24.574219 123.792969 26.957031 123.695312 28.277344 Z M 123.695312 28.277344 "/>
<path fill-rule="nonzero" fill="rgb(100%, 100%, 100%)" fill-opacity="1" stroke-width="0.3985" stroke-linecap="butt" stroke-linejoin="miter" stroke="rgb(0%, 0%, 0%)" stroke-opacity="1" stroke-miterlimit="10" d="M 126.858563 -17.832938 C 126.858563 -16.954031 126.147625 -16.247 125.268719 -16.247 C 124.393719 -16.247 123.682781 -16.954031 123.682781 -17.832938 C 123.682781 -18.707938 124.393719 -19.418875 125.268719 -19.418875 C 126.147625 -19.418875 126.858563 -18.707938 126.858563 -17.832938 Z M 126.858563 -17.832938 " transform="matrix(1, 0, 0, -1, -0.1945, 23.128)"/>
<path fill-rule="nonzero" fill="rgb(100%, 100%, 100%)" fill-opacity="1" stroke-width="0.3985" stroke-linecap="butt" stroke-linejoin="miter" stroke="rgb(0%, 0%, 0%)" stroke-opacity="1" stroke-miterlimit="10" d="M 134.393719 -10.293875 C 134.393719 -9.418875 133.682781 -8.707938 132.807781 -8.707938 C 131.928875 -8.707938 131.217938 -9.418875 131.217938 -10.293875 C 131.217938 -11.172781 131.928875 -11.883719 132.807781 -11.883719 C 133.682781 -11.883719 134.393719 -11.172781 134.393719 -10.293875 Z M 134.393719 -10.293875 " transform="matrix(1, 0, 0, -1, -0.1945, 23.128)"/>
<path fill-rule="nonzero" fill="rgb(100%, 100%, 100%)" fill-opacity="1" stroke-width="0.3985" stroke-linecap="butt" stroke-linejoin="miter" stroke="rgb(0%, 0%, 0%)" stroke-opacity="1" stroke-miterlimit="10" d="M 137.151531 -0.00090625 C 137.151531 0.878 136.440594 1.588937 135.565594 1.588937 C 134.690594 1.588937 133.979656 0.878 133.979656 -0.00090625 C 133.979656 -0.875906 134.690594 -1.586844 135.565594 -1.586844 C 136.440594 -1.586844 137.151531 -0.875906 137.151531 -0.00090625 Z M 137.151531 -0.00090625 " transform="matrix(1, 0, 0, -1, -0.1945, 23.128)"/>
<path fill-rule="nonzero" fill="rgb(100%, 100%, 100%)" fill-opacity="1" stroke-width="0.3985" stroke-linecap="butt" stroke-linejoin="miter" stroke="rgb(0%, 0%, 0%)" stroke-opacity="1" stroke-miterlimit="10" d="M 134.393719 10.295969 C 134.393719 11.170969 133.682781 11.881906 132.807781 11.881906 C 131.928875 11.881906 131.217938 11.170969 131.217938 10.295969 C 131.217938 9.417062 131.928875 8.710031 132.807781 8.710031 C 133.682781 8.710031 134.393719 9.417062 134.393719 10.295969 Z M 134.393719 10.295969 " transform="matrix(1, 0, 0, -1, -0.1945, 23.128)"/>
<path fill-rule="nonzero" fill="rgb(100%, 100%, 100%)" fill-opacity="1" stroke-width="0.3985" stroke-linecap="butt" stroke-linejoin="miter" stroke="rgb(0%, 0%, 0%)" stroke-opacity="1" stroke-miterlimit="10" d="M 126.858563 17.831125 C 126.858563 18.710031 126.147625 19.420969 125.268719 19.420969 C 124.393719 19.420969 123.682781 18.710031 123.682781 17.831125 C 123.682781 16.956125 124.393719 16.245187 125.268719 16.245187 C 126.147625 16.245187 126.858563 16.956125 126.858563 17.831125 Z M 126.858563 17.831125 " transform="matrix(1, 0, 0, -1, -0.1945, 23.128)"/>
<path fill-rule="nonzero" fill="rgb(100%, 100%, 100%)" fill-opacity="1" stroke-width="0.3985" stroke-linecap="butt" stroke-linejoin="miter" stroke="rgb(0%, 0%, 0%)" stroke-opacity="1" stroke-miterlimit="10" d="M 116.561688 -0.00090625 C 116.561688 0.878 115.85075 1.588937 114.97575 1.588937 C 114.096844 1.588937 113.385906 0.878 113.385906 -0.00090625 C 113.385906 -0.875906 114.096844 -1.586844 114.97575 -1.586844 C 115.85075 -1.586844 116.561688 -0.875906 116.561688 -0.00090625 Z M 116.561688 -0.00090625 " transform="matrix(1, 0, 0, -1, -0.1945, 23.128)"/>
<path fill="none" stroke-width="0.3985" stroke-linecap="butt" stroke-linejoin="miter" stroke="rgb(0%, 0%, 0%)" stroke-opacity="1" stroke-miterlimit="10" d="M 137.151531 -0.00090625 L 165.499188 -0.00090625 " transform="matrix(1, 0, 0, -1, -0.1945, 23.128)"/>
<path fill="none" stroke-width="3.17429" stroke-linecap="round" stroke-linejoin="miter" stroke="rgb(0%, 0%, 0%)" stroke-opacity="1" stroke-miterlimit="10" d="M 167.085125 -0.00090625 L 186.97575 5.331125 " transform="matrix(1, 0, 0, -1, -0.1945, 23.128)"/>
<path fill-rule="nonzero" fill="rgb(100%, 100%, 100%)" fill-opacity="1" stroke-width="0.3985" stroke-linecap="butt" stroke-linejoin="miter" stroke="rgb(0%, 0%, 0%)" stroke-opacity="1" stroke-miterlimit="10" d="M 168.674969 -20.59075 C 168.674969 -19.71575 167.964031 -19.004813 167.085125 -19.004813 C 166.210125 -19.004813 165.499188 -19.71575 165.499188 -20.59075 C 165.499188 -21.46575 166.210125 -22.176688 167.085125 -22.176688 C 167.964031 -22.176688 168.674969 -21.46575 168.674969 -20.59075 Z M 168.674969 -20.59075 " transform="matrix(1, 0, 0, -1, -0.1945, 23.128)"/>
<path fill-rule="nonzero" fill="rgb(100%, 100%, 100%)" fill-opacity="1" stroke-width="0.3985" stroke-linecap="butt" stroke-linejoin="miter" stroke="rgb(0%, 0%, 0%)" stroke-opacity="1" stroke-miterlimit="10" d="M 183.233563 -14.5595 C 183.233563 -13.6845 182.522625 -12.973563 181.647625 -12.973563 C 180.768719 -12.973563 180.057781 -13.6845 180.057781 -14.5595 C 180.057781 -15.438406 180.768719 -16.145438 181.647625 -16.145438 C 182.522625 -16.145438 183.233563 -15.438406 183.233563 -14.5595 Z M 183.233563 -14.5595 " transform="matrix(1, 0, 0, -1, -0.1945, 23.128)"/>
<path fill-rule="nonzero" fill="rgb(100%, 100%, 100%)" fill-opacity="1" stroke-width="0.3985" stroke-linecap="butt" stroke-linejoin="miter" stroke="rgb(0%, 0%, 0%)" stroke-opacity="1" stroke-miterlimit="10" d="M 189.264813 -0.00090625 C 189.264813 0.878 188.553875 1.588937 187.678875 1.588937 C 186.799969 1.588937 186.089031 0.878 186.089031 -0.00090625 C 186.089031 -0.875906 186.799969 -1.586844 187.678875 -1.586844 C 188.553875 -1.586844 189.264813 -0.875906 189.264813 -0.00090625 Z M 189.264813 -0.00090625 " transform="matrix(1, 0, 0, -1, -0.1945, 23.128)"/>
<path fill-rule="nonzero" fill="rgb(100%, 100%, 100%)" fill-opacity="1" stroke-width="0.3985" stroke-linecap="butt" stroke-linejoin="miter" stroke="rgb(0%, 0%, 0%)" stroke-opacity="1" stroke-miterlimit="10" d="M 183.233563 14.561594 C 183.233563 15.436594 182.522625 16.147531 181.647625 16.147531 C 180.768719 16.147531 180.057781 15.436594 180.057781 14.561594 C 180.057781 13.682687 180.768719 12.97175 181.647625 12.97175 C 182.522625 12.97175 183.233563 13.682687 183.233563 14.561594 Z M 183.233563 14.561594 " transform="matrix(1, 0, 0, -1, -0.1945, 23.128)"/>
<path fill-rule="nonzero" fill="rgb(100%, 100%, 100%)" fill-opacity="1" stroke-width="0.3985" stroke-linecap="butt" stroke-linejoin="miter" stroke="rgb(0%, 0%, 0%)" stroke-opacity="1" stroke-miterlimit="10" d="M 168.674969 20.592844 C 168.674969 21.467844 167.964031 22.178781 167.085125 22.178781 C 166.210125 22.178781 165.499188 21.467844 165.499188 20.592844 C 165.499188 19.713937 166.210125 19.003 167.085125 19.003 C 167.964031 19.003 168.674969 19.713937 168.674969 20.592844 Z M 168.674969 20.592844 " transform="matrix(1, 0, 0, -1, -0.1945, 23.128)"/>
<path fill-rule="nonzero" fill="rgb(100%, 100%, 100%)" fill-opacity="1" stroke-width="0.3985" stroke-linecap="butt" stroke-linejoin="miter" stroke="rgb(0%, 0%, 0%)" stroke-opacity="1" stroke-miterlimit="10" d="M 168.674969 -0.00090625 C 168.674969 0.878 167.964031 1.588937 167.085125 1.588937 C 166.210125 1.588937 165.499188 0.878 165.499188 -0.00090625 C 165.499188 -0.875906 166.210125 -1.586844 167.085125 -1.586844 C 167.964031 -1.586844 168.674969 -0.875906 168.674969 -0.00090625 Z M 168.674969 -0.00090625 " transform="matrix(1, 0, 0, -1, -0.1945, 23.128)"/>
<path fill="none" stroke-width="0.3985" stroke-linecap="butt" stroke-linejoin="miter" stroke="rgb(0%, 0%, 0%)" stroke-opacity="1" stroke-miterlimit="10" d="M 189.264813 -0.00090625 L 217.612469 -0.00090625 " transform="matrix(1, 0, 0, -1, -0.1945, 23.128)"/>
<g clip-path="url(#clip-0)">
<path fill="none" stroke-width="3.17429" stroke-linecap="round" stroke-linejoin="miter" stroke="rgb(0%, 0%, 0%)" stroke-opacity="1" stroke-miterlimit="10" d="M 239.78825 -0.00090625 L 220.440594 7.042062 " transform="matrix(1, 0, 0, -1, -0.1945, 23.128)"/>
</g>
<g clip-path="url(#clip-1)">
<path fill="none" stroke-width="0.797" stroke-linecap="butt" stroke-linejoin="miter" stroke="rgb(0%, 0%, 0%)" stroke-opacity="1" stroke-miterlimit="10" d="M 236.268719 9.674875 C 232.811688 8.417062 230.28825 5.40925 229.651531 1.788156 C 229.41325 0.436594 229.448406 -0.942313 229.745281 -2.262625 " transform="matrix(1, 0, 0, -1, -0.1945, 23.128)"/>
</g>
<path fill-rule="nonzero" fill="rgb(0%, 0%, 0%)" fill-opacity="1" d="M 230.679688 28.277344 C 230.582031 26.957031 230.453125 24.574219 231.160156 22.765625 C 230.132812 24.394531 229.136719 24.671875 227.417969 23.808594 C 228.957031 24.992188 230.082031 27.097656 230.679688 28.277344 Z M 230.679688 28.277344 "/>
<path fill-rule="nonzero" fill="rgb(100%, 100%, 100%)" fill-opacity="1" stroke-width="0.3985" stroke-linecap="butt" stroke-linejoin="miter" stroke="rgb(0%, 0%, 0%)" stroke-opacity="1" stroke-miterlimit="10" d="M 227.905438 -17.832938 C 227.905438 -16.954031 228.616375 -16.247 229.495281 -16.247 C 230.370281 -16.247 231.081219 -16.954031 231.081219 -17.832938 C 231.081219 -18.707938 230.370281 -19.418875 229.495281 -19.418875 C 228.616375 -19.418875 227.905438 -18.707938 227.905438 -17.832938 Z M 227.905438 -17.832938 " transform="matrix(1, 0, 0, -1, -0.1945, 23.128)"/>
<path fill-rule="nonzero" fill="rgb(100%, 100%, 100%)" fill-opacity="1" stroke-width="0.3985" stroke-linecap="butt" stroke-linejoin="miter" stroke="rgb(0%, 0%, 0%)" stroke-opacity="1" stroke-miterlimit="10" d="M 220.370281 -10.293875 C 220.370281 -9.418875 221.081219 -8.707938 221.956219 -8.707938 C 222.835125 -8.707938 223.546063 -9.418875 223.546063 -10.293875 C 223.546063 -11.172781 222.835125 -11.883719 221.956219 -11.883719 C 221.081219 -11.883719 220.370281 -11.172781 220.370281 -10.293875 Z M 220.370281 -10.293875 " transform="matrix(1, 0, 0, -1, -0.1945, 23.128)"/>
<path fill-rule="nonzero" fill="rgb(100%, 100%, 100%)" fill-opacity="1" stroke-width="0.3985" stroke-linecap="butt" stroke-linejoin="miter" stroke="rgb(0%, 0%, 0%)" stroke-opacity="1" stroke-miterlimit="10" d="M 217.612469 -0.00090625 C 217.612469 0.878 218.323406 1.588937 219.198406 1.588937 C 220.073406 1.588937 220.784344 0.878 220.784344 -0.00090625 C 220.784344 -0.875906 220.073406 -1.586844 219.198406 -1.586844 C 218.323406 -1.586844 217.612469 -0.875906 217.612469 -0.00090625 Z M 217.612469 -0.00090625 " transform="matrix(1, 0, 0, -1, -0.1945, 23.128)"/>
<path fill-rule="nonzero" fill="rgb(100%, 100%, 100%)" fill-opacity="1" stroke-width="0.3985" stroke-linecap="butt" stroke-linejoin="miter" stroke="rgb(0%, 0%, 0%)" stroke-opacity="1" stroke-miterlimit="10" d="M 220.370281 10.295969 C 220.370281 11.170969 221.081219 11.881906 221.956219 11.881906 C 222.835125 11.881906 223.546063 11.170969 223.546063 10.295969 C 223.546063 9.417062 222.835125 8.710031 221.956219 8.710031 C 221.081219 8.710031 220.370281 9.417062 220.370281 10.295969 Z M 220.370281 10.295969 " transform="matrix(1, 0, 0, -1, -0.1945, 23.128)"/>
<path fill-rule="nonzero" fill="rgb(100%, 100%, 100%)" fill-opacity="1" stroke-width="0.3985" stroke-linecap="butt" stroke-linejoin="miter" stroke="rgb(0%, 0%, 0%)" stroke-opacity="1" stroke-miterlimit="10" d="M 227.905438 17.831125 C 227.905438 18.710031 228.616375 19.420969 229.495281 19.420969 C 230.370281 19.420969 231.081219 18.710031 231.081219 17.831125 C 231.081219 16.956125 230.370281 16.245187 229.495281 16.245187 C 228.616375 16.245187 227.905438 16.956125 227.905438 17.831125 Z M 227.905438 17.831125 " transform="matrix(1, 0, 0, -1, -0.1945, 23.128)"/>
<g clip-path="url(#clip-2)">
<path fill-rule="nonzero" fill="rgb(100%, 100%, 100%)" fill-opacity="1" d="M 238.007812 23.128906 C 238.007812 22.25 238.71875 21.539062 239.59375 21.539062 C 240.472656 21.539062 241.183594 22.25 241.183594 23.128906 C 241.183594 24.003906 240.472656 24.714844 239.59375 24.714844 C 238.71875 24.714844 238.007812 24.003906 238.007812 23.128906 Z M 238.007812 23.128906 "/>
</g>
<g clip-path="url(#clip-3)">
<path fill="none" stroke-width="0.3985" stroke-linecap="butt" stroke-linejoin="miter" stroke="rgb(0%, 0%, 0%)" stroke-opacity="1" stroke-miterlimit="10" d="M 238.202313 -0.00090625 C 238.202313 0.878 238.91325 1.588937 239.78825 1.588937 C 240.667156 1.588937 241.378094 0.878 241.378094 -0.00090625 C 241.378094 -0.875906 240.667156 -1.586844 239.78825 -1.586844 C 238.91325 -1.586844 238.202313 -0.875906 238.202313 -0.00090625 Z M 238.202313 -0.00090625 " transform="matrix(1, 0, 0, -1, -0.1945, 23.128)"/>
</g>
<path fill="none" stroke-width="0.3985" stroke-linecap="butt" stroke-linejoin="miter" stroke="rgb(0%, 0%, 0%)" stroke-opacity="1" stroke-miterlimit="10" d="M -0.0008125 -56.692313 L 28.346844 -56.692313 " transform="matrix(1, 0, 0, -1, -0.1945, 23.128)"/>
<g clip-path="url(#clip-4)">
<path fill="none" stroke-width="3.17429" stroke-linecap="round" stroke-linejoin="miter" stroke="rgb(0%, 0%, 0%)" stroke-opacity="1" stroke-miterlimit="10" d="M 29.932781 -56.692313 L 45.706219 -43.457938 " transform="matrix(1, 0, 0, -1, -0.1945, 23.128)"/>
</g>
<path fill="none" stroke-width="0.797" stroke-linecap="butt" stroke-linejoin="miter" stroke="rgb(0%, 0%, 0%)" stroke-opacity="1" stroke-miterlimit="10" d="M 30.534344 -46.414969 C 33.97575 -46.614188 37.112469 -48.536063 38.85075 -51.543875 C 40.061688 -53.641531 40.491375 -56.098563 40.073406 -58.481375 " transform="matrix(1, 0, 0, -1, -0.1945, 23.128)"/>
<path fill="none" stroke-width="0.797" stroke-linecap="butt" stroke-linejoin="miter" stroke="rgb(100%, 0%, 0%)" stroke-opacity="1" stroke-miterlimit="10" d="M 0.00124125 3.087001 L 0.00124125 -3.08878 " transform="matrix(-1, 0, 0, 1, 30.13796, 69.52628)"/>
<path fill-rule="nonzero" fill="rgb(100%, 100%, 100%)" fill-opacity="1" d="M 21.03125 97.652344 C 21.03125 96.777344 20.320312 96.066406 19.445312 96.066406 C 18.566406 96.066406 17.855469 96.777344 17.855469 97.652344 C 17.855469 98.53125 18.566406 99.242188 19.445312 99.242188 C 20.320312 99.242188 21.03125 98.53125 21.03125 97.652344 Z M 21.03125 97.652344 "/>
<g clip-path="url(#clip-5)">
<path fill="none" stroke-width="0.3985" stroke-linecap="butt" stroke-linejoin="miter" stroke="rgb(0%, 0%, 0%)" stroke-opacity="1" stroke-miterlimit="10" d="M 21.22575 -74.524344 C 21.22575 -73.649344 20.514813 -72.938406 19.639813 -72.938406 C 18.760906 -72.938406 18.049969 -73.649344 18.049969 -74.524344 C 18.049969 -75.40325 18.760906 -76.114188 19.639813 -76.114188 C 20.514813 -76.114188 21.22575 -75.40325 21.22575 -74.524344 Z M 21.22575 -74.524344 " transform="matrix(1, 0, 0, -1, -0.1945, 23.128)"/>
</g>
<path fill-rule="nonzero" fill="rgb(100%, 100%, 100%)" fill-opacity="1" d="M 32.863281 100.355469 C 32.863281 99.476562 32.152344 98.765625 31.277344 98.765625 C 30.402344 98.765625 29.691406 99.476562 29.691406 100.355469 C 29.691406 101.230469 30.402344 101.941406 31.277344 101.941406 C 32.152344 101.941406 32.863281 101.230469 32.863281 100.355469 Z M 32.863281 100.355469 "/>
<g clip-path="url(#clip-6)">
<path fill="none" stroke-width="0.3985" stroke-linecap="butt" stroke-linejoin="miter" stroke="rgb(0%, 0%, 0%)" stroke-opacity="1" stroke-miterlimit="10" d="M 33.057781 -77.227469 C 33.057781 -76.348563 32.346844 -75.637625 31.471844 -75.637625 C 30.596844 -75.637625 29.885906 -76.348563 29.885906 -77.227469 C 29.885906 -78.102469 30.596844 -78.813406 31.471844 -78.813406 C 32.346844 -78.813406 33.057781 -78.102469 33.057781 -77.227469 Z M 33.057781 -77.227469 " transform="matrix(1, 0, 0, -1, -0.1945, 23.128)"/>
</g>
<path fill-rule="nonzero" fill="rgb(100%, 100%, 100%)" fill-opacity="1" d="M 44.164062 95.917969 C 44.164062 95.042969 43.453125 94.332031 42.578125 94.332031 C 41.699219 94.332031 40.988281 95.042969 40.988281 95.917969 C 40.988281 96.796875 41.699219 97.507812 42.578125 97.507812 C 43.453125 97.507812 44.164062 96.796875 44.164062 95.917969 Z M 44.164062 95.917969 "/>
<g clip-path="url(#clip-7)">
<path fill="none" stroke-width="0.3985" stroke-linecap="butt" stroke-linejoin="miter" stroke="rgb(0%, 0%, 0%)" stroke-opacity="1" stroke-miterlimit="10" d="M 44.358563 -72.789969 C 44.358563 -71.914969 43.647625 -71.204031 42.772625 -71.204031 C 41.893719 -71.204031 41.182781 -71.914969 41.182781 -72.789969 C 41.182781 -73.668875 41.893719 -74.379813 42.772625 -74.379813 C 43.647625 -74.379813 44.358563 -73.668875 44.358563 -72.789969 Z M 44.358563 -72.789969 " transform="matrix(1, 0, 0, -1, -0.1945, 23.128)"/>
</g>
<path fill-rule="nonzero" fill="rgb(100%, 100%, 100%)" fill-opacity="1" stroke-width="0.3985" stroke-linecap="butt" stroke-linejoin="miter" stroke="rgb(0%, 0%, 0%)" stroke-opacity="1" stroke-miterlimit="10" d="M 51.1945 -62.762625 C 51.1945 -61.887625 50.487469 -61.176688 49.608563 -61.176688 C 48.733563 -61.176688 48.022625 -61.887625 48.022625 -62.762625 C 48.022625 -63.637625 48.733563 -64.348563 49.608563 -64.348563 C 50.487469 -64.348563 51.1945 -63.637625 51.1945 -62.762625 Z M 51.1945 -62.762625 " transform="matrix(1, 0, 0, -1, -0.1945, 23.128)"/>
<path fill-rule="nonzero" fill="rgb(100%, 100%, 100%)" fill-opacity="1" stroke-width="0.3985" stroke-linecap="butt" stroke-linejoin="miter" stroke="rgb(0%, 0%, 0%)" stroke-opacity="1" stroke-miterlimit="10" d="M 51.1945 -50.625906 C 51.1945 -49.747 50.487469 -49.036063 49.608563 -49.036063 C 48.733563 -49.036063 48.022625 -49.747 48.022625 -50.625906 C 48.022625 -51.500906 48.733563 -52.211844 49.608563 -52.211844 C 50.487469 -52.211844 51.1945 -51.500906 51.1945 -50.625906 Z M 51.1945 -50.625906 " transform="matrix(1, 0, 0, -1, -0.1945, 23.128)"/>
<path fill-rule="nonzero" fill="rgb(100%, 100%, 100%)" fill-opacity="1" stroke-width="0.3985" stroke-linecap="butt" stroke-linejoin="miter" stroke="rgb(0%, 0%, 0%)" stroke-opacity="1" stroke-miterlimit="10" d="M 44.358563 -40.594656 C 44.358563 -39.719656 43.647625 -39.008719 42.772625 -39.008719 C 41.893719 -39.008719 41.182781 -39.719656 41.182781 -40.594656 C 41.182781 -41.473563 41.893719 -42.1845 42.772625 -42.1845 C 43.647625 -42.1845 44.358563 -41.473563 44.358563 -40.594656 Z M 44.358563 -40.594656 " transform="matrix(1, 0, 0, -1, -0.1945, 23.128)"/>
<path fill-rule="nonzero" fill="rgb(100%, 100%, 100%)" fill-opacity="1" stroke-width="0.3985" stroke-linecap="butt" stroke-linejoin="miter" stroke="rgb(0%, 0%, 0%)" stroke-opacity="1" stroke-miterlimit="10" d="M 33.057781 -36.161063 C 33.057781 -35.286063 32.35075 -34.575125 31.471844 -34.575125 C 30.596844 -34.575125 29.885906 -35.286063 29.885906 -36.161063 C 29.885906 -37.039969 30.596844 -37.747 31.471844 -37.747 C 32.35075 -37.747 33.057781 -37.039969 33.057781 -36.161063 Z M 33.057781 -36.161063 " transform="matrix(1, 0, 0, -1, -0.1945, 23.128)"/>
<path fill-rule="nonzero" fill="rgb(100%, 100%, 100%)" fill-opacity="1" stroke-width="0.3985" stroke-linecap="butt" stroke-linejoin="miter" stroke="rgb(0%, 0%, 0%)" stroke-opacity="1" stroke-miterlimit="10" d="M 21.22575 -38.860281 C 21.22575 -37.985281 20.514813 -37.274344 19.639813 -37.274344 C 18.760906 -37.274344 18.049969 -37.985281 18.049969 -38.860281 C 18.049969 -39.739188 18.760906 -40.450125 19.639813 -40.450125 C 20.514813 -40.450125 21.22575 -39.739188 21.22575 -38.860281 Z M 21.22575 -38.860281 " transform="matrix(1, 0, 0, -1, -0.1945, 23.128)"/>
<path fill-rule="nonzero" fill="rgb(100%, 100%, 100%)" fill-opacity="1" stroke-width="0.3985" stroke-linecap="butt" stroke-linejoin="miter" stroke="rgb(0%, 0%, 0%)" stroke-opacity="1" stroke-miterlimit="10" d="M 31.522625 -56.692313 C 31.522625 -55.817313 30.811688 -55.106375 29.932781 -55.106375 C 29.057781 -55.106375 28.346844 -55.817313 28.346844 -56.692313 C 28.346844 -57.571219 29.057781 -58.282156 29.932781 -58.282156 C 30.811688 -58.282156 31.522625 -57.571219 31.522625 -56.692313 Z M 31.522625 -56.692313 " transform="matrix(1, 0, 0, -1, -0.1945, 23.128)"/>
<path fill="none" stroke-width="0.3985" stroke-linecap="butt" stroke-linejoin="miter" stroke="rgb(0%, 0%, 0%)" stroke-opacity="1" stroke-miterlimit="10" d="M 85.042156 -56.692313 L 113.385906 -56.692313 " transform="matrix(1, 0, 0, -1, -0.1945, 23.128)"/>
<g clip-path="url(#clip-8)">
<path fill="none" stroke-width="3.17429" stroke-linecap="round" stroke-linejoin="miter" stroke="rgb(0%, 0%, 0%)" stroke-opacity="1" stroke-miterlimit="10" d="M 114.97575 -56.692313 L 134.323406 -49.649344 " transform="matrix(1, 0, 0, -1, -0.1945, 23.128)"/>
</g>
<path fill="none" stroke-width="0.797" stroke-linecap="butt" stroke-linejoin="miter" stroke="rgb(0%, 0%, 0%)" stroke-opacity="1" stroke-miterlimit="10" d="M 119.053875 -47.239188 C 122.221844 -48.606375 124.510906 -51.481375 125.112469 -54.907156 C 125.264813 -55.754813 125.303875 -56.614188 125.241375 -57.46575 " transform="matrix(1, 0, 0, -1, -0.1945, 23.128)"/>
<path fill="none" stroke-width="0.797" stroke-linecap="butt" stroke-linejoin="miter" stroke="rgb(100%, 0%, 0%)" stroke-opacity="1" stroke-miterlimit="10" d="M -0.00104407 3.086037 L 0.000880805 -3.086473 " transform="matrix(-0.93967, -0.34203, -0.34203, 0.93967, 118.67563, 70.28338)"/>
<path fill-rule="nonzero" fill="rgb(0%, 0%, 100%)" fill-opacity="1" stroke-width="0.797" stroke-linecap="butt" stroke-linejoin="miter" stroke="rgb(0%, 0%, 100%)" stroke-opacity="1" stroke-miterlimit="10" d="M 4.019367 -0.00128789 L 0.397558 2.180417 L 0.399194 0.0000762102 L 0.397086 -2.18138 Z M 4.019367 -0.00128789 " transform="matrix(-0.28558, 0.95828, 0.95828, 0.28558, 125.07096, 80.35572)"/>
<path fill-rule="nonzero" fill="rgb(100%, 100%, 100%)" fill-opacity="1" d="M 126.664062 97.652344 C 126.664062 96.777344 125.953125 96.066406 125.074219 96.066406 C 124.199219 96.066406 123.488281 96.777344 123.488281 97.652344 C 123.488281 98.53125 124.199219 99.242188 125.074219 99.242188 C 125.953125 99.242188 126.664062 98.53125 126.664062 97.652344 Z M 126.664062 97.652344 "/>
<g clip-path="url(#clip-9)">
<path fill="none" stroke-width="0.3985" stroke-linecap="butt" stroke-linejoin="miter" stroke="rgb(0%, 0%, 0%)" stroke-opacity="1" stroke-miterlimit="10" d="M 126.858563 -74.524344 C 126.858563 -73.649344 126.147625 -72.938406 125.268719 -72.938406 C 124.393719 -72.938406 123.682781 -73.649344 123.682781 -74.524344 C 123.682781 -75.40325 124.393719 -76.114188 125.268719 -76.114188 C 126.147625 -76.114188 126.858563 -75.40325 126.858563 -74.524344 Z M 126.858563 -74.524344 " transform="matrix(1, 0, 0, -1, -0.1945, 23.128)"/>
</g>
<path fill-rule="nonzero" fill="rgb(100%, 100%, 100%)" fill-opacity="1" stroke-width="0.3985" stroke-linecap="butt" stroke-linejoin="miter" stroke="rgb(0%, 0%, 0%)" stroke-opacity="1" stroke-miterlimit="10" d="M 134.393719 -66.989188 C 134.393719 -66.114188 133.682781 -65.40325 132.807781 -65.40325 C 131.928875 -65.40325 131.217938 -66.114188 131.217938 -66.989188 C 131.217938 -67.864188 131.928875 -68.575125 132.807781 -68.575125 C 133.682781 -68.575125 134.393719 -67.864188 134.393719 -66.989188 Z M 134.393719 -66.989188 " transform="matrix(1, 0, 0, -1, -0.1945, 23.128)"/>
<path fill-rule="nonzero" fill="rgb(100%, 100%, 100%)" fill-opacity="1" stroke-width="0.3985" stroke-linecap="butt" stroke-linejoin="miter" stroke="rgb(0%, 0%, 0%)" stroke-opacity="1" stroke-miterlimit="10" d="M 137.151531 -56.692313 C 137.151531 -55.817313 136.440594 -55.106375 135.565594 -55.106375 C 134.690594 -55.106375 133.979656 -55.817313 133.979656 -56.692313 C 133.979656 -57.571219 134.690594 -58.282156 135.565594 -58.282156 C 136.440594 -58.282156 137.151531 -57.571219 137.151531 -56.692313 Z M 137.151531 -56.692313 " transform="matrix(1, 0, 0, -1, -0.1945, 23.128)"/>
<path fill-rule="nonzero" fill="rgb(100%, 100%, 100%)" fill-opacity="1" stroke-width="0.3985" stroke-linecap="butt" stroke-linejoin="miter" stroke="rgb(0%, 0%, 0%)" stroke-opacity="1" stroke-miterlimit="10" d="M 134.393719 -46.399344 C 134.393719 -45.520438 133.682781 -44.8095 132.807781 -44.8095 C 131.928875 -44.8095 131.217938 -45.520438 131.217938 -46.399344 C 131.217938 -47.274344 131.928875 -47.985281 132.807781 -47.985281 C 133.682781 -47.985281 134.393719 -47.274344 134.393719 -46.399344 Z M 134.393719 -46.399344 " transform="matrix(1, 0, 0, -1, -0.1945, 23.128)"/>
<path fill-rule="nonzero" fill="rgb(100%, 100%, 100%)" fill-opacity="1" stroke-width="0.3985" stroke-linecap="butt" stroke-linejoin="miter" stroke="rgb(0%, 0%, 0%)" stroke-opacity="1" stroke-miterlimit="10" d="M 126.858563 -38.860281 C 126.858563 -37.985281 126.147625 -37.274344 125.268719 -37.274344 C 124.393719 -37.274344 123.682781 -37.985281 123.682781 -38.860281 C 123.682781 -39.739188 124.393719 -40.450125 125.268719 -40.450125 C 126.147625 -40.450125 126.858563 -39.739188 126.858563 -38.860281 Z M 126.858563 -38.860281 " transform="matrix(1, 0, 0, -1, -0.1945, 23.128)"/>
<path fill-rule="nonzero" fill="rgb(100%, 100%, 100%)" fill-opacity="1" stroke-width="0.3985" stroke-linecap="butt" stroke-linejoin="miter" stroke="rgb(0%, 0%, 0%)" stroke-opacity="1" stroke-miterlimit="10" d="M 116.561688 -56.692313 C 116.561688 -55.817313 115.85075 -55.106375 114.97575 -55.106375 C 114.096844 -55.106375 113.385906 -55.817313 113.385906 -56.692313 C 113.385906 -57.571219 114.096844 -58.282156 114.97575 -58.282156 C 115.85075 -58.282156 116.561688 -57.571219 116.561688 -56.692313 Z M 116.561688 -56.692313 " transform="matrix(1, 0, 0, -1, -0.1945, 23.128)"/>
<path fill="none" stroke-width="0.3985" stroke-linecap="butt" stroke-linejoin="miter" stroke="rgb(0%, 0%, 0%)" stroke-opacity="1" stroke-miterlimit="10" d="M 137.151531 -56.692313 L 165.499188 -56.692313 " transform="matrix(1, 0, 0, -1, -0.1945, 23.128)"/>
<g clip-path="url(#clip-10)">
<path fill="none" stroke-width="3.17429" stroke-linecap="round" stroke-linejoin="miter" stroke="rgb(0%, 0%, 0%)" stroke-opacity="1" stroke-miterlimit="10" d="M 167.085125 -56.692313 L 186.97575 -51.364188 " transform="matrix(1, 0, 0, -1, -0.1945, 23.128)"/>
</g>
<path fill-rule="nonzero" fill="rgb(100%, 100%, 100%)" fill-opacity="1" d="M 168.480469 100.414062 C 168.480469 99.535156 167.769531 98.824219 166.890625 98.824219 C 166.015625 98.824219 165.304688 99.535156 165.304688 100.414062 C 165.304688 101.289062 166.015625 102 166.890625 102 C 167.769531 102 168.480469 101.289062 168.480469 100.414062 Z M 168.480469 100.414062 "/>
<g clip-path="url(#clip-11)">
<path fill="none" stroke-width="0.3985" stroke-linecap="butt" stroke-linejoin="miter" stroke="rgb(0%, 0%, 0%)" stroke-opacity="1" stroke-miterlimit="10" d="M 168.674969 -77.286063 C 168.674969 -76.407156 167.964031 -75.696219 167.085125 -75.696219 C 166.210125 -75.696219 165.499188 -76.407156 165.499188 -77.286063 C 165.499188 -78.161063 166.210125 -78.872 167.085125 -78.872 C 167.964031 -78.872 168.674969 -78.161063 168.674969 -77.286063 Z M 168.674969 -77.286063 " transform="matrix(1, 0, 0, -1, -0.1945, 23.128)"/>
</g>
<path fill-rule="nonzero" fill="rgb(100%, 100%, 100%)" fill-opacity="1" stroke-width="0.3985" stroke-linecap="butt" stroke-linejoin="miter" stroke="rgb(0%, 0%, 0%)" stroke-opacity="1" stroke-miterlimit="10" d="M 183.233563 -71.254813 C 183.233563 -70.375906 182.522625 -69.664969 181.647625 -69.664969 C 180.768719 -69.664969 180.057781 -70.375906 180.057781 -71.254813 C 180.057781 -72.129813 180.768719 -72.84075 181.647625 -72.84075 C 182.522625 -72.84075 183.233563 -72.129813 183.233563 -71.254813 Z M 183.233563 -71.254813 " transform="matrix(1, 0, 0, -1, -0.1945, 23.128)"/>
<path fill-rule="nonzero" fill="rgb(100%, 100%, 100%)" fill-opacity="1" stroke-width="0.3985" stroke-linecap="butt" stroke-linejoin="miter" stroke="rgb(0%, 0%, 0%)" stroke-opacity="1" stroke-miterlimit="10" d="M 189.264813 -56.692313 C 189.264813 -55.817313 188.553875 -55.106375 187.678875 -55.106375 C 186.799969 -55.106375 186.089031 -55.817313 186.089031 -56.692313 C 186.089031 -57.571219 186.799969 -58.282156 187.678875 -58.282156 C 188.553875 -58.282156 189.264813 -57.571219 189.264813 -56.692313 Z M 189.264813 -56.692313 " transform="matrix(1, 0, 0, -1, -0.1945, 23.128)"/>
<path fill-rule="nonzero" fill="rgb(100%, 100%, 100%)" fill-opacity="1" stroke-width="0.3985" stroke-linecap="butt" stroke-linejoin="miter" stroke="rgb(0%, 0%, 0%)" stroke-opacity="1" stroke-miterlimit="10" d="M 183.233563 -42.133719 C 183.233563 -41.258719 182.522625 -40.547781 181.647625 -40.547781 C 180.768719 -40.547781 180.057781 -41.258719 180.057781 -42.133719 C 180.057781 -43.008719 180.768719 -43.719656 181.647625 -43.719656 C 182.522625 -43.719656 183.233563 -43.008719 183.233563 -42.133719 Z M 183.233563 -42.133719 " transform="matrix(1, 0, 0, -1, -0.1945, 23.128)"/>
<path fill-rule="nonzero" fill="rgb(100%, 100%, 100%)" fill-opacity="1" stroke-width="0.3985" stroke-linecap="butt" stroke-linejoin="miter" stroke="rgb(0%, 0%, 0%)" stroke-opacity="1" stroke-miterlimit="10" d="M 168.674969 -36.102469 C 168.674969 -35.227469 167.964031 -34.516531 167.085125 -34.516531 C 166.210125 -34.516531 165.499188 -35.227469 165.499188 -36.102469 C 165.499188 -36.977469 166.210125 -37.688406 167.085125 -37.688406 C 167.964031 -37.688406 168.674969 -36.977469 168.674969 -36.102469 Z M 168.674969 -36.102469 " transform="matrix(1, 0, 0, -1, -0.1945, 23.128)"/>
<path fill-rule="nonzero" fill="rgb(100%, 100%, 100%)" fill-opacity="1" stroke-width="0.3985" stroke-linecap="butt" stroke-linejoin="miter" stroke="rgb(0%, 0%, 0%)" stroke-opacity="1" stroke-miterlimit="10" d="M 168.674969 -56.692313 C 168.674969 -55.817313 167.964031 -55.106375 167.085125 -55.106375 C 166.210125 -55.106375 165.499188 -55.817313 165.499188 -56.692313 C 165.499188 -57.571219 166.210125 -58.282156 167.085125 -58.282156 C 167.964031 -58.282156 168.674969 -57.571219 168.674969 -56.692313 Z M 168.674969 -56.692313 " transform="matrix(1, 0, 0, -1, -0.1945, 23.128)"/>
<path fill="none" stroke-width="0.3985" stroke-linecap="butt" stroke-linejoin="miter" stroke="rgb(0%, 0%, 0%)" stroke-opacity="1" stroke-miterlimit="10" d="M 189.264813 -56.692313 L 217.612469 -56.692313 " transform="matrix(1, 0, 0, -1, -0.1945, 23.128)"/>
<g clip-path="url(#clip-12)">
<path fill="none" stroke-width="3.17429" stroke-linecap="round" stroke-linejoin="miter" stroke="rgb(0%, 0%, 0%)" stroke-opacity="1" stroke-miterlimit="10" d="M 239.78825 -56.692313 L 220.440594 -49.649344 " transform="matrix(1, 0, 0, -1, -0.1945, 23.128)"/>
</g>
<g clip-path="url(#clip-13)">
<path fill="none" stroke-width="0.797" stroke-linecap="butt" stroke-linejoin="miter" stroke="rgb(0%, 0%, 0%)" stroke-opacity="1" stroke-miterlimit="10" d="M 236.268719 -47.020438 C 232.811688 -48.27825 230.28825 -51.282156 229.651531 -54.907156 C 229.499188 -55.754813 229.460125 -56.614188 229.522625 -57.46575 " transform="matrix(1, 0, 0, -1, -0.1945, 23.128)"/>
</g>
<path fill-rule="nonzero" fill="rgb(0%, 0%, 100%)" fill-opacity="1" d="M 230.449219 84.207031 L 231.507812 80.113281 L 229.417969 80.738281 L 227.328125 81.359375 Z M 230.449219 84.207031 "/>
<g clip-path="url(#clip-14)">
<path fill="none" stroke-width="0.797" stroke-linecap="butt" stroke-linejoin="miter" stroke="rgb(0%, 0%, 100%)" stroke-opacity="1" stroke-miterlimit="10" d="M 4.018336 -0.00213665 L 0.397227 2.181637 L 0.399348 0.000222351 L 0.397724 -2.180076 Z M 4.018336 -0.00213665 " transform="matrix(0.28558, 0.9583, 0.9583, -0.28558, 229.30371, 80.35565)"/>
</g>
<path fill-rule="nonzero" fill="rgb(100%, 100%, 100%)" fill-opacity="1" d="M 227.710938 97.652344 C 227.710938 96.777344 228.421875 96.066406 229.300781 96.066406 C 230.175781 96.066406 230.886719 96.777344 230.886719 97.652344 C 230.886719 98.53125 230.175781 99.242188 229.300781 99.242188 C 228.421875 99.242188 227.710938 98.53125 227.710938 97.652344 Z M 227.710938 97.652344 "/>
<g clip-path="url(#clip-15)">
<path fill="none" stroke-width="0.3985" stroke-linecap="butt" stroke-linejoin="miter" stroke="rgb(0%, 0%, 0%)" stroke-opacity="1" stroke-miterlimit="10" d="M 227.905438 -74.524344 C 227.905438 -73.649344 228.616375 -72.938406 229.495281 -72.938406 C 230.370281 -72.938406 231.081219 -73.649344 231.081219 -74.524344 C 231.081219 -75.40325 230.370281 -76.114188 229.495281 -76.114188 C 228.616375 -76.114188 227.905438 -75.40325 227.905438 -74.524344 Z M 227.905438 -74.524344 " transform="matrix(1, 0, 0, -1, -0.1945, 23.128)"/>
</g>
<path fill-rule="nonzero" fill="rgb(100%, 100%, 100%)" fill-opacity="1" stroke-width="0.3985" stroke-linecap="butt" stroke-linejoin="miter" stroke="rgb(0%, 0%, 0%)" stroke-opacity="1" stroke-miterlimit="10" d="M 220.370281 -66.989188 C 220.370281 -66.114188 221.081219 -65.40325 221.956219 -65.40325 C 222.835125 -65.40325 223.546063 -66.114188 223.546063 -66.989188 C 223.546063 -67.864188 222.835125 -68.575125 221.956219 -68.575125 C 221.081219 -68.575125 220.370281 -67.864188 220.370281 -66.989188 Z M 220.370281 -66.989188 " transform="matrix(1, 0, 0, -1, -0.1945, 23.128)"/>
<path fill-rule="nonzero" fill="rgb(100%, 100%, 100%)" fill-opacity="1" stroke-width="0.3985" stroke-linecap="butt" stroke-linejoin="miter" stroke="rgb(0%, 0%, 0%)" stroke-opacity="1" stroke-miterlimit="10" d="M 217.612469 -56.692313 C 217.612469 -55.817313 218.323406 -55.106375 219.198406 -55.106375 C 220.073406 -55.106375 220.784344 -55.817313 220.784344 -56.692313 C 220.784344 -57.571219 220.073406 -58.282156 219.198406 -58.282156 C 218.323406 -58.282156 217.612469 -57.571219 217.612469 -56.692313 Z M 217.612469 -56.692313 " transform="matrix(1, 0, 0, -1, -0.1945, 23.128)"/>
<path fill-rule="nonzero" fill="rgb(100%, 100%, 100%)" fill-opacity="1" stroke-width="0.3985" stroke-linecap="butt" stroke-linejoin="miter" stroke="rgb(0%, 0%, 0%)" stroke-opacity="1" stroke-miterlimit="10" d="M 220.370281 -46.399344 C 220.370281 -45.520438 221.081219 -44.8095 221.956219 -44.8095 C 222.835125 -44.8095 223.546063 -45.520438 223.546063 -46.399344 C 223.546063 -47.274344 222.835125 -47.985281 221.956219 -47.985281 C 221.081219 -47.985281 220.370281 -47.274344 220.370281 -46.399344 Z M 220.370281 -46.399344 " transform="matrix(1, 0, 0, -1, -0.1945, 23.128)"/>
<path fill-rule="nonzero" fill="rgb(100%, 100%, 100%)" fill-opacity="1" stroke-width="0.3985" stroke-linecap="butt" stroke-linejoin="miter" stroke="rgb(0%, 0%, 0%)" stroke-opacity="1" stroke-miterlimit="10" d="M 227.905438 -38.860281 C 227.905438 -37.985281 228.616375 -37.274344 229.495281 -37.274344 C 230.370281 -37.274344 231.081219 -37.985281 231.081219 -38.860281 C 231.081219 -39.739188 230.370281 -40.450125 229.495281 -40.450125 C 228.616375 -40.450125 227.905438 -39.739188 227.905438 -38.860281 Z M 227.905438 -38.860281 " transform="matrix(1, 0, 0, -1, -0.1945, 23.128)"/>
<g clip-path="url(#clip-16)">
<path fill-rule="nonzero" fill="rgb(100%, 100%, 100%)" fill-opacity="1" d="M 238.007812 79.820312 C 238.007812 78.945312 238.71875 78.234375 239.59375 78.234375 C 240.472656 78.234375 241.183594 78.945312 241.183594 79.820312 C 241.183594 80.699219 240.472656 81.410156 239.59375 81.410156 C 238.71875 81.410156 238.007812 80.699219 238.007812 79.820312 Z M 238.007812 79.820312 "/>
</g>
<g clip-path="url(#clip-17)">
<path fill="none" stroke-width="0.3985" stroke-linecap="butt" stroke-linejoin="miter" stroke="rgb(0%, 0%, 0%)" stroke-opacity="1" stroke-miterlimit="10" d="M 238.202313 -56.692313 C 238.202313 -55.817313 238.91325 -55.106375 239.78825 -55.106375 C 240.667156 -55.106375 241.378094 -55.817313 241.378094 -56.692313 C 241.378094 -57.571219 240.667156 -58.282156 239.78825 -58.282156 C 238.91325 -58.282156 238.202313 -57.571219 238.202313 -56.692313 Z M 238.202313 -56.692313 " transform="matrix(1, 0, 0, -1, -0.1945, 23.128)"/>
</g>
</svg>
