<?xml version="1.0" encoding="UTF-8"?>
<svg xmlns="http://www.w3.org/2000/svg" xmlns:xlink="http://www.w3.org/1999/xlink" width="43.83" height="56.44" viewBox="0 0 43.83 56.44">
<defs>
<g>
<g id="glyph-0-0">
<path d="M 2.765625 0 L 2.765625 -0.21875 L 2.515625 -0.21875 C 1.984375 -0.21875 1.984375 -0.28125 1.984375 -0.421875 L 1.984375 -3.171875 C 1.984375 -3.3125 1.96875 -3.3125 1.796875 -3.3125 C 1.453125 -3 0.890625 -3 0.796875 -3 L 0.71875 -3 L 0.71875 -2.78125 L 0.796875 -2.78125 C 0.90625 -2.78125 1.234375 -2.796875 1.53125 -2.921875 L 1.53125 -0.421875 C 1.53125 -0.28125 1.53125 -0.21875 1 -0.21875 L 0.75 -0.21875 L 0.75 0 C 1.015625 -0.015625 1.46875 -0.015625 1.75 -0.015625 C 2.046875 -0.015625 2.484375 -0.015625 2.765625 0 Z M 2.765625 0 "/>
</g>
<g id="glyph-0-1">
<path d="M 2.9375 -0.96875 L 2.71875 -0.96875 C 2.71875 -0.875 2.65625 -0.5625 2.578125 -0.515625 C 2.546875 -0.484375 2.125 -0.484375 2.046875 -0.484375 L 1.078125 -0.484375 C 1.40625 -0.71875 1.765625 -1 2.0625 -1.203125 C 2.515625 -1.515625 2.9375 -1.796875 2.9375 -2.328125 C 2.9375 -2.96875 2.328125 -3.3125 1.625 -3.3125 C 0.953125 -3.3125 0.453125 -2.9375 0.453125 -2.4375 C 0.453125 -2.1875 0.671875 -2.140625 0.75 -2.140625 C 0.875 -2.140625 1.03125 -2.234375 1.03125 -2.4375 C 1.03125 -2.609375 0.90625 -2.71875 0.75 -2.71875 C 0.890625 -2.953125 1.1875 -3.09375 1.515625 -3.09375 C 2 -3.09375 2.40625 -2.8125 2.40625 -2.328125 C 2.40625 -1.90625 2.109375 -1.578125 1.734375 -1.265625 L 0.515625 -0.234375 C 0.46875 -0.1875 0.453125 -0.1875 0.453125 -0.15625 L 0.453125 0 L 2.765625 0 Z M 2.9375 -0.96875 "/>
</g>
<g id="glyph-0-2">
<path d="M 2.984375 -0.875 C 2.984375 -1.28125 2.625 -1.625 2.0625 -1.75 C 2.65625 -1.953125 2.8125 -2.328125 2.8125 -2.609375 C 2.8125 -3.015625 2.3125 -3.3125 1.6875 -3.3125 C 1.0625 -3.3125 0.578125 -3.0625 0.578125 -2.609375 C 0.578125 -2.375 0.765625 -2.3125 0.859375 -2.3125 C 1 -2.3125 1.140625 -2.421875 1.140625 -2.609375 C 1.140625 -2.71875 1.078125 -2.859375 0.90625 -2.890625 C 1.109375 -3.109375 1.5625 -3.125 1.671875 -3.125 C 2.03125 -3.125 2.28125 -2.953125 2.28125 -2.609375 C 2.28125 -2.3125 2.09375 -1.859375 1.578125 -1.828125 C 1.4375 -1.828125 1.421875 -1.828125 1.28125 -1.8125 C 1.234375 -1.8125 1.171875 -1.8125 1.171875 -1.734375 C 1.171875 -1.65625 1.21875 -1.65625 1.3125 -1.65625 L 1.640625 -1.65625 C 2.109375 -1.65625 2.40625 -1.359375 2.40625 -0.875 C 2.40625 -0.359375 2.09375 -0.09375 1.65625 -0.09375 C 1.59375 -0.09375 1 -0.09375 0.75 -0.359375 C 0.953125 -0.390625 1.015625 -0.53125 1.015625 -0.65625 C 1.015625 -0.84375 0.875 -0.96875 0.703125 -0.96875 C 0.546875 -0.96875 0.40625 -0.859375 0.40625 -0.640625 C 0.40625 -0.125 0.984375 0.109375 1.671875 0.109375 C 2.484375 0.109375 2.984375 -0.390625 2.984375 -0.875 Z M 2.984375 -0.875 "/>
</g>
<g id="glyph-0-3">
<path d="M 3.078125 -0.8125 L 3.078125 -1.03125 L 2.453125 -1.03125 L 2.453125 -3.21875 C 2.453125 -3.34375 2.453125 -3.375 2.3125 -3.375 C 2.21875 -3.375 2.21875 -3.375 2.15625 -3.296875 L 0.3125 -1.03125 L 0.3125 -0.8125 L 1.96875 -0.8125 L 1.96875 -0.421875 C 1.96875 -0.265625 1.96875 -0.21875 1.546875 -0.21875 L 1.359375 -0.21875 L 1.359375 0 L 2.21875 -0.015625 L 3.0625 0 L 3.0625 -0.21875 L 2.890625 -0.21875 C 2.453125 -0.21875 2.453125 -0.265625 2.453125 -0.421875 L 2.453125 -0.8125 Z M 2.015625 -1.03125 L 0.546875 -1.03125 L 2.015625 -2.84375 Z M 2.015625 -1.03125 "/>
</g>
<g id="glyph-0-4">
<path d="M 2.9375 -1 C 2.9375 -1.5625 2.453125 -2.09375 1.765625 -2.09375 C 1.453125 -2.09375 1.1875 -2.015625 0.984375 -1.84375 L 0.984375 -2.75 C 1.234375 -2.6875 1.46875 -2.6875 1.515625 -2.6875 C 1.859375 -2.6875 2.109375 -2.78125 2.234375 -2.84375 C 2.359375 -2.90625 2.703125 -3.125 2.703125 -3.234375 C 2.703125 -3.3125 2.640625 -3.3125 2.625 -3.3125 C 2.625 -3.3125 2.609375 -3.3125 2.546875 -3.296875 C 2.359375 -3.234375 2.046875 -3.15625 1.71875 -3.15625 C 1.4375 -3.15625 1.171875 -3.203125 0.90625 -3.296875 C 0.84375 -3.3125 0.828125 -3.3125 0.828125 -3.3125 C 0.75 -3.3125 0.75 -3.265625 0.75 -3.1875 L 0.75 -1.6875 C 0.75 -1.59375 0.75 -1.53125 0.859375 -1.53125 C 0.90625 -1.53125 0.90625 -1.546875 0.953125 -1.59375 C 1.140625 -1.8125 1.40625 -1.921875 1.75 -1.921875 C 2.03125 -1.921875 2.203125 -1.765625 2.265625 -1.65625 C 2.375 -1.484375 2.40625 -1.265625 2.40625 -1.015625 C 2.40625 -0.8125 2.390625 -0.53125 2.1875 -0.34375 C 1.96875 -0.109375 1.6875 -0.09375 1.578125 -0.09375 C 1.25 -0.09375 0.890625 -0.234375 0.734375 -0.53125 C 0.9375 -0.546875 1.015625 -0.6875 1.015625 -0.8125 C 1.015625 -0.96875 0.890625 -1.09375 0.734375 -1.09375 C 0.625 -1.09375 0.453125 -1.015625 0.453125 -0.796875 C 0.453125 -0.296875 0.9375 0.109375 1.578125 0.109375 C 2.328125 0.109375 2.9375 -0.390625 2.9375 -1 Z M 2.9375 -1 "/>
</g>
<g id="glyph-0-5">
<path d="M 2.984375 -1.015625 C 2.984375 -1.328125 2.890625 -1.5625 2.625 -1.796875 C 2.40625 -2 2.1875 -2.140625 1.75 -2.140625 C 1.453125 -2.140625 1.140625 -2 0.921875 -1.640625 C 0.9375 -1.859375 0.9375 -2.265625 1.109375 -2.578125 C 1.265625 -2.84375 1.578125 -3.125 2.046875 -3.125 C 2.140625 -3.125 2.375 -3.125 2.515625 -3 C 2.4375 -2.984375 2.3125 -2.90625 2.3125 -2.734375 C 2.3125 -2.578125 2.421875 -2.46875 2.578125 -2.46875 C 2.65625 -2.46875 2.84375 -2.515625 2.84375 -2.75 C 2.84375 -3.015625 2.640625 -3.3125 2.046875 -3.3125 C 1.1875 -3.3125 0.40625 -2.609375 0.40625 -1.578125 C 0.40625 -0.390625 0.984375 0.109375 1.703125 0.109375 C 2.203125 0.109375 2.4375 -0.078125 2.609375 -0.21875 C 2.921875 -0.484375 2.984375 -0.765625 2.984375 -1.015625 Z M 2.46875 -1.03125 C 2.46875 -0.734375 2.46875 -0.546875 2.296875 -0.34375 C 2.15625 -0.1875 1.984375 -0.09375 1.703125 -0.09375 C 0.9375 -0.09375 0.9375 -0.921875 0.9375 -1.125 C 0.9375 -1.515625 1.21875 -1.96875 1.734375 -1.96875 C 2 -1.96875 2.15625 -1.90625 2.3125 -1.703125 C 2.453125 -1.515625 2.46875 -1.3125 2.46875 -1.03125 Z M 2.46875 -1.03125 "/>
</g>
<g id="glyph-0-6">
<path d="M 3.171875 -3.078125 L 3.171875 -3.203125 L 1.953125 -3.203125 C 1.828125 -3.203125 1.09375 -3.234375 1.015625 -3.25 C 0.890625 -3.265625 0.890625 -3.3125 0.875 -3.375 L 0.671875 -3.375 L 0.484375 -2.25 L 0.6875 -2.25 C 0.703125 -2.328125 0.75 -2.640625 0.84375 -2.703125 C 0.875 -2.71875 1.34375 -2.734375 1.421875 -2.734375 L 2.609375 -2.734375 C 2.390625 -2.484375 2.125 -2.21875 1.921875 -1.96875 C 1.328125 -1.21875 1.265625 -0.5 1.265625 -0.1875 C 1.265625 0.078125 1.4375 0.109375 1.53125 0.109375 C 1.796875 0.109375 1.796875 -0.140625 1.796875 -0.203125 L 1.796875 -0.296875 C 1.796875 -1.1875 1.984375 -1.734375 2.28125 -2.0625 L 3.109375 -2.984375 C 3.15625 -3.03125 3.15625 -3.046875 3.171875 -3.078125 Z M 3.171875 -3.078125 "/>
</g>
<g id="glyph-0-7">
<path d="M 2.984375 -0.859375 C 2.984375 -1.390625 2.46875 -1.65625 2.140625 -1.796875 C 2.65625 -2.015625 2.8125 -2.28125 2.8125 -2.5625 C 2.8125 -3.078125 2.25 -3.3125 1.703125 -3.3125 C 1.078125 -3.3125 0.578125 -2.96875 0.578125 -2.46875 C 0.578125 -2.015625 0.96875 -1.8125 1.21875 -1.671875 C 0.703125 -1.46875 0.40625 -1.171875 0.40625 -0.765625 C 0.40625 -0.171875 1.0625 0.109375 1.6875 0.109375 C 2.390625 0.109375 2.984375 -0.265625 2.984375 -0.859375 Z M 2.5 -2.5625 C 2.5 -2.125 1.9375 -1.90625 1.9375 -1.90625 C 1.9375 -1.90625 1.921875 -1.90625 1.875 -1.9375 L 1.15625 -2.3125 C 0.953125 -2.421875 0.875 -2.546875 0.875 -2.671875 C 0.875 -2.984375 1.296875 -3.125 1.6875 -3.125 C 2.09375 -3.125 2.5 -2.9375 2.5 -2.5625 Z M 2.640625 -0.671875 C 2.640625 -0.265625 2.140625 -0.09375 1.703125 -0.09375 C 1.25 -0.09375 0.75 -0.3125 0.75 -0.765625 C 0.75 -1.265625 1.28125 -1.5 1.4375 -1.5625 L 2.21875 -1.171875 C 2.390625 -1.078125 2.640625 -0.9375 2.640625 -0.671875 Z M 2.640625 -0.671875 "/>
</g>
<g id="glyph-0-8">
<path d="M 2.984375 -1.640625 C 2.984375 -2.84375 2.40625 -3.3125 1.71875 -3.3125 C 1.21875 -3.3125 0.96875 -3.140625 0.765625 -2.96875 C 0.46875 -2.71875 0.40625 -2.453125 0.40625 -2.1875 C 0.40625 -1.90625 0.484375 -1.65625 0.75 -1.421875 C 0.984375 -1.21875 1.21875 -1.078125 1.640625 -1.078125 C 1.84375 -1.078125 2.203125 -1.15625 2.46875 -1.578125 C 2.46875 -1.265625 2.4375 -0.890625 2.265625 -0.59375 C 2.109375 -0.3125 1.8125 -0.09375 1.40625 -0.09375 C 1.359375 -0.09375 1.046875 -0.09375 0.875 -0.21875 C 1 -0.25 1.078125 -0.34375 1.078125 -0.46875 C 1.078125 -0.640625 0.96875 -0.734375 0.8125 -0.734375 C 0.734375 -0.734375 0.546875 -0.6875 0.546875 -0.453125 C 0.546875 0.109375 1.28125 0.109375 1.421875 0.109375 C 2.265625 0.109375 2.984375 -0.609375 2.984375 -1.640625 Z M 2.453125 -2.09375 C 2.453125 -1.6875 2.15625 -1.25 1.65625 -1.25 C 1.453125 -1.25 1.265625 -1.28125 1.078125 -1.515625 C 0.9375 -1.6875 0.921875 -1.90625 0.921875 -2.1875 C 0.921875 -2.546875 0.9375 -2.703125 1.125 -2.90625 C 1.203125 -2.984375 1.359375 -3.125 1.71875 -3.125 C 2.453125 -3.125 2.453125 -2.3125 2.453125 -2.09375 Z M 2.453125 -2.09375 "/>
</g>
<g id="glyph-0-9">
<path d="M 3 -1.59375 C 3 -1.953125 3 -3.3125 1.6875 -3.3125 C 0.390625 -3.3125 0.390625 -1.953125 0.390625 -1.59375 C 0.390625 -1.234375 0.390625 0.109375 1.6875 0.109375 C 3 0.109375 3 -1.234375 3 -1.59375 Z M 2.5 -1.65625 C 2.5 -1.3125 2.5 -0.90625 2.421875 -0.609375 C 2.296875 -0.125 1.890625 -0.0625 1.6875 -0.0625 C 1.515625 -0.0625 1.09375 -0.125 0.96875 -0.625 C 0.890625 -0.890625 0.890625 -1.25 0.890625 -1.65625 C 0.890625 -2.03125 0.890625 -2.375 0.96875 -2.65625 C 1.09375 -3.078125 1.484375 -3.15625 1.6875 -3.15625 C 2.0625 -3.15625 2.328125 -2.96875 2.421875 -2.609375 C 2.5 -2.359375 2.5 -1.953125 2.5 -1.65625 Z M 2.5 -1.65625 "/>
</g>
</g>
<clipPath id="clip-0">
<path clip-rule="nonzero" d="M 29 21 L 43.746094 21 L 43.746094 36 L 29 36 Z M 29 21 "/>
</clipPath>
<clipPath id="clip-1">
<path clip-rule="nonzero" d="M 41 26 L 43.746094 26 L 43.746094 31 L 41 31 Z M 41 26 "/>
</clipPath>
<clipPath id="clip-2">
<path clip-rule="nonzero" d="M 17 52 L 24 52 L 24 56.160156 L 17 56.160156 Z M 17 52 "/>
</clipPath>
<clipPath id="clip-3">
<path clip-rule="nonzero" d="M 8 52 L 15 52 L 15 56.160156 L 8 56.160156 Z M 8 52 "/>
</clipPath>
</defs>
<path fill="none" stroke-width="3.17429" stroke-linecap="round" stroke-linejoin="miter" stroke="rgb(0%, 0%, 0%)" stroke-opacity="1" stroke-miterlimit="10" d="M -5.146875 0.00071875 L 15.442969 0.00071875 " transform="matrix(1, 0, 0, -1, 20.975, 28.489)"/>
<path fill-rule="nonzero" fill="rgb(100%, 100%, 100%)" fill-opacity="1" stroke-width="0.3985" stroke-linecap="butt" stroke-linejoin="miter" stroke="rgb(0%, 0%, 0%)" stroke-opacity="1" stroke-miterlimit="10" d="M -13.857812 -17.831313 C -13.857812 -16.956313 -14.564844 -16.245375 -15.44375 -16.245375 C -16.31875 -16.245375 -17.029687 -16.956313 -17.029687 -17.831313 C -17.029687 -18.710219 -16.31875 -19.421156 -15.44375 -19.421156 C -14.564844 -19.421156 -13.857812 -18.710219 -13.857812 -17.831313 Z M -13.857812 -17.831313 " transform="matrix(1, 0, 0, -1, 20.975, 28.489)"/>
<path fill-rule="nonzero" fill="rgb(100%, 100%, 100%)" fill-opacity="1" stroke-width="0.3985" stroke-linecap="butt" stroke-linejoin="miter" stroke="rgb(0%, 0%, 0%)" stroke-opacity="1" stroke-miterlimit="10" d="M -7.135156 -20.276625 C -7.135156 -19.401625 -7.846094 -18.690688 -8.725 -18.690688 C -9.6 -18.690688 -10.310937 -19.401625 -10.310937 -20.276625 C -10.310937 -21.155531 -9.6 -21.866469 -8.725 -21.866469 C -7.846094 -21.866469 -7.135156 -21.155531 -7.135156 -20.276625 Z M -7.135156 -20.276625 " transform="matrix(1, 0, 0, -1, 20.975, 28.489)"/>
<path fill-rule="nonzero" fill="rgb(100%, 100%, 100%)" fill-opacity="1" stroke-width="0.3985" stroke-linecap="butt" stroke-linejoin="miter" stroke="rgb(0%, 0%, 0%)" stroke-opacity="1" stroke-miterlimit="10" d="M 0.0132813 -20.276625 C 0.0132813 -19.401625 -0.69375 -18.690688 -1.572656 -18.690688 C -2.447656 -18.690688 -3.158594 -19.401625 -3.158594 -20.276625 C -3.158594 -21.155531 -2.447656 -21.866469 -1.572656 -21.866469 C -0.69375 -21.866469 0.0132813 -21.155531 0.0132813 -20.276625 Z M 0.0132813 -20.276625 " transform="matrix(1, 0, 0, -1, 20.975, 28.489)"/>
<path fill-rule="nonzero" fill="rgb(100%, 100%, 100%)" fill-opacity="1" stroke-width="0.3985" stroke-linecap="butt" stroke-linejoin="miter" stroke="rgb(0%, 0%, 0%)" stroke-opacity="1" stroke-miterlimit="10" d="M 6.735938 -17.831313 C 6.735938 -16.956313 6.025 -16.245375 5.146094 -16.245375 C 4.271094 -16.245375 3.560156 -16.956313 3.560156 -17.831313 C 3.560156 -18.710219 4.271094 -19.421156 5.146094 -19.421156 C 6.025 -19.421156 6.735938 -18.710219 6.735938 -17.831313 Z M 6.735938 -17.831313 " transform="matrix(1, 0, 0, -1, 20.975, 28.489)"/>
<path fill-rule="nonzero" fill="rgb(100%, 100%, 100%)" fill-opacity="1" stroke-width="0.3985" stroke-linecap="butt" stroke-linejoin="miter" stroke="rgb(0%, 0%, 0%)" stroke-opacity="1" stroke-miterlimit="10" d="M 12.2125 -13.237563 C 12.2125 -12.358656 11.501563 -11.647719 10.626563 -11.647719 C 9.747656 -11.647719 9.036719 -12.358656 9.036719 -13.237563 C 9.036719 -14.112563 9.747656 -14.8235 10.626563 -14.8235 C 11.501563 -14.8235 12.2125 -14.112563 12.2125 -13.237563 Z M 12.2125 -13.237563 " transform="matrix(1, 0, 0, -1, 20.975, 28.489)"/>
<path fill-rule="nonzero" fill="rgb(100%, 100%, 100%)" fill-opacity="1" stroke-width="0.3985" stroke-linecap="butt" stroke-linejoin="miter" stroke="rgb(0%, 0%, 0%)" stroke-opacity="1" stroke-miterlimit="10" d="M 15.786719 -7.04225 C 15.786719 -6.16725 15.079688 -5.456313 14.200781 -5.456313 C 13.325781 -5.456313 12.614844 -6.16725 12.614844 -7.04225 C 12.614844 -7.91725 13.325781 -8.628188 14.200781 -8.628188 C 15.079688 -8.628188 15.786719 -7.91725 15.786719 -7.04225 Z M 15.786719 -7.04225 " transform="matrix(1, 0, 0, -1, 20.975, 28.489)"/>
<path fill-rule="nonzero" fill="rgb(100%, 100%, 100%)" fill-opacity="1" d="M 38.003906 28.488281 C 38.003906 27.613281 37.292969 26.902344 36.417969 26.902344 C 35.542969 26.902344 34.832031 27.613281 34.832031 28.488281 C 34.832031 29.367188 35.542969 30.074219 36.417969 30.074219 C 37.292969 30.074219 38.003906 29.367188 38.003906 28.488281 Z M 38.003906 28.488281 "/>
<g clip-path="url(#clip-0)">
<path fill="none" stroke-width="0.3985" stroke-linecap="butt" stroke-linejoin="miter" stroke="rgb(0%, 0%, 0%)" stroke-opacity="1" stroke-miterlimit="10" d="M 17.028906 0.00071875 C 17.028906 0.875719 16.317969 1.586656 15.442969 1.586656 C 14.567969 1.586656 13.857031 0.875719 13.857031 0.00071875 C 13.857031 -0.878188 14.567969 -1.585219 15.442969 -1.585219 C 16.317969 -1.585219 17.028906 -0.878188 17.028906 0.00071875 Z M 17.028906 0.00071875 " transform="matrix(1, 0, 0, -1, 20.975, 28.489)"/>
</g>
<path fill-rule="nonzero" fill="rgb(100%, 100%, 100%)" fill-opacity="1" stroke-width="0.3985" stroke-linecap="butt" stroke-linejoin="miter" stroke="rgb(0%, 0%, 0%)" stroke-opacity="1" stroke-miterlimit="10" d="M 15.786719 7.043687 C 15.786719 7.918687 15.079688 8.629625 14.200781 8.629625 C 13.325781 8.629625 12.614844 7.918687 12.614844 7.043687 C 12.614844 6.164781 13.325781 5.453844 14.200781 5.453844 C 15.079688 5.453844 15.786719 6.164781 15.786719 7.043687 Z M 15.786719 7.043687 " transform="matrix(1, 0, 0, -1, 20.975, 28.489)"/>
<path fill-rule="nonzero" fill="rgb(100%, 100%, 100%)" fill-opacity="1" stroke-width="0.3985" stroke-linecap="butt" stroke-linejoin="miter" stroke="rgb(0%, 0%, 0%)" stroke-opacity="1" stroke-miterlimit="10" d="M 12.2125 13.235094 C 12.2125 14.114 11.501563 14.821031 10.626563 14.821031 C 9.747656 14.821031 9.036719 14.114 9.036719 13.235094 C 9.036719 12.360094 9.747656 11.649156 10.626563 11.649156 C 11.501563 11.649156 12.2125 12.360094 12.2125 13.235094 Z M 12.2125 13.235094 " transform="matrix(1, 0, 0, -1, 20.975, 28.489)"/>
<path fill-rule="nonzero" fill="rgb(100%, 100%, 100%)" fill-opacity="1" stroke-width="0.3985" stroke-linecap="butt" stroke-linejoin="miter" stroke="rgb(0%, 0%, 0%)" stroke-opacity="1" stroke-miterlimit="10" d="M 6.735938 17.83275 C 6.735938 18.70775 6.025 19.418687 5.146094 19.418687 C 4.271094 19.418687 3.560156 18.70775 3.560156 17.83275 C 3.560156 16.953844 4.271094 16.246812 5.146094 16.246812 C 6.025 16.246812 6.735938 16.953844 6.735938 17.83275 Z M 6.735938 17.83275 " transform="matrix(1, 0, 0, -1, 20.975, 28.489)"/>
<path fill-rule="nonzero" fill="rgb(100%, 100%, 100%)" fill-opacity="1" stroke-width="0.3985" stroke-linecap="butt" stroke-linejoin="miter" stroke="rgb(0%, 0%, 0%)" stroke-opacity="1" stroke-miterlimit="10" d="M 0.0132813 20.278062 C 0.0132813 21.153062 -0.69375 21.864 -1.572656 21.864 C -2.447656 21.864 -3.158594 21.153062 -3.158594 20.278062 C -3.158594 19.403062 -2.447656 18.692125 -1.572656 18.692125 C -0.69375 18.692125 0.0132813 19.403062 0.0132813 20.278062 Z M 0.0132813 20.278062 " transform="matrix(1, 0, 0, -1, 20.975, 28.489)"/>
<path fill-rule="nonzero" fill="rgb(100%, 100%, 100%)" fill-opacity="1" stroke-width="0.3985" stroke-linecap="butt" stroke-linejoin="miter" stroke="rgb(0%, 0%, 0%)" stroke-opacity="1" stroke-miterlimit="10" d="M -7.135156 20.278062 C -7.135156 21.153062 -7.846094 21.864 -8.725 21.864 C -9.6 21.864 -10.310937 21.153062 -10.310937 20.278062 C -10.310937 19.403062 -9.6 18.692125 -8.725 18.692125 C -7.846094 18.692125 -7.135156 19.403062 -7.135156 20.278062 Z M -7.135156 20.278062 " transform="matrix(1, 0, 0, -1, 20.975, 28.489)"/>
<path fill-rule="nonzero" fill="rgb(100%, 100%, 100%)" fill-opacity="1" stroke-width="0.3985" stroke-linecap="butt" stroke-linejoin="miter" stroke="rgb(0%, 0%, 0%)" stroke-opacity="1" stroke-miterlimit="10" d="M -13.857812 17.83275 C -13.857812 18.70775 -14.564844 19.418687 -15.44375 19.418687 C -16.31875 19.418687 -17.029687 18.70775 -17.029687 17.83275 C -17.029687 16.953844 -16.31875 16.246812 -15.44375 16.246812 C -14.564844 16.246812 -13.857812 16.953844 -13.857812 17.83275 Z M -13.857812 17.83275 " transform="matrix(1, 0, 0, -1, 20.975, 28.489)"/>
<path fill-rule="nonzero" fill="rgb(100%, 100%, 100%)" fill-opacity="1" stroke-width="0.3985" stroke-linecap="butt" stroke-linejoin="miter" stroke="rgb(0%, 0%, 0%)" stroke-opacity="1" stroke-miterlimit="10" d="M -3.560937 0.00071875 C -3.560937 0.875719 -4.271875 1.586656 -5.146875 1.586656 C -6.025781 1.586656 -6.736719 0.875719 -6.736719 0.00071875 C -6.736719 -0.878188 -6.025781 -1.585219 -5.146875 -1.585219 C -4.271875 -1.585219 -3.560937 -0.878188 -3.560937 0.00071875 Z M -3.560937 0.00071875 " transform="matrix(1, 0, 0, -1, 20.975, 28.489)"/>
<g fill="rgb(100%, 0%, 0%)" fill-opacity="1">
<use xlink:href="#glyph-0-0" x="0.899" y="7.173"/>
</g>
<g fill="rgb(100%, 0%, 0%)" fill-opacity="1">
<use xlink:href="#glyph-0-1" x="9.536" y="4.029"/>
</g>
<g fill="rgb(100%, 0%, 0%)" fill-opacity="1">
<use xlink:href="#glyph-0-2" x="18.728" y="4.029"/>
</g>
<g fill="rgb(100%, 0%, 0%)" fill-opacity="1">
<use xlink:href="#glyph-0-3" x="27.366" y="7.173"/>
</g>
<g fill="rgb(100%, 0%, 0%)" fill-opacity="1">
<use xlink:href="#glyph-0-4" x="34.407" y="13.081"/>
</g>
<g fill="rgb(100%, 0%, 0%)" fill-opacity="1">
<use xlink:href="#glyph-0-5" x="39.003" y="21.042"/>
</g>
<g clip-path="url(#clip-1)">
<g fill="rgb(100%, 0%, 0%)" fill-opacity="1">
<use xlink:href="#glyph-0-6" x="40.6" y="30.094"/>
</g>
</g>
<g fill="rgb(100%, 0%, 0%)" fill-opacity="1">
<use xlink:href="#glyph-0-7" x="39.003" y="39.146"/>
</g>
<g fill="rgb(100%, 0%, 0%)" fill-opacity="1">
<use xlink:href="#glyph-0-8" x="34.407" y="47.107"/>
</g>
<g fill="rgb(100%, 0%, 0%)" fill-opacity="1">
<use xlink:href="#glyph-0-0" x="25.671" y="53.015"/>
<use xlink:href="#glyph-0-9" x="29.061273" y="53.015"/>
</g>
<g clip-path="url(#clip-2)">
<g fill="rgb(100%, 0%, 0%)" fill-opacity="1">
<use xlink:href="#glyph-0-0" x="17.033" y="56.159"/>
<use xlink:href="#glyph-0-0" x="20.423273" y="56.159"/>
</g>
</g>
<g clip-path="url(#clip-3)">
<g fill="rgb(100%, 0%, 0%)" fill-opacity="1">
<use xlink:href="#glyph-0-0" x="7.841" y="56.159"/>
<use xlink:href="#glyph-0-1" x="11.231273" y="56.159"/>
</g>
</g>
<g fill="rgb(100%, 0%, 0%)" fill-opacity="1">
<use xlink:href="#glyph-0-0" x="-0.797" y="53.015"/>
<use xlink:href="#glyph-0-2" x="2.593273" y="53.015"/>
</g>
</svg>
