<?xml version="1.0" encoding="UTF-8"?>
<svg xmlns="http://www.w3.org/2000/svg" xmlns:xlink="http://www.w3.org/1999/xlink" width="82.098pt" height="42.4pt" viewBox="0 0 82.098 42.4">
<defs>
<clipPath id="clip-0">
<path clip-rule="nonzero" d="M 1 2 L 81.648438 2 L 81.648438 41 L 1 41 Z M 1 2 "/>
</clipPath>
<clipPath id="clip-1">
<path clip-rule="nonzero" d="M 0 33 L 9 33 L 9 42.101562 L 0 42.101562 Z M 0 33 "/>
</clipPath>
</defs>
<path fill="none" stroke-width="0.3985" stroke-linecap="butt" stroke-linejoin="miter" stroke="rgb(0%, 0%, 0%)" stroke-opacity="1" stroke-miterlimit="10" d="M -0.0014375 37.795094 L 21.260281 37.795094 M 21.260281 37.795094 L 33.166531 37.795094 " transform="matrix(1, 0, 0, -1, 1.353, 40.299)"/>
<path fill="none" stroke-width="0.3985" stroke-linecap="butt" stroke-linejoin="miter" stroke="rgb(0%, 0%, 0%)" stroke-opacity="1" stroke-miterlimit="10" d="M -5.101609 0.00005625 L -4.253952 0.00005625 L -0.00004625 4.250056 L 4.25386 0.00005625 " transform="matrix(1, 0, 0, 1, 39.62114, 2.50385)"/>
<path fill-rule="nonzero" fill="rgb(100%, 100%, 100%)" fill-opacity="1" stroke-width="0.3985" stroke-linecap="butt" stroke-linejoin="miter" stroke="rgb(0%, 0%, 0%)" stroke-opacity="1" stroke-miterlimit="10" d="M 1.588406 37.795094 C 1.588406 38.670094 0.877469 39.381031 -0.0014375 39.381031 C -0.876437 39.381031 -1.587375 38.670094 -1.587375 37.795094 C -1.587375 36.920094 -0.876437 36.209156 -0.0014375 36.209156 C 0.877469 36.209156 1.588406 36.920094 1.588406 37.795094 Z M 1.588406 37.795094 " transform="matrix(1, 0, 0, -1, 1.353, 40.299)"/>
<path fill="none" stroke-width="0.3985" stroke-linecap="butt" stroke-linejoin="miter" stroke="rgb(0%, 0%, 0%)" stroke-opacity="1" stroke-miterlimit="10" d="M -0.0014375 28.345875 L 14.174344 28.345875 L 14.174344 34.322438 " transform="matrix(1, 0, 0, -1, 1.353, 40.299)"/>
<path fill-rule="nonzero" fill="rgb(0%, 0%, 0%)" fill-opacity="1" stroke-width="0.3985" stroke-linecap="butt" stroke-linejoin="miter" stroke="rgb(0%, 0%, 0%)" stroke-opacity="1" stroke-miterlimit="10" d="M 3.173036 -0.00095375 L 0.20038 1.764671 L 0.20038 -1.762673 Z M 3.173036 -0.00095375 " transform="matrix(0, -1, -1, 0, 15.52639, 6.07538)"/>
<path fill-rule="nonzero" fill="rgb(100%, 100%, 100%)" fill-opacity="1" stroke-width="0.3985" stroke-linecap="butt" stroke-linejoin="miter" stroke="rgb(0%, 0%, 0%)" stroke-opacity="1" stroke-miterlimit="10" d="M 1.588406 28.345875 C 1.588406 29.224781 0.877469 29.935719 -0.0014375 29.935719 C -0.876437 29.935719 -1.587375 29.224781 -1.587375 28.345875 C -1.587375 27.470875 -0.876437 26.759938 -0.0014375 26.759938 C 0.877469 26.759938 1.588406 27.470875 1.588406 28.345875 Z M 1.588406 28.345875 " transform="matrix(1, 0, 0, -1, 1.353, 40.299)"/>
<path fill="none" stroke-width="0.3985" stroke-linecap="butt" stroke-linejoin="miter" stroke="rgb(0%, 0%, 0%)" stroke-opacity="1" stroke-miterlimit="10" d="M -0.0014375 18.896656 L 14.174344 18.896656 L 14.174344 12.920094 " transform="matrix(1, 0, 0, -1, 1.353, 40.299)"/>
<path fill-rule="nonzero" fill="rgb(0%, 0%, 0%)" fill-opacity="1" stroke-width="0.3985" stroke-linecap="butt" stroke-linejoin="miter" stroke="rgb(0%, 0%, 0%)" stroke-opacity="1" stroke-miterlimit="10" d="M 3.174895 0.00095375 L 0.198332 1.762673 L 0.198332 -1.764671 Z M 3.174895 0.00095375 " transform="matrix(0, 1, 1, 0, 15.52639, 27.27823)"/>
<path fill-rule="nonzero" fill="rgb(100%, 100%, 100%)" fill-opacity="1" stroke-width="0.3985" stroke-linecap="butt" stroke-linejoin="miter" stroke="rgb(0%, 0%, 0%)" stroke-opacity="1" stroke-miterlimit="10" d="M 1.588406 18.896656 C 1.588406 19.775563 0.877469 20.4865 -0.0014375 20.4865 C -0.876437 20.4865 -1.587375 19.775563 -1.587375 18.896656 C -1.587375 18.021656 -0.876437 17.310719 -0.0014375 17.310719 C 0.877469 17.310719 1.588406 18.021656 1.588406 18.896656 Z M 1.588406 18.896656 " transform="matrix(1, 0, 0, -1, 1.353, 40.299)"/>
<path fill="none" stroke-width="0.3985" stroke-linecap="butt" stroke-linejoin="miter" stroke="rgb(0%, 0%, 0%)" stroke-opacity="1" stroke-miterlimit="10" d="M -0.0014375 9.447438 L 14.174344 9.447438 M 14.174344 9.447438 L 18.99075 9.447438 " transform="matrix(1, 0, 0, -1, 1.353, 40.299)"/>
<path fill="none" stroke-width="0.3985" stroke-linecap="butt" stroke-linejoin="miter" stroke="rgb(0%, 0%, 0%)" stroke-opacity="1" stroke-miterlimit="10" d="M -5.10399 -0.0013425 L -4.252427 -0.0013425 L 0.00147875 4.252564 L 4.251479 -0.0013425 " transform="matrix(1, 0, 0, -1, 25.44774, 30.85022)"/>
<path fill-rule="nonzero" fill="rgb(100%, 100%, 100%)" fill-opacity="1" stroke-width="0.3985" stroke-linecap="butt" stroke-linejoin="miter" stroke="rgb(0%, 0%, 0%)" stroke-opacity="1" stroke-miterlimit="10" d="M 1.588406 9.447438 C 1.588406 10.326344 0.877469 11.037281 -0.0014375 11.037281 C -0.876437 11.037281 -1.587375 10.326344 -1.587375 9.447438 C -1.587375 8.572438 -0.876437 7.8615 -0.0014375 7.8615 C 0.877469 7.8615 1.588406 8.572438 1.588406 9.447438 Z M 1.588406 9.447438 " transform="matrix(1, 0, 0, -1, 1.353, 40.299)"/>
<g clip-path="url(#clip-0)">
<path fill="none" stroke-width="0.3985" stroke-linecap="butt" stroke-linejoin="miter" stroke="rgb(0%, 0%, 0%)" stroke-opacity="1" stroke-miterlimit="10" d="M -0.0014375 -0.00178125 L 37.205594 -0.00178125 M 37.205594 -0.00178125 L 74.408719 -0.00178125 M 74.408719 -0.00178125 L 74.408719 37.795094 L 80.080594 37.795094 L 80.080594 -0.00178125 Z M 74.408719 -0.00178125 " transform="matrix(1, 0, 0, -1, 1.353, 40.299)"/>
</g>
<path fill-rule="nonzero" fill="rgb(100%, 100%, 100%)" fill-opacity="1" d="M 2.941406 40.300781 C 2.941406 39.421875 2.230469 38.710938 1.351562 38.710938 C 0.476562 38.710938 -0.234375 39.421875 -0.234375 40.300781 C -0.234375 41.175781 0.476562 41.886719 1.351562 41.886719 C 2.230469 41.886719 2.941406 41.175781 2.941406 40.300781 Z M 2.941406 40.300781 "/>
<g clip-path="url(#clip-1)">
<path fill="none" stroke-width="0.3985" stroke-linecap="butt" stroke-linejoin="miter" stroke="rgb(0%, 0%, 0%)" stroke-opacity="1" stroke-miterlimit="10" d="M 1.588406 -0.00178125 C 1.588406 0.877125 0.877469 1.588063 -0.0014375 1.588063 C -0.876437 1.588063 -1.587375 0.877125 -1.587375 -0.00178125 C -1.587375 -0.876781 -0.876437 -1.587719 -0.0014375 -1.587719 C 0.877469 -1.587719 1.588406 -0.876781 1.588406 -0.00178125 Z M 1.588406 -0.00178125 " transform="matrix(1, 0, 0, -1, 1.353, 40.299)"/>
</g>
</svg>
