<?xml version="1.0" encoding="UTF-8"?>
<svg xmlns="http://www.w3.org/2000/svg" xmlns:xlink="http://www.w3.org/1999/xlink" width="78.722pt" height="57.7pt" viewBox="0 0 78.722 57.7">
<defs>
<clipPath id="clip-0">
<path clip-rule="nonzero" d="M 5 0 L 7 0 L 7 57.550781 L 5 57.550781 Z M 5 0 "/>
</clipPath>
<clipPath id="clip-1">
<path clip-rule="nonzero" d="M 21 28 L 78.582031 28 L 78.582031 30 L 21 30 Z M 21 28 "/>
</clipPath>
</defs>
<g clip-path="url(#clip-0)">
<path fill="none" stroke-width="0.3985" stroke-linecap="butt" stroke-linejoin="miter" stroke="rgb(0%, 0%, 0%)" stroke-opacity="1" stroke-miterlimit="10" d="M -0.00009375 0.00103125 L -0.00009375 12.473687 M -0.00009375 44.219781 L -0.00009375 56.692437 " transform="matrix(1, 0, 0, -1, 6.004, 57.544)"/>
</g>
<path fill="none" stroke-width="0.797" stroke-linecap="butt" stroke-linejoin="bevel" stroke="rgb(0%, 0%, 0%)" stroke-opacity="1" stroke-miterlimit="10" d="M -0.00009375 12.07525 L 5.953031 15.118219 L -5.953219 20.411187 L 5.953031 25.70025 L -5.953219 30.993219 L 5.953031 36.282281 L -5.953219 41.57525 L -0.00009375 44.618219 " transform="matrix(1, 0, 0, -1, 6.004, 57.544)"/>
<path fill="none" stroke-width="0.797" stroke-linecap="butt" stroke-linejoin="bevel" stroke="rgb(0%, 0%, 0%)" stroke-opacity="1" stroke-miterlimit="10" d="M 15.874906 28.348687 L 9.062406 28.348687 " transform="matrix(1, 0, 0, -1, 6.004, 57.544)"/>
<path fill-rule="nonzero" fill="rgb(0%, 0%, 0%)" fill-opacity="1" d="M 11.957031 29.195312 C 13.253906 29.457031 15.582031 29.972656 17.136719 31.140625 C 15.84375 29.714844 15.84375 28.679688 17.136719 27.253906 C 15.582031 28.421875 13.253906 28.9375 11.957031 29.195312 Z M 11.957031 29.195312 "/>
<g clip-path="url(#clip-1)">
<path fill="none" stroke-width="0.3985" stroke-linecap="butt" stroke-linejoin="miter" stroke="rgb(0%, 0%, 0%)" stroke-opacity="1" stroke-miterlimit="10" d="M 15.874906 28.348687 L 32.316312 28.348687 M 56.124906 28.348687 L 72.566312 28.348687 " transform="matrix(1, 0, 0, -1, 6.004, 57.544)"/>
</g>
<path fill="none" stroke-width="0.797" stroke-linecap="butt" stroke-linejoin="bevel" stroke="rgb(0%, 0%, 0%)" stroke-opacity="1" stroke-miterlimit="10" d="M 31.917875 28.188531 C 31.917875 31.473687 33.550687 34.141656 35.566312 34.141656 C 37.585844 34.141656 39.218656 31.473687 39.218656 28.188531 C 39.218656 26.544 38.554594 25.211969 37.730375 25.211969 C 36.910062 25.211969 36.242094 26.544 36.242094 28.188531 C 36.242094 31.473687 37.878812 34.141656 39.894437 34.141656 C 41.910062 34.141656 43.546781 31.473687 43.546781 28.188531 C 43.546781 26.544 42.878812 25.211969 42.0585 25.211969 C 41.234281 25.211969 40.570219 26.544 40.570219 28.188531 C 40.570219 31.473687 42.203031 34.141656 44.222562 34.141656 C 46.238187 34.141656 47.871 31.473687 47.871 28.188531 C 47.871 26.544 47.206937 25.211969 46.382719 25.211969 C 45.562406 25.211969 44.894437 26.544 44.894437 28.188531 C 44.894437 31.473687 46.531156 34.141656 48.546781 34.141656 C 50.562406 34.141656 52.199125 31.473687 52.199125 28.188531 C 52.199125 26.544 51.531156 25.211969 50.710844 25.211969 C 49.890531 25.211969 49.222562 26.544 49.222562 28.188531 C 49.222562 31.473687 50.855375 34.141656 52.874906 34.141656 C 54.890531 34.141656 56.523344 31.473687 56.523344 28.188531 " transform="matrix(1, 0, 0, -1, 6.004, 57.544)"/>
</svg>
