<?xml version="1.0" encoding="UTF-8"?>
<svg xmlns="http://www.w3.org/2000/svg" xmlns:xlink="http://www.w3.org/1999/xlink" width="56.712pt" height="29.577pt" viewBox="0 0 56.712 29.577">
<defs>
<clipPath id="clip-0">
<path clip-rule="nonzero" d="M 0 14 L 56.566406 14 L 56.566406 16 L 0 16 Z M 0 14 "/>
</clipPath>
<clipPath id="clip-1">
<path clip-rule="nonzero" d="M 13 0 L 43 0 L 43 29.367188 L 13 29.367188 Z M 13 0 "/>
</clipPath>
</defs>
<g clip-path="url(#clip-0)">
<path fill="none" stroke-width="0.3985" stroke-linecap="butt" stroke-linejoin="miter" stroke="rgb(0%, 0%, 0%)" stroke-opacity="1" stroke-miterlimit="10" d="M -0.00171875 -0.000625 L 14.455313 -0.000625 M 42.236563 -0.000625 L 56.693594 -0.000625 " transform="matrix(1, 0, 0, -1, -0.135, 15.0775)"/>
</g>
<path fill-rule="nonzero" fill="rgb(70.001221%, 90.351868%, 98.118591%)" fill-opacity="1" d="M 14.320312 1.1875 L 42.101562 1.1875 L 42.101562 28.96875 L 14.320312 28.96875 Z M 14.320312 1.1875 "/>
<g clip-path="url(#clip-1)">
<path fill="none" stroke-width="0.797" stroke-linecap="butt" stroke-linejoin="miter" stroke="rgb(0%, 0%, 0%)" stroke-opacity="1" stroke-miterlimit="10" d="M 14.455313 13.89 L 42.236563 13.89 L 42.236563 -13.89125 L 14.455313 -13.89125 Z M 14.455313 13.89 " transform="matrix(1, 0, 0, -1, -0.135, 15.0775)"/>
</g>
<path fill="none" stroke-width="0.3985" stroke-linecap="butt" stroke-linejoin="miter" stroke="rgb(0%, 0%, 0%)" stroke-opacity="1" stroke-miterlimit="10" d="M 21.400625 -0.000625 C 22.533438 1.776719 23.615469 3.472031 24.873281 3.472031 C 26.131094 3.472031 27.213125 1.776719 28.345938 -0.000625 C 29.47875 -1.777969 30.560781 -3.473281 31.818594 -3.473281 C 33.076406 -3.473281 34.158438 -1.777969 35.29125 -0.000625 " transform="matrix(1, 0, 0, -1, -0.135, 15.0775)"/>
<path fill="none" stroke-width="0.3985" stroke-linecap="butt" stroke-linejoin="miter" stroke="rgb(0%, 0%, 0%)" stroke-opacity="1" stroke-miterlimit="10" d="M 18.623281 -9.723281 L 34.482656 -9.723281 " transform="matrix(1, 0, 0, -1, -0.135, 15.0775)"/>
<path fill-rule="nonzero" fill="rgb(0%, 0%, 0%)" fill-opacity="1" d="M 37.933594 24.800781 C 36.871094 24.601562 35.144531 24.003906 33.949219 23.304688 L 33.949219 26.292969 C 35.144531 25.597656 36.871094 25 37.933594 24.800781 "/>
<path fill="none" stroke-width="0.3985" stroke-linecap="butt" stroke-linejoin="miter" stroke="rgb(0%, 0%, 0%)" stroke-opacity="1" stroke-miterlimit="10" d="M 18.623281 -9.723281 L 18.623281 6.136094 " transform="matrix(1, 0, 0, -1, -0.135, 15.0775)"/>
<path fill-rule="nonzero" fill="rgb(0%, 0%, 0%)" fill-opacity="1" d="M 18.488281 5.355469 C 18.289062 6.417969 17.691406 8.144531 16.996094 9.339844 L 19.984375 9.339844 C 19.285156 8.144531 18.6875 6.417969 18.488281 5.355469 "/>
</svg>
