<?xml version="1.0" encoding="UTF-8"?>
<svg xmlns="http://www.w3.org/2000/svg" xmlns:xlink="http://www.w3.org/1999/xlink" width="59.552pt" height="60.958pt" viewBox="0 0 59.552 60.958">
<defs>
<clipPath id="clip-0">
<path clip-rule="nonzero" d="M 0 0 L 59.328125 0 L 59.328125 60.9375 L 0 60.9375 Z M 0 0 "/>
</clipPath>
</defs>
<path fill="none" stroke-width="0.797" stroke-linecap="butt" stroke-linejoin="miter" stroke="rgb(0%, 0%, 0%)" stroke-opacity="1" stroke-miterlimit="10" d="M -8.927906 -0.0009375 C -8.927906 3.288125 -10.259938 5.952187 -11.904469 5.952187 C -13.549 5.952187 -14.881031 3.288125 -14.881031 -0.0009375 C -14.881031 -3.286094 -13.549 -5.954063 -11.904469 -5.954063 C -10.259938 -5.954063 -8.927906 -3.286094 -8.927906 -0.0009375 Z M -8.927906 -0.0009375 " transform="matrix(1, 0, 0, -1, 29.549, 30.96)"/>
<path fill="none" stroke-width="0.797" stroke-linecap="butt" stroke-linejoin="miter" stroke="rgb(0%, 0%, 0%)" stroke-opacity="1" stroke-miterlimit="10" d="M 7.868969 4.061562 C 6.275219 6.292031 6.79475 9.389687 9.021312 10.979531 C 11.251781 12.573281 14.349437 12.057656 15.943187 9.827187 C 17.173656 8.104531 17.173656 5.788125 15.943187 4.061562 L 7.868969 -4.063438 C 6.275219 -6.29 6.79475 -9.387656 9.021312 -10.981406 C 11.251781 -12.575156 14.349437 -12.055625 15.943187 -9.829063 C 17.173656 -8.1025 17.173656 -5.786094 15.943187 -4.063438 Z M 7.868969 4.061562 " transform="matrix(1, 0, 0, -1, 29.549, 30.96)"/>
<g clip-path="url(#clip-0)">
<path fill="none" stroke-width="0.3985" stroke-linecap="butt" stroke-linejoin="miter" stroke="rgb(0%, 0%, 0%)" stroke-opacity="1" stroke-miterlimit="10" d="M -29.763844 29.764687 L -11.904469 29.764687 L -11.904469 5.952187 M -11.904469 -5.954063 L -11.904469 -29.762656 L -29.763844 -29.762656 M 29.7635 29.764687 L 11.904125 29.764687 L 11.904125 11.905312 M 11.904125 -11.907188 L 11.904125 -29.762656 L 29.7635 -29.762656 " transform="matrix(1, 0, 0, -1, 29.549, 30.96)"/>
</g>
</svg>
