<?xml version="1.0" encoding="UTF-8"?>
<svg xmlns="http://www.w3.org/2000/svg" xmlns:xlink="http://www.w3.org/1999/xlink" width="45.36pt" height="29.512pt" viewBox="0 0 45.36 29.512">
<defs>
<clipPath id="clip-0">
<path clip-rule="nonzero" d="M 0 25 L 45.035156 25 L 45.035156 27 L 0 27 Z M 0 25 "/>
</clipPath>
<clipPath id="clip-1">
<path clip-rule="nonzero" d="M 20 0 L 45.035156 0 L 45.035156 29.269531 L 20 29.269531 Z M 20 0 "/>
</clipPath>
</defs>
<g clip-path="url(#clip-0)">
<path fill="none" stroke-width="1.59404" stroke-linecap="butt" stroke-linejoin="miter" stroke="rgb(0%, 0%, 0%)" stroke-opacity="1" stroke-miterlimit="10" d="M 0.00090625 -0.000125 L 49.891531 -0.000125 M 176.883719 -0.000125 L 226.774344 -0.000125 " transform="matrix(1, 0, 0, -1, -22.997, 26.078)"/>
</g>
<g clip-path="url(#clip-1)">
<path fill="none" stroke-width="6.37619" stroke-linecap="butt" stroke-linejoin="bevel" stroke="rgb(0%, 0%, 0%)" stroke-opacity="1" stroke-miterlimit="10" d="M 46.704031 -0.000125 L 53.051687 -0.000125 L 65.766531 23.812375 L 84.813406 -23.812625 L 103.864187 23.812375 L 122.911062 -23.812625 L 141.961844 23.812375 L 161.008719 -23.812625 L 173.719656 -0.000125 L 180.071219 -0.000125 " transform="matrix(1, 0, 0, -1, -22.997, 26.078)"/>
</g>
</svg>
