<?xml version="1.0" encoding="UTF-8"?>
<svg xmlns="http://www.w3.org/2000/svg" xmlns:xlink="http://www.w3.org/1999/xlink" width="50.995pt" height="96.216pt" viewBox="0 0 50.995 96.216">
<defs>
<clipPath id="clip-0">
<path clip-rule="nonzero" d="M 28 0 L 50.992188 0 L 50.992188 40 L 28 40 Z M 28 0 "/>
</clipPath>
<clipPath id="clip-1">
<path clip-rule="nonzero" d="M 0 57 L 27 57 L 27 95.824219 L 0 95.824219 Z M 0 57 "/>
</clipPath>
</defs>
<path fill="none" stroke-width="0.797" stroke-linecap="butt" stroke-linejoin="miter" stroke="rgb(0%, 0%, 0%)" stroke-opacity="1" stroke-miterlimit="10" d="M -10.926969 -18.864375 L 14.908969 -18.864375 L 14.908969 18.862187 L -10.926969 18.862187 Z M -10.926969 -18.864375 " transform="matrix(1, 0, 0, -1, 11.3215, 19.87)"/>
<path fill="none" stroke-width="3.9851" stroke-linecap="butt" stroke-linejoin="miter" stroke="rgb(100%, 0%, 0%)" stroke-opacity="1" stroke-miterlimit="10" d="M -3.751188 15.873906 L 3.752719 15.873906 " transform="matrix(1, 0, 0, -1, 11.3215, 19.87)"/>
<path fill-rule="nonzero" fill="rgb(100%, 0%, 0%)" fill-opacity="1" d="M 8.566406 5.988281 L 5.578125 5.988281 L 3.582031 3.996094 L 5.578125 2.003906 L 8.566406 2.003906 Z M 8.566406 5.988281 "/>
<path fill-rule="nonzero" fill="rgb(100%, 0%, 0%)" fill-opacity="1" d="M 14.078125 2.003906 L 17.066406 2.003906 L 19.058594 3.996094 L 17.066406 5.988281 L 14.078125 5.988281 Z M 14.078125 2.003906 "/>
<path fill="none" stroke-width="3.9851" stroke-linecap="butt" stroke-linejoin="miter" stroke="rgb(100%, 0%, 0%)" stroke-opacity="1" stroke-miterlimit="10" d="M 7.936312 11.690312 L 7.936312 4.1825 " transform="matrix(1, 0, 0, -1, 11.3215, 19.87)"/>
<path fill-rule="nonzero" fill="rgb(100%, 0%, 0%)" fill-opacity="1" d="M 17.265625 9.175781 L 17.265625 6.1875 L 19.257812 4.195312 L 21.25 6.1875 L 21.25 9.175781 Z M 17.265625 9.175781 "/>
<path fill-rule="nonzero" fill="rgb(100%, 0%, 0%)" fill-opacity="1" d="M 21.25 14.6875 L 21.25 17.679688 L 19.257812 19.671875 L 17.265625 17.679688 L 17.265625 14.6875 Z M 21.25 14.6875 "/>
<path fill="none" stroke-width="3.9851" stroke-linecap="butt" stroke-linejoin="miter" stroke="rgb(100%, 0%, 0%)" stroke-opacity="1" stroke-miterlimit="10" d="M 7.936312 -4.184688 L 7.936312 -11.688594 " transform="matrix(1, 0, 0, -1, 11.3215, 19.87)"/>
<path fill-rule="nonzero" fill="rgb(100%, 0%, 0%)" fill-opacity="1" d="M 17.265625 25.050781 L 17.265625 22.0625 L 19.257812 20.070312 L 21.25 22.0625 L 21.25 25.050781 Z M 17.265625 25.050781 "/>
<path fill-rule="nonzero" fill="rgb(100%, 0%, 0%)" fill-opacity="1" d="M 21.25 30.5625 L 21.25 33.550781 L 19.257812 35.542969 L 17.265625 33.550781 L 17.265625 30.5625 Z M 21.25 30.5625 "/>
<path fill="none" stroke-width="3.9851" stroke-linecap="butt" stroke-linejoin="miter" stroke="rgb(89.99939%, 89.99939%, 89.99939%)" stroke-opacity="1" stroke-miterlimit="10" d="M 3.752719 -15.872188 L -3.751188 -15.872188 " transform="matrix(1, 0, 0, -1, 11.3215, 19.87)"/>
<path fill-rule="nonzero" fill="rgb(89.99939%, 89.99939%, 89.99939%)" fill-opacity="1" d="M 14.078125 33.75 L 17.066406 33.75 L 19.058594 35.742188 L 17.066406 37.738281 L 14.078125 37.738281 Z M 14.078125 33.75 "/>
<path fill-rule="nonzero" fill="rgb(89.99939%, 89.99939%, 89.99939%)" fill-opacity="1" d="M 8.566406 37.738281 L 5.578125 37.738281 L 3.582031 35.742188 L 5.578125 33.75 L 8.566406 33.75 Z M 8.566406 37.738281 "/>
<path fill="none" stroke-width="3.9851" stroke-linecap="butt" stroke-linejoin="miter" stroke="rgb(100%, 0%, 0%)" stroke-opacity="1" stroke-miterlimit="10" d="M -7.938688 -11.688594 L -7.938688 -4.184688 " transform="matrix(1, 0, 0, -1, 11.3215, 19.87)"/>
<path fill-rule="nonzero" fill="rgb(100%, 0%, 0%)" fill-opacity="1" d="M 5.378906 30.5625 L 5.378906 33.550781 L 3.382812 35.542969 L 1.390625 33.550781 L 1.390625 30.5625 Z M 5.378906 30.5625 "/>
<path fill-rule="nonzero" fill="rgb(100%, 0%, 0%)" fill-opacity="1" d="M 1.390625 25.050781 L 1.390625 22.0625 L 3.382812 20.070312 L 5.378906 22.0625 L 5.378906 25.050781 Z M 1.390625 25.050781 "/>
<path fill="none" stroke-width="3.9851" stroke-linecap="butt" stroke-linejoin="miter" stroke="rgb(100%, 0%, 0%)" stroke-opacity="1" stroke-miterlimit="10" d="M -7.938688 4.1825 L -7.938688 11.690312 " transform="matrix(1, 0, 0, -1, 11.3215, 19.87)"/>
<path fill-rule="nonzero" fill="rgb(100%, 0%, 0%)" fill-opacity="1" d="M 5.378906 14.6875 L 5.378906 17.679688 L 3.382812 19.671875 L 1.390625 17.679688 L 1.390625 14.6875 Z M 5.378906 14.6875 "/>
<path fill-rule="nonzero" fill="rgb(100%, 0%, 0%)" fill-opacity="1" d="M 1.390625 9.175781 L 1.390625 6.1875 L 3.382812 4.195312 L 5.378906 6.1875 L 5.378906 9.175781 Z M 1.390625 9.175781 "/>
<path fill="none" stroke-width="3.9851" stroke-linecap="butt" stroke-linejoin="miter" stroke="rgb(100%, 0%, 0%)" stroke-opacity="1" stroke-miterlimit="10" d="M -3.751188 -0.00109375 L 3.752719 -0.00109375 " transform="matrix(1, 0, 0, -1, 11.3215, 19.87)"/>
<path fill-rule="nonzero" fill="rgb(100%, 0%, 0%)" fill-opacity="1" d="M 8.566406 21.863281 L 5.578125 21.863281 L 3.582031 19.871094 L 5.578125 17.878906 L 8.566406 17.878906 Z M 8.566406 21.863281 "/>
<path fill-rule="nonzero" fill="rgb(100%, 0%, 0%)" fill-opacity="1" d="M 14.078125 17.878906 L 17.066406 17.878906 L 19.058594 19.871094 L 17.066406 21.863281 L 14.078125 21.863281 Z M 14.078125 17.878906 "/>
<path fill-rule="nonzero" fill="rgb(89.99939%, 89.99939%, 89.99939%)" fill-opacity="1" stroke-width="0.3985" stroke-linecap="butt" stroke-linejoin="miter" stroke="rgb(89.99939%, 89.99939%, 89.99939%)" stroke-opacity="1" stroke-miterlimit="10" d="M 13.912875 -15.872188 C 13.912875 -14.774531 13.02225 -13.88 11.920687 -13.88 C 10.823031 -13.88 9.9285 -14.774531 9.9285 -15.872188 C 9.9285 -16.97375 10.823031 -17.868281 11.920687 -17.868281 C 13.02225 -17.868281 13.912875 -16.97375 13.912875 -15.872188 Z M 13.912875 -15.872188 " transform="matrix(1, 0, 0, -1, 11.3215, 19.87)"/>
<g clip-path="url(#clip-0)">
<path fill="none" stroke-width="0.797" stroke-linecap="butt" stroke-linejoin="miter" stroke="rgb(0%, 0%, 0%)" stroke-opacity="1" stroke-miterlimit="10" d="M 17.420687 -18.864375 L 39.27225 -18.864375 L 39.27225 18.862187 L 17.420687 18.862187 Z M 17.420687 -18.864375 " transform="matrix(1, 0, 0, -1, 11.3215, 19.87)"/>
</g>
<path fill="none" stroke-width="3.9851" stroke-linecap="butt" stroke-linejoin="miter" stroke="rgb(89.99939%, 89.99939%, 89.99939%)" stroke-opacity="1" stroke-miterlimit="10" d="M 24.592562 15.873906 L 32.100375 15.873906 " transform="matrix(1, 0, 0, -1, 11.3215, 19.87)"/>
<path fill-rule="nonzero" fill="rgb(89.99939%, 89.99939%, 89.99939%)" fill-opacity="1" d="M 36.910156 5.988281 L 33.921875 5.988281 L 31.929688 3.996094 L 33.921875 2.003906 L 36.910156 2.003906 Z M 36.910156 5.988281 "/>
<path fill-rule="nonzero" fill="rgb(89.99939%, 89.99939%, 89.99939%)" fill-opacity="1" d="M 42.425781 2.003906 L 45.414062 2.003906 L 47.40625 3.996094 L 45.414062 5.988281 L 42.425781 5.988281 Z M 42.425781 2.003906 "/>
<path fill="none" stroke-width="3.9851" stroke-linecap="butt" stroke-linejoin="miter" stroke="rgb(89.99939%, 89.99939%, 89.99939%)" stroke-opacity="1" stroke-miterlimit="10" d="M 36.283969 11.690312 L 36.283969 4.1825 " transform="matrix(1, 0, 0, -1, 11.3215, 19.87)"/>
<path fill-rule="nonzero" fill="rgb(89.99939%, 89.99939%, 89.99939%)" fill-opacity="1" d="M 45.613281 9.175781 L 45.613281 6.1875 L 47.605469 4.195312 L 49.597656 6.1875 L 49.597656 9.175781 Z M 45.613281 9.175781 "/>
<path fill-rule="nonzero" fill="rgb(89.99939%, 89.99939%, 89.99939%)" fill-opacity="1" d="M 49.597656 14.6875 L 49.597656 17.679688 L 47.605469 19.671875 L 45.613281 17.679688 L 45.613281 14.6875 Z M 49.597656 14.6875 "/>
<path fill="none" stroke-width="3.9851" stroke-linecap="butt" stroke-linejoin="miter" stroke="rgb(89.99939%, 89.99939%, 89.99939%)" stroke-opacity="1" stroke-miterlimit="10" d="M 36.283969 -4.184688 L 36.283969 -11.688594 " transform="matrix(1, 0, 0, -1, 11.3215, 19.87)"/>
<path fill-rule="nonzero" fill="rgb(89.99939%, 89.99939%, 89.99939%)" fill-opacity="1" d="M 45.613281 25.050781 L 45.613281 22.0625 L 47.605469 20.070312 L 49.597656 22.0625 L 49.597656 25.050781 Z M 45.613281 25.050781 "/>
<path fill-rule="nonzero" fill="rgb(89.99939%, 89.99939%, 89.99939%)" fill-opacity="1" d="M 49.597656 30.5625 L 49.597656 33.550781 L 47.605469 35.542969 L 45.613281 33.550781 L 45.613281 30.5625 Z M 49.597656 30.5625 "/>
<path fill="none" stroke-width="3.9851" stroke-linecap="butt" stroke-linejoin="miter" stroke="rgb(89.99939%, 89.99939%, 89.99939%)" stroke-opacity="1" stroke-miterlimit="10" d="M 32.100375 -15.872188 L 24.592562 -15.872188 " transform="matrix(1, 0, 0, -1, 11.3215, 19.87)"/>
<path fill-rule="nonzero" fill="rgb(89.99939%, 89.99939%, 89.99939%)" fill-opacity="1" d="M 42.425781 33.75 L 45.414062 33.75 L 47.40625 35.742188 L 45.414062 37.738281 L 42.425781 37.738281 Z M 42.425781 33.75 "/>
<path fill-rule="nonzero" fill="rgb(89.99939%, 89.99939%, 89.99939%)" fill-opacity="1" d="M 36.910156 37.738281 L 33.921875 37.738281 L 31.929688 35.742188 L 33.921875 33.75 L 36.910156 33.75 Z M 36.910156 37.738281 "/>
<path fill="none" stroke-width="3.9851" stroke-linecap="butt" stroke-linejoin="miter" stroke="rgb(89.99939%, 89.99939%, 89.99939%)" stroke-opacity="1" stroke-miterlimit="10" d="M 20.408969 -11.688594 L 20.408969 -4.184688 " transform="matrix(1, 0, 0, -1, 11.3215, 19.87)"/>
<path fill-rule="nonzero" fill="rgb(89.99939%, 89.99939%, 89.99939%)" fill-opacity="1" d="M 33.722656 30.5625 L 33.722656 33.550781 L 31.730469 35.542969 L 29.738281 33.550781 L 29.738281 30.5625 Z M 33.722656 30.5625 "/>
<path fill-rule="nonzero" fill="rgb(89.99939%, 89.99939%, 89.99939%)" fill-opacity="1" d="M 29.738281 25.050781 L 29.738281 22.0625 L 31.730469 20.070312 L 33.722656 22.0625 L 33.722656 25.050781 Z M 29.738281 25.050781 "/>
<path fill="none" stroke-width="3.9851" stroke-linecap="butt" stroke-linejoin="miter" stroke="rgb(89.99939%, 89.99939%, 89.99939%)" stroke-opacity="1" stroke-miterlimit="10" d="M 20.408969 4.1825 L 20.408969 11.690312 " transform="matrix(1, 0, 0, -1, 11.3215, 19.87)"/>
<path fill-rule="nonzero" fill="rgb(89.99939%, 89.99939%, 89.99939%)" fill-opacity="1" d="M 33.722656 14.6875 L 33.722656 17.679688 L 31.730469 19.671875 L 29.738281 17.679688 L 29.738281 14.6875 Z M 33.722656 14.6875 "/>
<path fill-rule="nonzero" fill="rgb(89.99939%, 89.99939%, 89.99939%)" fill-opacity="1" d="M 29.738281 9.175781 L 29.738281 6.1875 L 31.730469 4.195312 L 33.722656 6.1875 L 33.722656 9.175781 Z M 29.738281 9.175781 "/>
<path fill="none" stroke-width="3.9851" stroke-linecap="butt" stroke-linejoin="miter" stroke="rgb(100%, 0%, 0%)" stroke-opacity="1" stroke-miterlimit="10" d="M 24.592562 -0.00109375 L 32.100375 -0.00109375 " transform="matrix(1, 0, 0, -1, 11.3215, 19.87)"/>
<path fill-rule="nonzero" fill="rgb(100%, 0%, 0%)" fill-opacity="1" d="M 36.910156 21.863281 L 33.921875 21.863281 L 31.929688 19.871094 L 33.921875 17.878906 L 36.910156 17.878906 Z M 36.910156 21.863281 "/>
<path fill-rule="nonzero" fill="rgb(100%, 0%, 0%)" fill-opacity="1" d="M 42.425781 17.878906 L 45.414062 17.878906 L 47.40625 19.871094 L 45.414062 21.863281 L 42.425781 21.863281 Z M 42.425781 17.878906 "/>
<g clip-path="url(#clip-1)">
<path fill="none" stroke-width="0.797" stroke-linecap="butt" stroke-linejoin="miter" stroke="rgb(0%, 0%, 0%)" stroke-opacity="1" stroke-miterlimit="10" d="M -10.926969 -75.555781 L 14.908969 -75.555781 L 14.908969 -37.829219 L -10.926969 -37.829219 Z M -10.926969 -75.555781 " transform="matrix(1, 0, 0, -1, 11.3215, 19.87)"/>
</g>
<path fill="none" stroke-width="3.9851" stroke-linecap="butt" stroke-linejoin="miter" stroke="rgb(100%, 0%, 0%)" stroke-opacity="1" stroke-miterlimit="10" d="M -3.751188 -40.821406 L 3.752719 -40.821406 " transform="matrix(1, 0, 0, -1, 11.3215, 19.87)"/>
<path fill-rule="nonzero" fill="rgb(100%, 0%, 0%)" fill-opacity="1" d="M 8.566406 62.683594 L 5.578125 62.683594 L 3.582031 60.691406 L 5.578125 58.695312 L 8.566406 58.695312 Z M 8.566406 62.683594 "/>
<path fill-rule="nonzero" fill="rgb(100%, 0%, 0%)" fill-opacity="1" d="M 14.078125 58.695312 L 17.066406 58.695312 L 19.058594 60.691406 L 17.066406 62.683594 L 14.078125 62.683594 Z M 14.078125 58.695312 "/>
<path fill="none" stroke-width="3.9851" stroke-linecap="butt" stroke-linejoin="miter" stroke="rgb(89.99939%, 89.99939%, 89.99939%)" stroke-opacity="1" stroke-miterlimit="10" d="M 7.936312 -45.005 L 7.936312 -52.508906 " transform="matrix(1, 0, 0, -1, 11.3215, 19.87)"/>
<path fill-rule="nonzero" fill="rgb(89.99939%, 89.99939%, 89.99939%)" fill-opacity="1" d="M 17.265625 65.871094 L 17.265625 62.882812 L 19.257812 60.890625 L 21.25 62.882812 L 21.25 65.871094 Z M 17.265625 65.871094 "/>
<path fill-rule="nonzero" fill="rgb(89.99939%, 89.99939%, 89.99939%)" fill-opacity="1" d="M 21.25 71.382812 L 21.25 74.371094 L 19.257812 76.363281 L 17.265625 74.371094 L 17.265625 71.382812 Z M 21.25 71.382812 "/>
<path fill="none" stroke-width="3.9851" stroke-linecap="butt" stroke-linejoin="miter" stroke="rgb(89.99939%, 89.99939%, 89.99939%)" stroke-opacity="1" stroke-miterlimit="10" d="M 7.936312 -60.876094 L 7.936312 -68.383906 " transform="matrix(1, 0, 0, -1, 11.3215, 19.87)"/>
<path fill-rule="nonzero" fill="rgb(89.99939%, 89.99939%, 89.99939%)" fill-opacity="1" d="M 17.265625 81.746094 L 17.265625 78.753906 L 19.257812 76.761719 L 21.25 78.753906 L 21.25 81.746094 Z M 17.265625 81.746094 "/>
<path fill-rule="nonzero" fill="rgb(89.99939%, 89.99939%, 89.99939%)" fill-opacity="1" d="M 21.25 87.257812 L 21.25 90.246094 L 19.257812 92.238281 L 17.265625 90.246094 L 17.265625 87.257812 Z M 21.25 87.257812 "/>
<path fill="none" stroke-width="3.9851" stroke-linecap="butt" stroke-linejoin="miter" stroke="rgb(100%, 0%, 0%)" stroke-opacity="1" stroke-miterlimit="10" d="M 3.752719 -72.5675 L -3.751188 -72.5675 " transform="matrix(1, 0, 0, -1, 11.3215, 19.87)"/>
<path fill-rule="nonzero" fill="rgb(100%, 0%, 0%)" fill-opacity="1" d="M 14.078125 90.445312 L 17.066406 90.445312 L 19.058594 92.4375 L 17.066406 94.429688 L 14.078125 94.429688 Z M 14.078125 90.445312 "/>
<path fill-rule="nonzero" fill="rgb(100%, 0%, 0%)" fill-opacity="1" d="M 8.566406 94.429688 L 5.578125 94.429688 L 3.582031 92.4375 L 5.578125 90.445312 L 8.566406 90.445312 Z M 8.566406 94.429688 "/>
<path fill="none" stroke-width="3.9851" stroke-linecap="butt" stroke-linejoin="miter" stroke="rgb(89.99939%, 89.99939%, 89.99939%)" stroke-opacity="1" stroke-miterlimit="10" d="M -7.938688 -68.383906 L -7.938688 -60.876094 " transform="matrix(1, 0, 0, -1, 11.3215, 19.87)"/>
<path fill-rule="nonzero" fill="rgb(89.99939%, 89.99939%, 89.99939%)" fill-opacity="1" d="M 5.378906 87.257812 L 5.378906 90.246094 L 3.382812 92.238281 L 1.390625 90.246094 L 1.390625 87.257812 Z M 5.378906 87.257812 "/>
<path fill-rule="nonzero" fill="rgb(89.99939%, 89.99939%, 89.99939%)" fill-opacity="1" d="M 1.390625 81.746094 L 1.390625 78.753906 L 3.382812 76.761719 L 5.378906 78.753906 L 5.378906 81.746094 Z M 1.390625 81.746094 "/>
<path fill="none" stroke-width="3.9851" stroke-linecap="butt" stroke-linejoin="miter" stroke="rgb(89.99939%, 89.99939%, 89.99939%)" stroke-opacity="1" stroke-miterlimit="10" d="M -7.938688 -52.508906 L -7.938688 -45.005 " transform="matrix(1, 0, 0, -1, 11.3215, 19.87)"/>
<path fill-rule="nonzero" fill="rgb(89.99939%, 89.99939%, 89.99939%)" fill-opacity="1" d="M 5.378906 71.382812 L 5.378906 74.371094 L 3.382812 76.363281 L 1.390625 74.371094 L 1.390625 71.382812 Z M 5.378906 71.382812 "/>
<path fill-rule="nonzero" fill="rgb(89.99939%, 89.99939%, 89.99939%)" fill-opacity="1" d="M 1.390625 65.871094 L 1.390625 62.882812 L 3.382812 60.890625 L 5.378906 62.882812 L 5.378906 65.871094 Z M 1.390625 65.871094 "/>
<path fill="none" stroke-width="3.9851" stroke-linecap="butt" stroke-linejoin="miter" stroke="rgb(100%, 0%, 0%)" stroke-opacity="1" stroke-miterlimit="10" d="M -3.751188 -56.6925 L 3.752719 -56.6925 " transform="matrix(1, 0, 0, -1, 11.3215, 19.87)"/>
<path fill-rule="nonzero" fill="rgb(100%, 0%, 0%)" fill-opacity="1" d="M 8.566406 78.554688 L 5.578125 78.554688 L 3.582031 76.5625 L 5.578125 74.570312 L 8.566406 74.570312 Z M 8.566406 78.554688 "/>
<path fill-rule="nonzero" fill="rgb(100%, 0%, 0%)" fill-opacity="1" d="M 14.078125 74.570312 L 17.066406 74.570312 L 19.058594 76.5625 L 17.066406 78.554688 L 14.078125 78.554688 Z M 14.078125 74.570312 "/>
<path fill="none" stroke-width="3.9851" stroke-linecap="butt" stroke-linejoin="miter" stroke="rgb(89.99939%, 89.99939%, 89.99939%)" stroke-opacity="1" stroke-miterlimit="10" d="M 24.592562 -40.821406 L 32.100375 -40.821406 " transform="matrix(1, 0, 0, -1, 11.3215, 19.87)"/>
<path fill-rule="nonzero" fill="rgb(89.99939%, 89.99939%, 89.99939%)" fill-opacity="1" d="M 36.910156 62.683594 L 33.921875 62.683594 L 31.929688 60.691406 L 33.921875 58.695312 L 36.910156 58.695312 Z M 36.910156 62.683594 "/>
<path fill-rule="nonzero" fill="rgb(89.99939%, 89.99939%, 89.99939%)" fill-opacity="1" d="M 42.425781 58.695312 L 45.414062 58.695312 L 47.40625 60.691406 L 45.414062 62.683594 L 42.425781 62.683594 Z M 42.425781 58.695312 "/>
<path fill="none" stroke-width="3.9851" stroke-linecap="butt" stroke-linejoin="miter" stroke="rgb(89.99939%, 89.99939%, 89.99939%)" stroke-opacity="1" stroke-miterlimit="10" d="M 36.283969 -45.005 L 36.283969 -52.508906 " transform="matrix(1, 0, 0, -1, 11.3215, 19.87)"/>
<path fill-rule="nonzero" fill="rgb(89.99939%, 89.99939%, 89.99939%)" fill-opacity="1" d="M 45.613281 65.871094 L 45.613281 62.882812 L 47.605469 60.890625 L 49.597656 62.882812 L 49.597656 65.871094 Z M 45.613281 65.871094 "/>
<path fill-rule="nonzero" fill="rgb(89.99939%, 89.99939%, 89.99939%)" fill-opacity="1" d="M 49.597656 71.382812 L 49.597656 74.371094 L 47.605469 76.363281 L 45.613281 74.371094 L 45.613281 71.382812 Z M 49.597656 71.382812 "/>
<path fill="none" stroke-width="3.9851" stroke-linecap="butt" stroke-linejoin="miter" stroke="rgb(100%, 0%, 0%)" stroke-opacity="1" stroke-miterlimit="10" d="M 36.283969 -60.876094 L 36.283969 -68.383906 " transform="matrix(1, 0, 0, -1, 11.3215, 19.87)"/>
<path fill-rule="nonzero" fill="rgb(100%, 0%, 0%)" fill-opacity="1" d="M 45.613281 81.746094 L 45.613281 78.753906 L 47.605469 76.761719 L 49.597656 78.753906 L 49.597656 81.746094 Z M 45.613281 81.746094 "/>
<path fill-rule="nonzero" fill="rgb(100%, 0%, 0%)" fill-opacity="1" d="M 49.597656 87.257812 L 49.597656 90.246094 L 47.605469 92.238281 L 45.613281 90.246094 L 45.613281 87.257812 Z M 49.597656 87.257812 "/>
<path fill="none" stroke-width="3.9851" stroke-linecap="butt" stroke-linejoin="miter" stroke="rgb(100%, 0%, 0%)" stroke-opacity="1" stroke-miterlimit="10" d="M 32.100375 -72.5675 L 24.592562 -72.5675 " transform="matrix(1, 0, 0, -1, 11.3215, 19.87)"/>
<path fill-rule="nonzero" fill="rgb(100%, 0%, 0%)" fill-opacity="1" d="M 42.425781 90.445312 L 45.414062 90.445312 L 47.40625 92.4375 L 45.414062 94.429688 L 42.425781 94.429688 Z M 42.425781 90.445312 "/>
<path fill-rule="nonzero" fill="rgb(100%, 0%, 0%)" fill-opacity="1" d="M 36.910156 94.429688 L 33.921875 94.429688 L 31.929688 92.4375 L 33.921875 90.445312 L 36.910156 90.445312 Z M 36.910156 94.429688 "/>
<path fill="none" stroke-width="3.9851" stroke-linecap="butt" stroke-linejoin="miter" stroke="rgb(100%, 0%, 0%)" stroke-opacity="1" stroke-miterlimit="10" d="M 20.408969 -68.383906 L 20.408969 -60.876094 " transform="matrix(1, 0, 0, -1, 11.3215, 19.87)"/>
<path fill-rule="nonzero" fill="rgb(100%, 0%, 0%)" fill-opacity="1" d="M 33.722656 87.257812 L 33.722656 90.246094 L 31.730469 92.238281 L 29.738281 90.246094 L 29.738281 87.257812 Z M 33.722656 87.257812 "/>
<path fill-rule="nonzero" fill="rgb(100%, 0%, 0%)" fill-opacity="1" d="M 29.738281 81.746094 L 29.738281 78.753906 L 31.730469 76.761719 L 33.722656 78.753906 L 33.722656 81.746094 Z M 29.738281 81.746094 "/>
<path fill="none" stroke-width="3.9851" stroke-linecap="butt" stroke-linejoin="miter" stroke="rgb(89.99939%, 89.99939%, 89.99939%)" stroke-opacity="1" stroke-miterlimit="10" d="M 20.408969 -52.508906 L 20.408969 -45.005 " transform="matrix(1, 0, 0, -1, 11.3215, 19.87)"/>
<path fill-rule="nonzero" fill="rgb(89.99939%, 89.99939%, 89.99939%)" fill-opacity="1" d="M 33.722656 71.382812 L 33.722656 74.371094 L 31.730469 76.363281 L 29.738281 74.371094 L 29.738281 71.382812 Z M 33.722656 71.382812 "/>
<path fill-rule="nonzero" fill="rgb(89.99939%, 89.99939%, 89.99939%)" fill-opacity="1" d="M 29.738281 65.871094 L 29.738281 62.882812 L 31.730469 60.890625 L 33.722656 62.882812 L 33.722656 65.871094 Z M 29.738281 65.871094 "/>
<path fill="none" stroke-width="3.9851" stroke-linecap="butt" stroke-linejoin="miter" stroke="rgb(100%, 0%, 0%)" stroke-opacity="1" stroke-miterlimit="10" d="M 24.592562 -56.6925 L 32.100375 -56.6925 " transform="matrix(1, 0, 0, -1, 11.3215, 19.87)"/>
<path fill-rule="nonzero" fill="rgb(100%, 0%, 0%)" fill-opacity="1" d="M 36.910156 78.554688 L 33.921875 78.554688 L 31.929688 76.5625 L 33.921875 74.570312 L 36.910156 74.570312 Z M 36.910156 78.554688 "/>
<path fill-rule="nonzero" fill="rgb(100%, 0%, 0%)" fill-opacity="1" d="M 42.425781 74.570312 L 45.414062 74.570312 L 47.40625 76.5625 L 45.414062 78.554688 L 42.425781 78.554688 Z M 42.425781 74.570312 "/>
</svg>
