<?xml version="1.0" encoding="UTF-8"?>
<svg xmlns="http://www.w3.org/2000/svg" xmlns:xlink="http://www.w3.org/1999/xlink" width="101.628" height="93.304" viewBox="0 0 101.628 93.304">
<defs>
<clipPath id="clip-0">
<path clip-rule="nonzero" d="M 5 6 L 96 6 L 96 92.957031 L 5 92.957031 Z M 5 6 "/>
</clipPath>
<clipPath id="clip-1">
<path clip-rule="nonzero" d="M 68 36 L 101.441406 36 L 101.441406 81 L 68 81 Z M 68 36 "/>
</clipPath>
<clipPath id="clip-2">
<path clip-rule="nonzero" d="M 68 22 L 101.441406 22 L 101.441406 67 L 68 67 Z M 68 22 "/>
</clipPath>
<clipPath id="clip-3">
<path clip-rule="nonzero" d="M 74 27 L 101.441406 27 L 101.441406 57 L 74 57 Z M 74 27 "/>
</clipPath>
<clipPath id="clip-4">
<path clip-rule="nonzero" d="M 74 46 L 101.441406 46 L 101.441406 76 L 74 76 Z M 74 46 "/>
</clipPath>
<clipPath id="clip-5">
<path clip-rule="nonzero" d="M 88 89 L 92 89 L 92 92.957031 L 88 92.957031 Z M 88 89 "/>
</clipPath>
<clipPath id="clip-6">
<path clip-rule="nonzero" d="M 83 83 L 98 83 L 98 92.957031 L 83 92.957031 Z M 83 83 "/>
</clipPath>
<clipPath id="clip-7">
<path clip-rule="nonzero" d="M 9 89 L 13 89 L 13 92.957031 L 9 92.957031 Z M 9 89 "/>
</clipPath>
<clipPath id="clip-8">
<path clip-rule="nonzero" d="M 3 83 L 19 83 L 19 92.957031 L 3 92.957031 Z M 3 83 "/>
</clipPath>
</defs>
<g clip-path="url(#clip-0)">
<path fill="none" stroke-width="0.3985" stroke-linecap="butt" stroke-linejoin="miter" stroke="rgb(0%, 0%, 0%)" stroke-opacity="1" stroke-miterlimit="10" d="M 0.0003125 0.00175 L 21.832344 0.00175 M 57.558906 0.00175 L 79.371406 0.00175 L 79.387031 -21.830281 M 79.387031 -57.556844 L 79.371406 -79.369344 L 51.566719 -51.568562 M 30.71125 -30.709187 L 0.0003125 0.00175 L 0.0003125 -24.81075 M 0.0003125 -54.580281 L 0.0003125 -79.369344 " transform="matrix(1, 0, 0, -1, 10.945, 11.783)"/>
</g>
<path fill="none" stroke-width="0.797" stroke-linecap="butt" stroke-linejoin="miter" stroke="rgb(0%, 0%, 0%)" stroke-opacity="1" stroke-miterlimit="10" d="M 57.543281 0.00175 C 57.543281 5.919719 52.746406 10.716594 46.828438 10.716594 C 40.910469 10.716594 36.113594 5.919719 36.113594 0.00175 C 36.113594 -5.916219 40.910469 -10.713094 46.828438 -10.713094 C 52.746406 -10.713094 57.543281 -5.916219 57.543281 0.00175 Z M 57.543281 0.00175 " transform="matrix(1, 0, 0, -1, 10.945, 11.783)"/>
<path fill="none" stroke-width="0.797" stroke-linecap="butt" stroke-linejoin="miter" stroke="rgb(0%, 0%, 0%)" stroke-opacity="1" stroke-miterlimit="10" d="M 43.258125 0.00175 C 43.258125 5.919719 38.46125 10.716594 32.543281 10.716594 C 26.625313 10.716594 21.828438 5.919719 21.828438 0.00175 C 21.828438 -5.916219 26.625313 -10.713094 32.543281 -10.713094 C 38.46125 -10.713094 43.258125 -5.916219 43.258125 0.00175 Z M 43.258125 0.00175 " transform="matrix(1, 0, 0, -1, 10.945, 11.783)"/>
<path fill="none" stroke-width="0.797" stroke-linecap="butt" stroke-linejoin="miter" stroke="rgb(0%, 0%, 0%)" stroke-opacity="1" stroke-miterlimit="10" d="M 28.969063 0.00175 L 28.969063 -2.4045 L 26.566719 -4.162312 M 28.969063 0.00175 L 31.051094 1.200969 L 33.77375 0.00175 M 28.969063 0.00175 L 26.890938 1.200969 L 26.566719 4.161906 " transform="matrix(1, 0, 0, -1, 10.945, 11.783)"/>
<path fill="none" stroke-width="0.797" stroke-linecap="butt" stroke-linejoin="miter" stroke="rgb(0%, 0%, 0%)" stroke-opacity="1" stroke-miterlimit="10" d="M 50.39875 -2.787312 L 47.988594 1.392375 L 52.812813 1.392375 Z M 50.39875 -2.787312 " transform="matrix(1, 0, 0, -1, 10.945, 11.783)"/>
<path fill="none" stroke-width="0.797" stroke-linecap="butt" stroke-linejoin="miter" stroke="rgb(0%, 0%, 0%)" stroke-opacity="1" stroke-miterlimit="10" d="M 50.39875 -2.787312 L 51.410469 -4.533406 " transform="matrix(1, 0, 0, -1, 10.945, 11.783)"/>
<path fill="none" stroke-width="0.797" stroke-linecap="butt" stroke-linejoin="miter" stroke="rgb(0%, 0%, 0%)" stroke-opacity="1" stroke-miterlimit="10" d="M 47.988594 1.392375 L 45.969063 1.392375 " transform="matrix(1, 0, 0, -1, 10.945, 11.783)"/>
<path fill="none" stroke-width="0.797" stroke-linecap="butt" stroke-linejoin="miter" stroke="rgb(0%, 0%, 0%)" stroke-opacity="1" stroke-miterlimit="10" d="M 52.812813 1.392375 L 53.824531 3.142375 " transform="matrix(1, 0, 0, -1, 10.945, 11.783)"/>
<path fill-rule="nonzero" fill="rgb(100%, 100%, 100%)" fill-opacity="1" stroke-width="0.3985" stroke-linecap="butt" stroke-linejoin="miter" stroke="rgb(0%, 0%, 0%)" stroke-opacity="1" stroke-miterlimit="10" d="M 1.58625 0.00175 C 1.58625 0.87675 0.875313 1.587688 0.0003125 1.587688 C -0.874687 1.587688 -1.585625 0.87675 -1.585625 0.00175 C -1.585625 -0.877156 -0.874687 -1.588094 0.0003125 -1.588094 C 0.875313 -1.588094 1.58625 -0.877156 1.58625 0.00175 Z M 1.58625 0.00175 " transform="matrix(1, 0, 0, -1, 10.945, 11.783)"/>
<g clip-path="url(#clip-1)">
<path fill="none" stroke-width="0.797" stroke-linecap="butt" stroke-linejoin="miter" stroke="rgb(0%, 0%, 0%)" stroke-opacity="1" stroke-miterlimit="10" d="M 79.371406 -57.545125 C 85.289375 -57.545125 90.08625 -52.74825 90.08625 -46.830281 C 90.08625 -40.912312 85.289375 -36.115437 79.371406 -36.115437 C 73.453438 -36.115437 68.656563 -40.912312 68.656563 -46.830281 C 68.656563 -52.74825 73.453438 -57.545125 79.371406 -57.545125 Z M 79.371406 -57.545125 " transform="matrix(1, 0, 0, -1, 10.945, 11.783)"/>
</g>
<g clip-path="url(#clip-2)">
<path fill="none" stroke-width="0.797" stroke-linecap="butt" stroke-linejoin="miter" stroke="rgb(0%, 0%, 0%)" stroke-opacity="1" stroke-miterlimit="10" d="M 79.371406 -43.256062 C 85.289375 -43.256062 90.08625 -38.459187 90.08625 -32.541219 C 90.08625 -26.62325 85.289375 -21.826375 79.371406 -21.826375 C 73.453438 -21.826375 68.656563 -26.62325 68.656563 -32.541219 C 68.656563 -38.459187 73.453438 -43.256062 79.371406 -43.256062 Z M 79.371406 -43.256062 " transform="matrix(1, 0, 0, -1, 10.945, 11.783)"/>
</g>
<g clip-path="url(#clip-3)">
<path fill="none" stroke-width="0.797" stroke-linecap="butt" stroke-linejoin="miter" stroke="rgb(0%, 0%, 0%)" stroke-opacity="1" stroke-miterlimit="10" d="M 79.371406 -33.775594 L 75.207344 -26.568562 L 83.531563 -26.568562 Z M 79.371406 -33.775594 " transform="matrix(1, 0, 0, -1, 10.945, 11.783)"/>
</g>
<g clip-path="url(#clip-4)">
<path fill="none" stroke-width="0.797" stroke-linecap="butt" stroke-linejoin="miter" stroke="rgb(0%, 0%, 0%)" stroke-opacity="1" stroke-miterlimit="10" d="M 79.371406 -45.595906 L 79.371406 -50.400594 L 83.531563 -52.802937 M 79.371406 -50.400594 L 75.207344 -52.802937 " transform="matrix(1, 0, 0, -1, 10.945, 11.783)"/>
</g>
<g clip-path="url(#clip-5)">
<path fill-rule="nonzero" fill="rgb(100%, 100%, 100%)" fill-opacity="1" d="M 91.902344 91.152344 C 91.902344 90.277344 91.191406 89.566406 90.316406 89.566406 C 89.4375 89.566406 88.730469 90.277344 88.730469 91.152344 C 88.730469 92.03125 89.4375 92.742188 90.316406 92.742188 C 91.191406 92.742188 91.902344 92.03125 91.902344 91.152344 Z M 91.902344 91.152344 "/>
</g>
<g clip-path="url(#clip-6)">
<path fill="none" stroke-width="0.3985" stroke-linecap="butt" stroke-linejoin="miter" stroke="rgb(0%, 0%, 0%)" stroke-opacity="1" stroke-miterlimit="10" d="M 80.957344 -79.369344 C 80.957344 -78.494344 80.246406 -77.783406 79.371406 -77.783406 C 78.4925 -77.783406 77.785469 -78.494344 77.785469 -79.369344 C 77.785469 -80.24825 78.4925 -80.959187 79.371406 -80.959187 C 80.246406 -80.959187 80.957344 -80.24825 80.957344 -79.369344 Z M 80.957344 -79.369344 " transform="matrix(1, 0, 0, -1, 10.945, 11.783)"/>
</g>
<path fill="none" stroke-width="0.797" stroke-linecap="butt" stroke-linejoin="miter" stroke="rgb(0%, 0%, 0%)" stroke-opacity="1" stroke-miterlimit="10" d="M 33.469063 -22.162312 C 29.613594 -26.013875 29.613594 -32.259969 33.469063 -36.111531 C 37.320625 -39.967 43.566719 -39.967 47.418281 -36.111531 C 51.269844 -32.259969 51.269844 -26.013875 47.418281 -22.162312 C 43.566719 -18.31075 37.320625 -18.31075 33.469063 -22.162312 Z M 33.469063 -22.162312 " transform="matrix(1, 0, 0, -1, 10.945, 11.783)"/>
<path fill="none" stroke-width="0.797" stroke-linecap="butt" stroke-linejoin="miter" stroke="rgb(0%, 0%, 0%)" stroke-opacity="1" stroke-miterlimit="10" d="M 37.605781 -37.603719 C 33.754219 -41.459187 33.754219 -47.701375 37.605781 -51.556844 C 41.457344 -55.408406 47.703438 -55.408406 51.555 -51.556844 C 55.406563 -47.701375 55.406563 -41.459187 51.555 -37.603719 C 47.703438 -33.752156 41.457344 -33.752156 37.605781 -37.603719 Z M 37.605781 -37.603719 " transform="matrix(1, 0, 0, -1, 10.945, 11.783)"/>
<path fill="none" stroke-width="0.797" stroke-linecap="butt" stroke-linejoin="miter" stroke="rgb(0%, 0%, 0%)" stroke-opacity="1" stroke-miterlimit="10" d="M 22.164375 -33.467 C 18.308906 -37.318562 18.308906 -43.564656 22.164375 -47.416219 C 26.015938 -51.271687 32.262031 -51.271687 36.113594 -47.416219 C 39.965156 -43.564656 39.965156 -37.318562 36.113594 -33.467 C 32.262031 -29.615437 26.015938 -29.615437 22.164375 -33.467 Z M 22.164375 -33.467 " transform="matrix(1, 0, 0, -1, 10.945, 11.783)"/>
<path fill="none" stroke-width="0.797" stroke-linecap="butt" stroke-linejoin="miter" stroke="rgb(0%, 0%, 0%)" stroke-opacity="1" stroke-miterlimit="10" d="M 46.156563 -50.955281 L 46.156563 -46.1545 L 50.312813 -43.756062 M 46.156563 -46.1545 L 41.996406 -43.756062 " transform="matrix(1, 0, 0, -1, 10.945, 11.783)"/>
<path fill="none" stroke-width="0.797" stroke-linecap="butt" stroke-linejoin="miter" stroke="rgb(0%, 0%, 0%)" stroke-opacity="1" stroke-miterlimit="10" d="M 26.988594 -41.017781 L 26.988594 -43.420125 L 24.58625 -45.177937 M 26.988594 -41.017781 L 29.066719 -39.818562 L 31.789375 -41.017781 M 26.988594 -41.017781 L 24.906563 -39.818562 L 24.58625 -36.861531 " transform="matrix(1, 0, 0, -1, 10.945, 11.783)"/>
<path fill="none" stroke-width="0.797" stroke-linecap="butt" stroke-linejoin="miter" stroke="rgb(0%, 0%, 0%)" stroke-opacity="1" stroke-miterlimit="10" d="M 41.019844 -31.787312 L 36.859688 -24.588094 L 45.176094 -24.588094 Z M 41.019844 -31.787312 " transform="matrix(1, 0, 0, -1, 10.945, 11.783)"/>
<path fill="none" stroke-width="0.797" stroke-linecap="butt" stroke-linejoin="miter" stroke="rgb(0%, 0%, 0%)" stroke-opacity="1" stroke-miterlimit="10" d="M 0.0003125 -54.568562 C 5.918281 -54.568562 10.715156 -49.771687 10.715156 -43.853719 C 10.715156 -37.93575 5.918281 -33.138875 0.0003125 -33.138875 C -5.917656 -33.138875 -10.714531 -37.93575 -10.714531 -43.853719 C -10.714531 -49.771687 -5.917656 -54.568562 0.0003125 -54.568562 Z M 0.0003125 -54.568562 " transform="matrix(1, 0, 0, -1, 10.945, 11.783)"/>
<path fill="none" stroke-width="0.797" stroke-linecap="butt" stroke-linejoin="miter" stroke="rgb(0%, 0%, 0%)" stroke-opacity="1" stroke-miterlimit="10" d="M 10.715156 -43.853719 C 10.715156 -35.220906 10.715156 -32.244344 0.0003125 -24.802937 " transform="matrix(1, 0, 0, -1, 10.945, 11.783)"/>
<path fill="none" stroke-width="0.797" stroke-linecap="butt" stroke-linejoin="miter" stroke="rgb(0%, 0%, 0%)" stroke-opacity="1" stroke-miterlimit="10" d="M 0.0003125 -38.095906 L 0.0003125 -43.853719 L 4.984688 -46.728719 M 0.0003125 -43.853719 L -4.984062 -46.728719 " transform="matrix(1, 0, 0, -1, 10.945, 11.783)"/>
<g clip-path="url(#clip-7)">
<path fill-rule="nonzero" fill="rgb(0%, 0%, 0%)" fill-opacity="1" d="M 12.53125 91.152344 C 12.53125 90.277344 11.820312 89.566406 10.945312 89.566406 C 10.070312 89.566406 9.359375 90.277344 9.359375 91.152344 C 9.359375 92.03125 10.070312 92.742188 10.945312 92.742188 C 11.820312 92.742188 12.53125 92.03125 12.53125 91.152344 Z M 12.53125 91.152344 "/>
</g>
<g clip-path="url(#clip-8)">
<path fill="none" stroke-width="0.3985" stroke-linecap="butt" stroke-linejoin="miter" stroke="rgb(0%, 0%, 0%)" stroke-opacity="1" stroke-miterlimit="10" d="M 1.58625 -79.369344 C 1.58625 -78.494344 0.875313 -77.783406 0.0003125 -77.783406 C -0.874687 -77.783406 -1.585625 -78.494344 -1.585625 -79.369344 C -1.585625 -80.24825 -0.874687 -80.959187 0.0003125 -80.959187 C 0.875313 -80.959187 1.58625 -80.24825 1.58625 -79.369344 Z M 1.58625 -79.369344 " transform="matrix(1, 0, 0, -1, 10.945, 11.783)"/>
</g>
</svg>
