<?xml version="1.0" encoding="UTF-8"?>
<svg xmlns="http://www.w3.org/2000/svg" xmlns:xlink="http://www.w3.org/1999/xlink" width="129.195pt" height="91.144pt" viewBox="0 0 129.195 91.144">
<defs>
<clipPath id="clip-0">
<path clip-rule="nonzero" d="M 58 20 L 128.792969 20 L 128.792969 81 L 58 81 Z M 58 20 "/>
</clipPath>
<clipPath id="clip-1">
<path clip-rule="nonzero" d="M 68 58 L 107 58 L 107 90.714844 L 68 90.714844 Z M 68 58 "/>
</clipPath>
<clipPath id="clip-2">
<path clip-rule="nonzero" d="M 95 69 L 96 69 L 96 90.714844 L 95 90.714844 Z M 95 69 "/>
</clipPath>
</defs>
<g clip-path="url(#clip-0)">
<path fill="none" stroke-width="0.3985" stroke-linecap="butt" stroke-linejoin="miter" stroke="rgb(0%, 0%, 0%)" stroke-opacity="1" stroke-miterlimit="10" d="M 29.762313 -29.765312 L 50.172469 -29.765312 M 66.047469 -29.765312 L 99.215438 -29.765312 L 99.215438 -28.347344 M 29.762313 29.765938 L 50.172469 29.765938 M 66.047469 29.765938 L 99.215438 29.765938 L 99.215438 -28.347344 " transform="matrix(1, 0, 0, -1, 29.3705, 50.305)"/>
</g>
<path fill="none" stroke-width="0.797" stroke-linecap="butt" stroke-linejoin="bevel" stroke="rgb(0%, 0%, 0%)" stroke-opacity="1" stroke-miterlimit="10" d="M -12.065812 12.305 C -8.77675 12.305 -6.112687 10.668281 -6.112687 8.652656 C -6.112687 6.637031 -8.77675 5.000313 -12.065812 5.000313 C -13.710344 5.000313 -15.042375 5.668281 -15.042375 6.488594 C -15.042375 7.312813 -13.710344 7.976875 -12.065812 7.976875 C -8.77675 7.976875 -6.112687 6.344063 -6.112687 4.324531 C -6.112687 2.308906 -8.77675 0.676094 -12.065812 0.676094 C -13.710344 0.676094 -15.042375 1.340156 -15.042375 2.164375 C -15.042375 2.984688 -13.710344 3.652656 -12.065812 3.652656 C -8.77675 3.652656 -6.112687 2.015938 -6.112687 0.0003125 C -6.112687 -2.015312 -8.77675 -3.652031 -12.065812 -3.652031 C -13.710344 -3.652031 -15.042375 -2.984062 -15.042375 -2.16375 C -15.042375 -1.339531 -13.710344 -0.675469 -12.065812 -0.675469 C -8.77675 -0.675469 -6.112687 -2.308281 -6.112687 -4.327812 C -6.112687 -6.343437 -8.77675 -7.97625 -12.065812 -7.97625 C -13.710344 -7.97625 -15.042375 -7.312187 -15.042375 -6.487969 C -15.042375 -5.667656 -13.710344 -4.999687 -12.065812 -4.999687 C -8.77675 -4.999687 -6.112687 -6.636406 -6.112687 -8.652031 C -6.112687 -10.667656 -8.77675 -12.304375 -12.065812 -12.304375 " transform="matrix(1, 0, 0, -1, 29.3705, 50.305)"/>
<path fill="none" stroke-width="0.797" stroke-linecap="butt" stroke-linejoin="bevel" stroke="rgb(0%, 0%, 0%)" stroke-opacity="1" stroke-miterlimit="10" d="M 12.063094 -12.304375 C 8.777938 -12.304375 6.113875 -10.667656 6.113875 -8.652031 C 6.113875 -6.636406 8.777938 -4.999687 12.063094 -4.999687 C 13.707625 -4.999687 15.039656 -5.667656 15.039656 -6.487969 C 15.039656 -7.312187 13.707625 -7.97625 12.063094 -7.97625 C 8.777938 -7.97625 6.113875 -6.343437 6.113875 -4.327812 C 6.113875 -2.308281 8.777938 -0.675469 12.063094 -0.675469 C 13.707625 -0.675469 15.039656 -1.339531 15.039656 -2.16375 C 15.039656 -2.984062 13.707625 -3.652031 12.063094 -3.652031 C 8.777938 -3.652031 6.113875 -2.015312 6.113875 0.0003125 C 6.113875 2.015938 8.777938 3.652656 12.063094 3.652656 C 13.707625 3.652656 15.039656 2.984688 15.039656 2.164375 C 15.039656 1.340156 13.707625 0.676094 12.063094 0.676094 C 8.777938 0.676094 6.113875 2.308906 6.113875 4.324531 C 6.113875 6.344063 8.777938 7.976875 12.063094 7.976875 C 13.707625 7.976875 15.039656 7.312813 15.039656 6.488594 C 15.039656 5.668281 13.707625 5.000313 12.063094 5.000313 C 8.777938 5.000313 6.113875 6.637031 6.113875 8.652656 C 6.113875 10.668281 8.777938 12.305 12.063094 12.305 " transform="matrix(1, 0, 0, -1, 29.3705, 50.305)"/>
<path fill="none" stroke-width="0.3985" stroke-linecap="butt" stroke-linejoin="miter" stroke="rgb(0%, 0%, 0%)" stroke-opacity="1" stroke-miterlimit="10" d="M -29.765031 29.765938 L -11.905656 29.765938 L -11.905656 11.906563 M -11.905656 -11.905937 L -11.905656 -29.765312 L -29.765031 -29.765312 M 29.762313 29.765938 L 11.906844 29.765938 L 11.906844 11.906563 M 11.906844 -11.905937 L 11.906844 -29.765312 L 29.762313 -29.765312 " transform="matrix(1, 0, 0, -1, 29.3705, 50.305)"/>
<g clip-path="url(#clip-1)">
<path fill="none" stroke-width="0.797" stroke-linecap="butt" stroke-linejoin="miter" stroke="rgb(0%, 0%, 0%)" stroke-opacity="1" stroke-miterlimit="10" d="M 66.047469 -29.765312 L 50.172469 -19.843437 L 50.172469 -39.687187 Z M 66.047469 -29.765312 " transform="matrix(1, 0, 0, -1, 29.3705, 50.305)"/>
</g>
<g clip-path="url(#clip-2)">
<path fill="none" stroke-width="0.797" stroke-linecap="butt" stroke-linejoin="miter" stroke="rgb(0%, 0%, 0%)" stroke-opacity="1" stroke-miterlimit="10" d="M 66.047469 -39.687187 L 66.047469 -19.843437 " transform="matrix(1, 0, 0, -1, 29.3705, 50.305)"/>
</g>
<path fill="none" stroke-width="0.3985" stroke-linecap="butt" stroke-linejoin="miter" stroke="rgb(0%, 0%, 0%)" stroke-opacity="1" stroke-miterlimit="10" d="M 62.871688 -9.921562 L 56.430281 -17.97625 " transform="matrix(1, 0, 0, -1, 29.3705, 50.305)"/>
<path fill-rule="nonzero" fill="rgb(0%, 0%, 0%)" fill-opacity="1" d="M 84.304688 70.148438 C 85.085938 69.496094 86.515625 68.34375 87.960938 67.96875 C 86.484375 68.0625 85.863281 67.566406 85.628906 66.101562 C 85.582031 67.597656 84.773438 69.246094 84.304688 70.148438 Z M 84.304688 70.148438 "/>
<path fill="none" stroke-width="0.3985" stroke-linecap="butt" stroke-linejoin="miter" stroke="rgb(0%, 0%, 0%)" stroke-opacity="1" stroke-miterlimit="10" d="M 67.633406 -11.905937 L 61.192 -19.960625 " transform="matrix(1, 0, 0, -1, 29.3705, 50.305)"/>
<path fill-rule="nonzero" fill="rgb(0%, 0%, 0%)" fill-opacity="1" d="M 89.070312 72.132812 C 89.847656 71.476562 91.277344 70.328125 92.726562 69.953125 C 91.246094 70.046875 90.625 69.550781 90.390625 68.085938 C 90.34375 69.582031 89.535156 71.230469 89.070312 72.132812 Z M 89.070312 72.132812 "/>
<path fill="none" stroke-width="0.797" stroke-linecap="butt" stroke-linejoin="miter" stroke="rgb(0%, 0%, 0%)" stroke-opacity="1" stroke-miterlimit="10" d="M 66.047469 29.765938 L 50.172469 39.683906 L 50.172469 19.844063 Z M 66.047469 29.765938 " transform="matrix(1, 0, 0, -1, 29.3705, 50.305)"/>
<path fill="none" stroke-width="0.797" stroke-linecap="butt" stroke-linejoin="miter" stroke="rgb(0%, 0%, 0%)" stroke-opacity="1" stroke-miterlimit="10" d="M 66.047469 19.844063 L 66.047469 39.683906 " transform="matrix(1, 0, 0, -1, 29.3705, 50.305)"/>
<path fill="none" stroke-width="0.3985" stroke-linecap="butt" stroke-linejoin="miter" stroke="rgb(0%, 0%, 0%)" stroke-opacity="1" stroke-miterlimit="10" d="M 62.871688 49.605781 L 56.430281 41.551094 " transform="matrix(1, 0, 0, -1, 29.3705, 50.305)"/>
<path fill-rule="nonzero" fill="rgb(0%, 0%, 0%)" fill-opacity="1" d="M 84.304688 10.621094 C 85.085938 9.964844 86.515625 8.816406 87.960938 8.441406 C 86.484375 8.535156 85.863281 8.035156 85.628906 6.574219 C 85.582031 8.066406 84.773438 9.71875 84.304688 10.621094 Z M 84.304688 10.621094 "/>
<path fill="none" stroke-width="0.3985" stroke-linecap="butt" stroke-linejoin="miter" stroke="rgb(0%, 0%, 0%)" stroke-opacity="1" stroke-miterlimit="10" d="M 67.633406 47.621406 L 61.192 39.566719 " transform="matrix(1, 0, 0, -1, 29.3705, 50.305)"/>
<path fill-rule="nonzero" fill="rgb(0%, 0%, 0%)" fill-opacity="1" d="M 89.070312 12.605469 C 89.847656 11.949219 91.277344 10.800781 92.726562 10.425781 C 91.246094 10.519531 90.625 10.019531 90.390625 8.558594 C 90.34375 10.050781 89.535156 11.703125 89.070312 12.605469 Z M 89.070312 12.605469 "/>
</svg>
