<?xml version="1.0" encoding="UTF-8"?>
<svg xmlns="http://www.w3.org/2000/svg" xmlns:xlink="http://www.w3.org/1999/xlink" width="118.134" height="76.654" viewBox="0 0 118.134 76.654">
<defs>
<g>
<g id="glyph-0-0">
<path d="M 2.34375 0 L 2.34375 -0.28125 C 1.75 -0.28125 1.65625 -0.28125 1.65625 -0.6875 L 1.65625 -6.21875 L 0.328125 -6.125 L 0.328125 -5.84375 C 0.9375 -5.84375 1.015625 -5.78125 1.015625 -5.34375 L 1.015625 -0.6875 C 1.015625 -0.28125 0.921875 -0.28125 0.328125 -0.28125 L 0.328125 0 C 0.75 -0.015625 0.921875 -0.03125 1.328125 -0.03125 C 1.75 -0.03125 1.90625 -0.015625 2.34375 0 Z M 2.34375 0 "/>
</g>
<g id="glyph-0-1">
<path d="M 3.828125 -1.0625 C 3.828125 -1.125 3.78125 -1.1875 3.703125 -1.1875 C 3.609375 -1.1875 3.59375 -1.125 3.578125 -1.078125 C 3.28125 -0.171875 2.46875 -0.15625 2.34375 -0.15625 C 1.90625 -0.15625 1.546875 -0.390625 1.34375 -0.703125 C 1.046875 -1.140625 1.03125 -1.671875 1.03125 -2.046875 L 3.59375 -2.046875 C 3.78125 -2.046875 3.828125 -2.046875 3.828125 -2.25 C 3.828125 -3.171875 3.328125 -4.015625 2.171875 -4.015625 C 1.109375 -4.015625 0.265625 -3.078125 0.265625 -1.96875 C 0.265625 -0.796875 1.203125 0.09375 2.296875 0.09375 C 3.390625 0.09375 3.828125 -0.859375 3.828125 -1.0625 Z M 3.21875 -2.265625 L 1.046875 -2.265625 C 1.125 -3.65625 1.921875 -3.796875 2.171875 -3.796875 C 2.671875 -3.796875 3.203125 -3.421875 3.21875 -2.265625 Z M 3.21875 -2.265625 "/>
</g>
<g id="glyph-0-2">
<path d="M 3.28125 -5.6875 C 3.28125 -6.03125 2.9375 -6.328125 2.453125 -6.328125 C 1.75 -6.328125 1.015625 -5.796875 1.015625 -4.890625 L 1.015625 -3.859375 L 0.3125 -3.859375 L 0.3125 -3.59375 L 1.015625 -3.59375 L 1.015625 -0.6875 C 1.015625 -0.28125 0.921875 -0.28125 0.328125 -0.28125 L 0.328125 0 C 0.796875 -0.015625 0.921875 -0.03125 1.375 -0.03125 L 2.515625 0 L 2.515625 -0.28125 L 2.328125 -0.28125 C 1.671875 -0.28125 1.65625 -0.375 1.65625 -0.703125 L 1.65625 -3.59375 L 2.6875 -3.59375 L 2.6875 -3.859375 L 1.625 -3.859375 L 1.625 -4.875 C 1.625 -5.6875 2.0625 -6.09375 2.453125 -6.09375 C 2.53125 -6.09375 2.625 -6.078125 2.71875 -6.046875 C 2.625 -6.015625 2.484375 -5.90625 2.484375 -5.671875 C 2.484375 -5.4375 2.65625 -5.28125 2.875 -5.28125 C 3.125 -5.28125 3.28125 -5.453125 3.28125 -5.6875 Z M 3.28125 -5.6875 "/>
</g>
<g id="glyph-0-3">
<path d="M 3.0625 -1.109375 L 3.0625 -1.625 L 2.8125 -1.625 L 2.8125 -1.140625 C 2.8125 -0.46875 2.53125 -0.15625 2.21875 -0.15625 C 1.609375 -0.15625 1.609375 -0.9375 1.609375 -1.109375 L 1.609375 -3.59375 L 2.921875 -3.59375 L 2.921875 -3.859375 L 1.609375 -3.859375 L 1.609375 -5.515625 L 1.359375 -5.515625 C 1.359375 -4.765625 1.046875 -3.84375 0.171875 -3.8125 L 0.171875 -3.59375 L 0.953125 -3.59375 L 0.953125 -1.109375 C 0.953125 -0.109375 1.671875 0.09375 2.15625 0.09375 C 2.75 0.09375 3.0625 -0.46875 3.0625 -1.109375 Z M 3.0625 -1.109375 "/>
</g>
<g id="glyph-0-4">
<path d="M 3.34375 -3.40625 C 3.34375 -3.6875 3.078125 -3.96875 2.671875 -3.96875 C 2.140625 -3.96875 1.765625 -3.59375 1.546875 -3.03125 L 1.546875 -3.96875 L 0.265625 -3.859375 L 0.265625 -3.59375 C 0.875 -3.59375 0.953125 -3.53125 0.953125 -3.078125 L 0.953125 -0.6875 C 0.953125 -0.28125 0.859375 -0.28125 0.265625 -0.28125 L 0.265625 0 C 0.75 -0.015625 0.859375 -0.03125 1.3125 -0.03125 L 2.453125 0 L 2.453125 -0.28125 L 2.28125 -0.28125 C 1.625 -0.28125 1.59375 -0.375 1.59375 -0.703125 L 1.59375 -2.046875 C 1.59375 -2.421875 1.6875 -3.734375 2.71875 -3.734375 C 2.703125 -3.71875 2.5625 -3.609375 2.5625 -3.40625 C 2.5625 -3.15625 2.75 -3 2.953125 -3 C 3.140625 -3 3.34375 -3.140625 3.34375 -3.40625 Z M 3.34375 -3.40625 "/>
</g>
<g id="glyph-0-5">
<path d="M 2.265625 0 L 2.265625 -0.28125 C 1.6875 -0.28125 1.65625 -0.328125 1.65625 -0.671875 L 1.65625 -3.96875 L 0.359375 -3.859375 L 0.359375 -3.59375 C 0.9375 -3.59375 1.015625 -3.53125 1.015625 -3.09375 L 1.015625 -0.6875 C 1.015625 -0.28125 0.921875 -0.28125 0.328125 -0.28125 L 0.328125 0 C 0.71875 -0.015625 0.921875 -0.03125 1.3125 -0.03125 C 1.453125 -0.03125 1.828125 -0.03125 2.265625 0 Z M 1.765625 -5.40625 C 1.765625 -5.671875 1.546875 -5.890625 1.28125 -5.890625 C 1.015625 -5.890625 0.796875 -5.671875 0.796875 -5.40625 C 0.796875 -5.140625 1.015625 -4.921875 1.28125 -4.921875 C 1.546875 -4.921875 1.765625 -5.140625 1.765625 -5.40625 Z M 1.765625 -5.40625 "/>
</g>
<g id="glyph-0-6">
<path d="M 4.46875 -3.609375 C 4.46875 -3.78125 4.34375 -4.0625 3.984375 -4.0625 C 3.734375 -4.0625 3.328125 -3.96875 3.015625 -3.640625 C 2.765625 -3.84375 2.421875 -3.96875 2.046875 -3.96875 C 1.1875 -3.96875 0.546875 -3.359375 0.546875 -2.640625 C 0.546875 -2.1875 0.8125 -1.859375 0.953125 -1.734375 C 0.9375 -1.71875 0.6875 -1.40625 0.6875 -0.984375 C 0.6875 -0.6875 0.828125 -0.359375 1.078125 -0.203125 C 0.625 -0.046875 0.265625 0.28125 0.265625 0.703125 C 0.265625 1.34375 1.140625 1.84375 2.296875 1.84375 C 3.40625 1.84375 4.34375 1.375 4.34375 0.6875 C 4.34375 0.3125 4.171875 -0.078125 3.84375 -0.296875 C 3.34375 -0.609375 2.8125 -0.609375 1.96875 -0.609375 C 1.78125 -0.609375 1.5 -0.609375 1.421875 -0.625 C 1.171875 -0.6875 1 -0.921875 1 -1.203125 C 1 -1.359375 1.046875 -1.484375 1.125 -1.609375 C 1.34375 -1.46875 1.625 -1.328125 2.03125 -1.328125 C 2.890625 -1.328125 3.53125 -1.9375 3.53125 -2.640625 C 3.53125 -3.078125 3.28125 -3.390625 3.171875 -3.515625 C 3.53125 -3.84375 3.953125 -3.84375 4.046875 -3.84375 C 4.015625 -3.8125 3.9375 -3.765625 3.9375 -3.609375 C 3.9375 -3.5 4 -3.34375 4.203125 -3.34375 C 4.328125 -3.34375 4.46875 -3.421875 4.46875 -3.609375 Z M 2.84375 -2.640625 C 2.84375 -2.4375 2.84375 -1.5625 2.03125 -1.5625 C 1.234375 -1.5625 1.234375 -2.453125 1.234375 -2.640625 C 1.234375 -2.890625 1.25 -3.1875 1.40625 -3.40625 C 1.546875 -3.59375 1.78125 -3.71875 2.03125 -3.71875 C 2.84375 -3.71875 2.84375 -2.859375 2.84375 -2.640625 Z M 3.84375 0.6875 C 3.84375 1.203125 3.140625 1.609375 2.3125 1.609375 C 1.421875 1.609375 0.765625 1.1875 0.765625 0.6875 C 0.765625 0.546875 0.859375 -0.046875 1.625 -0.046875 L 2.453125 -0.046875 C 2.734375 -0.046875 3.84375 -0.03125 3.84375 0.6875 Z M 3.84375 0.6875 "/>
</g>
<g id="glyph-0-7">
<path d="M 4.90625 0 L 4.90625 -0.28125 C 4.453125 -0.28125 4.21875 -0.28125 4.21875 -0.5625 L 4.21875 -2.28125 C 4.21875 -3.015625 4.21875 -3.28125 3.96875 -3.59375 C 3.765625 -3.84375 3.421875 -3.96875 2.96875 -3.96875 C 2.375 -3.96875 1.921875 -3.65625 1.65625 -3.140625 L 1.640625 -3.140625 L 1.640625 -6.21875 L 0.3125 -6.125 L 0.3125 -5.84375 C 0.921875 -5.84375 1 -5.78125 1 -5.34375 L 1 -0.6875 C 1 -0.28125 0.90625 -0.28125 0.3125 -0.28125 L 0.3125 0 C 0.734375 -0.015625 0.90625 -0.03125 1.34375 -0.03125 C 1.765625 -0.03125 1.890625 -0.015625 2.359375 0 L 2.359375 -0.28125 C 1.765625 -0.28125 1.671875 -0.28125 1.671875 -0.6875 L 1.671875 -2.328125 C 1.671875 -3.28125 2.34375 -3.734375 2.90625 -3.734375 C 3.4375 -3.734375 3.546875 -3.296875 3.546875 -2.765625 L 3.546875 -0.6875 C 3.546875 -0.28125 3.453125 -0.28125 2.859375 -0.28125 L 2.859375 0 C 3.28125 -0.015625 3.453125 -0.03125 3.890625 -0.03125 C 4.3125 -0.03125 4.4375 -0.015625 4.90625 0 Z M 4.90625 0 "/>
</g>
<g id="glyph-0-8">
<path d="M 4.8125 -1.9375 C 4.8125 -3.0625 3.921875 -3.96875 2.875 -3.96875 C 2.390625 -3.96875 1.9375 -3.765625 1.59375 -3.40625 L 1.59375 -3.96875 L 0.265625 -3.859375 L 0.265625 -3.59375 C 0.90625 -3.59375 0.953125 -3.53125 0.953125 -3.140625 L 0.953125 1.046875 C 0.953125 1.46875 0.859375 1.46875 0.265625 1.46875 L 0.265625 1.734375 C 0.6875 1.71875 0.859375 1.71875 1.296875 1.71875 C 1.71875 1.71875 1.84375 1.71875 2.3125 1.734375 L 2.3125 1.46875 C 1.71875 1.46875 1.625 1.46875 1.625 1.046875 L 1.625 -0.4375 C 1.859375 -0.203125 2.15625 0.09375 2.75 0.09375 C 3.828125 0.09375 4.8125 -0.765625 4.8125 -1.9375 Z M 4.03125 -1.9375 C 4.03125 -0.921875 3.421875 -0.125 2.703125 -0.125 C 2.296875 -0.125 1.953125 -0.359375 1.734375 -0.671875 C 1.625 -0.859375 1.625 -0.875 1.625 -1.046875 L 1.625 -3.015625 C 1.921875 -3.53125 2.421875 -3.71875 2.796875 -3.71875 C 3.5 -3.71875 4.03125 -2.90625 4.03125 -1.9375 Z M 4.03125 -1.9375 "/>
</g>
<g id="glyph-0-9">
<path d="M 7.46875 0 L 7.46875 -0.28125 C 7.015625 -0.28125 6.796875 -0.28125 6.78125 -0.5625 L 6.78125 -2.28125 C 6.78125 -3.0625 6.78125 -3.3125 6.484375 -3.640625 C 6.296875 -3.859375 5.9375 -3.96875 5.53125 -3.96875 C 4.875 -3.96875 4.4375 -3.59375 4.1875 -3.109375 C 4.078125 -3.640625 3.71875 -3.96875 2.96875 -3.96875 C 2.25 -3.96875 1.8125 -3.5 1.625 -3.078125 L 1.609375 -3.078125 L 1.609375 -3.96875 L 0.3125 -3.859375 L 0.3125 -3.59375 C 0.921875 -3.59375 1 -3.53125 1 -3.078125 L 1 -0.6875 C 1 -0.28125 0.90625 -0.28125 0.3125 -0.28125 L 0.3125 0 C 0.734375 -0.015625 0.90625 -0.03125 1.34375 -0.03125 C 1.765625 -0.03125 1.890625 -0.015625 2.359375 0 L 2.359375 -0.28125 C 1.765625 -0.28125 1.671875 -0.28125 1.671875 -0.6875 L 1.671875 -2.328125 C 1.671875 -3.296875 2.375 -3.734375 2.90625 -3.734375 C 3.40625 -3.734375 3.5625 -3.390625 3.5625 -2.765625 L 3.5625 -0.6875 C 3.5625 -0.28125 3.46875 -0.28125 2.875 -0.28125 L 2.875 0 C 3.296875 -0.015625 3.46875 -0.03125 3.890625 -0.03125 C 4.328125 -0.03125 4.4375 -0.015625 4.921875 0 L 4.921875 -0.28125 C 4.328125 -0.28125 4.21875 -0.28125 4.21875 -0.6875 L 4.21875 -2.328125 C 4.21875 -3.296875 4.921875 -3.734375 5.46875 -3.734375 C 5.953125 -3.734375 6.109375 -3.390625 6.109375 -2.765625 L 6.109375 -0.6875 C 6.109375 -0.28125 6.015625 -0.28125 5.421875 -0.28125 L 5.421875 0 C 5.84375 -0.015625 6.015625 -0.03125 6.453125 -0.03125 C 6.875 -0.03125 7 -0.015625 7.46875 0 Z M 7.46875 0 "/>
</g>
<g id="glyph-0-10">
<path d="M 3.875 0 L 3.875 -0.28125 L 3.59375 -0.28125 C 2.75 -0.28125 2.71875 -0.390625 2.71875 -0.71875 L 2.71875 -5.734375 C 2.71875 -5.953125 2.71875 -5.96875 2.5 -5.96875 C 1.9375 -5.40625 1.109375 -5.40625 0.828125 -5.40625 L 0.828125 -5.125 C 1 -5.125 1.546875 -5.125 2.03125 -5.359375 L 2.03125 -0.71875 C 2.03125 -0.390625 2.015625 -0.28125 1.171875 -0.28125 L 0.890625 -0.28125 L 0.890625 0 C 1.203125 -0.03125 2.015625 -0.03125 2.375 -0.03125 C 2.75 -0.03125 3.546875 -0.03125 3.875 0 Z M 3.875 0 "/>
</g>
<g id="glyph-0-11">
<path d="M 4.140625 -1.59375 L 3.890625 -1.59375 C 3.875 -1.46875 3.796875 -0.9375 3.6875 -0.796875 C 3.625 -0.71875 3.015625 -0.71875 2.828125 -0.71875 L 1.234375 -0.71875 L 2.125 -1.5625 C 3.59375 -2.828125 4.140625 -3.3125 4.140625 -4.21875 C 4.140625 -5.25 3.296875 -5.96875 2.1875 -5.96875 C 1.15625 -5.96875 0.453125 -5.15625 0.453125 -4.34375 C 0.453125 -3.890625 0.84375 -3.84375 0.921875 -3.84375 C 1.125 -3.84375 1.390625 -3.984375 1.390625 -4.3125 C 1.390625 -4.578125 1.203125 -4.78125 0.921875 -4.78125 C 0.875 -4.78125 0.859375 -4.78125 0.8125 -4.765625 C 1.03125 -5.40625 1.609375 -5.6875 2.09375 -5.6875 C 3 -5.6875 3.3125 -4.84375 3.3125 -4.21875 C 3.3125 -3.3125 2.625 -2.5625 2.203125 -2.09375 L 0.5625 -0.328125 C 0.453125 -0.21875 0.453125 -0.203125 0.453125 0 L 3.890625 0 Z M 4.140625 -1.59375 "/>
</g>
<g id="glyph-0-12">
<path d="M 3.3125 -1.140625 C 3.3125 -1.546875 3.140625 -1.796875 2.9375 -2 C 2.640625 -2.296875 2.3125 -2.359375 1.65625 -2.484375 C 1.421875 -2.53125 0.765625 -2.640625 0.765625 -3.15625 C 0.765625 -3.4375 0.96875 -3.828125 1.78125 -3.828125 C 2.75 -3.828125 2.8125 -3.078125 2.828125 -2.859375 C 2.84375 -2.75 2.84375 -2.6875 2.953125 -2.6875 C 3.078125 -2.6875 3.078125 -2.75 3.078125 -2.921875 L 3.078125 -3.78125 C 3.078125 -3.9375 3.078125 -4.015625 2.984375 -4.015625 C 2.9375 -4.015625 2.921875 -4.015625 2.796875 -3.90625 C 2.78125 -3.890625 2.703125 -3.8125 2.640625 -3.765625 C 2.375 -3.96875 2.09375 -4.015625 1.78125 -4.015625 C 0.59375 -4.015625 0.3125 -3.359375 0.3125 -2.90625 C 0.3125 -2.625 0.4375 -2.390625 0.640625 -2.1875 C 0.9375 -1.90625 1.28125 -1.84375 1.734375 -1.765625 C 2.203125 -1.671875 2.34375 -1.65625 2.546875 -1.5 C 2.640625 -1.421875 2.859375 -1.25 2.859375 -0.921875 C 2.859375 -0.125 1.953125 -0.125 1.828125 -0.125 C 0.921875 -0.125 0.6875 -0.890625 0.578125 -1.375 C 0.546875 -1.46875 0.53125 -1.515625 0.4375 -1.515625 C 0.3125 -1.515625 0.3125 -1.4375 0.3125 -1.28125 L 0.3125 -0.140625 C 0.3125 0.015625 0.3125 0.09375 0.40625 0.09375 C 0.46875 0.09375 0.46875 0.09375 0.640625 -0.078125 C 0.671875 -0.140625 0.765625 -0.25 0.8125 -0.296875 C 1.1875 0.078125 1.609375 0.09375 1.828125 0.09375 C 2.9375 0.09375 3.3125 -0.546875 3.3125 -1.140625 Z M 3.3125 -1.140625 "/>
</g>
<g id="glyph-0-13">
<path d="M 3.828125 -1.0625 C 3.828125 -1.171875 3.734375 -1.171875 3.703125 -1.171875 C 3.609375 -1.171875 3.609375 -1.15625 3.546875 -1 C 3.34375 -0.390625 2.84375 -0.15625 2.390625 -0.15625 C 1.8125 -0.15625 1.078125 -0.625 1.078125 -1.953125 C 1.078125 -3.34375 1.796875 -3.765625 2.328125 -3.765625 C 2.453125 -3.765625 2.9375 -3.75 3.265625 -3.53125 C 3.078125 -3.484375 2.890625 -3.359375 2.890625 -3.109375 C 2.890625 -2.875 3.078125 -2.6875 3.3125 -2.6875 C 3.546875 -2.6875 3.734375 -2.84375 3.734375 -3.125 C 3.734375 -3.671875 3.109375 -4.015625 2.3125 -4.015625 C 1.171875 -4.015625 0.3125 -3.0625 0.3125 -1.9375 C 0.3125 -0.78125 1.234375 0.09375 2.296875 0.09375 C 3.546875 0.09375 3.828125 -0.984375 3.828125 -1.0625 Z M 3.828125 -1.0625 "/>
</g>
<g id="glyph-0-14">
<path d="M 4.21875 -1.53125 C 4.21875 -2.3125 3.59375 -2.96875 2.734375 -3.15625 C 3.5625 -3.46875 3.96875 -4.125 3.96875 -4.75 C 3.96875 -5.4375 3.203125 -5.96875 2.265625 -5.96875 C 1.34375 -5.96875 0.640625 -5.4375 0.640625 -4.765625 C 0.640625 -4.46875 0.828125 -4.296875 1.09375 -4.296875 C 1.359375 -4.296875 1.546875 -4.484375 1.546875 -4.75 C 1.546875 -5.0625 1.328125 -5.1875 1.015625 -5.1875 C 1.25 -5.5625 1.796875 -5.75 2.25 -5.75 C 2.984375 -5.75 3.125 -5.15625 3.125 -4.734375 C 3.125 -4.46875 3.078125 -4.03125 2.859375 -3.6875 C 2.578125 -3.296875 2.265625 -3.28125 2 -3.25 C 1.78125 -3.234375 1.765625 -3.234375 1.6875 -3.234375 C 1.609375 -3.234375 1.53125 -3.21875 1.53125 -3.125 C 1.53125 -3 1.609375 -3 1.765625 -3 L 2.171875 -3 C 2.953125 -3 3.296875 -2.375 3.296875 -1.53125 C 3.296875 -0.375 2.6875 -0.046875 2.234375 -0.046875 C 2.0625 -0.046875 1.1875 -0.09375 0.796875 -0.765625 C 1.109375 -0.71875 1.359375 -0.9375 1.359375 -1.25 C 1.359375 -1.546875 1.140625 -1.734375 0.875 -1.734375 C 0.65625 -1.734375 0.390625 -1.59375 0.390625 -1.21875 C 0.390625 -0.421875 1.21875 0.203125 2.265625 0.203125 C 3.375 0.203125 4.21875 -0.609375 4.21875 -1.53125 Z M 4.21875 -1.53125 "/>
</g>
<g id="glyph-0-15">
<path d="M 4.90625 0 L 4.90625 -0.28125 C 4.453125 -0.28125 4.21875 -0.28125 4.21875 -0.5625 L 4.21875 -2.28125 C 4.21875 -3.015625 4.21875 -3.28125 3.96875 -3.59375 C 3.765625 -3.84375 3.421875 -3.96875 2.96875 -3.96875 C 2.140625 -3.96875 1.75 -3.34375 1.625 -3.09375 L 1.609375 -3.09375 L 1.609375 -3.96875 L 0.3125 -3.859375 L 0.3125 -3.59375 C 0.921875 -3.59375 1 -3.53125 1 -3.078125 L 1 -0.6875 C 1 -0.28125 0.90625 -0.28125 0.3125 -0.28125 L 0.3125 0 C 0.734375 -0.015625 0.90625 -0.03125 1.34375 -0.03125 C 1.765625 -0.03125 1.890625 -0.015625 2.359375 0 L 2.359375 -0.28125 C 1.765625 -0.28125 1.671875 -0.28125 1.671875 -0.6875 L 1.671875 -2.328125 C 1.671875 -3.28125 2.34375 -3.734375 2.90625 -3.734375 C 3.4375 -3.734375 3.546875 -3.296875 3.546875 -2.765625 L 3.546875 -0.6875 C 3.546875 -0.28125 3.453125 -0.28125 2.859375 -0.28125 L 2.859375 0 C 3.28125 -0.015625 3.453125 -0.03125 3.890625 -0.03125 C 4.3125 -0.03125 4.4375 -0.015625 4.90625 0 Z M 4.90625 0 "/>
</g>
</g>
<clipPath id="clip-0">
<path clip-rule="nonzero" d="M 40 70 L 60 70 L 60 76.480469 L 40 76.480469 Z M 40 70 "/>
</clipPath>
<clipPath id="clip-1">
<path clip-rule="nonzero" d="M 95 6 L 117.699219 6 L 117.699219 13 L 95 13 Z M 95 6 "/>
</clipPath>
<clipPath id="clip-2">
<path clip-rule="nonzero" d="M 91 70 L 117.699219 70 L 117.699219 76 L 91 76 Z M 91 70 "/>
</clipPath>
</defs>
<path fill="none" stroke-width="0.3985" stroke-linecap="butt" stroke-linejoin="miter" stroke="rgb(0%, 0%, 0%)" stroke-opacity="1" stroke-miterlimit="10" d="M 0.00009375 0.00109375 L 11.558687 0.00109375 M 41.050875 0.00109375 L 56.695406 0.00109375 " transform="matrix(1, 0, 0, -1, 15.246, 42.505)"/>
<path fill-rule="nonzero" fill="rgb(70.001221%, 90.351868%, 98.118591%)" fill-opacity="1" d="M 46.535156 42.503906 C 46.535156 37.058594 42.117188 32.640625 36.671875 32.640625 C 31.222656 32.640625 26.804688 37.058594 26.804688 42.503906 C 26.804688 47.953125 31.222656 52.371094 36.671875 52.371094 C 42.117188 52.371094 46.535156 47.953125 46.535156 42.503906 Z M 46.535156 42.503906 "/>
<path fill-rule="nonzero" fill="rgb(70.001221%, 90.351868%, 98.118591%)" fill-opacity="1" d="M 60.378906 34.511719 C 60.378906 29.0625 55.964844 24.648438 50.515625 24.648438 C 45.066406 24.648438 40.652344 29.0625 40.652344 34.511719 C 40.652344 39.960938 45.066406 44.375 50.515625 44.375 C 55.964844 44.375 60.378906 39.960938 60.378906 34.511719 Z M 60.378906 34.511719 "/>
<path fill-rule="nonzero" fill="rgb(70.001221%, 90.351868%, 98.118591%)" fill-opacity="1" stroke-width="0.797" stroke-linecap="butt" stroke-linejoin="miter" stroke="rgb(0%, 0%, 0%)" stroke-opacity="1" stroke-miterlimit="10" d="M 45.132906 -7.995 C 45.132906 -2.545781 40.718844 1.872187 35.269625 1.872187 C 29.820406 1.872187 25.406344 -2.545781 25.406344 -7.995 C 25.406344 -13.440313 29.820406 -17.858281 35.269625 -17.858281 C 40.718844 -17.858281 45.132906 -13.440313 45.132906 -7.995 Z M 45.132906 -7.995 " transform="matrix(1, 0, 0, -1, 15.246, 42.505)"/>
<path fill="none" stroke-width="0.797" stroke-linecap="butt" stroke-linejoin="miter" stroke="rgb(0%, 0%, 0%)" stroke-opacity="1" stroke-miterlimit="10" d="M 31.289156 0.00109375 C 31.289156 5.446406 26.871187 9.864375 21.425875 9.864375 C 15.976656 9.864375 11.558687 5.446406 11.558687 0.00109375 C 11.558687 -5.448125 15.976656 -9.866094 21.425875 -9.866094 C 26.871187 -9.866094 31.289156 -5.448125 31.289156 0.00109375 Z M 31.289156 0.00109375 " transform="matrix(1, 0, 0, -1, 15.246, 42.505)"/>
<path fill="none" stroke-width="0.797" stroke-linecap="butt" stroke-linejoin="miter" stroke="rgb(0%, 0%, 0%)" stroke-opacity="1" stroke-miterlimit="10" d="M 45.132906 7.993281 C 45.132906 13.4425 40.718844 17.856562 35.269625 17.856562 C 29.820406 17.856562 25.406344 13.4425 25.406344 7.993281 C 25.406344 2.544062 29.820406 -1.87 35.269625 -1.87 C 40.718844 -1.87 45.132906 2.544062 45.132906 7.993281 Z M 45.132906 7.993281 " transform="matrix(1, 0, 0, -1, 15.246, 42.505)"/>
<path fill="none" stroke-width="0.3985" stroke-linecap="butt" stroke-linejoin="miter" stroke="rgb(100%, 0%, 0%)" stroke-opacity="1" stroke-miterlimit="10" d="M 12.968844 0.00109375 C 12.968844 0.778437 12.339937 1.407344 11.558687 1.407344 C 10.781344 1.407344 10.152437 0.778437 10.152437 0.00109375 C 10.152437 -0.77625 10.781344 -1.409063 11.558687 -1.409063 C 12.339937 -1.409063 12.968844 -0.77625 12.968844 0.00109375 Z M 12.968844 0.00109375 " transform="matrix(1, 0, 0, -1, 15.246, 42.505)"/>
<g fill="rgb(100%, 0%, 0%)" fill-opacity="1">
<use xlink:href="#glyph-0-0" x="3.542" y="40.975"/>
<use xlink:href="#glyph-0-1" x="6.101907" y="40.975"/>
<use xlink:href="#glyph-0-2" x="10.201345" y="40.975"/>
<use xlink:href="#glyph-0-3" x="13.016795" y="40.975"/>
</g>
<path fill="none" stroke-width="0.19925" stroke-linecap="butt" stroke-linejoin="miter" stroke="rgb(100%, 0%, 0%)" stroke-opacity="1" stroke-miterlimit="10" d="M 10.007906 0.426875 L 2.050875 2.622187 " transform="matrix(1, 0, 0, -1, 15.246, 42.505)"/>
<path fill="none" stroke-width="0.3985" stroke-linecap="butt" stroke-linejoin="miter" stroke="rgb(100%, 0%, 0%)" stroke-opacity="1" stroke-miterlimit="10" d="M 42.457125 0.00109375 C 42.457125 0.778437 41.828219 1.407344 41.050875 1.407344 C 40.273531 1.407344 39.640719 0.778437 39.640719 0.00109375 C 39.640719 -0.77625 40.273531 -1.409063 41.050875 -1.409063 C 41.828219 -1.409063 42.457125 -0.77625 42.457125 0.00109375 Z M 42.457125 0.00109375 " transform="matrix(1, 0, 0, -1, 15.246, 42.505)"/>
<g fill="rgb(100%, 0%, 0%)" fill-opacity="1">
<use xlink:href="#glyph-0-4" x="86.268" y="37.502"/>
<use xlink:href="#glyph-0-5" x="89.872493" y="37.502"/>
<use xlink:href="#glyph-0-6" x="92.4324" y="37.502"/>
<use xlink:href="#glyph-0-7" x="97.040233" y="37.502"/>
</g>
<g fill="rgb(100%, 0%, 0%)" fill-opacity="1">
<use xlink:href="#glyph-0-3" x="101.900022" y="37.502"/>
</g>
<path fill="none" stroke-width="0.19925" stroke-linecap="butt" stroke-linejoin="miter" stroke="rgb(100%, 0%, 0%)" stroke-opacity="1" stroke-miterlimit="10" d="M 42.632906 0.290156 L 70.324312 5.340937 " transform="matrix(1, 0, 0, -1, 15.246, 42.505)"/>
<path fill="none" stroke-width="0.3985" stroke-linecap="butt" stroke-linejoin="miter" stroke="rgb(100%, 0%, 0%)" stroke-opacity="1" stroke-miterlimit="10" d="M 15.859469 6.97375 C 15.859469 7.755 15.226656 8.383906 14.449312 8.383906 C 13.671969 8.383906 13.039156 7.755 13.039156 6.97375 C 13.039156 6.196406 13.671969 5.5675 14.449312 5.5675 C 15.226656 5.5675 15.859469 6.196406 15.859469 6.97375 Z M 15.859469 6.97375 " transform="matrix(1, 0, 0, -1, 15.246, 42.505)"/>
<g fill="rgb(100%, 0%, 0%)" fill-opacity="1">
<use xlink:href="#glyph-0-8" x="-0.709" y="25.777"/>
<use xlink:href="#glyph-0-4" x="4.410814" y="25.777"/>
<use xlink:href="#glyph-0-5" x="8.015307" y="25.777"/>
<use xlink:href="#glyph-0-9" x="10.575214" y="25.777"/>
<use xlink:href="#glyph-0-10" x="18.254039" y="25.777"/>
</g>
<path fill="none" stroke-width="0.19925" stroke-linecap="butt" stroke-linejoin="miter" stroke="rgb(100%, 0%, 0%)" stroke-opacity="1" stroke-miterlimit="10" d="M 13.086031 7.833125 L 2.832125 14.28625 " transform="matrix(1, 0, 0, -1, 15.246, 42.505)"/>
<path fill="none" stroke-width="0.3985" stroke-linecap="butt" stroke-linejoin="miter" stroke="rgb(100%, 0%, 0%)" stroke-opacity="1" stroke-miterlimit="10" d="M 15.859469 -6.975469 C 15.859469 -6.198125 15.226656 -5.565313 14.449312 -5.565313 C 13.671969 -5.565313 13.039156 -6.198125 13.039156 -6.975469 C 13.039156 -7.752813 13.671969 -8.385625 14.449312 -8.385625 C 15.226656 -8.385625 15.859469 -7.752813 15.859469 -6.975469 Z M 15.859469 -6.975469 " transform="matrix(1, 0, 0, -1, 15.246, 42.505)"/>
<g fill="rgb(100%, 0%, 0%)" fill-opacity="1">
<use xlink:href="#glyph-0-8" x="-0.709" y="63.162"/>
<use xlink:href="#glyph-0-4" x="4.410814" y="63.162"/>
<use xlink:href="#glyph-0-5" x="8.015307" y="63.162"/>
<use xlink:href="#glyph-0-9" x="10.575214" y="63.162"/>
<use xlink:href="#glyph-0-11" x="18.254039" y="63.162"/>
</g>
<path fill="none" stroke-width="0.19925" stroke-linecap="butt" stroke-linejoin="miter" stroke="rgb(100%, 0%, 0%)" stroke-opacity="1" stroke-miterlimit="10" d="M 13.086031 -7.830938 L 2.832125 -14.287969 " transform="matrix(1, 0, 0, -1, 15.246, 42.505)"/>
<path fill="none" stroke-width="0.3985" stroke-linecap="butt" stroke-linejoin="miter" stroke="rgb(100%, 0%, 0%)" stroke-opacity="1" stroke-miterlimit="10" d="M 46.543062 7.993281 C 46.543062 8.770625 45.91025 9.403437 45.132906 9.403437 C 44.355562 9.403437 43.726656 8.770625 43.726656 7.993281 C 43.726656 7.215937 44.355562 6.583125 45.132906 6.583125 C 45.91025 6.583125 46.543062 7.215937 46.543062 7.993281 Z M 46.543062 7.993281 " transform="matrix(1, 0, 0, -1, 15.246, 42.505)"/>
<g fill="rgb(100%, 0%, 0%)" fill-opacity="1">
<use xlink:href="#glyph-0-12" x="68.896" y="28.339"/>
<use xlink:href="#glyph-0-1" x="72.530979" y="28.339"/>
<use xlink:href="#glyph-0-13" x="76.630417" y="28.339"/>
<use xlink:href="#glyph-0-10" x="80.726268" y="28.339"/>
</g>
<path fill="none" stroke-width="0.19925" stroke-linecap="butt" stroke-linejoin="miter" stroke="rgb(100%, 0%, 0%)" stroke-opacity="1" stroke-miterlimit="10" d="M 46.550875 8.755 L 55.304781 13.469844 " transform="matrix(1, 0, 0, -1, 15.246, 42.505)"/>
<path fill="none" stroke-width="0.3985" stroke-linecap="butt" stroke-linejoin="miter" stroke="rgb(100%, 0%, 0%)" stroke-opacity="1" stroke-miterlimit="10" d="M 43.652437 14.969844 C 43.652437 15.747187 43.023531 16.376094 42.246187 16.376094 C 41.464937 16.376094 40.836031 15.747187 40.836031 14.969844 C 40.836031 14.1925 41.464937 13.559687 42.246187 13.559687 C 43.023531 13.559687 43.652437 14.1925 43.652437 14.969844 Z M 43.652437 14.969844 " transform="matrix(1, 0, 0, -1, 15.246, 42.505)"/>
<g fill="rgb(100%, 0%, 0%)" fill-opacity="1">
<use xlink:href="#glyph-0-12" x="62.96" y="18.572"/>
<use xlink:href="#glyph-0-1" x="66.594979" y="18.572"/>
<use xlink:href="#glyph-0-13" x="70.694417" y="18.572"/>
<use xlink:href="#glyph-0-11" x="74.790268" y="18.572"/>
</g>
<path fill="none" stroke-width="0.19925" stroke-linecap="butt" stroke-linejoin="miter" stroke="rgb(100%, 0%, 0%)" stroke-opacity="1" stroke-miterlimit="10" d="M 43.461031 16.020625 L 51.836031 23.235469 " transform="matrix(1, 0, 0, -1, 15.246, 42.505)"/>
<path fill="none" stroke-width="0.3985" stroke-linecap="butt" stroke-linejoin="miter" stroke="rgb(100%, 0%, 0%)" stroke-opacity="1" stroke-miterlimit="10" d="M 36.679781 17.856562 C 36.679781 18.637812 36.046969 19.266719 35.269625 19.266719 C 34.492281 19.266719 33.859469 18.637812 33.859469 17.856562 C 33.859469 17.079219 34.492281 16.450312 35.269625 16.450312 C 36.046969 16.450312 36.679781 17.079219 36.679781 17.856562 Z M 36.679781 17.856562 " transform="matrix(1, 0, 0, -1, 15.246, 42.505)"/>
<g fill="rgb(100%, 0%, 0%)" fill-opacity="1">
<use xlink:href="#glyph-0-12" x="42.297" y="14.404"/>
<use xlink:href="#glyph-0-1" x="45.931979" y="14.404"/>
<use xlink:href="#glyph-0-13" x="50.031417" y="14.404"/>
<use xlink:href="#glyph-0-14" x="54.127268" y="14.404"/>
</g>
<path fill="none" stroke-width="0.19925" stroke-linecap="butt" stroke-linejoin="miter" stroke="rgb(100%, 0%, 0%)" stroke-opacity="1" stroke-miterlimit="10" d="M 35.269625 19.465937 L 35.269625 27.403437 " transform="matrix(1, 0, 0, -1, 15.246, 42.505)"/>
<path fill="none" stroke-width="0.3985" stroke-linecap="butt" stroke-linejoin="miter" stroke="rgb(100%, 0%, 0%)" stroke-opacity="1" stroke-miterlimit="10" d="M 46.543062 -7.995 C 46.543062 -7.21375 45.91025 -6.584844 45.132906 -6.584844 C 44.355562 -6.584844 43.726656 -7.21375 43.726656 -7.995 C 43.726656 -8.772344 44.355562 -9.40125 45.132906 -9.40125 C 45.91025 -9.40125 46.543062 -8.772344 46.543062 -7.995 Z M 46.543062 -7.995 " transform="matrix(1, 0, 0, -1, 15.246, 42.505)"/>
<g fill="rgb(100%, 0%, 0%)" fill-opacity="1">
<use xlink:href="#glyph-0-3" x="70.622" y="53.335"/>
<use xlink:href="#glyph-0-1" x="74.20587" y="53.335"/>
<use xlink:href="#glyph-0-4" x="78.305308" y="53.335"/>
<use xlink:href="#glyph-0-3" x="81.909801" y="53.335"/>
<use xlink:href="#glyph-0-10" x="85.493671" y="53.335"/>
</g>
<path fill="none" stroke-width="0.19925" stroke-linecap="butt" stroke-linejoin="miter" stroke="rgb(100%, 0%, 0%)" stroke-opacity="1" stroke-miterlimit="10" d="M 46.742281 -7.995 L 54.679781 -7.995 " transform="matrix(1, 0, 0, -1, 15.246, 42.505)"/>
<path fill="none" stroke-width="0.3985" stroke-linecap="butt" stroke-linejoin="miter" stroke="rgb(100%, 0%, 0%)" stroke-opacity="1" stroke-miterlimit="10" d="M 43.652437 -14.967656 C 43.652437 -14.190313 43.023531 -13.561406 42.246187 -13.561406 C 41.464937 -13.561406 40.836031 -14.190313 40.836031 -14.967656 C 40.836031 -15.748906 41.464937 -16.377813 42.246187 -16.377813 C 43.023531 -16.377813 43.652437 -15.748906 43.652437 -14.967656 Z M 43.652437 -14.967656 " transform="matrix(1, 0, 0, -1, 15.246, 42.505)"/>
<g fill="rgb(100%, 0%, 0%)" fill-opacity="1">
<use xlink:href="#glyph-0-3" x="64.937" y="70.593"/>
<use xlink:href="#glyph-0-1" x="68.52087" y="70.593"/>
<use xlink:href="#glyph-0-4" x="72.620308" y="70.593"/>
<use xlink:href="#glyph-0-3" x="76.224801" y="70.593"/>
<use xlink:href="#glyph-0-11" x="79.808671" y="70.593"/>
</g>
<path fill="none" stroke-width="0.19925" stroke-linecap="butt" stroke-linejoin="miter" stroke="rgb(100%, 0%, 0%)" stroke-opacity="1" stroke-miterlimit="10" d="M 43.625094 -15.795781 L 53.523531 -21.717656 " transform="matrix(1, 0, 0, -1, 15.246, 42.505)"/>
<path fill="none" stroke-width="0.3985" stroke-linecap="butt" stroke-linejoin="miter" stroke="rgb(100%, 0%, 0%)" stroke-opacity="1" stroke-miterlimit="10" d="M 36.679781 -17.858281 C 36.679781 -17.080938 36.046969 -16.448125 35.269625 -16.448125 C 34.492281 -16.448125 33.859469 -17.080938 33.859469 -17.858281 C 33.859469 -18.635625 34.492281 -19.268438 35.269625 -19.268438 C 36.046969 -19.268438 36.679781 -18.635625 36.679781 -17.858281 Z M 36.679781 -17.858281 " transform="matrix(1, 0, 0, -1, 15.246, 42.505)"/>
<g clip-path="url(#clip-0)">
<g fill="rgb(100%, 0%, 0%)" fill-opacity="1">
<use xlink:href="#glyph-0-3" x="40.776" y="76.278"/>
<use xlink:href="#glyph-0-1" x="44.35987" y="76.278"/>
<use xlink:href="#glyph-0-4" x="48.459308" y="76.278"/>
<use xlink:href="#glyph-0-3" x="52.063801" y="76.278"/>
<use xlink:href="#glyph-0-14" x="55.647671" y="76.278"/>
</g>
</g>
<path fill="none" stroke-width="0.19925" stroke-linecap="butt" stroke-linejoin="miter" stroke="rgb(100%, 0%, 0%)" stroke-opacity="1" stroke-miterlimit="10" d="M 35.269625 -19.467656 L 35.269625 -27.405156 " transform="matrix(1, 0, 0, -1, 15.246, 42.505)"/>
<path fill="none" stroke-width="0.3985" stroke-linecap="butt" stroke-linejoin="miter" stroke="rgb(100%, 0%, 0%)" stroke-opacity="1" stroke-miterlimit="10" d="M 22.832125 0.00109375 C 22.832125 0.778437 22.203219 1.407344 21.425875 1.407344 C 20.644625 1.407344 20.015719 0.778437 20.015719 0.00109375 C 20.015719 -0.77625 20.644625 -1.409063 21.425875 -1.409063 C 22.203219 -1.409063 22.832125 -0.77625 22.832125 0.00109375 Z M 22.832125 0.00109375 " transform="matrix(1, 0, 0, -1, 15.246, 42.505)"/>
<g fill="rgb(100%, 0%, 0%)" fill-opacity="1">
<use xlink:href="#glyph-0-13" x="13.856" y="6.728"/>
<use xlink:href="#glyph-0-1" x="17.951852" y="6.728"/>
<use xlink:href="#glyph-0-15" x="22.05129" y="6.728"/>
</g>
<g fill="rgb(100%, 0%, 0%)" fill-opacity="1">
<use xlink:href="#glyph-0-3" x="26.911078" y="6.728"/>
<use xlink:href="#glyph-0-1" x="30.494948" y="6.728"/>
<use xlink:href="#glyph-0-4" x="34.594387" y="6.728"/>
<use xlink:href="#glyph-0-8" x="38.198879" y="6.728"/>
<use xlink:href="#glyph-0-4" x="43.318694" y="6.728"/>
<use xlink:href="#glyph-0-5" x="46.923187" y="6.728"/>
<use xlink:href="#glyph-0-9" x="49.483094" y="6.728"/>
</g>
<path fill="none" stroke-width="0.19925" stroke-linecap="butt" stroke-linejoin="miter" stroke="rgb(100%, 0%, 0%)" stroke-opacity="1" stroke-miterlimit="10" d="M 21.375094 1.606562 L 20.398531 33.337031 " transform="matrix(1, 0, 0, -1, 15.246, 42.505)"/>
<path fill="none" stroke-width="0.3985" stroke-linecap="butt" stroke-linejoin="miter" stroke="rgb(100%, 0%, 0%)" stroke-opacity="1" stroke-miterlimit="10" d="M 36.679781 7.993281 C 36.679781 8.770625 36.046969 9.403437 35.269625 9.403437 C 34.492281 9.403437 33.859469 8.770625 33.859469 7.993281 C 33.859469 7.215937 34.492281 6.583125 35.269625 6.583125 C 36.046969 6.583125 36.679781 7.215937 36.679781 7.993281 Z M 36.679781 7.993281 " transform="matrix(1, 0, 0, -1, 15.246, 42.505)"/>
<g fill="rgb(100%, 0%, 0%)" fill-opacity="1">
<use xlink:href="#glyph-0-13" x="81.788" y="12.408"/>
<use xlink:href="#glyph-0-1" x="85.883852" y="12.408"/>
<use xlink:href="#glyph-0-15" x="89.98329" y="12.408"/>
</g>
<g clip-path="url(#clip-1)">
<g fill="rgb(100%, 0%, 0%)" fill-opacity="1">
<use xlink:href="#glyph-0-3" x="94.843078" y="12.408"/>
<use xlink:href="#glyph-0-1" x="98.426948" y="12.408"/>
<use xlink:href="#glyph-0-4" x="102.526387" y="12.408"/>
<use xlink:href="#glyph-0-12" x="106.130879" y="12.408"/>
<use xlink:href="#glyph-0-1" x="109.765858" y="12.408"/>
<use xlink:href="#glyph-0-13" x="113.865296" y="12.408"/>
</g>
</g>
<path fill="none" stroke-width="0.19925" stroke-linecap="butt" stroke-linejoin="miter" stroke="rgb(100%, 0%, 0%)" stroke-opacity="1" stroke-miterlimit="10" d="M 36.707125 8.715937 L 77.859469 29.399531 " transform="matrix(1, 0, 0, -1, 15.246, 42.505)"/>
<path fill="none" stroke-width="0.3985" stroke-linecap="butt" stroke-linejoin="miter" stroke="rgb(100%, 0%, 0%)" stroke-opacity="1" stroke-miterlimit="10" d="M 36.679781 -7.995 C 36.679781 -7.21375 36.046969 -6.584844 35.269625 -6.584844 C 34.492281 -6.584844 33.859469 -7.21375 33.859469 -7.995 C 33.859469 -8.772344 34.492281 -9.40125 35.269625 -9.40125 C 36.046969 -9.40125 36.679781 -8.772344 36.679781 -7.995 Z M 36.679781 -7.995 " transform="matrix(1, 0, 0, -1, 15.246, 42.505)"/>
<g fill="rgb(100%, 0%, 0%)" fill-opacity="1">
<use xlink:href="#glyph-0-13" x="78.537" y="75.741"/>
<use xlink:href="#glyph-0-1" x="82.632852" y="75.741"/>
<use xlink:href="#glyph-0-15" x="86.73229" y="75.741"/>
</g>
<g clip-path="url(#clip-2)">
<g fill="rgb(100%, 0%, 0%)" fill-opacity="1">
<use xlink:href="#glyph-0-3" x="91.592078" y="75.741"/>
<use xlink:href="#glyph-0-1" x="95.175948" y="75.741"/>
<use xlink:href="#glyph-0-4" x="99.275387" y="75.741"/>
<use xlink:href="#glyph-0-3" x="102.879879" y="75.741"/>
<use xlink:href="#glyph-0-1" x="106.463749" y="75.741"/>
<use xlink:href="#glyph-0-4" x="110.563188" y="75.741"/>
<use xlink:href="#glyph-0-3" x="114.16768" y="75.741"/>
</g>
</g>
<path fill="none" stroke-width="0.19925" stroke-linecap="butt" stroke-linejoin="miter" stroke="rgb(100%, 0%, 0%)" stroke-opacity="1" stroke-miterlimit="10" d="M 36.72275 -8.6825 L 75.703219 -27.123906 " transform="matrix(1, 0, 0, -1, 15.246, 42.505)"/>
</svg>
