<?xml version="1.0" encoding="UTF-8"?>
<svg xmlns="http://www.w3.org/2000/svg" xmlns:xlink="http://www.w3.org/1999/xlink" width="116.24pt" height="60.958pt" viewBox="0 0 116.24 60.958">
<defs>
<clipPath id="clip-0">
<path clip-rule="nonzero" d="M 0 0 L 60 0 L 60 60.9375 L 0 60.9375 Z M 0 0 "/>
</clipPath>
<clipPath id="clip-1">
<path clip-rule="nonzero" d="M 56 0 L 115.859375 0 L 115.859375 60.9375 L 56 60.9375 Z M 56 0 "/>
</clipPath>
</defs>
<path fill="none" stroke-width="0.797" stroke-linecap="butt" stroke-linejoin="bevel" stroke="rgb(0%, 0%, 0%)" stroke-opacity="1" stroke-miterlimit="10" d="M -12.064875 12.30375 C -8.775813 12.30375 -6.11175 10.670937 -6.11175 8.651406 C -6.11175 6.635781 -8.775813 5.002969 -12.064875 5.002969 C -13.709406 5.002969 -15.041438 5.667031 -15.041438 6.49125 C -15.041438 7.311562 -13.709406 7.979531 -12.064875 7.979531 C -8.775813 7.979531 -6.11175 6.342812 -6.11175 4.327187 C -6.11175 2.311562 -8.775813 0.674844 -12.064875 0.674844 C -13.709406 0.674844 -15.041438 1.342812 -15.041438 2.163125 C -15.041438 2.983437 -13.709406 3.651406 -12.064875 3.651406 C -8.775813 3.651406 -6.11175 2.014687 -6.11175 -0.0009375 C -6.11175 -2.016563 -8.775813 -3.649375 -12.064875 -3.649375 C -13.709406 -3.649375 -15.041438 -2.985313 -15.041438 -2.165 C -15.041438 -1.340781 -13.709406 -0.676719 -12.064875 -0.676719 C -8.775813 -0.676719 -6.11175 -2.309531 -6.11175 -4.325156 C -6.11175 -6.344688 -8.775813 -7.9775 -12.064875 -7.9775 C -13.709406 -7.9775 -15.041438 -7.309531 -15.041438 -6.489219 C -15.041438 -5.668906 -13.709406 -5.000938 -12.064875 -5.000938 C -8.775813 -5.000938 -6.11175 -6.637656 -6.11175 -8.653281 C -6.11175 -10.668906 -8.775813 -12.305625 -12.064875 -12.305625 " transform="matrix(1, 0, 0, -1, 29.393, 30.96)"/>
<path fill="none" stroke-width="0.797" stroke-linecap="butt" stroke-linejoin="bevel" stroke="rgb(0%, 0%, 0%)" stroke-opacity="1" stroke-miterlimit="10" d="M 12.064031 -12.305625 C 8.778875 -12.305625 6.110906 -10.668906 6.110906 -8.653281 C 6.110906 -6.637656 8.778875 -5.000938 12.064031 -5.000938 C 13.708562 -5.000938 15.040594 -5.668906 15.040594 -6.489219 C 15.040594 -7.313438 13.708562 -7.9775 12.064031 -7.9775 C 8.778875 -7.9775 6.110906 -6.344688 6.110906 -4.325156 C 6.110906 -2.309531 8.778875 -0.676719 12.064031 -0.676719 C 13.708562 -0.676719 15.040594 -1.340781 15.040594 -2.165 C 15.040594 -2.985313 13.708562 -3.653281 12.064031 -3.653281 C 8.778875 -3.653281 6.110906 -2.016563 6.110906 -0.0009375 C 6.110906 2.014687 8.778875 3.651406 12.064031 3.651406 C 13.708562 3.651406 15.040594 2.983437 15.040594 2.163125 C 15.040594 1.342812 13.708562 0.674844 12.064031 0.674844 C 8.778875 0.674844 6.110906 2.311562 6.110906 4.327187 C 6.110906 6.342812 8.778875 7.979531 12.064031 7.979531 C 13.708562 7.979531 15.040594 7.311562 15.040594 6.49125 C 15.040594 5.667031 13.708562 5.002969 12.064031 5.002969 C 8.778875 5.002969 6.110906 6.635781 6.110906 8.651406 C 6.110906 10.670937 8.778875 12.30375 12.064031 12.30375 " transform="matrix(1, 0, 0, -1, 29.393, 30.96)"/>
<g clip-path="url(#clip-0)">
<path fill="none" stroke-width="0.3985" stroke-linecap="butt" stroke-linejoin="miter" stroke="rgb(0%, 0%, 0%)" stroke-opacity="1" stroke-miterlimit="10" d="M -29.764094 29.764687 L -11.904719 29.764687 L -11.904719 11.905312 M -11.904719 -11.907188 L -11.904719 -29.762656 L -29.764094 -29.762656 M 29.76325 29.764687 L 11.903875 29.764687 L 11.903875 11.905312 M 11.903875 -11.907188 L 11.903875 -29.762656 L 29.76325 -29.762656 " transform="matrix(1, 0, 0, -1, 29.393, 30.96)"/>
</g>
<path fill="none" stroke-width="0.797" stroke-linecap="butt" stroke-linejoin="miter" stroke="rgb(0%, 0%, 0%)" stroke-opacity="1" stroke-miterlimit="10" d="M 1.485906 -14.88375 L 1.485906 14.881875 M -1.48675 -14.88375 L -1.48675 14.881875 " transform="matrix(1, 0, 0, -1, 29.393, 30.96)"/>
<path fill="none" stroke-width="0.797" stroke-linecap="butt" stroke-linejoin="bevel" stroke="rgb(0%, 0%, 0%)" stroke-opacity="1" stroke-miterlimit="10" d="M 44.630437 12.30375 C 47.915594 12.30375 50.583562 10.670937 50.583562 8.651406 C 50.583562 6.635781 47.915594 5.002969 44.630437 5.002969 C 42.985906 5.002969 41.653875 5.667031 41.653875 6.49125 C 41.653875 7.311562 42.985906 7.979531 44.630437 7.979531 C 47.915594 7.979531 50.583562 6.342812 50.583562 4.327187 C 50.583562 2.311562 47.915594 0.674844 44.630437 0.674844 C 42.985906 0.674844 41.653875 1.342812 41.653875 2.163125 C 41.653875 2.983437 42.985906 3.651406 44.630437 3.651406 C 47.915594 3.651406 50.583562 2.014687 50.583562 -0.0009375 C 50.583562 -2.016563 47.915594 -3.649375 44.630437 -3.649375 C 42.985906 -3.649375 41.653875 -2.985313 41.653875 -2.165 C 41.653875 -1.340781 42.985906 -0.676719 44.630437 -0.676719 C 47.915594 -0.676719 50.583562 -2.309531 50.583562 -4.325156 C 50.583562 -6.344688 47.915594 -7.9775 44.630437 -7.9775 C 42.985906 -7.9775 41.653875 -7.309531 41.653875 -6.489219 C 41.653875 -5.668906 42.985906 -5.000938 44.630437 -5.000938 C 47.915594 -5.000938 50.583562 -6.637656 50.583562 -8.653281 C 50.583562 -10.668906 47.915594 -12.305625 44.630437 -12.305625 " transform="matrix(1, 0, 0, -1, 29.393, 30.96)"/>
<path fill="none" stroke-width="0.797" stroke-linecap="butt" stroke-linejoin="bevel" stroke="rgb(0%, 0%, 0%)" stroke-opacity="1" stroke-miterlimit="10" d="M 68.759344 -12.305625 C 65.470281 -12.305625 62.806219 -10.668906 62.806219 -8.653281 C 62.806219 -6.637656 65.470281 -5.000938 68.759344 -5.000938 C 70.403875 -5.000938 71.735906 -5.668906 71.735906 -6.489219 C 71.735906 -7.313438 70.403875 -7.9775 68.759344 -7.9775 C 65.470281 -7.9775 62.806219 -6.344688 62.806219 -4.325156 C 62.806219 -2.309531 65.470281 -0.676719 68.759344 -0.676719 C 70.403875 -0.676719 71.735906 -1.340781 71.735906 -2.165 C 71.735906 -2.985313 70.403875 -3.653281 68.759344 -3.653281 C 65.470281 -3.653281 62.806219 -2.016563 62.806219 -0.0009375 C 62.806219 2.014687 65.470281 3.651406 68.759344 3.651406 C 70.403875 3.651406 71.735906 2.983437 71.735906 2.163125 C 71.735906 1.342812 70.403875 0.674844 68.759344 0.674844 C 65.470281 0.674844 62.806219 2.311562 62.806219 4.327187 C 62.806219 6.342812 65.470281 7.979531 68.759344 7.979531 C 70.403875 7.979531 71.735906 7.311562 71.735906 6.49125 C 71.735906 5.667031 70.403875 5.002969 68.759344 5.002969 C 65.470281 5.002969 62.806219 6.635781 62.806219 8.651406 C 62.806219 10.670937 65.470281 12.30375 68.759344 12.30375 " transform="matrix(1, 0, 0, -1, 29.393, 30.96)"/>
<g clip-path="url(#clip-1)">
<path fill="none" stroke-width="0.3985" stroke-linecap="butt" stroke-linejoin="miter" stroke="rgb(0%, 0%, 0%)" stroke-opacity="1" stroke-miterlimit="10" d="M 26.931219 29.764687 L 44.786687 29.764687 L 44.786687 11.905312 M 44.786687 -11.907188 L 44.786687 -29.762656 L 26.931219 -29.762656 M 86.458562 29.764687 L 68.599187 29.764687 L 68.599187 11.905312 M 68.599187 -11.907188 L 68.599187 -29.762656 L 86.458562 -29.762656 " transform="matrix(1, 0, 0, -1, 29.393, 30.96)"/>
</g>
<path fill="none" stroke-width="1.59401" stroke-linecap="butt" stroke-linejoin="miter" stroke="rgb(100%, 0%, 0%)" stroke-opacity="1" stroke-dasharray="3.9851 1.99255" stroke-miterlimit="10" d="M 58.181219 -14.88375 L 58.181219 14.881875 M 55.204656 -14.88375 L 55.204656 14.881875 " transform="matrix(1, 0, 0, -1, 29.393, 30.96)"/>
</svg>
