<?xml version="1.0" encoding="UTF-8"?>
<svg xmlns="http://www.w3.org/2000/svg" xmlns:xlink="http://www.w3.org/1999/xlink" width="56.712pt" height="20.404pt" viewBox="0 0 56.712 20.404">
<defs>
<clipPath id="clip-0">
<path clip-rule="nonzero" d="M 0 9 L 56.566406 9 L 56.566406 10 L 0 10 Z M 0 9 "/>
</clipPath>
<clipPath id="clip-1">
<path clip-rule="nonzero" d="M 1 0 L 56 0 L 56 20.105469 L 1 20.105469 Z M 1 0 "/>
</clipPath>
</defs>
<g clip-path="url(#clip-0)">
<path fill="none" stroke-width="0.3985" stroke-linecap="butt" stroke-linejoin="miter" stroke="rgb(0%, 0%, 0%)" stroke-opacity="1" stroke-miterlimit="10" d="M -0.00171875 -0.00090625 L 12.470938 -0.00090625 M 44.220938 -0.00090625 L 56.693594 -0.00090625 " transform="matrix(1, 0, 0, -1, -0.135, 9.503)"/>
</g>
<path fill-rule="nonzero" fill="rgb(70.001221%, 90.351868%, 98.118591%)" fill-opacity="1" stroke-width="0.797" stroke-linecap="butt" stroke-linejoin="miter" stroke="rgb(0%, 0%, 0%)" stroke-opacity="1" stroke-miterlimit="10" d="M 12.470938 5.944406 L 44.220938 5.944406 L 44.220938 -5.946219 L 12.470938 -5.946219 Z M 12.470938 5.944406 " transform="matrix(1, 0, 0, -1, -0.135, 9.503)"/>
<g clip-path="url(#clip-1)">
<path fill="none" stroke-width="0.797" stroke-linecap="butt" stroke-linejoin="miter" stroke="rgb(0%, 0%, 0%)" stroke-opacity="1" stroke-miterlimit="10" d="M 44.220938 8.491281 L 21.998281 -10.192313 L 12.470938 -10.192313 " transform="matrix(1, 0, 0, -1, -0.135, 9.503)"/>
</g>
</svg>
