<?xml version="1.0" encoding="UTF-8"?>
<svg xmlns="http://www.w3.org/2000/svg" xmlns:xlink="http://www.w3.org/1999/xlink" width="85.058pt" height="70.858pt" viewBox="0 0 85.058 70.858">
<defs>
<clipPath id="clip-0">
<path clip-rule="nonzero" d="M 0 11 L 84.585938 11 L 84.585938 12 L 0 12 Z M 0 11 "/>
</clipPath>
<clipPath id="clip-1">
<path clip-rule="nonzero" d="M 0 0 L 84.585938 0 L 84.585938 57 L 0 57 Z M 0 0 "/>
</clipPath>
<clipPath id="clip-2">
<path clip-rule="nonzero" d="M 52 0 L 84.585938 0 L 84.585938 23 L 52 23 Z M 52 0 "/>
</clipPath>
<clipPath id="clip-3">
<path clip-rule="nonzero" d="M 0 67 L 84.585938 67 L 84.585938 69 L 0 69 Z M 0 67 "/>
</clipPath>
<clipPath id="clip-4">
<path clip-rule="nonzero" d="M 0 49 L 30 49 L 30 70.785156 L 0 70.785156 Z M 0 49 "/>
</clipPath>
<clipPath id="clip-5">
<path clip-rule="nonzero" d="M 13 66 L 17 66 L 17 70.785156 L 13 70.785156 Z M 13 66 "/>
</clipPath>
<clipPath id="clip-6">
<path clip-rule="nonzero" d="M 0 20 L 84.585938 20 L 84.585938 70.785156 L 0 70.785156 Z M 0 20 "/>
</clipPath>
<clipPath id="clip-7">
<path clip-rule="nonzero" d="M 34 53 L 50 53 L 50 70.785156 L 34 70.785156 Z M 34 53 "/>
</clipPath>
<clipPath id="clip-8">
<path clip-rule="nonzero" d="M 24 60 L 40 60 L 40 70.785156 L 24 70.785156 Z M 24 60 "/>
</clipPath>
<clipPath id="clip-9">
<path clip-rule="nonzero" d="M 44 60 L 60 60 L 60 70.785156 L 44 70.785156 Z M 44 60 "/>
</clipPath>
<clipPath id="clip-10">
<path clip-rule="nonzero" d="M 52 49 L 84.585938 49 L 84.585938 70.785156 L 52 70.785156 Z M 52 49 "/>
</clipPath>
</defs>
<g clip-path="url(#clip-0)">
<path fill="none" stroke-width="0.3985" stroke-linecap="butt" stroke-linejoin="miter" stroke="rgb(0%, 0%, 0%)" stroke-opacity="1" stroke-miterlimit="10" d="M 0.0010625 56.692813 L 7.227625 56.692813 M 21.11825 56.692813 L 32.598719 56.692813 M 52.442469 56.692813 L 63.922938 56.692813 M 77.813563 56.692813 L 85.040125 56.692813 " transform="matrix(1, 0, 0, -1, -0.462, 67.935)"/>
</g>
<path fill="none" stroke-width="0.797" stroke-linecap="butt" stroke-linejoin="miter" stroke="rgb(0%, 0%, 0%)" stroke-opacity="1" stroke-miterlimit="10" d="M 7.227625 56.692813 L 18.340906 63.638125 " transform="matrix(1, 0, 0, -1, -0.462, 67.935)"/>
<path fill="none" stroke-width="0.797" stroke-linecap="butt" stroke-linejoin="bevel" stroke="rgb(0%, 0%, 0%)" stroke-opacity="1" stroke-miterlimit="10" d="M 7.227625 65.02875 C 10.204188 65.02875 12.958094 63.438906 14.446375 60.860781 C 15.1495 59.638125 15.5245 58.274844 15.559656 56.895938 " transform="matrix(1, 0, 0, -1, -0.462, 67.935)"/>
<path fill-rule="nonzero" fill="rgb(0%, 0%, 0%)" fill-opacity="1" d="M 14.597656 14.09375 C 14.90625 12.808594 15.511719 10.496094 16.734375 8.988281 C 15.261719 10.230469 14.226562 10.191406 12.851562 8.839844 C 13.957031 10.4375 14.386719 12.789062 14.597656 14.09375 Z M 14.597656 14.09375 "/>
<g clip-path="url(#clip-1)">
<path fill="none" stroke-width="3.17429" stroke-linecap="round" stroke-linejoin="miter" stroke="rgb(0%, 0%, 0%)" stroke-opacity="1" stroke-miterlimit="10" d="M 32.598719 56.692813 L 52.442469 59.075625 " transform="matrix(1, 0, 0, -1, -0.462, 67.935)"/>
</g>
<path fill="none" stroke-width="0.797" stroke-linecap="butt" stroke-linejoin="miter" stroke="rgb(0%, 0%, 0%)" stroke-opacity="1" stroke-miterlimit="10" d="M 44.325281 54.626406 C 45.008875 58.513125 43.719813 62.415469 41.016688 65.114688 " transform="matrix(1, 0, 0, -1, -0.462, 67.935)"/>
<path fill-rule="nonzero" fill="rgb(0%, 0%, 0%)" fill-opacity="1" d="M 38.089844 0.929688 C 38.871094 1.996094 40.238281 3.953125 40.597656 5.863281 C 40.605469 3.9375 41.304688 3.171875 43.222656 2.996094 C 41.289062 2.808594 39.21875 1.613281 38.089844 0.929688 Z M 38.089844 0.929688 "/>
<path fill-rule="nonzero" fill="rgb(100%, 100%, 100%)" fill-opacity="1" stroke-width="0.3985" stroke-linecap="butt" stroke-linejoin="miter" stroke="rgb(0%, 0%, 0%)" stroke-opacity="1" stroke-miterlimit="10" d="M 34.184656 56.692813 C 34.184656 57.571719 33.473719 58.282656 32.598719 58.282656 C 31.723719 58.282656 31.012781 57.571719 31.012781 56.692813 C 31.012781 55.817813 31.723719 55.106875 32.598719 55.106875 C 33.473719 55.106875 34.184656 55.817813 34.184656 56.692813 Z M 34.184656 56.692813 " transform="matrix(1, 0, 0, -1, -0.462, 67.935)"/>
<path fill-rule="nonzero" fill="rgb(100%, 100%, 100%)" fill-opacity="1" stroke-width="0.3985" stroke-linecap="butt" stroke-linejoin="miter" stroke="rgb(0%, 0%, 0%)" stroke-opacity="1" stroke-miterlimit="10" d="M 54.028406 56.692813 C 54.028406 57.571719 53.317469 58.282656 52.442469 58.282656 C 51.563563 58.282656 50.852625 57.571719 50.852625 56.692813 C 50.852625 55.817813 51.563563 55.106875 52.442469 55.106875 C 53.317469 55.106875 54.028406 55.817813 54.028406 56.692813 Z M 54.028406 56.692813 " transform="matrix(1, 0, 0, -1, -0.462, 67.935)"/>
<g clip-path="url(#clip-2)">
<path fill="none" stroke-width="0.797" stroke-linecap="butt" stroke-linejoin="miter" stroke="rgb(0%, 0%, 0%)" stroke-opacity="1" stroke-miterlimit="10" d="M 63.922938 56.692813 L 77.11825 63.638125 " transform="matrix(1, 0, 0, -1, -0.462, 67.935)"/>
</g>
<path fill="none" stroke-width="0.3985" stroke-linecap="butt" stroke-linejoin="miter" stroke="rgb(0%, 0%, 0%)" stroke-opacity="1" stroke-miterlimit="10" d="M 77.813563 56.692813 L 72.254969 56.692813 L 72.254969 63.638125 " transform="matrix(1, 0, 0, -1, -0.462, 67.935)"/>
<path fill="none" stroke-width="0.797" stroke-linecap="butt" stroke-linejoin="bevel" stroke="rgb(0%, 0%, 0%)" stroke-opacity="1" stroke-miterlimit="10" d="M 70.079188 55.606875 C 70.465906 57.806094 69.6495 60.048281 67.938563 61.481875 C 67.477625 61.8725 66.962 62.185 66.419031 62.423281 " transform="matrix(1, 0, 0, -1, -0.462, 67.935)"/>
<path fill-rule="nonzero" fill="rgb(0%, 0%, 0%)" fill-opacity="1" d="M 62.914062 5.015625 C 64.058594 5.675781 66.101562 6.914062 67.199219 8.515625 C 66.429688 6.75 66.761719 5.769531 68.445312 4.835938 C 66.597656 5.441406 64.226562 5.183594 62.914062 5.015625 Z M 62.914062 5.015625 "/>
<g clip-path="url(#clip-3)">
<path fill="none" stroke-width="0.3985" stroke-linecap="butt" stroke-linejoin="miter" stroke="rgb(0%, 0%, 0%)" stroke-opacity="1" stroke-miterlimit="10" d="M 0.0010625 0.00140625 L 7.227625 0.00140625 M 21.11825 0.00140625 L 32.598719 0.00140625 M 52.442469 0.00140625 L 63.922938 0.00140625 M 77.813563 0.00140625 L 85.040125 0.00140625 " transform="matrix(1, 0, 0, -1, -0.462, 67.935)"/>
</g>
<g clip-path="url(#clip-4)">
<path fill="none" stroke-width="0.797" stroke-linecap="butt" stroke-linejoin="miter" stroke="rgb(0%, 0%, 0%)" stroke-opacity="1" stroke-miterlimit="10" d="M 7.227625 0.00140625 L 18.340906 6.946719 " transform="matrix(1, 0, 0, -1, -0.462, 67.935)"/>
</g>
<path fill="none" stroke-width="0.3985" stroke-linecap="butt" stroke-linejoin="bevel" stroke="rgb(100%, 0%, 0%)" stroke-opacity="1" stroke-dasharray="0.99628 0.99628" stroke-miterlimit="10" d="M 7.227625 8.333438 C 10.204188 8.333438 12.958094 6.743594 14.446375 4.165469 C 15.2745 2.731875 15.645594 1.102969 15.547938 -0.514219 " transform="matrix(1, 0, 0, -1, -0.462, 67.935)"/>
<g clip-path="url(#clip-5)">
<path fill-rule="nonzero" fill="rgb(100%, 0%, 0%)" fill-opacity="1" d="M 14.597656 70.785156 C 14.90625 69.816406 15.496094 68.078125 16.519531 66.988281 C 15.320312 67.859375 14.527344 67.769531 13.546875 66.660156 C 14.308594 67.949219 14.507812 69.773438 14.597656 70.785156 Z M 14.597656 70.785156 "/>
</g>
<g clip-path="url(#clip-6)">
<path fill="none" stroke-width="3.17429" stroke-linecap="round" stroke-linejoin="miter" stroke="rgb(0%, 0%, 0%)" stroke-opacity="1" stroke-miterlimit="10" d="M 32.598719 0.00140625 L 52.442469 2.380313 " transform="matrix(1, 0, 0, -1, -0.462, 67.935)"/>
</g>
<g clip-path="url(#clip-7)">
<path fill="none" stroke-width="0.3985" stroke-linecap="butt" stroke-linejoin="miter" stroke="rgb(100%, 0%, 0%)" stroke-opacity="1" stroke-miterlimit="10" d="M 44.325281 -2.068906 C 45.051844 2.063906 43.547938 6.208438 40.49325 8.915469 " transform="matrix(1, 0, 0, -1, -0.462, 67.935)"/>
</g>
<path fill-rule="nonzero" fill="rgb(100%, 0%, 0%)" fill-opacity="1" d="M 38.089844 57.625 C 38.730469 58.414062 39.859375 59.863281 40.207031 61.316406 C 40.136719 59.835938 40.648438 59.222656 42.113281 59.011719 C 40.621094 58.941406 38.984375 58.105469 38.089844 57.625 Z M 38.089844 57.625 "/>
<path fill-rule="nonzero" fill="rgb(100%, 100%, 100%)" fill-opacity="1" d="M 33.722656 67.933594 C 33.722656 67.058594 33.011719 66.347656 32.136719 66.347656 C 31.261719 66.347656 30.550781 67.058594 30.550781 67.933594 C 30.550781 68.8125 31.261719 69.523438 32.136719 69.523438 C 33.011719 69.523438 33.722656 68.8125 33.722656 67.933594 Z M 33.722656 67.933594 "/>
<g clip-path="url(#clip-8)">
<path fill="none" stroke-width="0.3985" stroke-linecap="butt" stroke-linejoin="miter" stroke="rgb(0%, 0%, 0%)" stroke-opacity="1" stroke-miterlimit="10" d="M 34.184656 0.00140625 C 34.184656 0.876406 33.473719 1.587344 32.598719 1.587344 C 31.723719 1.587344 31.012781 0.876406 31.012781 0.00140625 C 31.012781 -0.8775 31.723719 -1.588437 32.598719 -1.588437 C 33.473719 -1.588437 34.184656 -0.8775 34.184656 0.00140625 Z M 34.184656 0.00140625 " transform="matrix(1, 0, 0, -1, -0.462, 67.935)"/>
</g>
<path fill-rule="nonzero" fill="rgb(100%, 100%, 100%)" fill-opacity="1" d="M 53.566406 67.933594 C 53.566406 67.058594 52.855469 66.347656 51.980469 66.347656 C 51.101562 66.347656 50.390625 67.058594 50.390625 67.933594 C 50.390625 68.8125 51.101562 69.523438 51.980469 69.523438 C 52.855469 69.523438 53.566406 68.8125 53.566406 67.933594 Z M 53.566406 67.933594 "/>
<g clip-path="url(#clip-9)">
<path fill="none" stroke-width="0.3985" stroke-linecap="butt" stroke-linejoin="miter" stroke="rgb(0%, 0%, 0%)" stroke-opacity="1" stroke-miterlimit="10" d="M 54.028406 0.00140625 C 54.028406 0.876406 53.317469 1.587344 52.442469 1.587344 C 51.563563 1.587344 50.852625 0.876406 50.852625 0.00140625 C 50.852625 -0.8775 51.563563 -1.588437 52.442469 -1.588437 C 53.317469 -1.588437 54.028406 -0.8775 54.028406 0.00140625 Z M 54.028406 0.00140625 " transform="matrix(1, 0, 0, -1, -0.462, 67.935)"/>
</g>
<g clip-path="url(#clip-10)">
<path fill="none" stroke-width="0.797" stroke-linecap="butt" stroke-linejoin="miter" stroke="rgb(0%, 0%, 0%)" stroke-opacity="1" stroke-miterlimit="10" d="M 63.922938 0.00140625 L 77.11825 6.946719 " transform="matrix(1, 0, 0, -1, -0.462, 67.935)"/>
</g>
<path fill="none" stroke-width="0.3985" stroke-linecap="butt" stroke-linejoin="miter" stroke="rgb(0%, 0%, 0%)" stroke-opacity="1" stroke-miterlimit="10" d="M 77.813563 0.00140625 L 72.254969 0.00140625 L 72.254969 6.946719 " transform="matrix(1, 0, 0, -1, -0.462, 67.935)"/>
<path fill="none" stroke-width="0.3985" stroke-linecap="butt" stroke-linejoin="bevel" stroke="rgb(0%, 0%, 100%)" stroke-opacity="1" stroke-dasharray="0.99628 0.99628" stroke-miterlimit="10" d="M 70.079188 -1.084531 C 70.465906 1.114688 69.6495 3.352969 67.938563 4.786563 C 67.290125 5.333438 66.540125 5.735781 65.74325 5.977969 " transform="matrix(1, 0, 0, -1, -0.462, 67.935)"/>
<path fill-rule="nonzero" fill="rgb(0%, 0%, 100%)" fill-opacity="1" d="M 62.914062 61.707031 C 63.839844 62.132812 65.492188 62.929688 66.449219 64.078125 C 65.730469 62.785156 65.914062 62.007812 67.136719 61.171875 C 65.765625 61.769531 63.929688 61.742188 62.914062 61.707031 Z M 62.914062 61.707031 "/>
</svg>
