<?xml version="1.0" encoding="UTF-8"?>
<svg xmlns="http://www.w3.org/2000/svg" xmlns:xlink="http://www.w3.org/1999/xlink" width="18.675pt" height="17.488pt" viewBox="0 0 18.675 17.488">
<defs>
<clipPath id="clip-0">
<path clip-rule="nonzero" d="M 2 12 L 16 12 L 16 17.230469 L 2 17.230469 Z M 2 12 "/>
</clipPath>
<clipPath id="clip-1">
<path clip-rule="nonzero" d="M 0 0 L 18.511719 0 L 18.511719 17.230469 L 0 17.230469 Z M 0 0 "/>
</clipPath>
</defs>
<path fill="none" stroke-width="0.3985" stroke-linecap="butt" stroke-linejoin="miter" stroke="rgb(0%, 0%, 0%)" stroke-opacity="1" stroke-miterlimit="10" d="M 0.00128125 0.00159375 L 0.00128125 -11.904656 " transform="matrix(1, 0, 0, -1, 9.1745, 0.943)"/>
<g clip-path="url(#clip-0)">
<path fill="none" stroke-width="0.797" stroke-linecap="butt" stroke-linejoin="miter" stroke="rgb(0%, 0%, 0%)" stroke-opacity="1" stroke-miterlimit="10" d="M -5.951844 -11.904656 L 5.954406 -11.904656 M -3.967469 -13.889031 L 3.970031 -13.889031 M -2.479188 -15.873406 L 2.48175 -15.873406 " transform="matrix(1, 0, 0, -1, 9.1745, 0.943)"/>
</g>
<g clip-path="url(#clip-1)">
<path fill="none" stroke-width="0.797" stroke-linecap="butt" stroke-linejoin="miter" stroke="rgb(0%, 0%, 0%)" stroke-opacity="1" stroke-miterlimit="10" d="M 8.930969 -15.873406 C 8.930969 -10.943719 4.930969 -6.943719 0.00128125 -6.943719 C -4.932313 -6.943719 -8.928406 -10.943719 -8.928406 -15.873406 " transform="matrix(1, 0, 0, -1, 9.1745, 0.943)"/>
</g>
</svg>
