<?xml version="1.0" encoding="UTF-8"?>
<svg xmlns="http://www.w3.org/2000/svg" xmlns:xlink="http://www.w3.org/1999/xlink" width="56.712pt" height="25.609pt" viewBox="0 0 56.712 25.609">
<defs>
<clipPath id="clip-0">
<path clip-rule="nonzero" d="M 0 12 L 56.566406 12 L 56.566406 14 L 0 14 Z M 0 12 "/>
</clipPath>
<clipPath id="clip-1">
<path clip-rule="nonzero" d="M 4 1 L 53 1 L 53 25.414062 L 4 25.414062 Z M 4 1 "/>
</clipPath>
<clipPath id="clip-2">
<path clip-rule="nonzero" d="M 4 0 L 53 0 L 53 25.414062 L 4 25.414062 Z M 4 0 "/>
</clipPath>
<clipPath id="clip-3">
<path clip-rule="nonzero" d="M 40 1 L 53 1 L 53 25.414062 L 40 25.414062 Z M 40 1 "/>
</clipPath>
<clipPath id="clip-4">
<path clip-rule="nonzero" d="M 28 0 L 56.566406 0 L 56.566406 25.414062 L 28 25.414062 Z M 28 0 "/>
</clipPath>
</defs>
<g clip-path="url(#clip-0)">
<path fill="none" stroke-width="0.3985" stroke-linecap="butt" stroke-linejoin="miter" stroke="rgb(0%, 0%, 0%)" stroke-opacity="1" stroke-miterlimit="10" d="M -0.00171875 0.000125 L 4.537344 0.000125 M 52.158438 0.000125 L 56.693594 0.000125 " transform="matrix(1, 0, 0, -1, -0.135, 13.1095)"/>
</g>
<g clip-path="url(#clip-1)">
<path fill-rule="nonzero" fill="rgb(70.001221%, 90.351868%, 98.118591%)" fill-opacity="1" d="M 52.023438 1.203125 L 52.023438 25.015625 L 4.402344 25.015625 L 4.402344 1.203125 Z M 52.023438 1.203125 "/>
</g>
<g clip-path="url(#clip-2)">
<path fill="none" stroke-width="0.797" stroke-linecap="butt" stroke-linejoin="miter" stroke="rgb(0%, 0%, 0%)" stroke-opacity="1" stroke-miterlimit="10" d="M 52.158438 11.906375 L 52.158438 -11.906125 L 4.537344 -11.906125 L 4.537344 11.906375 Z M 52.158438 11.906375 " transform="matrix(1, 0, 0, -1, -0.135, 13.1095)"/>
</g>
<g clip-path="url(#clip-3)">
<path fill-rule="nonzero" fill="rgb(70.001221%, 90.351868%, 98.118591%)" fill-opacity="1" d="M 52.023438 1.203125 L 40.117188 13.109375 L 52.023438 25.015625 M 52.023438 1.203125 L 52.023438 25.015625 "/>
</g>
<g clip-path="url(#clip-4)">
<path fill="none" stroke-width="0.797" stroke-linecap="butt" stroke-linejoin="miter" stroke="rgb(0%, 0%, 0%)" stroke-opacity="1" stroke-miterlimit="10" d="M 52.158438 11.906375 L 40.252188 0.000125 L 52.158438 -11.906125 M 52.158438 11.906375 L 52.158438 -11.906125 " transform="matrix(1, 0, 0, -1, -0.135, 13.1095)"/>
</g>
</svg>
