<?xml version="1.0" encoding="UTF-8"?>
<svg xmlns="http://www.w3.org/2000/svg" xmlns:xlink="http://www.w3.org/1999/xlink" width="192.711" height="246.178" viewBox="0 0 192.711 246.178">
<defs>
<g>
<g id="glyph-0-0">
<path d="M 6.75 -0.796875 C 6.75 -0.859375 6.75 -0.953125 6.625 -0.953125 C 6.5 -0.953125 6.5 -0.875 6.5 -0.8125 C 6.453125 -0.234375 6.171875 -0.03125 5.890625 -0.03125 C 5.609375 -0.03125 5.5 -0.203125 5.4375 -0.359375 C 5.359375 -0.5625 5.28125 -1.171875 5.21875 -1.5625 C 5.140625 -2.125 5.0625 -2.71875 4.078125 -3.046875 C 4.921875 -3.28125 5.625 -3.8125 5.625 -4.515625 C 5.625 -5.40625 4.53125 -6.125 3.21875 -6.125 L 0.359375 -6.125 L 0.359375 -5.84375 L 0.5625 -5.84375 C 1.25 -5.84375 1.28125 -5.75 1.28125 -5.421875 L 1.28125 -0.703125 C 1.28125 -0.375 1.25 -0.28125 0.5625 -0.28125 L 0.359375 -0.28125 L 0.359375 0 C 0.78125 -0.03125 1.234375 -0.03125 1.65625 -0.03125 C 2.09375 -0.03125 2.53125 -0.03125 2.96875 0 L 2.96875 -0.28125 L 2.765625 -0.28125 C 2.078125 -0.28125 2.046875 -0.375 2.046875 -0.703125 L 2.046875 -2.953125 L 3.125 -2.953125 C 3.78125 -2.953125 4.0625 -2.609375 4.09375 -2.578125 C 4.375 -2.25 4.375 -2.109375 4.375 -1.46875 C 4.375 -0.875 4.375 -0.46875 4.796875 -0.140625 C 5.21875 0.203125 5.765625 0.203125 5.859375 0.203125 C 6.609375 0.203125 6.75 -0.578125 6.75 -0.796875 Z M 4.703125 -4.515625 C 4.703125 -3.734375 4.3125 -3.171875 3.09375 -3.171875 L 2.046875 -3.171875 L 2.046875 -5.484375 C 2.046875 -5.71875 2.078125 -5.796875 2.25 -5.828125 C 2.328125 -5.84375 2.609375 -5.84375 2.796875 -5.84375 C 3.5625 -5.84375 4.703125 -5.84375 4.703125 -4.515625 Z M 4.703125 -4.515625 "/>
</g>
<g id="glyph-0-1">
<path d="M 6.703125 0.078125 C 6.703125 0 6.703125 -0.109375 6.578125 -0.109375 C 6.515625 -0.109375 6.484375 -0.046875 6.46875 -0.015625 C 6.40625 0.765625 5.796875 0.828125 5.65625 0.828125 C 5.171875 0.828125 4.984375 0.4375 4.765625 -0.0625 C 5.734375 -0.453125 6.640625 -1.5625 6.640625 -3.046875 C 6.640625 -4.875 5.25 -6.328125 3.578125 -6.328125 C 1.90625 -6.328125 0.515625 -4.859375 0.515625 -3.046875 C 0.515625 -1.21875 1.90625 0.203125 3.578125 0.203125 C 3.890625 0.203125 4.234375 0.140625 4.453125 0.078125 C 4.609375 0.953125 4.75 1.734375 5.578125 1.734375 C 6.515625 1.734375 6.703125 0.53125 6.703125 0.078125 Z M 5.765625 -3.046875 C 5.765625 -1.859375 5.40625 -0.90625 4.625 -0.390625 C 4.453125 -0.828125 4.171875 -1.34375 3.59375 -1.34375 C 3.140625 -1.34375 2.828125 -0.984375 2.828125 -0.578125 C 2.828125 -0.359375 2.9375 -0.171875 2.9375 -0.171875 C 2.0625 -0.515625 1.40625 -1.4375 1.40625 -3.046875 C 1.40625 -5.265625 2.640625 -6.078125 3.578125 -6.078125 C 4.515625 -6.078125 5.765625 -5.28125 5.765625 -3.046875 Z M 4.375 -0.234375 C 4.109375 -0.109375 3.8125 -0.046875 3.578125 -0.046875 C 3.140625 -0.046875 3.046875 -0.4375 3.046875 -0.578125 C 3.046875 -0.84375 3.25 -1.109375 3.59375 -1.109375 C 4.078125 -1.109375 4.265625 -0.734375 4.375 -0.234375 Z M 4.375 -0.234375 "/>
</g>
<g id="glyph-0-2">
<path d="M 6.140625 -2.078125 C 6.140625 -2.171875 6.140625 -2.25 6.015625 -2.25 C 5.890625 -2.25 5.890625 -2.1875 5.890625 -2.109375 C 5.8125 -0.75 4.734375 -0.078125 3.8125 -0.078125 C 3.046875 -0.078125 1.421875 -0.5625 1.421875 -3.0625 C 1.421875 -5.5625 3.0625 -6.046875 3.796875 -6.046875 C 4.6875 -6.046875 5.625 -5.375 5.84375 -3.921875 C 5.859375 -3.796875 5.875 -3.765625 5.984375 -3.765625 C 6.140625 -3.765625 6.140625 -3.796875 6.140625 -3.984375 L 6.140625 -6.09375 C 6.140625 -6.25 6.140625 -6.328125 6.03125 -6.328125 C 5.96875 -6.328125 5.9375 -6.296875 5.890625 -6.21875 L 5.421875 -5.546875 C 5.140625 -5.828125 4.625 -6.328125 3.71875 -6.328125 C 1.984375 -6.328125 0.515625 -4.875 0.515625 -3.0625 C 0.515625 -1.21875 2 0.203125 3.71875 0.203125 C 5.203125 0.203125 6.140625 -1.03125 6.140625 -2.078125 Z M 6.140625 -2.078125 "/>
</g>
<g id="glyph-0-3">
<path d="M 5.75 -4.453125 C 5.75 -5.34375 4.828125 -6.125 3.578125 -6.125 L 0.359375 -6.125 L 0.359375 -5.84375 L 0.5625 -5.84375 C 1.25 -5.84375 1.28125 -5.75 1.28125 -5.421875 L 1.28125 -0.703125 C 1.28125 -0.375 1.25 -0.28125 0.5625 -0.28125 L 0.359375 -0.28125 L 0.359375 0 C 0.765625 -0.03125 1.265625 -0.03125 1.671875 -0.03125 C 2.09375 -0.03125 2.59375 -0.03125 3 0 L 3 -0.28125 L 2.796875 -0.28125 C 2.09375 -0.28125 2.078125 -0.375 2.078125 -0.703125 L 2.078125 -2.8125 L 3.578125 -2.8125 C 4.828125 -2.8125 5.75 -3.59375 5.75 -4.453125 Z M 4.828125 -4.453125 C 4.828125 -4.046875 4.828125 -3.0625 3.34375 -3.0625 L 2.046875 -3.0625 L 2.046875 -5.484375 C 2.046875 -5.78125 2.078125 -5.84375 2.5 -5.84375 L 3.359375 -5.84375 C 4.828125 -5.84375 4.828125 -4.859375 4.828125 -4.453125 Z M 4.828125 -4.453125 "/>
</g>
<g id="glyph-0-4">
<path d="M 4.59375 -1.65625 C 4.59375 -2.171875 4.40625 -2.5625 4.203125 -2.828125 C 3.8125 -3.328125 3.40625 -3.421875 2.828125 -3.5625 L 2.03125 -3.75 C 1.3125 -3.921875 1.078125 -4.5 1.078125 -4.890625 C 1.078125 -5.5 1.5625 -6.078125 2.328125 -6.078125 C 3.484375 -6.078125 3.953125 -5.203125 4.078125 -4.3125 C 4.09375 -4.140625 4.109375 -4.09375 4.21875 -4.09375 C 4.34375 -4.09375 4.34375 -4.15625 4.34375 -4.34375 L 4.34375 -6.078125 C 4.34375 -6.25 4.34375 -6.328125 4.234375 -6.328125 C 4.171875 -6.328125 4.15625 -6.3125 4.09375 -6.203125 C 3.984375 -6.046875 4.078125 -6.15625 3.78125 -5.6875 C 3.625 -5.875 3.15625 -6.328125 2.3125 -6.328125 C 1.265625 -6.328125 0.515625 -5.5 0.515625 -4.59375 C 0.515625 -3.890625 0.9375 -3.46875 0.984375 -3.421875 C 1.375 -3.015625 1.546875 -2.984375 2.609375 -2.71875 C 3.34375 -2.5625 3.421875 -2.53125 3.71875 -2.234375 C 3.71875 -2.234375 4.03125 -1.890625 4.03125 -1.359375 C 4.03125 -0.75 3.59375 -0.078125 2.765625 -0.078125 C 2.078125 -0.078125 0.828125 -0.375 0.765625 -1.84375 C 0.75 -1.984375 0.75 -2.03125 0.640625 -2.03125 C 0.515625 -2.03125 0.515625 -1.96875 0.515625 -1.78125 L 0.515625 -0.046875 C 0.515625 0.125 0.515625 0.203125 0.625 0.203125 C 0.6875 0.203125 0.6875 0.1875 0.75 0.078125 C 0.875 -0.078125 0.78125 0.03125 1.078125 -0.4375 C 1.625 0.109375 2.34375 0.203125 2.78125 0.203125 C 3.875 0.203125 4.59375 -0.703125 4.59375 -1.65625 Z M 4.59375 -1.65625 "/>
</g>
<g id="glyph-1-0">
<path d="M 4.96875 -1.859375 C 4.96875 -2.84375 4.3125 -3.671875 3.484375 -3.875 L 2.203125 -4.171875 C 1.578125 -4.328125 1.203125 -4.859375 1.203125 -5.4375 C 1.203125 -6.140625 1.734375 -6.75 2.515625 -6.75 C 4.171875 -6.75 4.390625 -5.109375 4.453125 -4.671875 C 4.46875 -4.609375 4.46875 -4.546875 4.578125 -4.546875 C 4.703125 -4.546875 4.703125 -4.59375 4.703125 -4.78125 L 4.703125 -6.78125 C 4.703125 -6.953125 4.703125 -7.03125 4.59375 -7.03125 C 4.53125 -7.03125 4.515625 -7.015625 4.453125 -6.890625 L 4.09375 -6.328125 C 3.796875 -6.625 3.390625 -7.03125 2.5 -7.03125 C 1.390625 -7.03125 0.5625 -6.15625 0.5625 -5.09375 C 0.5625 -4.265625 1.09375 -3.53125 1.859375 -3.265625 C 1.96875 -3.234375 2.484375 -3.109375 3.1875 -2.9375 C 3.453125 -2.875 3.75 -2.796875 4.03125 -2.4375 C 4.234375 -2.171875 4.34375 -1.84375 4.34375 -1.515625 C 4.34375 -0.8125 3.84375 -0.09375 3 -0.09375 C 2.71875 -0.09375 1.953125 -0.140625 1.421875 -0.625 C 0.84375 -1.171875 0.8125 -1.796875 0.8125 -2.15625 C 0.796875 -2.265625 0.71875 -2.265625 0.6875 -2.265625 C 0.5625 -2.265625 0.5625 -2.1875 0.5625 -2.015625 L 0.5625 -0.015625 C 0.5625 0.15625 0.5625 0.21875 0.671875 0.21875 C 0.734375 0.21875 0.75 0.203125 0.8125 0.09375 C 0.8125 0.09375 0.84375 0.046875 1.171875 -0.484375 C 1.484375 -0.140625 2.125 0.21875 3.015625 0.21875 C 4.171875 0.21875 4.96875 -0.75 4.96875 -1.859375 Z M 4.96875 -1.859375 "/>
</g>
<g id="glyph-1-1">
<path d="M 7.296875 -0.875 C 7.296875 -0.9375 7.296875 -1.046875 7.171875 -1.046875 C 7.0625 -1.046875 7.0625 -0.953125 7.046875 -0.890625 C 6.984375 -0.171875 6.640625 0 6.390625 0 C 5.90625 0 5.828125 -0.515625 5.6875 -1.4375 L 5.546875 -2.234375 C 5.375 -2.875 4.890625 -3.203125 4.34375 -3.390625 C 5.296875 -3.625 6.078125 -4.234375 6.078125 -5.015625 C 6.078125 -5.96875 4.9375 -6.8125 3.484375 -6.8125 L 0.34375 -6.8125 L 0.34375 -6.5 L 0.59375 -6.5 C 1.359375 -6.5 1.375 -6.390625 1.375 -6.03125 L 1.375 -0.78125 C 1.375 -0.421875 1.359375 -0.3125 0.59375 -0.3125 L 0.34375 -0.3125 L 0.34375 0 C 0.703125 -0.03125 1.421875 -0.03125 1.796875 -0.03125 C 2.1875 -0.03125 2.90625 -0.03125 3.265625 0 L 3.265625 -0.3125 L 3.015625 -0.3125 C 2.25 -0.3125 2.234375 -0.421875 2.234375 -0.78125 L 2.234375 -3.296875 L 3.375 -3.296875 C 3.53125 -3.296875 3.953125 -3.296875 4.3125 -2.953125 C 4.6875 -2.609375 4.6875 -2.296875 4.6875 -1.625 C 4.6875 -0.984375 4.6875 -0.578125 5.09375 -0.203125 C 5.5 0.15625 6.046875 0.21875 6.34375 0.21875 C 7.125 0.21875 7.296875 -0.59375 7.296875 -0.875 Z M 5.046875 -5.015625 C 5.046875 -4.328125 4.8125 -3.515625 3.34375 -3.515625 L 2.234375 -3.515625 L 2.234375 -6.09375 C 2.234375 -6.328125 2.234375 -6.453125 2.453125 -6.484375 C 2.546875 -6.5 2.84375 -6.5 3.046875 -6.5 C 3.9375 -6.5 5.046875 -6.453125 5.046875 -5.015625 Z M 5.046875 -5.015625 "/>
</g>
<g id="glyph-1-2">
<path d="M 2.75 -1.859375 L 2.75 -2.4375 L 0.109375 -2.4375 L 0.109375 -1.859375 Z M 2.75 -1.859375 "/>
</g>
<g id="glyph-1-3">
<path d="M 6.078125 -4.53125 L 5.796875 -6.78125 L 0.328125 -6.78125 L 0.328125 -6.46875 L 0.5625 -6.46875 C 1.328125 -6.46875 1.359375 -6.359375 1.359375 -6 L 1.359375 -0.78125 C 1.359375 -0.421875 1.328125 -0.3125 0.5625 -0.3125 L 0.328125 -0.3125 L 0.328125 0 C 0.671875 -0.03125 1.453125 -0.03125 1.84375 -0.03125 C 2.25 -0.03125 3.15625 -0.03125 3.515625 0 L 3.515625 -0.3125 L 3.1875 -0.3125 C 2.25 -0.3125 2.25 -0.4375 2.25 -0.78125 L 2.25 -3.234375 L 3.09375 -3.234375 C 4.0625 -3.234375 4.15625 -2.921875 4.15625 -2.078125 L 4.40625 -2.078125 L 4.40625 -4.71875 L 4.15625 -4.71875 C 4.15625 -3.875 4.0625 -3.546875 3.09375 -3.546875 L 2.25 -3.546875 L 2.25 -6.078125 C 2.25 -6.40625 2.265625 -6.46875 2.734375 -6.46875 L 3.921875 -6.46875 C 5.421875 -6.46875 5.671875 -5.90625 5.828125 -4.53125 Z M 6.078125 -4.53125 "/>
</g>
<g id="glyph-1-4">
<path d="M 6.5 -2.578125 L 6.25 -2.578125 C 6 -1.03125 5.765625 -0.3125 4.0625 -0.3125 L 2.734375 -0.3125 C 2.265625 -0.3125 2.25 -0.375 2.25 -0.703125 L 2.25 -3.375 L 3.140625 -3.375 C 4.109375 -3.375 4.21875 -3.046875 4.21875 -2.203125 L 4.46875 -2.203125 L 4.46875 -4.84375 L 4.21875 -4.84375 C 4.21875 -3.984375 4.109375 -3.671875 3.140625 -3.671875 L 2.25 -3.671875 L 2.25 -6.078125 C 2.25 -6.40625 2.265625 -6.46875 2.734375 -6.46875 L 4.015625 -6.46875 C 5.546875 -6.46875 5.8125 -5.921875 5.96875 -4.53125 L 6.21875 -4.53125 L 5.9375 -6.78125 L 0.328125 -6.78125 L 0.328125 -6.46875 L 0.5625 -6.46875 C 1.328125 -6.46875 1.359375 -6.359375 1.359375 -6 L 1.359375 -0.78125 C 1.359375 -0.421875 1.328125 -0.3125 0.5625 -0.3125 L 0.328125 -0.3125 L 0.328125 0 L 6.078125 0 Z M 6.5 -2.578125 "/>
</g>
<g id="glyph-1-5">
<path d="M 7.140625 -6.5 L 7.140625 -6.8125 L 5.96875 -6.78125 L 4.8125 -6.8125 L 4.8125 -6.5 C 5.828125 -6.5 5.828125 -6.03125 5.828125 -5.765625 L 5.828125 -1.5 L 2.3125 -6.671875 C 2.21875 -6.796875 2.21875 -6.8125 2.03125 -6.8125 L 0.328125 -6.8125 L 0.328125 -6.5 L 0.625 -6.5 C 0.765625 -6.5 0.96875 -6.484375 1.109375 -6.484375 C 1.34375 -6.453125 1.359375 -6.4375 1.359375 -6.25 L 1.359375 -1.046875 C 1.359375 -0.78125 1.359375 -0.3125 0.328125 -0.3125 L 0.328125 0 L 1.5 -0.03125 L 2.65625 0 L 2.65625 -0.3125 C 1.640625 -0.3125 1.640625 -0.78125 1.640625 -1.046875 L 1.640625 -6.234375 C 1.6875 -6.1875 1.6875 -6.171875 1.734375 -6.109375 L 5.796875 -0.125 C 5.890625 -0.015625 5.90625 0 5.96875 0 C 6.109375 0 6.109375 -0.0625 6.109375 -0.265625 L 6.109375 -5.765625 C 6.109375 -6.03125 6.109375 -6.5 7.140625 -6.5 Z M 7.140625 -6.5 "/>
</g>
<g id="glyph-1-6">
<path d="M 7.140625 0 L 7.140625 -0.3125 L 6.96875 -0.3125 C 6.375 -0.3125 6.234375 -0.375 6.125 -0.703125 L 3.96875 -6.9375 C 3.921875 -7.0625 3.890625 -7.140625 3.734375 -7.140625 C 3.578125 -7.140625 3.546875 -7.078125 3.5 -6.9375 L 1.4375 -0.984375 C 1.25 -0.46875 0.859375 -0.3125 0.3125 -0.3125 L 0.3125 0 L 1.328125 -0.03125 L 2.484375 0 L 2.484375 -0.3125 C 1.984375 -0.3125 1.734375 -0.5625 1.734375 -0.8125 C 1.734375 -0.84375 1.75 -0.953125 1.75 -0.96875 L 2.21875 -2.265625 L 4.671875 -2.265625 L 5.203125 -0.75 C 5.21875 -0.703125 5.234375 -0.640625 5.234375 -0.609375 C 5.234375 -0.3125 4.671875 -0.3125 4.40625 -0.3125 L 4.40625 0 C 4.765625 -0.03125 5.46875 -0.03125 5.84375 -0.03125 Z M 4.5625 -2.578125 L 2.328125 -2.578125 L 3.4375 -5.828125 Z M 4.5625 -2.578125 "/>
</g>
<g id="glyph-1-7">
<path d="M 6.484375 -1.828125 C 6.484375 -2.6875 5.671875 -3.4375 4.5625 -3.5625 C 5.53125 -3.75 6.21875 -4.390625 6.21875 -5.125 C 6.21875 -5.984375 5.296875 -6.8125 4 -6.8125 L 0.359375 -6.8125 L 0.359375 -6.5 L 0.59375 -6.5 C 1.359375 -6.5 1.390625 -6.390625 1.390625 -6.03125 L 1.390625 -0.78125 C 1.390625 -0.421875 1.359375 -0.3125 0.59375 -0.3125 L 0.359375 -0.3125 L 0.359375 0 L 4.265625 0 C 5.59375 0 6.484375 -0.890625 6.484375 -1.828125 Z M 5.25 -5.125 C 5.25 -4.484375 4.765625 -3.65625 3.65625 -3.65625 L 2.21875 -3.65625 L 2.21875 -6.09375 C 2.21875 -6.4375 2.234375 -6.5 2.703125 -6.5 L 3.9375 -6.5 C 4.90625 -6.5 5.25 -5.65625 5.25 -5.125 Z M 5.5 -1.828125 C 5.5 -1.125 4.96875 -0.3125 3.953125 -0.3125 L 2.703125 -0.3125 C 2.234375 -0.3125 2.21875 -0.375 2.21875 -0.703125 L 2.21875 -3.421875 L 4.09375 -3.421875 C 5.078125 -3.421875 5.5 -2.5 5.5 -1.828125 Z M 5.5 -1.828125 "/>
</g>
<g id="glyph-1-8">
<path d="M 5.796875 -2.578125 L 5.546875 -2.578125 C 5.4375 -1.5625 5.296875 -0.3125 3.546875 -0.3125 L 2.734375 -0.3125 C 2.265625 -0.3125 2.25 -0.375 2.25 -0.703125 L 2.25 -6.015625 C 2.25 -6.359375 2.25 -6.5 3.1875 -6.5 L 3.515625 -6.5 L 3.515625 -6.8125 C 3.15625 -6.78125 2.25 -6.78125 1.84375 -6.78125 C 1.453125 -6.78125 0.671875 -6.78125 0.328125 -6.8125 L 0.328125 -6.5 L 0.5625 -6.5 C 1.328125 -6.5 1.359375 -6.390625 1.359375 -6.03125 L 1.359375 -0.78125 C 1.359375 -0.421875 1.328125 -0.3125 0.5625 -0.3125 L 0.328125 -0.3125 L 0.328125 0 L 5.515625 0 Z M 5.796875 -2.578125 "/>
</g>
<g id="glyph-1-9">
<path d="M 6.625 -2.328125 C 6.625 -2.421875 6.625 -2.5 6.5 -2.5 C 6.390625 -2.5 6.390625 -2.4375 6.375 -2.328125 C 6.296875 -0.90625 5.234375 -0.09375 4.140625 -0.09375 C 3.53125 -0.09375 1.578125 -0.421875 1.578125 -3.40625 C 1.578125 -6.375 3.53125 -6.71875 4.140625 -6.71875 C 5.21875 -6.71875 6.109375 -5.8125 6.3125 -4.359375 C 6.328125 -4.21875 6.328125 -4.1875 6.46875 -4.1875 C 6.625 -4.1875 6.625 -4.21875 6.625 -4.421875 L 6.625 -6.78125 C 6.625 -6.953125 6.625 -7.03125 6.515625 -7.03125 C 6.484375 -7.03125 6.4375 -7.03125 6.359375 -6.90625 L 5.859375 -6.171875 C 5.5 -6.53125 4.984375 -7.03125 4.03125 -7.03125 C 2.15625 -7.03125 0.5625 -5.4375 0.5625 -3.40625 C 0.5625 -1.34375 2.171875 0.21875 4.03125 0.21875 C 5.65625 0.21875 6.625 -1.171875 6.625 -2.328125 Z M 6.625 -2.328125 "/>
</g>
<g id="glyph-1-10">
<path d="M 6.21875 -4.953125 C 6.21875 -5.9375 5.234375 -6.8125 3.875 -6.8125 L 0.34375 -6.8125 L 0.34375 -6.5 L 0.59375 -6.5 C 1.359375 -6.5 1.375 -6.390625 1.375 -6.03125 L 1.375 -0.78125 C 1.375 -0.421875 1.359375 -0.3125 0.59375 -0.3125 L 0.34375 -0.3125 L 0.34375 0 C 0.703125 -0.03125 1.4375 -0.03125 1.8125 -0.03125 C 2.1875 -0.03125 2.9375 -0.03125 3.296875 0 L 3.296875 -0.3125 L 3.046875 -0.3125 C 2.28125 -0.3125 2.265625 -0.421875 2.265625 -0.78125 L 2.265625 -3.15625 L 3.953125 -3.15625 C 5.140625 -3.15625 6.21875 -3.953125 6.21875 -4.953125 Z M 5.1875 -4.953125 C 5.1875 -4.484375 5.1875 -3.40625 3.609375 -3.40625 L 2.234375 -3.40625 L 2.234375 -6.09375 C 2.234375 -6.4375 2.25 -6.5 2.71875 -6.5 L 3.609375 -6.5 C 5.1875 -6.5 5.1875 -5.4375 5.1875 -4.953125 Z M 5.1875 -4.953125 "/>
</g>
<g id="glyph-1-11">
<path d="M 6.828125 -4.5 L 6.640625 -6.75 L 0.546875 -6.75 L 0.359375 -4.5 L 0.609375 -4.5 C 0.75 -6.109375 0.890625 -6.4375 2.40625 -6.4375 C 2.578125 -6.4375 2.84375 -6.4375 2.9375 -6.421875 C 3.15625 -6.375 3.15625 -6.265625 3.15625 -6.046875 L 3.15625 -0.78125 C 3.15625 -0.453125 3.15625 -0.3125 2.109375 -0.3125 L 1.703125 -0.3125 L 1.703125 0 C 2.109375 -0.03125 3.125 -0.03125 3.59375 -0.03125 C 4.046875 -0.03125 5.078125 -0.03125 5.484375 0 L 5.484375 -0.3125 L 5.078125 -0.3125 C 4.03125 -0.3125 4.03125 -0.453125 4.03125 -0.78125 L 4.03125 -6.046875 C 4.03125 -6.234375 4.03125 -6.375 4.21875 -6.421875 C 4.328125 -6.4375 4.59375 -6.4375 4.78125 -6.4375 C 6.296875 -6.4375 6.4375 -6.109375 6.578125 -4.5 Z M 6.828125 -4.5 "/>
</g>
<g id="glyph-2-0">
<path d="M 4.96875 -1.421875 C 4.96875 -1.53125 4.875 -1.53125 4.84375 -1.53125 C 4.75 -1.53125 4.734375 -1.484375 4.703125 -1.34375 C 4.53125 -0.703125 4.359375 -0.109375 3.953125 -0.109375 C 3.671875 -0.109375 3.65625 -0.375 3.65625 -0.5625 C 3.65625 -0.78125 3.671875 -0.875 3.78125 -1.3125 L 4 -2.203125 L 4.359375 -3.59375 C 4.421875 -3.875 4.421875 -3.890625 4.421875 -3.9375 C 4.421875 -4.109375 4.3125 -4.203125 4.140625 -4.203125 C 3.890625 -4.203125 3.75 -3.984375 3.71875 -3.765625 C 3.53125 -4.140625 3.25 -4.40625 2.796875 -4.40625 C 1.640625 -4.40625 0.40625 -2.9375 0.40625 -1.484375 C 0.40625 -0.546875 0.953125 0.109375 1.71875 0.109375 C 1.921875 0.109375 2.421875 0.0625 3.015625 -0.640625 C 3.09375 -0.21875 3.453125 0.109375 3.921875 0.109375 C 4.28125 0.109375 4.5 -0.125 4.671875 -0.4375 C 4.828125 -0.796875 4.96875 -1.421875 4.96875 -1.421875 Z M 3.5625 -3.140625 L 3.078125 -1.1875 C 3.015625 -1 3.015625 -0.984375 2.875 -0.8125 C 2.4375 -0.265625 2.03125 -0.109375 1.75 -0.109375 C 1.25 -0.109375 1.109375 -0.65625 1.109375 -1.046875 C 1.109375 -1.546875 1.421875 -2.765625 1.65625 -3.234375 C 1.96875 -3.8125 2.40625 -4.1875 2.8125 -4.1875 C 3.453125 -4.1875 3.59375 -3.375 3.59375 -3.3125 C 3.59375 -3.25 3.578125 -3.1875 3.5625 -3.140625 Z M 3.5625 -3.140625 "/>
</g>
<g id="glyph-3-0">
<path d="M 3.59375 -2.21875 C 3.59375 -2.984375 3.5 -3.546875 3.1875 -4.03125 C 2.96875 -4.34375 2.53125 -4.625 1.984375 -4.625 C 0.359375 -4.625 0.359375 -2.71875 0.359375 -2.21875 C 0.359375 -1.71875 0.359375 0.140625 1.984375 0.140625 C 3.59375 0.140625 3.59375 -1.71875 3.59375 -2.21875 Z M 2.96875 -2.3125 C 2.96875 -1.796875 2.96875 -1.28125 2.875 -0.84375 C 2.734375 -0.203125 2.265625 -0.0625 1.984375 -0.0625 C 1.65625 -0.0625 1.234375 -0.25 1.09375 -0.8125 C 1 -1.21875 1 -1.796875 1 -2.3125 C 1 -2.828125 1 -3.359375 1.09375 -3.734375 C 1.25 -4.28125 1.6875 -4.4375 1.984375 -4.4375 C 2.359375 -4.4375 2.71875 -4.203125 2.84375 -3.796875 C 2.953125 -3.421875 2.96875 -2.921875 2.96875 -2.3125 Z M 2.96875 -2.3125 "/>
</g>
<g id="glyph-3-1">
<path d="M 3.296875 0 L 3.296875 -0.25 L 3.03125 -0.25 C 2.328125 -0.25 2.328125 -0.34375 2.328125 -0.578125 L 2.328125 -4.4375 C 2.328125 -4.625 2.328125 -4.625 2.125 -4.625 C 1.671875 -4.1875 1.046875 -4.1875 0.765625 -4.1875 L 0.765625 -3.9375 C 0.921875 -3.9375 1.390625 -3.9375 1.765625 -4.125 L 1.765625 -0.578125 C 1.765625 -0.34375 1.765625 -0.25 1.078125 -0.25 L 0.8125 -0.25 L 0.8125 0 L 2.046875 -0.03125 Z M 3.296875 0 "/>
</g>
</g>
<clipPath id="clip-0">
<path clip-rule="nonzero" d="M 26 238 L 68 238 L 68 245.765625 L 26 245.765625 Z M 26 238 "/>
</clipPath>
<clipPath id="clip-1">
<path clip-rule="nonzero" d="M 111 238 L 125 238 L 125 245.765625 L 111 245.765625 Z M 111 238 "/>
</clipPath>
<clipPath id="clip-2">
<path clip-rule="nonzero" d="M 149 90 L 192.566406 90 L 192.566406 236 L 149 236 Z M 149 90 "/>
</clipPath>
<clipPath id="clip-3">
<path clip-rule="nonzero" d="M 133 238 L 167 238 L 167 245.765625 L 133 245.765625 Z M 133 238 "/>
</clipPath>
</defs>
<path fill="none" stroke-width="0.3985" stroke-linecap="butt" stroke-linejoin="miter" stroke="rgb(0%, 0%, 0%)" stroke-opacity="1" stroke-miterlimit="10" d="M -31.748656 23.80975 L -60.096313 23.80975 M -31.748656 -23.811344 L -60.096313 -23.811344 M -103.002563 29.368344 L -117.174438 29.368344 M -117.174438 29.368344 L -131.350219 29.368344 L -131.350219 9.62225 M -131.350219 -13.045719 L -131.350219 -29.366031 L -103.002563 -29.366031 " transform="matrix(1, 0, 0, -1, 149.8385, 46.841)"/>
<path fill="none" stroke-width="0.797" stroke-linecap="butt" stroke-linejoin="miter" stroke="rgb(0%, 0%, 0%)" stroke-opacity="1" stroke-miterlimit="10" d="M -23.811156 -35.717594 L 23.809937 -35.717594 L 23.809937 35.716 L -23.811156 35.716 Z M -23.811156 -35.717594 " transform="matrix(1, 0, 0, -1, 149.8385, 46.841)"/>
<g fill="rgb(0%, 0%, 0%)" fill-opacity="1">
<use xlink:href="#glyph-0-0" x="129.0995" y="73.417"/>
</g>
<path fill="none" stroke-width="0.398" stroke-linecap="butt" stroke-linejoin="miter" stroke="rgb(0%, 0%, 0%)" stroke-opacity="1" stroke-miterlimit="10" d="M 0.00065625 0.00125 L 7.168625 0.00125 " transform="matrix(1, 0, 0, -1, 163.4095, 65.845)"/>
<g fill="rgb(0%, 0%, 0%)" fill-opacity="1">
<use xlink:href="#glyph-0-1" x="163.4095" y="73.417"/>
</g>
<g fill="rgb(0%, 0%, 0%)" fill-opacity="1">
<use xlink:href="#glyph-0-2" x="129.0995" y="49.606"/>
<use xlink:href="#glyph-0-3" x="135.755259" y="49.606"/>
</g>
<g fill="rgb(0%, 0%, 0%)" fill-opacity="1">
<use xlink:href="#glyph-0-4" x="129.0995" y="25.795"/>
</g>
<g fill="rgb(0%, 0%, 0%)" fill-opacity="1">
<use xlink:href="#glyph-0-1" x="163.4095" y="25.795"/>
</g>
<path fill="none" stroke-width="0.3985" stroke-linecap="butt" stroke-linejoin="miter" stroke="rgb(0%, 0%, 0%)" stroke-opacity="1" stroke-miterlimit="10" d="M -23.811156 -23.811344 L -31.748656 -23.811344 " transform="matrix(1, 0, 0, -1, 149.8385, 46.841)"/>
<path fill="none" stroke-width="0.3985" stroke-linecap="butt" stroke-linejoin="miter" stroke="rgb(0%, 0%, 0%)" stroke-opacity="1" stroke-miterlimit="10" d="M 23.809937 -23.811344 L 31.747437 -23.811344 " transform="matrix(1, 0, 0, -1, 149.8385, 46.841)"/>
<path fill="none" stroke-width="0.3985" stroke-linecap="butt" stroke-linejoin="miter" stroke="rgb(0%, 0%, 0%)" stroke-opacity="1" stroke-miterlimit="10" d="M -23.811156 0.00115625 L -31.748656 0.00115625 " transform="matrix(1, 0, 0, -1, 149.8385, 46.841)"/>
<path fill="none" stroke-width="0.3985" stroke-linecap="butt" stroke-linejoin="miter" stroke="rgb(0%, 0%, 0%)" stroke-opacity="1" stroke-miterlimit="10" d="M -23.811156 23.80975 L -31.748656 23.80975 " transform="matrix(1, 0, 0, -1, 149.8385, 46.841)"/>
<path fill="none" stroke-width="0.3985" stroke-linecap="butt" stroke-linejoin="miter" stroke="rgb(0%, 0%, 0%)" stroke-opacity="1" stroke-miterlimit="10" d="M 23.809937 23.80975 L 31.747437 23.80975 " transform="matrix(1, 0, 0, -1, 149.8385, 46.841)"/>
<path fill="none" stroke-width="0.3985" stroke-linecap="butt" stroke-linejoin="miter" stroke="rgb(0%, 0%, 0%)" stroke-opacity="1" stroke-miterlimit="10" d="M 0.00134375 -35.717594 L 0.00134375 -43.655094 " transform="matrix(1, 0, 0, -1, 149.8385, 46.841)"/>
<path fill-rule="nonzero" fill="rgb(100%, 100%, 100%)" fill-opacity="1" stroke-width="0.797" stroke-linecap="butt" stroke-linejoin="miter" stroke="rgb(0%, 0%, 0%)" stroke-opacity="1" stroke-miterlimit="10" d="M 1.712281 -37.428531 C 1.712281 -36.483219 0.946656 -35.717594 0.00134375 -35.717594 C -0.943969 -35.717594 -1.709594 -36.483219 -1.709594 -37.428531 C -1.709594 -38.373844 -0.943969 -39.139469 0.00134375 -39.139469 C 0.946656 -39.139469 1.712281 -38.373844 1.712281 -37.428531 Z M 1.712281 -37.428531 " transform="matrix(1, 0, 0, -1, 149.8385, 46.841)"/>
<g fill="rgb(0%, 0%, 0%)" fill-opacity="1">
<use xlink:href="#glyph-1-0" x="135.2405" y="7.605"/>
<use xlink:href="#glyph-1-1" x="140.775721" y="7.605"/>
<use xlink:href="#glyph-1-2" x="148.10919" y="7.605"/>
<use xlink:href="#glyph-1-3" x="151.429725" y="7.605"/>
<use xlink:href="#glyph-1-3" x="157.93331" y="7.605"/>
</g>
<path fill="none" stroke-width="0.3985" stroke-linecap="butt" stroke-linejoin="miter" stroke="rgb(0%, 0%, 0%)" stroke-opacity="1" stroke-miterlimit="10" d="M -95.225219 29.368344 L -103.002563 29.368344 M -95.225219 18.255063 L -103.002563 18.255063 " transform="matrix(1, 0, 0, -1, 149.8385, 46.841)"/>
<path fill="none" stroke-width="0.797" stroke-linecap="butt" stroke-linejoin="miter" stroke="rgb(0%, 0%, 0%)" stroke-opacity="1" stroke-miterlimit="10" d="M -95.225219 34.923031 L -78.983031 34.923031 C -72.846313 34.923031 -67.873656 29.946469 -67.873656 23.80975 C -67.873656 17.673031 -72.846313 12.700375 -78.983031 12.700375 L -95.225219 12.700375 Z M -95.225219 34.923031 " transform="matrix(1, 0, 0, -1, 149.8385, 46.841)"/>
<path fill="none" stroke-width="0.3985" stroke-linecap="butt" stroke-linejoin="miter" stroke="rgb(0%, 0%, 0%)" stroke-opacity="1" stroke-miterlimit="10" d="M -67.873656 23.80975 L -60.096313 23.80975 " transform="matrix(1, 0, 0, -1, 149.8385, 46.841)"/>
<path fill="none" stroke-width="0.3985" stroke-linecap="butt" stroke-linejoin="miter" stroke="rgb(0%, 0%, 0%)" stroke-opacity="1" stroke-miterlimit="10" d="M -95.225219 -18.256656 L -103.002563 -18.256656 M -95.225219 -29.366031 L -103.002563 -29.366031 " transform="matrix(1, 0, 0, -1, 149.8385, 46.841)"/>
<path fill="none" stroke-width="0.797" stroke-linecap="butt" stroke-linejoin="miter" stroke="rgb(0%, 0%, 0%)" stroke-opacity="1" stroke-miterlimit="10" d="M -95.225219 -12.698062 L -78.983031 -12.698062 C -72.846313 -12.698062 -67.873656 -17.674625 -67.873656 -23.811344 C -67.873656 -29.948062 -72.846313 -34.924625 -78.983031 -34.924625 L -95.225219 -34.924625 Z M -95.225219 -12.698062 " transform="matrix(1, 0, 0, -1, 149.8385, 46.841)"/>
<path fill="none" stroke-width="0.3985" stroke-linecap="butt" stroke-linejoin="miter" stroke="rgb(0%, 0%, 0%)" stroke-opacity="1" stroke-miterlimit="10" d="M -67.873656 -23.811344 L -60.096313 -23.811344 " transform="matrix(1, 0, 0, -1, 149.8385, 46.841)"/>
<path fill-rule="nonzero" fill="rgb(0%, 0%, 0%)" fill-opacity="1" stroke-width="0.3985" stroke-linecap="butt" stroke-linejoin="miter" stroke="rgb(0%, 0%, 0%)" stroke-opacity="1" stroke-miterlimit="10" d="M -129.760375 29.368344 C -129.760375 30.243344 -130.471313 30.954281 -131.350219 30.954281 C -132.225219 30.954281 -132.936156 30.243344 -132.936156 29.368344 C -132.936156 28.489438 -132.225219 27.7785 -131.350219 27.7785 C -130.471313 27.7785 -129.760375 28.489438 -129.760375 29.368344 Z M -129.760375 29.368344 " transform="matrix(1, 0, 0, -1, 149.8385, 46.841)"/>
<path fill="none" stroke-width="0.797" stroke-linecap="butt" stroke-linejoin="miter" stroke="rgb(0%, 0%, 0%)" stroke-opacity="1" stroke-miterlimit="10" d="M -120.236938 9.62225 L -131.350219 -9.623844 L -142.459594 9.62225 Z M -120.236938 9.62225 " transform="matrix(1, 0, 0, -1, 149.8385, 46.841)"/>
<path fill-rule="nonzero" fill="rgb(100%, 100%, 100%)" fill-opacity="1" stroke-width="0.797" stroke-linecap="butt" stroke-linejoin="miter" stroke="rgb(0%, 0%, 0%)" stroke-opacity="1" stroke-miterlimit="10" d="M -131.350219 -13.045719 C -130.404906 -13.045719 -129.639281 -12.280094 -129.639281 -11.334781 C -129.639281 -10.389469 -130.404906 -9.623844 -131.350219 -9.623844 C -132.295531 -9.623844 -133.061156 -10.389469 -133.061156 -11.334781 C -133.061156 -12.280094 -132.295531 -13.045719 -131.350219 -13.045719 Z M -131.350219 -13.045719 " transform="matrix(1, 0, 0, -1, 149.8385, 46.841)"/>
<path fill="none" stroke-width="0.3985" stroke-linecap="butt" stroke-linejoin="miter" stroke="rgb(0%, 0%, 0%)" stroke-opacity="1" stroke-miterlimit="10" d="M -31.748656 -89.576969 L -60.096313 -89.576969 M -31.748656 -137.198062 L -60.096313 -137.198062 M -103.002563 -84.018375 L -117.174438 -84.018375 M -117.174438 -84.018375 L -131.350219 -84.018375 L -131.350219 -103.764469 M -131.350219 -126.432437 L -131.350219 -142.75275 L -103.002563 -142.75275 " transform="matrix(1, 0, 0, -1, 149.8385, 46.841)"/>
<path fill="none" stroke-width="0.797" stroke-linecap="butt" stroke-linejoin="miter" stroke="rgb(0%, 0%, 0%)" stroke-opacity="1" stroke-miterlimit="10" d="M -23.811156 -149.104312 L 23.809937 -149.104312 L 23.809937 -77.670719 L -23.811156 -77.670719 Z M -23.811156 -149.104312 " transform="matrix(1, 0, 0, -1, 149.8385, 46.841)"/>
<g fill="rgb(0%, 0%, 0%)" fill-opacity="1">
<use xlink:href="#glyph-0-0" x="129.0995" y="186.803"/>
</g>
<path fill="none" stroke-width="0.398" stroke-linecap="butt" stroke-linejoin="miter" stroke="rgb(0%, 0%, 0%)" stroke-opacity="1" stroke-miterlimit="10" d="M 0.00065625 0.00053125 L 7.168625 0.00053125 " transform="matrix(1, 0, 0, -1, 163.4095, 179.231)"/>
<g fill="rgb(0%, 0%, 0%)" fill-opacity="1">
<use xlink:href="#glyph-0-1" x="163.4095" y="186.803"/>
</g>
<g fill="rgb(0%, 0%, 0%)" fill-opacity="1">
<use xlink:href="#glyph-0-2" x="129.0995" y="162.991"/>
<use xlink:href="#glyph-0-3" x="135.755259" y="162.991"/>
</g>
<g fill="rgb(0%, 0%, 0%)" fill-opacity="1">
<use xlink:href="#glyph-0-4" x="129.0995" y="139.18"/>
</g>
<g fill="rgb(0%, 0%, 0%)" fill-opacity="1">
<use xlink:href="#glyph-0-1" x="163.4095" y="139.18"/>
</g>
<path fill="none" stroke-width="0.3985" stroke-linecap="butt" stroke-linejoin="miter" stroke="rgb(0%, 0%, 0%)" stroke-opacity="1" stroke-miterlimit="10" d="M -23.811156 -137.198062 L -31.748656 -137.198062 " transform="matrix(1, 0, 0, -1, 149.8385, 46.841)"/>
<path fill="none" stroke-width="0.3985" stroke-linecap="butt" stroke-linejoin="miter" stroke="rgb(0%, 0%, 0%)" stroke-opacity="1" stroke-miterlimit="10" d="M 23.809937 -137.198062 L 31.747437 -137.198062 " transform="matrix(1, 0, 0, -1, 149.8385, 46.841)"/>
<path fill="none" stroke-width="0.3985" stroke-linecap="butt" stroke-linejoin="miter" stroke="rgb(0%, 0%, 0%)" stroke-opacity="1" stroke-miterlimit="10" d="M -23.811156 -113.385562 L -31.748656 -113.385562 " transform="matrix(1, 0, 0, -1, 149.8385, 46.841)"/>
<path fill="none" stroke-width="0.3985" stroke-linecap="butt" stroke-linejoin="miter" stroke="rgb(0%, 0%, 0%)" stroke-opacity="1" stroke-miterlimit="10" d="M -23.811156 -89.576969 L -31.748656 -89.576969 " transform="matrix(1, 0, 0, -1, 149.8385, 46.841)"/>
<path fill="none" stroke-width="0.3985" stroke-linecap="butt" stroke-linejoin="miter" stroke="rgb(0%, 0%, 0%)" stroke-opacity="1" stroke-miterlimit="10" d="M 23.809937 -89.576969 L 31.747437 -89.576969 " transform="matrix(1, 0, 0, -1, 149.8385, 46.841)"/>
<path fill="none" stroke-width="0.3985" stroke-linecap="butt" stroke-linejoin="miter" stroke="rgb(0%, 0%, 0%)" stroke-opacity="1" stroke-miterlimit="10" d="M 0.00134375 -149.104312 L 0.00134375 -157.041812 " transform="matrix(1, 0, 0, -1, 149.8385, 46.841)"/>
<path fill-rule="nonzero" fill="rgb(100%, 100%, 100%)" fill-opacity="1" stroke-width="0.797" stroke-linecap="butt" stroke-linejoin="miter" stroke="rgb(0%, 0%, 0%)" stroke-opacity="1" stroke-miterlimit="10" d="M 1.712281 -150.81525 C 1.712281 -149.869937 0.946656 -149.104312 0.00134375 -149.104312 C -0.943969 -149.104312 -1.709594 -149.869937 -1.709594 -150.81525 C -1.709594 -151.760562 -0.943969 -152.526187 0.00134375 -152.526187 C 0.946656 -152.526187 1.712281 -151.760562 1.712281 -150.81525 Z M 1.712281 -150.81525 " transform="matrix(1, 0, 0, -1, 149.8385, 46.841)"/>
<g fill="rgb(0%, 0%, 0%)" fill-opacity="1">
<use xlink:href="#glyph-1-0" x="135.2405" y="120.99"/>
<use xlink:href="#glyph-1-1" x="140.775721" y="120.99"/>
<use xlink:href="#glyph-1-2" x="148.10919" y="120.99"/>
<use xlink:href="#glyph-1-3" x="151.429725" y="120.99"/>
<use xlink:href="#glyph-1-3" x="157.93331" y="120.99"/>
</g>
<path fill="none" stroke-width="0.3985" stroke-linecap="butt" stroke-linejoin="miter" stroke="rgb(0%, 0%, 0%)" stroke-opacity="1" stroke-miterlimit="10" d="M -95.225219 -84.018375 L -103.002563 -84.018375 M -95.225219 -95.131656 L -103.002563 -95.131656 " transform="matrix(1, 0, 0, -1, 149.8385, 46.841)"/>
<path fill="none" stroke-width="0.797" stroke-linecap="butt" stroke-linejoin="miter" stroke="rgb(0%, 0%, 0%)" stroke-opacity="1" stroke-miterlimit="10" d="M -95.225219 -78.463687 L -78.983031 -78.463687 C -72.846313 -78.463687 -67.873656 -83.44025 -67.873656 -89.576969 C -67.873656 -95.713687 -72.846313 -100.686344 -78.983031 -100.686344 L -95.225219 -100.686344 Z M -95.225219 -78.463687 " transform="matrix(1, 0, 0, -1, 149.8385, 46.841)"/>
<path fill="none" stroke-width="0.3985" stroke-linecap="butt" stroke-linejoin="miter" stroke="rgb(0%, 0%, 0%)" stroke-opacity="1" stroke-miterlimit="10" d="M -67.873656 -89.576969 L -60.096313 -89.576969 " transform="matrix(1, 0, 0, -1, 149.8385, 46.841)"/>
<path fill="none" stroke-width="0.3985" stroke-linecap="butt" stroke-linejoin="miter" stroke="rgb(0%, 0%, 0%)" stroke-opacity="1" stroke-miterlimit="10" d="M -95.225219 -131.643375 L -103.002563 -131.643375 M -95.225219 -142.75275 L -103.002563 -142.75275 " transform="matrix(1, 0, 0, -1, 149.8385, 46.841)"/>
<path fill="none" stroke-width="0.797" stroke-linecap="butt" stroke-linejoin="miter" stroke="rgb(0%, 0%, 0%)" stroke-opacity="1" stroke-miterlimit="10" d="M -95.225219 -126.088687 L -78.983031 -126.088687 C -72.846313 -126.088687 -67.873656 -131.061344 -67.873656 -137.198062 C -67.873656 -143.334781 -72.846313 -148.311344 -78.983031 -148.311344 L -95.225219 -148.311344 Z M -95.225219 -126.088687 " transform="matrix(1, 0, 0, -1, 149.8385, 46.841)"/>
<path fill="none" stroke-width="0.3985" stroke-linecap="butt" stroke-linejoin="miter" stroke="rgb(0%, 0%, 0%)" stroke-opacity="1" stroke-miterlimit="10" d="M -67.873656 -137.198062 L -60.096313 -137.198062 " transform="matrix(1, 0, 0, -1, 149.8385, 46.841)"/>
<path fill-rule="nonzero" fill="rgb(0%, 0%, 0%)" fill-opacity="1" stroke-width="0.3985" stroke-linecap="butt" stroke-linejoin="miter" stroke="rgb(0%, 0%, 0%)" stroke-opacity="1" stroke-miterlimit="10" d="M -129.760375 -84.018375 C -129.760375 -83.143375 -130.471313 -82.432437 -131.350219 -82.432437 C -132.225219 -82.432437 -132.936156 -83.143375 -132.936156 -84.018375 C -132.936156 -84.897281 -132.225219 -85.608219 -131.350219 -85.608219 C -130.471313 -85.608219 -129.760375 -84.897281 -129.760375 -84.018375 Z M -129.760375 -84.018375 " transform="matrix(1, 0, 0, -1, 149.8385, 46.841)"/>
<path fill="none" stroke-width="0.797" stroke-linecap="butt" stroke-linejoin="miter" stroke="rgb(0%, 0%, 0%)" stroke-opacity="1" stroke-miterlimit="10" d="M -120.236938 -103.764469 L -131.350219 -123.010562 L -142.459594 -103.764469 Z M -120.236938 -103.764469 " transform="matrix(1, 0, 0, -1, 149.8385, 46.841)"/>
<path fill-rule="nonzero" fill="rgb(100%, 100%, 100%)" fill-opacity="1" stroke-width="0.797" stroke-linecap="butt" stroke-linejoin="miter" stroke="rgb(0%, 0%, 0%)" stroke-opacity="1" stroke-miterlimit="10" d="M -131.350219 -126.432437 C -130.404906 -126.432437 -129.639281 -125.666812 -129.639281 -124.7215 C -129.639281 -123.776187 -130.404906 -123.010562 -131.350219 -123.010562 C -132.295531 -123.010562 -133.061156 -123.776187 -133.061156 -124.7215 C -133.061156 -125.666812 -132.295531 -126.432437 -131.350219 -126.432437 Z M -131.350219 -126.432437 " transform="matrix(1, 0, 0, -1, 149.8385, 46.841)"/>
<path fill="none" stroke-width="0.3985" stroke-linecap="butt" stroke-linejoin="miter" stroke="rgb(0%, 0%, 0%)" stroke-opacity="1" stroke-miterlimit="10" d="M -103.002563 18.255063 L -103.002563 0.00115625 M -103.002563 0.00115625 L -103.002563 -56.694156 M -103.002563 -56.694156 L -103.002563 -113.385562 M -103.002563 -113.385562 L -103.002563 -188.334781 " transform="matrix(1, 0, 0, -1, 149.8385, 46.841)"/>
<path fill-rule="nonzero" fill="rgb(0%, 0%, 0%)" fill-opacity="1" stroke-width="0.3985" stroke-linecap="butt" stroke-linejoin="miter" stroke="rgb(0%, 0%, 0%)" stroke-opacity="1" stroke-miterlimit="10" d="M -101.416625 -18.256656 C -101.416625 -17.37775 -102.127563 -16.666812 -103.002563 -16.666812 C -103.877563 -16.666812 -104.5885 -17.37775 -104.5885 -18.256656 C -104.5885 -19.131656 -103.877563 -19.842594 -103.002563 -19.842594 C -102.127563 -19.842594 -101.416625 -19.131656 -101.416625 -18.256656 Z M -101.416625 -18.256656 " transform="matrix(1, 0, 0, -1, 149.8385, 46.841)"/>
<path fill-rule="nonzero" fill="rgb(0%, 0%, 0%)" fill-opacity="1" stroke-width="0.3985" stroke-linecap="butt" stroke-linejoin="miter" stroke="rgb(0%, 0%, 0%)" stroke-opacity="1" stroke-miterlimit="10" d="M -101.416625 -95.131656 C -101.416625 -94.256656 -102.127563 -93.545719 -103.002563 -93.545719 C -103.877563 -93.545719 -104.5885 -94.256656 -104.5885 -95.131656 C -104.5885 -96.006656 -103.877563 -96.717594 -103.002563 -96.717594 C -102.127563 -96.717594 -101.416625 -96.006656 -101.416625 -95.131656 Z M -101.416625 -95.131656 " transform="matrix(1, 0, 0, -1, 149.8385, 46.841)"/>
<path fill-rule="nonzero" fill="rgb(0%, 0%, 0%)" fill-opacity="1" stroke-width="0.3985" stroke-linecap="butt" stroke-linejoin="miter" stroke="rgb(0%, 0%, 0%)" stroke-opacity="1" stroke-miterlimit="10" d="M -101.416625 -131.643375 C -101.416625 -130.764469 -102.127563 -130.057437 -103.002563 -130.057437 C -103.877563 -130.057437 -104.5885 -130.764469 -104.5885 -131.643375 C -104.5885 -132.518375 -103.877563 -133.229312 -103.002563 -133.229312 C -102.127563 -133.229312 -101.416625 -132.518375 -101.416625 -131.643375 Z M -101.416625 -131.643375 " transform="matrix(1, 0, 0, -1, 149.8385, 46.841)"/>
<g clip-path="url(#clip-0)">
<g fill="rgb(0%, 0%, 0%)" fill-opacity="1">
<use xlink:href="#glyph-1-4" x="25.9435" y="245.558"/>
<use xlink:href="#glyph-1-5" x="32.724046" y="245.558"/>
<use xlink:href="#glyph-1-6" x="40.195996" y="245.558"/>
<use xlink:href="#glyph-1-7" x="47.667946" y="245.558"/>
<use xlink:href="#glyph-1-8" x="54.724455" y="245.558"/>
<use xlink:href="#glyph-1-4" x="60.95108" y="245.558"/>
</g>
</g>
<path fill="none" stroke-width="0.3985" stroke-linecap="butt" stroke-linejoin="miter" stroke="rgb(0%, 0%, 0%)" stroke-opacity="1" stroke-miterlimit="10" d="M -31.748656 0.00115625 L -31.748656 -56.694156 M -31.748656 -56.694156 L -31.748656 -188.334781 " transform="matrix(1, 0, 0, -1, 149.8385, 46.841)"/>
<path fill-rule="nonzero" fill="rgb(0%, 0%, 0%)" fill-opacity="1" stroke-width="0.3985" stroke-linecap="butt" stroke-linejoin="miter" stroke="rgb(0%, 0%, 0%)" stroke-opacity="1" stroke-miterlimit="10" d="M -30.162719 -113.385562 C -30.162719 -112.510562 -30.86975 -111.799625 -31.748656 -111.799625 C -32.623656 -111.799625 -33.334594 -112.510562 -33.334594 -113.385562 C -33.334594 -114.264469 -32.623656 -114.975406 -31.748656 -114.975406 C -30.86975 -114.975406 -30.162719 -114.264469 -30.162719 -113.385562 Z M -30.162719 -113.385562 " transform="matrix(1, 0, 0, -1, 149.8385, 46.841)"/>
<g clip-path="url(#clip-1)">
<g fill="rgb(0%, 0%, 0%)" fill-opacity="1">
<use xlink:href="#glyph-1-9" x="111.1035" y="245.558"/>
<use xlink:href="#glyph-1-10" x="118.29849" y="245.558"/>
</g>
</g>
<path fill="none" stroke-width="0.3985" stroke-linecap="butt" stroke-linejoin="miter" stroke="rgb(0%, 0%, 0%)" stroke-opacity="1" stroke-miterlimit="10" d="M 0.00134375 -157.041812 L 0.00134375 -161.291812 M 0.00134375 -161.291812 L 0.00134375 -165.545719 " transform="matrix(1, 0, 0, -1, 149.8385, 46.841)"/>
<path fill-rule="nonzero" fill="rgb(0%, 0%, 0%)" fill-opacity="1" stroke-width="0.3985" stroke-linecap="butt" stroke-linejoin="miter" stroke="rgb(0%, 0%, 0%)" stroke-opacity="1" stroke-miterlimit="10" d="M 1.587281 -165.545719 C 1.587281 -164.670719 0.876344 -163.959781 0.00134375 -163.959781 C -0.877563 -163.959781 -1.5885 -164.670719 -1.5885 -165.545719 C -1.5885 -166.420719 -0.877563 -167.131656 0.00134375 -167.131656 C 0.876344 -167.131656 1.587281 -166.420719 1.587281 -165.545719 Z M 1.587281 -165.545719 " transform="matrix(1, 0, 0, -1, 149.8385, 46.841)"/>
<g clip-path="url(#clip-2)">
<path fill="none" stroke-width="0.3985" stroke-linecap="butt" stroke-linejoin="miter" stroke="rgb(0%, 0%, 0%)" stroke-opacity="1" stroke-miterlimit="10" d="M 0.00134375 -43.655094 L 0.00134375 -57.826969 L 42.520875 -57.826969 L 42.520875 -165.545719 L 0.00134375 -165.545719 L 0.00134375 -188.334781 " transform="matrix(1, 0, 0, -1, 149.8385, 46.841)"/>
</g>
<g clip-path="url(#clip-3)">
<g fill="rgb(0%, 0%, 0%)" fill-opacity="1">
<use xlink:href="#glyph-1-1" x="133.0265" y="245.558"/>
<use xlink:href="#glyph-1-4" x="140.35997" y="245.558"/>
<use xlink:href="#glyph-1-0" x="147.140515" y="245.558"/>
<use xlink:href="#glyph-1-4" x="152.675736" y="245.558"/>
<use xlink:href="#glyph-1-11" x="159.456282" y="245.558"/>
</g>
</g>
<path fill="none" stroke-width="0.3985" stroke-linecap="butt" stroke-linejoin="miter" stroke="rgb(0%, 0%, 0%)" stroke-opacity="1" stroke-miterlimit="10" d="M -131.350219 29.368344 L -145.522094 29.368344 " transform="matrix(1, 0, 0, -1, 149.8385, 46.841)"/>
<g fill="rgb(0%, 0%, 0%)" fill-opacity="1">
<use xlink:href="#glyph-2-0" x="-0.5495" y="25.283"/>
</g>
<g fill="rgb(0%, 0%, 0%)" fill-opacity="1">
<use xlink:href="#glyph-3-0" x="4.7165" y="26.778"/>
</g>
<path fill="none" stroke-width="0.3985" stroke-linecap="butt" stroke-linejoin="miter" stroke="rgb(0%, 0%, 0%)" stroke-opacity="1" stroke-miterlimit="10" d="M -131.350219 -84.018375 L -145.522094 -84.018375 " transform="matrix(1, 0, 0, -1, 149.8385, 46.841)"/>
<g fill="rgb(0%, 0%, 0%)" fill-opacity="1">
<use xlink:href="#glyph-2-0" x="-0.5495" y="138.669"/>
</g>
<g fill="rgb(0%, 0%, 0%)" fill-opacity="1">
<use xlink:href="#glyph-3-1" x="4.7165" y="140.163"/>
</g>
<path fill="none" stroke-width="0.3985" stroke-linecap="butt" stroke-linejoin="miter" stroke="rgb(100%, 0%, 0%)" stroke-opacity="1" stroke-dasharray="2.98883 2.98883" stroke-miterlimit="10" d="M -134.670531 -39.037906 L 27.13025 -39.037906 L 27.13025 39.036313 L -134.670531 39.036313 Z M -134.670531 -39.037906 " transform="matrix(1, 0, 0, -1, 149.8385, 46.841)"/>
</svg>
