<?xml version="1.0" encoding="UTF-8"?>
<svg xmlns="http://www.w3.org/2000/svg" xmlns:xlink="http://www.w3.org/1999/xlink" width="56.712pt" height="29.926pt" viewBox="0 0 56.712 29.926">
<defs>
<clipPath id="clip-0">
<path clip-rule="nonzero" d="M 0 15 L 56.566406 15 L 56.566406 16 L 0 16 Z M 0 15 "/>
</clipPath>
<clipPath id="clip-1">
<path clip-rule="nonzero" d="M 14 1 L 43 1 L 43 29.890625 L 14 29.890625 Z M 14 1 "/>
</clipPath>
<clipPath id="clip-2">
<path clip-rule="nonzero" d="M 3 0 L 54 0 L 54 29.890625 L 3 29.890625 Z M 3 0 "/>
</clipPath>
<clipPath id="clip-3">
<path clip-rule="nonzero" d="M 13 0 L 43 0 L 43 29.890625 L 13 29.890625 Z M 13 0 "/>
</clipPath>
</defs>
<g clip-path="url(#clip-0)">
<path fill="none" stroke-width="0.3985" stroke-linecap="butt" stroke-linejoin="miter" stroke="rgb(0%, 0%, 0%)" stroke-opacity="1" stroke-miterlimit="10" d="M -0.00171875 0.0013125 L 14.455313 0.0013125 M 42.236563 0.0013125 L 56.693594 0.0013125 " transform="matrix(1, 0, 0, -1, -0.135, 15.431)"/>
</g>
<g clip-path="url(#clip-1)">
<path fill-rule="nonzero" fill="rgb(70.001221%, 90.351868%, 98.118591%)" fill-opacity="1" d="M 14.320312 15.429688 L 28.210938 1.542969 L 42.101562 15.429688 L 28.210938 29.320312 Z M 14.320312 15.429688 "/>
</g>
<g clip-path="url(#clip-2)">
<path fill="none" stroke-width="0.797" stroke-linecap="butt" stroke-linejoin="miter" stroke="rgb(0%, 0%, 0%)" stroke-opacity="1" stroke-miterlimit="10" d="M 14.455313 0.0013125 L 28.345938 13.888031 L 42.236563 0.0013125 L 28.345938 -13.889313 Z M 14.455313 0.0013125 " transform="matrix(1, 0, 0, -1, -0.135, 15.431)"/>
</g>
<g clip-path="url(#clip-3)">
<path fill="none" stroke-width="0.797" stroke-linecap="butt" stroke-linejoin="miter" stroke="rgb(0%, 0%, 0%)" stroke-opacity="1" stroke-miterlimit="10" d="M 28.345938 -6.944 C 26.568594 -5.811188 24.873281 -4.729156 24.873281 -3.471344 C 24.873281 -2.213531 26.568594 -1.1315 28.345938 0.0013125 C 30.123281 1.130219 31.818594 2.216156 31.818594 3.473969 C 31.818594 4.727875 30.123281 5.813812 28.345938 6.946625 " transform="matrix(1, 0, 0, -1, -0.135, 15.431)"/>
</g>
</svg>
