<?xml version="1.0" encoding="UTF-8"?>
<svg xmlns="http://www.w3.org/2000/svg" xmlns:xlink="http://www.w3.org/1999/xlink" width="56.712pt" height="21.574pt" viewBox="0 0 56.712 21.574">
<defs>
<clipPath id="clip-0">
<path clip-rule="nonzero" d="M 0 11 L 56.566406 11 L 56.566406 12 L 0 12 Z M 0 11 "/>
</clipPath>
<clipPath id="clip-1">
<path clip-rule="nonzero" d="M 20 1 L 37 1 L 37 21.359375 L 20 21.359375 Z M 20 1 "/>
</clipPath>
<clipPath id="clip-2">
<path clip-rule="nonzero" d="M 9 0 L 48 0 L 48 21.359375 L 9 21.359375 Z M 9 0 "/>
</clipPath>
<clipPath id="clip-3">
<path clip-rule="nonzero" d="M 35 1 L 37 1 L 37 21.359375 L 35 21.359375 Z M 35 1 "/>
</clipPath>
</defs>
<g clip-path="url(#clip-0)">
<path fill="none" stroke-width="0.3985" stroke-linecap="butt" stroke-linejoin="miter" stroke="rgb(0%, 0%, 0%)" stroke-opacity="1" stroke-miterlimit="10" d="M -0.00171875 0.0013125 L 20.408438 0.0013125 M 36.283438 0.0013125 L 56.693594 0.0013125 " transform="matrix(1, 0, 0, -1, -0.135, 11.431)"/>
</g>
<g clip-path="url(#clip-1)">
<path fill-rule="nonzero" fill="rgb(70.001221%, 90.351868%, 98.118591%)" fill-opacity="1" d="M 20.273438 21.351562 L 20.273438 1.507812 L 36.148438 11.429688 L 20.273438 11.429688 Z M 20.273438 21.351562 "/>
</g>
<g clip-path="url(#clip-2)">
<path fill="none" stroke-width="0.797" stroke-linecap="butt" stroke-linejoin="miter" stroke="rgb(0%, 0%, 0%)" stroke-opacity="1" stroke-miterlimit="10" d="M 20.408438 -9.920562 L 20.408438 9.923188 L 36.283438 0.0013125 L 20.408438 0.0013125 Z M 20.408438 -9.920562 " transform="matrix(1, 0, 0, -1, -0.135, 11.431)"/>
</g>
<g clip-path="url(#clip-3)">
<path fill="none" stroke-width="0.797" stroke-linecap="butt" stroke-linejoin="miter" stroke="rgb(0%, 0%, 0%)" stroke-opacity="1" stroke-miterlimit="10" d="M 36.283438 -9.920562 L 36.283438 9.923188 " transform="matrix(1, 0, 0, -1, -0.135, 11.431)"/>
</g>
</svg>
