<?xml version="1.0" encoding="UTF-8"?>
<svg xmlns="http://www.w3.org/2000/svg" xmlns:xlink="http://www.w3.org/1999/xlink" width="348.686pt" height="70.282pt" viewBox="0 0 348.686 70.282">
<defs>
<clipPath id="clip-0">
<path clip-rule="nonzero" d="M 0 18 L 348.527344 18 L 348.527344 69.921875 L 0 69.921875 Z M 0 18 "/>
</clipPath>
</defs>
<g clip-path="url(#clip-0)">
<path fill-rule="nonzero" fill="rgb(0%, 67.83905%, 93.728638%)" fill-opacity="1" d="M -0.148438 18.898438 L -0.148438 69.921875 L 348.519531 69.921875 L 348.519531 18.898438 Z M -0.148438 18.898438 "/>
</g>
<path fill="none" stroke-width="0.3985" stroke-linecap="butt" stroke-linejoin="miter" stroke="rgb(0%, 0%, 0%)" stroke-opacity="1" stroke-miterlimit="10" d="M -0.0004375 -0.0004375 L 37.417531 -0.0004375 M 132.659719 -0.0004375 L 170.081594 -0.0004375 L 170.081594 -42.519969 " transform="matrix(1, 0, 0, -1, -0.148, 18.898)"/>
<path fill-rule="nonzero" fill="rgb(100%, 100%, 100%)" fill-opacity="0.8" stroke-width="0.797" stroke-linecap="butt" stroke-linejoin="miter" stroke="rgb(0%, 0%, 0%)" stroke-opacity="1" stroke-miterlimit="10" d="M 132.663625 -17.859813 L 37.417531 -17.859813 L 37.417531 17.858937 L 132.663625 17.858937 Z M 132.663625 -17.859813 " transform="matrix(1, 0, 0, -1, -0.148, 18.898)"/>
<path fill-rule="nonzero" fill="rgb(100%, 100%, 100%)" fill-opacity="0.5" stroke-width="0.3985" stroke-linecap="butt" stroke-linejoin="miter" stroke="rgb(0%, 0%, 0%)" stroke-opacity="1" stroke-miterlimit="10" d="M 174.843313 -0.0004375 C 174.843313 2.628469 172.7105 4.761281 170.081594 4.761281 C 167.452688 4.761281 165.319875 2.628469 165.319875 -0.0004375 C 165.319875 -2.629344 167.452688 -4.762156 170.081594 -4.762156 C 172.7105 -4.762156 174.843313 -2.629344 174.843313 -0.0004375 Z M 174.843313 -0.0004375 " transform="matrix(1, 0, 0, -1, -0.148, 18.898)"/>
<path fill="none" stroke-width="0.3985" stroke-linecap="butt" stroke-linejoin="miter" stroke="rgb(0%, 0%, 0%)" stroke-opacity="1" stroke-miterlimit="10" d="M 187.089406 -0.0004375 L 229.608938 -0.0004375 " transform="matrix(1, 0, 0, -1, -0.148, 18.898)"/>
<path fill-rule="nonzero" fill="rgb(100%, 0%, 0%)" fill-opacity="0.5" stroke-width="0.3985" stroke-linecap="butt" stroke-linejoin="miter" stroke="rgb(0%, 0%, 0%)" stroke-opacity="1" stroke-miterlimit="10" d="M 239.132375 -0.0004375 C 239.132375 2.628469 236.999563 4.761281 234.370656 4.761281 C 231.74175 4.761281 229.608938 2.628469 229.608938 -0.0004375 C 229.608938 -2.629344 231.74175 -4.762156 234.370656 -4.762156 C 236.999563 -4.762156 239.132375 -2.629344 239.132375 -0.0004375 Z M 239.132375 -0.0004375 " transform="matrix(1, 0, 0, -1, -0.148, 18.898)"/>
<path fill="none" stroke-width="0.3985" stroke-linecap="butt" stroke-linejoin="miter" stroke="rgb(0%, 0%, 0%)" stroke-opacity="1" stroke-miterlimit="10" d="M 259.878469 -0.0004375 L 302.398 -0.0004375 M 255.11675 -4.762156 L 255.11675 -47.281688 " transform="matrix(1, 0, 0, -1, -0.148, 18.898)"/>
<path fill-rule="nonzero" fill="rgb(100%, 0%, 0%)" fill-opacity="0.5" stroke-width="0.3985" stroke-linecap="butt" stroke-linejoin="miter" stroke="rgb(0%, 0%, 0%)" stroke-opacity="1" stroke-miterlimit="10" d="M 259.882375 -0.0004375 C 259.882375 2.628469 257.749563 4.761281 255.120656 4.761281 C 252.49175 4.761281 250.358938 2.628469 250.358938 -0.0004375 C 250.358938 -2.629344 252.49175 -4.762156 255.120656 -4.762156 C 257.749563 -4.762156 259.882375 -2.629344 259.882375 -0.0004375 Z M 259.882375 -0.0004375 " transform="matrix(1, 0, 0, -1, -0.148, 18.898)"/>
<path fill="none" stroke-width="0.3985" stroke-linecap="butt" stroke-linejoin="miter" stroke="rgb(0%, 0%, 0%)" stroke-opacity="1" stroke-miterlimit="10" d="M 306.144094 -0.0004375 L 323.151906 -0.0004375 " transform="matrix(1, 0, 0, -1, -0.148, 18.898)"/>
<path fill-rule="nonzero" fill="rgb(100%, 100%, 100%)" fill-opacity="0.5" stroke-width="0.3985" stroke-linecap="butt" stroke-linejoin="miter" stroke="rgb(0%, 0%, 0%)" stroke-opacity="1" stroke-miterlimit="10" d="M 332.675344 -0.0004375 C 332.675344 2.628469 330.546438 4.761281 327.913625 4.761281 C 325.284719 4.761281 323.151906 2.628469 323.151906 -0.0004375 C 323.151906 -2.629344 325.284719 -4.762156 327.913625 -4.762156 C 330.546438 -4.762156 332.675344 -2.629344 332.675344 -0.0004375 Z M 332.675344 -0.0004375 " transform="matrix(1, 0, 0, -1, -0.148, 18.898)"/>
</svg>
