<?xml version="1.0" encoding="UTF-8"?>
<svg xmlns="http://www.w3.org/2000/svg" xmlns:xlink="http://www.w3.org/1999/xlink" width="349.164" height="85.456" viewBox="0 0 349.164 85.456">
<defs>
<g>
<g id="glyph-0-0">
<path d="M 4.453125 -0.796875 L 4.453125 -1.296875 L 4.203125 -1.296875 L 4.203125 -0.8125 C 4.203125 -0.703125 4.203125 -0.265625 3.890625 -0.265625 C 3.5625 -0.265625 3.5625 -0.6875 3.5625 -0.828125 L 3.5625 -2.40625 C 3.5625 -2.921875 3.5625 -3.21875 3.15625 -3.59375 C 2.828125 -3.890625 2.390625 -4.015625 1.953125 -4.015625 C 1.1875 -4.015625 0.5625 -3.640625 0.5625 -3.0625 C 0.5625 -2.796875 0.75 -2.640625 0.984375 -2.640625 C 1.234375 -2.640625 1.40625 -2.8125 1.40625 -3.046875 C 1.40625 -3.4375 1 -3.484375 1 -3.484375 C 1.234375 -3.71875 1.671875 -3.796875 1.921875 -3.796875 C 2.390625 -3.796875 2.890625 -3.453125 2.890625 -2.65625 L 2.890625 -2.375 C 2.40625 -2.34375 1.734375 -2.3125 1.140625 -2.015625 C 0.5 -1.703125 0.296875 -1.234375 0.296875 -0.875 C 0.296875 -0.140625 1.171875 0.09375 1.765625 0.09375 C 2.515625 0.09375 2.859375 -0.390625 2.984375 -0.640625 C 3.015625 -0.265625 3.28125 0.046875 3.671875 0.046875 C 3.890625 0.046875 4.453125 -0.078125 4.453125 -0.796875 Z M 2.890625 -1.265625 C 2.890625 -0.390625 2.21875 -0.125 1.828125 -0.125 C 1.40625 -0.125 1.015625 -0.4375 1.015625 -0.875 C 1.015625 -1.46875 1.53125 -2.09375 2.890625 -2.15625 Z M 2.890625 -1.265625 "/>
</g>
<g id="glyph-0-1">
<path d="M 4.34375 -1.90625 C 4.34375 -3.078125 3.40625 -4.015625 2.3125 -4.015625 C 1.171875 -4.015625 0.265625 -3.0625 0.265625 -1.90625 C 0.265625 -0.796875 1.1875 0.09375 2.296875 0.09375 C 3.4375 0.09375 4.34375 -0.8125 4.34375 -1.90625 Z M 3.5625 -1.984375 C 3.5625 -1.65625 3.5625 -1.140625 3.34375 -0.75 C 3.09375 -0.328125 2.6875 -0.15625 2.3125 -0.15625 C 1.859375 -0.15625 1.484375 -0.375 1.28125 -0.71875 C 1.046875 -1.109375 1.03125 -1.578125 1.03125 -1.984375 C 1.03125 -2.328125 1.03125 -2.828125 1.25 -3.203125 C 1.53125 -3.65625 1.96875 -3.796875 2.296875 -3.796875 C 2.8125 -3.796875 3.171875 -3.5 3.359375 -3.203125 C 3.5625 -2.828125 3.5625 -2.375 3.5625 -1.984375 Z M 3.5625 -1.984375 "/>
</g>
<g id="glyph-0-2">
<path d="M 4.90625 0 L 4.90625 -0.28125 C 4.296875 -0.28125 4.21875 -0.34375 4.21875 -0.78125 L 4.21875 -3.96875 L 2.859375 -3.859375 L 2.859375 -3.59375 C 3.46875 -3.59375 3.546875 -3.53125 3.546875 -3.078125 L 3.546875 -1.5 C 3.546875 -0.703125 3.109375 -0.125 2.453125 -0.125 C 1.71875 -0.125 1.671875 -0.515625 1.671875 -1 L 1.671875 -3.96875 L 0.3125 -3.859375 L 0.3125 -3.59375 C 1 -3.59375 1 -3.5625 1 -2.765625 L 1 -1.421875 C 1 -0.828125 1 -0.453125 1.421875 -0.140625 C 1.671875 0.03125 2.046875 0.09375 2.40625 0.09375 C 2.875 0.09375 3.3125 -0.109375 3.5625 -0.640625 L 3.578125 -0.640625 L 3.578125 0.09375 Z M 4.90625 0 "/>
</g>
<g id="glyph-0-3">
<path d="M 3.0625 -1.109375 L 3.0625 -1.625 L 2.8125 -1.625 L 2.8125 -1.140625 C 2.8125 -0.46875 2.53125 -0.15625 2.21875 -0.15625 C 1.609375 -0.15625 1.609375 -0.9375 1.609375 -1.109375 L 1.609375 -3.59375 L 2.921875 -3.59375 L 2.921875 -3.859375 L 1.609375 -3.859375 L 1.609375 -5.515625 L 1.359375 -5.515625 C 1.359375 -4.765625 1.046875 -3.84375 0.171875 -3.8125 L 0.171875 -3.59375 L 0.953125 -3.59375 L 0.953125 -1.109375 C 0.953125 -0.109375 1.671875 0.09375 2.15625 0.09375 C 2.75 0.09375 3.0625 -0.46875 3.0625 -1.109375 Z M 3.0625 -1.109375 "/>
</g>
<g id="glyph-0-4">
<path d="M 4.34375 -1.484375 L 4.34375 -1.765625 L 3.421875 -1.765625 L 3.421875 -5.828125 C 3.421875 -6.015625 3.421875 -6.078125 3.25 -6.078125 C 3.140625 -6.078125 3.140625 -6.0625 3.0625 -5.9375 L 0.265625 -1.765625 L 0.265625 -1.484375 L 2.703125 -1.484375 L 2.703125 -0.703125 C 2.703125 -0.375 2.6875 -0.28125 2.015625 -0.28125 L 1.8125 -0.28125 L 1.8125 0 C 2.375 -0.03125 3 -0.03125 3.0625 -0.03125 C 3.109375 -0.03125 3.765625 -0.03125 4.328125 0 L 4.328125 -0.28125 L 4.125 -0.28125 C 3.453125 -0.28125 3.421875 -0.375 3.421875 -0.703125 L 3.421875 -1.484375 Z M 2.765625 -1.765625 L 0.546875 -1.765625 L 2.765625 -5.078125 Z M 2.765625 -1.765625 "/>
</g>
<g id="glyph-0-5">
<path d="M 3.3125 -1.140625 C 3.3125 -1.546875 3.140625 -1.796875 2.9375 -2 C 2.640625 -2.296875 2.3125 -2.359375 1.65625 -2.484375 C 1.421875 -2.53125 0.765625 -2.640625 0.765625 -3.15625 C 0.765625 -3.4375 0.96875 -3.828125 1.78125 -3.828125 C 2.75 -3.828125 2.8125 -3.078125 2.828125 -2.859375 C 2.84375 -2.75 2.84375 -2.6875 2.953125 -2.6875 C 3.078125 -2.6875 3.078125 -2.75 3.078125 -2.921875 L 3.078125 -3.78125 C 3.078125 -3.9375 3.078125 -4.015625 2.984375 -4.015625 C 2.9375 -4.015625 2.921875 -4.015625 2.796875 -3.90625 C 2.78125 -3.890625 2.703125 -3.8125 2.640625 -3.765625 C 2.375 -3.96875 2.09375 -4.015625 1.78125 -4.015625 C 0.59375 -4.015625 0.3125 -3.359375 0.3125 -2.90625 C 0.3125 -2.625 0.4375 -2.390625 0.640625 -2.1875 C 0.9375 -1.90625 1.28125 -1.84375 1.734375 -1.765625 C 2.203125 -1.671875 2.34375 -1.65625 2.546875 -1.5 C 2.640625 -1.421875 2.859375 -1.25 2.859375 -0.921875 C 2.859375 -0.125 1.953125 -0.125 1.828125 -0.125 C 0.921875 -0.125 0.6875 -0.890625 0.578125 -1.375 C 0.546875 -1.46875 0.53125 -1.515625 0.4375 -1.515625 C 0.3125 -1.515625 0.3125 -1.4375 0.3125 -1.28125 L 0.3125 -0.140625 C 0.3125 0.015625 0.3125 0.09375 0.40625 0.09375 C 0.46875 0.09375 0.46875 0.09375 0.640625 -0.078125 C 0.671875 -0.140625 0.765625 -0.25 0.8125 -0.296875 C 1.1875 0.078125 1.609375 0.09375 1.828125 0.09375 C 2.9375 0.09375 3.3125 -0.546875 3.3125 -1.140625 Z M 3.3125 -1.140625 "/>
</g>
<g id="glyph-0-6">
<path d="M 4.84375 1.734375 L 4.84375 1.46875 C 4.25 1.46875 4.15625 1.46875 4.15625 1.046875 L 4.15625 -3.96875 L 3.921875 -3.96875 L 3.59375 -3.171875 C 3.171875 -3.890625 2.65625 -3.96875 2.34375 -3.96875 C 1.28125 -3.96875 0.3125 -3.109375 0.3125 -1.921875 C 0.3125 -0.796875 1.21875 0.09375 2.265625 0.09375 C 2.640625 0.09375 3.109375 -0.03125 3.484375 -0.53125 L 3.484375 1.046875 C 3.484375 1.46875 3.390625 1.46875 2.796875 1.46875 L 2.796875 1.734375 C 3.21875 1.71875 3.390625 1.71875 3.828125 1.71875 C 4.25 1.71875 4.375 1.71875 4.84375 1.734375 Z M 3.515625 -1.234375 C 3.515625 -1.078125 3.515625 -1.046875 3.375 -0.796875 C 3.15625 -0.40625 2.78125 -0.125 2.3125 -0.125 C 1.640625 -0.125 1.078125 -0.921875 1.078125 -1.921875 C 1.078125 -2.96875 1.71875 -3.71875 2.40625 -3.71875 C 3.109375 -3.71875 3.515625 -2.96875 3.515625 -2.46875 Z M 3.515625 -1.234375 "/>
</g>
<g id="glyph-0-7">
<path d="M 4.21875 -1.53125 C 4.21875 -2.3125 3.59375 -2.96875 2.734375 -3.15625 C 3.5625 -3.46875 3.96875 -4.125 3.96875 -4.75 C 3.96875 -5.4375 3.203125 -5.96875 2.265625 -5.96875 C 1.34375 -5.96875 0.640625 -5.4375 0.640625 -4.765625 C 0.640625 -4.46875 0.828125 -4.296875 1.09375 -4.296875 C 1.359375 -4.296875 1.546875 -4.484375 1.546875 -4.75 C 1.546875 -5.0625 1.328125 -5.1875 1.015625 -5.1875 C 1.25 -5.5625 1.796875 -5.75 2.25 -5.75 C 2.984375 -5.75 3.125 -5.15625 3.125 -4.734375 C 3.125 -4.46875 3.078125 -4.03125 2.859375 -3.6875 C 2.578125 -3.296875 2.265625 -3.28125 2 -3.25 C 1.78125 -3.234375 1.765625 -3.234375 1.6875 -3.234375 C 1.609375 -3.234375 1.53125 -3.21875 1.53125 -3.125 C 1.53125 -3 1.609375 -3 1.765625 -3 L 2.171875 -3 C 2.953125 -3 3.296875 -2.375 3.296875 -1.53125 C 3.296875 -0.375 2.6875 -0.046875 2.234375 -0.046875 C 2.0625 -0.046875 1.1875 -0.09375 0.796875 -0.765625 C 1.109375 -0.71875 1.359375 -0.9375 1.359375 -1.25 C 1.359375 -1.546875 1.140625 -1.734375 0.875 -1.734375 C 0.65625 -1.734375 0.390625 -1.59375 0.390625 -1.21875 C 0.390625 -0.421875 1.21875 0.203125 2.265625 0.203125 C 3.375 0.203125 4.21875 -0.609375 4.21875 -1.53125 Z M 4.21875 -1.53125 "/>
</g>
<g id="glyph-0-8">
<path d="M 3.828125 -1.0625 C 3.828125 -1.171875 3.734375 -1.171875 3.703125 -1.171875 C 3.609375 -1.171875 3.609375 -1.15625 3.546875 -1 C 3.34375 -0.390625 2.84375 -0.15625 2.390625 -0.15625 C 1.8125 -0.15625 1.078125 -0.625 1.078125 -1.953125 C 1.078125 -3.34375 1.796875 -3.765625 2.328125 -3.765625 C 2.453125 -3.765625 2.9375 -3.75 3.265625 -3.53125 C 3.078125 -3.484375 2.890625 -3.359375 2.890625 -3.109375 C 2.890625 -2.875 3.078125 -2.6875 3.3125 -2.6875 C 3.546875 -2.6875 3.734375 -2.84375 3.734375 -3.125 C 3.734375 -3.671875 3.109375 -4.015625 2.3125 -4.015625 C 1.171875 -4.015625 0.3125 -3.0625 0.3125 -1.9375 C 0.3125 -0.78125 1.234375 0.09375 2.296875 0.09375 C 3.546875 0.09375 3.828125 -0.984375 3.828125 -1.0625 Z M 3.828125 -1.0625 "/>
</g>
<g id="glyph-0-9">
<path d="M 3.828125 -1.0625 C 3.828125 -1.125 3.78125 -1.1875 3.703125 -1.1875 C 3.609375 -1.1875 3.59375 -1.125 3.578125 -1.078125 C 3.28125 -0.171875 2.46875 -0.15625 2.34375 -0.15625 C 1.90625 -0.15625 1.546875 -0.390625 1.34375 -0.703125 C 1.046875 -1.140625 1.03125 -1.671875 1.03125 -2.046875 L 3.59375 -2.046875 C 3.78125 -2.046875 3.828125 -2.046875 3.828125 -2.25 C 3.828125 -3.171875 3.328125 -4.015625 2.171875 -4.015625 C 1.109375 -4.015625 0.265625 -3.078125 0.265625 -1.96875 C 0.265625 -0.796875 1.203125 0.09375 2.296875 0.09375 C 3.390625 0.09375 3.828125 -0.859375 3.828125 -1.0625 Z M 3.21875 -2.265625 L 1.046875 -2.265625 C 1.125 -3.65625 1.921875 -3.796875 2.171875 -3.796875 C 2.671875 -3.796875 3.203125 -3.421875 3.21875 -2.265625 Z M 3.21875 -2.265625 "/>
</g>
<g id="glyph-0-10">
<path d="M 4.734375 0 L 4.734375 -0.28125 C 4.375 -0.28125 4.109375 -0.28125 3.90625 -0.53125 L 2.734375 -2.015625 C 2.671875 -2.09375 2.671875 -2.109375 2.671875 -2.109375 C 2.671875 -2.109375 3.375 -2.984375 3.4375 -3.0625 C 3.71875 -3.359375 4.03125 -3.578125 4.578125 -3.59375 L 4.578125 -3.859375 C 4.3125 -3.84375 4.078125 -3.84375 3.8125 -3.84375 C 3.46875 -3.84375 3.3125 -3.84375 2.953125 -3.859375 L 2.953125 -3.59375 C 3.078125 -3.5625 3.203125 -3.5 3.203125 -3.3125 C 3.203125 -3.171875 3.125 -3.078125 3.078125 -3.015625 L 2.5 -2.3125 L 1.796875 -3.203125 C 1.734375 -3.28125 1.71875 -3.296875 1.71875 -3.359375 C 1.71875 -3.46875 1.828125 -3.578125 2.03125 -3.59375 L 2.03125 -3.859375 C 1.6875 -3.84375 1.453125 -3.84375 1.046875 -3.84375 C 1.046875 -3.84375 0.515625 -3.84375 0.171875 -3.859375 L 0.171875 -3.59375 C 0.796875 -3.59375 0.8125 -3.5625 1.21875 -3.046875 L 2.140625 -1.890625 L 1.28125 -0.828125 C 0.828125 -0.296875 0.3125 -0.28125 0.125 -0.28125 L 0.125 0 C 0.390625 -0.03125 0.625 -0.03125 0.890625 -0.03125 C 1.171875 -0.03125 1.46875 -0.015625 1.75 0 L 1.75 -0.28125 C 1.53125 -0.3125 1.5 -0.453125 1.5 -0.546875 C 1.5 -0.578125 1.5 -0.703125 1.625 -0.859375 C 1.84375 -1.140625 2.078125 -1.40625 2.3125 -1.671875 L 3.015625 -0.765625 C 3.1875 -0.578125 3.1875 -0.5625 3.1875 -0.5 C 3.1875 -0.40625 3.09375 -0.28125 2.875 -0.28125 L 2.875 0 C 3.25 -0.015625 3.46875 -0.03125 3.859375 -0.03125 C 3.859375 -0.03125 4.390625 -0.03125 4.734375 0 Z M 4.734375 0 "/>
</g>
<g id="glyph-0-11">
<path d="M 4.90625 0 L 4.90625 -0.28125 C 4.453125 -0.28125 4.21875 -0.28125 4.21875 -0.5625 L 4.21875 -2.28125 C 4.21875 -3.015625 4.21875 -3.28125 3.96875 -3.59375 C 3.765625 -3.84375 3.421875 -3.96875 2.96875 -3.96875 C 2.140625 -3.96875 1.75 -3.34375 1.625 -3.09375 L 1.609375 -3.09375 L 1.609375 -3.96875 L 0.3125 -3.859375 L 0.3125 -3.59375 C 0.921875 -3.59375 1 -3.53125 1 -3.078125 L 1 -0.6875 C 1 -0.28125 0.90625 -0.28125 0.3125 -0.28125 L 0.3125 0 C 0.734375 -0.015625 0.90625 -0.03125 1.34375 -0.03125 C 1.765625 -0.03125 1.890625 -0.015625 2.359375 0 L 2.359375 -0.28125 C 1.765625 -0.28125 1.671875 -0.28125 1.671875 -0.6875 L 1.671875 -2.328125 C 1.671875 -3.28125 2.34375 -3.734375 2.90625 -3.734375 C 3.4375 -3.734375 3.546875 -3.296875 3.546875 -2.765625 L 3.546875 -0.6875 C 3.546875 -0.28125 3.453125 -0.28125 2.859375 -0.28125 L 2.859375 0 C 3.28125 -0.015625 3.453125 -0.03125 3.890625 -0.03125 C 4.3125 -0.03125 4.4375 -0.015625 4.90625 0 Z M 4.90625 0 "/>
</g>
<g id="glyph-0-12">
<path d="M 3.34375 -3.40625 C 3.34375 -3.6875 3.078125 -3.96875 2.671875 -3.96875 C 2.140625 -3.96875 1.765625 -3.59375 1.546875 -3.03125 L 1.546875 -3.96875 L 0.265625 -3.859375 L 0.265625 -3.59375 C 0.875 -3.59375 0.953125 -3.53125 0.953125 -3.078125 L 0.953125 -0.6875 C 0.953125 -0.28125 0.859375 -0.28125 0.265625 -0.28125 L 0.265625 0 C 0.75 -0.015625 0.859375 -0.03125 1.3125 -0.03125 L 2.453125 0 L 2.453125 -0.28125 L 2.28125 -0.28125 C 1.625 -0.28125 1.59375 -0.375 1.59375 -0.703125 L 1.59375 -2.046875 C 1.59375 -2.421875 1.6875 -3.734375 2.71875 -3.734375 C 2.703125 -3.71875 2.5625 -3.609375 2.5625 -3.40625 C 2.5625 -3.15625 2.75 -3 2.953125 -3 C 3.140625 -3 3.34375 -3.140625 3.34375 -3.40625 Z M 3.34375 -3.40625 "/>
</g>
<g id="glyph-0-13">
<path d="M 4.90625 0 L 4.90625 -0.28125 C 4.453125 -0.28125 4.21875 -0.28125 4.21875 -0.5625 L 4.21875 -2.28125 C 4.21875 -3.015625 4.21875 -3.28125 3.96875 -3.59375 C 3.765625 -3.84375 3.421875 -3.96875 2.96875 -3.96875 C 2.375 -3.96875 1.921875 -3.65625 1.65625 -3.140625 L 1.640625 -3.140625 L 1.640625 -6.21875 L 0.3125 -6.125 L 0.3125 -5.84375 C 0.921875 -5.84375 1 -5.78125 1 -5.34375 L 1 -0.6875 C 1 -0.28125 0.90625 -0.28125 0.3125 -0.28125 L 0.3125 0 C 0.734375 -0.015625 0.90625 -0.03125 1.34375 -0.03125 C 1.765625 -0.03125 1.890625 -0.015625 2.359375 0 L 2.359375 -0.28125 C 1.765625 -0.28125 1.671875 -0.28125 1.671875 -0.6875 L 1.671875 -2.328125 C 1.671875 -3.28125 2.34375 -3.734375 2.90625 -3.734375 C 3.4375 -3.734375 3.546875 -3.296875 3.546875 -2.765625 L 3.546875 -0.6875 C 3.546875 -0.28125 3.453125 -0.28125 2.859375 -0.28125 L 2.859375 0 C 3.28125 -0.015625 3.453125 -0.03125 3.890625 -0.03125 C 4.3125 -0.03125 4.4375 -0.015625 4.90625 0 Z M 4.90625 0 "/>
</g>
<g id="glyph-0-14">
<path d="M 6.46875 -3.59375 L 6.46875 -3.859375 C 6.109375 -3.84375 6.09375 -3.84375 5.796875 -3.84375 C 5.453125 -3.84375 5.328125 -3.84375 4.96875 -3.859375 L 4.96875 -3.59375 C 5.359375 -3.578125 5.484375 -3.34375 5.484375 -3.15625 C 5.484375 -3.0625 5.46875 -3.015625 5.4375 -2.953125 L 4.609375 -0.703125 L 3.703125 -3.171875 C 3.65625 -3.28125 3.65625 -3.3125 3.65625 -3.34375 C 3.65625 -3.5625 3.9375 -3.59375 4.171875 -3.59375 L 4.171875 -3.859375 C 3.765625 -3.84375 3.390625 -3.84375 3.25 -3.84375 C 2.96875 -3.84375 2.703125 -3.84375 2.421875 -3.859375 L 2.421875 -3.59375 C 2.703125 -3.59375 2.890625 -3.578125 2.984375 -3.453125 C 3.0625 -3.359375 3.1875 -3 3.1875 -2.96875 L 3.140625 -2.84375 L 2.40625 -0.828125 L 1.546875 -3.15625 C 1.5 -3.296875 1.5 -3.3125 1.5 -3.34375 C 1.5 -3.59375 1.84375 -3.59375 2.015625 -3.59375 L 2.015625 -3.859375 L 1.046875 -3.84375 C 0.75 -3.84375 0.484375 -3.84375 0.171875 -3.859375 L 0.171875 -3.59375 C 0.609375 -3.59375 0.71875 -3.5625 0.828125 -3.265625 L 1.984375 -0.09375 C 2.03125 0.015625 2.0625 0.09375 2.203125 0.09375 C 2.328125 0.09375 2.375 0 2.40625 -0.09375 L 3.3125 -2.59375 L 4.25 -0.09375 C 4.28125 0 4.3125 0.09375 4.453125 0.09375 C 4.578125 0.09375 4.609375 0.015625 4.640625 -0.078125 L 5.71875 -3 C 5.90625 -3.546875 6.28125 -3.578125 6.46875 -3.59375 Z M 6.46875 -3.59375 "/>
</g>
<g id="glyph-0-15">
<path d="M 3.875 0 L 3.875 -0.28125 L 3.59375 -0.28125 C 2.75 -0.28125 2.71875 -0.390625 2.71875 -0.71875 L 2.71875 -5.734375 C 2.71875 -5.953125 2.71875 -5.96875 2.5 -5.96875 C 1.9375 -5.40625 1.109375 -5.40625 0.828125 -5.40625 L 0.828125 -5.125 C 1 -5.125 1.546875 -5.125 2.03125 -5.359375 L 2.03125 -0.71875 C 2.03125 -0.390625 2.015625 -0.28125 1.171875 -0.28125 L 0.890625 -0.28125 L 0.890625 0 C 1.203125 -0.03125 2.015625 -0.03125 2.375 -0.03125 C 2.75 -0.03125 3.546875 -0.03125 3.875 0 Z M 3.875 0 "/>
</g>
<g id="glyph-0-16">
<path d="M 4.140625 -1.59375 L 3.890625 -1.59375 C 3.875 -1.46875 3.796875 -0.9375 3.6875 -0.796875 C 3.625 -0.71875 3.015625 -0.71875 2.828125 -0.71875 L 1.234375 -0.71875 L 2.125 -1.5625 C 3.59375 -2.828125 4.140625 -3.3125 4.140625 -4.21875 C 4.140625 -5.25 3.296875 -5.96875 2.1875 -5.96875 C 1.15625 -5.96875 0.453125 -5.15625 0.453125 -4.34375 C 0.453125 -3.890625 0.84375 -3.84375 0.921875 -3.84375 C 1.125 -3.84375 1.390625 -3.984375 1.390625 -4.3125 C 1.390625 -4.578125 1.203125 -4.78125 0.921875 -4.78125 C 0.875 -4.78125 0.859375 -4.78125 0.8125 -4.765625 C 1.03125 -5.40625 1.609375 -5.6875 2.09375 -5.6875 C 3 -5.6875 3.3125 -4.84375 3.3125 -4.21875 C 3.3125 -3.3125 2.625 -2.5625 2.203125 -2.09375 L 0.5625 -0.328125 C 0.453125 -0.21875 0.453125 -0.203125 0.453125 0 L 3.890625 0 Z M 4.140625 -1.59375 "/>
</g>
</g>
<clipPath id="clip-0">
<path clip-rule="nonzero" d="M 0 8.917969 L 90.703125 8.917969 L 90.703125 65.609375 L 0 65.609375 Z M 0 8.917969 "/>
</clipPath>
<clipPath id="clip-1">
<path clip-rule="nonzero" d="M 33 63 L 52 63 L 52 65.609375 L 33 65.609375 Z M 33 63 "/>
</clipPath>
<clipPath id="clip-2">
<path clip-rule="nonzero" d="M 42 49 L 61 49 L 61 65.609375 L 42 65.609375 Z M 42 49 "/>
</clipPath>
<clipPath id="clip-3">
<path clip-rule="nonzero" d="M 33 8.917969 L 52 8.917969 L 52 23 L 33 23 Z M 33 8.917969 "/>
</clipPath>
<clipPath id="clip-4">
<path clip-rule="nonzero" d="M 26 8.917969 L 33 8.917969 L 33 9 L 26 9 Z M 26 8.917969 "/>
</clipPath>
<clipPath id="clip-5">
<path clip-rule="nonzero" d="M 20 8.917969 L 38 8.917969 L 38 14 L 20 14 Z M 20 8.917969 "/>
</clipPath>
<clipPath id="clip-6">
<path clip-rule="nonzero" d="M 4 8.917969 L 23 8.917969 L 23 11 L 4 11 Z M 4 8.917969 "/>
</clipPath>
<clipPath id="clip-7">
<path clip-rule="nonzero" d="M 214 0 L 325 0 L 325 85.183594 L 214 85.183594 Z M 214 0 "/>
</clipPath>
<clipPath id="clip-8">
<path clip-rule="nonzero" d="M 333 4 L 348.746094 4 L 348.746094 10 L 333 10 Z M 333 4 "/>
</clipPath>
<clipPath id="clip-9">
<path clip-rule="nonzero" d="M 333 76 L 348.746094 76 L 348.746094 83 L 333 83 Z M 333 76 "/>
</clipPath>
<clipPath id="clip-10">
<path clip-rule="nonzero" d="M 240 79 L 253 79 L 253 85.183594 L 240 85.183594 Z M 240 79 "/>
</clipPath>
<clipPath id="clip-11">
<path clip-rule="nonzero" d="M 256 78 L 279 78 L 279 85.183594 L 256 85.183594 Z M 256 78 "/>
</clipPath>
</defs>
<g clip-path="url(#clip-0)">
<path fill="none" stroke-width="3.17429" stroke-linecap="round" stroke-linejoin="miter" stroke="rgb(0%, 0%, 0%)" stroke-opacity="1" stroke-miterlimit="10" d="M -20.591031 0.00040625 L 19.967562 7.15275 " transform="matrix(1, 0, 0, -1, 34.009, 42.934)"/>
</g>
<g clip-path="url(#clip-1)">
<path fill="none" stroke-width="0.3985" stroke-linecap="butt" stroke-linejoin="miter" stroke="rgb(0%, 0%, 0%)" stroke-opacity="1" stroke-miterlimit="10" d="M 11.701937 -29.120688 C 11.701937 -27.366781 10.283969 -25.944906 8.530062 -25.944906 C 6.776156 -25.944906 5.354281 -27.366781 5.354281 -29.120688 C 5.354281 -30.874594 6.776156 -32.292563 8.530062 -32.292563 C 10.283969 -32.292563 11.701937 -30.874594 11.701937 -29.120688 Z M 11.701937 -29.120688 " transform="matrix(1, 0, 0, -1, 34.009, 42.934)"/>
</g>
<path fill-rule="nonzero" fill="rgb(100%, 100%, 100%)" fill-opacity="1" d="M 54.636719 58.691406 C 54.636719 56.941406 53.214844 55.519531 51.464844 55.519531 C 49.710938 55.519531 48.289062 56.941406 48.289062 58.691406 C 48.289062 60.445312 49.710938 61.867188 51.464844 61.867188 C 53.214844 61.867188 54.636719 60.445312 54.636719 58.691406 Z M 54.636719 58.691406 "/>
<g clip-path="url(#clip-2)">
<path fill="none" stroke-width="0.3985" stroke-linecap="butt" stroke-linejoin="miter" stroke="rgb(0%, 0%, 0%)" stroke-opacity="1" stroke-miterlimit="10" d="M 20.627719 -15.757406 C 20.627719 -14.007406 19.205844 -12.585531 17.455844 -12.585531 C 15.701937 -12.585531 14.280062 -14.007406 14.280062 -15.757406 C 14.280062 -17.511313 15.701937 -18.933188 17.455844 -18.933188 C 19.205844 -18.933188 20.627719 -17.511313 20.627719 -15.757406 Z M 20.627719 -15.757406 " transform="matrix(1, 0, 0, -1, 34.009, 42.934)"/>
</g>
<path fill-rule="nonzero" fill="rgb(100%, 100%, 100%)" fill-opacity="1" stroke-width="0.3985" stroke-linecap="butt" stroke-linejoin="miter" stroke="rgb(0%, 0%, 0%)" stroke-opacity="1" stroke-miterlimit="10" d="M 23.764437 0.00040625 C 23.764437 1.754312 22.342562 3.176187 20.592562 3.176187 C 18.838656 3.176187 17.416781 1.754312 17.416781 0.00040625 C 17.416781 -1.7535 18.838656 -3.175375 20.592562 -3.175375 C 22.342562 -3.175375 23.764437 -1.7535 23.764437 0.00040625 Z M 23.764437 0.00040625 " transform="matrix(1, 0, 0, -1, 34.009, 42.934)"/>
<path fill-rule="nonzero" fill="rgb(100%, 100%, 100%)" fill-opacity="1" stroke-width="0.3985" stroke-linecap="butt" stroke-linejoin="miter" stroke="rgb(0%, 0%, 0%)" stroke-opacity="1" stroke-miterlimit="10" d="M 20.627719 15.758219 C 20.627719 17.512125 19.205844 18.934 17.455844 18.934 C 15.701937 18.934 14.280062 17.512125 14.280062 15.758219 C 14.280062 14.004312 15.701937 12.582437 17.455844 12.582437 C 19.205844 12.582437 20.627719 14.004312 20.627719 15.758219 Z M 20.627719 15.758219 " transform="matrix(1, 0, 0, -1, 34.009, 42.934)"/>
<path fill-rule="nonzero" fill="rgb(100%, 100%, 100%)" fill-opacity="1" d="M 45.710938 13.8125 C 45.710938 12.0625 44.292969 10.640625 42.539062 10.640625 C 40.785156 10.640625 39.363281 12.0625 39.363281 13.8125 C 39.363281 15.566406 40.785156 16.988281 42.539062 16.988281 C 44.292969 16.988281 45.710938 15.566406 45.710938 13.8125 Z M 45.710938 13.8125 "/>
<g clip-path="url(#clip-3)">
<path fill="none" stroke-width="0.3985" stroke-linecap="butt" stroke-linejoin="miter" stroke="rgb(0%, 0%, 0%)" stroke-opacity="1" stroke-miterlimit="10" d="M 11.701937 29.1215 C 11.701937 30.8715 10.283969 32.293375 8.530062 32.293375 C 6.776156 32.293375 5.354281 30.8715 5.354281 29.1215 C 5.354281 27.367594 6.776156 25.945719 8.530062 25.945719 C 10.283969 25.945719 11.701937 27.367594 11.701937 29.1215 Z M 11.701937 29.1215 " transform="matrix(1, 0, 0, -1, 34.009, 42.934)"/>
</g>
<g clip-path="url(#clip-4)">
<path fill-rule="nonzero" fill="rgb(100%, 100%, 100%)" fill-opacity="1" d="M 32.351562 4.886719 C 32.351562 3.136719 30.929688 1.714844 29.175781 1.714844 C 27.421875 1.714844 26.003906 3.136719 26.003906 4.886719 C 26.003906 6.640625 27.421875 8.0625 29.175781 8.0625 C 30.929688 8.0625 32.351562 6.640625 32.351562 4.886719 Z M 32.351562 4.886719 "/>
</g>
<g clip-path="url(#clip-5)">
<path fill="none" stroke-width="0.3985" stroke-linecap="butt" stroke-linejoin="miter" stroke="rgb(0%, 0%, 0%)" stroke-opacity="1" stroke-miterlimit="10" d="M -1.657438 38.047281 C -1.657438 39.797281 -3.079313 41.219156 -4.833219 41.219156 C -6.587125 41.219156 -8.005094 39.797281 -8.005094 38.047281 C -8.005094 36.293375 -6.587125 34.8715 -4.833219 34.8715 C -3.079313 34.8715 -1.657438 36.293375 -1.657438 38.047281 Z M -1.657438 38.047281 " transform="matrix(1, 0, 0, -1, 34.009, 42.934)"/>
</g>
<g clip-path="url(#clip-6)">
<path fill="none" stroke-width="0.3985" stroke-linecap="butt" stroke-linejoin="miter" stroke="rgb(0%, 0%, 0%)" stroke-opacity="1" stroke-miterlimit="10" d="M -17.41525 41.180094 C -17.41525 42.934 -18.837125 44.355875 -20.591031 44.355875 C -22.344938 44.355875 -23.766813 42.934 -23.766813 41.180094 C -23.766813 39.430094 -22.344938 38.008219 -20.591031 38.008219 C -18.837125 38.008219 -17.41525 39.430094 -17.41525 41.180094 Z M -17.41525 41.180094 " transform="matrix(1, 0, 0, -1, 34.009, 42.934)"/>
</g>
<path fill-rule="nonzero" fill="rgb(100%, 100%, 100%)" fill-opacity="1" stroke-width="0.3985" stroke-linecap="butt" stroke-linejoin="miter" stroke="rgb(0%, 0%, 0%)" stroke-opacity="1" stroke-miterlimit="10" d="M -17.41525 0.00040625 C -17.41525 1.754312 -18.837125 3.176187 -20.591031 3.176187 C -22.344938 3.176187 -23.766813 1.754312 -23.766813 0.00040625 C -23.766813 -1.7535 -22.344938 -3.175375 -20.591031 -3.175375 C -18.837125 -3.175375 -17.41525 -1.7535 -17.41525 0.00040625 Z M -17.41525 0.00040625 " transform="matrix(1, 0, 0, -1, 34.009, 42.934)"/>
<path fill="none" stroke-width="0.3985" stroke-linecap="butt" stroke-linejoin="miter" stroke="rgb(0%, 0%, 100%)" stroke-opacity="1" stroke-dasharray="2.98883 2.98883" stroke-miterlimit="10" d="M -20.591031 0.00040625 L 30.885531 21.320719 " transform="matrix(1, 0, 0, -1, 34.009, 42.934)"/>
<path fill="none" stroke-width="0.3985" stroke-linecap="butt" stroke-linejoin="miter" stroke="rgb(100%, 0%, 0%)" stroke-opacity="1" stroke-miterlimit="10" d="M 21.795687 16.973062 C 21.795687 17.750406 21.166781 18.383219 20.385531 18.383219 C 19.608187 18.383219 18.979281 17.750406 18.979281 16.973062 C 18.979281 16.195719 19.608187 15.562906 20.385531 15.562906 C 21.166781 15.562906 21.795687 16.195719 21.795687 16.973062 Z M 21.795687 16.973062 " transform="matrix(1, 0, 0, -1, 34.009, 42.934)"/>
<g fill="rgb(100%, 0%, 0%)" fill-opacity="1">
<use xlink:href="#glyph-0-0" x="71.979" y="36.855"/>
<use xlink:href="#glyph-0-1" x="76.586833" y="36.855"/>
<use xlink:href="#glyph-0-2" x="81.194666" y="36.855"/>
<use xlink:href="#glyph-0-3" x="86.31448" y="36.855"/>
</g>
<g fill="rgb(100%, 0%, 0%)" fill-opacity="1">
<use xlink:href="#glyph-0-4" x="92.973826" y="36.855"/>
</g>
<path fill="none" stroke-width="0.19925" stroke-linecap="butt" stroke-linejoin="miter" stroke="rgb(100%, 0%, 0%)" stroke-opacity="1" stroke-miterlimit="10" d="M 21.940219 16.562906 L 37.444125 12.449625 " transform="matrix(1, 0, 0, -1, 34.009, 42.934)"/>
<path fill="none" stroke-width="0.3985" stroke-linecap="butt" stroke-linejoin="miter" stroke="rgb(100%, 0%, 0%)" stroke-opacity="1" stroke-miterlimit="10" d="M 32.295687 21.320719 C 32.295687 22.101969 31.662875 22.730875 30.885531 22.730875 C 30.108187 22.730875 29.475375 22.101969 29.475375 21.320719 C 29.475375 20.543375 30.108187 19.914469 30.885531 19.914469 C 31.662875 19.914469 32.295687 20.543375 32.295687 21.320719 Z M 32.295687 21.320719 " transform="matrix(1, 0, 0, -1, 34.009, 42.934)"/>
<g fill="rgb(100%, 0%, 0%)" fill-opacity="1">
<use xlink:href="#glyph-0-5" x="83.074" y="23.577"/>
<use xlink:href="#glyph-0-6" x="86.708979" y="23.577"/>
<use xlink:href="#glyph-0-1" x="91.572354" y="23.577"/>
<use xlink:href="#glyph-0-2" x="96.180187" y="23.577"/>
<use xlink:href="#glyph-0-3" x="101.300001" y="23.577"/>
</g>
<g fill="rgb(100%, 0%, 0%)" fill-opacity="1">
<use xlink:href="#glyph-0-4" x="107.959347" y="23.577"/>
</g>
<path fill="none" stroke-width="0.19925" stroke-linecap="butt" stroke-linejoin="miter" stroke="rgb(100%, 0%, 0%)" stroke-opacity="1" stroke-miterlimit="10" d="M 32.494906 21.320719 L 48.369906 21.320719 " transform="matrix(1, 0, 0, -1, 34.009, 42.934)"/>
<path fill="none" stroke-width="0.3985" stroke-linecap="butt" stroke-linejoin="miter" stroke="rgb(100%, 0%, 0%)" stroke-opacity="1" stroke-miterlimit="10" d="M 13.112094 29.1215 C 13.112094 29.898844 12.483187 30.52775 11.701937 30.52775 C 10.924594 30.52775 10.295687 29.898844 10.295687 29.1215 C 10.295687 28.34025 10.924594 27.711344 11.701937 27.711344 C 12.483187 27.711344 13.112094 28.34025 13.112094 29.1215 Z M 13.112094 29.1215 " transform="matrix(1, 0, 0, -1, 34.009, 42.934)"/>
<g fill="rgb(100%, 0%, 0%)" fill-opacity="1">
<use xlink:href="#glyph-0-1" x="63.296" y="8.593"/>
<use xlink:href="#glyph-0-2" x="67.903833" y="8.593"/>
<use xlink:href="#glyph-0-3" x="73.023647" y="8.593"/>
</g>
<g fill="rgb(100%, 0%, 0%)" fill-opacity="1">
<use xlink:href="#glyph-0-7" x="79.674026" y="8.593"/>
</g>
<path fill="none" stroke-width="0.19925" stroke-linecap="butt" stroke-linejoin="miter" stroke="rgb(100%, 0%, 0%)" stroke-opacity="1" stroke-miterlimit="10" d="M 13.248812 29.562906 L 28.588656 33.96525 " transform="matrix(1, 0, 0, -1, 34.009, 42.934)"/>
<path fill="none" stroke-width="0.3985" stroke-linecap="butt" stroke-linejoin="miter" stroke="rgb(100%, 0%, 0%)" stroke-opacity="1" stroke-miterlimit="10" d="M 9.936312 29.1215 C 9.936312 29.898844 9.307406 30.52775 8.530062 30.52775 C 7.752719 30.52775 7.119906 29.898844 7.119906 29.1215 C 7.119906 28.34025 7.752719 27.711344 8.530062 27.711344 C 9.307406 27.711344 9.936312 28.34025 9.936312 29.1215 Z M 9.936312 29.1215 " transform="matrix(1, 0, 0, -1, 34.009, 42.934)"/>
<g fill="rgb(100%, 0%, 0%)" fill-opacity="1">
<use xlink:href="#glyph-0-8" x="-0.728" y="16.651"/>
<use xlink:href="#glyph-0-1" x="3.367852" y="16.651"/>
<use xlink:href="#glyph-0-2" x="7.975684" y="16.651"/>
<use xlink:href="#glyph-0-3" x="13.095499" y="16.651"/>
</g>
<g fill="rgb(100%, 0%, 0%)" fill-opacity="1">
<use xlink:href="#glyph-0-7" x="19.754844" y="16.651"/>
</g>
<path fill="none" stroke-width="0.19925" stroke-linecap="butt" stroke-linejoin="miter" stroke="rgb(100%, 0%, 0%)" stroke-opacity="1" stroke-miterlimit="10" d="M 6.920687 29.1215 L -8.954313 29.1215 " transform="matrix(1, 0, 0, -1, 34.009, 42.934)"/>
<g clip-path="url(#clip-7)">
<path fill="none" stroke-width="3.17429" stroke-linecap="round" stroke-linejoin="miter" stroke="rgb(0%, 0%, 0%)" stroke-opacity="1" stroke-miterlimit="10" d="M 225.393344 0.00040625 L 245.674594 3.574625 " transform="matrix(1, 0, 0, -1, 34.009, 42.934)"/>
</g>
<path fill-rule="nonzero" fill="rgb(100%, 100%, 100%)" fill-opacity="1" stroke-width="0.3985" stroke-linecap="butt" stroke-linejoin="miter" stroke="rgb(0%, 0%, 0%)" stroke-opacity="1" stroke-miterlimit="10" d="M 209.151156 -10.296469 C 209.151156 -9.417563 208.440219 -8.706625 207.561312 -8.706625 C 206.686312 -8.706625 205.975375 -9.417563 205.975375 -10.296469 C 205.975375 -11.171469 206.686312 -11.882406 207.561312 -11.882406 C 208.440219 -11.882406 209.151156 -11.171469 209.151156 -10.296469 Z M 209.151156 -10.296469 " transform="matrix(1, 0, 0, -1, 34.009, 42.934)"/>
<path fill-rule="nonzero" fill="rgb(100%, 100%, 100%)" fill-opacity="1" stroke-width="0.3985" stroke-linecap="butt" stroke-linejoin="miter" stroke="rgb(0%, 0%, 0%)" stroke-opacity="1" stroke-miterlimit="10" d="M 211.20975 -13.233969 C 211.20975 -12.358969 210.498812 -11.648031 209.619906 -11.648031 C 208.744906 -11.648031 208.033969 -12.358969 208.033969 -13.233969 C 208.033969 -14.112875 208.744906 -14.823813 209.619906 -14.823813 C 210.498812 -14.823813 211.20975 -14.112875 211.20975 -13.233969 Z M 211.20975 -13.233969 " transform="matrix(1, 0, 0, -1, 34.009, 42.934)"/>
<path fill-rule="nonzero" fill="rgb(100%, 100%, 100%)" fill-opacity="1" stroke-width="0.3985" stroke-linecap="butt" stroke-linejoin="miter" stroke="rgb(0%, 0%, 0%)" stroke-opacity="1" stroke-miterlimit="10" d="M 213.744906 -15.773031 C 213.744906 -14.898031 213.037875 -14.187094 212.158969 -14.187094 C 211.283969 -14.187094 210.573031 -14.898031 210.573031 -15.773031 C 210.573031 -16.648031 211.283969 -17.358969 212.158969 -17.358969 C 213.037875 -17.358969 213.744906 -16.648031 213.744906 -15.773031 Z M 213.744906 -15.773031 " transform="matrix(1, 0, 0, -1, 34.009, 42.934)"/>
<path fill-rule="nonzero" fill="rgb(100%, 100%, 100%)" fill-opacity="1" stroke-width="0.3985" stroke-linecap="butt" stroke-linejoin="miter" stroke="rgb(0%, 0%, 0%)" stroke-opacity="1" stroke-miterlimit="10" d="M 216.686312 -17.831625 C 216.686312 -16.956625 215.975375 -16.245688 215.100375 -16.245688 C 214.221469 -16.245688 213.514437 -16.956625 213.514437 -17.831625 C 213.514437 -18.710531 214.221469 -19.417563 215.100375 -19.417563 C 215.975375 -19.417563 216.686312 -18.710531 216.686312 -17.831625 Z M 216.686312 -17.831625 " transform="matrix(1, 0, 0, -1, 34.009, 42.934)"/>
<path fill-rule="nonzero" fill="rgb(100%, 100%, 100%)" fill-opacity="1" stroke-width="0.3985" stroke-linecap="butt" stroke-linejoin="miter" stroke="rgb(0%, 0%, 0%)" stroke-opacity="1" stroke-miterlimit="10" d="M 219.940219 -19.34725 C 219.940219 -18.47225 219.229281 -17.761313 218.354281 -17.761313 C 217.475375 -17.761313 216.764437 -18.47225 216.764437 -19.34725 C 216.764437 -20.226156 217.475375 -20.937094 218.354281 -20.937094 C 219.229281 -20.937094 219.940219 -20.226156 219.940219 -19.34725 Z M 219.940219 -19.34725 " transform="matrix(1, 0, 0, -1, 34.009, 42.934)"/>
<path fill-rule="nonzero" fill="rgb(100%, 100%, 100%)" fill-opacity="1" stroke-width="0.3985" stroke-linecap="butt" stroke-linejoin="miter" stroke="rgb(0%, 0%, 0%)" stroke-opacity="1" stroke-miterlimit="10" d="M 223.405062 -20.276938 C 223.405062 -19.401938 222.698031 -18.691 221.819125 -18.691 C 220.944125 -18.691 220.233187 -19.401938 220.233187 -20.276938 C 220.233187 -21.155844 220.944125 -21.866781 221.819125 -21.866781 C 222.698031 -21.866781 223.405062 -21.155844 223.405062 -20.276938 Z M 223.405062 -20.276938 " transform="matrix(1, 0, 0, -1, 34.009, 42.934)"/>
<path fill-rule="nonzero" fill="rgb(100%, 100%, 100%)" fill-opacity="1" stroke-width="0.3985" stroke-linecap="butt" stroke-linejoin="miter" stroke="rgb(0%, 0%, 0%)" stroke-opacity="1" stroke-miterlimit="10" d="M 226.983187 -20.589438 C 226.983187 -19.714438 226.27225 -19.0035 225.393344 -19.0035 C 224.518344 -19.0035 223.807406 -19.714438 223.807406 -20.589438 C 223.807406 -21.468344 224.518344 -22.179281 225.393344 -22.179281 C 226.27225 -22.179281 226.983187 -21.468344 226.983187 -20.589438 Z M 226.983187 -20.589438 " transform="matrix(1, 0, 0, -1, 34.009, 42.934)"/>
<path fill-rule="nonzero" fill="rgb(100%, 100%, 100%)" fill-opacity="1" stroke-width="0.3985" stroke-linecap="butt" stroke-linejoin="miter" stroke="rgb(0%, 0%, 0%)" stroke-opacity="1" stroke-miterlimit="10" d="M 230.557406 -20.276938 C 230.557406 -19.401938 229.846469 -18.691 228.971469 -18.691 C 228.092562 -18.691 227.381625 -19.401938 227.381625 -20.276938 C 227.381625 -21.155844 228.092562 -21.866781 228.971469 -21.866781 C 229.846469 -21.866781 230.557406 -21.155844 230.557406 -20.276938 Z M 230.557406 -20.276938 " transform="matrix(1, 0, 0, -1, 34.009, 42.934)"/>
<path fill-rule="nonzero" fill="rgb(100%, 100%, 100%)" fill-opacity="1" stroke-width="0.3985" stroke-linecap="butt" stroke-linejoin="miter" stroke="rgb(0%, 0%, 0%)" stroke-opacity="1" stroke-miterlimit="10" d="M 234.026156 -19.34725 C 234.026156 -18.47225 233.315219 -17.761313 232.436312 -17.761313 C 231.561312 -17.761313 230.850375 -18.47225 230.850375 -19.34725 C 230.850375 -20.226156 231.561312 -20.937094 232.436312 -20.937094 C 233.315219 -20.937094 234.026156 -20.226156 234.026156 -19.34725 Z M 234.026156 -19.34725 " transform="matrix(1, 0, 0, -1, 34.009, 42.934)"/>
<path fill-rule="nonzero" fill="rgb(100%, 100%, 100%)" fill-opacity="1" stroke-width="0.3985" stroke-linecap="butt" stroke-linejoin="miter" stroke="rgb(0%, 0%, 0%)" stroke-opacity="1" stroke-miterlimit="10" d="M 237.276156 -17.831625 C 237.276156 -16.956625 236.565219 -16.245688 235.690219 -16.245688 C 234.815219 -16.245688 234.104281 -16.956625 234.104281 -17.831625 C 234.104281 -18.710531 234.815219 -19.417563 235.690219 -19.417563 C 236.565219 -19.417563 237.276156 -18.710531 237.276156 -17.831625 Z M 237.276156 -17.831625 " transform="matrix(1, 0, 0, -1, 34.009, 42.934)"/>
<path fill-rule="nonzero" fill="rgb(100%, 100%, 100%)" fill-opacity="1" stroke-width="0.3985" stroke-linecap="butt" stroke-linejoin="miter" stroke="rgb(0%, 0%, 0%)" stroke-opacity="1" stroke-miterlimit="10" d="M 240.217562 -15.773031 C 240.217562 -14.898031 239.506625 -14.187094 238.631625 -14.187094 C 237.752719 -14.187094 237.041781 -14.898031 237.041781 -15.773031 C 237.041781 -16.648031 237.752719 -17.358969 238.631625 -17.358969 C 239.506625 -17.358969 240.217562 -16.648031 240.217562 -15.773031 Z M 240.217562 -15.773031 " transform="matrix(1, 0, 0, -1, 34.009, 42.934)"/>
<path fill-rule="nonzero" fill="rgb(100%, 100%, 100%)" fill-opacity="1" stroke-width="0.3985" stroke-linecap="butt" stroke-linejoin="miter" stroke="rgb(0%, 0%, 0%)" stroke-opacity="1" stroke-miterlimit="10" d="M 242.756625 -13.233969 C 242.756625 -12.358969 242.045687 -11.648031 241.166781 -11.648031 C 240.291781 -11.648031 239.580844 -12.358969 239.580844 -13.233969 C 239.580844 -14.112875 240.291781 -14.823813 241.166781 -14.823813 C 242.045687 -14.823813 242.756625 -14.112875 242.756625 -13.233969 Z M 242.756625 -13.233969 " transform="matrix(1, 0, 0, -1, 34.009, 42.934)"/>
<path fill-rule="nonzero" fill="rgb(100%, 100%, 100%)" fill-opacity="1" stroke-width="0.3985" stroke-linecap="butt" stroke-linejoin="miter" stroke="rgb(0%, 0%, 0%)" stroke-opacity="1" stroke-miterlimit="10" d="M 244.815219 -10.296469 C 244.815219 -9.417563 244.104281 -8.706625 243.229281 -8.706625 C 242.350375 -8.706625 241.639437 -9.417563 241.639437 -10.296469 C 241.639437 -11.171469 242.350375 -11.882406 243.229281 -11.882406 C 244.104281 -11.882406 244.815219 -11.171469 244.815219 -10.296469 Z M 244.815219 -10.296469 " transform="matrix(1, 0, 0, -1, 34.009, 42.934)"/>
<path fill-rule="nonzero" fill="rgb(100%, 100%, 100%)" fill-opacity="1" stroke-width="0.3985" stroke-linecap="butt" stroke-linejoin="miter" stroke="rgb(0%, 0%, 0%)" stroke-opacity="1" stroke-miterlimit="10" d="M 246.330844 -7.042563 C 246.330844 -6.167563 245.619906 -5.456625 244.744906 -5.456625 C 243.866 -5.456625 243.158969 -6.167563 243.158969 -7.042563 C 243.158969 -7.917563 243.866 -8.6285 244.744906 -8.6285 C 245.619906 -8.6285 246.330844 -7.917563 246.330844 -7.042563 Z M 246.330844 -7.042563 " transform="matrix(1, 0, 0, -1, 34.009, 42.934)"/>
<path fill-rule="nonzero" fill="rgb(100%, 100%, 100%)" fill-opacity="1" stroke-width="0.3985" stroke-linecap="butt" stroke-linejoin="miter" stroke="rgb(0%, 0%, 0%)" stroke-opacity="1" stroke-miterlimit="10" d="M 247.260531 -3.573813 C 247.260531 -2.698813 246.549594 -1.987875 245.674594 -1.987875 C 244.795687 -1.987875 244.08475 -2.698813 244.08475 -3.573813 C 244.08475 -4.452719 244.795687 -5.163656 245.674594 -5.163656 C 246.549594 -5.163656 247.260531 -4.452719 247.260531 -3.573813 Z M 247.260531 -3.573813 " transform="matrix(1, 0, 0, -1, 34.009, 42.934)"/>
<path fill-rule="nonzero" fill="rgb(100%, 100%, 100%)" fill-opacity="1" stroke-width="0.3985" stroke-linecap="butt" stroke-linejoin="miter" stroke="rgb(0%, 0%, 0%)" stroke-opacity="1" stroke-miterlimit="10" d="M 247.573031 0.00040625 C 247.573031 0.875406 246.862094 1.586344 245.987094 1.586344 C 245.108187 1.586344 244.39725 0.875406 244.39725 0.00040625 C 244.39725 -0.8785 245.108187 -1.585531 245.987094 -1.585531 C 246.862094 -1.585531 247.573031 -0.8785 247.573031 0.00040625 Z M 247.573031 0.00040625 " transform="matrix(1, 0, 0, -1, 34.009, 42.934)"/>
<path fill-rule="nonzero" fill="rgb(100%, 100%, 100%)" fill-opacity="1" stroke-width="0.3985" stroke-linecap="butt" stroke-linejoin="miter" stroke="rgb(0%, 0%, 0%)" stroke-opacity="1" stroke-miterlimit="10" d="M 247.260531 3.574625 C 247.260531 4.453531 246.549594 5.164469 245.674594 5.164469 C 244.795687 5.164469 244.08475 4.453531 244.08475 3.574625 C 244.08475 2.699625 244.795687 1.988687 245.674594 1.988687 C 246.549594 1.988687 247.260531 2.699625 247.260531 3.574625 Z M 247.260531 3.574625 " transform="matrix(1, 0, 0, -1, 34.009, 42.934)"/>
<path fill-rule="nonzero" fill="rgb(100%, 100%, 100%)" fill-opacity="1" stroke-width="0.3985" stroke-linecap="butt" stroke-linejoin="miter" stroke="rgb(0%, 0%, 0%)" stroke-opacity="1" stroke-miterlimit="10" d="M 246.330844 7.043375 C 246.330844 7.918375 245.619906 8.629312 244.744906 8.629312 C 243.866 8.629312 243.158969 7.918375 243.158969 7.043375 C 243.158969 6.164469 243.866 5.453531 244.744906 5.453531 C 245.619906 5.453531 246.330844 6.164469 246.330844 7.043375 Z M 246.330844 7.043375 " transform="matrix(1, 0, 0, -1, 34.009, 42.934)"/>
<path fill-rule="nonzero" fill="rgb(100%, 100%, 100%)" fill-opacity="1" stroke-width="0.3985" stroke-linecap="butt" stroke-linejoin="miter" stroke="rgb(0%, 0%, 0%)" stroke-opacity="1" stroke-miterlimit="10" d="M 244.815219 10.297281 C 244.815219 11.172281 244.104281 11.883219 243.229281 11.883219 C 242.350375 11.883219 241.639437 11.172281 241.639437 10.297281 C 241.639437 9.418375 242.350375 8.707437 243.229281 8.707437 C 244.104281 8.707437 244.815219 9.418375 244.815219 10.297281 Z M 244.815219 10.297281 " transform="matrix(1, 0, 0, -1, 34.009, 42.934)"/>
<path fill-rule="nonzero" fill="rgb(100%, 100%, 100%)" fill-opacity="1" stroke-width="0.3985" stroke-linecap="butt" stroke-linejoin="miter" stroke="rgb(0%, 0%, 0%)" stroke-opacity="1" stroke-miterlimit="10" d="M 242.756625 13.234781 C 242.756625 14.113687 242.045687 14.824625 241.166781 14.824625 C 240.291781 14.824625 239.580844 14.113687 239.580844 13.234781 C 239.580844 12.359781 240.291781 11.648844 241.166781 11.648844 C 242.045687 11.648844 242.756625 12.359781 242.756625 13.234781 Z M 242.756625 13.234781 " transform="matrix(1, 0, 0, -1, 34.009, 42.934)"/>
<path fill-rule="nonzero" fill="rgb(100%, 100%, 100%)" fill-opacity="1" stroke-width="0.3985" stroke-linecap="butt" stroke-linejoin="miter" stroke="rgb(0%, 0%, 0%)" stroke-opacity="1" stroke-miterlimit="10" d="M 240.217562 15.773844 C 240.217562 16.648844 239.506625 17.359781 238.631625 17.359781 C 237.752719 17.359781 237.041781 16.648844 237.041781 15.773844 C 237.041781 14.894937 237.752719 14.187906 238.631625 14.187906 C 239.506625 14.187906 240.217562 14.894937 240.217562 15.773844 Z M 240.217562 15.773844 " transform="matrix(1, 0, 0, -1, 34.009, 42.934)"/>
<path fill-rule="nonzero" fill="rgb(100%, 100%, 100%)" fill-opacity="1" stroke-width="0.3985" stroke-linecap="butt" stroke-linejoin="miter" stroke="rgb(0%, 0%, 0%)" stroke-opacity="1" stroke-miterlimit="10" d="M 237.276156 17.832437 C 237.276156 18.707437 236.565219 19.418375 235.690219 19.418375 C 234.815219 19.418375 234.104281 18.707437 234.104281 17.832437 C 234.104281 16.957437 234.815219 16.2465 235.690219 16.2465 C 236.565219 16.2465 237.276156 16.957437 237.276156 17.832437 Z M 237.276156 17.832437 " transform="matrix(1, 0, 0, -1, 34.009, 42.934)"/>
<path fill-rule="nonzero" fill="rgb(100%, 100%, 100%)" fill-opacity="1" stroke-width="0.3985" stroke-linecap="butt" stroke-linejoin="miter" stroke="rgb(0%, 0%, 0%)" stroke-opacity="1" stroke-miterlimit="10" d="M 234.026156 19.348062 C 234.026156 20.226969 233.315219 20.937906 232.436312 20.937906 C 231.561312 20.937906 230.850375 20.226969 230.850375 19.348062 C 230.850375 18.473062 231.561312 17.762125 232.436312 17.762125 C 233.315219 17.762125 234.026156 18.473062 234.026156 19.348062 Z M 234.026156 19.348062 " transform="matrix(1, 0, 0, -1, 34.009, 42.934)"/>
<path fill-rule="nonzero" fill="rgb(100%, 100%, 100%)" fill-opacity="1" stroke-width="0.3985" stroke-linecap="butt" stroke-linejoin="miter" stroke="rgb(0%, 0%, 0%)" stroke-opacity="1" stroke-miterlimit="10" d="M 230.557406 20.27775 C 230.557406 21.156656 229.846469 21.863687 228.971469 21.863687 C 228.092562 21.863687 227.381625 21.156656 227.381625 20.27775 C 227.381625 19.40275 228.092562 18.691812 228.971469 18.691812 C 229.846469 18.691812 230.557406 19.40275 230.557406 20.27775 Z M 230.557406 20.27775 " transform="matrix(1, 0, 0, -1, 34.009, 42.934)"/>
<path fill-rule="nonzero" fill="rgb(100%, 100%, 100%)" fill-opacity="1" stroke-width="0.3985" stroke-linecap="butt" stroke-linejoin="miter" stroke="rgb(0%, 0%, 0%)" stroke-opacity="1" stroke-miterlimit="10" d="M 226.983187 20.59025 C 226.983187 21.469156 226.27225 22.176187 225.393344 22.176187 C 224.518344 22.176187 223.807406 21.469156 223.807406 20.59025 C 223.807406 19.71525 224.518344 19.004312 225.393344 19.004312 C 226.27225 19.004312 226.983187 19.71525 226.983187 20.59025 Z M 226.983187 20.59025 " transform="matrix(1, 0, 0, -1, 34.009, 42.934)"/>
<path fill-rule="nonzero" fill="rgb(100%, 100%, 100%)" fill-opacity="1" stroke-width="0.3985" stroke-linecap="butt" stroke-linejoin="miter" stroke="rgb(0%, 0%, 0%)" stroke-opacity="1" stroke-miterlimit="10" d="M 223.405062 20.27775 C 223.405062 21.156656 222.698031 21.863687 221.819125 21.863687 C 220.944125 21.863687 220.233187 21.156656 220.233187 20.27775 C 220.233187 19.40275 220.944125 18.691812 221.819125 18.691812 C 222.698031 18.691812 223.405062 19.40275 223.405062 20.27775 Z M 223.405062 20.27775 " transform="matrix(1, 0, 0, -1, 34.009, 42.934)"/>
<path fill-rule="nonzero" fill="rgb(100%, 100%, 100%)" fill-opacity="1" stroke-width="0.3985" stroke-linecap="butt" stroke-linejoin="miter" stroke="rgb(0%, 0%, 0%)" stroke-opacity="1" stroke-miterlimit="10" d="M 219.940219 19.348062 C 219.940219 20.226969 219.229281 20.937906 218.354281 20.937906 C 217.475375 20.937906 216.764437 20.226969 216.764437 19.348062 C 216.764437 18.473062 217.475375 17.762125 218.354281 17.762125 C 219.229281 17.762125 219.940219 18.473062 219.940219 19.348062 Z M 219.940219 19.348062 " transform="matrix(1, 0, 0, -1, 34.009, 42.934)"/>
<path fill-rule="nonzero" fill="rgb(100%, 100%, 100%)" fill-opacity="1" stroke-width="0.3985" stroke-linecap="butt" stroke-linejoin="miter" stroke="rgb(0%, 0%, 0%)" stroke-opacity="1" stroke-miterlimit="10" d="M 216.686312 17.832437 C 216.686312 18.707437 215.975375 19.418375 215.100375 19.418375 C 214.221469 19.418375 213.514437 18.707437 213.514437 17.832437 C 213.514437 16.957437 214.221469 16.2465 215.100375 16.2465 C 215.975375 16.2465 216.686312 16.957437 216.686312 17.832437 Z M 216.686312 17.832437 " transform="matrix(1, 0, 0, -1, 34.009, 42.934)"/>
<path fill-rule="nonzero" fill="rgb(100%, 100%, 100%)" fill-opacity="1" stroke-width="0.3985" stroke-linecap="butt" stroke-linejoin="miter" stroke="rgb(0%, 0%, 0%)" stroke-opacity="1" stroke-miterlimit="10" d="M 213.744906 15.773844 C 213.744906 16.648844 213.037875 17.359781 212.158969 17.359781 C 211.283969 17.359781 210.573031 16.648844 210.573031 15.773844 C 210.573031 14.894937 211.283969 14.187906 212.158969 14.187906 C 213.037875 14.187906 213.744906 14.894937 213.744906 15.773844 Z M 213.744906 15.773844 " transform="matrix(1, 0, 0, -1, 34.009, 42.934)"/>
<path fill-rule="nonzero" fill="rgb(100%, 100%, 100%)" fill-opacity="1" stroke-width="0.3985" stroke-linecap="butt" stroke-linejoin="miter" stroke="rgb(0%, 0%, 0%)" stroke-opacity="1" stroke-miterlimit="10" d="M 211.20975 13.234781 C 211.20975 14.113687 210.498812 14.824625 209.619906 14.824625 C 208.744906 14.824625 208.033969 14.113687 208.033969 13.234781 C 208.033969 12.359781 208.744906 11.648844 209.619906 11.648844 C 210.498812 11.648844 211.20975 12.359781 211.20975 13.234781 Z M 211.20975 13.234781 " transform="matrix(1, 0, 0, -1, 34.009, 42.934)"/>
<path fill-rule="nonzero" fill="rgb(100%, 100%, 100%)" fill-opacity="1" stroke-width="0.3985" stroke-linecap="butt" stroke-linejoin="miter" stroke="rgb(0%, 0%, 0%)" stroke-opacity="1" stroke-miterlimit="10" d="M 209.151156 10.297281 C 209.151156 11.172281 208.440219 11.883219 207.561312 11.883219 C 206.686312 11.883219 205.975375 11.172281 205.975375 10.297281 C 205.975375 9.418375 206.686312 8.707437 207.561312 8.707437 C 208.440219 8.707437 209.151156 9.418375 209.151156 10.297281 Z M 209.151156 10.297281 " transform="matrix(1, 0, 0, -1, 34.009, 42.934)"/>
<path fill-rule="nonzero" fill="rgb(100%, 100%, 100%)" fill-opacity="1" stroke-width="0.3985" stroke-linecap="butt" stroke-linejoin="miter" stroke="rgb(0%, 0%, 0%)" stroke-opacity="1" stroke-miterlimit="10" d="M 226.983187 0.00040625 C 226.983187 0.875406 226.27225 1.586344 225.393344 1.586344 C 224.518344 1.586344 223.807406 0.875406 223.807406 0.00040625 C 223.807406 -0.8785 224.518344 -1.585531 225.393344 -1.585531 C 226.27225 -1.585531 226.983187 -0.8785 226.983187 0.00040625 Z M 226.983187 0.00040625 " transform="matrix(1, 0, 0, -1, 34.009, 42.934)"/>
<path fill="none" stroke-width="0.3985" stroke-linecap="butt" stroke-linejoin="miter" stroke="rgb(0%, 0%, 0%)" stroke-opacity="1" stroke-miterlimit="10" d="M 199.655062 14.859781 L 206.190219 11.09025 " transform="matrix(1, 0, 0, -1, 34.009, 42.934)"/>
<path fill="none" stroke-width="0.3985" stroke-linecap="butt" stroke-linejoin="miter" stroke="rgb(0%, 0%, 0%)" stroke-opacity="1" stroke-miterlimit="10" d="M 199.655062 21.598062 L 208.405062 14.254312 " transform="matrix(1, 0, 0, -1, 34.009, 42.934)"/>
<path fill="none" stroke-width="0.3985" stroke-linecap="butt" stroke-linejoin="miter" stroke="rgb(0%, 0%, 0%)" stroke-opacity="1" stroke-miterlimit="10" d="M 203.795687 25.738687 L 211.139437 16.988687 " transform="matrix(1, 0, 0, -1, 34.009, 42.934)"/>
<path fill="none" stroke-width="0.3985" stroke-linecap="butt" stroke-linejoin="miter" stroke="rgb(0%, 0%, 0%)" stroke-opacity="1" stroke-miterlimit="10" d="M 210.533969 25.738687 L 214.307406 19.207437 " transform="matrix(1, 0, 0, -1, 34.009, 42.934)"/>
<path fill="none" stroke-width="0.3985" stroke-linecap="butt" stroke-linejoin="miter" stroke="rgb(0%, 0%, 0%)" stroke-opacity="1" stroke-miterlimit="10" d="M 216.026156 25.738687 L 217.811312 20.84025 " transform="matrix(1, 0, 0, -1, 34.009, 42.934)"/>
<path fill="none" stroke-width="0.3985" stroke-linecap="butt" stroke-linejoin="miter" stroke="rgb(0%, 0%, 0%)" stroke-opacity="1" stroke-miterlimit="10" d="M 220.858187 25.738687 L 221.545687 21.84025 " transform="matrix(1, 0, 0, -1, 34.009, 42.934)"/>
<path fill="none" stroke-width="0.3985" stroke-linecap="butt" stroke-linejoin="miter" stroke="rgb(0%, 0%, 0%)" stroke-opacity="1" stroke-miterlimit="10" d="M 225.393344 25.738687 L 225.393344 22.176187 " transform="matrix(1, 0, 0, -1, 34.009, 42.934)"/>
<path fill="none" stroke-width="0.3985" stroke-linecap="butt" stroke-linejoin="miter" stroke="rgb(0%, 0%, 0%)" stroke-opacity="1" stroke-miterlimit="10" d="M 229.932406 25.738687 L 229.244906 21.84025 " transform="matrix(1, 0, 0, -1, 34.009, 42.934)"/>
<path fill="none" stroke-width="0.3985" stroke-linecap="butt" stroke-linejoin="miter" stroke="rgb(0%, 0%, 0%)" stroke-opacity="1" stroke-miterlimit="10" d="M 234.764437 25.738687 L 232.979281 20.84025 " transform="matrix(1, 0, 0, -1, 34.009, 42.934)"/>
<path fill="none" stroke-width="0.3985" stroke-linecap="butt" stroke-linejoin="miter" stroke="rgb(0%, 0%, 0%)" stroke-opacity="1" stroke-miterlimit="10" d="M 240.256625 25.738687 L 236.483187 19.207437 " transform="matrix(1, 0, 0, -1, 34.009, 42.934)"/>
<path fill="none" stroke-width="0.3985" stroke-linecap="butt" stroke-linejoin="miter" stroke="rgb(0%, 0%, 0%)" stroke-opacity="1" stroke-miterlimit="10" d="M 246.994906 25.738687 L 239.651156 16.988687 " transform="matrix(1, 0, 0, -1, 34.009, 42.934)"/>
<path fill="none" stroke-width="0.3985" stroke-linecap="butt" stroke-linejoin="miter" stroke="rgb(0%, 0%, 0%)" stroke-opacity="1" stroke-miterlimit="10" d="M 251.135531 21.598062 L 242.385531 14.254312 " transform="matrix(1, 0, 0, -1, 34.009, 42.934)"/>
<path fill="none" stroke-width="0.3985" stroke-linecap="butt" stroke-linejoin="miter" stroke="rgb(0%, 0%, 0%)" stroke-opacity="1" stroke-miterlimit="10" d="M 251.135531 14.859781 L 244.600375 11.09025 " transform="matrix(1, 0, 0, -1, 34.009, 42.934)"/>
<path fill="none" stroke-width="0.3985" stroke-linecap="butt" stroke-linejoin="miter" stroke="rgb(0%, 0%, 0%)" stroke-opacity="1" stroke-miterlimit="10" d="M 251.135531 9.367594 L 246.237094 7.586344 " transform="matrix(1, 0, 0, -1, 34.009, 42.934)"/>
<path fill="none" stroke-width="0.3985" stroke-linecap="butt" stroke-linejoin="miter" stroke="rgb(0%, 0%, 0%)" stroke-opacity="1" stroke-miterlimit="10" d="M 251.135531 4.539469 L 247.237094 3.851969 " transform="matrix(1, 0, 0, -1, 34.009, 42.934)"/>
<path fill="none" stroke-width="0.3985" stroke-linecap="butt" stroke-linejoin="miter" stroke="rgb(0%, 0%, 0%)" stroke-opacity="1" stroke-miterlimit="10" d="M 251.135531 0.00040625 L 247.573031 0.00040625 " transform="matrix(1, 0, 0, -1, 34.009, 42.934)"/>
<path fill="none" stroke-width="0.3985" stroke-linecap="butt" stroke-linejoin="miter" stroke="rgb(0%, 0%, 0%)" stroke-opacity="1" stroke-miterlimit="10" d="M 251.135531 -4.538656 L 247.237094 -3.851156 " transform="matrix(1, 0, 0, -1, 34.009, 42.934)"/>
<path fill="none" stroke-width="0.3985" stroke-linecap="butt" stroke-linejoin="miter" stroke="rgb(0%, 0%, 0%)" stroke-opacity="1" stroke-miterlimit="10" d="M 251.135531 -9.366781 L 246.237094 -7.585531 " transform="matrix(1, 0, 0, -1, 34.009, 42.934)"/>
<path fill="none" stroke-width="0.3985" stroke-linecap="butt" stroke-linejoin="miter" stroke="rgb(0%, 0%, 0%)" stroke-opacity="1" stroke-miterlimit="10" d="M 251.135531 -14.858969 L 244.600375 -11.089438 " transform="matrix(1, 0, 0, -1, 34.009, 42.934)"/>
<path fill="none" stroke-width="0.3985" stroke-linecap="butt" stroke-linejoin="miter" stroke="rgb(0%, 0%, 0%)" stroke-opacity="1" stroke-miterlimit="10" d="M 251.135531 -21.59725 L 242.385531 -14.257406 " transform="matrix(1, 0, 0, -1, 34.009, 42.934)"/>
<path fill="none" stroke-width="0.3985" stroke-linecap="butt" stroke-linejoin="miter" stroke="rgb(0%, 0%, 0%)" stroke-opacity="1" stroke-miterlimit="10" d="M 246.994906 -25.737875 L 239.651156 -16.987875 " transform="matrix(1, 0, 0, -1, 34.009, 42.934)"/>
<path fill="none" stroke-width="0.3985" stroke-linecap="butt" stroke-linejoin="miter" stroke="rgb(0%, 0%, 0%)" stroke-opacity="1" stroke-miterlimit="10" d="M 240.256625 -25.737875 L 236.483187 -19.206625 " transform="matrix(1, 0, 0, -1, 34.009, 42.934)"/>
<path fill="none" stroke-width="0.3985" stroke-linecap="butt" stroke-linejoin="miter" stroke="rgb(0%, 0%, 0%)" stroke-opacity="1" stroke-miterlimit="10" d="M 234.764437 -25.737875 L 232.979281 -20.839438 " transform="matrix(1, 0, 0, -1, 34.009, 42.934)"/>
<path fill="none" stroke-width="0.3985" stroke-linecap="butt" stroke-linejoin="miter" stroke="rgb(0%, 0%, 0%)" stroke-opacity="1" stroke-miterlimit="10" d="M 229.932406 -25.737875 L 229.244906 -21.839438 " transform="matrix(1, 0, 0, -1, 34.009, 42.934)"/>
<path fill="none" stroke-width="0.3985" stroke-linecap="butt" stroke-linejoin="miter" stroke="rgb(0%, 0%, 0%)" stroke-opacity="1" stroke-miterlimit="10" d="M 225.393344 -25.737875 L 225.393344 -22.179281 " transform="matrix(1, 0, 0, -1, 34.009, 42.934)"/>
<path fill="none" stroke-width="0.3985" stroke-linecap="butt" stroke-linejoin="miter" stroke="rgb(0%, 0%, 0%)" stroke-opacity="1" stroke-miterlimit="10" d="M 220.858187 -25.737875 L 221.545687 -21.839438 " transform="matrix(1, 0, 0, -1, 34.009, 42.934)"/>
<path fill="none" stroke-width="0.3985" stroke-linecap="butt" stroke-linejoin="miter" stroke="rgb(0%, 0%, 0%)" stroke-opacity="1" stroke-miterlimit="10" d="M 216.026156 -25.737875 L 217.811312 -20.839438 " transform="matrix(1, 0, 0, -1, 34.009, 42.934)"/>
<path fill="none" stroke-width="0.3985" stroke-linecap="butt" stroke-linejoin="miter" stroke="rgb(0%, 0%, 0%)" stroke-opacity="1" stroke-miterlimit="10" d="M 210.533969 -25.737875 L 214.307406 -19.206625 " transform="matrix(1, 0, 0, -1, 34.009, 42.934)"/>
<path fill="none" stroke-width="0.3985" stroke-linecap="butt" stroke-linejoin="miter" stroke="rgb(0%, 0%, 0%)" stroke-opacity="1" stroke-miterlimit="10" d="M 203.795687 -25.737875 L 211.139437 -16.987875 " transform="matrix(1, 0, 0, -1, 34.009, 42.934)"/>
<path fill="none" stroke-width="0.3985" stroke-linecap="butt" stroke-linejoin="miter" stroke="rgb(0%, 0%, 0%)" stroke-opacity="1" stroke-miterlimit="10" d="M 199.655062 -21.59725 L 208.405062 -14.257406 " transform="matrix(1, 0, 0, -1, 34.009, 42.934)"/>
<path fill="none" stroke-width="0.3985" stroke-linecap="butt" stroke-linejoin="miter" stroke="rgb(0%, 0%, 0%)" stroke-opacity="1" stroke-miterlimit="10" d="M 199.655062 -14.858969 L 206.190219 -11.089438 " transform="matrix(1, 0, 0, -1, 34.009, 42.934)"/>
<path fill="none" stroke-width="0.3985" stroke-linecap="butt" stroke-linejoin="miter" stroke="rgb(100%, 0%, 0%)" stroke-opacity="1" stroke-miterlimit="10" d="M 226.8035 25.738687 C 226.8035 26.516031 226.174594 27.148844 225.393344 27.148844 C 224.616 27.148844 223.987094 26.516031 223.987094 25.738687 C 223.987094 24.961344 224.616 24.328531 225.393344 24.328531 C 226.174594 24.328531 226.8035 24.961344 226.8035 25.738687 Z M 226.8035 25.738687 " transform="matrix(1, 0, 0, -1, 34.009, 42.934)"/>
<g fill="rgb(100%, 0%, 0%)" fill-opacity="1">
<use xlink:href="#glyph-0-9" x="240.574" y="6.953"/>
<use xlink:href="#glyph-0-10" x="244.673438" y="6.953"/>
<use xlink:href="#glyph-0-3" x="249.536813" y="6.953"/>
</g>
<g fill="rgb(100%, 0%, 0%)" fill-opacity="1">
<use xlink:href="#glyph-0-11" x="256.196159" y="6.953"/>
<use xlink:href="#glyph-0-1" x="261.315973" y="6.953"/>
<use xlink:href="#glyph-0-12" x="265.923806" y="6.953"/>
<use xlink:href="#glyph-0-3" x="269.528299" y="6.953"/>
<use xlink:href="#glyph-0-13" x="273.112169" y="6.953"/>
</g>
<path fill="none" stroke-width="0.19925" stroke-linecap="butt" stroke-linejoin="miter" stroke="rgb(100%, 0%, 0%)" stroke-opacity="1" stroke-miterlimit="10" d="M 225.393344 27.348062 L 225.393344 35.285562 " transform="matrix(1, 0, 0, -1, 34.009, 42.934)"/>
<path fill="none" stroke-width="0.3985" stroke-linecap="butt" stroke-linejoin="miter" stroke="rgb(100%, 0%, 0%)" stroke-opacity="1" stroke-miterlimit="10" d="M 252.541781 25.738687 C 252.541781 26.516031 251.912875 27.148844 251.135531 27.148844 C 250.354281 27.148844 249.725375 26.516031 249.725375 25.738687 C 249.725375 24.961344 250.354281 24.328531 251.135531 24.328531 C 251.912875 24.328531 252.541781 24.961344 252.541781 25.738687 Z M 252.541781 25.738687 " transform="matrix(1, 0, 0, -1, 34.009, 42.934)"/>
<g fill="rgb(100%, 0%, 0%)" fill-opacity="1">
<use xlink:href="#glyph-0-9" x="292.586" y="9.749"/>
<use xlink:href="#glyph-0-10" x="296.685438" y="9.749"/>
<use xlink:href="#glyph-0-3" x="301.548813" y="9.749"/>
</g>
<g fill="rgb(100%, 0%, 0%)" fill-opacity="1">
<use xlink:href="#glyph-0-11" x="308.208159" y="9.749"/>
<use xlink:href="#glyph-0-1" x="313.327973" y="9.749"/>
<use xlink:href="#glyph-0-12" x="317.935806" y="9.749"/>
<use xlink:href="#glyph-0-3" x="321.540299" y="9.749"/>
<use xlink:href="#glyph-0-13" x="325.124169" y="9.749"/>
</g>
<g clip-path="url(#clip-8)">
<g fill="rgb(100%, 0%, 0%)" fill-opacity="1">
<use xlink:href="#glyph-0-9" x="333.310492" y="9.749"/>
<use xlink:href="#glyph-0-0" x="337.40993" y="9.749"/>
<use xlink:href="#glyph-0-5" x="342.017763" y="9.749"/>
<use xlink:href="#glyph-0-3" x="345.652742" y="9.749"/>
</g>
</g>
<path fill="none" stroke-width="0.19925" stroke-linecap="butt" stroke-linejoin="miter" stroke="rgb(100%, 0%, 0%)" stroke-opacity="1" stroke-miterlimit="10" d="M 252.674594 26.191812 L 274.0535 32.488687 " transform="matrix(1, 0, 0, -1, 34.009, 42.934)"/>
<path fill="none" stroke-width="0.3985" stroke-linecap="butt" stroke-linejoin="miter" stroke="rgb(100%, 0%, 0%)" stroke-opacity="1" stroke-miterlimit="10" d="M 252.541781 0.00040625 C 252.541781 0.77775 251.912875 1.410562 251.135531 1.410562 C 250.354281 1.410562 249.725375 0.77775 249.725375 0.00040625 C 249.725375 -0.776938 250.354281 -1.40975 251.135531 -1.40975 C 251.912875 -1.40975 252.541781 -0.776938 252.541781 0.00040625 Z M 252.541781 0.00040625 " transform="matrix(1, 0, 0, -1, 34.009, 42.934)"/>
<g fill="rgb(100%, 0%, 0%)" fill-opacity="1">
<use xlink:href="#glyph-0-9" x="295.382" y="45.642"/>
<use xlink:href="#glyph-0-10" x="299.481438" y="45.642"/>
<use xlink:href="#glyph-0-3" x="304.344813" y="45.642"/>
</g>
<g fill="rgb(100%, 0%, 0%)" fill-opacity="1">
<use xlink:href="#glyph-0-9" x="311.004159" y="45.642"/>
<use xlink:href="#glyph-0-0" x="315.103597" y="45.642"/>
<use xlink:href="#glyph-0-5" x="319.71143" y="45.642"/>
<use xlink:href="#glyph-0-3" x="323.346408" y="45.642"/>
</g>
<path fill="none" stroke-width="0.19925" stroke-linecap="butt" stroke-linejoin="miter" stroke="rgb(100%, 0%, 0%)" stroke-opacity="1" stroke-miterlimit="10" d="M 252.741 0.00040625 L 260.6785 0.00040625 " transform="matrix(1, 0, 0, -1, 34.009, 42.934)"/>
<path fill="none" stroke-width="0.3985" stroke-linecap="butt" stroke-linejoin="miter" stroke="rgb(100%, 0%, 0%)" stroke-opacity="1" stroke-miterlimit="10" d="M 252.541781 -25.737875 C 252.541781 -24.960531 251.912875 -24.327719 251.135531 -24.327719 C 250.354281 -24.327719 249.725375 -24.960531 249.725375 -25.737875 C 249.725375 -26.515219 250.354281 -27.148031 251.135531 -27.148031 C 251.912875 -27.148031 252.541781 -26.515219 252.541781 -25.737875 Z M 252.541781 -25.737875 " transform="matrix(1, 0, 0, -1, 34.009, 42.934)"/>
<g fill="rgb(100%, 0%, 0%)" fill-opacity="1">
<use xlink:href="#glyph-0-9" x="292.586" y="82.296"/>
<use xlink:href="#glyph-0-10" x="296.685438" y="82.296"/>
<use xlink:href="#glyph-0-3" x="301.548813" y="82.296"/>
</g>
<g fill="rgb(100%, 0%, 0%)" fill-opacity="1">
<use xlink:href="#glyph-0-5" x="308.208159" y="82.296"/>
<use xlink:href="#glyph-0-1" x="311.843137" y="82.296"/>
<use xlink:href="#glyph-0-2" x="316.45097" y="82.296"/>
<use xlink:href="#glyph-0-3" x="321.570785" y="82.296"/>
<use xlink:href="#glyph-0-13" x="325.154655" y="82.296"/>
</g>
<g clip-path="url(#clip-9)">
<g fill="rgb(100%, 0%, 0%)" fill-opacity="1">
<use xlink:href="#glyph-0-9" x="333.340978" y="82.296"/>
<use xlink:href="#glyph-0-0" x="337.440416" y="82.296"/>
<use xlink:href="#glyph-0-5" x="342.048249" y="82.296"/>
<use xlink:href="#glyph-0-3" x="345.683228" y="82.296"/>
</g>
</g>
<path fill="none" stroke-width="0.19925" stroke-linecap="butt" stroke-linejoin="miter" stroke="rgb(100%, 0%, 0%)" stroke-opacity="1" stroke-miterlimit="10" d="M 252.674594 -26.191 L 274.061312 -32.487875 " transform="matrix(1, 0, 0, -1, 34.009, 42.934)"/>
<path fill="none" stroke-width="0.3985" stroke-linecap="butt" stroke-linejoin="miter" stroke="rgb(100%, 0%, 0%)" stroke-opacity="1" stroke-miterlimit="10" d="M 226.8035 -25.737875 C 226.8035 -24.960531 226.174594 -24.327719 225.393344 -24.327719 C 224.616 -24.327719 223.987094 -24.960531 223.987094 -25.737875 C 223.987094 -26.515219 224.616 -27.148031 225.393344 -27.148031 C 226.174594 -27.148031 226.8035 -26.515219 226.8035 -25.737875 Z M 226.8035 -25.737875 " transform="matrix(1, 0, 0, -1, 34.009, 42.934)"/>
<g clip-path="url(#clip-10)">
<g fill="rgb(100%, 0%, 0%)" fill-opacity="1">
<use xlink:href="#glyph-0-9" x="240.559" y="85.092"/>
<use xlink:href="#glyph-0-10" x="244.658438" y="85.092"/>
<use xlink:href="#glyph-0-3" x="249.521813" y="85.092"/>
</g>
</g>
<g clip-path="url(#clip-11)">
<g fill="rgb(100%, 0%, 0%)" fill-opacity="1">
<use xlink:href="#glyph-0-5" x="256.181159" y="85.092"/>
<use xlink:href="#glyph-0-1" x="259.816137" y="85.092"/>
<use xlink:href="#glyph-0-2" x="264.42397" y="85.092"/>
<use xlink:href="#glyph-0-3" x="269.543785" y="85.092"/>
<use xlink:href="#glyph-0-13" x="273.127655" y="85.092"/>
</g>
</g>
<path fill="none" stroke-width="0.19925" stroke-linecap="butt" stroke-linejoin="miter" stroke="rgb(100%, 0%, 0%)" stroke-opacity="1" stroke-miterlimit="10" d="M 225.393344 -27.34725 L 225.393344 -35.28475 " transform="matrix(1, 0, 0, -1, 34.009, 42.934)"/>
<path fill="none" stroke-width="0.3985" stroke-linecap="butt" stroke-linejoin="miter" stroke="rgb(100%, 0%, 0%)" stroke-opacity="1" stroke-miterlimit="10" d="M 201.065219 -25.737875 C 201.065219 -24.960531 200.436312 -24.327719 199.655062 -24.327719 C 198.877719 -24.327719 198.248812 -24.960531 198.248812 -25.737875 C 198.248812 -26.515219 198.877719 -27.148031 199.655062 -27.148031 C 200.436312 -27.148031 201.065219 -26.515219 201.065219 -25.737875 Z M 201.065219 -25.737875 " transform="matrix(1, 0, 0, -1, 34.009, 42.934)"/>
<g fill="rgb(100%, 0%, 0%)" fill-opacity="1">
<use xlink:href="#glyph-0-9" x="167.743" y="82.296"/>
<use xlink:href="#glyph-0-10" x="171.842438" y="82.296"/>
<use xlink:href="#glyph-0-3" x="176.705813" y="82.296"/>
</g>
<g fill="rgb(100%, 0%, 0%)" fill-opacity="1">
<use xlink:href="#glyph-0-5" x="183.365159" y="82.296"/>
<use xlink:href="#glyph-0-1" x="187.000137" y="82.296"/>
<use xlink:href="#glyph-0-2" x="191.60797" y="82.296"/>
<use xlink:href="#glyph-0-3" x="196.727785" y="82.296"/>
<use xlink:href="#glyph-0-13" x="200.311655" y="82.296"/>
</g>
<g fill="rgb(100%, 0%, 0%)" fill-opacity="1">
<use xlink:href="#glyph-0-14" x="208.497978" y="82.296"/>
</g>
<g fill="rgb(100%, 0%, 0%)" fill-opacity="1">
<use xlink:href="#glyph-0-9" x="214.902677" y="82.296"/>
<use xlink:href="#glyph-0-5" x="219.002116" y="82.296"/>
<use xlink:href="#glyph-0-3" x="222.637094" y="82.296"/>
</g>
<path fill="none" stroke-width="0.19925" stroke-linecap="butt" stroke-linejoin="miter" stroke="rgb(100%, 0%, 0%)" stroke-opacity="1" stroke-miterlimit="10" d="M 198.112094 -26.183188 L 176.155062 -32.487875 " transform="matrix(1, 0, 0, -1, 34.009, 42.934)"/>
<path fill="none" stroke-width="0.3985" stroke-linecap="butt" stroke-linejoin="miter" stroke="rgb(100%, 0%, 0%)" stroke-opacity="1" stroke-miterlimit="10" d="M 201.065219 0.00040625 C 201.065219 0.77775 200.436312 1.410562 199.655062 1.410562 C 198.877719 1.410562 198.248812 0.77775 198.248812 0.00040625 C 198.248812 -0.776938 198.877719 -1.40975 199.655062 -1.40975 C 200.436312 -1.40975 201.065219 -0.776938 201.065219 0.00040625 Z M 201.065219 0.00040625 " transform="matrix(1, 0, 0, -1, 34.009, 42.934)"/>
<g fill="rgb(100%, 0%, 0%)" fill-opacity="1">
<use xlink:href="#glyph-0-9" x="190.085" y="45.642"/>
<use xlink:href="#glyph-0-10" x="194.184438" y="45.642"/>
<use xlink:href="#glyph-0-3" x="199.047813" y="45.642"/>
</g>
<g fill="rgb(100%, 0%, 0%)" fill-opacity="1">
<use xlink:href="#glyph-0-14" x="205.707159" y="45.642"/>
</g>
<g fill="rgb(100%, 0%, 0%)" fill-opacity="1">
<use xlink:href="#glyph-0-9" x="212.102892" y="45.642"/>
<use xlink:href="#glyph-0-5" x="216.20233" y="45.642"/>
<use xlink:href="#glyph-0-3" x="219.837308" y="45.642"/>
</g>
<path fill="none" stroke-width="0.19925" stroke-linecap="butt" stroke-linejoin="miter" stroke="rgb(100%, 0%, 0%)" stroke-opacity="1" stroke-miterlimit="10" d="M 198.049594 0.00040625 L 190.112094 0.00040625 " transform="matrix(1, 0, 0, -1, 34.009, 42.934)"/>
<path fill="none" stroke-width="0.3985" stroke-linecap="butt" stroke-linejoin="miter" stroke="rgb(100%, 0%, 0%)" stroke-opacity="1" stroke-miterlimit="10" d="M 201.065219 25.738687 C 201.065219 26.516031 200.436312 27.148844 199.655062 27.148844 C 198.877719 27.148844 198.248812 26.516031 198.248812 25.738687 C 198.248812 24.961344 198.877719 24.328531 199.655062 24.328531 C 200.436312 24.328531 201.065219 24.961344 201.065219 25.738687 Z M 201.065219 25.738687 " transform="matrix(1, 0, 0, -1, 34.009, 42.934)"/>
<g fill="rgb(100%, 0%, 0%)" fill-opacity="1">
<use xlink:href="#glyph-0-9" x="167.774" y="9.749"/>
<use xlink:href="#glyph-0-10" x="171.873438" y="9.749"/>
<use xlink:href="#glyph-0-3" x="176.736813" y="9.749"/>
</g>
<g fill="rgb(100%, 0%, 0%)" fill-opacity="1">
<use xlink:href="#glyph-0-11" x="183.396159" y="9.749"/>
<use xlink:href="#glyph-0-1" x="188.515973" y="9.749"/>
<use xlink:href="#glyph-0-12" x="193.123806" y="9.749"/>
<use xlink:href="#glyph-0-3" x="196.728299" y="9.749"/>
</g>
<g fill="rgb(100%, 0%, 0%)" fill-opacity="1">
<use xlink:href="#glyph-0-13" x="200.303203" y="9.749"/>
</g>
<g fill="rgb(100%, 0%, 0%)" fill-opacity="1">
<use xlink:href="#glyph-0-14" x="208.498492" y="9.749"/>
</g>
<g fill="rgb(100%, 0%, 0%)" fill-opacity="1">
<use xlink:href="#glyph-0-9" x="214.894225" y="9.749"/>
<use xlink:href="#glyph-0-5" x="218.993663" y="9.749"/>
<use xlink:href="#glyph-0-3" x="222.628642" y="9.749"/>
</g>
<path fill="none" stroke-width="0.19925" stroke-linecap="butt" stroke-linejoin="miter" stroke="rgb(100%, 0%, 0%)" stroke-opacity="1" stroke-miterlimit="10" d="M 198.112094 26.184 L 176.162875 32.488687 " transform="matrix(1, 0, 0, -1, 34.009, 42.934)"/>
<path fill="none" stroke-width="0.3985" stroke-linecap="butt" stroke-linejoin="miter" stroke="rgb(100%, 0%, 0%)" stroke-opacity="1" stroke-miterlimit="10" d="M 226.8035 0.00040625 C 226.8035 0.77775 226.174594 1.410562 225.393344 1.410562 C 224.616 1.410562 223.987094 0.77775 223.987094 0.00040625 C 223.987094 -0.776938 224.616 -1.40975 225.393344 -1.40975 C 226.174594 -1.40975 226.8035 -0.776938 226.8035 0.00040625 Z M 226.8035 0.00040625 " transform="matrix(1, 0, 0, -1, 34.009, 42.934)"/>
<g fill="rgb(100%, 0%, 0%)" fill-opacity="1">
<use xlink:href="#glyph-0-9" x="194.666" y="65.901"/>
<use xlink:href="#glyph-0-10" x="198.765438" y="65.901"/>
<use xlink:href="#glyph-0-3" x="203.628813" y="65.901"/>
</g>
<g fill="rgb(100%, 0%, 0%)" fill-opacity="1">
<use xlink:href="#glyph-0-8" x="210.288159" y="65.901"/>
<use xlink:href="#glyph-0-9" x="214.38401" y="65.901"/>
<use xlink:href="#glyph-0-11" x="218.483448" y="65.901"/>
</g>
<g fill="rgb(100%, 0%, 0%)" fill-opacity="1">
<use xlink:href="#glyph-0-3" x="223.343237" y="65.901"/>
<use xlink:href="#glyph-0-9" x="226.927107" y="65.901"/>
<use xlink:href="#glyph-0-12" x="231.026545" y="65.901"/>
</g>
<path fill="none" stroke-width="0.19925" stroke-linecap="butt" stroke-linejoin="miter" stroke="rgb(100%, 0%, 0%)" stroke-opacity="1" stroke-miterlimit="10" d="M 223.9285 -0.663656 L 188.162875 -16.855063 " transform="matrix(1, 0, 0, -1, 34.009, 42.934)"/>
<path fill="none" stroke-width="0.3985" stroke-linecap="butt" stroke-linejoin="miter" stroke="rgb(0%, 0%, 100%)" stroke-opacity="1" stroke-miterlimit="10" d="M 243.791781 14.254312 C 243.791781 15.035562 243.162875 15.664469 242.385531 15.664469 C 241.604281 15.664469 240.975375 15.035562 240.975375 14.254312 C 240.975375 13.476969 241.604281 12.848062 242.385531 12.848062 C 243.162875 12.848062 243.791781 13.476969 243.791781 14.254312 Z M 243.791781 14.254312 " transform="matrix(1, 0, 0, -1, 34.009, 42.934)"/>
<g fill="rgb(0%, 0%, 100%)" fill-opacity="1">
<use xlink:href="#glyph-0-0" x="294.503" y="36.573"/>
<use xlink:href="#glyph-0-1" x="299.110833" y="36.573"/>
<use xlink:href="#glyph-0-2" x="303.718666" y="36.573"/>
<use xlink:href="#glyph-0-3" x="308.83848" y="36.573"/>
</g>
<g fill="rgb(0%, 0%, 100%)" fill-opacity="1">
<use xlink:href="#glyph-0-15" x="315.488859" y="36.573"/>
<use xlink:href="#glyph-0-16" x="320.096692" y="36.573"/>
</g>
<path fill="none" stroke-width="0.19925" stroke-linecap="butt" stroke-linejoin="miter" stroke="rgb(0%, 0%, 100%)" stroke-opacity="1" stroke-miterlimit="10" d="M 243.975375 14.012125 L 259.799594 11.601969 " transform="matrix(1, 0, 0, -1, 34.009, 42.934)"/>
<path fill="none" stroke-width="0.3985" stroke-linecap="butt" stroke-linejoin="miter" stroke="rgb(0%, 0%, 100%)" stroke-opacity="1" stroke-miterlimit="10" d="M 252.541781 21.598062 C 252.541781 22.375406 251.912875 23.008219 251.135531 23.008219 C 250.354281 23.008219 249.725375 22.375406 249.725375 21.598062 C 249.725375 20.820719 250.354281 20.187906 251.135531 20.187906 C 251.912875 20.187906 252.541781 20.820719 252.541781 21.598062 Z M 252.541781 21.598062 " transform="matrix(1, 0, 0, -1, 34.009, 42.934)"/>
<g fill="rgb(0%, 0%, 100%)" fill-opacity="1">
<use xlink:href="#glyph-0-5" x="303.319" y="23.3"/>
<use xlink:href="#glyph-0-6" x="306.953979" y="23.3"/>
<use xlink:href="#glyph-0-1" x="311.817354" y="23.3"/>
<use xlink:href="#glyph-0-2" x="316.425187" y="23.3"/>
<use xlink:href="#glyph-0-3" x="321.545001" y="23.3"/>
</g>
<g fill="rgb(0%, 0%, 100%)" fill-opacity="1">
<use xlink:href="#glyph-0-15" x="328.204347" y="23.3"/>
<use xlink:href="#glyph-0-16" x="332.81218" y="23.3"/>
</g>
<path fill="none" stroke-width="0.19925" stroke-linecap="butt" stroke-linejoin="miter" stroke="rgb(0%, 0%, 100%)" stroke-opacity="1" stroke-miterlimit="10" d="M 252.741 21.598062 L 268.616 21.598062 " transform="matrix(1, 0, 0, -1, 34.009, 42.934)"/>
<path fill="none" stroke-width="0.3985" stroke-linecap="butt" stroke-linejoin="miter" stroke="rgb(0%, 0%, 100%)" stroke-opacity="1" stroke-dasharray="0.3985 0.99628" stroke-miterlimit="10" d="M 199.655062 25.738687 L 199.655062 -25.737875 L 251.135531 -25.737875 L 251.135531 25.738687 Z M 199.655062 25.738687 " transform="matrix(1, 0, 0, -1, 34.009, 42.934)"/>
</svg>
