<?xml version="1.0" encoding="UTF-8"?>
<svg xmlns="http://www.w3.org/2000/svg" xmlns:xlink="http://www.w3.org/1999/xlink" width="133.995pt" height="29.577pt" viewBox="0 0 133.995 29.577">
<defs>
<clipPath id="clip-0">
<path clip-rule="nonzero" d="M 24 0 L 53 0 L 53 29.367188 L 24 29.367188 Z M 24 0 "/>
</clipPath>
<clipPath id="clip-1">
<path clip-rule="nonzero" d="M 26 12 L 52 12 L 52 29.367188 L 26 29.367188 Z M 26 12 "/>
</clipPath>
<clipPath id="clip-2">
<path clip-rule="nonzero" d="M 81 0 L 110 0 L 110 29.367188 L 81 29.367188 Z M 81 0 "/>
</clipPath>
<clipPath id="clip-3">
<path clip-rule="nonzero" d="M 40 0 L 133.992188 0 L 133.992188 29.367188 L 40 29.367188 Z M 40 0 "/>
</clipPath>
<clipPath id="clip-4">
<path clip-rule="nonzero" d="M 130 13 L 133.992188 13 L 133.992188 17 L 130 17 Z M 130 13 "/>
</clipPath>
<clipPath id="clip-5">
<path clip-rule="nonzero" d="M 124 7 L 133.992188 7 L 133.992188 23 L 124 23 Z M 124 7 "/>
</clipPath>
</defs>
<path fill="none" stroke-width="0.3985" stroke-linecap="butt" stroke-linejoin="miter" stroke="rgb(0%, 0%, 0%)" stroke-opacity="1" stroke-miterlimit="10" d="M -0.00071875 -0.000625 L 4.253188 -0.000625 M 4.253188 -0.000625 L 22.960219 -0.000625 M 50.741469 -0.000625 L 79.655531 -0.000625 M 107.432875 -0.000625 L 126.143813 -0.000625 M 126.143813 -0.000625 L 130.393813 -0.000625 " transform="matrix(1, 0, 0, -1, 1.8015, 15.0775)"/>
<path fill-rule="nonzero" fill="rgb(100%, 100%, 100%)" fill-opacity="1" stroke-width="0.3985" stroke-linecap="butt" stroke-linejoin="miter" stroke="rgb(0%, 0%, 0%)" stroke-opacity="1" stroke-miterlimit="10" d="M 1.585219 -0.000625 C 1.585219 0.878281 0.878188 1.585312 -0.00071875 1.585312 C -0.875719 1.585312 -1.586656 0.878281 -1.586656 -0.000625 C -1.586656 -0.875625 -0.875719 -1.586563 -0.00071875 -1.586563 C 0.878188 -1.586563 1.585219 -0.875625 1.585219 -0.000625 Z M 1.585219 -0.000625 " transform="matrix(1, 0, 0, -1, 1.8015, 15.0775)"/>
<g clip-path="url(#clip-0)">
<path fill="none" stroke-width="0.797" stroke-linecap="butt" stroke-linejoin="miter" stroke="rgb(0%, 0%, 0%)" stroke-opacity="1" stroke-miterlimit="10" d="M 22.960219 13.89 L 50.741469 13.89 L 50.741469 -13.89125 L 22.960219 -13.89125 Z M 22.960219 13.89 " transform="matrix(1, 0, 0, -1, 1.8015, 15.0775)"/>
</g>
<path fill-rule="nonzero" fill="rgb(0%, 0%, 0%)" fill-opacity="1" d="M 20.546875 15.078125 L 20.546875 17.0625 L 24.761719 15.078125 L 20.546875 13.09375 Z M 20.546875 15.078125 "/>
<path fill="none" stroke-width="0.3985" stroke-linecap="butt" stroke-linejoin="miter" stroke="rgb(100%, 0%, 0%)" stroke-opacity="1" stroke-miterlimit="10" d="M 29.905531 6.944687 C 31.038344 8.722031 32.120375 10.417344 33.378188 10.417344 C 34.636 10.417344 35.718031 8.722031 36.850844 6.944687 C 37.983656 5.167344 39.065688 3.472031 40.3235 3.472031 C 41.581313 3.472031 42.663344 5.167344 43.796156 6.944687 M 38.932875 9.026719 L 34.768813 4.862656 " transform="matrix(1, 0, 0, -1, 1.8015, 15.0775)"/>
<path fill="none" stroke-width="0.3985" stroke-linecap="butt" stroke-linejoin="miter" stroke="rgb(100%, 0%, 0%)" stroke-opacity="1" stroke-miterlimit="10" d="M 29.905531 -0.000625 C 31.038344 1.776719 32.120375 3.472031 33.378188 3.472031 C 34.636 3.472031 35.718031 1.776719 36.850844 -0.000625 C 37.983656 -1.777969 39.065688 -3.473281 40.3235 -3.473281 C 41.581313 -3.473281 42.663344 -1.777969 43.796156 -0.000625 M 38.932875 2.085312 L 34.768813 -2.082656 " transform="matrix(1, 0, 0, -1, 1.8015, 15.0775)"/>
<g clip-path="url(#clip-1)">
<path fill="none" stroke-width="0.3985" stroke-linecap="butt" stroke-linejoin="miter" stroke="rgb(100%, 0%, 0%)" stroke-opacity="1" stroke-miterlimit="10" d="M 29.905531 -6.945938 C 31.038344 -5.168594 32.120375 -3.473281 33.378188 -3.473281 C 34.636 -3.473281 35.718031 -5.168594 36.850844 -6.945938 C 37.983656 -8.723281 39.065688 -10.418594 40.3235 -10.418594 C 41.581313 -10.418594 42.663344 -8.723281 43.796156 -6.945938 " transform="matrix(1, 0, 0, -1, 1.8015, 15.0775)"/>
</g>
<g clip-path="url(#clip-2)">
<path fill="none" stroke-width="0.797" stroke-linecap="butt" stroke-linejoin="miter" stroke="rgb(0%, 0%, 0%)" stroke-opacity="1" stroke-miterlimit="10" d="M 79.655531 13.89 L 107.432875 13.89 L 107.432875 -13.89125 L 79.655531 -13.89125 Z M 79.655531 13.89 " transform="matrix(1, 0, 0, -1, 1.8015, 15.0775)"/>
</g>
<path fill-rule="nonzero" fill="rgb(0%, 0%, 0%)" fill-opacity="1" d="M 77.238281 15.078125 L 77.238281 17.0625 L 81.457031 15.078125 L 77.238281 13.09375 Z M 77.238281 15.078125 "/>
<path fill="none" stroke-width="0.3985" stroke-linecap="butt" stroke-linejoin="miter" stroke="rgb(0%, 0%, 0%)" stroke-opacity="0.3" stroke-dasharray="1.13367 1.13367" stroke-miterlimit="10" d="M 82.432875 -11.11 L 104.655531 -11.11 M 82.432875 -5.555313 L 104.655531 -5.555313 M 82.432875 -0.000625 L 104.655531 -0.000625 M 82.432875 5.554062 L 104.655531 5.554062 M 82.432875 11.112656 L 104.655531 11.112656 M 82.432875 -11.11 L 82.432875 11.112656 M 89.378188 -11.11 L 89.378188 11.112656 M 92.155531 -11.11 L 92.155531 11.112656 M 93.546156 -11.11 L 93.546156 11.112656 M 100.487563 -11.11 L 100.487563 11.112656 M 103.268813 -11.11 L 103.268813 11.112656 M 104.655531 -11.11 L 104.655531 11.112656 " transform="matrix(1, 0, 0, -1, 1.8015, 15.0775)"/>
<g clip-path="url(#clip-3)">
<path fill="none" stroke-width="3.18803" stroke-linecap="butt" stroke-linejoin="miter" stroke="rgb(0%, 0%, 0%)" stroke-opacity="1" stroke-miterlimit="10" d="M 83.8235 8.335312 L 91.460219 8.335312 C 92.612563 8.335312 94.014906 7.526719 94.593031 6.534531 L 103.268813 -8.332656 " transform="matrix(1, 0, 0, -1, 1.8015, 15.0775)"/>
</g>
<g clip-path="url(#clip-4)">
<path fill-rule="nonzero" fill="rgb(100%, 100%, 100%)" fill-opacity="1" d="M 133.785156 15.078125 C 133.785156 14.199219 133.074219 13.492188 132.195312 13.492188 C 131.320312 13.492188 130.609375 14.199219 130.609375 15.078125 C 130.609375 15.953125 131.320312 16.664062 132.195312 16.664062 C 133.074219 16.664062 133.785156 15.953125 133.785156 15.078125 Z M 133.785156 15.078125 "/>
</g>
<g clip-path="url(#clip-5)">
<path fill="none" stroke-width="0.3985" stroke-linecap="butt" stroke-linejoin="miter" stroke="rgb(0%, 0%, 0%)" stroke-opacity="1" stroke-miterlimit="10" d="M 131.983656 -0.000625 C 131.983656 0.878281 131.272719 1.585312 130.393813 1.585312 C 129.518813 1.585312 128.807875 0.878281 128.807875 -0.000625 C 128.807875 -0.875625 129.518813 -1.586563 130.393813 -1.586563 C 131.272719 -1.586563 131.983656 -0.875625 131.983656 -0.000625 Z M 131.983656 -0.000625 " transform="matrix(1, 0, 0, -1, 1.8015, 15.0775)"/>
</g>
</svg>
