<?xml version="1.0" encoding="UTF-8"?>
<svg xmlns="http://www.w3.org/2000/svg" xmlns:xlink="http://www.w3.org/1999/xlink" width="133.622pt" height="84.016pt" viewBox="0 0 133.622 84.016">
<defs>
<clipPath id="clip-0">
<path clip-rule="nonzero" d="M 0 37 L 55 37 L 55 83.523438 L 0 83.523438 Z M 0 37 "/>
</clipPath>
<clipPath id="clip-1">
<path clip-rule="nonzero" d="M 28 58 L 58 58 L 58 83.523438 L 28 83.523438 Z M 28 58 "/>
</clipPath>
<clipPath id="clip-2">
<path clip-rule="nonzero" d="M 56 0 L 133.433594 0 L 133.433594 77 L 56 77 Z M 56 0 "/>
</clipPath>
</defs>
<g clip-path="url(#clip-0)">
<path fill="none" stroke-width="0.3985" stroke-linecap="butt" stroke-linejoin="miter" stroke="rgb(0%, 0%, 0%)" stroke-opacity="1" stroke-miterlimit="10" d="M -27.212469 -22.6775 L -27.212469 22.677969 L 27.213313 22.677969 L 27.213313 -22.6775 Z M -27.212469 18.142813 L -15.876531 18.142813 L -15.876531 3.810781 M -15.876531 -3.810312 L -15.876531 -18.142344 L -27.212469 -18.142344 M 27.213313 18.142813 L 15.877375 18.142813 L 15.877375 15.013906 M 15.877375 9.935781 L 15.877375 6.802969 M 15.877375 -6.032969 L 15.877375 -9.548594 M 15.877375 -14.626719 L 15.877375 -18.142344 L 27.213313 -18.142344 " transform="matrix(1, 0, 0, -1, 27.232, 60.635)"/>
</g>
<path fill-rule="nonzero" fill="rgb(0%, 0%, 0%)" fill-opacity="1" stroke-width="0.797" stroke-linecap="butt" stroke-linejoin="miter" stroke="rgb(0%, 0%, 0%)" stroke-opacity="1" stroke-miterlimit="10" d="M -15.876531 -3.810312 L -11.114812 3.810781 L -20.63825 3.810781 L -15.876531 -3.810312 " transform="matrix(1, 0, 0, -1, 27.232, 60.635)"/>
<path fill="none" stroke-width="0.797" stroke-linecap="butt" stroke-linejoin="miter" stroke="rgb(0%, 0%, 0%)" stroke-opacity="1" stroke-miterlimit="10" d="M -20.63825 -3.810312 L -11.114812 -3.810312 " transform="matrix(1, 0, 0, -1, 27.232, 60.635)"/>
<path fill="none" stroke-width="0.3985" stroke-linecap="butt" stroke-linejoin="miter" stroke="rgb(0%, 0%, 0%)" stroke-opacity="1" stroke-miterlimit="10" d="M -12.067937 -0.00171875 L -9.458562 1.252188 " transform="matrix(1, 0, 0, -1, 27.232, 60.635)"/>
<path fill-rule="nonzero" fill="rgb(0%, 0%, 0%)" fill-opacity="1" d="M 19.929688 58.347656 C 18.945312 58.601562 17.15625 59.015625 15.6875 58.726562 C 17.0625 59.285156 17.40625 60 16.980469 61.421875 C 17.671875 60.09375 19.117188 58.960938 19.929688 58.347656 Z M 19.929688 58.347656 "/>
<path fill="none" stroke-width="0.3985" stroke-linecap="butt" stroke-linejoin="miter" stroke="rgb(0%, 0%, 0%)" stroke-opacity="1" stroke-miterlimit="10" d="M -13.017156 -2.286875 L -10.411687 -1.032969 " transform="matrix(1, 0, 0, -1, 27.232, 60.635)"/>
<path fill-rule="nonzero" fill="rgb(0%, 0%, 0%)" fill-opacity="1" d="M 18.976562 60.636719 C 17.992188 60.886719 16.203125 61.304688 14.738281 61.011719 C 16.109375 61.570312 16.453125 62.289062 16.03125 63.707031 C 16.71875 62.382812 18.164062 61.246094 18.976562 60.636719 Z M 18.976562 60.636719 "/>
<path fill-rule="nonzero" fill="rgb(0%, 0%, 0%)" fill-opacity="1" stroke-width="0.797" stroke-linecap="butt" stroke-linejoin="miter" stroke="rgb(0%, 0%, 0%)" stroke-opacity="1" stroke-miterlimit="10" d="M 15.877375 9.935781 L 12.701594 15.013906 L 19.04925 15.013906 L 15.877375 9.935781 " transform="matrix(1, 0, 0, -1, 27.232, 60.635)"/>
<path fill="none" stroke-width="0.797" stroke-linecap="butt" stroke-linejoin="miter" stroke="rgb(0%, 0%, 0%)" stroke-opacity="1" stroke-miterlimit="10" d="M 19.04925 9.935781 L 12.701594 9.935781 " transform="matrix(1, 0, 0, -1, 27.232, 60.635)"/>
<path fill="none" stroke-width="0.3985" stroke-linecap="butt" stroke-linejoin="miter" stroke="rgb(0%, 0%, 0%)" stroke-opacity="1" stroke-miterlimit="10" d="M 9.525813 10.951406 L 10.834406 11.994375 " transform="matrix(1, 0, 0, -1, 27.232, 60.635)"/>
<path fill-rule="nonzero" fill="rgb(0%, 0%, 0%)" fill-opacity="1" d="M 39.933594 47.144531 C 39.03125 47.613281 37.382812 48.421875 35.886719 48.46875 C 37.351562 48.703125 37.847656 49.324219 37.753906 50.800781 C 38.128906 49.355469 39.28125 47.921875 39.933594 47.144531 Z M 39.933594 47.144531 "/>
<path fill="none" stroke-width="0.3985" stroke-linecap="butt" stroke-linejoin="miter" stroke="rgb(0%, 0%, 0%)" stroke-opacity="1" stroke-miterlimit="10" d="M 10.162531 9.424063 L 11.467219 10.470938 " transform="matrix(1, 0, 0, -1, 27.232, 60.635)"/>
<path fill-rule="nonzero" fill="rgb(0%, 0%, 0%)" fill-opacity="1" d="M 40.566406 48.667969 C 39.664062 49.136719 38.015625 49.945312 36.523438 49.992188 C 37.984375 50.226562 38.484375 50.847656 38.390625 52.324219 C 38.761719 50.878906 39.914062 49.445312 40.566406 48.667969 Z M 40.566406 48.667969 "/>
<path fill="none" stroke-width="0.3985" stroke-linecap="butt" stroke-linejoin="miter" stroke="rgb(0%, 0%, 0%)" stroke-opacity="1" stroke-dasharray="2.98883 1.99255" stroke-miterlimit="10" d="M 15.877375 6.802969 L 15.877375 -5.282969 " transform="matrix(1, 0, 0, -1, 27.232, 60.635)"/>
<path fill-rule="nonzero" fill="rgb(0%, 0%, 0%)" fill-opacity="1" d="M 43.109375 75.261719 L 39.933594 70.183594 L 46.28125 70.183594 L 43.109375 75.261719 "/>
<g clip-path="url(#clip-1)">
<path fill="none" stroke-width="0.797" stroke-linecap="butt" stroke-linejoin="miter" stroke="rgb(0%, 0%, 0%)" stroke-opacity="1" stroke-miterlimit="10" d="M 15.877375 -14.626719 L 12.701594 -9.548594 L 19.04925 -9.548594 L 15.877375 -14.626719 " transform="matrix(1, 0, 0, -1, 27.232, 60.635)"/>
</g>
<path fill="none" stroke-width="0.797" stroke-linecap="butt" stroke-linejoin="miter" stroke="rgb(0%, 0%, 0%)" stroke-opacity="1" stroke-miterlimit="10" d="M 19.04925 -14.626719 L 12.701594 -14.626719 " transform="matrix(1, 0, 0, -1, 27.232, 60.635)"/>
<path fill="none" stroke-width="0.3985" stroke-linecap="butt" stroke-linejoin="miter" stroke="rgb(0%, 0%, 0%)" stroke-opacity="1" stroke-miterlimit="10" d="M 9.525813 -13.611094 L 10.834406 -12.564219 " transform="matrix(1, 0, 0, -1, 27.232, 60.635)"/>
<path fill-rule="nonzero" fill="rgb(0%, 0%, 0%)" fill-opacity="1" d="M 39.933594 71.707031 C 39.03125 72.171875 37.382812 72.980469 35.886719 73.027344 C 37.351562 73.261719 37.847656 73.882812 37.753906 75.363281 C 38.128906 73.914062 39.28125 72.484375 39.933594 71.707031 Z M 39.933594 71.707031 "/>
<path fill="none" stroke-width="0.3985" stroke-linecap="butt" stroke-linejoin="miter" stroke="rgb(0%, 0%, 0%)" stroke-opacity="1" stroke-miterlimit="10" d="M 10.162531 -15.134531 L 11.471125 -14.087656 " transform="matrix(1, 0, 0, -1, 27.232, 60.635)"/>
<path fill-rule="nonzero" fill="rgb(0%, 0%, 0%)" fill-opacity="1" d="M 40.566406 73.230469 C 39.664062 73.695312 38.015625 74.507812 36.523438 74.550781 C 37.984375 74.785156 38.484375 75.410156 38.390625 76.886719 C 38.761719 75.4375 39.914062 74.007812 40.566406 73.230469 Z M 40.566406 73.230469 "/>
<path fill="none" stroke-width="0.3985" stroke-linecap="butt" stroke-linejoin="miter" stroke="rgb(0%, 0%, 0%)" stroke-opacity="1" stroke-miterlimit="10" d="M 27.213313 18.142813 L 38.553156 18.142813 " transform="matrix(1, 0, 0, -1, 27.232, 60.635)"/>
<g clip-path="url(#clip-2)">
<path fill="none" stroke-width="0.3985" stroke-linecap="butt" stroke-linejoin="miter" stroke="rgb(0%, 0%, 0%)" stroke-opacity="1" stroke-miterlimit="10" d="M 105.912531 27.767813 L 73.842219 59.838125 L 35.357844 21.35375 L 67.428156 -10.716562 Z M 77.057063 56.635 L 69.037531 48.619375 L 79.189875 38.494375 M 84.5805 33.107656 L 94.701594 22.967031 L 102.713313 30.97875 M 38.568781 18.150625 L 46.584406 26.16625 L 48.807063 23.959219 M 52.400813 20.365469 L 54.603938 18.150625 M 63.678156 9.0725 L 66.178156 6.588125 M 69.771906 2.998281 L 72.248469 0.51 L 64.225031 -7.509531 " transform="matrix(1, 0, 0, -1, 27.232, 60.635)"/>
</g>
<path fill-rule="nonzero" fill="rgb(0%, 0%, 0%)" fill-opacity="1" stroke-width="0.797" stroke-linecap="butt" stroke-linejoin="miter" stroke="rgb(0%, 0%, 0%)" stroke-opacity="1" stroke-miterlimit="10" d="M 84.564875 33.099844 L 75.807063 35.119375 L 82.541438 41.85375 L 84.564875 33.099844 " transform="matrix(1, 0, 0, -1, 27.232, 60.635)"/>
<path fill="none" stroke-width="0.797" stroke-linecap="butt" stroke-linejoin="miter" stroke="rgb(0%, 0%, 0%)" stroke-opacity="1" stroke-miterlimit="10" d="M 87.932063 36.467031 L 81.197688 29.732656 " transform="matrix(1, 0, 0, -1, 27.232, 60.635)"/>
<path fill="none" stroke-width="0.3985" stroke-linecap="butt" stroke-linejoin="miter" stroke="rgb(0%, 0%, 0%)" stroke-opacity="1" stroke-miterlimit="10" d="M 79.178156 33.099844 L 76.447688 32.138906 " transform="matrix(1, 0, 0, -1, 27.232, 60.635)"/>
<path fill-rule="nonzero" fill="rgb(0%, 0%, 0%)" fill-opacity="1" d="M 101.425781 29.289062 C 102.429688 29.144531 104.253906 28.925781 105.679688 29.375 C 104.378906 28.671875 104.113281 27.921875 104.6875 26.558594 C 103.859375 27.800781 102.300781 28.769531 101.425781 29.289062 Z M 101.425781 29.289062 "/>
<path fill="none" stroke-width="0.3985" stroke-linecap="butt" stroke-linejoin="miter" stroke="rgb(0%, 0%, 0%)" stroke-opacity="1" stroke-miterlimit="10" d="M 81.467219 32.154531 L 78.740656 31.1975 " transform="matrix(1, 0, 0, -1, 27.232, 60.635)"/>
<path fill-rule="nonzero" fill="rgb(0%, 0%, 0%)" fill-opacity="1" d="M 103.714844 30.230469 C 104.722656 30.089844 106.546875 29.871094 107.96875 30.320312 C 106.667969 29.617188 106.402344 28.863281 106.980469 27.5 C 106.148438 28.742188 104.589844 29.710938 103.714844 30.230469 Z M 103.714844 30.230469 "/>
<path fill-rule="nonzero" fill="rgb(0%, 0%, 0%)" fill-opacity="1" stroke-width="0.797" stroke-linecap="butt" stroke-linejoin="miter" stroke="rgb(0%, 0%, 0%)" stroke-opacity="1" stroke-miterlimit="10" d="M 52.389094 20.361563 L 51.041438 26.1975 L 46.553156 21.709219 L 52.389094 20.361563 " transform="matrix(1, 0, 0, -1, 27.232, 60.635)"/>
<path fill="none" stroke-width="0.797" stroke-linecap="butt" stroke-linejoin="miter" stroke="rgb(0%, 0%, 0%)" stroke-opacity="1" stroke-miterlimit="10" d="M 50.143 18.115469 L 54.635188 22.607656 " transform="matrix(1, 0, 0, -1, 27.232, 60.635)"/>
<path fill="none" stroke-width="0.3985" stroke-linecap="butt" stroke-linejoin="miter" stroke="rgb(0%, 0%, 0%)" stroke-opacity="1" stroke-miterlimit="10" d="M 56.162531 25.568594 L 54.498469 25.385 " transform="matrix(1, 0, 0, -1, 27.232, 60.635)"/>
<path fill-rule="nonzero" fill="rgb(0%, 0%, 0%)" fill-opacity="1" d="M 79.351562 35.515625 C 80.363281 35.601562 82.191406 35.800781 83.476562 36.558594 C 82.367188 35.582031 82.277344 34.789062 83.148438 33.589844 C 82.058594 34.613281 80.320312 35.207031 79.351562 35.515625 Z M 79.351562 35.515625 "/>
<path fill="none" stroke-width="0.3985" stroke-linecap="butt" stroke-linejoin="miter" stroke="rgb(0%, 0%, 0%)" stroke-opacity="1" stroke-miterlimit="10" d="M 56.787531 24.045156 L 55.123469 23.857656 " transform="matrix(1, 0, 0, -1, 27.232, 60.635)"/>
<path fill-rule="nonzero" fill="rgb(0%, 0%, 0%)" fill-opacity="1" d="M 79.980469 37.039062 C 80.992188 37.128906 82.820312 37.328125 84.105469 38.085938 C 82.996094 37.105469 82.90625 36.316406 83.777344 35.117188 C 82.6875 36.136719 80.949219 36.734375 79.980469 37.039062 Z M 79.980469 37.039062 "/>
<path fill="none" stroke-width="0.3985" stroke-linecap="butt" stroke-linejoin="miter" stroke="rgb(0%, 0%, 0%)" stroke-opacity="1" stroke-dasharray="2.98883 1.99255" stroke-miterlimit="10" d="M 54.603938 18.150625 L 63.150813 9.60375 " transform="matrix(1, 0, 0, -1, 27.232, 60.635)"/>
<path fill-rule="nonzero" fill="rgb(0%, 0%, 0%)" fill-opacity="1" stroke-width="0.797" stroke-linecap="butt" stroke-linejoin="miter" stroke="rgb(0%, 0%, 0%)" stroke-opacity="1" stroke-miterlimit="10" d="M 69.760188 2.998281 L 68.408625 8.834219 L 63.920344 4.342031 L 69.760188 2.998281 " transform="matrix(1, 0, 0, -1, 27.232, 60.635)"/>
<path fill="none" stroke-width="0.797" stroke-linecap="butt" stroke-linejoin="miter" stroke="rgb(0%, 0%, 0%)" stroke-opacity="1" stroke-miterlimit="10" d="M 67.514094 0.752188 L 72.002375 5.244375 " transform="matrix(1, 0, 0, -1, 27.232, 60.635)"/>
<path fill="none" stroke-width="0.3985" stroke-linecap="butt" stroke-linejoin="miter" stroke="rgb(0%, 0%, 0%)" stroke-opacity="1" stroke-miterlimit="10" d="M 73.529719 8.205313 L 71.865656 8.021719 " transform="matrix(1, 0, 0, -1, 27.232, 60.635)"/>
<path fill-rule="nonzero" fill="rgb(0%, 0%, 0%)" fill-opacity="1" d="M 96.71875 52.878906 C 97.730469 52.964844 99.558594 53.164062 100.847656 53.921875 C 99.734375 52.945312 99.644531 52.152344 100.515625 50.953125 C 99.425781 51.976562 97.6875 52.570312 96.71875 52.878906 Z M 96.71875 52.878906 "/>
<path fill="none" stroke-width="0.3985" stroke-linecap="butt" stroke-linejoin="miter" stroke="rgb(0%, 0%, 0%)" stroke-opacity="1" stroke-miterlimit="10" d="M 74.158625 6.681875 L 72.494563 6.494375 " transform="matrix(1, 0, 0, -1, 27.232, 60.635)"/>
<path fill-rule="nonzero" fill="rgb(0%, 0%, 0%)" fill-opacity="1" d="M 97.347656 54.40625 C 98.359375 54.492188 100.1875 54.691406 101.476562 55.449219 C 100.363281 54.46875 100.273438 53.679688 101.144531 52.480469 C 100.054688 53.503906 98.316406 54.097656 97.347656 54.40625 Z M 97.347656 54.40625 "/>
<path fill="none" stroke-width="0.3985" stroke-linecap="butt" stroke-linejoin="miter" stroke="rgb(0%, 0%, 100%)" stroke-opacity="1" stroke-miterlimit="10" d="M 27.213313 -18.142344 L 64.225031 -18.142344 L 64.225031 -7.509531 " transform="matrix(1, 0, 0, -1, 27.232, 60.635)"/>
</svg>
