<?xml version="1.0" encoding="UTF-8"?>
<svg xmlns="http://www.w3.org/2000/svg" xmlns:xlink="http://www.w3.org/1999/xlink" width="127.579pt" height="259.282pt" viewBox="0 0 127.579 259.282">
<defs>
<clipPath id="clip-0">
<path clip-rule="nonzero" d="M 0 21 L 127.367188 21 L 127.367188 22 L 0 22 Z M 0 21 "/>
</clipPath>
<clipPath id="clip-1">
<path clip-rule="nonzero" d="M 0 77 L 127.367188 77 L 127.367188 79 L 0 79 Z M 0 77 "/>
</clipPath>
<clipPath id="clip-2">
<path clip-rule="nonzero" d="M 0 134 L 127.367188 134 L 127.367188 136 L 0 136 Z M 0 134 "/>
</clipPath>
<clipPath id="clip-3">
<path clip-rule="nonzero" d="M 0 191 L 127.367188 191 L 127.367188 192 L 0 192 Z M 0 191 "/>
</clipPath>
<clipPath id="clip-4">
<path clip-rule="nonzero" d="M 0 248 L 127.367188 248 L 127.367188 249 L 0 249 Z M 0 248 "/>
</clipPath>
<clipPath id="clip-5">
<path clip-rule="nonzero" d="M 1 227 L 41 227 L 41 258.921875 L 1 258.921875 Z M 1 227 "/>
</clipPath>
<clipPath id="clip-6">
<path clip-rule="nonzero" d="M 28 237 L 30 237 L 30 258.921875 L 28 258.921875 Z M 28 237 "/>
</clipPath>
<clipPath id="clip-7">
<path clip-rule="nonzero" d="M 55 238 L 72 238 L 72 258.921875 L 55 258.921875 Z M 55 238 "/>
</clipPath>
<clipPath id="clip-8">
<path clip-rule="nonzero" d="M 44 227 L 83 227 L 83 258.921875 L 44 258.921875 Z M 44 227 "/>
</clipPath>
<clipPath id="clip-9">
<path clip-rule="nonzero" d="M 71 237 L 72 237 L 72 258.921875 L 71 258.921875 Z M 71 237 "/>
</clipPath>
<clipPath id="clip-10">
<path clip-rule="nonzero" d="M 86 227 L 126 227 L 126 258.921875 L 86 258.921875 Z M 86 227 "/>
</clipPath>
<clipPath id="clip-11">
<path clip-rule="nonzero" d="M 105 237 L 115 237 L 115 258.921875 L 105 258.921875 Z M 105 237 "/>
</clipPath>
</defs>
<g clip-path="url(#clip-0)">
<path fill="none" stroke-width="0.3985" stroke-linecap="butt" stroke-linejoin="miter" stroke="rgb(0%, 0%, 0%)" stroke-opacity="1" stroke-miterlimit="10" d="M -0.001625 56.691906 L 13.322594 56.691906 M 29.197594 56.691906 L 55.842125 56.691906 M 71.717125 56.691906 L 98.361656 56.691906 M 114.236656 56.691906 L 127.560875 56.691906 " transform="matrix(1, 0, 0, -1, -0.2015, 78.188)"/>
</g>
<path fill="none" stroke-width="0.797" stroke-linecap="butt" stroke-linejoin="miter" stroke="rgb(0%, 0%, 0%)" stroke-opacity="1" stroke-miterlimit="10" d="M 29.197594 56.691906 L 13.322594 66.613781 L 13.322594 46.773938 Z M 29.197594 56.691906 " transform="matrix(1, 0, 0, -1, -0.2015, 78.188)"/>
<path fill="none" stroke-width="0.797" stroke-linecap="butt" stroke-linejoin="miter" stroke="rgb(0%, 0%, 0%)" stroke-opacity="1" stroke-miterlimit="10" d="M 29.197594 46.773938 L 29.197594 66.613781 " transform="matrix(1, 0, 0, -1, -0.2015, 78.188)"/>
<path fill="none" stroke-width="0.3985" stroke-linecap="butt" stroke-linejoin="miter" stroke="rgb(0%, 0%, 0%)" stroke-opacity="1" stroke-miterlimit="10" d="M 18.084313 66.613781 L 24.529625 74.668469 " transform="matrix(1, 0, 0, -1, -0.2015, 78.188)"/>
<path fill-rule="nonzero" fill="rgb(0%, 0%, 0%)" fill-opacity="1" d="M 25.820312 1.652344 C 25.042969 2.304688 23.613281 3.457031 22.164062 3.828125 C 23.644531 3.738281 24.265625 4.234375 24.5 5.695312 C 24.546875 4.203125 25.355469 2.554688 25.820312 1.652344 Z M 25.820312 1.652344 "/>
<path fill="none" stroke-width="0.3985" stroke-linecap="butt" stroke-linejoin="miter" stroke="rgb(0%, 0%, 0%)" stroke-opacity="1" stroke-miterlimit="10" d="M 22.846031 64.629406 L 29.291344 72.684094 " transform="matrix(1, 0, 0, -1, -0.2015, 78.188)"/>
<path fill-rule="nonzero" fill="rgb(0%, 0%, 0%)" fill-opacity="1" d="M 30.582031 3.636719 C 29.804688 4.289062 28.375 5.441406 26.925781 5.8125 C 28.40625 5.722656 29.027344 6.21875 29.261719 7.679688 C 29.308594 6.1875 30.117188 4.539062 30.582031 3.636719 Z M 30.582031 3.636719 "/>
<path fill-rule="nonzero" fill="rgb(0%, 0%, 0%)" fill-opacity="1" stroke-width="0.797" stroke-linecap="butt" stroke-linejoin="miter" stroke="rgb(0%, 0%, 0%)" stroke-opacity="1" stroke-miterlimit="10" d="M 71.717125 56.691906 L 55.842125 66.613781 L 55.842125 46.773938 L 71.717125 56.691906 " transform="matrix(1, 0, 0, -1, -0.2015, 78.188)"/>
<path fill="none" stroke-width="0.797" stroke-linecap="butt" stroke-linejoin="miter" stroke="rgb(0%, 0%, 0%)" stroke-opacity="1" stroke-miterlimit="10" d="M 71.717125 46.773938 L 71.717125 66.613781 " transform="matrix(1, 0, 0, -1, -0.2015, 78.188)"/>
<path fill="none" stroke-width="0.3985" stroke-linecap="butt" stroke-linejoin="miter" stroke="rgb(0%, 0%, 0%)" stroke-opacity="1" stroke-miterlimit="10" d="M 68.541344 76.535656 L 62.099938 68.480969 " transform="matrix(1, 0, 0, -1, -0.2015, 78.188)"/>
<path fill-rule="nonzero" fill="rgb(0%, 0%, 0%)" fill-opacity="1" d="M 60.402344 11.574219 C 61.183594 10.917969 62.613281 9.769531 64.058594 9.394531 C 62.582031 9.488281 61.960938 8.992188 61.726562 7.527344 C 61.679688 9.023438 60.871094 10.671875 60.402344 11.574219 Z M 60.402344 11.574219 "/>
<path fill="none" stroke-width="0.3985" stroke-linecap="butt" stroke-linejoin="miter" stroke="rgb(0%, 0%, 0%)" stroke-opacity="1" stroke-miterlimit="10" d="M 73.303063 74.551281 L 66.861656 66.496594 " transform="matrix(1, 0, 0, -1, -0.2015, 78.188)"/>
<path fill-rule="nonzero" fill="rgb(0%, 0%, 0%)" fill-opacity="1" d="M 65.167969 13.558594 C 65.945312 12.902344 67.375 11.753906 68.820312 11.378906 C 67.34375 11.472656 66.722656 10.976562 66.488281 9.511719 C 66.441406 11.003906 65.632812 12.65625 65.167969 13.558594 Z M 65.167969 13.558594 "/>
<path fill="none" stroke-width="0.797" stroke-linecap="butt" stroke-linejoin="miter" stroke="rgb(0%, 0%, 0%)" stroke-opacity="1" stroke-miterlimit="10" d="M 114.236656 56.691906 L 98.361656 66.613781 L 98.361656 46.773938 Z M 114.236656 56.691906 " transform="matrix(1, 0, 0, -1, -0.2015, 78.188)"/>
<path fill="none" stroke-width="0.797" stroke-linecap="butt" stroke-linejoin="miter" stroke="rgb(0%, 0%, 0%)" stroke-opacity="1" stroke-miterlimit="10" d="M 114.236656 46.773938 L 114.236656 66.613781 M 106.299156 66.613781 L 106.299156 46.773938 " transform="matrix(1, 0, 0, -1, -0.2015, 78.188)"/>
<path fill="none" stroke-width="0.3985" stroke-linecap="butt" stroke-linejoin="miter" stroke="rgb(0%, 0%, 0%)" stroke-opacity="1" stroke-miterlimit="10" d="M 103.127281 67.605969 L 103.127281 75.137219 " transform="matrix(1, 0, 0, -1, -0.2015, 78.188)"/>
<path fill-rule="nonzero" fill="rgb(0%, 0%, 0%)" fill-opacity="1" d="M 102.925781 0.660156 C 102.726562 1.65625 102.328125 3.449219 101.429688 4.644531 C 102.527344 3.648438 103.324219 3.648438 104.417969 4.644531 C 103.523438 3.449219 103.125 1.65625 102.925781 0.660156 Z M 102.925781 0.660156 "/>
<path fill="none" stroke-width="0.3985" stroke-linecap="butt" stroke-linejoin="miter" stroke="rgb(0%, 0%, 0%)" stroke-opacity="1" stroke-miterlimit="10" d="M 107.889 67.605969 L 107.889 75.137219 " transform="matrix(1, 0, 0, -1, -0.2015, 78.188)"/>
<path fill-rule="nonzero" fill="rgb(0%, 0%, 0%)" fill-opacity="1" d="M 107.6875 0.660156 C 107.488281 1.65625 107.089844 3.449219 106.191406 4.644531 C 107.289062 3.648438 108.085938 3.648438 109.179688 4.644531 C 108.285156 3.449219 107.886719 1.65625 107.6875 0.660156 Z M 107.6875 0.660156 "/>
<g clip-path="url(#clip-1)">
<path fill="none" stroke-width="0.3985" stroke-linecap="butt" stroke-linejoin="miter" stroke="rgb(0%, 0%, 0%)" stroke-opacity="1" stroke-miterlimit="10" d="M -0.001625 0.0005 L 13.322594 0.0005 M 29.197594 0.0005 L 55.842125 0.0005 M 71.717125 0.0005 L 98.361656 0.0005 M 114.236656 0.0005 L 127.560875 0.0005 " transform="matrix(1, 0, 0, -1, -0.2015, 78.188)"/>
</g>
<path fill="none" stroke-width="0.797" stroke-linecap="butt" stroke-linejoin="miter" stroke="rgb(0%, 0%, 0%)" stroke-opacity="1" stroke-miterlimit="10" d="M 29.197594 0.0005 L 13.322594 9.922375 L 13.322594 -9.921375 Z M 29.197594 0.0005 " transform="matrix(1, 0, 0, -1, -0.2015, 78.188)"/>
<path fill="none" stroke-width="0.797" stroke-linecap="butt" stroke-linejoin="miter" stroke="rgb(0%, 0%, 0%)" stroke-opacity="1" stroke-miterlimit="10" d="M 29.197594 -9.921375 L 29.197594 9.922375 " transform="matrix(1, 0, 0, -1, -0.2015, 78.188)"/>
<path fill="none" stroke-width="0.3985" stroke-linecap="butt" stroke-linejoin="miter" stroke="rgb(100%, 0%, 0%)" stroke-opacity="1" stroke-dasharray="0.99628 0.99628" stroke-miterlimit="10" d="M 21.260094 7.938 L 17.533531 15.703625 " transform="matrix(1, 0, 0, -1, -0.2015, 78.188)"/>
<path fill-rule="nonzero" fill="rgb(100%, 0%, 0%)" fill-opacity="1" d="M 16.296875 60.328125 C 16.546875 61.3125 16.964844 63.101562 16.671875 64.570312 C 17.230469 63.195312 17.949219 62.851562 19.367188 63.273438 C 18.042969 62.585938 16.90625 61.140625 16.296875 60.328125 Z M 16.296875 60.328125 "/>
<path fill="none" stroke-width="0.3985" stroke-linecap="butt" stroke-linejoin="miter" stroke="rgb(100%, 0%, 0%)" stroke-opacity="1" stroke-dasharray="0.99628 0.99628" stroke-miterlimit="10" d="M 26.021813 5.953625 L 22.29525 13.71925 " transform="matrix(1, 0, 0, -1, -0.2015, 78.188)"/>
<path fill-rule="nonzero" fill="rgb(100%, 0%, 0%)" fill-opacity="1" d="M 21.058594 62.3125 C 21.308594 63.296875 21.726562 65.085938 21.4375 66.554688 C 21.992188 65.179688 22.710938 64.835938 24.128906 65.257812 C 22.804688 64.570312 21.667969 63.125 21.058594 62.3125 Z M 21.058594 62.3125 "/>
<path fill-rule="nonzero" fill="rgb(0%, 0%, 0%)" fill-opacity="1" stroke-width="0.797" stroke-linecap="butt" stroke-linejoin="miter" stroke="rgb(0%, 0%, 0%)" stroke-opacity="1" stroke-miterlimit="10" d="M 71.717125 0.0005 L 55.842125 9.922375 L 55.842125 -9.921375 L 71.717125 0.0005 " transform="matrix(1, 0, 0, -1, -0.2015, 78.188)"/>
<path fill="none" stroke-width="0.797" stroke-linecap="butt" stroke-linejoin="miter" stroke="rgb(0%, 0%, 0%)" stroke-opacity="1" stroke-miterlimit="10" d="M 71.717125 -9.921375 L 71.717125 9.922375 " transform="matrix(1, 0, 0, -1, -0.2015, 78.188)"/>
<path fill="none" stroke-width="0.3985" stroke-linecap="butt" stroke-linejoin="miter" stroke="rgb(100%, 0%, 0%)" stroke-opacity="1" stroke-dasharray="0.99628 0.99628" stroke-miterlimit="10" d="M 59.017906 17.859875 L 62.744469 10.09425 " transform="matrix(1, 0, 0, -1, -0.2015, 78.188)"/>
<path fill-rule="nonzero" fill="rgb(100%, 0%, 0%)" fill-opacity="1" d="M 63.578125 70.25 C 63.328125 69.265625 62.910156 67.476562 63.203125 66.011719 C 62.644531 67.382812 61.925781 67.730469 60.507812 67.304688 C 61.832031 67.996094 62.96875 69.4375 63.578125 70.25 Z M 63.578125 70.25 "/>
<path fill="none" stroke-width="0.3985" stroke-linecap="butt" stroke-linejoin="miter" stroke="rgb(100%, 0%, 0%)" stroke-opacity="1" stroke-dasharray="0.99628 0.99628" stroke-miterlimit="10" d="M 63.779625 15.8755 L 67.506188 8.109875 " transform="matrix(1, 0, 0, -1, -0.2015, 78.188)"/>
<path fill-rule="nonzero" fill="rgb(100%, 0%, 0%)" fill-opacity="1" d="M 68.339844 72.234375 C 68.089844 71.25 67.671875 69.460938 67.964844 67.996094 C 67.40625 69.367188 66.6875 69.714844 65.269531 69.289062 C 66.59375 69.980469 67.730469 71.421875 68.339844 72.234375 Z M 68.339844 72.234375 "/>
<path fill="none" stroke-width="0.797" stroke-linecap="butt" stroke-linejoin="miter" stroke="rgb(0%, 0%, 0%)" stroke-opacity="1" stroke-miterlimit="10" d="M 114.236656 0.0005 L 98.361656 9.922375 L 98.361656 -9.921375 Z M 114.236656 0.0005 " transform="matrix(1, 0, 0, -1, -0.2015, 78.188)"/>
<path fill="none" stroke-width="0.797" stroke-linecap="butt" stroke-linejoin="miter" stroke="rgb(0%, 0%, 0%)" stroke-opacity="1" stroke-miterlimit="10" d="M 114.236656 -9.921375 L 114.236656 9.922375 M 106.299156 9.922375 L 106.299156 -9.921375 " transform="matrix(1, 0, 0, -1, -0.2015, 78.188)"/>
<path fill="none" stroke-width="0.3985" stroke-linecap="butt" stroke-linejoin="miter" stroke="rgb(100%, 0%, 0%)" stroke-opacity="1" stroke-dasharray="0.99628 0.99628" stroke-miterlimit="10" d="M 103.127281 10.914563 L 103.127281 18.441906 " transform="matrix(1, 0, 0, -1, -0.2015, 78.188)"/>
<path fill-rule="nonzero" fill="rgb(100%, 0%, 0%)" fill-opacity="1" d="M 102.925781 57.351562 C 102.726562 58.347656 102.328125 60.144531 101.429688 61.339844 C 102.527344 60.34375 103.324219 60.34375 104.417969 61.339844 C 103.523438 60.144531 103.125 58.347656 102.925781 57.351562 Z M 102.925781 57.351562 "/>
<path fill="none" stroke-width="0.3985" stroke-linecap="butt" stroke-linejoin="miter" stroke="rgb(100%, 0%, 0%)" stroke-opacity="1" stroke-dasharray="0.99628 0.99628" stroke-miterlimit="10" d="M 107.889 10.914563 L 107.889 18.441906 " transform="matrix(1, 0, 0, -1, -0.2015, 78.188)"/>
<path fill-rule="nonzero" fill="rgb(100%, 0%, 0%)" fill-opacity="1" d="M 107.6875 57.351562 C 107.488281 58.347656 107.089844 60.144531 106.191406 61.339844 C 107.289062 60.34375 108.085938 60.34375 109.179688 61.339844 C 108.285156 60.144531 107.886719 58.347656 107.6875 57.351562 Z M 107.6875 57.351562 "/>
<g clip-path="url(#clip-2)">
<path fill="none" stroke-width="0.3985" stroke-linecap="butt" stroke-linejoin="miter" stroke="rgb(0%, 0%, 100%)" stroke-opacity="1" stroke-miterlimit="10" d="M -0.001625 -56.694812 L 13.322594 -56.694812 M 29.197594 -56.694812 L 55.842125 -56.694812 M 71.717125 -56.694812 L 98.361656 -56.694812 M 114.236656 -56.694812 L 127.560875 -56.694812 " transform="matrix(1, 0, 0, -1, -0.2015, 78.188)"/>
</g>
<path fill="none" stroke-width="0.797" stroke-linecap="butt" stroke-linejoin="miter" stroke="rgb(0%, 0%, 100%)" stroke-opacity="1" stroke-miterlimit="10" d="M 29.197594 -56.694812 L 13.322594 -46.772937 L 13.322594 -66.616687 Z M 29.197594 -56.694812 " transform="matrix(1, 0, 0, -1, -0.2015, 78.188)"/>
<path fill="none" stroke-width="0.797" stroke-linecap="butt" stroke-linejoin="miter" stroke="rgb(0%, 0%, 100%)" stroke-opacity="1" stroke-miterlimit="10" d="M 29.197594 -66.616687 L 29.197594 -46.772937 " transform="matrix(1, 0, 0, -1, -0.2015, 78.188)"/>
<path fill="none" stroke-width="0.3985" stroke-linecap="butt" stroke-linejoin="miter" stroke="rgb(0%, 0%, 100%)" stroke-opacity="1" stroke-miterlimit="10" d="M 18.799156 -45.878406 L 23.853844 -39.562 " transform="matrix(1, 0, 0, -1, -0.2015, 78.188)"/>
<path fill="none" stroke-width="0.3985" stroke-linecap="butt" stroke-linejoin="miter" stroke="rgb(100%, 0%, 0%)" stroke-opacity="1" stroke-miterlimit="10" d="M -0.0024018 2.092153 C 0.578404 2.091544 1.046345 1.625437 1.045737 1.044631 C 1.045739 0.469316 0.57658 -0.00106552 0.00126528 -0.00106731 C 0.57658 -0.00106552 1.044521 -0.467173 1.046963 -1.045539 C 1.043915 -1.623294 0.577807 -2.091235 -0.000558453 -2.093677 " transform="matrix(-0.62466, 0.78082, 0.78082, 0.62466, 18.66178, 123.98796)"/>
<path fill-rule="nonzero" fill="rgb(0%, 0%, 100%)" fill-opacity="1" stroke-width="0.3985" stroke-linecap="butt" stroke-linejoin="miter" stroke="rgb(0%, 0%, 100%)" stroke-opacity="1" stroke-miterlimit="10" d="M 3.051799 -0.000253066 L 0.200835 1.23093 L 0.199603 -1.23141 Z M 3.051799 -0.000253066 " transform="matrix(0.62465, -0.78082, -0.78082, -0.62465, 23.58959, 117.82806)"/>
<path fill="none" stroke-width="0.3985" stroke-linecap="butt" stroke-linejoin="miter" stroke="rgb(0%, 0%, 100%)" stroke-opacity="1" stroke-miterlimit="10" d="M 23.564781 -47.862781 L 28.615563 -41.546375 " transform="matrix(1, 0, 0, -1, -0.2015, 78.188)"/>
<path fill="none" stroke-width="0.3985" stroke-linecap="butt" stroke-linejoin="miter" stroke="rgb(100%, 0%, 0%)" stroke-opacity="1" stroke-miterlimit="10" d="M -0.00208475 2.091957 C 0.578721 2.091348 1.046662 1.625241 1.046054 1.044435 C 1.046056 0.469119 0.576898 -0.00126172 -0.000858037 0.00178693 C 0.576898 -0.00126172 1.044838 -0.467369 1.04728 -1.045735 C 1.044232 -1.623491 0.578124 -2.091431 -0.0002414 -2.093873 " transform="matrix(-0.62466, 0.78082, 0.78082, 0.62466, 23.42385, 125.97221)"/>
<path fill-rule="nonzero" fill="rgb(0%, 0%, 100%)" fill-opacity="1" stroke-width="0.3985" stroke-linecap="butt" stroke-linejoin="miter" stroke="rgb(0%, 0%, 100%)" stroke-opacity="1" stroke-miterlimit="10" d="M 3.051469 -0.0000412395 L 0.200505 1.231142 L 0.199273 -1.231198 Z M 3.051469 -0.0000412395 " transform="matrix(0.62465, -0.78082, -0.78082, -0.62465, 28.35168, 119.81231)"/>
<path fill-rule="nonzero" fill="rgb(0%, 0%, 100%)" fill-opacity="1" stroke-width="0.797" stroke-linecap="butt" stroke-linejoin="miter" stroke="rgb(0%, 0%, 100%)" stroke-opacity="1" stroke-miterlimit="10" d="M 71.717125 -56.694812 L 55.842125 -46.772937 L 55.842125 -66.616687 L 71.717125 -56.694812 " transform="matrix(1, 0, 0, -1, -0.2015, 78.188)"/>
<path fill="none" stroke-width="0.797" stroke-linecap="butt" stroke-linejoin="miter" stroke="rgb(0%, 0%, 100%)" stroke-opacity="1" stroke-miterlimit="10" d="M 71.717125 -66.616687 L 71.717125 -46.772937 " transform="matrix(1, 0, 0, -1, -0.2015, 78.188)"/>
<path fill="none" stroke-width="0.3985" stroke-linecap="butt" stroke-linejoin="miter" stroke="rgb(0%, 0%, 100%)" stroke-opacity="1" stroke-miterlimit="10" d="M 67.8265 -37.745594 L 62.775719 -44.062 " transform="matrix(1, 0, 0, -1, -0.2015, 78.188)"/>
<path fill="none" stroke-width="0.3985" stroke-linecap="butt" stroke-linejoin="miter" stroke="rgb(100%, 0%, 0%)" stroke-opacity="1" stroke-miterlimit="10" d="M 0.00115625 2.09287 C 0.576471 2.092872 1.046853 1.623714 1.043804 1.045958 C 1.046246 0.467593 0.580139 -0.000348233 -0.000667488 0.000260043 C 0.580139 -0.000348233 1.045029 -0.468896 1.047471 -1.047262 C 1.047473 -1.622577 0.578315 -2.092958 0.000559221 -2.08991 " transform="matrix(0.62466, -0.78082, -0.78082, -0.62466, 67.56312, 116.01136)"/>
<path fill-rule="nonzero" fill="rgb(0%, 0%, 100%)" fill-opacity="1" stroke-width="0.3985" stroke-linecap="butt" stroke-linejoin="miter" stroke="rgb(0%, 0%, 100%)" stroke-opacity="1" stroke-miterlimit="10" d="M 3.051293 0.00148409 L 0.200328 1.232668 L 0.199097 -1.229673 Z M 3.051293 0.00148409 " transform="matrix(-0.62465, 0.78082, 0.78082, 0.62465, 62.6353, 122.17125)"/>
<path fill="none" stroke-width="0.3985" stroke-linecap="butt" stroke-linejoin="miter" stroke="rgb(0%, 0%, 100%)" stroke-opacity="1" stroke-miterlimit="10" d="M 72.588219 -39.729969 L 67.537438 -46.046375 " transform="matrix(1, 0, 0, -1, -0.2015, 78.188)"/>
<path fill="none" stroke-width="0.3985" stroke-linecap="butt" stroke-linejoin="miter" stroke="rgb(100%, 0%, 0%)" stroke-opacity="1" stroke-miterlimit="10" d="M 0.000828261 2.093096 C 0.576143 2.093098 1.046525 1.62394 1.046526 1.048624 C 1.045918 0.467818 0.579811 -0.000122354 -0.000995474 0.000485922 C 0.579811 -0.000122354 1.044701 -0.46867 1.047143 -1.047036 C 1.047145 -1.622351 0.577987 -2.092732 0.000231236 -2.089684 " transform="matrix(0.62466, -0.78082, -0.78082, -0.62466, 72.32522, 117.99562)"/>
<path fill-rule="nonzero" fill="rgb(0%, 0%, 100%)" fill-opacity="1" stroke-width="0.3985" stroke-linecap="butt" stroke-linejoin="miter" stroke="rgb(0%, 0%, 100%)" stroke-opacity="1" stroke-miterlimit="10" d="M 3.051615 0.00126602 L 0.20065 1.232449 L 0.199419 -1.229891 Z M 3.051615 0.00126602 " transform="matrix(-0.62465, 0.78082, 0.78082, 0.62465, 67.39739, 124.15551)"/>
<path fill="none" stroke-width="0.797" stroke-linecap="butt" stroke-linejoin="miter" stroke="rgb(0%, 0%, 100%)" stroke-opacity="1" stroke-miterlimit="10" d="M 114.236656 -56.694812 L 98.361656 -46.772937 L 98.361656 -66.616687 Z M 114.236656 -56.694812 " transform="matrix(1, 0, 0, -1, -0.2015, 78.188)"/>
<path fill="none" stroke-width="0.797" stroke-linecap="butt" stroke-linejoin="miter" stroke="rgb(0%, 0%, 100%)" stroke-opacity="1" stroke-miterlimit="10" d="M 114.236656 -66.616687 L 114.236656 -46.772937 M 106.299156 -46.772937 L 106.299156 -66.616687 " transform="matrix(1, 0, 0, -1, -0.2015, 78.188)"/>
<path fill="none" stroke-width="0.3985" stroke-linecap="butt" stroke-linejoin="miter" stroke="rgb(0%, 0%, 100%)" stroke-opacity="1" stroke-miterlimit="10" d="M 103.127281 -44.636219 L 103.127281 -39.331531 " transform="matrix(1, 0, 0, -1, -0.2015, 78.188)"/>
<path fill="none" stroke-width="0.3985" stroke-linecap="butt" stroke-linejoin="miter" stroke="rgb(100%, 0%, 0%)" stroke-opacity="1" stroke-miterlimit="10" d="M -0.00014375 2.091325 C 0.577981 2.091325 1.046731 1.622575 1.046731 1.04445 C 1.046731 0.470231 0.577981 0.00148125 -0.00014375 0.00148125 C 0.577981 0.00148125 1.046731 -0.467269 1.046731 -1.045394 C 1.046731 -1.623519 0.577981 -2.092269 -0.00014375 -2.092269 " transform="matrix(0, 1, 1, 0, 102.9243, 122.7228)"/>
<path fill-rule="nonzero" fill="rgb(0%, 0%, 100%)" fill-opacity="1" stroke-width="0.3985" stroke-linecap="butt" stroke-linejoin="miter" stroke="rgb(0%, 0%, 100%)" stroke-opacity="1" stroke-miterlimit="10" d="M 3.052364 -0.00148125 L 0.200801 1.232894 L 0.200801 -1.23195 Z M 3.052364 -0.00148125 " transform="matrix(0, -1, -1, 0, 102.9243, 117.61877)"/>
<path fill="none" stroke-width="0.3985" stroke-linecap="butt" stroke-linejoin="miter" stroke="rgb(0%, 0%, 100%)" stroke-opacity="1" stroke-miterlimit="10" d="M 107.889 -44.636219 L 107.889 -39.331531 " transform="matrix(1, 0, 0, -1, -0.2015, 78.188)"/>
<path fill="none" stroke-width="0.3985" stroke-linecap="butt" stroke-linejoin="miter" stroke="rgb(100%, 0%, 0%)" stroke-opacity="1" stroke-miterlimit="10" d="M -0.00014375 2.090984 C 0.577981 2.090984 1.046731 1.622234 1.046731 1.048015 C 1.046731 0.46989 0.577981 0.00114 -0.00014375 0.00114 C 0.577981 0.00114 1.046731 -0.46761 1.046731 -1.045735 C 1.046731 -1.62386 0.577981 -2.09261 -0.00014375 -2.09261 " transform="matrix(0, 1, 1, 0, 107.68636, 122.7228)"/>
<path fill-rule="nonzero" fill="rgb(0%, 0%, 100%)" fill-opacity="1" stroke-width="0.3985" stroke-linecap="butt" stroke-linejoin="miter" stroke="rgb(0%, 0%, 100%)" stroke-opacity="1" stroke-miterlimit="10" d="M 3.052364 -0.00114 L 0.200801 1.233235 L 0.200801 -1.231609 Z M 3.052364 -0.00114 " transform="matrix(0, -1, -1, 0, 107.68636, 117.61877)"/>
<g clip-path="url(#clip-3)">
<path fill="none" stroke-width="0.3985" stroke-linecap="butt" stroke-linejoin="miter" stroke="rgb(0%, 0%, 100%)" stroke-opacity="1" stroke-miterlimit="10" d="M -0.001625 -113.386219 L 13.322594 -113.386219 M 29.197594 -113.386219 L 55.842125 -113.386219 M 71.717125 -113.386219 L 98.361656 -113.386219 M 114.236656 -113.386219 L 127.560875 -113.386219 " transform="matrix(1, 0, 0, -1, -0.2015, 78.188)"/>
</g>
<path fill="none" stroke-width="0.797" stroke-linecap="butt" stroke-linejoin="miter" stroke="rgb(0%, 0%, 100%)" stroke-opacity="1" stroke-miterlimit="10" d="M 29.197594 -113.386219 L 13.322594 -103.464344 L 13.322594 -123.308094 Z M 29.197594 -113.386219 " transform="matrix(1, 0, 0, -1, -0.2015, 78.188)"/>
<path fill="none" stroke-width="0.797" stroke-linecap="butt" stroke-linejoin="miter" stroke="rgb(0%, 0%, 100%)" stroke-opacity="1" stroke-miterlimit="10" d="M 29.197594 -123.308094 L 29.197594 -103.464344 " transform="matrix(1, 0, 0, -1, -0.2015, 78.188)"/>
<path fill="none" stroke-width="0.797" stroke-linecap="butt" stroke-linejoin="miter" stroke="rgb(0%, 0%, 0%)" stroke-opacity="1" stroke-miterlimit="10" d="M 19.049156 -102.261219 L 23.139 -97.147937 " transform="matrix(1, 0, 0, -1, -0.2015, 78.188)"/>
<path fill="none" stroke-width="0.797" stroke-linecap="butt" stroke-linejoin="miter" stroke="rgb(100%, 0%, 0%)" stroke-opacity="1" stroke-miterlimit="10" d="M -0.000651455 2.690545 C 0.744265 2.691126 1.347008 2.087726 1.345149 1.345859 C 1.34573 0.600942 0.74233 -0.00180048 0.000463669 0.0000587455 C 0.74233 -0.00180048 1.342633 -0.60215 1.346264 -1.344627 C 1.344405 -2.086493 0.741005 -2.689236 0.00157879 -2.690427 " transform="matrix(-0.62463, 0.78085, 0.78085, 0.62463, 18.9729, 180.29257)"/>
<path fill-rule="nonzero" fill="rgb(0%, 0%, 0%)" fill-opacity="1" stroke-width="0.797" stroke-linecap="butt" stroke-linejoin="miter" stroke="rgb(0%, 0%, 0%)" stroke-opacity="1" stroke-miterlimit="10" d="M 3.773101 -0.00191766 L 0.398677 1.495879 L 0.39928 0.000538526 L 0.396833 -1.497243 Z M 3.773101 -0.00191766 " transform="matrix(0.62465, -0.78082, -0.78082, -0.62465, 22.81351, 175.49179)"/>
<path fill="none" stroke-width="0.797" stroke-linecap="butt" stroke-linejoin="miter" stroke="rgb(0%, 0%, 0%)" stroke-opacity="1" stroke-miterlimit="10" d="M 23.810875 -104.245594 L 27.900719 -99.132312 " transform="matrix(1, 0, 0, -1, -0.2015, 78.188)"/>
<path fill="none" stroke-width="0.797" stroke-linecap="butt" stroke-linejoin="miter" stroke="rgb(100%, 0%, 0%)" stroke-opacity="1" stroke-miterlimit="10" d="M -0.000328165 2.690341 C 0.741538 2.688481 1.347332 2.087522 1.345472 1.345655 C 1.346053 0.600738 0.742653 -0.00200451 0.000786958 -0.00014528 C 0.742653 -0.00200451 1.342956 -0.602354 1.346587 -1.344831 C 1.344728 -2.086697 0.741328 -2.68944 0.00190208 -2.690631 " transform="matrix(-0.62463, 0.78085, 0.78085, 0.62463, 23.73498, 182.27682)"/>
<path fill-rule="nonzero" fill="rgb(0%, 0%, 0%)" fill-opacity="1" stroke-width="0.797" stroke-linecap="butt" stroke-linejoin="miter" stroke="rgb(0%, 0%, 0%)" stroke-opacity="1" stroke-miterlimit="10" d="M 3.772765 -0.00169802 L 0.398342 1.496099 L 0.398945 0.000758162 L 0.398938 -1.500074 Z M 3.772765 -0.00169802 " transform="matrix(0.62465, -0.78082, -0.78082, -0.62465, 27.57561, 177.47604)"/>
<path fill-rule="nonzero" fill="rgb(0%, 0%, 100%)" fill-opacity="1" stroke-width="0.797" stroke-linecap="butt" stroke-linejoin="miter" stroke="rgb(0%, 0%, 100%)" stroke-opacity="1" stroke-miterlimit="10" d="M 71.717125 -113.386219 L 55.842125 -103.464344 L 55.842125 -123.308094 L 71.717125 -113.386219 " transform="matrix(1, 0, 0, -1, -0.2015, 78.188)"/>
<path fill="none" stroke-width="0.797" stroke-linecap="butt" stroke-linejoin="miter" stroke="rgb(0%, 0%, 100%)" stroke-opacity="1" stroke-miterlimit="10" d="M 71.717125 -123.308094 L 71.717125 -103.464344 " transform="matrix(1, 0, 0, -1, -0.2015, 78.188)"/>
<path fill="none" stroke-width="0.797" stroke-linecap="butt" stroke-linejoin="miter" stroke="rgb(0%, 0%, 0%)" stroke-opacity="1" stroke-miterlimit="10" d="M 67.5765 -94.7495 L 63.486656 -99.862781 " transform="matrix(1, 0, 0, -1, -0.2015, 78.188)"/>
<path fill="none" stroke-width="0.797" stroke-linecap="butt" stroke-linejoin="miter" stroke="rgb(100%, 0%, 0%)" stroke-opacity="1" stroke-miterlimit="10" d="M 0.000269381 2.689139 C 0.745186 2.68972 1.345489 2.089371 1.34607 1.344454 C 1.344211 0.602588 0.740811 -0.000155238 0.0013845 -0.00134654 C 0.740811 -0.000155238 1.346604 -0.601115 1.344745 -1.342981 C 1.345326 -2.087898 0.741926 -2.690641 0.0000593969 -2.688782 " transform="matrix(0.62463, -0.78085, -0.78085, -0.62463, 67.25199, 173.09399)"/>
<path fill-rule="nonzero" fill="rgb(0%, 0%, 0%)" fill-opacity="1" stroke-width="0.797" stroke-linecap="butt" stroke-linejoin="miter" stroke="rgb(0%, 0%, 0%)" stroke-opacity="1" stroke-miterlimit="10" d="M 3.77218 -0.000512388 L 0.397756 1.497285 L 0.398359 0.0019438 L 0.398352 -1.498888 Z M 3.77218 -0.000512388 " transform="matrix(-0.62465, 0.78082, 0.78082, 0.62465, 63.41138, 177.89477)"/>
<path fill="none" stroke-width="0.797" stroke-linecap="butt" stroke-linejoin="miter" stroke="rgb(0%, 0%, 0%)" stroke-opacity="1" stroke-miterlimit="10" d="M 72.338219 -96.733875 L 68.252281 -101.847156 " transform="matrix(1, 0, 0, -1, -0.2015, 78.188)"/>
<path fill="none" stroke-width="0.797" stroke-linecap="butt" stroke-linejoin="miter" stroke="rgb(100%, 0%, 0%)" stroke-opacity="1" stroke-miterlimit="10" d="M -0.0000664025 2.689359 C 0.74485 2.68994 1.345153 2.089591 1.345734 1.344674 C 1.343875 0.602807 0.740475 0.0000644067 0.00104872 -0.0011269 C 0.740475 0.0000644067 1.346268 -0.600895 1.346849 -1.345812 C 1.34499 -2.087679 0.74159 -2.690422 -0.000276387 -2.688562 " transform="matrix(0.62463, -0.78085, -0.78085, -0.62463, 72.01409, 175.07824)"/>
<path fill-rule="nonzero" fill="rgb(0%, 0%, 0%)" fill-opacity="1" stroke-width="0.797" stroke-linecap="butt" stroke-linejoin="miter" stroke="rgb(0%, 0%, 0%)" stroke-opacity="1" stroke-miterlimit="10" d="M 3.77251 -0.000724214 L 0.398086 1.497073 L 0.398689 0.00173197 L 0.398682 -1.4991 Z M 3.77251 -0.000724214 " transform="matrix(-0.62465, 0.78082, 0.78082, 0.62465, 68.17347, 179.87902)"/>
<path fill="none" stroke-width="0.797" stroke-linecap="butt" stroke-linejoin="miter" stroke="rgb(0%, 0%, 100%)" stroke-opacity="1" stroke-miterlimit="10" d="M 114.236656 -113.386219 L 98.361656 -103.464344 L 98.361656 -123.308094 Z M 114.236656 -113.386219 " transform="matrix(1, 0, 0, -1, -0.2015, 78.188)"/>
<path fill="none" stroke-width="0.797" stroke-linecap="butt" stroke-linejoin="miter" stroke="rgb(0%, 0%, 100%)" stroke-opacity="1" stroke-miterlimit="10" d="M 114.236656 -123.308094 L 114.236656 -103.464344 M 106.299156 -103.464344 L 106.299156 -123.308094 " transform="matrix(1, 0, 0, -1, -0.2015, 78.188)"/>
<path fill="none" stroke-width="0.797" stroke-linecap="butt" stroke-linejoin="miter" stroke="rgb(0%, 0%, 0%)" stroke-opacity="1" stroke-miterlimit="10" d="M 103.127281 -100.929187 L 103.127281 -97.167469 " transform="matrix(1, 0, 0, -1, -0.2015, 78.188)"/>
<path fill="none" stroke-width="0.797" stroke-linecap="butt" stroke-linejoin="miter" stroke="rgb(100%, 0%, 0%)" stroke-opacity="1" stroke-miterlimit="10" d="M -0.00032125 2.688981 C 0.741866 2.688981 1.343429 2.087419 1.343429 1.345231 C 1.343429 0.603044 0.741866 0.00148125 -0.00032125 0.00148125 C 0.741866 0.00148125 1.343429 -0.603987 1.343429 -1.346175 C 1.343429 -2.088362 0.741866 -2.689925 -0.00032125 -2.689925 " transform="matrix(0, 1, 1, 0, 102.9243, 178.91829)"/>
<path fill-rule="nonzero" fill="rgb(0%, 0%, 0%)" fill-opacity="1" stroke-width="0.797" stroke-linecap="butt" stroke-linejoin="miter" stroke="rgb(0%, 0%, 0%)" stroke-opacity="1" stroke-miterlimit="10" d="M 3.77355 -0.00148125 L 0.39855 1.498519 L 0.39855 -1.497575 Z M 3.77355 -0.00148125 " transform="matrix(0, -1, -1, 0, 102.9243, 175.5548)"/>
<path fill="none" stroke-width="0.797" stroke-linecap="butt" stroke-linejoin="miter" stroke="rgb(0%, 0%, 0%)" stroke-opacity="1" stroke-miterlimit="10" d="M 107.889 -100.929187 L 107.889 -97.167469 " transform="matrix(1, 0, 0, -1, -0.2015, 78.188)"/>
<path fill="none" stroke-width="0.797" stroke-linecap="butt" stroke-linejoin="miter" stroke="rgb(100%, 0%, 0%)" stroke-opacity="1" stroke-miterlimit="10" d="M -0.00032125 2.68864 C 0.741866 2.68864 1.343429 2.087078 1.343429 1.34489 C 1.343429 0.602703 0.741866 0.00114 -0.00032125 0.00114 C 0.741866 0.00114 1.343429 -0.600422 1.343429 -1.346516 C 1.343429 -2.088704 0.741866 -2.690266 -0.00032125 -2.690266 " transform="matrix(0, 1, 1, 0, 107.68636, 178.91829)"/>
<path fill-rule="nonzero" fill="rgb(0%, 0%, 0%)" fill-opacity="1" stroke-width="0.797" stroke-linecap="butt" stroke-linejoin="miter" stroke="rgb(0%, 0%, 0%)" stroke-opacity="1" stroke-miterlimit="10" d="M 3.77355 -0.00114 L 0.39855 1.49886 L 0.39855 -1.497234 Z M 3.77355 -0.00114 " transform="matrix(0, -1, -1, 0, 107.68636, 175.5548)"/>
<g clip-path="url(#clip-4)">
<path fill="none" stroke-width="0.3985" stroke-linecap="butt" stroke-linejoin="miter" stroke="rgb(0%, 0%, 100%)" stroke-opacity="1" stroke-miterlimit="10" d="M -0.001625 -170.081531 L 13.322594 -170.081531 M 29.197594 -170.081531 L 55.842125 -170.081531 M 71.717125 -170.081531 L 98.361656 -170.081531 M 114.236656 -170.081531 L 127.560875 -170.081531 " transform="matrix(1, 0, 0, -1, -0.2015, 78.188)"/>
</g>
<g clip-path="url(#clip-5)">
<path fill="none" stroke-width="0.797" stroke-linecap="butt" stroke-linejoin="miter" stroke="rgb(0%, 0%, 100%)" stroke-opacity="1" stroke-miterlimit="10" d="M 29.197594 -170.081531 L 13.322594 -160.159656 L 13.322594 -180.003406 Z M 29.197594 -170.081531 " transform="matrix(1, 0, 0, -1, -0.2015, 78.188)"/>
</g>
<g clip-path="url(#clip-6)">
<path fill="none" stroke-width="0.797" stroke-linecap="butt" stroke-linejoin="miter" stroke="rgb(0%, 0%, 100%)" stroke-opacity="1" stroke-miterlimit="10" d="M 29.197594 -180.003406 L 29.197594 -160.159656 " transform="matrix(1, 0, 0, -1, -0.2015, 78.188)"/>
</g>
<path fill="none" stroke-width="0.797" stroke-linecap="butt" stroke-linejoin="miter" stroke="rgb(0%, 0%, 0%)" stroke-opacity="1" stroke-miterlimit="10" d="M 20.592125 -160.753406 L 18.494469 -156.382312 " transform="matrix(1, 0, 0, -1, -0.2015, 78.188)"/>
<path fill="none" stroke-width="0.797" stroke-linecap="butt" stroke-linejoin="miter" stroke="rgb(100%, 0%, 0%)" stroke-opacity="1" stroke-miterlimit="10" d="M 0.00184943 2.690466 C 0.742686 2.690208 1.346475 2.088429 1.344527 1.344071 C 1.344269 0.603234 0.74249 -0.000555245 0.00165308 -0.000297015 C 0.74249 -0.000555245 1.346279 -0.602334 1.344331 -1.346693 C 1.344072 -2.087529 0.742294 -2.691319 0.00145673 -2.69106 " transform="matrix(0.43268, 0.90149, 0.90149, -0.43268, 20.30424, 238.7601)"/>
<path fill-rule="nonzero" fill="rgb(0%, 0%, 0%)" fill-opacity="1" stroke-width="0.797" stroke-linecap="butt" stroke-linejoin="miter" stroke="rgb(0%, 0%, 0%)" stroke-opacity="1" stroke-miterlimit="10" d="M 3.774844 0.000103718 L 0.39944 1.498985 L 0.398865 -1.499314 Z M 3.774844 0.000103718 " transform="matrix(-0.43271, -0.90147, -0.90147, 0.43271, 18.3796, 234.75052)"/>
<path fill="none" stroke-width="0.797" stroke-linecap="butt" stroke-linejoin="miter" stroke="rgb(0%, 0%, 0%)" stroke-opacity="1" stroke-miterlimit="10" d="M 25.353844 -162.737781 L 23.256188 -158.366687 " transform="matrix(1, 0, 0, -1, -0.2015, 78.188)"/>
<path fill="none" stroke-width="0.797" stroke-linecap="butt" stroke-linejoin="miter" stroke="rgb(100%, 0%, 0%)" stroke-opacity="1" stroke-miterlimit="10" d="M 0.00174523 2.68996 C 0.742582 2.689702 1.346371 2.087923 1.344423 1.343565 C 1.344164 0.602728 0.742386 -0.00106125 0.00154888 -0.000803024 C 0.742386 -0.00106125 1.346175 -0.60284 1.345917 -1.343677 C 1.343968 -2.088035 0.74388 -2.688303 0.00135253 -2.691566 " transform="matrix(0.43268, 0.90149, 0.90149, -0.43268, 25.06646, 240.74435)"/>
<path fill-rule="nonzero" fill="rgb(0%, 0%, 0%)" fill-opacity="1" stroke-width="0.797" stroke-linecap="butt" stroke-linejoin="miter" stroke="rgb(0%, 0%, 0%)" stroke-opacity="1" stroke-miterlimit="10" d="M 3.77494 0.000591695 L 0.399535 1.499473 L 0.39896 -1.498826 Z M 3.77494 0.000591695 " transform="matrix(-0.43271, -0.90147, -0.90147, 0.43271, 23.1418, 236.73477)"/>
<g clip-path="url(#clip-7)">
<path fill-rule="nonzero" fill="rgb(0%, 0%, 100%)" fill-opacity="1" d="M 71.515625 248.269531 L 55.640625 238.347656 L 55.640625 258.191406 L 71.515625 248.269531 "/>
</g>
<g clip-path="url(#clip-8)">
<path fill="none" stroke-width="0.797" stroke-linecap="butt" stroke-linejoin="miter" stroke="rgb(0%, 0%, 100%)" stroke-opacity="1" stroke-miterlimit="10" d="M 71.717125 -170.081531 L 55.842125 -160.159656 L 55.842125 -180.003406 L 71.717125 -170.081531 " transform="matrix(1, 0, 0, -1, -0.2015, 78.188)"/>
</g>
<g clip-path="url(#clip-9)">
<path fill="none" stroke-width="0.797" stroke-linecap="butt" stroke-linejoin="miter" stroke="rgb(0%, 0%, 100%)" stroke-opacity="1" stroke-miterlimit="10" d="M 71.717125 -180.003406 L 71.717125 -160.159656 " transform="matrix(1, 0, 0, -1, -0.2015, 78.188)"/>
</g>
<path fill="none" stroke-width="0.797" stroke-linecap="butt" stroke-linejoin="miter" stroke="rgb(0%, 0%, 0%)" stroke-opacity="1" stroke-miterlimit="10" d="M 59.685875 -153.612781 L 61.783531 -157.983875 " transform="matrix(1, 0, 0, -1, -0.2015, 78.188)"/>
<path fill="none" stroke-width="0.797" stroke-linecap="butt" stroke-linejoin="miter" stroke="rgb(100%, 0%, 0%)" stroke-opacity="1" stroke-miterlimit="10" d="M 0.00202406 2.690593 C 0.742861 2.690335 1.34665 2.088556 1.344702 1.344198 C 1.344443 0.603361 0.742665 -0.000428298 0.00182771 -0.000170068 C 0.742665 -0.000428298 1.346454 -0.602207 1.344505 -1.346566 C 1.344247 -2.087403 0.742468 -2.691192 0.00163136 -2.690933 " transform="matrix(-0.43268, -0.90149, -0.90149, 0.43268, 59.57095, 231.98219)"/>
<path fill-rule="nonzero" fill="rgb(0%, 0%, 0%)" fill-opacity="1" stroke-width="0.797" stroke-linecap="butt" stroke-linejoin="miter" stroke="rgb(0%, 0%, 0%)" stroke-opacity="1" stroke-miterlimit="10" d="M 3.774674 -0.0000142075 L 0.39927 1.498867 L 0.398694 -1.499432 Z M 3.774674 -0.0000142075 " transform="matrix(0.43271, 0.90147, 0.90147, -0.43271, 61.49558, 235.99177)"/>
<path fill="none" stroke-width="0.797" stroke-linecap="butt" stroke-linejoin="miter" stroke="rgb(0%, 0%, 0%)" stroke-opacity="1" stroke-miterlimit="10" d="M 64.447594 -155.597156 L 66.54525 -159.96825 " transform="matrix(1, 0, 0, -1, -0.2015, 78.188)"/>
<path fill="none" stroke-width="0.797" stroke-linecap="butt" stroke-linejoin="miter" stroke="rgb(100%, 0%, 0%)" stroke-opacity="1" stroke-miterlimit="10" d="M 0.000429281 2.687559 C 0.742956 2.690823 1.346746 2.089044 1.344797 1.344686 C 1.344539 0.603849 0.74276 0.0000596796 0.00192326 0.000317909 C 0.74276 0.0000596796 1.346549 -0.601719 1.344601 -1.346078 C 1.344342 -2.086915 0.742564 -2.690704 0.00172692 -2.690445 " transform="matrix(-0.43268, -0.90149, -0.90149, 0.43268, 64.33315, 233.96644)"/>
<path fill-rule="nonzero" fill="rgb(0%, 0%, 0%)" fill-opacity="1" stroke-width="0.797" stroke-linecap="butt" stroke-linejoin="miter" stroke="rgb(0%, 0%, 0%)" stroke-opacity="1" stroke-miterlimit="10" d="M 3.774569 -0.000520216 L 0.399165 1.498361 L 0.39859 -1.499938 Z M 3.774569 -0.000520216 " transform="matrix(0.43271, 0.90147, 0.90147, -0.43271, 66.2578, 237.97602)"/>
<g clip-path="url(#clip-10)">
<path fill="none" stroke-width="0.797" stroke-linecap="butt" stroke-linejoin="miter" stroke="rgb(0%, 0%, 100%)" stroke-opacity="1" stroke-miterlimit="10" d="M 114.236656 -170.081531 L 98.361656 -160.159656 L 98.361656 -180.003406 Z M 114.236656 -170.081531 " transform="matrix(1, 0, 0, -1, -0.2015, 78.188)"/>
</g>
<g clip-path="url(#clip-11)">
<path fill="none" stroke-width="0.797" stroke-linecap="butt" stroke-linejoin="miter" stroke="rgb(0%, 0%, 100%)" stroke-opacity="1" stroke-miterlimit="10" d="M 114.236656 -180.003406 L 114.236656 -160.159656 M 106.299156 -160.159656 L 106.299156 -180.003406 " transform="matrix(1, 0, 0, -1, -0.2015, 78.188)"/>
</g>
<path fill="none" stroke-width="0.797" stroke-linecap="butt" stroke-linejoin="miter" stroke="rgb(0%, 0%, 0%)" stroke-opacity="1" stroke-miterlimit="10" d="M 103.127281 -157.6245 L 103.127281 -153.862781 " transform="matrix(1, 0, 0, -1, -0.2015, 78.188)"/>
<path fill="none" stroke-width="0.797" stroke-linecap="butt" stroke-linejoin="miter" stroke="rgb(100%, 0%, 0%)" stroke-opacity="1" stroke-miterlimit="10" d="M 0.00136125 2.688981 C 0.743549 2.688981 1.345111 2.087419 1.345111 1.345231 C 1.345111 0.603044 0.743549 0.00148125 0.00136125 0.00148125 C 0.743549 0.00148125 1.345111 -0.603987 1.345111 -1.346175 C 1.345111 -2.088362 0.743549 -2.689925 0.00136125 -2.689925 " transform="matrix(0, 1, 1, 0, 102.9243, 235.61192)"/>
<path fill-rule="nonzero" fill="rgb(0%, 0%, 0%)" fill-opacity="1" stroke-width="0.797" stroke-linecap="butt" stroke-linejoin="miter" stroke="rgb(0%, 0%, 0%)" stroke-opacity="1" stroke-miterlimit="10" d="M 3.771858 -0.00148125 L 0.396858 1.498519 L 0.396858 -1.497575 Z M 3.771858 -0.00148125 " transform="matrix(0, -1, -1, 0, 102.9243, 232.24842)"/>
<path fill="none" stroke-width="0.797" stroke-linecap="butt" stroke-linejoin="miter" stroke="rgb(0%, 0%, 0%)" stroke-opacity="1" stroke-miterlimit="10" d="M 107.889 -157.6245 L 107.889 -153.862781 " transform="matrix(1, 0, 0, -1, -0.2015, 78.188)"/>
<path fill="none" stroke-width="0.797" stroke-linecap="butt" stroke-linejoin="miter" stroke="rgb(100%, 0%, 0%)" stroke-opacity="1" stroke-miterlimit="10" d="M 0.00136125 2.68864 C 0.743549 2.68864 1.345111 2.087078 1.345111 1.34489 C 1.345111 0.602703 0.743549 0.00114 0.00136125 0.00114 C 0.743549 0.00114 1.345111 -0.600422 1.345111 -1.346516 C 1.345111 -2.088704 0.743549 -2.690266 0.00136125 -2.690266 " transform="matrix(0, 1, 1, 0, 107.68636, 235.61192)"/>
<path fill-rule="nonzero" fill="rgb(0%, 0%, 0%)" fill-opacity="1" stroke-width="0.797" stroke-linecap="butt" stroke-linejoin="miter" stroke="rgb(0%, 0%, 0%)" stroke-opacity="1" stroke-miterlimit="10" d="M 3.771858 -0.00114 L 0.396858 1.49886 L 0.396858 -1.497234 Z M 3.771858 -0.00114 " transform="matrix(0, -1, -1, 0, 107.68636, 232.24842)"/>
</svg>
