<?xml version="1.0" encoding="UTF-8"?>
<svg xmlns="http://www.w3.org/2000/svg" xmlns:xlink="http://www.w3.org/1999/xlink" width="56.712pt" height="29.577pt" viewBox="0 0 56.712 29.577">
<defs>
<clipPath id="clip-0">
<path clip-rule="nonzero" d="M 0 14 L 56.566406 14 L 56.566406 16 L 0 16 Z M 0 14 "/>
</clipPath>
<clipPath id="clip-1">
<path clip-rule="nonzero" d="M 13 0 L 43 0 L 43 29.367188 L 13 29.367188 Z M 13 0 "/>
</clipPath>
</defs>
<g clip-path="url(#clip-0)">
<path fill="none" stroke-width="0.3985" stroke-linecap="butt" stroke-linejoin="miter" stroke="rgb(0%, 0%, 0%)" stroke-opacity="1" stroke-miterlimit="10" d="M -0.00171875 -0.000625 L 14.455313 -0.000625 M 42.236563 -0.000625 L 56.693594 -0.000625 " transform="matrix(1, 0, 0, -1, -0.135, 15.0775)"/>
</g>
<path fill-rule="nonzero" fill="rgb(70.001221%, 90.351868%, 98.118591%)" fill-opacity="1" d="M 14.320312 1.1875 L 42.101562 1.1875 L 42.101562 28.96875 L 14.320312 28.96875 Z M 14.320312 1.1875 "/>
<g clip-path="url(#clip-1)">
<path fill="none" stroke-width="0.797" stroke-linecap="butt" stroke-linejoin="miter" stroke="rgb(0%, 0%, 0%)" stroke-opacity="1" stroke-miterlimit="10" d="M 14.455313 13.89 L 42.236563 13.89 L 42.236563 -13.89125 L 14.455313 -13.89125 Z M 14.455313 13.89 " transform="matrix(1, 0, 0, -1, -0.135, 15.0775)"/>
</g>
<path fill="none" stroke-width="0.3985" stroke-linecap="butt" stroke-linejoin="miter" stroke="rgb(0%, 0%, 0%)" stroke-opacity="1" stroke-miterlimit="10" d="M 30.084219 3.472031 C 30.650625 4.362656 31.189688 5.210312 31.818594 5.210312 C 32.4475 5.210312 32.990469 4.362656 33.556875 3.472031 C 34.123281 2.585312 34.662344 1.737656 35.29125 1.737656 C 35.920156 1.737656 36.463125 2.585312 37.029531 3.472031 " transform="matrix(1, 0, 0, -1, -0.135, 15.0775)"/>
<path fill="none" stroke-width="0.3985" stroke-linecap="butt" stroke-linejoin="miter" stroke="rgb(0%, 0%, 0%)" stroke-opacity="1" stroke-miterlimit="10" d="M 30.084219 -0.000625 C 30.650625 0.89 31.189688 1.737656 31.818594 1.737656 C 32.4475 1.737656 32.990469 0.89 33.556875 -0.000625 C 34.123281 -0.887344 34.662344 -1.735 35.29125 -1.735 C 35.920156 -1.735 36.463125 -0.887344 37.029531 -0.000625 " transform="matrix(1, 0, 0, -1, -0.135, 15.0775)"/>
<path fill="none" stroke-width="0.3985" stroke-linecap="butt" stroke-linejoin="miter" stroke="rgb(0%, 0%, 0%)" stroke-opacity="1" stroke-miterlimit="10" d="M 30.084219 -3.473281 C 30.650625 -2.582656 31.189688 -1.735 31.818594 -1.735 C 32.4475 -1.735 32.990469 -2.582656 33.556875 -3.473281 C 34.123281 -4.36 34.662344 -5.207656 35.29125 -5.207656 C 35.920156 -5.207656 36.463125 -4.36 37.029531 -3.473281 " transform="matrix(1, 0, 0, -1, -0.135, 15.0775)"/>
</svg>
