<?xml version="1.0" encoding="UTF-8"?>
<svg xmlns="http://www.w3.org/2000/svg" xmlns:xlink="http://www.w3.org/1999/xlink" width="113.408pt" height="82.324pt" viewBox="0 0 113.408 82.324">
<defs>
<clipPath id="clip-0">
<path clip-rule="nonzero" d="M 0 12 L 113.113281 12 L 113.113281 14 L 0 14 Z M 0 12 "/>
</clipPath>
<clipPath id="clip-1">
<path clip-rule="nonzero" d="M 0 69 L 113.113281 69 L 113.113281 70 L 0 70 Z M 0 69 "/>
</clipPath>
<clipPath id="clip-2">
<path clip-rule="nonzero" d="M 4 46 L 52 46 L 52 81.984375 L 4 81.984375 Z M 4 46 "/>
</clipPath>
<clipPath id="clip-3">
<path clip-rule="nonzero" d="M 72 57 L 97 57 L 97 81.984375 L 72 81.984375 Z M 72 57 "/>
</clipPath>
<clipPath id="clip-4">
<path clip-rule="nonzero" d="M 61 49 L 108 49 L 108 81.984375 L 61 81.984375 Z M 61 49 "/>
</clipPath>
<clipPath id="clip-5">
<path clip-rule="nonzero" d="M 77 56 L 105 56 L 105 81.984375 L 77 81.984375 Z M 77 56 "/>
</clipPath>
</defs>
<g clip-path="url(#clip-0)">
<path fill="none" stroke-width="0.3985" stroke-linecap="butt" stroke-linejoin="miter" stroke="rgb(0%, 0%, 0%)" stroke-opacity="1" stroke-miterlimit="10" d="M 0.00184375 -0.000375 L 16.439344 -0.000375 M 40.251844 -0.000375 L 73.134656 -0.000375 M 96.947156 -0.000375 L 113.388563 -0.000375 " transform="matrix(1, 0, 0, -1, -0.287, 12.984)"/>
</g>
<path fill="none" stroke-width="0.797" stroke-linecap="butt" stroke-linejoin="miter" stroke="rgb(0%, 0%, 0%)" stroke-opacity="1" stroke-miterlimit="10" d="M 28.345594 11.905875 C 21.771375 11.905875 16.439344 6.573844 16.439344 -0.000375 C 16.439344 -6.574594 21.771375 -11.906625 28.345594 -11.906625 C 34.923719 -11.906625 40.251844 -6.574594 40.251844 -0.000375 C 40.251844 6.573844 34.923719 11.905875 28.345594 11.905875 Z M 28.345594 11.905875 " transform="matrix(1, 0, 0, -1, -0.287, 12.984)"/>
<path fill="none" stroke-width="0.797" stroke-linecap="butt" stroke-linejoin="miter" stroke="rgb(0%, 0%, 0%)" stroke-opacity="1" stroke-miterlimit="10" d="M 30.728406 -5.9535 L 30.728406 5.95275 M 25.966688 -5.9535 L 25.966688 5.95275 " transform="matrix(1, 0, 0, -1, -0.287, 12.984)"/>
<path fill-rule="nonzero" fill="rgb(100%, 94.898987%, 0%)" fill-opacity="1" d="M 84.753906 1.078125 C 78.179688 1.078125 72.847656 6.410156 72.847656 12.984375 C 72.847656 19.558594 78.179688 24.890625 84.753906 24.890625 C 91.328125 24.890625 96.660156 19.558594 96.660156 12.984375 C 96.660156 6.410156 91.328125 1.078125 84.753906 1.078125 Z M 84.753906 1.078125 "/>
<path fill="none" stroke-width="0.797" stroke-linecap="butt" stroke-linejoin="miter" stroke="rgb(0%, 0%, 0%)" stroke-opacity="1" stroke-miterlimit="10" d="M 87.107313 11.726188 C 93.583875 10.581656 97.908094 4.409781 96.763563 -2.066781 C 95.896375 -6.996469 92.037 -10.855844 87.107313 -11.723031 M 82.9745 11.726188 C 76.497938 10.581656 72.173719 4.409781 73.314344 -2.066781 C 74.185438 -6.996469 78.044813 -10.855844 82.9745 -11.723031 " transform="matrix(1, 0, 0, -1, -0.287, 12.984)"/>
<path fill="none" stroke-width="0.797" stroke-linecap="butt" stroke-linejoin="miter" stroke="rgb(0%, 0%, 0%)" stroke-opacity="1" stroke-miterlimit="10" d="M 76.704969 -0.000375 L 92.185438 -0.000375 " transform="matrix(1, 0, 0, -1, -0.287, 12.984)"/>
<path fill-rule="nonzero" fill="rgb(0%, 0%, 0%)" fill-opacity="1" stroke-width="0.797" stroke-linecap="butt" stroke-linejoin="miter" stroke="rgb(0%, 0%, 0%)" stroke-opacity="1" stroke-miterlimit="10" d="M 89.25575 -0.000375 L 89.25575 -1.98475 L 93.4745 -0.000375 L 89.25575 1.984 Z M 89.25575 -0.000375 " transform="matrix(1, 0, 0, -1, -0.287, 12.984)"/>
<g clip-path="url(#clip-1)">
<path fill="none" stroke-width="0.3985" stroke-linecap="butt" stroke-linejoin="miter" stroke="rgb(0%, 0%, 0%)" stroke-opacity="1" stroke-miterlimit="10" d="M 0.00184375 -56.691781 L 16.439344 -56.691781 M 40.251844 -56.691781 L 73.134656 -56.691781 M 96.947156 -56.691781 L 113.388563 -56.691781 " transform="matrix(1, 0, 0, -1, -0.287, 12.984)"/>
</g>
<g clip-path="url(#clip-2)">
<path fill="none" stroke-width="0.797" stroke-linecap="butt" stroke-linejoin="miter" stroke="rgb(0%, 0%, 0%)" stroke-opacity="1" stroke-miterlimit="10" d="M 28.345594 -44.789437 C 21.771375 -44.789437 16.439344 -50.117562 16.439344 -56.691781 C 16.439344 -63.269906 21.771375 -68.598031 28.345594 -68.598031 C 34.923719 -68.598031 40.251844 -63.269906 40.251844 -56.691781 C 40.251844 -50.117562 34.923719 -44.789437 28.345594 -44.789437 Z M 28.345594 -44.789437 " transform="matrix(1, 0, 0, -1, -0.287, 12.984)"/>
</g>
<path fill="none" stroke-width="0.797" stroke-linecap="butt" stroke-linejoin="miter" stroke="rgb(0%, 0%, 0%)" stroke-opacity="1" stroke-miterlimit="10" d="M 30.728406 -62.644906 L 30.728406 -50.742562 M 25.966688 -62.644906 L 25.966688 -50.742562 " transform="matrix(1, 0, 0, -1, -0.287, 12.984)"/>
<g clip-path="url(#clip-3)">
<path fill-rule="nonzero" fill="rgb(100%, 94.898987%, 0%)" fill-opacity="1" d="M 84.753906 57.773438 C 78.179688 57.773438 72.847656 63.101562 72.847656 69.675781 C 72.847656 76.253906 78.179688 81.582031 84.753906 81.582031 C 91.328125 81.582031 96.660156 76.253906 96.660156 69.675781 C 96.660156 63.101562 91.328125 57.773438 84.753906 57.773438 Z M 84.753906 57.773438 "/>
</g>
<g clip-path="url(#clip-4)">
<path fill="none" stroke-width="0.797" stroke-linecap="butt" stroke-linejoin="miter" stroke="rgb(0%, 0%, 0%)" stroke-opacity="1" stroke-miterlimit="10" d="M 93.458875 -48.273812 C 98.107313 -52.926156 98.107313 -60.461312 93.458875 -65.113656 M 76.622938 -48.273812 C 71.970594 -52.926156 71.970594 -60.461312 76.622938 -65.113656 " transform="matrix(1, 0, 0, -1, -0.287, 12.984)"/>
</g>
<path fill="none" stroke-width="0.797" stroke-linecap="butt" stroke-linejoin="miter" stroke="rgb(0%, 0%, 0%)" stroke-opacity="1" stroke-miterlimit="10" d="M 76.704969 -56.691781 L 92.185438 -56.691781 " transform="matrix(1, 0, 0, -1, -0.287, 12.984)"/>
<path fill-rule="nonzero" fill="rgb(0%, 0%, 0%)" fill-opacity="1" d="M 88.96875 69.675781 L 88.96875 71.660156 L 93.1875 69.675781 L 88.96875 67.695312 Z M 88.96875 69.675781 "/>
<g clip-path="url(#clip-5)">
<path fill="none" stroke-width="0.797" stroke-linecap="butt" stroke-linejoin="miter" stroke="rgb(0%, 0%, 0%)" stroke-opacity="1" stroke-miterlimit="10" d="M 89.25575 -56.691781 L 89.25575 -58.676156 L 93.4745 -56.691781 L 89.25575 -54.711312 Z M 89.25575 -56.691781 " transform="matrix(1, 0, 0, -1, -0.287, 12.984)"/>
</g>
</svg>
