<?xml version="1.0" encoding="UTF-8"?>
<svg xmlns="http://www.w3.org/2000/svg" xmlns:xlink="http://www.w3.org/1999/xlink" width="56.712pt" height="28.792pt" viewBox="0 0 56.712 28.792">
<defs>
<clipPath id="clip-0">
<path clip-rule="nonzero" d="M 0 14 L 56.566406 14 L 56.566406 15 L 0 15 Z M 0 14 "/>
</clipPath>
<clipPath id="clip-1">
<path clip-rule="nonzero" d="M 19 0 L 37 0 L 37 28.6875 L 19 28.6875 Z M 19 0 "/>
</clipPath>
<clipPath id="clip-2">
<path clip-rule="nonzero" d="M 23 1 L 34 1 L 34 28.6875 L 23 28.6875 Z M 23 1 "/>
</clipPath>
</defs>
<g clip-path="url(#clip-0)">
<path fill="none" stroke-width="0.3985" stroke-linecap="butt" stroke-linejoin="miter" stroke="rgb(0%, 0%, 0%)" stroke-opacity="1" stroke-miterlimit="10" d="M -0.00171875 -0.0010625 L 20.408438 -0.0010625 M 36.283438 -0.0010625 L 56.693594 -0.0010625 " transform="matrix(1, 0, 0, -1, -0.135, 14.788)"/>
</g>
<g clip-path="url(#clip-1)">
<path fill="none" stroke-width="0.797" stroke-linecap="butt" stroke-linejoin="miter" stroke="rgb(0%, 0%, 0%)" stroke-opacity="1" stroke-miterlimit="10" d="M 20.408438 13.889562 L 20.408438 -13.891688 M 36.283438 13.889562 L 36.283438 -13.891688 " transform="matrix(1, 0, 0, -1, -0.135, 14.788)"/>
</g>
<path fill-rule="nonzero" fill="rgb(70.001221%, 90.351868%, 98.118591%)" fill-opacity="1" d="M 23.449219 1.691406 L 32.972656 1.691406 L 32.972656 27.882812 L 23.449219 27.882812 Z M 23.449219 1.691406 "/>
<g clip-path="url(#clip-2)">
<path fill="none" stroke-width="0.797" stroke-linecap="butt" stroke-linejoin="miter" stroke="rgb(0%, 0%, 0%)" stroke-opacity="1" stroke-miterlimit="10" d="M 23.584219 13.096594 L 33.107656 13.096594 L 33.107656 -13.094813 L 23.584219 -13.094813 Z M 23.584219 13.096594 " transform="matrix(1, 0, 0, -1, -0.135, 14.788)"/>
</g>
</svg>
