<?xml version="1.0" encoding="UTF-8"?>
<svg xmlns="http://www.w3.org/2000/svg" xmlns:xlink="http://www.w3.org/1999/xlink" width="113.408pt" height="92.549pt" viewBox="0 0 113.408 92.549">
<defs>
<clipPath id="clip-0">
<path clip-rule="nonzero" d="M 0 25 L 113.113281 25 L 113.113281 26 L 0 26 Z M 0 25 "/>
</clipPath>
<clipPath id="clip-1">
<path clip-rule="nonzero" d="M 0 81 L 113.113281 81 L 113.113281 83 L 0 83 Z M 0 81 "/>
</clipPath>
<clipPath id="clip-2">
<path clip-rule="nonzero" d="M 63 60 L 106 60 L 106 92.324219 L 63 92.324219 Z M 63 60 "/>
</clipPath>
</defs>
<g clip-path="url(#clip-0)">
<path fill="none" stroke-width="0.3985" stroke-linecap="butt" stroke-linejoin="miter" stroke="rgb(0%, 0%, 0%)" stroke-opacity="1" stroke-miterlimit="10" d="M 0.00184375 56.691812 L 12.4745 56.691812 M 44.220594 56.691812 L 75.119031 56.691812 M 94.962781 56.691812 L 113.388563 56.691812 " transform="matrix(1, 0, 0, -1, -0.287, 81.9965)"/>
</g>
<path fill="none" stroke-width="0.797" stroke-linecap="butt" stroke-linejoin="miter" stroke="rgb(0%, 0%, 0%)" stroke-opacity="1" stroke-miterlimit="10" d="M 37.872938 70.980875 C 37.872938 76.238687 33.607313 80.504312 28.345594 80.504312 C 23.087781 80.504312 18.822156 76.238687 18.822156 70.980875 C 18.822156 65.719156 23.087781 61.457437 28.345594 61.457437 C 33.607313 61.457437 37.872938 65.719156 37.872938 70.980875 Z M 37.872938 70.980875 " transform="matrix(1, 0, 0, -1, -0.287, 81.9965)"/>
<path fill="none" stroke-width="0.797" stroke-linecap="round" stroke-linejoin="miter" stroke="rgb(0%, 0%, 0%)" stroke-opacity="1" stroke-miterlimit="10" d="M 18.822156 80.824625 L 37.872938 80.824625 " transform="matrix(1, 0, 0, -1, -0.287, 81.9965)"/>
<path fill="none" stroke-width="0.3985" stroke-linecap="butt" stroke-linejoin="miter" stroke="rgb(0%, 0%, 0%)" stroke-opacity="1" stroke-miterlimit="10" d="M 12.4745 56.691812 L 23.583875 56.691812 L 23.583875 62.730875 M 33.107313 62.730875 L 33.107313 56.691812 L 44.220594 56.691812 " transform="matrix(1, 0, 0, -1, -0.287, 81.9965)"/>
<path fill="none" stroke-width="0.797" stroke-linecap="butt" stroke-linejoin="miter" stroke="rgb(0%, 0%, 0%)" stroke-opacity="1" stroke-miterlimit="10" d="M 94.962781 56.691812 C 94.962781 62.172281 90.521375 66.613687 85.040906 66.613687 C 79.560438 66.613687 75.119031 62.172281 75.119031 56.691812 C 75.119031 51.21525 79.560438 46.773844 85.040906 46.773844 C 90.521375 46.773844 94.962781 51.21525 94.962781 56.691812 Z M 94.962781 56.691812 " transform="matrix(1, 0, 0, -1, -0.287, 81.9965)"/>
<path fill="none" stroke-width="0.797" stroke-linecap="round" stroke-linejoin="miter" stroke="rgb(0%, 0%, 0%)" stroke-opacity="1" stroke-miterlimit="10" d="M 75.119031 66.934 L 94.962781 66.934 " transform="matrix(1, 0, 0, -1, -0.287, 81.9965)"/>
<path fill="none" stroke-width="0.797" stroke-linecap="butt" stroke-linejoin="miter" stroke="rgb(100%, 0%, 0%)" stroke-opacity="1" stroke-miterlimit="10" d="M 38.267469 56.691812 C 38.267469 62.172281 33.826063 66.613687 28.345594 66.613687 C 22.869031 66.613687 18.423719 62.172281 18.423719 56.691812 C 18.423719 51.21525 22.869031 46.773844 28.345594 46.773844 C 33.826063 46.773844 38.267469 51.21525 38.267469 56.691812 Z M 38.267469 56.691812 " transform="matrix(1, 0, 0, -1, -0.287, 81.9965)"/>
<path fill="none" stroke-width="0.797" stroke-linecap="round" stroke-linejoin="miter" stroke="rgb(100%, 0%, 0%)" stroke-opacity="1" stroke-miterlimit="10" d="M 18.423719 66.934 L 38.267469 66.934 " transform="matrix(1, 0, 0, -1, -0.287, 81.9965)"/>
<g clip-path="url(#clip-1)">
<path fill="none" stroke-width="0.3985" stroke-linecap="butt" stroke-linejoin="miter" stroke="rgb(0%, 0%, 0%)" stroke-opacity="1" stroke-miterlimit="10" d="M 0.00184375 0.00040625 L 12.4745 0.00040625 M 44.220594 0.00040625 L 75.119031 0.00040625 M 94.962781 0.00040625 L 113.388563 0.00040625 " transform="matrix(1, 0, 0, -1, -0.287, 81.9965)"/>
</g>
<path fill="none" stroke-width="0.797" stroke-linecap="butt" stroke-linejoin="miter" stroke="rgb(0%, 0%, 0%)" stroke-opacity="1" stroke-miterlimit="10" d="M 37.872938 14.285562 C 37.872938 19.547281 33.607313 23.812906 28.345594 23.812906 C 23.087781 23.812906 18.822156 19.547281 18.822156 14.285562 C 18.822156 9.02775 23.087781 4.762125 28.345594 4.762125 C 33.607313 4.762125 37.872938 9.02775 37.872938 14.285562 Z M 37.872938 14.285562 " transform="matrix(1, 0, 0, -1, -0.287, 81.9965)"/>
<path fill="none" stroke-width="2.39102" stroke-linecap="round" stroke-linejoin="miter" stroke="rgb(0%, 0%, 0%)" stroke-opacity="1" stroke-miterlimit="10" d="M 18.822156 24.766031 L 37.872938 24.766031 " transform="matrix(1, 0, 0, -1, -0.287, 81.9965)"/>
<path fill="none" stroke-width="0.3985" stroke-linecap="butt" stroke-linejoin="miter" stroke="rgb(0%, 0%, 0%)" stroke-opacity="1" stroke-miterlimit="10" d="M 12.4745 0.00040625 L 23.583875 0.00040625 L 23.583875 6.039469 M 33.107313 6.039469 L 33.107313 0.00040625 L 44.220594 0.00040625 " transform="matrix(1, 0, 0, -1, -0.287, 81.9965)"/>
<g clip-path="url(#clip-2)">
<path fill="none" stroke-width="0.797" stroke-linecap="butt" stroke-linejoin="miter" stroke="rgb(0%, 0%, 0%)" stroke-opacity="1" stroke-miterlimit="10" d="M 94.962781 0.00040625 C 94.962781 5.480875 90.521375 9.922281 85.040906 9.922281 C 79.560438 9.922281 75.119031 5.480875 75.119031 0.00040625 C 75.119031 -5.480063 79.560438 -9.921469 85.040906 -9.921469 C 90.521375 -9.921469 94.962781 -5.480063 94.962781 0.00040625 Z M 94.962781 0.00040625 " transform="matrix(1, 0, 0, -1, -0.287, 81.9965)"/>
</g>
<path fill="none" stroke-width="2.39102" stroke-linecap="round" stroke-linejoin="miter" stroke="rgb(0%, 0%, 0%)" stroke-opacity="1" stroke-miterlimit="10" d="M 75.119031 10.879312 L 94.962781 10.879312 " transform="matrix(1, 0, 0, -1, -0.287, 81.9965)"/>
</svg>
