<?xml version="1.0" encoding="UTF-8"?>
<svg xmlns="http://www.w3.org/2000/svg" xmlns:xlink="http://www.w3.org/1999/xlink" width="60.3" height="39.502" viewBox="0 0 60.3 39.502">
<defs>
<g>
<g id="glyph-0-0">
<path d="M 7.1875 -2.5 C 7.1875 -2.6875 7 -2.6875 6.859375 -2.6875 L 4.078125 -2.6875 L 4.078125 -5.484375 C 4.078125 -5.625 4.078125 -5.8125 3.875 -5.8125 C 3.671875 -5.8125 3.671875 -5.625 3.671875 -5.484375 L 3.671875 -2.6875 L 0.890625 -2.6875 C 0.75 -2.6875 0.5625 -2.6875 0.5625 -2.5 C 0.5625 -2.296875 0.75 -2.296875 0.890625 -2.296875 L 3.671875 -2.296875 L 3.671875 0.5 C 3.671875 0.640625 3.671875 0.828125 3.875 0.828125 C 4.078125 0.828125 4.078125 0.640625 4.078125 0.5 L 4.078125 -2.296875 L 6.859375 -2.296875 C 7 -2.296875 7.1875 -2.296875 7.1875 -2.5 Z M 7.1875 -2.5 "/>
</g>
<g id="glyph-1-0">
<path d="M 6.921875 -2.5 C 6.921875 -2.6875 6.734375 -2.6875 6.59375 -2.6875 L 1.15625 -2.6875 C 1.015625 -2.6875 0.828125 -2.6875 0.828125 -2.5 C 0.828125 -2.296875 1.015625 -2.296875 1.15625 -2.296875 L 6.59375 -2.296875 C 6.734375 -2.296875 6.921875 -2.296875 6.921875 -2.5 Z M 6.921875 -2.5 "/>
</g>
<g id="glyph-2-0">
<path d="M 4.671875 -3.703125 C 4.671875 -4.25 4.40625 -4.40625 4.234375 -4.40625 C 3.984375 -4.40625 3.734375 -4.140625 3.734375 -3.921875 C 3.734375 -3.796875 3.78125 -3.734375 3.890625 -3.625 C 4.109375 -3.421875 4.234375 -3.171875 4.234375 -2.8125 C 4.234375 -2.390625 3.625 -0.109375 2.46875 -0.109375 C 1.953125 -0.109375 1.71875 -0.453125 1.71875 -0.984375 C 1.71875 -1.53125 2 -2.265625 2.296875 -3.09375 C 2.375 -3.265625 2.421875 -3.40625 2.421875 -3.59375 C 2.421875 -4.03125 2.109375 -4.40625 1.609375 -4.40625 C 0.671875 -4.40625 0.296875 -2.953125 0.296875 -2.875 C 0.296875 -2.765625 0.40625 -2.765625 0.40625 -2.765625 C 0.515625 -2.765625 0.515625 -2.796875 0.5625 -2.953125 C 0.859375 -3.953125 1.28125 -4.1875 1.578125 -4.1875 C 1.65625 -4.1875 1.828125 -4.1875 1.828125 -3.875 C 1.828125 -3.625 1.71875 -3.34375 1.65625 -3.171875 C 1.21875 -2.015625 1.09375 -1.5625 1.09375 -1.125 C 1.09375 -0.046875 1.96875 0.109375 2.421875 0.109375 C 4.09375 0.109375 4.671875 -3.1875 4.671875 -3.703125 Z M 4.671875 -3.703125 "/>
</g>
<g id="glyph-2-1">
<path d="M 2.828125 -6.234375 C 2.828125 -6.4375 2.6875 -6.59375 2.46875 -6.59375 C 2.1875 -6.59375 1.921875 -6.328125 1.921875 -6.0625 C 1.921875 -5.875 2.0625 -5.703125 2.296875 -5.703125 C 2.53125 -5.703125 2.828125 -5.9375 2.828125 -6.234375 Z M 2.921875 -1.421875 C 2.921875 -1.53125 2.828125 -1.53125 2.796875 -1.53125 C 2.703125 -1.53125 2.703125 -1.5 2.65625 -1.34375 C 2.46875 -0.71875 2.140625 -0.109375 1.640625 -0.109375 C 1.46875 -0.109375 1.390625 -0.203125 1.390625 -0.4375 C 1.390625 -0.6875 1.453125 -0.828125 1.6875 -1.4375 L 2.078125 -2.484375 C 2.1875 -2.765625 2.1875 -2.796875 2.296875 -3.0625 C 2.375 -3.265625 2.421875 -3.40625 2.421875 -3.59375 C 2.421875 -4.03125 2.109375 -4.40625 1.609375 -4.40625 C 0.671875 -4.40625 0.296875 -2.953125 0.296875 -2.875 C 0.296875 -2.765625 0.40625 -2.765625 0.40625 -2.765625 C 0.515625 -2.765625 0.515625 -2.796875 0.5625 -2.953125 C 0.84375 -3.890625 1.234375 -4.1875 1.578125 -4.1875 C 1.65625 -4.1875 1.828125 -4.1875 1.828125 -3.875 C 1.828125 -3.65625 1.75 -3.453125 1.71875 -3.34375 C 1.640625 -3.09375 1.1875 -1.9375 1.03125 -1.5 C 0.921875 -1.25 0.796875 -0.921875 0.796875 -0.703125 C 0.796875 -0.234375 1.140625 0.109375 1.609375 0.109375 C 2.546875 0.109375 2.921875 -1.328125 2.921875 -1.421875 Z M 2.921875 -1.421875 "/>
</g>
<g id="glyph-3-0">
<path d="M 3.296875 0 L 3.296875 -0.25 L 3.03125 -0.25 C 2.328125 -0.25 2.328125 -0.34375 2.328125 -0.578125 L 2.328125 -4.4375 C 2.328125 -4.625 2.328125 -4.625 2.125 -4.625 C 1.671875 -4.1875 1.046875 -4.1875 0.765625 -4.1875 L 0.765625 -3.9375 C 0.921875 -3.9375 1.390625 -3.9375 1.765625 -4.125 L 1.765625 -0.578125 C 1.765625 -0.34375 1.765625 -0.25 1.078125 -0.25 L 0.8125 -0.25 L 0.8125 0 L 2.046875 -0.03125 Z M 3.296875 0 "/>
</g>
</g>
<clipPath id="clip-0">
<path clip-rule="nonzero" d="M 6 3 L 53 3 L 53 39.253906 L 6 39.253906 Z M 6 3 "/>
</clipPath>
<clipPath id="clip-1">
<path clip-rule="nonzero" d="M 15 9 L 45 9 L 45 39.253906 L 15 39.253906 Z M 15 9 "/>
</clipPath>
<clipPath id="clip-2">
<path clip-rule="nonzero" d="M 56 25 L 59.949219 25 L 59.949219 29 L 56 29 Z M 56 25 "/>
</clipPath>
<clipPath id="clip-3">
<path clip-rule="nonzero" d="M 50 19 L 59.949219 19 L 59.949219 35 L 50 35 Z M 50 19 "/>
</clipPath>
</defs>
<path fill="none" stroke-width="0.3985" stroke-linecap="butt" stroke-linejoin="miter" stroke="rgb(0%, 0%, 0%)" stroke-opacity="1" stroke-miterlimit="10" d="M -0.000875 -0.0013125 L 16.440531 -0.0013125 M 40.253031 -0.0013125 L 56.694438 -0.0013125 " transform="matrix(1, 0, 0, -1, 1.454, 26.944)"/>
<g clip-path="url(#clip-0)">
<path fill="none" stroke-width="0.797" stroke-linecap="butt" stroke-linejoin="miter" stroke="rgb(0%, 0%, 0%)" stroke-opacity="1" stroke-miterlimit="10" d="M 28.346781 11.904938 C 21.772563 11.904938 16.440531 6.576813 16.440531 -0.0013125 C 16.440531 -6.575531 21.772563 -11.907562 28.346781 -11.907562 C 34.921 -11.907562 40.253031 -6.575531 40.253031 -0.0013125 C 40.253031 6.576813 34.921 11.904938 28.346781 11.904938 Z M 28.346781 11.904938 " transform="matrix(1, 0, 0, -1, 1.454, 26.944)"/>
</g>
<g clip-path="url(#clip-1)">
<path fill="none" stroke-width="0.797" stroke-linecap="butt" stroke-linejoin="miter" stroke="rgb(0%, 0%, 0%)" stroke-opacity="1" stroke-miterlimit="10" d="M 28.346781 -5.954437 C 26.823344 -4.981781 25.370219 -4.052094 25.370219 -2.977875 C 25.370219 -1.89975 26.823344 -0.970062 28.346781 -0.0013125 C 29.870219 0.971344 31.323344 1.897125 31.323344 2.97525 C 31.323344 4.053375 29.870219 4.983063 28.346781 5.951813 " transform="matrix(1, 0, 0, -1, 1.454, 26.944)"/>
</g>
<path fill-rule="nonzero" fill="rgb(0%, 0%, 0%)" fill-opacity="1" stroke-width="0.3985" stroke-linecap="butt" stroke-linejoin="miter" stroke="rgb(0%, 0%, 0%)" stroke-opacity="1" stroke-miterlimit="10" d="M 1.588969 -0.0013125 C 1.588969 0.877594 0.878031 1.588531 -0.000875 1.588531 C -0.875875 1.588531 -1.586812 0.877594 -1.586812 -0.0013125 C -1.586812 -0.876312 -0.875875 -1.58725 -0.000875 -1.58725 C 0.878031 -1.58725 1.588969 -0.876312 1.588969 -0.0013125 Z M 1.588969 -0.0013125 " transform="matrix(1, 0, 0, -1, 1.454, 26.944)"/>
<g clip-path="url(#clip-2)">
<path fill-rule="nonzero" fill="rgb(100%, 100%, 100%)" fill-opacity="1" d="M 59.734375 26.945312 C 59.734375 26.066406 59.023438 25.355469 58.148438 25.355469 C 57.269531 25.355469 56.558594 26.066406 56.558594 26.945312 C 56.558594 27.820312 57.269531 28.53125 58.148438 28.53125 C 59.023438 28.53125 59.734375 27.820312 59.734375 26.945312 Z M 59.734375 26.945312 "/>
</g>
<g clip-path="url(#clip-3)">
<path fill="none" stroke-width="0.3985" stroke-linecap="butt" stroke-linejoin="miter" stroke="rgb(0%, 0%, 0%)" stroke-opacity="1" stroke-miterlimit="10" d="M 58.280375 -0.0013125 C 58.280375 0.877594 57.569438 1.588531 56.694438 1.588531 C 55.815531 1.588531 55.104594 0.877594 55.104594 -0.0013125 C 55.104594 -0.876312 55.815531 -1.58725 56.694438 -1.58725 C 57.569438 -1.58725 58.280375 -0.876312 58.280375 -0.0013125 Z M 58.280375 -0.0013125 " transform="matrix(1, 0, 0, -1, 1.454, 26.944)"/>
</g>
<g fill="rgb(0%, 0%, 0%)" fill-opacity="1">
<use xlink:href="#glyph-0-0" x="16.853" y="13.719"/>
</g>
<g fill="rgb(0%, 0%, 0%)" fill-opacity="1">
<use xlink:href="#glyph-1-0" x="35" y="13.719"/>
</g>
<g fill="rgb(0%, 0%, 0%)" fill-opacity="1">
<use xlink:href="#glyph-2-0" x="25.152" y="5.161"/>
</g>
<g fill="rgb(0%, 0%, 0%)" fill-opacity="1">
<use xlink:href="#glyph-3-0" x="29.981" y="6.655"/>
</g>
<path fill-rule="nonzero" fill="rgb(0%, 0%, 0%)" fill-opacity="1" stroke-width="0.3985" stroke-linecap="butt" stroke-linejoin="miter" stroke="rgb(0%, 0%, 0%)" stroke-opacity="1" stroke-miterlimit="10" d="M 46.737406 -0.0013125 L 46.737406 -1.985687 L 50.95225 -0.0013125 L 46.737406 1.983063 Z M 46.737406 -0.0013125 " transform="matrix(1, 0, 0, -1, 1.454, 26.944)"/>
<g fill="rgb(0%, 0%, 0%)" fill-opacity="1">
<use xlink:href="#glyph-2-1" x="45.976" y="21.763"/>
</g>
<g fill="rgb(0%, 0%, 0%)" fill-opacity="1">
<use xlink:href="#glyph-3-0" x="49.408" y="23.258"/>
</g>
</svg>
