<?xml version="1.0" encoding="UTF-8"?>
<svg xmlns="http://www.w3.org/2000/svg" xmlns:xlink="http://www.w3.org/1999/xlink" width="198.446pt" height="114.418pt" viewBox="0 0 198.446 114.418">
<defs>
<clipPath id="clip-0">
<path clip-rule="nonzero" d="M 0 0 L 198.167969 0 L 198.167969 114.128906 L 0 114.128906 Z M 0 0 "/>
</clipPath>
<clipPath id="clip-1">
<path clip-rule="nonzero" d="M 137 26 L 198.167969 26 L 198.167969 88 L 137 88 Z M 137 26 "/>
</clipPath>
<clipPath id="clip-2">
<path clip-rule="nonzero" d="M 110 53 L 172 53 L 172 114.128906 L 110 114.128906 Z M 110 53 "/>
</clipPath>
</defs>
<g clip-path="url(#clip-0)">
<path fill-rule="nonzero" fill="rgb(0%, 67.83905%, 93.728638%)" fill-opacity="1" d="M -0.269531 114.113281 L -0.269531 0.722656 L 198.160156 0.722656 L 198.160156 114.113281 Z M -0.269531 114.113281 "/>
</g>
<path fill="none" stroke-width="0.3985" stroke-linecap="butt" stroke-linejoin="miter" stroke="rgb(0%, 0%, 0%)" stroke-opacity="1" stroke-miterlimit="10" d="M 28.346125 184.253563 L 40.818781 184.253563 M 72.568781 184.253563 L 85.041438 184.253563 " transform="matrix(1, 0, 0, -1, -0.268, 199.152)"/>
<path fill-rule="nonzero" fill="rgb(100%, 100%, 100%)" fill-opacity="0.5" stroke-width="0.797" stroke-linecap="butt" stroke-linejoin="miter" stroke="rgb(0%, 0%, 0%)" stroke-opacity="1" stroke-miterlimit="10" d="M 40.818781 190.206688 L 72.568781 190.206688 L 72.568781 178.300438 L 40.818781 178.300438 Z M 40.818781 190.206688 " transform="matrix(1, 0, 0, -1, -0.268, 199.152)"/>
<path fill-rule="nonzero" fill="rgb(100%, 100%, 100%)" fill-opacity="1" stroke-width="0.3985" stroke-linecap="butt" stroke-linejoin="miter" stroke="rgb(0%, 0%, 0%)" stroke-opacity="1" stroke-miterlimit="10" d="M 29.932063 184.253563 C 29.932063 185.132469 29.225031 185.8395 28.346125 185.8395 C 27.471125 185.8395 26.760188 185.132469 26.760188 184.253563 C 26.760188 183.378563 27.471125 182.667625 28.346125 182.667625 C 29.225031 182.667625 29.932063 183.378563 29.932063 184.253563 Z M 29.932063 184.253563 " transform="matrix(1, 0, 0, -1, -0.268, 199.152)"/>
<path fill-rule="nonzero" fill="rgb(100%, 100%, 100%)" fill-opacity="1" stroke-width="0.3985" stroke-linecap="butt" stroke-linejoin="miter" stroke="rgb(0%, 0%, 0%)" stroke-opacity="1" stroke-miterlimit="10" d="M 86.627375 184.253563 C 86.627375 185.132469 85.916438 185.8395 85.041438 185.8395 C 84.162531 185.8395 83.451594 185.132469 83.451594 184.253563 C 83.451594 183.378563 84.162531 182.667625 85.041438 182.667625 C 85.916438 182.667625 86.627375 183.378563 86.627375 184.253563 Z M 86.627375 184.253563 " transform="matrix(1, 0, 0, -1, -0.268, 199.152)"/>
<path fill="none" stroke-width="0.3985" stroke-linecap="butt" stroke-linejoin="miter" stroke="rgb(0%, 0%, 0%)" stroke-opacity="1" stroke-miterlimit="10" d="M 28.346125 155.905906 L 42.521906 155.905906 M 42.521906 155.905906 L 70.865656 155.905906 M 70.865656 155.905906 L 85.041438 155.905906 " transform="matrix(1, 0, 0, -1, -0.268, 199.152)"/>
<path fill-rule="nonzero" fill="rgb(100%, 0%, 0%)" fill-opacity="1" stroke-width="0.3985" stroke-linecap="butt" stroke-linejoin="miter" stroke="rgb(0%, 0%, 0%)" stroke-opacity="1" stroke-miterlimit="10" d="M 29.932063 155.905906 C 29.932063 156.784813 29.225031 157.49575 28.346125 157.49575 C 27.471125 157.49575 26.760188 156.784813 26.760188 155.905906 C 26.760188 155.030906 27.471125 154.319969 28.346125 154.319969 C 29.225031 154.319969 29.932063 155.030906 29.932063 155.905906 Z M 29.932063 155.905906 " transform="matrix(1, 0, 0, -1, -0.268, 199.152)"/>
<path fill-rule="nonzero" fill="rgb(100%, 0%, 0%)" fill-opacity="1" stroke-width="0.3985" stroke-linecap="butt" stroke-linejoin="miter" stroke="rgb(0%, 0%, 0%)" stroke-opacity="1" stroke-miterlimit="10" d="M 58.279719 155.905906 C 58.279719 156.784813 57.568781 157.49575 56.693781 157.49575 C 55.818781 157.49575 55.107844 156.784813 55.107844 155.905906 C 55.107844 155.030906 55.818781 154.319969 56.693781 154.319969 C 57.568781 154.319969 58.279719 155.030906 58.279719 155.905906 Z M 58.279719 155.905906 " transform="matrix(1, 0, 0, -1, -0.268, 199.152)"/>
<path fill-rule="nonzero" fill="rgb(100%, 100%, 100%)" fill-opacity="1" stroke-width="0.3985" stroke-linecap="butt" stroke-linejoin="miter" stroke="rgb(0%, 0%, 0%)" stroke-opacity="1" stroke-miterlimit="10" d="M 86.627375 155.905906 C 86.627375 156.784813 85.916438 157.49575 85.041438 157.49575 C 84.162531 157.49575 83.451594 156.784813 83.451594 155.905906 C 83.451594 155.030906 84.162531 154.319969 85.041438 154.319969 C 85.916438 154.319969 86.627375 155.030906 86.627375 155.905906 Z M 86.627375 155.905906 " transform="matrix(1, 0, 0, -1, -0.268, 199.152)"/>
<path fill="none" stroke-width="0.3985" stroke-linecap="butt" stroke-linejoin="miter" stroke="rgb(0%, 0%, 0%)" stroke-opacity="1" stroke-miterlimit="10" d="M 28.346125 141.734031 L 42.521906 141.734031 M 42.521906 141.734031 L 70.865656 141.734031 M 70.865656 141.734031 L 85.041438 141.734031 " transform="matrix(1, 0, 0, -1, -0.268, 199.152)"/>
<path fill-rule="nonzero" fill="rgb(100%, 94.898987%, 0%)" fill-opacity="1" stroke-width="0.3985" stroke-linecap="butt" stroke-linejoin="miter" stroke="rgb(0%, 0%, 0%)" stroke-opacity="1" stroke-miterlimit="10" d="M 29.932063 141.734031 C 29.932063 142.609031 29.225031 143.319969 28.346125 143.319969 C 27.471125 143.319969 26.760188 142.609031 26.760188 141.734031 C 26.760188 140.859031 27.471125 140.148094 28.346125 140.148094 C 29.225031 140.148094 29.932063 140.859031 29.932063 141.734031 Z M 29.932063 141.734031 " transform="matrix(1, 0, 0, -1, -0.268, 199.152)"/>
<path fill-rule="nonzero" fill="rgb(100%, 94.898987%, 0%)" fill-opacity="1" stroke-width="0.3985" stroke-linecap="butt" stroke-linejoin="miter" stroke="rgb(0%, 0%, 0%)" stroke-opacity="1" stroke-miterlimit="10" d="M 58.279719 141.734031 C 58.279719 142.609031 57.568781 143.319969 56.693781 143.319969 C 55.818781 143.319969 55.107844 142.609031 55.107844 141.734031 C 55.107844 140.859031 55.818781 140.148094 56.693781 140.148094 C 57.568781 140.148094 58.279719 140.859031 58.279719 141.734031 Z M 58.279719 141.734031 " transform="matrix(1, 0, 0, -1, -0.268, 199.152)"/>
<path fill-rule="nonzero" fill="rgb(100%, 94.898987%, 0%)" fill-opacity="1" stroke-width="0.3985" stroke-linecap="butt" stroke-linejoin="miter" stroke="rgb(0%, 0%, 0%)" stroke-opacity="1" stroke-miterlimit="10" d="M 86.627375 141.734031 C 86.627375 142.609031 85.916438 143.319969 85.041438 143.319969 C 84.162531 143.319969 83.451594 142.609031 83.451594 141.734031 C 83.451594 140.859031 84.162531 140.148094 85.041438 140.148094 C 85.916438 140.148094 86.627375 140.859031 86.627375 141.734031 Z M 86.627375 141.734031 " transform="matrix(1, 0, 0, -1, -0.268, 199.152)"/>
<path fill="none" stroke-width="0.3985" stroke-linecap="butt" stroke-linejoin="miter" stroke="rgb(0%, 0%, 0%)" stroke-opacity="1" stroke-miterlimit="10" d="M 28.346125 127.562156 L 42.521906 127.562156 M 42.521906 127.562156 L 70.865656 127.562156 M 70.865656 127.562156 L 85.041438 127.562156 " transform="matrix(1, 0, 0, -1, -0.268, 199.152)"/>
<path fill-rule="nonzero" fill="rgb(100%, 100%, 100%)" fill-opacity="1" stroke-width="0.3985" stroke-linecap="butt" stroke-linejoin="miter" stroke="rgb(0%, 0%, 0%)" stroke-opacity="1" stroke-miterlimit="10" d="M 29.932063 127.562156 C 29.932063 128.437156 29.225031 129.148094 28.346125 129.148094 C 27.471125 129.148094 26.760188 128.437156 26.760188 127.562156 C 26.760188 126.68325 27.471125 125.972313 28.346125 125.972313 C 29.225031 125.972313 29.932063 126.68325 29.932063 127.562156 Z M 29.932063 127.562156 " transform="matrix(1, 0, 0, -1, -0.268, 199.152)"/>
<path fill-rule="nonzero" fill="rgb(100%, 100%, 100%)" fill-opacity="1" stroke-width="0.3985" stroke-linecap="butt" stroke-linejoin="miter" stroke="rgb(0%, 0%, 0%)" stroke-opacity="1" stroke-miterlimit="10" d="M 58.279719 127.562156 C 58.279719 128.437156 57.568781 129.148094 56.693781 129.148094 C 55.818781 129.148094 55.107844 128.437156 55.107844 127.562156 C 55.107844 126.68325 55.818781 125.972313 56.693781 125.972313 C 57.568781 125.972313 58.279719 126.68325 58.279719 127.562156 Z M 58.279719 127.562156 " transform="matrix(1, 0, 0, -1, -0.268, 199.152)"/>
<path fill-rule="nonzero" fill="rgb(100%, 100%, 100%)" fill-opacity="1" stroke-width="0.3985" stroke-linecap="butt" stroke-linejoin="miter" stroke="rgb(0%, 0%, 0%)" stroke-opacity="1" stroke-miterlimit="10" d="M 86.627375 127.562156 C 86.627375 128.437156 85.916438 129.148094 85.041438 129.148094 C 84.162531 129.148094 83.451594 128.437156 83.451594 127.562156 C 83.451594 126.68325 84.162531 125.972313 85.041438 125.972313 C 85.916438 125.972313 86.627375 126.68325 86.627375 127.562156 Z M 86.627375 127.562156 " transform="matrix(1, 0, 0, -1, -0.268, 199.152)"/>
<path fill="none" stroke-width="0.3985" stroke-linecap="butt" stroke-linejoin="miter" stroke="rgb(0%, 0%, 0%)" stroke-opacity="1" stroke-miterlimit="10" d="M 28.346125 113.386375 L 56.693781 113.386375 " transform="matrix(1, 0, 0, -1, -0.268, 199.152)"/>
<path fill-rule="nonzero" fill="rgb(100%, 100%, 100%)" fill-opacity="1" stroke-width="0.3985" stroke-linecap="butt" stroke-linejoin="miter" stroke="rgb(0%, 0%, 0%)" stroke-opacity="1" stroke-miterlimit="10" d="M 29.932063 113.386375 C 29.932063 114.265281 29.225031 114.976219 28.346125 114.976219 C 27.471125 114.976219 26.760188 114.265281 26.760188 113.386375 C 26.760188 112.511375 27.471125 111.800438 28.346125 111.800438 C 29.225031 111.800438 29.932063 112.511375 29.932063 113.386375 Z M 29.932063 113.386375 " transform="matrix(1, 0, 0, -1, -0.268, 199.152)"/>
<path fill-rule="nonzero" fill="rgb(100%, 100%, 100%)" fill-opacity="1" stroke-width="0.3985" stroke-linecap="butt" stroke-linejoin="miter" stroke="rgb(0%, 0%, 0%)" stroke-opacity="1" stroke-miterlimit="10" d="M 58.279719 113.386375 C 58.279719 114.265281 57.568781 114.976219 56.693781 114.976219 C 55.818781 114.976219 55.107844 114.265281 55.107844 113.386375 C 55.107844 112.511375 55.818781 111.800438 56.693781 111.800438 C 57.568781 111.800438 58.279719 112.511375 58.279719 113.386375 Z M 58.279719 113.386375 " transform="matrix(1, 0, 0, -1, -0.268, 199.152)"/>
<path fill="none" stroke-width="0.79701" stroke-linecap="butt" stroke-linejoin="miter" stroke="rgb(0%, 50%, 0%)" stroke-opacity="1" stroke-miterlimit="10" d="M 113.389094 113.386375 L 113.389094 133.796531 M 113.389094 149.671531 L 113.389094 170.081688 L 133.795344 170.081688 M 149.670344 170.081688 L 170.0805 170.081688 L 170.0805 149.671531 M 170.0805 133.796531 L 170.0805 113.386375 L 149.670344 113.386375 M 133.795344 113.386375 L 113.389094 113.386375 " transform="matrix(1, 0, 0, -1, -0.268, 199.152)"/>
<path fill-rule="nonzero" fill="rgb(100%, 94.898987%, 0%)" fill-opacity="1" stroke-width="1.59404" stroke-linecap="butt" stroke-linejoin="miter" stroke="rgb(0%, 50%, 0%)" stroke-opacity="1" stroke-miterlimit="10" d="M 113.389094 149.671531 L 103.467219 133.796531 L 123.307063 133.796531 Z M 113.389094 149.671531 " transform="matrix(1, 0, 0, -1, -0.268, 199.152)"/>
<path fill="none" stroke-width="1.59404" stroke-linecap="butt" stroke-linejoin="miter" stroke="rgb(0%, 50%, 0%)" stroke-opacity="1" stroke-miterlimit="10" d="M 123.307063 149.671531 L 103.467219 149.671531 " transform="matrix(1, 0, 0, -1, -0.268, 199.152)"/>
<path fill-rule="nonzero" fill="rgb(100%, 94.898987%, 0%)" fill-opacity="1" stroke-width="0.79701" stroke-linecap="butt" stroke-linejoin="miter" stroke="rgb(0%, 50%, 0%)" stroke-opacity="1" stroke-miterlimit="10" d="M 114.975031 113.386375 C 114.975031 114.265281 114.264094 114.976219 113.389094 114.976219 C 112.510188 114.976219 111.79925 114.265281 111.79925 113.386375 C 111.79925 112.511375 112.510188 111.800438 113.389094 111.800438 C 114.264094 111.800438 114.975031 112.511375 114.975031 113.386375 Z M 114.975031 113.386375 " transform="matrix(1, 0, 0, -1, -0.268, 199.152)"/>
<path fill-rule="nonzero" fill="rgb(100%, 94.898987%, 0%)" fill-opacity="1" stroke-width="0.79701" stroke-linecap="butt" stroke-linejoin="miter" stroke="rgb(0%, 50%, 0%)" stroke-opacity="1" stroke-miterlimit="10" d="M 114.975031 170.081688 C 114.975031 170.956688 114.264094 171.667625 113.389094 171.667625 C 112.510188 171.667625 111.79925 170.956688 111.79925 170.081688 C 111.79925 169.202781 112.510188 168.491844 113.389094 168.491844 C 114.264094 168.491844 114.975031 169.202781 114.975031 170.081688 Z M 114.975031 170.081688 " transform="matrix(1, 0, 0, -1, -0.268, 199.152)"/>
<path fill-rule="nonzero" fill="rgb(0%, 50%, 0%)" fill-opacity="1" stroke-width="1.59404" stroke-linecap="butt" stroke-linejoin="miter" stroke="rgb(0%, 50%, 0%)" stroke-opacity="1" stroke-miterlimit="10" d="M 149.670344 170.081688 L 133.795344 180.003563 L 133.795344 160.159813 L 149.670344 170.081688 " transform="matrix(1, 0, 0, -1, -0.268, 199.152)"/>
<path fill="none" stroke-width="1.59404" stroke-linecap="butt" stroke-linejoin="miter" stroke="rgb(0%, 50%, 0%)" stroke-opacity="1" stroke-miterlimit="10" d="M 149.670344 160.159813 L 149.670344 180.003563 " transform="matrix(1, 0, 0, -1, -0.268, 199.152)"/>
<path fill-rule="nonzero" fill="rgb(0%, 50%, 0%)" fill-opacity="1" d="M 169.8125 65.355469 L 179.734375 49.480469 L 159.890625 49.480469 L 169.8125 65.355469 "/>
<g clip-path="url(#clip-1)">
<path fill="none" stroke-width="1.59404" stroke-linecap="butt" stroke-linejoin="miter" stroke="rgb(0%, 50%, 0%)" stroke-opacity="1" stroke-miterlimit="10" d="M 170.0805 133.796531 L 180.002375 149.671531 L 160.158625 149.671531 L 170.0805 133.796531 " transform="matrix(1, 0, 0, -1, -0.268, 199.152)"/>
</g>
<path fill="none" stroke-width="1.59404" stroke-linecap="butt" stroke-linejoin="miter" stroke="rgb(0%, 50%, 0%)" stroke-opacity="1" stroke-miterlimit="10" d="M 160.158625 133.796531 L 180.002375 133.796531 " transform="matrix(1, 0, 0, -1, -0.268, 199.152)"/>
<path fill-rule="nonzero" fill="rgb(100%, 0%, 0%)" fill-opacity="1" d="M 133.527344 85.765625 L 149.402344 95.6875 L 149.402344 75.84375 Z M 133.527344 85.765625 "/>
<g clip-path="url(#clip-2)">
<path fill="none" stroke-width="1.59404" stroke-linecap="butt" stroke-linejoin="miter" stroke="rgb(0%, 50%, 0%)" stroke-opacity="1" stroke-miterlimit="10" d="M 133.795344 113.386375 L 149.670344 103.4645 L 149.670344 123.30825 Z M 133.795344 113.386375 " transform="matrix(1, 0, 0, -1, -0.268, 199.152)"/>
</g>
<path fill="none" stroke-width="1.59404" stroke-linecap="butt" stroke-linejoin="miter" stroke="rgb(0%, 50%, 0%)" stroke-opacity="1" stroke-miterlimit="10" d="M 133.795344 123.30825 L 133.795344 103.4645 " transform="matrix(1, 0, 0, -1, -0.268, 199.152)"/>
<path fill-rule="nonzero" fill="rgb(100%, 0%, 0%)" fill-opacity="1" stroke-width="0.79701" stroke-linecap="butt" stroke-linejoin="miter" stroke="rgb(0%, 50%, 0%)" stroke-opacity="1" stroke-miterlimit="10" d="M 171.666438 113.386375 C 171.666438 114.265281 170.9555 114.976219 170.0805 114.976219 C 169.2055 114.976219 168.494563 114.265281 168.494563 113.386375 C 168.494563 112.511375 169.2055 111.800438 170.0805 111.800438 C 170.9555 111.800438 171.666438 112.511375 171.666438 113.386375 Z M 171.666438 113.386375 " transform="matrix(1, 0, 0, -1, -0.268, 199.152)"/>
<path fill-rule="nonzero" fill="rgb(100%, 0%, 0%)" fill-opacity="1" stroke-width="0.79701" stroke-linecap="butt" stroke-linejoin="miter" stroke="rgb(0%, 50%, 0%)" stroke-opacity="1" stroke-miterlimit="10" d="M 114.975031 113.386375 C 114.975031 114.265281 114.264094 114.976219 113.389094 114.976219 C 112.510188 114.976219 111.79925 114.265281 111.79925 113.386375 C 111.79925 112.511375 112.510188 111.800438 113.389094 111.800438 C 114.264094 111.800438 114.975031 112.511375 114.975031 113.386375 Z M 114.975031 113.386375 " transform="matrix(1, 0, 0, -1, -0.268, 199.152)"/>
</svg>
