<?xml version="1.0" encoding="UTF-8"?>
<svg xmlns="http://www.w3.org/2000/svg" xmlns:xlink="http://www.w3.org/1999/xlink" width="99.944pt" height="130.096pt" viewBox="0 0 99.944 130.096">
<defs>
<clipPath id="clip-0">
<path clip-rule="nonzero" d="M 6 105 L 30 105 L 30 129.644531 L 6 129.644531 Z M 6 105 "/>
</clipPath>
<clipPath id="clip-1">
<path clip-rule="nonzero" d="M 63 105 L 87 105 L 87 129.644531 L 63 129.644531 Z M 63 105 "/>
</clipPath>
<clipPath id="clip-2">
<path clip-rule="nonzero" d="M 73 93 L 99.914062 93 L 99.914062 122 L 73 122 Z M 73 93 "/>
</clipPath>
<clipPath id="clip-3">
<path clip-rule="nonzero" d="M 92 114 L 99.914062 114 L 99.914062 118 L 92 118 Z M 92 114 "/>
</clipPath>
</defs>
<path fill="none" stroke-width="0.3985" stroke-linecap="butt" stroke-linejoin="miter" stroke="rgb(0%, 0%, 0%)" stroke-opacity="1" stroke-miterlimit="10" d="M 0.0001875 22.028125 L 0.0001875 8.73125 L -11.906062 3.274219 " transform="matrix(1, 0, 0, -1, 23.992, 22.575)"/>
<path fill="none" stroke-width="0.797" stroke-linecap="butt" stroke-linejoin="miter" stroke="rgb(0%, 0%, 0%)" stroke-opacity="1" stroke-miterlimit="10" d="M -11.906062 8.73125 L -11.906062 -8.729687 " transform="matrix(1, 0, 0, -1, 23.992, 22.575)"/>
<path fill="none" stroke-width="0.3985" stroke-linecap="butt" stroke-linejoin="miter" stroke="rgb(0%, 0%, 0%)" stroke-opacity="1" stroke-miterlimit="10" d="M -11.906062 -3.272656 L 0.0001875 -8.729687 L 0.0001875 -22.026562 " transform="matrix(1, 0, 0, -1, 23.992, 22.575)"/>
<path fill-rule="nonzero" fill="rgb(0%, 0%, 0%)" fill-opacity="1" d="M 16.28125 27.769531 L 17.234375 25.691406 L 20.925781 29.898438 L 15.328125 29.851562 Z M 16.28125 27.769531 "/>
<path fill="none" stroke-width="0.3985" stroke-linecap="butt" stroke-linejoin="miter" stroke="rgb(0%, 0%, 0%)" stroke-opacity="1" stroke-miterlimit="10" d="M -11.906062 0.00078125 L -24.011531 0.00078125 " transform="matrix(1, 0, 0, -1, 23.992, 22.575)"/>
<path fill="none" stroke-width="0.3985" stroke-linecap="butt" stroke-linejoin="miter" stroke="rgb(0%, 0%, 0%)" stroke-opacity="1" stroke-miterlimit="10" d="M 56.6955 22.028125 L 56.6955 8.73125 L 44.78925 3.274219 " transform="matrix(1, 0, 0, -1, 23.992, 22.575)"/>
<path fill="none" stroke-width="0.797" stroke-linecap="butt" stroke-linejoin="miter" stroke="rgb(0%, 0%, 0%)" stroke-opacity="1" stroke-miterlimit="10" d="M 44.78925 8.73125 L 44.78925 -8.729687 " transform="matrix(1, 0, 0, -1, 23.992, 22.575)"/>
<path fill="none" stroke-width="0.3985" stroke-linecap="butt" stroke-linejoin="miter" stroke="rgb(0%, 0%, 0%)" stroke-opacity="1" stroke-miterlimit="10" d="M 44.78925 -3.272656 L 56.6955 -8.729687 L 56.6955 -22.026562 " transform="matrix(1, 0, 0, -1, 23.992, 22.575)"/>
<path fill-rule="nonzero" fill="rgb(0%, 0%, 0%)" fill-opacity="1" d="M 76.492188 15.765625 L 77.445312 17.84375 L 71.847656 17.894531 L 75.539062 13.6875 Z M 76.492188 15.765625 "/>
<path fill="none" stroke-width="0.3985" stroke-linecap="butt" stroke-linejoin="miter" stroke="rgb(0%, 0%, 0%)" stroke-opacity="1" stroke-miterlimit="10" d="M 44.78925 0.00078125 L 32.683781 0.00078125 " transform="matrix(1, 0, 0, -1, 23.992, 22.575)"/>
<path fill="none" stroke-width="0.3985" stroke-linecap="butt" stroke-linejoin="miter" stroke="rgb(0%, 0%, 0%)" stroke-opacity="1" stroke-miterlimit="10" d="M 0.0001875 -63.014844 L 0.0001875 -76.307812 L -11.906062 -81.764844 " transform="matrix(1, 0, 0, -1, 23.992, 22.575)"/>
<path fill="none" stroke-width="0.797" stroke-linecap="butt" stroke-linejoin="miter" stroke="rgb(0%, 0%, 0%)" stroke-opacity="1" stroke-miterlimit="10" d="M -11.906062 -76.307812 L -11.906062 -93.772656 " transform="matrix(1, 0, 0, -1, 23.992, 22.575)"/>
<g clip-path="url(#clip-0)">
<path fill="none" stroke-width="0.3985" stroke-linecap="butt" stroke-linejoin="miter" stroke="rgb(0%, 0%, 0%)" stroke-opacity="1" stroke-miterlimit="10" d="M -11.906062 -88.315625 L 0.0001875 -93.772656 L 0.0001875 -107.065625 " transform="matrix(1, 0, 0, -1, 23.992, 22.575)"/>
</g>
<path fill-rule="nonzero" fill="rgb(0%, 0%, 0%)" fill-opacity="1" d="M 19.796875 100.808594 L 20.75 102.886719 L 15.152344 102.9375 L 18.847656 98.726562 Z M 19.796875 100.808594 "/>
<path fill="none" stroke-width="0.3985" stroke-linecap="butt" stroke-linejoin="miter" stroke="rgb(0%, 0%, 0%)" stroke-opacity="1" stroke-miterlimit="10" d="M -11.906062 -85.042187 L -24.011531 -85.042187 " transform="matrix(1, 0, 0, -1, 23.992, 22.575)"/>
<path fill="none" stroke-width="0.797" stroke-linecap="butt" stroke-linejoin="miter" stroke="rgb(0%, 0%, 0%)" stroke-opacity="1" stroke-miterlimit="10" d="M 7.144719 -82.659375 L 4.168156 -87.421094 L 10.121281 -87.421094 Z M 7.144719 -82.659375 " transform="matrix(1, 0, 0, -1, 23.992, 22.575)"/>
<path fill="none" stroke-width="0.797" stroke-linecap="butt" stroke-linejoin="miter" stroke="rgb(0%, 0%, 0%)" stroke-opacity="1" stroke-miterlimit="10" d="M 10.121281 -82.659375 L 4.168156 -82.659375 " transform="matrix(1, 0, 0, -1, 23.992, 22.575)"/>
<path fill="none" stroke-width="0.3985" stroke-linecap="butt" stroke-linejoin="miter" stroke="rgb(0%, 0%, 0%)" stroke-opacity="1" stroke-miterlimit="10" d="M 0.0001875 -71.944531 L 7.144719 -71.944531 L 7.144719 -82.659375 " transform="matrix(1, 0, 0, -1, 23.992, 22.575)"/>
<path fill-rule="nonzero" fill="rgb(0%, 0%, 0%)" fill-opacity="1" stroke-width="0.3985" stroke-linecap="butt" stroke-linejoin="miter" stroke="rgb(0%, 0%, 0%)" stroke-opacity="1" stroke-miterlimit="10" d="M 1.109563 -71.944531 C 1.109563 -71.33125 0.613469 -70.83125 0.0001875 -70.83125 C -0.613094 -70.83125 -1.109187 -71.33125 -1.109187 -71.944531 C -1.109187 -72.557812 -0.613094 -73.053906 0.0001875 -73.053906 C 0.613469 -73.053906 1.109563 -72.557812 1.109563 -71.944531 Z M 1.109563 -71.944531 " transform="matrix(1, 0, 0, -1, 23.992, 22.575)"/>
<path fill="none" stroke-width="0.3985" stroke-linecap="butt" stroke-linejoin="miter" stroke="rgb(0%, 0%, 0%)" stroke-opacity="1" stroke-miterlimit="10" d="M 0.0001875 -98.135937 L 7.144719 -98.135937 L 7.144719 -87.421094 " transform="matrix(1, 0, 0, -1, 23.992, 22.575)"/>
<path fill-rule="nonzero" fill="rgb(0%, 0%, 0%)" fill-opacity="1" stroke-width="0.3985" stroke-linecap="butt" stroke-linejoin="miter" stroke="rgb(0%, 0%, 0%)" stroke-opacity="1" stroke-miterlimit="10" d="M 1.109563 -98.135937 C 1.109563 -97.522656 0.613469 -97.026562 0.0001875 -97.026562 C -0.613094 -97.026562 -1.109187 -97.522656 -1.109187 -98.135937 C -1.109187 -98.749219 -0.613094 -99.249219 0.0001875 -99.249219 C 0.613469 -99.249219 1.109563 -98.749219 1.109563 -98.135937 Z M 1.109563 -98.135937 " transform="matrix(1, 0, 0, -1, 23.992, 22.575)"/>
<path fill="none" stroke-width="0.3985" stroke-linecap="butt" stroke-linejoin="miter" stroke="rgb(0%, 0%, 0%)" stroke-opacity="1" stroke-miterlimit="10" d="M 56.6955 -63.014844 L 56.6955 -76.307812 L 44.78925 -81.764844 " transform="matrix(1, 0, 0, -1, 23.992, 22.575)"/>
<path fill="none" stroke-width="0.797" stroke-linecap="butt" stroke-linejoin="miter" stroke="rgb(0%, 0%, 0%)" stroke-opacity="1" stroke-miterlimit="10" d="M 44.78925 -76.307812 L 44.78925 -93.772656 " transform="matrix(1, 0, 0, -1, 23.992, 22.575)"/>
<g clip-path="url(#clip-1)">
<path fill="none" stroke-width="0.3985" stroke-linecap="butt" stroke-linejoin="miter" stroke="rgb(0%, 0%, 0%)" stroke-opacity="1" stroke-miterlimit="10" d="M 44.78925 -88.315625 L 56.6955 -93.772656 L 56.6955 -107.065625 " transform="matrix(1, 0, 0, -1, 23.992, 22.575)"/>
</g>
<path fill-rule="nonzero" fill="rgb(0%, 0%, 0%)" fill-opacity="1" d="M 72.972656 112.8125 L 73.925781 110.734375 L 77.617188 114.941406 L 72.019531 114.890625 Z M 72.972656 112.8125 "/>
<path fill="none" stroke-width="0.3985" stroke-linecap="butt" stroke-linejoin="miter" stroke="rgb(0%, 0%, 0%)" stroke-opacity="1" stroke-miterlimit="10" d="M 44.78925 -85.042187 L 32.683781 -85.042187 " transform="matrix(1, 0, 0, -1, 23.992, 22.575)"/>
<g clip-path="url(#clip-2)">
<path fill="none" stroke-width="0.797" stroke-linecap="butt" stroke-linejoin="miter" stroke="rgb(0%, 0%, 0%)" stroke-opacity="1" stroke-miterlimit="10" d="M 63.836125 -82.659375 L 60.859563 -87.421094 L 66.812688 -87.421094 Z M 63.836125 -82.659375 " transform="matrix(1, 0, 0, -1, 23.992, 22.575)"/>
</g>
<path fill="none" stroke-width="0.797" stroke-linecap="butt" stroke-linejoin="miter" stroke="rgb(0%, 0%, 0%)" stroke-opacity="1" stroke-miterlimit="10" d="M 66.812688 -82.659375 L 60.859563 -82.659375 " transform="matrix(1, 0, 0, -1, 23.992, 22.575)"/>
<path fill="none" stroke-width="0.3985" stroke-linecap="butt" stroke-linejoin="miter" stroke="rgb(0%, 0%, 0%)" stroke-opacity="1" stroke-miterlimit="10" d="M 56.6955 -71.944531 L 63.836125 -71.944531 L 63.836125 -82.659375 " transform="matrix(1, 0, 0, -1, 23.992, 22.575)"/>
<path fill-rule="nonzero" fill="rgb(0%, 0%, 0%)" fill-opacity="1" stroke-width="0.3985" stroke-linecap="butt" stroke-linejoin="miter" stroke="rgb(0%, 0%, 0%)" stroke-opacity="1" stroke-miterlimit="10" d="M 57.804875 -71.944531 C 57.804875 -71.33125 57.308781 -70.83125 56.6955 -70.83125 C 56.078313 -70.83125 55.582219 -71.33125 55.582219 -71.944531 C 55.582219 -72.557812 56.078313 -73.053906 56.6955 -73.053906 C 57.308781 -73.053906 57.804875 -72.557812 57.804875 -71.944531 Z M 57.804875 -71.944531 " transform="matrix(1, 0, 0, -1, 23.992, 22.575)"/>
<path fill="none" stroke-width="0.3985" stroke-linecap="butt" stroke-linejoin="miter" stroke="rgb(0%, 0%, 0%)" stroke-opacity="1" stroke-miterlimit="10" d="M 56.6955 -98.135937 L 63.836125 -98.135937 L 63.836125 -87.421094 " transform="matrix(1, 0, 0, -1, 23.992, 22.575)"/>
<path fill-rule="nonzero" fill="rgb(0%, 0%, 0%)" fill-opacity="1" stroke-width="0.3985" stroke-linecap="butt" stroke-linejoin="miter" stroke="rgb(0%, 0%, 0%)" stroke-opacity="1" stroke-miterlimit="10" d="M 57.804875 -98.135937 C 57.804875 -97.522656 57.308781 -97.026562 56.6955 -97.026562 C 56.078313 -97.026562 55.582219 -97.522656 55.582219 -98.135937 C 55.582219 -98.749219 56.078313 -99.249219 56.6955 -99.249219 C 57.308781 -99.249219 57.804875 -98.749219 57.804875 -98.135937 Z M 57.804875 -98.135937 " transform="matrix(1, 0, 0, -1, 23.992, 22.575)"/>
<path fill="none" stroke-width="0.3985" stroke-linecap="butt" stroke-linejoin="miter" stroke="rgb(0%, 0%, 0%)" stroke-opacity="1" stroke-miterlimit="10" d="M 0.0001875 13.094531 L 4.250188 13.094531 M 4.250188 13.094531 L 8.504094 13.094531 L 8.504094 9.215625 M 8.504094 -0.307812 L 8.504094 -7.452344 M 8.504094 -9.835156 L 8.504094 -13.096875 L 4.250188 -13.096875 M 4.250188 -13.096875 L 0.0001875 -13.096875 " transform="matrix(1, 0, 0, -1, 23.992, 22.575)"/>
<path fill-rule="nonzero" fill="rgb(0%, 0%, 0%)" fill-opacity="1" stroke-width="0.3985" stroke-linecap="butt" stroke-linejoin="miter" stroke="rgb(0%, 0%, 0%)" stroke-opacity="1" stroke-miterlimit="10" d="M 0.793156 13.094531 C 0.793156 13.535938 0.437688 13.891406 0.0001875 13.891406 C -0.437312 13.891406 -0.792781 13.535938 -0.792781 13.094531 C -0.792781 12.657031 -0.437312 12.301563 0.0001875 12.301563 C 0.437688 12.301563 0.793156 12.657031 0.793156 13.094531 Z M 0.793156 13.094531 " transform="matrix(1, 0, 0, -1, 23.992, 22.575)"/>
<path fill="none" stroke-width="0.797" stroke-linecap="butt" stroke-linejoin="bevel" stroke="rgb(0%, 0%, 0%)" stroke-opacity="1" stroke-miterlimit="10" d="M 8.504094 9.614063 L 10.28925 8.422656 L 6.718938 6.832813 L 10.28925 5.246875 L 6.718938 3.660938 L 10.28925 2.071094 L 6.718938 0.485156 L 8.504094 -0.70625 " transform="matrix(1, 0, 0, -1, 23.992, 22.575)"/>
<path fill="none" stroke-width="0.797" stroke-linecap="butt" stroke-linejoin="miter" stroke="rgb(0%, 0%, 0%)" stroke-opacity="1" stroke-miterlimit="10" d="M 12.074406 -7.452344 L 4.933781 -7.452344 M 12.074406 -9.835156 L 4.933781 -9.835156 " transform="matrix(1, 0, 0, -1, 23.992, 22.575)"/>
<path fill-rule="nonzero" fill="rgb(0%, 0%, 0%)" fill-opacity="1" stroke-width="0.3985" stroke-linecap="butt" stroke-linejoin="miter" stroke="rgb(0%, 0%, 0%)" stroke-opacity="1" stroke-miterlimit="10" d="M 0.793156 -13.096875 C 0.793156 -12.659375 0.437688 -12.303906 0.0001875 -12.303906 C -0.437312 -12.303906 -0.792781 -12.659375 -0.792781 -13.096875 C -0.792781 -13.534375 -0.437312 -13.889844 0.0001875 -13.889844 C 0.437688 -13.889844 0.793156 -13.534375 0.793156 -13.096875 Z M 0.793156 -13.096875 " transform="matrix(1, 0, 0, -1, 23.992, 22.575)"/>
<path fill="none" stroke-width="0.3985" stroke-linecap="butt" stroke-linejoin="miter" stroke="rgb(0%, 0%, 0%)" stroke-opacity="1" stroke-miterlimit="10" d="M 56.6955 -13.096875 L 60.9455 -13.096875 M 60.9455 -13.096875 L 65.199406 -13.096875 L 65.199406 -9.214062 M 65.199406 0.309375 L 65.199406 7.453906 M 65.199406 9.832813 L 65.199406 13.094531 L 60.9455 13.094531 M 60.9455 13.094531 L 56.6955 13.094531 " transform="matrix(1, 0, 0, -1, 23.992, 22.575)"/>
<path fill-rule="nonzero" fill="rgb(0%, 0%, 0%)" fill-opacity="1" stroke-width="0.3985" stroke-linecap="butt" stroke-linejoin="miter" stroke="rgb(0%, 0%, 0%)" stroke-opacity="1" stroke-miterlimit="10" d="M 57.488469 -13.096875 C 57.488469 -12.659375 57.133 -12.303906 56.6955 -12.303906 C 56.254094 -12.303906 55.898625 -12.659375 55.898625 -13.096875 C 55.898625 -13.534375 56.254094 -13.889844 56.6955 -13.889844 C 57.133 -13.889844 57.488469 -13.534375 57.488469 -13.096875 Z M 57.488469 -13.096875 " transform="matrix(1, 0, 0, -1, 23.992, 22.575)"/>
<path fill="none" stroke-width="0.797" stroke-linecap="butt" stroke-linejoin="bevel" stroke="rgb(0%, 0%, 0%)" stroke-opacity="1" stroke-miterlimit="10" d="M 65.199406 -9.6125 L 63.410344 -8.421094 L 66.984563 -6.835156 L 63.410344 -5.245312 L 66.984563 -3.659375 L 63.410344 -2.073437 L 66.984563 -0.483594 L 65.199406 0.707813 " transform="matrix(1, 0, 0, -1, 23.992, 22.575)"/>
<path fill="none" stroke-width="0.797" stroke-linecap="butt" stroke-linejoin="miter" stroke="rgb(0%, 0%, 0%)" stroke-opacity="1" stroke-miterlimit="10" d="M 61.625188 7.453906 L 68.769719 7.453906 M 61.625188 9.832813 L 68.769719 9.832813 " transform="matrix(1, 0, 0, -1, 23.992, 22.575)"/>
<path fill-rule="nonzero" fill="rgb(0%, 0%, 0%)" fill-opacity="1" stroke-width="0.3985" stroke-linecap="butt" stroke-linejoin="miter" stroke="rgb(0%, 0%, 0%)" stroke-opacity="1" stroke-miterlimit="10" d="M 57.488469 13.094531 C 57.488469 13.535938 57.133 13.891406 56.6955 13.891406 C 56.254094 13.891406 55.898625 13.535938 55.898625 13.094531 C 55.898625 12.657031 56.254094 12.301563 56.6955 12.301563 C 57.133 12.301563 57.488469 12.657031 57.488469 13.094531 Z M 57.488469 13.094531 " transform="matrix(1, 0, 0, -1, 23.992, 22.575)"/>
<path fill="none" stroke-width="0.3985" stroke-linecap="butt" stroke-linejoin="miter" stroke="rgb(0%, 0%, 0%)" stroke-opacity="1" stroke-miterlimit="10" d="M 7.144719 -98.135937 L 11.394719 -98.135937 M 11.394719 -98.135937 L 15.648625 -98.135937 L 15.648625 -94.257031 M 15.648625 -84.729687 L 15.648625 -77.589062 M 15.648625 -75.20625 L 15.648625 -71.944531 L 11.394719 -71.944531 M 11.394719 -71.944531 L 7.144719 -71.944531 " transform="matrix(1, 0, 0, -1, 23.992, 22.575)"/>
<path fill-rule="nonzero" fill="rgb(0%, 0%, 0%)" fill-opacity="1" stroke-width="0.3985" stroke-linecap="butt" stroke-linejoin="miter" stroke="rgb(0%, 0%, 0%)" stroke-opacity="1" stroke-miterlimit="10" d="M 7.937688 -98.135937 C 7.937688 -97.698437 7.582219 -97.342969 7.144719 -97.342969 C 6.703313 -97.342969 6.347844 -97.698437 6.347844 -98.135937 C 6.347844 -98.573437 6.703313 -98.928906 7.144719 -98.928906 C 7.582219 -98.928906 7.937688 -98.573437 7.937688 -98.135937 Z M 7.937688 -98.135937 " transform="matrix(1, 0, 0, -1, 23.992, 22.575)"/>
<path fill="none" stroke-width="0.797" stroke-linecap="butt" stroke-linejoin="bevel" stroke="rgb(0%, 0%, 0%)" stroke-opacity="1" stroke-miterlimit="10" d="M 15.648625 -94.655469 L 13.863469 -93.460156 L 17.433781 -91.874219 L 13.863469 -90.288281 L 17.433781 -88.698437 L 13.863469 -87.1125 L 17.433781 -85.526562 L 15.648625 -84.33125 " transform="matrix(1, 0, 0, -1, 23.992, 22.575)"/>
<path fill="none" stroke-width="0.797" stroke-linecap="butt" stroke-linejoin="miter" stroke="rgb(0%, 0%, 0%)" stroke-opacity="1" stroke-miterlimit="10" d="M 12.074406 -77.589062 L 19.218938 -77.589062 M 12.074406 -75.20625 L 19.218938 -75.20625 " transform="matrix(1, 0, 0, -1, 23.992, 22.575)"/>
<path fill-rule="nonzero" fill="rgb(0%, 0%, 0%)" fill-opacity="1" stroke-width="0.3985" stroke-linecap="butt" stroke-linejoin="miter" stroke="rgb(0%, 0%, 0%)" stroke-opacity="1" stroke-miterlimit="10" d="M 7.937688 -71.944531 C 7.937688 -71.507031 7.582219 -71.151562 7.144719 -71.151562 C 6.703313 -71.151562 6.347844 -71.507031 6.347844 -71.944531 C 6.347844 -72.382031 6.703313 -72.7375 7.144719 -72.7375 C 7.582219 -72.7375 7.937688 -72.382031 7.937688 -71.944531 Z M 7.937688 -71.944531 " transform="matrix(1, 0, 0, -1, 23.992, 22.575)"/>
<path fill="none" stroke-width="0.3985" stroke-linecap="butt" stroke-linejoin="miter" stroke="rgb(0%, 0%, 0%)" stroke-opacity="1" stroke-miterlimit="10" d="M 63.836125 -71.944531 L 68.090031 -71.944531 M 68.090031 -71.944531 L 72.340031 -71.944531 L 72.340031 -75.827344 M 72.340031 -85.350781 L 72.340031 -92.495312 M 72.340031 -94.874219 L 72.340031 -98.135937 L 68.090031 -98.135937 M 68.090031 -98.135937 L 63.836125 -98.135937 " transform="matrix(1, 0, 0, -1, 23.992, 22.575)"/>
<path fill-rule="nonzero" fill="rgb(0%, 0%, 0%)" fill-opacity="1" stroke-width="0.3985" stroke-linecap="butt" stroke-linejoin="miter" stroke="rgb(0%, 0%, 0%)" stroke-opacity="1" stroke-miterlimit="10" d="M 64.629094 -71.944531 C 64.629094 -71.507031 64.273625 -71.151562 63.836125 -71.151562 C 63.398625 -71.151562 63.043156 -71.507031 63.043156 -71.944531 C 63.043156 -72.382031 63.398625 -72.7375 63.836125 -72.7375 C 64.273625 -72.7375 64.629094 -72.382031 64.629094 -71.944531 Z M 64.629094 -71.944531 " transform="matrix(1, 0, 0, -1, 23.992, 22.575)"/>
<path fill="none" stroke-width="0.797" stroke-linecap="butt" stroke-linejoin="bevel" stroke="rgb(0%, 0%, 0%)" stroke-opacity="1" stroke-miterlimit="10" d="M 72.340031 -75.425 L 74.125188 -76.620312 L 70.554875 -78.20625 L 74.125188 -79.792187 L 70.554875 -81.382031 L 74.125188 -82.967969 L 70.554875 -84.557812 L 72.340031 -85.749219 " transform="matrix(1, 0, 0, -1, 23.992, 22.575)"/>
<g clip-path="url(#clip-3)">
<path fill="none" stroke-width="0.797" stroke-linecap="butt" stroke-linejoin="miter" stroke="rgb(0%, 0%, 0%)" stroke-opacity="1" stroke-miterlimit="10" d="M 75.91425 -92.495312 L 68.769719 -92.495312 M 75.91425 -94.874219 L 68.769719 -94.874219 " transform="matrix(1, 0, 0, -1, 23.992, 22.575)"/>
</g>
<path fill-rule="nonzero" fill="rgb(0%, 0%, 0%)" fill-opacity="1" stroke-width="0.3985" stroke-linecap="butt" stroke-linejoin="miter" stroke="rgb(0%, 0%, 0%)" stroke-opacity="1" stroke-miterlimit="10" d="M 64.629094 -98.135937 C 64.629094 -97.698437 64.273625 -97.342969 63.836125 -97.342969 C 63.398625 -97.342969 63.043156 -97.698437 63.043156 -98.135937 C 63.043156 -98.573437 63.398625 -98.928906 63.836125 -98.928906 C 64.273625 -98.928906 64.629094 -98.573437 64.629094 -98.135937 Z M 64.629094 -98.135937 " transform="matrix(1, 0, 0, -1, 23.992, 22.575)"/>
</svg>
