<?xml version="1.0" encoding="UTF-8"?>
<svg xmlns="http://www.w3.org/2000/svg" xmlns:xlink="http://www.w3.org/1999/xlink" width="56.712pt" height="33.545pt" viewBox="0 0 56.712 33.545">
<defs>
<clipPath id="clip-0">
<path clip-rule="nonzero" d="M 0 16 L 56.566406 16 L 56.566406 18 L 0 18 Z M 0 16 "/>
</clipPath>
<clipPath id="clip-1">
<path clip-rule="nonzero" d="M 21 0 L 35 0 L 35 33.316406 L 21 33.316406 Z M 21 0 "/>
</clipPath>
<clipPath id="clip-2">
<path clip-rule="nonzero" d="M 10 0 L 46 0 L 46 33.316406 L 10 33.316406 Z M 10 0 "/>
</clipPath>
</defs>
<g clip-path="url(#clip-0)">
<path fill="none" stroke-width="0.3985" stroke-linecap="butt" stroke-linejoin="miter" stroke="rgb(0%, 0%, 0%)" stroke-opacity="1" stroke-miterlimit="10" d="M -0.00171875 0.00053125 L 22.392813 0.00053125 M 34.299063 0.00053125 L 56.693594 0.00053125 " transform="matrix(1, 0, 0, -1, -0.135, 17.0435)"/>
</g>
<path fill-rule="nonzero" fill="rgb(70.001221%, 90.351868%, 98.118591%)" fill-opacity="1" d="M 22.257812 1.167969 L 34.164062 1.167969 L 34.164062 32.917969 L 22.257812 32.917969 Z M 22.257812 1.167969 "/>
<g clip-path="url(#clip-1)">
<path fill="none" stroke-width="0.797" stroke-linecap="butt" stroke-linejoin="miter" stroke="rgb(0%, 0%, 0%)" stroke-opacity="1" stroke-miterlimit="10" d="M 22.392813 15.875531 L 34.299063 15.875531 L 34.299063 -15.874469 L 22.392813 -15.874469 Z M 22.392813 15.875531 " transform="matrix(1, 0, 0, -1, -0.135, 17.0435)"/>
</g>
<g clip-path="url(#clip-2)">
<path fill="none" stroke-width="0.797" stroke-linecap="butt" stroke-linejoin="miter" stroke="rgb(0%, 0%, 0%)" stroke-opacity="1" stroke-miterlimit="10" d="M 22.392813 15.875531 L 34.299063 -15.874469 " transform="matrix(1, 0, 0, -1, -0.135, 17.0435)"/>
</g>
</svg>
