<?xml version="1.0" encoding="UTF-8"?>
<svg xmlns="http://www.w3.org/2000/svg" xmlns:xlink="http://www.w3.org/1999/xlink" width="93.388pt" height="41.644pt" viewBox="0 0 93.388 41.644">
<defs>
<clipPath id="clip-0">
<path clip-rule="nonzero" d="M 7 6 L 93.082031 6 L 93.082031 8 L 7 8 Z M 7 6 "/>
</clipPath>
<clipPath id="clip-1">
<path clip-rule="nonzero" d="M 0 0 L 12 0 L 12 5.386719 L 0 5.386719 Z M 0 5.386719 L 2.476562 5.386719 L 2.476562 8.5625 L 0 8.5625 Z M 0 8.5625 L 12 8.5625 L 12 14.910156 L 0 14.910156 Z M 0 8.5625 "/>
</clipPath>
<clipPath id="clip-2">
<path clip-rule="nonzero" d="M 7 35 L 93.082031 35 L 93.082031 36 L 7 36 Z M 7 35 "/>
</clipPath>
<clipPath id="clip-3">
<path clip-rule="nonzero" d="M 0 27.386719 L 12 27.386719 L 12 33.734375 L 0 33.734375 Z M 0 33.734375 L 2.476562 33.734375 L 2.476562 36.910156 L 0 36.910156 Z M 0 36.910156 L 12 36.910156 L 12 41.464844 L 0 41.464844 Z M 0 36.910156 "/>
</clipPath>
<clipPath id="clip-4">
<path clip-rule="nonzero" d="M 0 22 L 17 22 L 17 41.464844 L 0 41.464844 Z M 0 22 "/>
</clipPath>
<clipPath id="clip-5">
<path clip-rule="nonzero" d="M 19 28 L 54 28 L 54 41.464844 L 19 41.464844 Z M 19 28 "/>
</clipPath>
<clipPath id="clip-6">
<path clip-rule="nonzero" d="M 69 20 L 93.082031 20 L 93.082031 41.464844 L 69 41.464844 Z M 69 20 "/>
</clipPath>
</defs>
<g clip-path="url(#clip-0)">
<path fill="none" stroke-width="0.3985" stroke-linecap="butt" stroke-linejoin="miter" stroke="rgb(0%, 0%, 0%)" stroke-opacity="1" stroke-miterlimit="10" d="M -0.00175 28.345438 L 12.470906 28.345438 M 44.220906 28.345438 L 64.912313 28.345438 M 76.818563 28.345438 L 85.041219 28.345438 " transform="matrix(1, 0, 0, -1, 8.033, 35.322)"/>
</g>
<g clip-path="url(#clip-1)">
<path fill="none" stroke-width="0.797" stroke-linecap="butt" stroke-linejoin="miter" stroke="rgb(0%, 0%, 0%)" stroke-opacity="1" stroke-miterlimit="10" d="M -0.00175 28.345438 C -0.00175 30.536844 -1.775187 32.314188 -3.966594 32.314188 C -6.158 32.314188 -7.935344 30.536844 -7.935344 28.345438 C -7.935344 26.154031 -6.158 24.380594 -3.966594 24.380594 C -1.775187 24.380594 -0.00175 26.154031 -0.00175 28.345438 Z M -0.00175 28.345438 " transform="matrix(1, 0, 0, -1, 8.033, 35.322)"/>
</g>
<path fill="none" stroke-width="0.797" stroke-linecap="butt" stroke-linejoin="miter" stroke="rgb(0%, 0%, 0%)" stroke-opacity="1" stroke-miterlimit="10" d="M -2.380656 28.345438 C -2.380656 29.224344 -3.091594 29.935281 -3.966594 29.935281 C -4.8455 29.935281 -5.556437 29.224344 -5.556437 28.345438 C -5.556437 27.470438 -4.8455 26.7595 -3.966594 26.7595 C -3.091594 26.7595 -2.380656 27.470438 -2.380656 28.345438 Z M -2.380656 28.345438 " transform="matrix(1, 0, 0, -1, 8.033, 35.322)"/>
<path fill="none" stroke-width="0.3985" stroke-linecap="butt" stroke-linejoin="miter" stroke="rgb(0%, 0%, 0%)" stroke-opacity="1" stroke-miterlimit="10" d="M -2.380656 28.345438 L -0.00175 28.345438 " transform="matrix(1, 0, 0, -1, 8.033, 35.322)"/>
<path fill="none" stroke-width="0.797" stroke-linecap="butt" stroke-linejoin="bevel" stroke="rgb(0%, 0%, 0%)" stroke-opacity="1" stroke-miterlimit="10" d="M 12.072469 28.345438 L 15.119344 34.298563 L 20.408406 22.392313 L 25.701375 34.298563 L 30.994344 22.392313 L 36.283406 34.298563 L 41.576375 22.392313 L 44.619344 28.345438 " transform="matrix(1, 0, 0, -1, 8.033, 35.322)"/>
<path fill="none" stroke-width="0.797" stroke-linecap="butt" stroke-linejoin="miter" stroke="rgb(0%, 0%, 0%)" stroke-opacity="1" stroke-miterlimit="10" d="M 68.881063 32.314188 C 66.689656 32.314188 64.912313 30.536844 64.912313 28.345438 C 64.912313 26.154031 66.689656 24.376688 68.881063 24.376688 " transform="matrix(1, 0, 0, -1, 8.033, 35.322)"/>
<path fill-rule="nonzero" fill="rgb(0%, 0%, 0%)" fill-opacity="1" stroke-width="0.797" stroke-linecap="butt" stroke-linejoin="miter" stroke="rgb(0%, 0%, 0%)" stroke-opacity="1" stroke-miterlimit="10" d="M 68.881063 30.329813 L 76.818563 30.329813 L 76.818563 26.361063 L 68.881063 26.361063 Z M 68.881063 30.329813 " transform="matrix(1, 0, 0, -1, 8.033, 35.322)"/>
<g clip-path="url(#clip-2)">
<path fill="none" stroke-width="0.3985" stroke-linecap="butt" stroke-linejoin="miter" stroke="rgb(0%, 0%, 0%)" stroke-opacity="1" stroke-miterlimit="10" d="M -0.00175 0.0016875 L 12.470906 0.0016875 M 44.220906 0.0016875 L 64.912313 0.0016875 M 76.818563 0.0016875 L 85.041219 0.0016875 " transform="matrix(1, 0, 0, -1, 8.033, 35.322)"/>
</g>
<g clip-path="url(#clip-3)">
<path fill="none" stroke-width="0.797" stroke-linecap="butt" stroke-linejoin="miter" stroke="rgb(0%, 0%, 0%)" stroke-opacity="1" stroke-miterlimit="10" d="M -0.00175 0.0016875 C -0.00175 2.193094 -1.775187 3.966531 -3.966594 3.966531 C -6.158 3.966531 -7.935344 2.193094 -7.935344 0.0016875 C -7.935344 -2.189719 -6.158 -3.967062 -3.966594 -3.967062 C -1.775187 -3.967062 -0.00175 -2.189719 -0.00175 0.0016875 Z M -0.00175 0.0016875 " transform="matrix(1, 0, 0, -1, 8.033, 35.322)"/>
</g>
<g clip-path="url(#clip-4)">
<path fill="none" stroke-width="0.797" stroke-linecap="butt" stroke-linejoin="miter" stroke="rgb(0%, 0%, 0%)" stroke-opacity="1" stroke-miterlimit="10" d="M -2.380656 0.0016875 C -2.380656 0.876688 -3.091594 1.587625 -3.966594 1.587625 C -4.8455 1.587625 -5.556437 0.876688 -5.556437 0.0016875 C -5.556437 -0.877219 -4.8455 -1.588156 -3.966594 -1.588156 C -3.091594 -1.588156 -2.380656 -0.877219 -2.380656 0.0016875 Z M -2.380656 0.0016875 " transform="matrix(1, 0, 0, -1, 8.033, 35.322)"/>
</g>
<path fill="none" stroke-width="0.3985" stroke-linecap="butt" stroke-linejoin="miter" stroke="rgb(0%, 0%, 0%)" stroke-opacity="1" stroke-miterlimit="10" d="M -2.380656 0.0016875 L -0.00175 0.0016875 " transform="matrix(1, 0, 0, -1, 8.033, 35.322)"/>
<g clip-path="url(#clip-5)">
<path fill="none" stroke-width="0.797" stroke-linecap="butt" stroke-linejoin="bevel" stroke="rgb(0%, 0%, 0%)" stroke-opacity="1" stroke-miterlimit="10" d="M 12.072469 0.0016875 L 15.119344 5.950906 L 20.408406 -5.951437 L 25.701375 5.950906 L 30.994344 -5.951437 L 36.283406 5.950906 L 41.576375 -5.951437 L 44.619344 0.0016875 " transform="matrix(1, 0, 0, -1, 8.033, 35.322)"/>
</g>
<g clip-path="url(#clip-6)">
<path fill="none" stroke-width="0.797" stroke-linecap="butt" stroke-linejoin="miter" stroke="rgb(0%, 0%, 0%)" stroke-opacity="1" stroke-miterlimit="10" d="M 72.849813 3.966531 C 75.041219 3.966531 76.818563 2.193094 76.818563 0.0016875 C 76.818563 -2.193625 75.041219 -3.967062 72.849813 -3.967062 " transform="matrix(1, 0, 0, -1, 8.033, 35.322)"/>
</g>
<path fill-rule="nonzero" fill="rgb(0%, 0%, 0%)" fill-opacity="1" stroke-width="0.797" stroke-linecap="butt" stroke-linejoin="miter" stroke="rgb(0%, 0%, 0%)" stroke-opacity="1" stroke-miterlimit="10" d="M 64.912313 -1.982687 L 72.849813 -1.982687 L 72.849813 1.986063 L 64.912313 1.986063 Z M 64.912313 -1.982687 " transform="matrix(1, 0, 0, -1, 8.033, 35.322)"/>
</svg>
