<?xml version="1.0" encoding="UTF-8"?>
<svg xmlns="http://www.w3.org/2000/svg" xmlns:xlink="http://www.w3.org/1999/xlink" width="59.552pt" height="60.958pt" viewBox="0 0 59.552 60.958">
<defs>
<clipPath id="clip-0">
<path clip-rule="nonzero" d="M 0 0 L 59.328125 0 L 59.328125 60.9375 L 0 60.9375 Z M 0 0 "/>
</clipPath>
</defs>
<path fill="none" stroke-width="0.797" stroke-linecap="butt" stroke-linejoin="bevel" stroke="rgb(0%, 0%, 0%)" stroke-opacity="1" stroke-miterlimit="10" d="M -12.064625 12.30375 C -8.775563 12.30375 -6.1115 10.670937 -6.1115 8.651406 C -6.1115 6.635781 -8.775563 5.002969 -12.064625 5.002969 C -13.709156 5.002969 -15.041188 5.667031 -15.041188 6.49125 C -15.041188 7.311562 -13.709156 7.979531 -12.064625 7.979531 C -8.775563 7.979531 -6.1115 6.342812 -6.1115 4.327187 C -6.1115 2.311562 -8.775563 0.674844 -12.064625 0.674844 C -13.709156 0.674844 -15.041188 1.342812 -15.041188 2.163125 C -15.041188 2.983437 -13.709156 3.651406 -12.064625 3.651406 C -8.775563 3.651406 -6.1115 2.014687 -6.1115 -0.0009375 C -6.1115 -2.016563 -8.775563 -3.649375 -12.064625 -3.649375 C -13.709156 -3.649375 -15.041188 -2.985313 -15.041188 -2.165 C -15.041188 -1.340781 -13.709156 -0.676719 -12.064625 -0.676719 C -8.775563 -0.676719 -6.1115 -2.309531 -6.1115 -4.325156 C -6.1115 -6.344688 -8.775563 -7.9775 -12.064625 -7.9775 C -13.709156 -7.9775 -15.041188 -7.309531 -15.041188 -6.489219 C -15.041188 -5.668906 -13.709156 -5.000938 -12.064625 -5.000938 C -8.775563 -5.000938 -6.1115 -6.637656 -6.1115 -8.653281 C -6.1115 -10.668906 -8.775563 -12.305625 -12.064625 -12.305625 " transform="matrix(1, 0, 0, -1, 29.549, 30.96)"/>
<path fill="none" stroke-width="0.797" stroke-linecap="butt" stroke-linejoin="bevel" stroke="rgb(0%, 0%, 0%)" stroke-opacity="1" stroke-miterlimit="10" d="M 12.064281 -12.305625 C 8.775219 -12.305625 6.111156 -10.668906 6.111156 -8.653281 C 6.111156 -6.637656 8.775219 -5.000938 12.064281 -5.000938 C 13.708812 -5.000938 15.040844 -5.668906 15.040844 -6.489219 C 15.040844 -7.313438 13.708812 -7.9775 12.064281 -7.9775 C 8.775219 -7.9775 6.111156 -6.344688 6.111156 -4.325156 C 6.111156 -2.309531 8.775219 -0.676719 12.064281 -0.676719 C 13.708812 -0.676719 15.040844 -1.340781 15.040844 -2.165 C 15.040844 -2.985313 13.708812 -3.653281 12.064281 -3.653281 C 8.775219 -3.653281 6.111156 -2.016563 6.111156 -0.0009375 C 6.111156 2.014687 8.775219 3.651406 12.064281 3.651406 C 13.708812 3.651406 15.040844 2.983437 15.040844 2.163125 C 15.040844 1.342812 13.708812 0.674844 12.064281 0.674844 C 8.775219 0.674844 6.111156 2.311562 6.111156 4.327187 C 6.111156 6.342812 8.775219 7.979531 12.064281 7.979531 C 13.708812 7.979531 15.040844 7.311562 15.040844 6.49125 C 15.040844 5.667031 13.708812 5.002969 12.064281 5.002969 C 8.775219 5.002969 6.111156 6.635781 6.111156 8.651406 C 6.111156 10.670937 8.775219 12.30375 12.064281 12.30375 " transform="matrix(1, 0, 0, -1, 29.549, 30.96)"/>
<g clip-path="url(#clip-0)">
<path fill="none" stroke-width="0.3985" stroke-linecap="butt" stroke-linejoin="miter" stroke="rgb(0%, 0%, 0%)" stroke-opacity="1" stroke-miterlimit="10" d="M -29.763844 29.764687 L -11.904469 29.764687 L -11.904469 11.905312 M -11.904469 -11.907188 L -11.904469 -29.762656 L -29.763844 -29.762656 M 29.7635 29.764687 L 11.904125 29.764687 L 11.904125 11.905312 M 11.904125 -11.907188 L 11.904125 -29.762656 L 29.7635 -29.762656 " transform="matrix(1, 0, 0, -1, 29.549, 30.96)"/>
</g>
<path fill="none" stroke-width="0.797" stroke-linecap="butt" stroke-linejoin="miter" stroke="rgb(0%, 0%, 0%)" stroke-opacity="1" stroke-miterlimit="10" d="M 1.486156 -14.88375 L 1.486156 14.881875 M -1.4865 -14.88375 L -1.4865 14.881875 " transform="matrix(1, 0, 0, -1, 29.549, 30.96)"/>
</svg>
