<?xml version="1.0" encoding="UTF-8"?>
<svg xmlns="http://www.w3.org/2000/svg" xmlns:xlink="http://www.w3.org/1999/xlink" width="113.408pt" height="66.484pt" viewBox="0 0 113.408 66.484">
<defs>
<clipPath id="clip-0">
<path clip-rule="nonzero" d="M 0 7 L 113.113281 7 L 113.113281 9 L 0 9 Z M 0 7 "/>
</clipPath>
<clipPath id="clip-1">
<path clip-rule="nonzero" d="M 0 64 L 113.113281 64 L 113.113281 66 L 0 66 Z M 0 64 "/>
</clipPath>
<clipPath id="clip-2">
<path clip-rule="nonzero" d="M 83 63 L 87 63 L 87 66.226562 L 83 66.226562 Z M 83 63 "/>
</clipPath>
</defs>
<g clip-path="url(#clip-0)">
<path fill="none" stroke-width="0.3985" stroke-linecap="butt" stroke-linejoin="miter" stroke="rgb(0%, 0%, 0%)" stroke-opacity="1" stroke-miterlimit="10" d="M 0.00184375 56.693906 L 16.439344 56.693906 M 40.251844 56.693906 L 73.134656 56.693906 M 96.947156 56.693906 L 113.388563 56.693906 " transform="matrix(1, 0, 0, -1, -0.287, 64.815)"/>
</g>
<path fill="none" stroke-width="0.797" stroke-linecap="butt" stroke-linejoin="bevel" stroke="rgb(0%, 0%, 0%)" stroke-opacity="1" stroke-miterlimit="10" d="M 16.040906 56.53375 C 16.040906 59.822813 17.677625 62.486875 19.69325 62.486875 C 21.708875 62.486875 23.345594 59.822813 23.345594 56.53375 C 23.345594 54.889219 22.677625 53.557188 21.857313 53.557188 C 21.037 53.557188 20.369031 54.889219 20.369031 56.53375 C 20.369031 59.822813 22.001844 62.486875 24.021375 62.486875 C 26.037 62.486875 27.669813 59.822813 27.669813 56.53375 C 27.669813 54.889219 27.00575 53.557188 26.185438 53.557188 C 25.361219 53.557188 24.697156 54.889219 24.697156 56.53375 C 24.697156 59.822813 26.329969 62.486875 28.345594 62.486875 C 30.365125 62.486875 31.997938 59.822813 31.997938 56.53375 C 31.997938 54.889219 31.329969 53.557188 30.509656 53.557188 C 29.689344 53.557188 29.021375 54.889219 29.021375 56.53375 C 29.021375 59.822813 30.658094 62.486875 32.673719 62.486875 C 34.689344 62.486875 36.326063 59.822813 36.326063 56.53375 C 36.326063 54.889219 35.658094 53.557188 34.837781 53.557188 C 34.013563 53.557188 33.3495 54.889219 33.3495 56.53375 C 33.3495 59.822813 34.982313 62.486875 36.997938 62.486875 C 39.017469 62.486875 40.650281 59.822813 40.650281 56.53375 " transform="matrix(1, 0, 0, -1, -0.287, 64.815)"/>
<path fill="none" stroke-width="0.797" stroke-linecap="butt" stroke-linejoin="bevel" stroke="rgb(0%, 0%, 0%)" stroke-opacity="1" stroke-miterlimit="10" d="M 72.736219 56.53375 C 72.736219 59.822813 74.0995 62.486875 75.779188 62.486875 C 77.458875 62.486875 78.822156 59.822813 78.822156 56.53375 C 78.822156 54.889219 78.287 53.557188 77.63075 53.557188 C 76.9745 53.557188 76.439344 54.889219 76.439344 56.53375 C 76.439344 59.822813 77.802625 62.486875 79.482313 62.486875 C 81.165906 62.486875 82.525281 59.822813 82.525281 56.53375 C 82.525281 54.889219 81.994031 53.557188 81.337781 53.557188 C 80.677625 53.557188 80.146375 54.889219 80.146375 56.53375 C 80.146375 59.822813 81.50575 62.486875 83.189344 62.486875 C 84.869031 62.486875 86.232313 59.822813 86.232313 56.53375 C 86.232313 54.889219 85.697156 53.557188 85.040906 53.557188 C 84.384656 53.557188 83.8495 54.889219 83.8495 56.53375 C 83.8495 59.822813 85.212781 62.486875 86.892469 62.486875 C 88.572156 62.486875 89.935438 59.822813 89.935438 56.53375 C 89.935438 54.889219 89.404188 53.557188 88.744031 53.557188 C 88.087781 53.557188 87.552625 54.889219 87.552625 56.53375 C 87.552625 59.822813 88.915906 62.486875 90.595594 62.486875 C 92.279188 62.486875 93.638563 59.822813 93.638563 56.53375 C 93.638563 54.889219 93.107313 53.557188 92.451063 53.557188 C 91.790906 53.557188 91.259656 54.889219 91.259656 56.53375 C 91.259656 59.822813 92.622938 62.486875 94.302625 62.486875 C 95.982313 62.486875 97.345594 59.822813 97.345594 56.53375 " transform="matrix(1, 0, 0, -1, -0.287, 64.815)"/>
<g clip-path="url(#clip-1)">
<path fill="none" stroke-width="0.3985" stroke-linecap="butt" stroke-linejoin="miter" stroke="rgb(0%, 0%, 0%)" stroke-opacity="1" stroke-miterlimit="10" d="M 0.00184375 -0.00140625 L 12.4745 -0.00140625 M 44.220594 -0.00140625 L 69.165906 -0.00140625 M 100.915906 -0.00140625 L 113.388563 -0.00140625 " transform="matrix(1, 0, 0, -1, -0.287, 64.815)"/>
</g>
<path fill="none" stroke-width="0.797" stroke-linecap="butt" stroke-linejoin="bevel" stroke="rgb(0%, 0%, 0%)" stroke-opacity="1" stroke-miterlimit="10" d="M 12.072156 -0.157656 C 12.072156 3.1275 13.533094 5.791563 15.329969 5.791563 C 17.126844 5.791563 18.583875 3.1275 18.583875 -0.157656 C 18.583875 3.1275 20.040906 5.791563 21.837781 5.791563 C 23.634656 5.791563 25.091688 3.1275 25.091688 -0.157656 C 25.091688 3.1275 26.548719 5.791563 28.345594 5.791563 C 30.142469 5.791563 31.5995 3.1275 31.5995 -0.157656 C 31.5995 3.1275 33.056531 5.791563 34.857313 5.791563 C 36.654188 5.791563 38.111219 3.1275 38.111219 -0.157656 C 38.111219 3.1275 39.56825 5.791563 41.365125 5.791563 C 43.162 5.791563 44.619031 3.1275 44.619031 -0.157656 " transform="matrix(1, 0, 0, -1, -0.287, 64.815)"/>
<path fill="none" stroke-width="0.797" stroke-linecap="butt" stroke-linejoin="bevel" stroke="rgb(0%, 0%, 0%)" stroke-opacity="1" stroke-miterlimit="10" d="M 68.767469 -0.157656 C 68.767469 3.1275 69.982313 5.791563 71.478406 5.791563 C 72.978406 5.791563 74.19325 3.1275 74.19325 -0.157656 C 74.19325 3.1275 75.408094 5.791563 76.904188 5.791563 C 78.400281 5.791563 79.615125 3.1275 79.615125 -0.157656 C 79.615125 3.1275 80.829969 5.791563 82.329969 5.791563 C 83.826063 5.791563 85.040906 3.1275 85.040906 -0.157656 C 85.040906 3.1275 86.25575 5.791563 87.751844 5.791563 C 89.251844 5.791563 90.462781 3.1275 90.462781 -0.157656 C 90.462781 3.1275 91.677625 5.791563 93.177625 5.791563 C 94.673719 5.791563 95.888563 3.1275 95.888563 -0.157656 C 95.888563 3.1275 97.103406 5.791563 98.5995 5.791563 C 100.0995 5.791563 101.314344 3.1275 101.314344 -0.157656 " transform="matrix(1, 0, 0, -1, -0.287, 64.815)"/>
<path fill-rule="nonzero" fill="rgb(100%, 0%, 0%)" fill-opacity="1" d="M 29.46875 2.167969 C 29.46875 1.390625 28.839844 0.757812 28.058594 0.757812 C 27.28125 0.757812 26.652344 1.390625 26.652344 2.167969 C 26.652344 2.945312 27.28125 3.578125 28.058594 3.578125 C 28.839844 3.578125 29.46875 2.945312 29.46875 2.167969 Z M 29.46875 2.167969 "/>
<path fill-rule="nonzero" fill="rgb(100%, 0%, 0%)" fill-opacity="1" d="M 86.164062 11.097656 C 86.164062 10.320312 85.53125 9.6875 84.753906 9.6875 C 83.976562 9.6875 83.34375 10.320312 83.34375 11.097656 C 83.34375 11.875 83.976562 12.507812 84.753906 12.507812 C 85.53125 12.507812 86.164062 11.875 86.164062 11.097656 Z M 86.164062 11.097656 "/>
<path fill-rule="nonzero" fill="rgb(100%, 0%, 0%)" fill-opacity="1" d="M 29.46875 58.863281 C 29.46875 58.085938 28.839844 57.453125 28.058594 57.453125 C 27.28125 57.453125 26.652344 58.085938 26.652344 58.863281 C 26.652344 59.640625 27.28125 60.269531 28.058594 60.269531 C 28.839844 60.269531 29.46875 59.640625 29.46875 58.863281 Z M 29.46875 58.863281 "/>
<g clip-path="url(#clip-2)">
<path fill-rule="nonzero" fill="rgb(100%, 0%, 0%)" fill-opacity="1" d="M 86.164062 64.816406 C 86.164062 64.035156 85.53125 63.40625 84.753906 63.40625 C 83.976562 63.40625 83.34375 64.035156 83.34375 64.816406 C 83.34375 65.59375 83.976562 66.222656 84.753906 66.222656 C 85.53125 66.222656 86.164062 65.59375 86.164062 64.816406 Z M 86.164062 64.816406 "/>
</g>
</svg>
