<?xml version="1.0" encoding="UTF-8"?>
<svg xmlns="http://www.w3.org/2000/svg" xmlns:xlink="http://www.w3.org/1999/xlink" width="84.06" height="86.05" viewBox="0 0 84.06 86.05">
<defs>
<g>
<g id="glyph-0-0">
<path d="M 7.671875 -6.6875 C 7.671875 -6.765625 7.609375 -6.8125 7.53125 -6.8125 C 7.28125 -6.8125 6.984375 -6.78125 6.71875 -6.78125 C 6.390625 -6.78125 6.046875 -6.8125 5.734375 -6.8125 C 5.671875 -6.8125 5.546875 -6.8125 5.546875 -6.625 C 5.546875 -6.515625 5.625 -6.5 5.703125 -6.5 C 5.96875 -6.484375 6.15625 -6.375 6.15625 -6.171875 C 6.15625 -6.015625 6.015625 -5.796875 6.015625 -5.796875 L 2.953125 -0.921875 L 2.265625 -6.203125 C 2.265625 -6.375 2.5 -6.5 2.953125 -6.5 C 3.09375 -6.5 3.203125 -6.5 3.203125 -6.703125 C 3.203125 -6.78125 3.125 -6.8125 3.078125 -6.8125 C 2.671875 -6.8125 2.25 -6.78125 1.828125 -6.78125 C 1.65625 -6.78125 1.46875 -6.78125 1.28125 -6.78125 C 1.109375 -6.78125 0.921875 -6.8125 0.75 -6.8125 C 0.671875 -6.8125 0.5625 -6.8125 0.5625 -6.625 C 0.5625 -6.5 0.640625 -6.5 0.8125 -6.5 C 1.359375 -6.5 1.375 -6.40625 1.40625 -6.15625 L 2.1875 -0.015625 C 2.21875 0.1875 2.265625 0.21875 2.390625 0.21875 C 2.546875 0.21875 2.59375 0.171875 2.671875 0.046875 L 6.265625 -5.671875 C 6.75 -6.453125 7.171875 -6.484375 7.53125 -6.5 C 7.65625 -6.515625 7.671875 -6.6875 7.671875 -6.6875 Z M 7.671875 -6.6875 "/>
</g>
<g id="glyph-1-0">
<path d="M 5.8125 -3.671875 C 5.8125 -4.265625 5.234375 -4.765625 4.28125 -4.765625 L 1.84375 -4.765625 C 1.703125 -4.765625 1.625 -4.765625 1.625 -4.609375 C 1.625 -4.515625 1.703125 -4.515625 1.859375 -4.515625 C 1.96875 -4.515625 2 -4.515625 2.125 -4.5 C 2.265625 -4.484375 2.265625 -4.46875 2.265625 -4.390625 C 2.265625 -4.390625 2.265625 -4.34375 2.25 -4.25 L 1.328125 -0.578125 C 1.25 -0.296875 1.25 -0.25 0.703125 -0.25 C 0.578125 -0.25 0.5 -0.25 0.5 -0.09375 C 0.5 -0.09375 0.5 0 0.609375 0 C 0.8125 0 1.3125 -0.03125 1.515625 -0.03125 C 1.625 -0.03125 1.875 -0.03125 2 -0.015625 C 2.125 -0.015625 2.3125 0 2.4375 0 C 2.484375 0 2.578125 0 2.578125 -0.15625 C 2.578125 -0.25 2.5 -0.25 2.359375 -0.25 C 2.359375 -0.25 2.21875 -0.25 2.09375 -0.265625 C 1.9375 -0.28125 1.9375 -0.296875 1.9375 -0.375 C 1.9375 -0.375 1.9375 -0.421875 1.96875 -0.515625 L 2.375 -2.15625 L 3.640625 -2.15625 C 4.8125 -2.15625 5.8125 -2.90625 5.8125 -3.671875 Z M 5.09375 -3.8125 C 5.09375 -3.609375 5.015625 -3.046875 4.671875 -2.734375 C 4.421875 -2.515625 4.015625 -2.390625 3.515625 -2.390625 L 2.40625 -2.390625 L 2.875 -4.265625 C 2.9375 -4.484375 2.9375 -4.515625 3.234375 -4.515625 L 4.046875 -4.515625 C 4.703125 -4.515625 5.09375 -4.3125 5.09375 -3.8125 Z M 5.09375 -3.8125 "/>
</g>
</g>
<clipPath id="clip-0">
<path clip-rule="nonzero" d="M 15 0 L 32 0 L 32 85.574219 L 15 85.574219 Z M 15 0 "/>
</clipPath>
<clipPath id="clip-1">
<path clip-rule="nonzero" d="M 59 0 L 70 0 L 70 85.574219 L 59 85.574219 Z M 59 0 "/>
</clipPath>
<clipPath id="clip-2">
<path clip-rule="nonzero" d="M 78 42 L 83.589844 42 L 83.589844 48 L 78 48 Z M 78 42 "/>
</clipPath>
</defs>
<g clip-path="url(#clip-0)">
<path fill="none" stroke-width="0.3985" stroke-linecap="butt" stroke-linejoin="miter" stroke="rgb(100%, 0%, 0%)" stroke-opacity="1" stroke-miterlimit="10" d="M 0.0019375 -0.00040625 L 0.0019375 30.612875 M -15.716812 33.444906 L -15.716812 51.593344 M 0.0019375 54.425375 L 0.0019375 85.038656 " transform="matrix(1, 0, 0, -1, 31.709, 85.566)"/>
</g>
<path fill="none" stroke-width="0.797" stroke-linecap="butt" stroke-linejoin="miter" stroke="rgb(100%, 0%, 0%)" stroke-opacity="1" stroke-miterlimit="10" d="M -11.904312 42.519125 C -11.904312 35.944906 -6.576187 30.612875 0.0019375 30.612875 C 6.576156 30.612875 11.904281 35.944906 11.904281 42.519125 C 11.904281 49.09725 6.576156 54.425375 0.0019375 54.425375 C -6.576187 54.425375 -11.904312 49.09725 -11.904312 42.519125 Z M -11.904312 42.519125 " transform="matrix(1, 0, 0, -1, 31.709, 85.566)"/>
<path fill="none" stroke-width="0.797" stroke-linecap="butt" stroke-linejoin="miter" stroke="rgb(100%, 0%, 0%)" stroke-opacity="1" stroke-miterlimit="10" d="M 0.0019375 30.612875 L 0.0019375 54.425375 " transform="matrix(1, 0, 0, -1, 31.709, 85.566)"/>
<path fill-rule="nonzero" fill="rgb(100%, 0%, 0%)" fill-opacity="1" stroke-width="0.3985" stroke-linecap="butt" stroke-linejoin="miter" stroke="rgb(100%, 0%, 0%)" stroke-opacity="1" stroke-miterlimit="10" d="M -15.716812 47.3785 L -13.732437 47.3785 L -15.716812 51.593344 L -17.701187 47.3785 Z M -15.716812 47.3785 " transform="matrix(1, 0, 0, -1, 31.709, 85.566)"/>
<g fill="rgb(100%, 0%, 0%)" fill-opacity="1">
<use xlink:href="#glyph-0-0" x="-1.033" y="45.703"/>
</g>
<g fill="rgb(100%, 0%, 0%)" fill-opacity="1">
<use xlink:href="#glyph-1-0" x="4.778" y="47.197"/>
</g>
<g clip-path="url(#clip-1)">
<path fill="none" stroke-width="0.3985" stroke-linecap="butt" stroke-linejoin="miter" stroke="rgb(100%, 0%, 0%)" stroke-opacity="1" stroke-miterlimit="10" d="M 28.345688 -0.00040625 L 28.345688 26.644125 M 38.068344 70.476156 L 38.068344 14.562094 M 28.345688 58.394125 L 28.345688 85.038656 " transform="matrix(1, 0, 0, -1, 31.709, 85.566)"/>
</g>
<path fill="none" stroke-width="0.797" stroke-linecap="butt" stroke-linejoin="bevel" stroke="rgb(100%, 0%, 0%)" stroke-opacity="1" stroke-miterlimit="10" d="M 28.345688 26.245688 L 22.392563 29.292563 L 34.298813 34.581625 L 22.392563 39.874594 L 34.298813 45.167563 L 22.392563 50.456625 L 34.298813 55.749594 L 28.345688 58.792563 " transform="matrix(1, 0, 0, -1, 31.709, 85.566)"/>
<path fill-rule="nonzero" fill="rgb(100%, 0%, 0%)" fill-opacity="1" stroke-width="0.3985" stroke-linecap="butt" stroke-linejoin="miter" stroke="rgb(100%, 0%, 0%)" stroke-opacity="1" stroke-miterlimit="10" d="M 38.068344 18.780844 L 36.083969 18.780844 L 38.068344 14.562094 L 40.052719 18.780844 Z M 38.068344 18.780844 " transform="matrix(1, 0, 0, -1, 31.709, 85.566)"/>
<g fill="rgb(100%, 0%, 0%)" fill-opacity="1">
<use xlink:href="#glyph-0-0" x="71.97" y="45.703"/>
</g>
<g clip-path="url(#clip-2)">
<g fill="rgb(100%, 0%, 0%)" fill-opacity="1">
<use xlink:href="#glyph-1-0" x="77.782" y="47.197"/>
</g>
</g>
</svg>
