<?xml version="1.0" encoding="UTF-8"?>
<svg xmlns="http://www.w3.org/2000/svg" xmlns:xlink="http://www.w3.org/1999/xlink" width="340.18pt" height="110.638pt" viewBox="0 0 340.18 110.638">
<defs>
<clipPath id="clip-0">
<path clip-rule="nonzero" d="M 0 37 L 339.769531 37 L 339.769531 41 L 0 41 Z M 0 37 "/>
</clipPath>
<clipPath id="clip-1">
<path clip-rule="nonzero" d="M 0 54 L 339.769531 54 L 339.769531 58 L 0 58 Z M 0 54 "/>
</clipPath>
<clipPath id="clip-2">
<path clip-rule="nonzero" d="M 0 71 L 339.769531 71 L 339.769531 75 L 0 75 Z M 0 71 "/>
</clipPath>
<clipPath id="clip-3">
<path clip-rule="nonzero" d="M 64 32 L 275 32 L 275 110.457031 L 64 110.457031 Z M 64 32 "/>
</clipPath>
</defs>
<g clip-path="url(#clip-0)">
<path fill="none" stroke-width="0.3985" stroke-linecap="butt" stroke-linejoin="miter" stroke="rgb(100%, 0%, 0%)" stroke-opacity="1" stroke-miterlimit="10" d="M -0.000223958 5.668948 L 12.472432 5.668948 M 44.22113 5.668948 L 56.693786 5.668948 " transform="matrix(6, 0, 0, -6, -0.401, 72.959)"/>
</g>
<path fill="none" stroke-width="1.59401" stroke-linecap="butt" stroke-linejoin="bevel" stroke="rgb(100%, 0%, 0%)" stroke-opacity="1" stroke-miterlimit="10" d="M 11.675557 5.668948 L 15.118266 11.622073 L 20.409932 -0.283526 L 25.700948 11.622073 L 30.992615 -0.283526 L 36.28363 11.622073 L 41.575297 -0.283526 L 45.018005 5.668948 " transform="matrix(6, 0, 0, -6, -0.401, 72.959)"/>
<g clip-path="url(#clip-1)">
<path fill="none" stroke-width="0.3985" stroke-linecap="butt" stroke-linejoin="miter" stroke="rgb(0%, 0%, 100%)" stroke-opacity="1" stroke-miterlimit="10" d="M -0.000223958 2.834964 L 12.472432 2.834964 M 44.22113 2.834964 L 56.693786 2.834964 " transform="matrix(6, 0, 0, -6, -0.401, 72.959)"/>
</g>
<path fill="none" stroke-width="1.59401" stroke-linecap="butt" stroke-linejoin="bevel" stroke="rgb(0%, 0%, 100%)" stroke-opacity="1" stroke-miterlimit="10" d="M 11.675557 2.834964 L 13.262797 2.834964 L 16.441182 8.787438 L 21.203552 -3.118161 L 25.965922 8.787438 L 30.727641 -3.118161 L 35.49001 8.787438 L 40.25238 -3.118161 L 43.430115 2.834964 L 45.018005 2.834964 " transform="matrix(6, 0, 0, -6, -0.401, 72.959)"/>
<g clip-path="url(#clip-2)">
<path fill="none" stroke-width="0.3985" stroke-linecap="butt" stroke-linejoin="miter" stroke="rgb(0%, 100%, 0%)" stroke-opacity="1" stroke-miterlimit="10" d="M -0.000223958 -0.000322917 L 12.472432 -0.000322917 M 44.22113 -0.000322917 L 56.693786 -0.000322917 " transform="matrix(6, 0, 0, -6, -0.401, 72.959)"/>
</g>
<g clip-path="url(#clip-3)">
<path fill="none" stroke-width="1.59401" stroke-linecap="butt" stroke-linejoin="bevel" stroke="rgb(0%, 100%, 0%)" stroke-opacity="1" stroke-miterlimit="10" d="M 11.675557 -0.000322917 L 18.025167 -0.000322917 L 20.409932 5.952802 L 23.584411 -5.952797 L 26.759542 5.952802 L 29.934021 -5.952797 L 33.109151 5.952802 L 36.284281 -5.952797 L 38.668396 -0.000322917 L 45.018005 -0.000322917 " transform="matrix(6, 0, 0, -6, -0.401, 72.959)"/>
</g>
</svg>
