<?xml version="1.0" encoding="UTF-8"?>
<svg xmlns="http://www.w3.org/2000/svg" xmlns:xlink="http://www.w3.org/1999/xlink" width="141.384pt" height="45.064pt" viewBox="0 0 141.384 45.064">
<defs>
<clipPath id="clip-0">
<path clip-rule="nonzero" d="M 13 0 L 28 0 L 28 44.597656 L 13 44.597656 Z M 13 0 "/>
</clipPath>
<clipPath id="clip-1">
<path clip-rule="nonzero" d="M 70 0 L 85 0 L 85 44.597656 L 70 44.597656 Z M 70 0 "/>
</clipPath>
<clipPath id="clip-2">
<path clip-rule="nonzero" d="M 126 0 L 141.074219 0 L 141.074219 44.597656 L 126 44.597656 Z M 126 0 "/>
</clipPath>
</defs>
<g clip-path="url(#clip-0)">
<path fill="none" stroke-width="0.3985" stroke-linecap="butt" stroke-linejoin="miter" stroke="rgb(0%, 0%, 0%)" stroke-opacity="1" stroke-miterlimit="10" d="M -0.00053125 22.02775 L -0.00053125 7.641031 L -13.891156 7.641031 M -13.891156 -7.640219 L -0.00053125 -7.640219 L -0.00053125 -22.026937 " transform="matrix(1, 0, 0, -1, 27.481, 22.559)"/>
</g>
<path fill="none" stroke-width="0.797" stroke-linecap="butt" stroke-linejoin="miter" stroke="rgb(0%, 0%, 0%)" stroke-opacity="1" stroke-miterlimit="10" d="M -13.891156 10.914469 L -13.891156 -10.913656 " transform="matrix(1, 0, 0, -1, 27.481, 22.559)"/>
<path fill="none" stroke-width="0.3985" stroke-linecap="butt" stroke-linejoin="miter" stroke="rgb(0%, 0%, 0%)" stroke-opacity="1" stroke-miterlimit="10" d="M -27.777875 -7.640219 L -13.891156 -7.640219 M -27.777875 -7.640219 L -27.777875 -7.640219 " transform="matrix(1, 0, 0, -1, 27.481, 22.559)"/>
<path fill-rule="nonzero" fill="rgb(0%, 0%, 0%)" fill-opacity="1" d="M 8.480469 30.199219 L 8.480469 27.910156 L 13.589844 30.199219 L 8.480469 32.484375 Z M 8.480469 30.199219 "/>
<g clip-path="url(#clip-1)">
<path fill="none" stroke-width="0.3985" stroke-linecap="butt" stroke-linejoin="miter" stroke="rgb(0%, 0%, 0%)" stroke-opacity="1" stroke-miterlimit="10" d="M 56.694781 22.02775 L 56.694781 7.641031 L 42.804156 7.641031 M 42.804156 -7.640219 L 56.694781 -7.640219 L 56.694781 -22.026937 " transform="matrix(1, 0, 0, -1, 27.481, 22.559)"/>
</g>
<path fill="none" stroke-width="0.797" stroke-linecap="butt" stroke-linejoin="miter" stroke="rgb(0%, 0%, 0%)" stroke-opacity="1" stroke-miterlimit="10" d="M 42.804156 10.914469 L 42.804156 -10.913656 " transform="matrix(1, 0, 0, -1, 27.481, 22.559)"/>
<path fill="none" stroke-width="0.3985" stroke-linecap="butt" stroke-linejoin="miter" stroke="rgb(0%, 0%, 0%)" stroke-opacity="1" stroke-miterlimit="10" d="M 28.913531 -3.819906 L 42.804156 -3.819906 M 28.913531 -3.819906 L 28.913531 -3.819906 " transform="matrix(1, 0, 0, -1, 27.481, 22.559)"/>
<path fill-rule="nonzero" fill="rgb(0%, 0%, 0%)" fill-opacity="1" d="M 65.175781 26.378906 L 65.175781 24.089844 L 70.285156 26.378906 L 65.175781 28.664062 Z M 65.175781 26.378906 "/>
<g clip-path="url(#clip-2)">
<path fill="none" stroke-width="0.3985" stroke-linecap="butt" stroke-linejoin="miter" stroke="rgb(0%, 0%, 0%)" stroke-opacity="1" stroke-miterlimit="10" d="M 113.386188 22.02775 L 113.386188 7.641031 L 99.495563 7.641031 M 99.495563 -7.640219 L 113.386188 -7.640219 L 113.386188 -22.026937 " transform="matrix(1, 0, 0, -1, 27.481, 22.559)"/>
</g>
<path fill="none" stroke-width="0.797" stroke-linecap="butt" stroke-linejoin="miter" stroke="rgb(0%, 0%, 0%)" stroke-opacity="1" stroke-miterlimit="10" d="M 99.495563 10.914469 L 99.495563 -10.913656 " transform="matrix(1, 0, 0, -1, 27.481, 22.559)"/>
<path fill="none" stroke-width="0.3985" stroke-linecap="butt" stroke-linejoin="miter" stroke="rgb(0%, 0%, 0%)" stroke-opacity="1" stroke-miterlimit="10" d="M 85.608844 0.00040625 L 99.495563 0.00040625 M 85.608844 0.00040625 L 85.608844 0.00040625 " transform="matrix(1, 0, 0, -1, 27.481, 22.559)"/>
<path fill-rule="nonzero" fill="rgb(0%, 0%, 0%)" fill-opacity="1" d="M 121.867188 22.558594 L 121.867188 20.273438 L 126.976562 22.558594 L 121.867188 24.847656 Z M 121.867188 22.558594 "/>
</svg>
