<?xml version="1.0" encoding="UTF-8"?>
<svg xmlns="http://www.w3.org/2000/svg" xmlns:xlink="http://www.w3.org/1999/xlink" width="125.064" height="63.73" viewBox="0 0 125.064 63.73">
<defs>
<g>
<g id="glyph-0-0">
<path d="M 3.3125 -1.234375 L 3.3125 -1.796875 L 3.0625 -1.796875 L 3.0625 -1.25 C 3.0625 -0.515625 2.765625 -0.140625 2.390625 -0.140625 C 1.71875 -0.140625 1.71875 -1.046875 1.71875 -1.21875 L 1.71875 -3.984375 L 3.15625 -3.984375 L 3.15625 -4.296875 L 1.71875 -4.296875 L 1.71875 -6.125 L 1.46875 -6.125 C 1.46875 -5.3125 1.171875 -4.25 0.1875 -4.203125 L 0.1875 -3.984375 L 1.03125 -3.984375 L 1.03125 -1.234375 C 1.03125 -0.015625 1.96875 0.109375 2.328125 0.109375 C 3.03125 0.109375 3.3125 -0.59375 3.3125 -1.234375 Z M 3.3125 -1.234375 "/>
</g>
<g id="glyph-0-1">
<path d="M 4.140625 -1.1875 C 4.140625 -1.28125 4.0625 -1.3125 4 -1.3125 C 3.921875 -1.3125 3.890625 -1.25 3.875 -1.171875 C 3.53125 -0.140625 2.625 -0.140625 2.53125 -0.140625 C 2.03125 -0.140625 1.640625 -0.4375 1.40625 -0.8125 C 1.109375 -1.28125 1.109375 -1.9375 1.109375 -2.296875 L 3.890625 -2.296875 C 4.109375 -2.296875 4.140625 -2.296875 4.140625 -2.515625 C 4.140625 -3.5 3.59375 -4.46875 2.359375 -4.46875 C 1.203125 -4.46875 0.28125 -3.4375 0.28125 -2.1875 C 0.28125 -0.859375 1.328125 0.109375 2.46875 0.109375 C 3.6875 0.109375 4.140625 -1 4.140625 -1.1875 Z M 3.484375 -2.515625 L 1.109375 -2.515625 C 1.171875 -4 2.015625 -4.25 2.359375 -4.25 C 3.375 -4.25 3.484375 -2.90625 3.484375 -2.515625 Z M 3.484375 -2.515625 "/>
</g>
<g id="glyph-0-2">
<path d="M 5.140625 0 L 5.140625 -0.3125 C 4.609375 -0.3125 4.421875 -0.328125 4.203125 -0.625 L 2.859375 -2.34375 C 3.15625 -2.71875 3.53125 -3.203125 3.78125 -3.46875 C 4.09375 -3.828125 4.5 -3.984375 4.96875 -3.984375 L 4.96875 -4.296875 C 4.703125 -4.28125 4.40625 -4.265625 4.140625 -4.265625 C 3.84375 -4.265625 3.3125 -4.28125 3.1875 -4.296875 L 3.1875 -3.984375 C 3.40625 -3.96875 3.484375 -3.84375 3.484375 -3.671875 C 3.484375 -3.515625 3.375 -3.390625 3.328125 -3.328125 L 2.71875 -2.546875 L 1.9375 -3.5625 C 1.84375 -3.65625 1.84375 -3.671875 1.84375 -3.734375 C 1.84375 -3.890625 2 -3.984375 2.1875 -3.984375 L 2.1875 -4.296875 L 1.109375 -4.265625 C 0.90625 -4.265625 0.4375 -4.28125 0.171875 -4.296875 L 0.171875 -3.984375 C 0.875 -3.984375 0.875 -3.984375 1.34375 -3.375 L 2.328125 -2.09375 C 1.859375 -1.5 1.859375 -1.46875 1.390625 -0.90625 C 0.921875 -0.328125 0.328125 -0.3125 0.125 -0.3125 L 0.125 0 C 0.375 -0.015625 0.6875 -0.03125 0.953125 -0.03125 L 1.890625 0 L 1.890625 -0.3125 C 1.671875 -0.34375 1.609375 -0.46875 1.609375 -0.625 C 1.609375 -0.84375 1.890625 -1.171875 2.5 -1.890625 L 3.265625 -0.890625 C 3.34375 -0.78125 3.46875 -0.625 3.46875 -0.5625 C 3.46875 -0.46875 3.375 -0.3125 3.109375 -0.3125 L 3.109375 0 L 4.1875 -0.03125 C 4.453125 -0.03125 4.84375 -0.015625 5.140625 0 Z M 5.140625 0 "/>
</g>
<g id="glyph-1-0">
<path d="M 4.90625 0 L 4.90625 -0.28125 C 4.453125 -0.28125 4.21875 -0.28125 4.21875 -0.5625 L 4.21875 -2.28125 C 4.21875 -3.015625 4.21875 -3.28125 3.96875 -3.59375 C 3.765625 -3.84375 3.421875 -3.96875 2.96875 -3.96875 C 2.140625 -3.96875 1.75 -3.34375 1.625 -3.09375 L 1.609375 -3.09375 L 1.609375 -3.96875 L 0.3125 -3.859375 L 0.3125 -3.59375 C 0.921875 -3.59375 1 -3.53125 1 -3.078125 L 1 -0.6875 C 1 -0.28125 0.90625 -0.28125 0.3125 -0.28125 L 0.3125 0 C 0.734375 -0.015625 0.90625 -0.03125 1.34375 -0.03125 C 1.765625 -0.03125 1.890625 -0.015625 2.359375 0 L 2.359375 -0.28125 C 1.765625 -0.28125 1.671875 -0.28125 1.671875 -0.6875 L 1.671875 -2.328125 C 1.671875 -3.28125 2.34375 -3.734375 2.90625 -3.734375 C 3.4375 -3.734375 3.546875 -3.296875 3.546875 -2.765625 L 3.546875 -0.6875 C 3.546875 -0.28125 3.453125 -0.28125 2.859375 -0.28125 L 2.859375 0 C 3.28125 -0.015625 3.453125 -0.03125 3.890625 -0.03125 C 4.3125 -0.03125 4.4375 -0.015625 4.90625 0 Z M 4.90625 0 "/>
</g>
<g id="glyph-1-1">
<path d="M 4.34375 -1.90625 C 4.34375 -3.078125 3.40625 -4.015625 2.3125 -4.015625 C 1.171875 -4.015625 0.265625 -3.0625 0.265625 -1.90625 C 0.265625 -0.796875 1.1875 0.09375 2.296875 0.09375 C 3.4375 0.09375 4.34375 -0.8125 4.34375 -1.90625 Z M 3.5625 -1.984375 C 3.5625 -1.65625 3.5625 -1.140625 3.34375 -0.75 C 3.09375 -0.328125 2.6875 -0.15625 2.3125 -0.15625 C 1.859375 -0.15625 1.484375 -0.375 1.28125 -0.71875 C 1.046875 -1.109375 1.03125 -1.578125 1.03125 -1.984375 C 1.03125 -2.328125 1.03125 -2.828125 1.25 -3.203125 C 1.53125 -3.65625 1.96875 -3.796875 2.296875 -3.796875 C 2.8125 -3.796875 3.171875 -3.5 3.359375 -3.203125 C 3.5625 -2.828125 3.5625 -2.375 3.5625 -1.984375 Z M 3.5625 -1.984375 "/>
</g>
<g id="glyph-1-2">
<path d="M 3.34375 -3.40625 C 3.34375 -3.6875 3.078125 -3.96875 2.671875 -3.96875 C 2.140625 -3.96875 1.765625 -3.59375 1.546875 -3.03125 L 1.546875 -3.96875 L 0.265625 -3.859375 L 0.265625 -3.59375 C 0.875 -3.59375 0.953125 -3.53125 0.953125 -3.078125 L 0.953125 -0.6875 C 0.953125 -0.28125 0.859375 -0.28125 0.265625 -0.28125 L 0.265625 0 C 0.75 -0.015625 0.859375 -0.03125 1.3125 -0.03125 L 2.453125 0 L 2.453125 -0.28125 L 2.28125 -0.28125 C 1.625 -0.28125 1.59375 -0.375 1.59375 -0.703125 L 1.59375 -2.046875 C 1.59375 -2.421875 1.6875 -3.734375 2.71875 -3.734375 C 2.703125 -3.71875 2.5625 -3.609375 2.5625 -3.40625 C 2.5625 -3.15625 2.75 -3 2.953125 -3 C 3.140625 -3 3.34375 -3.140625 3.34375 -3.40625 Z M 3.34375 -3.40625 "/>
</g>
<g id="glyph-1-3">
<path d="M 3.0625 -1.109375 L 3.0625 -1.625 L 2.8125 -1.625 L 2.8125 -1.140625 C 2.8125 -0.46875 2.53125 -0.15625 2.21875 -0.15625 C 1.609375 -0.15625 1.609375 -0.9375 1.609375 -1.109375 L 1.609375 -3.59375 L 2.921875 -3.59375 L 2.921875 -3.859375 L 1.609375 -3.859375 L 1.609375 -5.515625 L 1.359375 -5.515625 C 1.359375 -4.765625 1.046875 -3.84375 0.171875 -3.8125 L 0.171875 -3.59375 L 0.953125 -3.59375 L 0.953125 -1.109375 C 0.953125 -0.109375 1.671875 0.09375 2.15625 0.09375 C 2.75 0.09375 3.0625 -0.46875 3.0625 -1.109375 Z M 3.0625 -1.109375 "/>
</g>
<g id="glyph-1-4">
<path d="M 4.90625 0 L 4.90625 -0.28125 C 4.453125 -0.28125 4.21875 -0.28125 4.21875 -0.5625 L 4.21875 -2.28125 C 4.21875 -3.015625 4.21875 -3.28125 3.96875 -3.59375 C 3.765625 -3.84375 3.421875 -3.96875 2.96875 -3.96875 C 2.375 -3.96875 1.921875 -3.65625 1.65625 -3.140625 L 1.640625 -3.140625 L 1.640625 -6.21875 L 0.3125 -6.125 L 0.3125 -5.84375 C 0.921875 -5.84375 1 -5.78125 1 -5.34375 L 1 -0.6875 C 1 -0.28125 0.90625 -0.28125 0.3125 -0.28125 L 0.3125 0 C 0.734375 -0.015625 0.90625 -0.03125 1.34375 -0.03125 C 1.765625 -0.03125 1.890625 -0.015625 2.359375 0 L 2.359375 -0.28125 C 1.765625 -0.28125 1.671875 -0.28125 1.671875 -0.6875 L 1.671875 -2.328125 C 1.671875 -3.28125 2.34375 -3.734375 2.90625 -3.734375 C 3.4375 -3.734375 3.546875 -3.296875 3.546875 -2.765625 L 3.546875 -0.6875 C 3.546875 -0.28125 3.453125 -0.28125 2.859375 -0.28125 L 2.859375 0 C 3.28125 -0.015625 3.453125 -0.03125 3.890625 -0.03125 C 4.3125 -0.03125 4.4375 -0.015625 4.90625 0 Z M 4.90625 0 "/>
</g>
<g id="glyph-1-5">
<path d="M 3.828125 -1.0625 C 3.828125 -1.125 3.78125 -1.1875 3.703125 -1.1875 C 3.609375 -1.1875 3.59375 -1.125 3.578125 -1.078125 C 3.28125 -0.171875 2.46875 -0.15625 2.34375 -0.15625 C 1.90625 -0.15625 1.546875 -0.390625 1.34375 -0.703125 C 1.046875 -1.140625 1.03125 -1.671875 1.03125 -2.046875 L 3.59375 -2.046875 C 3.78125 -2.046875 3.828125 -2.046875 3.828125 -2.25 C 3.828125 -3.171875 3.328125 -4.015625 2.171875 -4.015625 C 1.109375 -4.015625 0.265625 -3.078125 0.265625 -1.96875 C 0.265625 -0.796875 1.203125 0.09375 2.296875 0.09375 C 3.390625 0.09375 3.828125 -0.859375 3.828125 -1.0625 Z M 3.21875 -2.265625 L 1.046875 -2.265625 C 1.125 -3.65625 1.921875 -3.796875 2.171875 -3.796875 C 2.671875 -3.796875 3.203125 -3.421875 3.21875 -2.265625 Z M 3.21875 -2.265625 "/>
</g>
<g id="glyph-1-6">
<path d="M 4.453125 -0.796875 L 4.453125 -1.296875 L 4.203125 -1.296875 L 4.203125 -0.8125 C 4.203125 -0.703125 4.203125 -0.265625 3.890625 -0.265625 C 3.5625 -0.265625 3.5625 -0.6875 3.5625 -0.828125 L 3.5625 -2.40625 C 3.5625 -2.921875 3.5625 -3.21875 3.15625 -3.59375 C 2.828125 -3.890625 2.390625 -4.015625 1.953125 -4.015625 C 1.1875 -4.015625 0.5625 -3.640625 0.5625 -3.0625 C 0.5625 -2.796875 0.75 -2.640625 0.984375 -2.640625 C 1.234375 -2.640625 1.40625 -2.8125 1.40625 -3.046875 C 1.40625 -3.4375 1 -3.484375 1 -3.484375 C 1.234375 -3.71875 1.671875 -3.796875 1.921875 -3.796875 C 2.390625 -3.796875 2.890625 -3.453125 2.890625 -2.65625 L 2.890625 -2.375 C 2.40625 -2.34375 1.734375 -2.3125 1.140625 -2.015625 C 0.5 -1.703125 0.296875 -1.234375 0.296875 -0.875 C 0.296875 -0.140625 1.171875 0.09375 1.765625 0.09375 C 2.515625 0.09375 2.859375 -0.390625 2.984375 -0.640625 C 3.015625 -0.265625 3.28125 0.046875 3.671875 0.046875 C 3.890625 0.046875 4.453125 -0.078125 4.453125 -0.796875 Z M 2.890625 -1.265625 C 2.890625 -0.390625 2.21875 -0.125 1.828125 -0.125 C 1.40625 -0.125 1.015625 -0.4375 1.015625 -0.875 C 1.015625 -1.46875 1.53125 -2.09375 2.890625 -2.15625 Z M 2.890625 -1.265625 "/>
</g>
<g id="glyph-1-7">
<path d="M 3.3125 -1.140625 C 3.3125 -1.546875 3.140625 -1.796875 2.9375 -2 C 2.640625 -2.296875 2.3125 -2.359375 1.65625 -2.484375 C 1.421875 -2.53125 0.765625 -2.640625 0.765625 -3.15625 C 0.765625 -3.4375 0.96875 -3.828125 1.78125 -3.828125 C 2.75 -3.828125 2.8125 -3.078125 2.828125 -2.859375 C 2.84375 -2.75 2.84375 -2.6875 2.953125 -2.6875 C 3.078125 -2.6875 3.078125 -2.75 3.078125 -2.921875 L 3.078125 -3.78125 C 3.078125 -3.9375 3.078125 -4.015625 2.984375 -4.015625 C 2.9375 -4.015625 2.921875 -4.015625 2.796875 -3.90625 C 2.78125 -3.890625 2.703125 -3.8125 2.640625 -3.765625 C 2.375 -3.96875 2.09375 -4.015625 1.78125 -4.015625 C 0.59375 -4.015625 0.3125 -3.359375 0.3125 -2.90625 C 0.3125 -2.625 0.4375 -2.390625 0.640625 -2.1875 C 0.9375 -1.90625 1.28125 -1.84375 1.734375 -1.765625 C 2.203125 -1.671875 2.34375 -1.65625 2.546875 -1.5 C 2.640625 -1.421875 2.859375 -1.25 2.859375 -0.921875 C 2.859375 -0.125 1.953125 -0.125 1.828125 -0.125 C 0.921875 -0.125 0.6875 -0.890625 0.578125 -1.375 C 0.546875 -1.46875 0.53125 -1.515625 0.4375 -1.515625 C 0.3125 -1.515625 0.3125 -1.4375 0.3125 -1.28125 L 0.3125 -0.140625 C 0.3125 0.015625 0.3125 0.09375 0.40625 0.09375 C 0.46875 0.09375 0.46875 0.09375 0.640625 -0.078125 C 0.671875 -0.140625 0.765625 -0.25 0.8125 -0.296875 C 1.1875 0.078125 1.609375 0.09375 1.828125 0.09375 C 2.9375 0.09375 3.3125 -0.546875 3.3125 -1.140625 Z M 3.3125 -1.140625 "/>
</g>
<g id="glyph-1-8">
<path d="M 4.90625 0 L 4.90625 -0.28125 C 4.296875 -0.28125 4.21875 -0.34375 4.21875 -0.78125 L 4.21875 -3.96875 L 2.859375 -3.859375 L 2.859375 -3.59375 C 3.46875 -3.59375 3.546875 -3.53125 3.546875 -3.078125 L 3.546875 -1.5 C 3.546875 -0.703125 3.109375 -0.125 2.453125 -0.125 C 1.71875 -0.125 1.671875 -0.515625 1.671875 -1 L 1.671875 -3.96875 L 0.3125 -3.859375 L 0.3125 -3.59375 C 1 -3.59375 1 -3.5625 1 -2.765625 L 1 -1.421875 C 1 -0.828125 1 -0.453125 1.421875 -0.140625 C 1.671875 0.03125 2.046875 0.09375 2.40625 0.09375 C 2.875 0.09375 3.3125 -0.109375 3.5625 -0.640625 L 3.578125 -0.640625 L 3.578125 0.09375 Z M 4.90625 0 "/>
</g>
<g id="glyph-1-9">
<path d="M 6.46875 -3.59375 L 6.46875 -3.859375 C 6.109375 -3.84375 6.09375 -3.84375 5.796875 -3.84375 C 5.453125 -3.84375 5.328125 -3.84375 4.96875 -3.859375 L 4.96875 -3.59375 C 5.359375 -3.578125 5.484375 -3.34375 5.484375 -3.15625 C 5.484375 -3.0625 5.46875 -3.015625 5.4375 -2.953125 L 4.609375 -0.703125 L 3.703125 -3.171875 C 3.65625 -3.28125 3.65625 -3.3125 3.65625 -3.34375 C 3.65625 -3.5625 3.9375 -3.59375 4.171875 -3.59375 L 4.171875 -3.859375 C 3.765625 -3.84375 3.390625 -3.84375 3.25 -3.84375 C 2.96875 -3.84375 2.703125 -3.84375 2.421875 -3.859375 L 2.421875 -3.59375 C 2.703125 -3.59375 2.890625 -3.578125 2.984375 -3.453125 C 3.0625 -3.359375 3.1875 -3 3.1875 -2.96875 L 3.140625 -2.84375 L 2.40625 -0.828125 L 1.546875 -3.15625 C 1.5 -3.296875 1.5 -3.3125 1.5 -3.34375 C 1.5 -3.59375 1.84375 -3.59375 2.015625 -3.59375 L 2.015625 -3.859375 L 1.046875 -3.84375 C 0.75 -3.84375 0.484375 -3.84375 0.171875 -3.859375 L 0.171875 -3.59375 C 0.609375 -3.59375 0.71875 -3.5625 0.828125 -3.265625 L 1.984375 -0.09375 C 2.03125 0.015625 2.0625 0.09375 2.203125 0.09375 C 2.328125 0.09375 2.375 0 2.40625 -0.09375 L 3.3125 -2.59375 L 4.25 -0.09375 C 4.28125 0 4.3125 0.09375 4.453125 0.09375 C 4.578125 0.09375 4.609375 0.015625 4.640625 -0.078125 L 5.71875 -3 C 5.90625 -3.546875 6.28125 -3.578125 6.46875 -3.59375 Z M 6.46875 -3.59375 "/>
</g>
<g id="glyph-1-10">
<path d="M 2.34375 0 L 2.34375 -0.28125 C 1.75 -0.28125 1.65625 -0.28125 1.65625 -0.6875 L 1.65625 -6.21875 L 0.328125 -6.125 L 0.328125 -5.84375 C 0.9375 -5.84375 1.015625 -5.78125 1.015625 -5.34375 L 1.015625 -0.6875 C 1.015625 -0.28125 0.921875 -0.28125 0.328125 -0.28125 L 0.328125 0 C 0.75 -0.015625 0.921875 -0.03125 1.328125 -0.03125 C 1.75 -0.03125 1.90625 -0.015625 2.34375 0 Z M 2.34375 0 "/>
</g>
<g id="glyph-1-11">
<path d="M 3.28125 -5.6875 C 3.28125 -6.03125 2.9375 -6.328125 2.453125 -6.328125 C 1.75 -6.328125 1.015625 -5.796875 1.015625 -4.890625 L 1.015625 -3.859375 L 0.3125 -3.859375 L 0.3125 -3.59375 L 1.015625 -3.59375 L 1.015625 -0.6875 C 1.015625 -0.28125 0.921875 -0.28125 0.328125 -0.28125 L 0.328125 0 C 0.796875 -0.015625 0.921875 -0.03125 1.375 -0.03125 L 2.515625 0 L 2.515625 -0.28125 L 2.328125 -0.28125 C 1.671875 -0.28125 1.65625 -0.375 1.65625 -0.703125 L 1.65625 -3.59375 L 2.6875 -3.59375 L 2.6875 -3.859375 L 1.625 -3.859375 L 1.625 -4.875 C 1.625 -5.6875 2.0625 -6.09375 2.453125 -6.09375 C 2.53125 -6.09375 2.625 -6.078125 2.71875 -6.046875 C 2.625 -6.015625 2.484375 -5.90625 2.484375 -5.671875 C 2.484375 -5.4375 2.65625 -5.28125 2.875 -5.28125 C 3.125 -5.28125 3.28125 -5.453125 3.28125 -5.6875 Z M 3.28125 -5.6875 "/>
</g>
<g id="glyph-1-12">
<path d="M 2.265625 0 L 2.265625 -0.28125 C 1.6875 -0.28125 1.65625 -0.328125 1.65625 -0.671875 L 1.65625 -3.96875 L 0.359375 -3.859375 L 0.359375 -3.59375 C 0.9375 -3.59375 1.015625 -3.53125 1.015625 -3.09375 L 1.015625 -0.6875 C 1.015625 -0.28125 0.921875 -0.28125 0.328125 -0.28125 L 0.328125 0 C 0.71875 -0.015625 0.921875 -0.03125 1.3125 -0.03125 C 1.453125 -0.03125 1.828125 -0.03125 2.265625 0 Z M 1.765625 -5.40625 C 1.765625 -5.671875 1.546875 -5.890625 1.28125 -5.890625 C 1.015625 -5.890625 0.796875 -5.671875 0.796875 -5.40625 C 0.796875 -5.140625 1.015625 -4.921875 1.28125 -4.921875 C 1.546875 -4.921875 1.765625 -5.140625 1.765625 -5.40625 Z M 1.765625 -5.40625 "/>
</g>
<g id="glyph-1-13">
<path d="M 4.46875 -3.609375 C 4.46875 -3.78125 4.34375 -4.0625 3.984375 -4.0625 C 3.734375 -4.0625 3.328125 -3.96875 3.015625 -3.640625 C 2.765625 -3.84375 2.421875 -3.96875 2.046875 -3.96875 C 1.1875 -3.96875 0.546875 -3.359375 0.546875 -2.640625 C 0.546875 -2.1875 0.8125 -1.859375 0.953125 -1.734375 C 0.9375 -1.71875 0.6875 -1.40625 0.6875 -0.984375 C 0.6875 -0.6875 0.828125 -0.359375 1.078125 -0.203125 C 0.625 -0.046875 0.265625 0.28125 0.265625 0.703125 C 0.265625 1.34375 1.140625 1.84375 2.296875 1.84375 C 3.40625 1.84375 4.34375 1.375 4.34375 0.6875 C 4.34375 0.3125 4.171875 -0.078125 3.84375 -0.296875 C 3.34375 -0.609375 2.8125 -0.609375 1.96875 -0.609375 C 1.78125 -0.609375 1.5 -0.609375 1.421875 -0.625 C 1.171875 -0.6875 1 -0.921875 1 -1.203125 C 1 -1.359375 1.046875 -1.484375 1.125 -1.609375 C 1.34375 -1.46875 1.625 -1.328125 2.03125 -1.328125 C 2.890625 -1.328125 3.53125 -1.9375 3.53125 -2.640625 C 3.53125 -3.078125 3.28125 -3.390625 3.171875 -3.515625 C 3.53125 -3.84375 3.953125 -3.84375 4.046875 -3.84375 C 4.015625 -3.8125 3.9375 -3.765625 3.9375 -3.609375 C 3.9375 -3.5 4 -3.34375 4.203125 -3.34375 C 4.328125 -3.34375 4.46875 -3.421875 4.46875 -3.609375 Z M 2.84375 -2.640625 C 2.84375 -2.4375 2.84375 -1.5625 2.03125 -1.5625 C 1.234375 -1.5625 1.234375 -2.453125 1.234375 -2.640625 C 1.234375 -2.890625 1.25 -3.1875 1.40625 -3.40625 C 1.546875 -3.59375 1.78125 -3.71875 2.03125 -3.71875 C 2.84375 -3.71875 2.84375 -2.859375 2.84375 -2.640625 Z M 3.84375 0.6875 C 3.84375 1.203125 3.140625 1.609375 2.3125 1.609375 C 1.421875 1.609375 0.765625 1.1875 0.765625 0.6875 C 0.765625 0.546875 0.859375 -0.046875 1.625 -0.046875 L 2.453125 -0.046875 C 2.734375 -0.046875 3.84375 -0.03125 3.84375 0.6875 Z M 3.84375 0.6875 "/>
</g>
<g id="glyph-1-14">
<path d="M 3.828125 -1.0625 C 3.828125 -1.171875 3.734375 -1.171875 3.703125 -1.171875 C 3.609375 -1.171875 3.609375 -1.15625 3.546875 -1 C 3.34375 -0.390625 2.84375 -0.15625 2.390625 -0.15625 C 1.8125 -0.15625 1.078125 -0.625 1.078125 -1.953125 C 1.078125 -3.34375 1.796875 -3.765625 2.328125 -3.765625 C 2.453125 -3.765625 2.9375 -3.75 3.265625 -3.53125 C 3.078125 -3.484375 2.890625 -3.359375 2.890625 -3.109375 C 2.890625 -2.875 3.078125 -2.6875 3.3125 -2.6875 C 3.546875 -2.6875 3.734375 -2.84375 3.734375 -3.125 C 3.734375 -3.671875 3.109375 -4.015625 2.3125 -4.015625 C 1.171875 -4.015625 0.3125 -3.0625 0.3125 -1.9375 C 0.3125 -0.78125 1.234375 0.09375 2.296875 0.09375 C 3.546875 0.09375 3.828125 -0.984375 3.828125 -1.0625 Z M 3.828125 -1.0625 "/>
</g>
</g>
<clipPath id="clip-0">
<path clip-rule="nonzero" d="M 113 6 L 124.597656 6 L 124.597656 13 L 113 13 Z M 113 6 "/>
</clipPath>
<clipPath id="clip-1">
<path clip-rule="nonzero" d="M 113 52 L 124.597656 52 L 124.597656 59 L 113 59 Z M 113 52 "/>
</clipPath>
<clipPath id="clip-2">
<path clip-rule="nonzero" d="M 52 57 L 74 57 L 74 63.59375 L 52 63.59375 Z M 52 57 "/>
</clipPath>
</defs>
<path fill-rule="nonzero" fill="rgb(100%, 94.898987%, 0%)" fill-opacity="1" d="M 65.453125 39.160156 L 71.007812 39.160156 L 71.007812 25.269531 L 65.453125 25.269531 Z M 65.453125 39.160156 "/>
<path fill="none" stroke-width="0.797" stroke-linecap="butt" stroke-linejoin="bevel" stroke="rgb(0%, 0%, 0%)" stroke-opacity="1" stroke-miterlimit="10" d="M -8.336625 -0.00084375 L -7.53975 -0.00084375 L -6.457719 3.549937 C -6.180375 4.464 -5.805375 4.444469 -5.629594 3.503062 L -4.293656 -3.50475 C -4.113969 -4.446156 -3.824906 -4.446156 -3.645219 -3.50475 L -2.309281 3.503062 C -2.129594 4.444469 -1.840531 4.444469 -1.660844 3.503062 L -0.324906 -3.50475 C -0.145219 -4.446156 0.175094 -4.450063 0.386031 -3.516469 L 2.382125 5.210094 " transform="matrix(1, 0, 0, -1, 63.071, 32.214)"/>
<path fill="none" stroke-width="0.797" stroke-linecap="square" stroke-linejoin="miter" stroke="rgb(0%, 0%, 0%)" stroke-opacity="1" stroke-miterlimit="10" d="M -7.938187 -6.946156 L 7.936813 -6.946156 L 7.936813 6.944469 L -7.938187 6.944469 " transform="matrix(1, 0, 0, -1, 63.071, 32.214)"/>
<path fill="none" stroke-width="0.797" stroke-linecap="butt" stroke-linejoin="miter" stroke="rgb(0%, 0%, 0%)" stroke-opacity="1" stroke-miterlimit="10" d="M 2.382125 -5.555531 L 2.382125 5.55775 " transform="matrix(1, 0, 0, -1, 63.071, 32.214)"/>
<g fill="rgb(0%, 0%, 0%)" fill-opacity="1">
<use xlink:href="#glyph-0-0" x="54.353" y="25.941"/>
<use xlink:href="#glyph-0-1" x="58.227455" y="25.941"/>
<use xlink:href="#glyph-0-2" x="62.655831" y="25.941"/>
<use xlink:href="#glyph-0-0" x="67.914091" y="25.941"/>
</g>
<path fill="none" stroke-width="0.3985" stroke-linecap="butt" stroke-linejoin="miter" stroke="rgb(100%, 0%, 0%)" stroke-opacity="1" stroke-miterlimit="10" d="M 1.409469 6.944469 C 1.409469 7.721812 0.776656 8.354625 -0.0006875 8.354625 C -0.778031 8.354625 -1.410844 7.721812 -1.410844 6.944469 C -1.410844 6.167125 -0.778031 5.534312 -0.0006875 5.534312 C 0.776656 5.534312 1.409469 6.167125 1.409469 6.944469 Z M 1.409469 6.944469 " transform="matrix(1, 0, 0, -1, 63.071, 32.214)"/>
<g fill="rgb(100%, 0%, 0%)" fill-opacity="1">
<use xlink:href="#glyph-1-0" x="52.053" y="7.09"/>
<use xlink:href="#glyph-1-1" x="57.172814" y="7.09"/>
<use xlink:href="#glyph-1-2" x="61.780647" y="7.09"/>
<use xlink:href="#glyph-1-3" x="65.38514" y="7.09"/>
<use xlink:href="#glyph-1-4" x="68.96901" y="7.09"/>
</g>
<path fill="none" stroke-width="0.19925" stroke-linecap="butt" stroke-linejoin="miter" stroke="rgb(100%, 0%, 0%)" stroke-opacity="1" stroke-miterlimit="10" d="M -0.0006875 8.553844 L -0.0006875 24.428844 " transform="matrix(1, 0, 0, -1, 63.071, 32.214)"/>
<path fill="none" stroke-width="0.3985" stroke-linecap="butt" stroke-linejoin="miter" stroke="rgb(100%, 0%, 0%)" stroke-opacity="1" stroke-miterlimit="10" d="M 9.346969 6.944469 C 9.346969 7.721812 8.714156 8.354625 7.936813 8.354625 C 7.159469 8.354625 6.526656 7.721812 6.526656 6.944469 C 6.526656 6.167125 7.159469 5.534312 7.936813 5.534312 C 8.714156 5.534312 9.346969 6.167125 9.346969 6.944469 Z M 9.346969 6.944469 " transform="matrix(1, 0, 0, -1, 63.071, 32.214)"/>
<g fill="rgb(100%, 0%, 0%)" fill-opacity="1">
<use xlink:href="#glyph-1-0" x="84.067" y="12.21"/>
<use xlink:href="#glyph-1-1" x="89.186814" y="12.21"/>
<use xlink:href="#glyph-1-2" x="93.794647" y="12.21"/>
<use xlink:href="#glyph-1-3" x="97.39914" y="12.21"/>
<use xlink:href="#glyph-1-4" x="100.98301" y="12.21"/>
</g>
<g fill="rgb(100%, 0%, 0%)" fill-opacity="1">
<use xlink:href="#glyph-1-5" x="109.1783" y="12.21"/>
</g>
<g clip-path="url(#clip-0)">
<g fill="rgb(100%, 0%, 0%)" fill-opacity="1">
<use xlink:href="#glyph-1-6" x="113.268772" y="12.21"/>
<use xlink:href="#glyph-1-7" x="117.876604" y="12.21"/>
<use xlink:href="#glyph-1-3" x="121.511583" y="12.21"/>
</g>
</g>
<path fill="none" stroke-width="0.19925" stroke-linecap="butt" stroke-linejoin="miter" stroke="rgb(100%, 0%, 0%)" stroke-opacity="1" stroke-miterlimit="10" d="M 9.386031 7.643687 L 33.639938 19.30775 " transform="matrix(1, 0, 0, -1, 63.071, 32.214)"/>
<path fill="none" stroke-width="0.3985" stroke-linecap="butt" stroke-linejoin="miter" stroke="rgb(100%, 0%, 0%)" stroke-opacity="1" stroke-miterlimit="10" d="M 9.346969 -0.00084375 C 9.346969 0.7765 8.714156 1.409312 7.936813 1.409312 C 7.159469 1.409312 6.526656 0.7765 6.526656 -0.00084375 C 6.526656 -0.778188 7.159469 -1.407094 7.936813 -1.407094 C 8.714156 -1.407094 9.346969 -0.778188 9.346969 -0.00084375 Z M 9.346969 -0.00084375 " transform="matrix(1, 0, 0, -1, 63.071, 32.214)"/>
<g fill="rgb(100%, 0%, 0%)" fill-opacity="1">
<use xlink:href="#glyph-1-5" x="89.187" y="34.922"/>
<use xlink:href="#glyph-1-6" x="93.286438" y="34.922"/>
<use xlink:href="#glyph-1-7" x="97.894271" y="34.922"/>
<use xlink:href="#glyph-1-3" x="101.52925" y="34.922"/>
</g>
<path fill="none" stroke-width="0.19925" stroke-linecap="butt" stroke-linejoin="miter" stroke="rgb(100%, 0%, 0%)" stroke-opacity="1" stroke-miterlimit="10" d="M 9.546188 -0.00084375 L 25.417281 -0.00084375 " transform="matrix(1, 0, 0, -1, 63.071, 32.214)"/>
<path fill="none" stroke-width="0.3985" stroke-linecap="butt" stroke-linejoin="miter" stroke="rgb(100%, 0%, 0%)" stroke-opacity="1" stroke-miterlimit="10" d="M 9.346969 -6.946156 C 9.346969 -6.164906 8.714156 -5.536 7.936813 -5.536 C 7.159469 -5.536 6.526656 -6.164906 6.526656 -6.946156 C 6.526656 -7.7235 7.159469 -8.352406 7.936813 -8.352406 C 8.714156 -8.352406 9.346969 -7.7235 9.346969 -6.946156 Z M 9.346969 -6.946156 " transform="matrix(1, 0, 0, -1, 63.071, 32.214)"/>
<g fill="rgb(100%, 0%, 0%)" fill-opacity="1">
<use xlink:href="#glyph-1-7" x="84.067" y="58.395"/>
<use xlink:href="#glyph-1-1" x="87.701979" y="58.395"/>
<use xlink:href="#glyph-1-8" x="92.309812" y="58.395"/>
<use xlink:href="#glyph-1-3" x="97.429626" y="58.395"/>
<use xlink:href="#glyph-1-4" x="101.013496" y="58.395"/>
</g>
<g fill="rgb(100%, 0%, 0%)" fill-opacity="1">
<use xlink:href="#glyph-1-5" x="109.208786" y="58.395"/>
</g>
<g clip-path="url(#clip-1)">
<g fill="rgb(100%, 0%, 0%)" fill-opacity="1">
<use xlink:href="#glyph-1-6" x="113.299257" y="58.395"/>
<use xlink:href="#glyph-1-7" x="117.90709" y="58.395"/>
<use xlink:href="#glyph-1-3" x="121.542069" y="58.395"/>
</g>
</g>
<path fill="none" stroke-width="0.19925" stroke-linecap="butt" stroke-linejoin="miter" stroke="rgb(100%, 0%, 0%)" stroke-opacity="1" stroke-miterlimit="10" d="M 9.386031 -7.641469 L 33.651656 -19.305531 " transform="matrix(1, 0, 0, -1, 63.071, 32.214)"/>
<path fill="none" stroke-width="0.3985" stroke-linecap="butt" stroke-linejoin="miter" stroke="rgb(100%, 0%, 0%)" stroke-opacity="1" stroke-miterlimit="10" d="M 1.409469 -6.946156 C 1.409469 -6.164906 0.776656 -5.536 -0.0006875 -5.536 C -0.778031 -5.536 -1.410844 -6.164906 -1.410844 -6.946156 C -1.410844 -7.7235 -0.778031 -8.352406 -0.0006875 -8.352406 C 0.776656 -8.352406 1.409469 -7.7235 1.409469 -6.946156 Z M 1.409469 -6.946156 " transform="matrix(1, 0, 0, -1, 63.071, 32.214)"/>
<g clip-path="url(#clip-2)">
<g fill="rgb(100%, 0%, 0%)" fill-opacity="1">
<use xlink:href="#glyph-1-7" x="52.038" y="63.515"/>
<use xlink:href="#glyph-1-1" x="55.672979" y="63.515"/>
<use xlink:href="#glyph-1-8" x="60.280812" y="63.515"/>
<use xlink:href="#glyph-1-3" x="65.400626" y="63.515"/>
<use xlink:href="#glyph-1-4" x="68.984496" y="63.515"/>
</g>
</g>
<path fill="none" stroke-width="0.19925" stroke-linecap="butt" stroke-linejoin="miter" stroke="rgb(100%, 0%, 0%)" stroke-opacity="1" stroke-miterlimit="10" d="M -0.0006875 -8.551625 L -0.0006875 -24.426625 " transform="matrix(1, 0, 0, -1, 63.071, 32.214)"/>
<path fill="none" stroke-width="0.3985" stroke-linecap="butt" stroke-linejoin="miter" stroke="rgb(100%, 0%, 0%)" stroke-opacity="1" stroke-miterlimit="10" d="M -6.528031 -6.946156 C -6.528031 -6.164906 -7.156937 -5.536 -7.938187 -5.536 C -8.715531 -5.536 -9.344437 -6.164906 -9.344437 -6.946156 C -9.344437 -7.7235 -8.715531 -8.352406 -7.938187 -8.352406 C -7.156937 -8.352406 -6.528031 -7.7235 -6.528031 -6.946156 Z M -6.528031 -6.946156 " transform="matrix(1, 0, 0, -1, 63.071, 32.214)"/>
<g fill="rgb(100%, 0%, 0%)" fill-opacity="1">
<use xlink:href="#glyph-1-7" x="-0.78" y="58.395"/>
<use xlink:href="#glyph-1-1" x="2.854979" y="58.395"/>
<use xlink:href="#glyph-1-8" x="7.462812" y="58.395"/>
<use xlink:href="#glyph-1-3" x="12.582626" y="58.395"/>
<use xlink:href="#glyph-1-4" x="16.166496" y="58.395"/>
</g>
<g fill="rgb(100%, 0%, 0%)" fill-opacity="1">
<use xlink:href="#glyph-1-9" x="24.361786" y="58.395"/>
</g>
<g fill="rgb(100%, 0%, 0%)" fill-opacity="1">
<use xlink:href="#glyph-1-5" x="30.757519" y="58.395"/>
<use xlink:href="#glyph-1-7" x="34.856957" y="58.395"/>
<use xlink:href="#glyph-1-3" x="38.491935" y="58.395"/>
</g>
<path fill="none" stroke-width="0.19925" stroke-linecap="butt" stroke-linejoin="miter" stroke="rgb(100%, 0%, 0%)" stroke-opacity="1" stroke-miterlimit="10" d="M -9.395219 -7.625844 L -34.340531 -19.305531 " transform="matrix(1, 0, 0, -1, 63.071, 32.214)"/>
<path fill="none" stroke-width="0.3985" stroke-linecap="butt" stroke-linejoin="miter" stroke="rgb(100%, 0%, 0%)" stroke-opacity="1" stroke-miterlimit="10" d="M -6.528031 -0.00084375 C -6.528031 0.7765 -7.156937 1.409312 -7.938187 1.409312 C -8.715531 1.409312 -9.344437 0.7765 -9.344437 -0.00084375 C -9.344437 -0.778188 -8.715531 -1.407094 -7.938187 -1.407094 C -7.156937 -1.407094 -6.528031 -0.778188 -6.528031 -0.00084375 Z M -6.528031 -0.00084375 " transform="matrix(1, 0, 0, -1, 63.071, 32.214)"/>
<g fill="rgb(100%, 0%, 0%)" fill-opacity="1">
<use xlink:href="#glyph-1-9" x="19.238" y="34.922"/>
</g>
<g fill="rgb(100%, 0%, 0%)" fill-opacity="1">
<use xlink:href="#glyph-1-5" x="25.633733" y="34.922"/>
<use xlink:href="#glyph-1-7" x="29.733171" y="34.922"/>
<use xlink:href="#glyph-1-3" x="33.36815" y="34.922"/>
</g>
<path fill="none" stroke-width="0.19925" stroke-linecap="butt" stroke-linejoin="miter" stroke="rgb(100%, 0%, 0%)" stroke-opacity="1" stroke-miterlimit="10" d="M -9.543656 -0.00084375 L -25.418656 -0.00084375 " transform="matrix(1, 0, 0, -1, 63.071, 32.214)"/>
<path fill="none" stroke-width="0.3985" stroke-linecap="butt" stroke-linejoin="miter" stroke="rgb(100%, 0%, 0%)" stroke-opacity="1" stroke-miterlimit="10" d="M -6.528031 6.944469 C -6.528031 7.721812 -7.156937 8.354625 -7.938187 8.354625 C -8.715531 8.354625 -9.344437 7.721812 -9.344437 6.944469 C -9.344437 6.167125 -8.715531 5.534312 -7.938187 5.534312 C -7.156937 5.534312 -6.528031 6.167125 -6.528031 6.944469 Z M -6.528031 6.944469 " transform="matrix(1, 0, 0, -1, 63.071, 32.214)"/>
<g fill="rgb(100%, 0%, 0%)" fill-opacity="1">
<use xlink:href="#glyph-1-0" x="-0.749" y="12.21"/>
<use xlink:href="#glyph-1-1" x="4.370814" y="12.21"/>
<use xlink:href="#glyph-1-2" x="8.978647" y="12.21"/>
<use xlink:href="#glyph-1-3" x="12.58314" y="12.21"/>
<use xlink:href="#glyph-1-4" x="16.16701" y="12.21"/>
</g>
<g fill="rgb(100%, 0%, 0%)" fill-opacity="1">
<use xlink:href="#glyph-1-9" x="24.3623" y="12.21"/>
</g>
<g fill="rgb(100%, 0%, 0%)" fill-opacity="1">
<use xlink:href="#glyph-1-5" x="30.758033" y="12.21"/>
<use xlink:href="#glyph-1-7" x="34.857471" y="12.21"/>
<use xlink:href="#glyph-1-3" x="38.49245" y="12.21"/>
</g>
<path fill="none" stroke-width="0.19925" stroke-linecap="butt" stroke-linejoin="miter" stroke="rgb(100%, 0%, 0%)" stroke-opacity="1" stroke-miterlimit="10" d="M -9.395219 7.628062 L -34.328812 19.30775 " transform="matrix(1, 0, 0, -1, 63.071, 32.214)"/>
<path fill="none" stroke-width="0.3985" stroke-linecap="butt" stroke-linejoin="miter" stroke="rgb(100%, 0%, 0%)" stroke-opacity="1" stroke-miterlimit="10" d="M -6.528031 -0.00084375 C -6.528031 0.7765 -7.156937 1.409312 -7.938187 1.409312 C -8.715531 1.409312 -9.344437 0.7765 -9.344437 -0.00084375 C -9.344437 -0.778188 -8.715531 -1.407094 -7.938187 -1.407094 C -7.156937 -1.407094 -6.528031 -0.778188 -6.528031 -0.00084375 Z M -6.528031 -0.00084375 " transform="matrix(1, 0, 0, -1, 63.071, 32.214)"/>
<g fill="rgb(100%, 0%, 0%)" fill-opacity="1">
<use xlink:href="#glyph-1-10" x="24.95" y="25.539"/>
<use xlink:href="#glyph-1-5" x="27.509907" y="25.539"/>
<use xlink:href="#glyph-1-11" x="31.609345" y="25.539"/>
<use xlink:href="#glyph-1-3" x="34.424795" y="25.539"/>
</g>
<path fill="none" stroke-width="0.19925" stroke-linecap="butt" stroke-linejoin="miter" stroke="rgb(100%, 0%, 0%)" stroke-opacity="1" stroke-miterlimit="10" d="M -9.422562 0.612437 L -24.363969 6.780406 " transform="matrix(1, 0, 0, -1, 63.071, 32.214)"/>
<path fill="none" stroke-width="0.3985" stroke-linecap="butt" stroke-linejoin="miter" stroke="rgb(100%, 0%, 0%)" stroke-opacity="1" stroke-miterlimit="10" d="M 9.346969 -0.00084375 C 9.346969 0.7765 8.714156 1.409312 7.936813 1.409312 C 7.159469 1.409312 6.526656 0.7765 6.526656 -0.00084375 C 6.526656 -0.778188 7.159469 -1.407094 7.936813 -1.407094 C 8.714156 -1.407094 9.346969 -0.778188 9.346969 -0.00084375 Z M 9.346969 -0.00084375 " transform="matrix(1, 0, 0, -1, 63.071, 32.214)"/>
<g fill="rgb(100%, 0%, 0%)" fill-opacity="1">
<use xlink:href="#glyph-1-2" x="86.845" y="21.033"/>
<use xlink:href="#glyph-1-12" x="90.449493" y="21.033"/>
<use xlink:href="#glyph-1-13" x="93.0094" y="21.033"/>
<use xlink:href="#glyph-1-4" x="97.617233" y="21.033"/>
</g>
<g fill="rgb(100%, 0%, 0%)" fill-opacity="1">
<use xlink:href="#glyph-1-3" x="102.477022" y="21.033"/>
</g>
<path fill="none" stroke-width="0.19925" stroke-linecap="butt" stroke-linejoin="miter" stroke="rgb(100%, 0%, 0%)" stroke-opacity="1" stroke-miterlimit="10" d="M 9.358688 0.749156 L 24.538375 8.741344 " transform="matrix(1, 0, 0, -1, 63.071, 32.214)"/>
<path fill="none" stroke-width="0.3985" stroke-linecap="butt" stroke-linejoin="miter" stroke="rgb(100%, 0%, 0%)" stroke-opacity="1" stroke-miterlimit="10" d="M 1.409469 -0.00084375 C 1.409469 0.7765 0.776656 1.409312 -0.0006875 1.409312 C -0.778031 1.409312 -1.410844 0.7765 -1.410844 -0.00084375 C -1.410844 -0.778188 -0.778031 -1.407094 -0.0006875 -1.407094 C 0.776656 -1.407094 1.409469 -0.778188 1.409469 -0.00084375 Z M 1.409469 -0.00084375 " transform="matrix(1, 0, 0, -1, 63.071, 32.214)"/>
<g fill="rgb(100%, 0%, 0%)" fill-opacity="1">
<use xlink:href="#glyph-1-14" x="31.272" y="50.031"/>
<use xlink:href="#glyph-1-5" x="35.367852" y="50.031"/>
<use xlink:href="#glyph-1-0" x="39.46729" y="50.031"/>
</g>
<g fill="rgb(100%, 0%, 0%)" fill-opacity="1">
<use xlink:href="#glyph-1-3" x="44.327078" y="50.031"/>
<use xlink:href="#glyph-1-5" x="47.910948" y="50.031"/>
<use xlink:href="#glyph-1-2" x="52.010387" y="50.031"/>
</g>
<path fill="none" stroke-width="0.19925" stroke-linecap="butt" stroke-linejoin="miter" stroke="rgb(100%, 0%, 0%)" stroke-opacity="1" stroke-miterlimit="10" d="M -1.274125 -0.981313 L -15.203812 -11.703969 " transform="matrix(1, 0, 0, -1, 63.071, 32.214)"/>
</svg>
