<?xml version="1.0" encoding="UTF-8"?>
<svg xmlns="http://www.w3.org/2000/svg" xmlns:xlink="http://www.w3.org/1999/xlink" width="24.192pt" height="84.916pt" viewBox="0 0 24.192 84.916">
<defs>
<clipPath id="clip-0">
<path clip-rule="nonzero" d="M 0 0 L 23.789062 0 L 23.789062 60 L 0 60 Z M 0 0 "/>
</clipPath>
<clipPath id="clip-1">
<path clip-rule="nonzero" d="M 11 19 L 23.789062 19 L 23.789062 34 L 11 34 Z M 11 19 "/>
</clipPath>
<clipPath id="clip-2">
<path clip-rule="nonzero" d="M 11 0 L 23.789062 0 L 23.789062 10 L 11 10 Z M 11 0 "/>
</clipPath>
<clipPath id="clip-3">
<path clip-rule="nonzero" d="M 0 0 L 23.789062 0 L 23.789062 84.875 L 0 84.875 Z M 0 0 "/>
</clipPath>
<clipPath id="clip-4">
<path clip-rule="nonzero" d="M 11 23 L 23.789062 23 L 23.789062 39 L 11 39 Z M 11 23 "/>
</clipPath>
<clipPath id="clip-5">
<path clip-rule="nonzero" d="M 11 47 L 23.789062 47 L 23.789062 63 L 11 63 Z M 11 47 "/>
</clipPath>
<clipPath id="clip-6">
<path clip-rule="nonzero" d="M 0 16 L 23.789062 16 L 23.789062 84.875 L 0 84.875 Z M 0 16 "/>
</clipPath>
<clipPath id="clip-7">
<path clip-rule="nonzero" d="M 16 81 L 20 81 L 20 84.875 L 16 84.875 Z M 16 81 "/>
</clipPath>
<clipPath id="clip-8">
<path clip-rule="nonzero" d="M 11 75 L 23.789062 75 L 23.789062 84.875 L 11 84.875 Z M 11 75 "/>
</clipPath>
<clipPath id="clip-9">
<path clip-rule="nonzero" d="M 20 69 L 23.789062 69 L 23.789062 73 L 20 73 Z M 20 69 "/>
</clipPath>
<clipPath id="clip-10">
<path clip-rule="nonzero" d="M 14 64 L 23.789062 64 L 23.789062 79 L 14 79 Z M 14 64 "/>
</clipPath>
<clipPath id="clip-11">
<path clip-rule="nonzero" d="M 11 52 L 23.789062 52 L 23.789062 67 L 11 67 Z M 11 52 "/>
</clipPath>
</defs>
<g clip-path="url(#clip-0)">
<path fill="none" stroke-width="3.17429" stroke-linecap="round" stroke-linejoin="miter" stroke="rgb(0%, 0%, 100%)" stroke-opacity="1" stroke-miterlimit="10" d="M 1.585438 -0.00121875 L 19.417469 10.295656 " transform="matrix(1, 0, 0, -1, -0.187, 14.573)"/>
</g>
<path fill-rule="nonzero" fill="rgb(100%, 100%, 100%)" fill-opacity="1" d="M 19.855469 26.382812 C 19.855469 25.507812 19.144531 24.796875 18.265625 24.796875 C 17.390625 24.796875 16.679688 25.507812 16.679688 26.382812 C 16.679688 27.261719 17.390625 27.96875 18.265625 27.96875 C 19.144531 27.96875 19.855469 27.261719 19.855469 26.382812 Z M 19.855469 26.382812 "/>
<g clip-path="url(#clip-1)">
<path fill="none" stroke-width="0.3985" stroke-linecap="butt" stroke-linejoin="miter" stroke="rgb(0%, 0%, 100%)" stroke-opacity="1" stroke-miterlimit="10" d="M 20.042469 -11.809812 C 20.042469 -10.934812 19.331531 -10.223875 18.452625 -10.223875 C 17.577625 -10.223875 16.866688 -10.934812 16.866688 -11.809812 C 16.866688 -12.688719 17.577625 -13.39575 18.452625 -13.39575 C 19.331531 -13.39575 20.042469 -12.688719 20.042469 -11.809812 Z M 20.042469 -11.809812 " transform="matrix(1, 0, 0, -1, -0.187, 14.573)"/>
</g>
<path fill-rule="nonzero" fill="rgb(100%, 100%, 100%)" fill-opacity="1" d="M 19.855469 2.761719 C 19.855469 1.886719 19.144531 1.175781 18.265625 1.175781 C 17.390625 1.175781 16.679688 1.886719 16.679688 2.761719 C 16.679688 3.640625 17.390625 4.351562 18.265625 4.351562 C 19.144531 4.351562 19.855469 3.640625 19.855469 2.761719 Z M 19.855469 2.761719 "/>
<g clip-path="url(#clip-2)">
<path fill="none" stroke-width="0.3985" stroke-linecap="butt" stroke-linejoin="miter" stroke="rgb(0%, 0%, 100%)" stroke-opacity="1" stroke-miterlimit="10" d="M 20.042469 11.811281 C 20.042469 12.686281 19.331531 13.397219 18.452625 13.397219 C 17.577625 13.397219 16.866688 12.686281 16.866688 11.811281 C 16.866688 10.932375 17.577625 10.221438 18.452625 10.221438 C 19.331531 10.221438 20.042469 10.932375 20.042469 11.811281 Z M 20.042469 11.811281 " transform="matrix(1, 0, 0, -1, -0.187, 14.573)"/>
</g>
<path fill-rule="nonzero" fill="rgb(100%, 100%, 100%)" fill-opacity="1" stroke-width="0.3985" stroke-linecap="butt" stroke-linejoin="miter" stroke="rgb(0%, 0%, 100%)" stroke-opacity="1" stroke-miterlimit="10" d="M 3.175281 -0.00121875 C 3.175281 0.877688 2.464344 1.588625 1.585438 1.588625 C 0.710438 1.588625 -0.0005 0.877688 -0.0005 -0.00121875 C -0.0005 -0.876219 0.710438 -1.587156 1.585438 -1.587156 C 2.464344 -1.587156 3.175281 -0.876219 3.175281 -0.00121875 Z M 3.175281 -0.00121875 " transform="matrix(1, 0, 0, -1, -0.187, 14.573)"/>
<g clip-path="url(#clip-3)">
<path fill="none" stroke-width="3.17429" stroke-linecap="round" stroke-linejoin="miter" stroke="rgb(0%, 0%, 0%)" stroke-opacity="1" stroke-miterlimit="10" d="M 1.585438 -28.344969 L 18.452625 -18.821531 " transform="matrix(1, 0, 0, -1, -0.187, 14.573)"/>
</g>
<path fill-rule="nonzero" fill="rgb(100%, 100%, 100%)" fill-opacity="1" d="M 19.855469 31.015625 C 19.855469 30.136719 19.144531 29.425781 18.265625 29.425781 C 17.390625 29.425781 16.679688 30.136719 16.679688 31.015625 C 16.679688 31.890625 17.390625 32.601562 18.265625 32.601562 C 19.144531 32.601562 19.855469 31.890625 19.855469 31.015625 Z M 19.855469 31.015625 "/>
<g clip-path="url(#clip-4)">
<path fill="none" stroke-width="0.3985" stroke-linecap="butt" stroke-linejoin="miter" stroke="rgb(0%, 0%, 0%)" stroke-opacity="1" stroke-miterlimit="10" d="M 20.042469 -16.442625 C 20.042469 -15.563719 19.331531 -14.852781 18.452625 -14.852781 C 17.577625 -14.852781 16.866688 -15.563719 16.866688 -16.442625 C 16.866688 -17.317625 17.577625 -18.028562 18.452625 -18.028562 C 19.331531 -18.028562 20.042469 -17.317625 20.042469 -16.442625 Z M 20.042469 -16.442625 " transform="matrix(1, 0, 0, -1, -0.187, 14.573)"/>
</g>
<path fill-rule="nonzero" fill="rgb(100%, 100%, 100%)" fill-opacity="1" d="M 19.855469 54.824219 C 19.855469 53.949219 19.144531 53.238281 18.265625 53.238281 C 17.390625 53.238281 16.679688 53.949219 16.679688 54.824219 C 16.679688 55.703125 17.390625 56.414062 18.265625 56.414062 C 19.144531 56.414062 19.855469 55.703125 19.855469 54.824219 Z M 19.855469 54.824219 "/>
<g clip-path="url(#clip-5)">
<path fill="none" stroke-width="0.3985" stroke-linecap="butt" stroke-linejoin="miter" stroke="rgb(0%, 0%, 0%)" stroke-opacity="1" stroke-miterlimit="10" d="M 20.042469 -40.251219 C 20.042469 -39.376219 19.331531 -38.665281 18.452625 -38.665281 C 17.577625 -38.665281 16.866688 -39.376219 16.866688 -40.251219 C 16.866688 -41.130125 17.577625 -41.841062 18.452625 -41.841062 C 19.331531 -41.841062 20.042469 -41.130125 20.042469 -40.251219 Z M 20.042469 -40.251219 " transform="matrix(1, 0, 0, -1, -0.187, 14.573)"/>
</g>
<path fill-rule="nonzero" fill="rgb(100%, 100%, 100%)" fill-opacity="1" stroke-width="0.3985" stroke-linecap="butt" stroke-linejoin="miter" stroke="rgb(0%, 0%, 0%)" stroke-opacity="1" stroke-miterlimit="10" d="M 3.175281 -28.344969 C 3.175281 -27.469969 2.464344 -26.759031 1.585438 -26.759031 C 0.710438 -26.759031 -0.0005 -27.469969 -0.0005 -28.344969 C -0.0005 -29.223875 0.710438 -29.934812 1.585438 -29.934812 C 2.464344 -29.934812 3.175281 -29.223875 3.175281 -28.344969 Z M 3.175281 -28.344969 " transform="matrix(1, 0, 0, -1, -0.187, 14.573)"/>
<g clip-path="url(#clip-6)">
<path fill="none" stroke-width="3.17429" stroke-linecap="round" stroke-linejoin="miter" stroke="rgb(0%, 0%, 100%)" stroke-opacity="1" stroke-miterlimit="10" d="M 1.585438 -56.692625 L 19.417469 -46.399656 " transform="matrix(1, 0, 0, -1, -0.187, 14.573)"/>
</g>
<g clip-path="url(#clip-7)">
<path fill-rule="nonzero" fill="rgb(100%, 100%, 100%)" fill-opacity="1" d="M 19.855469 83.078125 C 19.855469 82.199219 19.144531 81.488281 18.265625 81.488281 C 17.390625 81.488281 16.679688 82.199219 16.679688 83.078125 C 16.679688 83.953125 17.390625 84.664062 18.265625 84.664062 C 19.144531 84.664062 19.855469 83.953125 19.855469 83.078125 Z M 19.855469 83.078125 "/>
</g>
<g clip-path="url(#clip-8)">
<path fill="none" stroke-width="0.3985" stroke-linecap="butt" stroke-linejoin="miter" stroke="rgb(0%, 0%, 100%)" stroke-opacity="1" stroke-miterlimit="10" d="M 20.042469 -68.505125 C 20.042469 -67.626219 19.331531 -66.915281 18.452625 -66.915281 C 17.577625 -66.915281 16.866688 -67.626219 16.866688 -68.505125 C 16.866688 -69.380125 17.577625 -70.091062 18.452625 -70.091062 C 19.331531 -70.091062 20.042469 -69.380125 20.042469 -68.505125 Z M 20.042469 -68.505125 " transform="matrix(1, 0, 0, -1, -0.187, 14.573)"/>
</g>
<g clip-path="url(#clip-9)">
<path fill-rule="nonzero" fill="rgb(100%, 100%, 100%)" fill-opacity="1" d="M 23.578125 71.265625 C 23.578125 70.390625 22.867188 69.679688 21.992188 69.679688 C 21.113281 69.679688 20.402344 70.390625 20.402344 71.265625 C 20.402344 72.144531 21.113281 72.855469 21.992188 72.855469 C 22.867188 72.855469 23.578125 72.144531 23.578125 71.265625 Z M 23.578125 71.265625 "/>
</g>
<g clip-path="url(#clip-10)">
<path fill="none" stroke-width="0.3985" stroke-linecap="butt" stroke-linejoin="miter" stroke="rgb(0%, 0%, 100%)" stroke-opacity="1" stroke-miterlimit="10" d="M 23.765125 -56.692625 C 23.765125 -55.817625 23.054188 -55.106687 22.179188 -55.106687 C 21.300281 -55.106687 20.589344 -55.817625 20.589344 -56.692625 C 20.589344 -57.571531 21.300281 -58.282469 22.179188 -58.282469 C 23.054188 -58.282469 23.765125 -57.571531 23.765125 -56.692625 Z M 23.765125 -56.692625 " transform="matrix(1, 0, 0, -1, -0.187, 14.573)"/>
</g>
<path fill-rule="nonzero" fill="rgb(100%, 100%, 100%)" fill-opacity="1" d="M 19.855469 59.457031 C 19.855469 58.578125 19.144531 57.867188 18.265625 57.867188 C 17.390625 57.867188 16.679688 58.578125 16.679688 59.457031 C 16.679688 60.332031 17.390625 61.042969 18.265625 61.042969 C 19.144531 61.042969 19.855469 60.332031 19.855469 59.457031 Z M 19.855469 59.457031 "/>
<g clip-path="url(#clip-11)">
<path fill="none" stroke-width="0.3985" stroke-linecap="butt" stroke-linejoin="miter" stroke="rgb(0%, 0%, 100%)" stroke-opacity="1" stroke-miterlimit="10" d="M 20.042469 -44.884031 C 20.042469 -44.005125 19.331531 -43.294187 18.452625 -43.294187 C 17.577625 -43.294187 16.866688 -44.005125 16.866688 -44.884031 C 16.866688 -45.759031 17.577625 -46.469969 18.452625 -46.469969 C 19.331531 -46.469969 20.042469 -45.759031 20.042469 -44.884031 Z M 20.042469 -44.884031 " transform="matrix(1, 0, 0, -1, -0.187, 14.573)"/>
</g>
<path fill-rule="nonzero" fill="rgb(100%, 100%, 100%)" fill-opacity="1" stroke-width="0.3985" stroke-linecap="butt" stroke-linejoin="miter" stroke="rgb(0%, 0%, 100%)" stroke-opacity="1" stroke-miterlimit="10" d="M 3.175281 -56.692625 C 3.175281 -55.817625 2.464344 -55.106687 1.585438 -55.106687 C 0.710438 -55.106687 -0.0005 -55.817625 -0.0005 -56.692625 C -0.0005 -57.571531 0.710438 -58.282469 1.585438 -58.282469 C 2.464344 -58.282469 3.175281 -57.571531 3.175281 -56.692625 Z M 3.175281 -56.692625 " transform="matrix(1, 0, 0, -1, -0.187, 14.573)"/>
</svg>
