<?xml version="1.0" encoding="UTF-8"?>
<svg xmlns="http://www.w3.org/2000/svg" xmlns:xlink="http://www.w3.org/1999/xlink" width="84.698pt" height="101.746pt" viewBox="0 0 84.698 101.746">
<defs>
<clipPath id="clip-0">
<path clip-rule="nonzero" d="M 70 0 L 84.546875 0 L 84.546875 46 L 70 46 Z M 70 0 "/>
</clipPath>
<clipPath id="clip-1">
<path clip-rule="nonzero" d="M 70 57 L 84.546875 57 L 84.546875 73 L 70 73 Z M 70 57 "/>
</clipPath>
<clipPath id="clip-2">
<path clip-rule="nonzero" d="M 70 87 L 84.546875 87 L 84.546875 101.617188 L 70 101.617188 Z M 70 87 "/>
</clipPath>
</defs>
<path fill="none" stroke-width="0.3985" stroke-linecap="butt" stroke-linejoin="miter" stroke="rgb(0%, 0%, 0%)" stroke-opacity="1" stroke-miterlimit="10" d="M 0.001375 56.694562 L 12.474031 56.694562 M 44.220125 56.694562 L 56.692781 56.694562 " transform="matrix(1, 0, 0, -1, -0.142, 79.593)"/>
<path fill="none" stroke-width="0.797" stroke-linecap="butt" stroke-linejoin="bevel" stroke="rgb(0%, 0%, 0%)" stroke-opacity="1" stroke-miterlimit="10" d="M 12.075594 56.694562 L 15.118563 62.647687 L 20.411531 50.741437 L 25.700594 62.647687 L 30.993563 50.741437 L 36.282625 62.647687 L 41.575594 50.741437 L 44.618563 56.694562 " transform="matrix(1, 0, 0, -1, -0.142, 79.593)"/>
<path fill-rule="nonzero" fill="rgb(0%, 0%, 0%)" fill-opacity="1" stroke-width="0.3985" stroke-linecap="butt" stroke-linejoin="miter" stroke="rgb(0%, 0%, 0%)" stroke-opacity="1" stroke-miterlimit="10" d="M 70.583406 64.331281 L 73.36075 64.331281 L 73.36075 49.053937 L 70.583406 49.053937 Z M 70.583406 64.331281 " transform="matrix(1, 0, 0, -1, -0.142, 79.593)"/>
<g clip-path="url(#clip-0)">
<path fill="none" stroke-width="0.3985" stroke-linecap="butt" stroke-linejoin="miter" stroke="rgb(0%, 0%, 0%)" stroke-opacity="1" stroke-miterlimit="10" d="M 84.474031 78.718 L 84.474031 64.331281 L 70.583406 64.331281 M 70.583406 49.053937 L 84.474031 49.053937 L 84.474031 34.667219 " transform="matrix(1, 0, 0, -1, -0.142, 79.593)"/>
</g>
<path fill="none" stroke-width="0.797" stroke-linecap="butt" stroke-linejoin="miter" stroke="rgb(0%, 0%, 0%)" stroke-opacity="1" stroke-miterlimit="10" d="M 70.583406 67.608625 L 70.583406 45.7805 M 67.251375 64.331281 L 67.251375 49.053937 " transform="matrix(1, 0, 0, -1, -0.142, 79.593)"/>
<path fill="none" stroke-width="0.3985" stroke-linecap="butt" stroke-linejoin="miter" stroke="rgb(0%, 0%, 0%)" stroke-opacity="1" stroke-miterlimit="10" d="M 67.251375 56.694562 L 56.493563 56.694562 " transform="matrix(1, 0, 0, -1, -0.142, 79.593)"/>
<path fill="none" stroke-width="0.3985" stroke-linecap="butt" stroke-linejoin="miter" stroke="rgb(100%, 0%, 0%)" stroke-opacity="1" stroke-miterlimit="10" d="M 0.001375 -0.00075 L 12.474031 -0.00075 M 44.220125 -0.00075 L 56.692781 -0.00075 " transform="matrix(1, 0, 0, -1, -0.142, 79.593)"/>
<path fill="none" stroke-width="0.797" stroke-linecap="butt" stroke-linejoin="bevel" stroke="rgb(100%, 0%, 0%)" stroke-opacity="1" stroke-miterlimit="10" d="M 12.075594 -0.00075 L 15.118563 5.952375 L 20.411531 -5.953875 L 25.700594 5.952375 L 30.993563 -5.953875 L 36.282625 5.952375 L 41.575594 -5.953875 L 44.618563 -0.00075 " transform="matrix(1, 0, 0, -1, -0.142, 79.593)"/>
<path fill-rule="nonzero" fill="rgb(100%, 0%, 0%)" fill-opacity="1" stroke-width="0.3985" stroke-linecap="butt" stroke-linejoin="miter" stroke="rgb(100%, 0%, 0%)" stroke-opacity="1" stroke-miterlimit="10" d="M 70.583406 7.639875 L 73.36075 7.639875 L 73.36075 -7.641375 L 70.583406 -7.641375 Z M 70.583406 7.639875 " transform="matrix(1, 0, 0, -1, -0.142, 79.593)"/>
<g clip-path="url(#clip-1)">
<path fill="none" stroke-width="0.3985" stroke-linecap="butt" stroke-linejoin="miter" stroke="rgb(100%, 0%, 0%)" stroke-opacity="1" stroke-miterlimit="10" d="M 84.474031 22.026594 L 84.474031 7.639875 L 70.583406 7.639875 " transform="matrix(1, 0, 0, -1, -0.142, 79.593)"/>
</g>
<path fill="none" stroke-width="0.797" stroke-linecap="butt" stroke-linejoin="miter" stroke="rgb(100%, 0%, 0%)" stroke-opacity="1" stroke-miterlimit="10" d="M 70.583406 10.913312 L 70.583406 -10.914813 M 67.251375 7.639875 L 67.251375 -7.641375 " transform="matrix(1, 0, 0, -1, -0.142, 79.593)"/>
<g clip-path="url(#clip-2)">
<path fill="none" stroke-width="0.3985" stroke-linecap="butt" stroke-linejoin="miter" stroke="rgb(100%, 0%, 0%)" stroke-opacity="1" stroke-miterlimit="10" d="M 70.583406 -7.641375 L 84.474031 -7.641375 L 84.474031 -22.028094 " transform="matrix(1, 0, 0, -1, -0.142, 79.593)"/>
</g>
<path fill="none" stroke-width="0.3985" stroke-linecap="butt" stroke-linejoin="miter" stroke="rgb(100%, 0%, 0%)" stroke-opacity="1" stroke-miterlimit="10" d="M 67.251375 -0.00075 L 56.493563 -0.00075 " transform="matrix(1, 0, 0, -1, -0.142, 79.593)"/>
<path fill-rule="nonzero" fill="rgb(100%, 0%, 0%)" fill-opacity="1" stroke-width="0.3985" stroke-linecap="butt" stroke-linejoin="miter" stroke="rgb(100%, 0%, 0%)" stroke-opacity="1" stroke-miterlimit="10" d="M 67.251375 -0.00075 C 67.251375 0.878156 66.540438 1.585187 65.661531 1.585187 C 64.786531 1.585187 64.075594 0.878156 64.075594 -0.00075 C 64.075594 -0.87575 64.786531 -1.586688 65.661531 -1.586688 C 66.540438 -1.586688 67.251375 -0.87575 67.251375 -0.00075 Z M 67.251375 -0.00075 " transform="matrix(1, 0, 0, -1, -0.142, 79.593)"/>
</svg>
