<?xml version="1.0" encoding="UTF-8"?>
<svg xmlns="http://www.w3.org/2000/svg" xmlns:xlink="http://www.w3.org/1999/xlink" width="59.552pt" height="60.958pt" viewBox="0 0 59.552 60.958">
<defs>
<clipPath id="clip-0">
<path clip-rule="nonzero" d="M 0 0 L 59.328125 0 L 59.328125 60.9375 L 0 60.9375 Z M 0 0 "/>
</clipPath>
</defs>
<path fill="none" stroke-width="0.797" stroke-linecap="butt" stroke-linejoin="bevel" stroke="rgb(0%, 0%, 0%)" stroke-opacity="1" stroke-miterlimit="10" d="M -12.064625 16.2725 C -8.775563 16.2725 -6.1115 14.452187 -6.1115 12.206094 C -6.1115 9.956094 -8.775563 8.135781 -12.064625 8.135781 C -8.775563 8.135781 -6.1115 6.315469 -6.1115 4.069375 C -6.1115 1.823281 -8.775563 -0.0009375 -12.064625 -0.0009375 C -8.775563 -0.0009375 -6.1115 -1.82125 -6.1115 -4.067344 C -6.1115 -6.313438 -8.775563 -8.137656 -12.064625 -8.137656 C -8.775563 -8.137656 -6.1115 -9.957969 -6.1115 -12.204063 C -6.1115 -14.450156 -8.775563 -16.274375 -12.064625 -16.274375 " transform="matrix(1, 0, 0, -1, 29.549, 30.96)"/>
<path fill="none" stroke-width="0.797" stroke-linecap="butt" stroke-linejoin="bevel" stroke="rgb(0%, 0%, 0%)" stroke-opacity="1" stroke-miterlimit="10" d="M 12.064281 -16.274375 C 8.779125 -16.274375 6.111156 -14.450156 6.111156 -12.204063 C 6.111156 -9.957969 8.779125 -8.137656 12.064281 -8.137656 C 8.779125 -8.137656 6.111156 -6.313438 6.111156 -4.067344 C 6.111156 -1.82125 8.779125 -0.0009375 12.064281 -0.0009375 C 8.779125 -0.0009375 6.111156 1.823281 6.111156 4.069375 C 6.111156 6.315469 8.779125 8.135781 12.064281 8.135781 C 8.779125 8.135781 6.111156 9.956094 6.111156 12.206094 C 6.111156 14.452187 8.779125 16.2725 12.064281 16.2725 " transform="matrix(1, 0, 0, -1, 29.549, 30.96)"/>
<g clip-path="url(#clip-0)">
<path fill="none" stroke-width="0.3985" stroke-linecap="butt" stroke-linejoin="miter" stroke="rgb(0%, 0%, 0%)" stroke-opacity="1" stroke-miterlimit="10" d="M -29.763844 29.764687 L -11.904469 29.764687 L -11.904469 15.874062 M -11.904469 -15.875938 L -11.904469 -29.762656 L -29.763844 -29.762656 M 29.7635 29.764687 L 11.904125 29.764687 L 11.904125 15.874062 M 11.904125 -15.875938 L 11.904125 -29.762656 L 29.7635 -29.762656 " transform="matrix(1, 0, 0, -1, 29.549, 30.96)"/>
</g>
<path fill="none" stroke-width="0.797" stroke-linecap="butt" stroke-linejoin="miter" stroke="rgb(0%, 0%, 0%)" stroke-opacity="1" stroke-miterlimit="10" d="M 1.486156 -14.88375 L 1.486156 14.881875 M -1.4865 -14.88375 L -1.4865 14.881875 " transform="matrix(1, 0, 0, -1, 29.549, 30.96)"/>
</svg>
