<?xml version="1.0" encoding="UTF-8"?>
<svg xmlns="http://www.w3.org/2000/svg" xmlns:xlink="http://www.w3.org/1999/xlink" width="56.712pt" height="9.734pt" viewBox="0 0 56.712 9.734">
<defs>
<clipPath id="clip-0">
<path clip-rule="nonzero" d="M 0 5 L 56.566406 5 L 56.566406 6 L 0 6 Z M 0 5 "/>
</clipPath>
<clipPath id="clip-1">
<path clip-rule="nonzero" d="M 18 1 L 39 1 L 39 9.601562 L 18 9.601562 Z M 18 1 "/>
</clipPath>
<clipPath id="clip-2">
<path clip-rule="nonzero" d="M 17 0 L 39 0 L 39 9.601562 L 17 9.601562 Z M 17 0 "/>
</clipPath>
</defs>
<g clip-path="url(#clip-0)">
<path fill="none" stroke-width="0.3985" stroke-linecap="butt" stroke-linejoin="miter" stroke="rgb(0%, 0%, 0%)" stroke-opacity="1" stroke-miterlimit="10" d="M -0.00171875 0.000625 L 18.424063 0.000625 M 38.267813 0.000625 L 56.693594 0.000625 " transform="matrix(1, 0, 0, -1, -0.135, 5.235)"/>
</g>
<g clip-path="url(#clip-1)">
<path fill-rule="nonzero" fill="rgb(70.001221%, 90.351868%, 98.118591%)" fill-opacity="1" d="M 18.289062 1.265625 L 38.132812 1.265625 L 38.132812 9.203125 L 18.289062 9.203125 Z M 18.289062 1.265625 "/>
</g>
<g clip-path="url(#clip-2)">
<path fill="none" stroke-width="0.797" stroke-linecap="butt" stroke-linejoin="miter" stroke="rgb(0%, 0%, 0%)" stroke-opacity="1" stroke-miterlimit="10" d="M 18.424063 3.969375 L 38.267813 3.969375 L 38.267813 -3.968125 L 18.424063 -3.968125 Z M 18.424063 3.969375 " transform="matrix(1, 0, 0, -1, -0.135, 5.235)"/>
</g>
<path fill="none" stroke-width="0.3985" stroke-linecap="butt" stroke-linejoin="miter" stroke="rgb(0%, 0%, 0%)" stroke-opacity="1" stroke-miterlimit="10" d="M 18.424063 0.000625 L 38.267813 0.000625 " transform="matrix(1, 0, 0, -1, -0.135, 5.235)"/>
</svg>
