<?xml version="1.0" encoding="UTF-8"?>
<svg xmlns="http://www.w3.org/2000/svg" xmlns:xlink="http://www.w3.org/1999/xlink" width="334.646pt" height="53.794pt" viewBox="0 0 334.646 53.794">
<defs>
<clipPath id="clip-0">
<path clip-rule="nonzero" d="M 34 29 L 58 29 L 58 53.691406 L 34 53.691406 Z M 34 29 "/>
</clipPath>
<clipPath id="clip-1">
<path clip-rule="nonzero" d="M 71 29 L 96 29 L 96 53.691406 L 71 53.691406 Z M 71 29 "/>
</clipPath>
<clipPath id="clip-2">
<path clip-rule="nonzero" d="M 146 29 L 170 29 L 170 53.691406 L 146 53.691406 Z M 146 29 "/>
</clipPath>
<clipPath id="clip-3">
<path clip-rule="nonzero" d="M 204 29 L 228 29 L 228 53.691406 L 204 53.691406 Z M 204 29 "/>
</clipPath>
<clipPath id="clip-4">
<path clip-rule="nonzero" d="M 241 29 L 266 29 L 266 53.691406 L 241 53.691406 Z M 241 29 "/>
</clipPath>
<clipPath id="clip-5">
<path clip-rule="nonzero" d="M 316 3 L 334.46875 3 L 334.46875 35 L 316 35 Z M 316 3 "/>
</clipPath>
<clipPath id="clip-6">
<path clip-rule="nonzero" d="M 316 29 L 334.46875 29 L 334.46875 53.691406 L 316 53.691406 Z M 316 29 "/>
</clipPath>
</defs>
<path fill="none" stroke-width="0.3985" stroke-linecap="butt" stroke-linejoin="miter" stroke="rgb(0%, 0%, 0%)" stroke-opacity="1" stroke-miterlimit="10" d="M 0.00003125 -0.00125 L 28.347688 -0.00125 M 37.394563 -0.00125 L 65.742219 -0.00125 M 74.789094 -0.00125 L 103.13675 -0.00125 M 112.187531 8.729219 L 140.531281 8.729219 " transform="matrix(1, 0, 0, -1, -0.168, 31.655)"/>
<path fill="none" stroke-width="0.3985" stroke-linecap="butt" stroke-linejoin="miter" stroke="rgb(0%, 0%, 0%)" stroke-opacity="1" stroke-miterlimit="10" d="M 52.160188 22.026094 L 52.160188 9.822969 L 40.253938 3.272187 " transform="matrix(1, 0, 0, -1, -0.168, 31.655)"/>
<path fill="none" stroke-width="0.797" stroke-linecap="butt" stroke-linejoin="miter" stroke="rgb(0%, 0%, 0%)" stroke-opacity="1" stroke-miterlimit="10" d="M 37.394563 8.928437 L 37.394563 -8.930938 " transform="matrix(1, 0, 0, -1, -0.168, 31.655)"/>
<path fill="none" stroke-width="0.797" stroke-linecap="butt" stroke-linejoin="miter" stroke="rgb(0%, 0%, 0%)" stroke-opacity="1" stroke-miterlimit="10" d="M 40.253938 8.928437 L 40.253938 -8.930938 " transform="matrix(1, 0, 0, -1, -0.168, 31.655)"/>
<g clip-path="url(#clip-0)">
<path fill="none" stroke-width="0.3985" stroke-linecap="butt" stroke-linejoin="miter" stroke="rgb(0%, 0%, 0%)" stroke-opacity="1" stroke-miterlimit="10" d="M 40.253938 -3.274688 L 52.160188 -9.821563 L 52.160188 -22.024688 " transform="matrix(1, 0, 0, -1, -0.168, 31.655)"/>
</g>
<path fill-rule="nonzero" fill="rgb(0%, 0%, 0%)" fill-opacity="1" d="M 44.339844 37.269531 L 45.445312 35.265625 L 48.820312 39.734375 L 43.238281 39.273438 Z M 44.339844 37.269531 "/>
<path fill="none" stroke-width="0.3985" stroke-linecap="butt" stroke-linejoin="miter" stroke="rgb(0%, 0%, 0%)" stroke-opacity="1" stroke-miterlimit="10" d="M 37.394563 -0.00125 L 28.148469 -0.00125 " transform="matrix(1, 0, 0, -1, -0.168, 31.655)"/>
<path fill="none" stroke-width="0.3985" stroke-linecap="butt" stroke-linejoin="miter" stroke="rgb(0%, 0%, 0%)" stroke-opacity="1" stroke-miterlimit="10" d="M 89.554719 22.026094 L 89.554719 9.822969 L 77.648469 3.272187 " transform="matrix(1, 0, 0, -1, -0.168, 31.655)"/>
<path fill="none" stroke-width="0.797" stroke-linecap="butt" stroke-linejoin="miter" stroke="rgb(0%, 0%, 0%)" stroke-opacity="1" stroke-miterlimit="10" d="M 74.789094 8.928437 L 74.789094 -8.930938 " transform="matrix(1, 0, 0, -1, -0.168, 31.655)"/>
<path fill="none" stroke-width="0.797" stroke-linecap="butt" stroke-linejoin="miter" stroke="rgb(0%, 0%, 0%)" stroke-opacity="1" stroke-miterlimit="10" d="M 77.648469 8.928437 L 77.648469 -8.930938 " transform="matrix(1, 0, 0, -1, -0.168, 31.655)"/>
<g clip-path="url(#clip-1)">
<path fill="none" stroke-width="0.3985" stroke-linecap="butt" stroke-linejoin="miter" stroke="rgb(0%, 0%, 0%)" stroke-opacity="1" stroke-miterlimit="10" d="M 77.648469 -3.274688 L 89.554719 -9.821563 L 89.554719 -22.024688 " transform="matrix(1, 0, 0, -1, -0.168, 31.655)"/>
</g>
<path fill-rule="nonzero" fill="rgb(0%, 0%, 0%)" fill-opacity="1" d="M 85.128906 24.175781 L 86.230469 26.179688 L 80.652344 26.636719 L 84.027344 22.171875 Z M 85.128906 24.175781 "/>
<path fill="none" stroke-width="0.3985" stroke-linecap="butt" stroke-linejoin="miter" stroke="rgb(0%, 0%, 0%)" stroke-opacity="1" stroke-miterlimit="10" d="M 74.789094 -0.00125 L 65.543 -0.00125 " transform="matrix(1, 0, 0, -1, -0.168, 31.655)"/>
<path fill="none" stroke-width="0.3985" stroke-linecap="butt" stroke-linejoin="miter" stroke="rgb(0%, 0%, 0%)" stroke-opacity="1" stroke-miterlimit="10" d="M 126.94925 30.756562 L 126.94925 18.553437 L 115.043 12.002656 " transform="matrix(1, 0, 0, -1, -0.168, 31.655)"/>
<path fill="none" stroke-width="0.797" stroke-linecap="butt" stroke-linejoin="miter" stroke="rgb(0%, 0%, 0%)" stroke-opacity="1" stroke-miterlimit="10" d="M 112.187531 17.658906 L 112.187531 -0.200469 " transform="matrix(1, 0, 0, -1, -0.168, 31.655)"/>
<path fill="none" stroke-width="0.797" stroke-linecap="butt" stroke-linejoin="miter" stroke="rgb(0%, 0%, 0%)" stroke-opacity="1" stroke-miterlimit="10" d="M 115.043 17.658906 L 115.043 -0.200469 " transform="matrix(1, 0, 0, -1, -0.168, 31.655)"/>
<path fill="none" stroke-width="0.3985" stroke-linecap="butt" stroke-linejoin="miter" stroke="rgb(0%, 0%, 0%)" stroke-opacity="1" stroke-miterlimit="10" d="M 115.043 5.455781 L 126.94925 -1.091094 L 126.94925 -13.294219 " transform="matrix(1, 0, 0, -1, -0.168, 31.655)"/>
<path fill-rule="nonzero" fill="rgb(0%, 0%, 0%)" fill-opacity="1" d="M 119.132812 28.539062 L 120.234375 26.535156 L 123.609375 31.003906 L 118.03125 30.542969 Z M 119.132812 28.539062 "/>
<path fill="none" stroke-width="0.3985" stroke-linecap="butt" stroke-linejoin="miter" stroke="rgb(0%, 0%, 0%)" stroke-opacity="1" stroke-miterlimit="10" d="M 112.187531 -0.00125 L 102.937531 -0.00125 " transform="matrix(1, 0, 0, -1, -0.168, 31.655)"/>
<path fill="none" stroke-width="0.3985" stroke-linecap="butt" stroke-linejoin="miter" stroke="rgb(0%, 0%, 0%)" stroke-opacity="1" stroke-miterlimit="10" d="M 164.343781 22.026094 L 164.343781 9.822969 L 152.437531 3.272187 " transform="matrix(1, 0, 0, -1, -0.168, 31.655)"/>
<path fill="none" stroke-width="0.797" stroke-linecap="butt" stroke-linejoin="miter" stroke="rgb(0%, 0%, 0%)" stroke-opacity="1" stroke-miterlimit="10" d="M 149.582063 8.928437 L 149.582063 -8.930938 " transform="matrix(1, 0, 0, -1, -0.168, 31.655)"/>
<path fill="none" stroke-width="0.797" stroke-linecap="butt" stroke-linejoin="miter" stroke="rgb(0%, 0%, 0%)" stroke-opacity="1" stroke-miterlimit="10" d="M 152.437531 8.928437 L 152.437531 -8.930938 " transform="matrix(1, 0, 0, -1, -0.168, 31.655)"/>
<g clip-path="url(#clip-2)">
<path fill="none" stroke-width="0.3985" stroke-linecap="butt" stroke-linejoin="miter" stroke="rgb(0%, 0%, 0%)" stroke-opacity="1" stroke-miterlimit="10" d="M 152.437531 -3.274688 L 164.343781 -9.821563 L 164.343781 -22.024688 " transform="matrix(1, 0, 0, -1, -0.168, 31.655)"/>
</g>
<path fill-rule="nonzero" fill="rgb(0%, 0%, 0%)" fill-opacity="1" d="M 159.917969 24.175781 L 161.019531 26.179688 L 155.441406 26.636719 L 158.816406 22.171875 Z M 159.917969 24.175781 "/>
<path fill="none" stroke-width="0.3985" stroke-linecap="butt" stroke-linejoin="miter" stroke="rgb(0%, 0%, 0%)" stroke-opacity="1" stroke-miterlimit="10" d="M 149.582063 8.729219 L 140.332063 8.729219 " transform="matrix(1, 0, 0, -1, -0.168, 31.655)"/>
<path fill="none" stroke-width="0.3985" stroke-linecap="butt" stroke-linejoin="miter" stroke="rgb(0%, 0%, 0%)" stroke-opacity="1" stroke-miterlimit="10" d="M 170.082063 -0.00125 L 198.425813 -0.00125 M 207.476594 -0.00125 L 235.82425 -0.00125 M 244.871125 -0.00125 L 273.218781 -0.00125 M 282.265656 6.549531 L 310.613313 6.549531 " transform="matrix(1, 0, 0, -1, -0.168, 31.655)"/>
<path fill="none" stroke-width="0.3985" stroke-linecap="butt" stroke-linejoin="miter" stroke="rgb(0%, 0%, 0%)" stroke-opacity="1" stroke-miterlimit="10" d="M 222.238313 22.026094 L 222.238313 9.822969 L 210.332063 3.272187 " transform="matrix(1, 0, 0, -1, -0.168, 31.655)"/>
<path fill="none" stroke-width="1.19551" stroke-linecap="butt" stroke-linejoin="miter" stroke="rgb(0%, 0%, 0%)" stroke-opacity="1" stroke-miterlimit="10" d="M 207.476594 6.74875 L 207.476594 -6.747344 " transform="matrix(1, 0, 0, -1, -0.168, 31.655)"/>
<path fill="none" stroke-width="0.797" stroke-linecap="butt" stroke-linejoin="miter" stroke="rgb(0%, 0%, 0%)" stroke-opacity="1" stroke-miterlimit="10" d="M 210.332063 8.928437 L 210.332063 -8.930938 " transform="matrix(1, 0, 0, -1, -0.168, 31.655)"/>
<g clip-path="url(#clip-3)">
<path fill="none" stroke-width="0.3985" stroke-linecap="butt" stroke-linejoin="miter" stroke="rgb(0%, 0%, 0%)" stroke-opacity="1" stroke-miterlimit="10" d="M 210.332063 -3.274688 L 222.238313 -9.821563 L 222.238313 -22.024688 " transform="matrix(1, 0, 0, -1, -0.168, 31.655)"/>
</g>
<path fill-rule="nonzero" fill="rgb(0%, 0%, 0%)" fill-opacity="1" d="M 214.421875 37.269531 L 215.523438 35.265625 L 218.898438 39.734375 L 213.320312 39.273438 Z M 214.421875 37.269531 "/>
<path fill="none" stroke-width="0.3985" stroke-linecap="butt" stroke-linejoin="miter" stroke="rgb(0%, 0%, 0%)" stroke-opacity="1" stroke-miterlimit="10" d="M 207.476594 -0.00125 L 198.226594 -0.00125 " transform="matrix(1, 0, 0, -1, -0.168, 31.655)"/>
<path fill="none" stroke-width="0.3985" stroke-linecap="butt" stroke-linejoin="miter" stroke="rgb(0%, 0%, 0%)" stroke-opacity="1" stroke-miterlimit="10" d="M 259.632844 22.026094 L 259.632844 9.822969 L 247.7305 3.272187 " transform="matrix(1, 0, 0, -1, -0.168, 31.655)"/>
<path fill="none" stroke-width="1.19551" stroke-linecap="butt" stroke-linejoin="miter" stroke="rgb(0%, 0%, 0%)" stroke-opacity="1" stroke-miterlimit="10" d="M 244.871125 6.74875 L 244.871125 -6.747344 " transform="matrix(1, 0, 0, -1, -0.168, 31.655)"/>
<path fill="none" stroke-width="0.797" stroke-linecap="butt" stroke-linejoin="miter" stroke="rgb(0%, 0%, 0%)" stroke-opacity="1" stroke-miterlimit="10" d="M 247.7305 8.928437 L 247.7305 -8.930938 " transform="matrix(1, 0, 0, -1, -0.168, 31.655)"/>
<g clip-path="url(#clip-4)">
<path fill="none" stroke-width="0.3985" stroke-linecap="butt" stroke-linejoin="miter" stroke="rgb(0%, 0%, 0%)" stroke-opacity="1" stroke-miterlimit="10" d="M 247.7305 -3.274688 L 259.632844 -9.821563 L 259.632844 -22.024688 " transform="matrix(1, 0, 0, -1, -0.168, 31.655)"/>
</g>
<path fill-rule="nonzero" fill="rgb(0%, 0%, 0%)" fill-opacity="1" d="M 255.210938 24.175781 L 256.3125 26.179688 L 250.730469 26.636719 L 254.105469 22.171875 Z M 255.210938 24.175781 "/>
<path fill="none" stroke-width="0.3985" stroke-linecap="butt" stroke-linejoin="miter" stroke="rgb(0%, 0%, 0%)" stroke-opacity="1" stroke-miterlimit="10" d="M 244.871125 -0.00125 L 235.625031 -0.00125 " transform="matrix(1, 0, 0, -1, -0.168, 31.655)"/>
<path fill="none" stroke-width="0.3985" stroke-linecap="butt" stroke-linejoin="miter" stroke="rgb(0%, 0%, 0%)" stroke-opacity="1" stroke-miterlimit="10" d="M 297.031281 28.572969 L 297.031281 16.369844 L 285.125031 9.822969 " transform="matrix(1, 0, 0, -1, -0.168, 31.655)"/>
<path fill="none" stroke-width="1.19551" stroke-linecap="butt" stroke-linejoin="miter" stroke="rgb(0%, 0%, 0%)" stroke-opacity="1" stroke-miterlimit="10" d="M 282.265656 13.295625 L 282.265656 -0.200469 " transform="matrix(1, 0, 0, -1, -0.168, 31.655)"/>
<path fill="none" stroke-width="0.797" stroke-linecap="butt" stroke-linejoin="miter" stroke="rgb(0%, 0%, 0%)" stroke-opacity="1" stroke-miterlimit="10" d="M 285.125031 15.479219 L 285.125031 -2.380156 " transform="matrix(1, 0, 0, -1, -0.168, 31.655)"/>
<path fill="none" stroke-width="0.3985" stroke-linecap="butt" stroke-linejoin="miter" stroke="rgb(0%, 0%, 0%)" stroke-opacity="1" stroke-miterlimit="10" d="M 285.125031 3.276094 L 297.031281 -3.274688 L 297.031281 -15.477813 " transform="matrix(1, 0, 0, -1, -0.168, 31.655)"/>
<path fill-rule="nonzero" fill="rgb(0%, 0%, 0%)" fill-opacity="1" d="M 289.214844 30.722656 L 290.316406 28.71875 L 293.691406 33.183594 L 288.109375 32.726562 Z M 289.214844 30.722656 "/>
<path fill="none" stroke-width="0.3985" stroke-linecap="butt" stroke-linejoin="miter" stroke="rgb(0%, 0%, 0%)" stroke-opacity="1" stroke-miterlimit="10" d="M 282.265656 -0.00125 L 273.019563 -0.00125 " transform="matrix(1, 0, 0, -1, -0.168, 31.655)"/>
<g clip-path="url(#clip-5)">
<path fill="none" stroke-width="0.3985" stroke-linecap="butt" stroke-linejoin="miter" stroke="rgb(0%, 0%, 0%)" stroke-opacity="1" stroke-miterlimit="10" d="M 334.425813 22.026094 L 334.425813 9.822969 L 322.519563 3.272187 " transform="matrix(1, 0, 0, -1, -0.168, 31.655)"/>
</g>
<path fill="none" stroke-width="1.19551" stroke-linecap="butt" stroke-linejoin="miter" stroke="rgb(0%, 0%, 0%)" stroke-opacity="1" stroke-miterlimit="10" d="M 319.660188 6.74875 L 319.660188 -6.747344 " transform="matrix(1, 0, 0, -1, -0.168, 31.655)"/>
<path fill="none" stroke-width="0.797" stroke-linecap="butt" stroke-linejoin="miter" stroke="rgb(0%, 0%, 0%)" stroke-opacity="1" stroke-miterlimit="10" d="M 322.519563 8.928437 L 322.519563 -8.930938 " transform="matrix(1, 0, 0, -1, -0.168, 31.655)"/>
<g clip-path="url(#clip-6)">
<path fill="none" stroke-width="0.3985" stroke-linecap="butt" stroke-linejoin="miter" stroke="rgb(0%, 0%, 0%)" stroke-opacity="1" stroke-miterlimit="10" d="M 322.519563 -3.274688 L 334.425813 -9.821563 L 334.425813 -22.024688 " transform="matrix(1, 0, 0, -1, -0.168, 31.655)"/>
</g>
<path fill-rule="nonzero" fill="rgb(0%, 0%, 0%)" fill-opacity="1" d="M 330 24.175781 L 331.101562 26.179688 L 325.523438 26.636719 L 328.898438 22.171875 Z M 330 24.175781 "/>
<path fill="none" stroke-width="0.3985" stroke-linecap="butt" stroke-linejoin="miter" stroke="rgb(0%, 0%, 0%)" stroke-opacity="1" stroke-miterlimit="10" d="M 319.660188 6.549531 L 310.414094 6.549531 " transform="matrix(1, 0, 0, -1, -0.168, 31.655)"/>
</svg>
