<?xml version="1.0" encoding="UTF-8"?>
<svg xmlns="http://www.w3.org/2000/svg" xmlns:xlink="http://www.w3.org/1999/xlink" width="131.112pt" height="13.726pt" viewBox="0 0 131.112 13.726">
<defs>
<clipPath id="clip-0">
<path clip-rule="nonzero" d="M 0 0 L 36 0 L 36 13.589844 L 0 13.589844 Z M 0 0 "/>
</clipPath>
<clipPath id="clip-1">
<path clip-rule="nonzero" d="M 7 0 L 33 0 L 33 13.589844 L 7 13.589844 Z M 7 0 "/>
</clipPath>
<clipPath id="clip-2">
<path clip-rule="nonzero" d="M 32 0 L 96 0 L 96 13.589844 L 32 13.589844 Z M 32 0 "/>
</clipPath>
<clipPath id="clip-3">
<path clip-rule="nonzero" d="M 67 0 L 93 0 L 93 13.589844 L 67 13.589844 Z M 67 0 "/>
</clipPath>
<clipPath id="clip-4">
<path clip-rule="nonzero" d="M 95 0 L 130.667969 0 L 130.667969 13.589844 L 95 13.589844 Z M 95 0 "/>
</clipPath>
<clipPath id="clip-5">
<path clip-rule="nonzero" d="M 114 0 L 130.667969 0 L 130.667969 13.589844 L 114 13.589844 Z M 114 0 "/>
</clipPath>
</defs>
<path fill="none" stroke-width="0.3985" stroke-linecap="butt" stroke-linejoin="miter" stroke="rgb(0%, 0%, 0%)" stroke-opacity="1" stroke-miterlimit="10" d="M 9.524344 0.00053125 L 32.204031 0.00053125 M 71.887625 0.00053125 L 94.563406 0.00053125 " transform="matrix(1, 0, 0, -1, 11.878, 7.231)"/>
<g clip-path="url(#clip-0)">
<path fill="none" stroke-width="0.797" stroke-linecap="butt" stroke-linejoin="miter" stroke="rgb(0%, 0%, 0%)" stroke-opacity="1" stroke-miterlimit="10" d="M 9.524344 5.953656 L -9.526437 5.953656 C -10.838937 5.953656 -11.905344 3.289594 -11.905344 0.00053125 C -11.905344 -3.288531 -10.838937 -5.952594 -9.526437 -5.952594 L 9.524344 -5.952594 C 10.84075 -5.952594 11.907156 -3.288531 11.907156 0.00053125 C 11.907156 3.289594 10.84075 5.953656 9.524344 5.953656 " transform="matrix(1, 0, 0, -1, 11.878, 7.231)"/>
</g>
<g clip-path="url(#clip-1)">
<path fill="none" stroke-width="0.797" stroke-linecap="butt" stroke-linejoin="miter" stroke="rgb(0%, 0%, 0%)" stroke-opacity="1" stroke-miterlimit="10" d="M 9.524344 5.953656 C 8.207938 5.953656 7.145438 3.289594 7.145438 0.00053125 C 7.145438 -3.288531 8.207938 -5.952594 9.524344 -5.952594 " transform="matrix(1, 0, 0, -1, 11.878, 7.231)"/>
</g>
<g clip-path="url(#clip-2)">
<path fill="none" stroke-width="0.797" stroke-linecap="butt" stroke-linejoin="miter" stroke="rgb(0%, 0%, 0%)" stroke-opacity="1" stroke-miterlimit="10" d="M 69.504813 5.953656 L 34.582938 5.953656 C 33.266531 5.953656 32.204031 3.289594 32.204031 0.00053125 C 32.204031 -3.288531 33.266531 -5.952594 34.582938 -5.952594 L 69.504813 -5.952594 C 70.821219 -5.952594 71.887625 -3.288531 71.887625 0.00053125 C 71.887625 3.289594 70.821219 5.953656 69.504813 5.953656 " transform="matrix(1, 0, 0, -1, 11.878, 7.231)"/>
</g>
<g clip-path="url(#clip-3)">
<path fill="none" stroke-width="0.797" stroke-linecap="butt" stroke-linejoin="miter" stroke="rgb(0%, 0%, 0%)" stroke-opacity="1" stroke-miterlimit="10" d="M 69.504813 5.953656 C 68.192313 5.953656 67.125906 3.289594 67.125906 0.00053125 C 67.125906 -3.288531 68.192313 -5.952594 69.504813 -5.952594 " transform="matrix(1, 0, 0, -1, 11.878, 7.231)"/>
</g>
<path fill="none" stroke-width="0.3985" stroke-linecap="butt" stroke-linejoin="miter" stroke="rgb(0%, 0%, 0%)" stroke-opacity="1" stroke-miterlimit="10" d="M 69.504813 0.00053125 L 71.887625 0.00053125 " transform="matrix(1, 0, 0, -1, 11.878, 7.231)"/>
<g clip-path="url(#clip-4)">
<path fill="none" stroke-width="0.797" stroke-linecap="butt" stroke-linejoin="miter" stroke="rgb(0%, 0%, 0%)" stroke-opacity="1" stroke-miterlimit="10" d="M 115.997 5.953656 L 96.946219 5.953656 C 95.629813 5.953656 94.563406 3.289594 94.563406 0.00053125 C 94.563406 -3.288531 95.629813 -5.952594 96.946219 -5.952594 L 115.997 -5.952594 C 117.3095 -5.952594 118.375906 -3.288531 118.375906 0.00053125 C 118.375906 3.289594 117.3095 5.953656 115.997 5.953656 " transform="matrix(1, 0, 0, -1, 11.878, 7.231)"/>
</g>
<g clip-path="url(#clip-5)">
<path fill="none" stroke-width="0.797" stroke-linecap="butt" stroke-linejoin="miter" stroke="rgb(0%, 0%, 0%)" stroke-opacity="1" stroke-miterlimit="10" d="M 115.997 5.953656 C 114.680594 5.953656 113.614188 3.289594 113.614188 0.00053125 C 113.614188 -3.288531 114.680594 -5.952594 115.997 -5.952594 " transform="matrix(1, 0, 0, -1, 11.878, 7.231)"/>
</g>
</svg>
