<?xml version="1.0" encoding="UTF-8"?>
<svg xmlns="http://www.w3.org/2000/svg" xmlns:xlink="http://www.w3.org/1999/xlink" width="128.713pt" height="161.128pt" viewBox="0 0 128.713 161.128">
<defs>
<clipPath id="clip-0">
<path clip-rule="nonzero" d="M 6 128 L 37 128 L 37 160.691406 L 6 160.691406 Z M 6 128 "/>
</clipPath>
<clipPath id="clip-1">
<path clip-rule="nonzero" d="M 0 117 L 49 117 L 49 160.691406 L 0 160.691406 Z M 0 117 "/>
</clipPath>
<clipPath id="clip-2">
<path clip-rule="nonzero" d="M 0 118 L 22 118 L 22 160.691406 L 0 160.691406 Z M 0 118 "/>
</clipPath>
<clipPath id="clip-3">
<path clip-rule="nonzero" d="M 84 8 L 128.570312 8 L 128.570312 25 L 84 25 Z M 84 8 "/>
</clipPath>
<clipPath id="clip-4">
<path clip-rule="nonzero" d="M 80 0 L 128.570312 0 L 128.570312 44 L 80 44 Z M 80 0 "/>
</clipPath>
<clipPath id="clip-5">
<path clip-rule="nonzero" d="M 84 51 L 128.570312 51 L 128.570312 68 L 84 68 Z M 84 51 "/>
</clipPath>
<clipPath id="clip-6">
<path clip-rule="nonzero" d="M 80 32 L 128.570312 32 L 128.570312 87 L 80 87 Z M 80 32 "/>
</clipPath>
<clipPath id="clip-7">
<path clip-rule="nonzero" d="M 84 93 L 128.570312 93 L 128.570312 111 L 84 111 Z M 84 93 "/>
</clipPath>
<clipPath id="clip-8">
<path clip-rule="nonzero" d="M 80 74 L 128.570312 74 L 128.570312 130 L 80 130 Z M 80 74 "/>
</clipPath>
<clipPath id="clip-9">
<path clip-rule="nonzero" d="M 84 136 L 128.570312 136 L 128.570312 153 L 84 153 Z M 84 136 "/>
</clipPath>
<clipPath id="clip-10">
<path clip-rule="nonzero" d="M 91 128 L 123 128 L 123 160.691406 L 91 160.691406 Z M 91 128 "/>
</clipPath>
<clipPath id="clip-11">
<path clip-rule="nonzero" d="M 80 117 L 128.570312 117 L 128.570312 160.691406 L 80 160.691406 Z M 80 117 "/>
</clipPath>
<clipPath id="clip-12">
<path clip-rule="nonzero" d="M 78 118 L 107 118 L 107 160.691406 L 78 160.691406 Z M 78 118 "/>
</clipPath>
</defs>
<path fill="none" stroke-width="0.3985" stroke-linecap="butt" stroke-linejoin="miter" stroke="rgb(0%, 0%, 0%)" stroke-opacity="1" stroke-miterlimit="10" d="M -39.287313 7.936031 L -27.357625 7.936031 M -39.287313 -7.938969 L -27.357625 -7.938969 M 4.365031 -0.00146875 L -2.181844 -0.00146875 " transform="matrix(1, 0, 0, -1, 39.1545, 16.854)"/>
<path fill-rule="nonzero" fill="rgb(100%, 94.898987%, 0%)" fill-opacity="1" stroke-width="0.797" stroke-linecap="butt" stroke-linejoin="miter" stroke="rgb(0%, 0%, 0%)" stroke-opacity="1" stroke-miterlimit="10" d="M -2.181844 -0.00146875 C -2.181844 8.768062 -15.865438 15.873531 -32.740438 15.873531 C -27.576375 12.682125 -24.912313 2.990719 -26.791219 -5.774906 C -27.799031 -10.466313 -29.974813 -14.165531 -32.740438 -15.872563 C -15.865438 -15.872563 -2.181844 -8.763188 -2.181844 0.0024375 Z M -2.181844 -0.00146875 " transform="matrix(1, 0, 0, -1, 39.1545, 16.854)"/>
<path fill="none" stroke-width="0.3985" stroke-linecap="butt" stroke-linejoin="miter" stroke="rgb(0%, 0%, 0%)" stroke-opacity="1" stroke-miterlimit="10" d="M -39.287313 -34.5835 L -27.357625 -34.5835 M -39.287313 -50.4585 L -27.357625 -50.4585 M 4.365031 -42.521 L -2.181844 -42.521 " transform="matrix(1, 0, 0, -1, 39.1545, 16.854)"/>
<path fill-rule="nonzero" fill="rgb(100%, 94.898987%, 0%)" fill-opacity="1" stroke-width="0.797" stroke-linecap="butt" stroke-linejoin="miter" stroke="rgb(0%, 0%, 0%)" stroke-opacity="1" stroke-miterlimit="10" d="M -5.455281 -42.521 C -5.455281 -33.751469 -17.670125 -26.646 -32.740438 -26.646 C -27.576375 -29.837406 -24.912313 -39.528813 -26.791219 -48.298344 C -27.799031 -52.98975 -29.974813 -56.685063 -32.740438 -58.392094 C -17.670125 -58.392094 -5.455281 -51.286625 -5.455281 -42.517094 Z M -2.181844 -42.521 C -2.181844 -41.61475 -2.916219 -40.884281 -3.818563 -40.884281 C -4.724813 -40.884281 -5.455281 -41.61475 -5.455281 -42.521 C -5.455281 -43.423344 -4.724813 -44.157719 -3.818563 -44.157719 C -2.916219 -44.157719 -2.181844 -43.423344 -2.181844 -42.521 Z M -2.181844 -42.521 " transform="matrix(1, 0, 0, -1, 39.1545, 16.854)"/>
<path fill="none" stroke-width="0.3985" stroke-linecap="butt" stroke-linejoin="miter" stroke="rgb(0%, 0%, 0%)" stroke-opacity="1" stroke-miterlimit="10" d="M -39.287313 -77.103031 L -30.361531 -77.103031 M -39.287313 -92.978031 L -30.361531 -92.978031 M 4.365031 -85.040531 L -2.181844 -85.040531 " transform="matrix(1, 0, 0, -1, 39.1545, 16.854)"/>
<path fill-rule="nonzero" fill="rgb(100%, 94.898987%, 0%)" fill-opacity="1" stroke-width="0.797" stroke-linecap="butt" stroke-linejoin="miter" stroke="rgb(0%, 0%, 0%)" stroke-opacity="1" stroke-miterlimit="10" d="M -2.181844 -85.040531 C -2.181844 -76.274906 -15.865438 -69.165531 -32.740438 -69.165531 C -27.576375 -72.356938 -24.912313 -82.048344 -26.791219 -90.817875 C -27.799031 -95.509281 -29.974813 -99.204594 -32.740438 -100.911625 C -15.865438 -100.911625 -2.181844 -93.806156 -2.181844 -85.036625 Z M -2.181844 -85.040531 " transform="matrix(1, 0, 0, -1, 39.1545, 16.854)"/>
<path fill="none" stroke-width="0.797" stroke-linecap="butt" stroke-linejoin="miter" stroke="rgb(0%, 0%, 0%)" stroke-opacity="1" stroke-miterlimit="10" d="M -34.924031 -69.915531 C -30.170125 -72.954594 -27.720906 -82.192875 -29.451375 -90.544438 C -30.377156 -95.017094 -32.381063 -98.536625 -34.924031 -100.165531 " transform="matrix(1, 0, 0, -1, 39.1545, 16.854)"/>
<path fill="none" stroke-width="0.3985" stroke-linecap="butt" stroke-linejoin="miter" stroke="rgb(0%, 0%, 0%)" stroke-opacity="1" stroke-miterlimit="10" d="M -39.287313 -119.622563 L -30.361531 -119.622563 M -39.287313 -135.497563 L -30.361531 -135.497563 M 4.365031 -127.560063 L -2.181844 -127.560063 " transform="matrix(1, 0, 0, -1, 39.1545, 16.854)"/>
<g clip-path="url(#clip-0)">
<path fill-rule="nonzero" fill="rgb(100%, 94.898987%, 0%)" fill-opacity="1" d="M 33.699219 144.414062 C 33.699219 135.648438 21.484375 128.539062 6.414062 128.539062 C 11.578125 131.730469 14.242188 141.425781 12.363281 150.191406 C 11.355469 154.882812 9.179688 158.578125 6.414062 160.285156 C 21.484375 160.285156 33.699219 153.179688 33.699219 144.414062 Z M 36.972656 144.414062 C 36.972656 143.511719 36.238281 142.777344 35.335938 142.777344 C 34.429688 142.777344 33.699219 143.511719 33.699219 144.414062 C 33.699219 145.320312 34.429688 146.050781 35.335938 146.050781 C 36.238281 146.050781 36.972656 145.320312 36.972656 144.414062 Z M 36.972656 144.414062 "/>
</g>
<g clip-path="url(#clip-1)">
<path fill="none" stroke-width="0.797" stroke-linecap="butt" stroke-linejoin="miter" stroke="rgb(0%, 0%, 0%)" stroke-opacity="1" stroke-miterlimit="10" d="M -5.455281 -127.560063 C -5.455281 -118.794438 -17.670125 -111.685063 -32.740438 -111.685063 C -27.576375 -114.876469 -24.912313 -124.571781 -26.791219 -133.337406 C -27.799031 -138.028813 -29.974813 -141.724125 -32.740438 -143.431156 C -17.670125 -143.431156 -5.455281 -136.325688 -5.455281 -127.560063 Z M -2.181844 -127.560063 C -2.181844 -126.657719 -2.916219 -125.923344 -3.818563 -125.923344 C -4.724813 -125.923344 -5.455281 -126.657719 -5.455281 -127.560063 C -5.455281 -128.466313 -4.724813 -129.196781 -3.818563 -129.196781 C -2.916219 -129.196781 -2.181844 -128.466313 -2.181844 -127.560063 Z M -2.181844 -127.560063 " transform="matrix(1, 0, 0, -1, 39.1545, 16.854)"/>
</g>
<g clip-path="url(#clip-2)">
<path fill="none" stroke-width="0.797" stroke-linecap="butt" stroke-linejoin="miter" stroke="rgb(0%, 0%, 0%)" stroke-opacity="1" stroke-miterlimit="10" d="M -34.924031 -112.435063 C -30.170125 -115.478031 -27.720906 -124.712406 -29.451375 -133.063969 C -30.377156 -137.536625 -32.381063 -141.056156 -34.924031 -142.685063 " transform="matrix(1, 0, 0, -1, 39.1545, 16.854)"/>
</g>
<g clip-path="url(#clip-3)">
<path fill="none" stroke-width="0.3985" stroke-linecap="butt" stroke-linejoin="miter" stroke="rgb(0%, 0%, 0%)" stroke-opacity="1" stroke-miterlimit="10" d="M 45.75175 7.936031 L 57.681437 7.936031 M 45.75175 -7.938969 L 57.681437 -7.938969 M 89.404094 -0.00146875 L 82.857219 -0.00146875 " transform="matrix(1, 0, 0, -1, 39.1545, 16.854)"/>
</g>
<path fill-rule="nonzero" fill="rgb(100%, 94.898987%, 0%)" fill-opacity="1" d="M 91.453125 0.980469 C 96.621094 4.171875 99.28125 13.863281 97.402344 22.628906 C 96.398438 27.320312 94.21875 31.019531 91.453125 32.726562 C 113.28125 32.726562 113.28125 24.792969 122.011719 16.855469 C 113.28125 8.917969 113.28125 0.980469 91.453125 0.980469 Z M 91.453125 0.980469 "/>
<g clip-path="url(#clip-4)">
<path fill="none" stroke-width="0.797" stroke-linecap="butt" stroke-linejoin="miter" stroke="rgb(0%, 0%, 0%)" stroke-opacity="1" stroke-miterlimit="10" d="M 52.298625 15.873531 C 57.466594 12.682125 60.12675 2.990719 58.247844 -5.774906 C 57.243937 -10.466313 55.06425 -14.165531 52.298625 -15.872563 C 74.12675 -15.872563 74.12675 -7.938969 82.857219 -0.00146875 C 74.12675 7.936031 74.12675 15.873531 52.298625 15.873531 Z M 52.298625 15.873531 " transform="matrix(1, 0, 0, -1, 39.1545, 16.854)"/>
</g>
<g clip-path="url(#clip-5)">
<path fill="none" stroke-width="0.3985" stroke-linecap="butt" stroke-linejoin="miter" stroke="rgb(0%, 0%, 0%)" stroke-opacity="1" stroke-miterlimit="10" d="M 45.75175 -34.5835 L 57.681437 -34.5835 M 45.75175 -50.4585 L 57.681437 -50.4585 M 89.404094 -42.521 L 82.857219 -42.521 " transform="matrix(1, 0, 0, -1, 39.1545, 16.854)"/>
</g>
<path fill-rule="nonzero" fill="rgb(100%, 94.898987%, 0%)" fill-opacity="1" d="M 91.453125 43.5 C 96.621094 46.691406 99.28125 56.382812 97.402344 65.152344 C 96.398438 69.84375 94.21875 73.539062 91.453125 75.246094 C 113.28125 75.25 113.28125 67.3125 118.738281 59.375 C 113.28125 51.4375 113.28125 43.5 91.453125 43.5 Z M 122.011719 59.375 C 122.011719 58.46875 121.277344 57.738281 120.375 57.738281 C 119.472656 57.738281 118.738281 58.46875 118.738281 59.375 C 118.738281 60.277344 119.472656 61.011719 120.375 61.011719 C 121.277344 61.011719 122.011719 60.277344 122.011719 59.375 Z M 122.011719 59.375 "/>
<g clip-path="url(#clip-6)">
<path fill="none" stroke-width="0.797" stroke-linecap="butt" stroke-linejoin="miter" stroke="rgb(0%, 0%, 0%)" stroke-opacity="1" stroke-miterlimit="10" d="M 52.298625 -26.646 C 57.466594 -29.837406 60.12675 -39.528813 58.247844 -48.298344 C 57.243937 -52.98975 55.06425 -56.685063 52.298625 -58.392094 C 74.12675 -58.396 74.12675 -50.4585 79.583781 -42.521 C 74.12675 -34.5835 74.12675 -26.646 52.298625 -26.646 Z M 82.857219 -42.521 C 82.857219 -41.61475 82.122844 -40.884281 81.2205 -40.884281 C 80.318156 -40.884281 79.583781 -41.61475 79.583781 -42.521 C 79.583781 -43.423344 80.318156 -44.157719 81.2205 -44.157719 C 82.122844 -44.157719 82.857219 -43.423344 82.857219 -42.521 Z M 82.857219 -42.521 " transform="matrix(1, 0, 0, -1, 39.1545, 16.854)"/>
</g>
<g clip-path="url(#clip-7)">
<path fill="none" stroke-width="0.3985" stroke-linecap="butt" stroke-linejoin="miter" stroke="rgb(0%, 0%, 0%)" stroke-opacity="1" stroke-miterlimit="10" d="M 45.75175 -77.103031 L 54.677531 -77.103031 M 45.75175 -92.978031 L 54.677531 -92.978031 M 89.404094 -85.040531 L 82.857219 -85.040531 " transform="matrix(1, 0, 0, -1, 39.1545, 16.854)"/>
</g>
<path fill-rule="nonzero" fill="rgb(100%, 94.898987%, 0%)" fill-opacity="1" d="M 91.453125 86.019531 C 96.621094 89.210938 99.28125 98.902344 97.402344 107.671875 C 96.398438 112.363281 94.21875 116.058594 91.453125 117.765625 C 113.28125 117.769531 113.28125 109.832031 122.011719 101.894531 C 113.28125 93.957031 113.28125 86.019531 91.453125 86.019531 Z M 91.453125 86.019531 "/>
<g clip-path="url(#clip-8)">
<path fill="none" stroke-width="0.797" stroke-linecap="butt" stroke-linejoin="miter" stroke="rgb(0%, 0%, 0%)" stroke-opacity="1" stroke-miterlimit="10" d="M 52.298625 -69.165531 C 57.466594 -72.356938 60.12675 -82.048344 58.247844 -90.817875 C 57.243937 -95.509281 55.06425 -99.204594 52.298625 -100.911625 C 74.12675 -100.915531 74.12675 -92.978031 82.857219 -85.040531 C 74.12675 -77.103031 74.12675 -69.165531 52.298625 -69.165531 Z M 52.298625 -69.165531 " transform="matrix(1, 0, 0, -1, 39.1545, 16.854)"/>
</g>
<path fill="none" stroke-width="0.797" stroke-linecap="butt" stroke-linejoin="miter" stroke="rgb(0%, 0%, 0%)" stroke-opacity="1" stroke-miterlimit="10" d="M 50.118937 -69.915531 C 54.868937 -72.954594 57.318156 -82.192875 55.587687 -90.544438 C 54.661906 -95.017094 52.658 -98.536625 50.118937 -100.165531 " transform="matrix(1, 0, 0, -1, 39.1545, 16.854)"/>
<g clip-path="url(#clip-9)">
<path fill="none" stroke-width="0.3985" stroke-linecap="butt" stroke-linejoin="miter" stroke="rgb(0%, 0%, 0%)" stroke-opacity="1" stroke-miterlimit="10" d="M 45.75175 -119.622563 L 54.677531 -119.622563 M 45.75175 -135.497563 L 54.677531 -135.497563 M 89.404094 -127.560063 L 82.857219 -127.560063 " transform="matrix(1, 0, 0, -1, 39.1545, 16.854)"/>
</g>
<g clip-path="url(#clip-10)">
<path fill-rule="nonzero" fill="rgb(100%, 94.898987%, 0%)" fill-opacity="1" d="M 91.453125 128.539062 C 96.621094 131.730469 99.28125 141.425781 97.402344 150.191406 C 96.398438 154.882812 94.21875 158.578125 91.453125 160.285156 C 113.28125 160.289062 113.28125 152.351562 118.738281 144.414062 C 113.28125 136.476562 113.28125 128.539062 91.453125 128.539062 Z M 122.011719 144.414062 C 122.011719 143.511719 121.277344 142.777344 120.375 142.777344 C 119.472656 142.777344 118.738281 143.511719 118.738281 144.414062 C 118.738281 145.320312 119.472656 146.050781 120.375 146.050781 C 121.277344 146.050781 122.011719 145.320312 122.011719 144.414062 Z M 122.011719 144.414062 "/>
</g>
<g clip-path="url(#clip-11)">
<path fill="none" stroke-width="0.797" stroke-linecap="butt" stroke-linejoin="miter" stroke="rgb(0%, 0%, 0%)" stroke-opacity="1" stroke-miterlimit="10" d="M 52.298625 -111.685063 C 57.466594 -114.876469 60.12675 -124.571781 58.247844 -133.337406 C 57.243937 -138.028813 55.06425 -141.724125 52.298625 -143.431156 C 74.12675 -143.435063 74.12675 -135.497563 79.583781 -127.560063 C 74.12675 -119.622563 74.12675 -111.685063 52.298625 -111.685063 Z M 82.857219 -127.560063 C 82.857219 -126.657719 82.122844 -125.923344 81.2205 -125.923344 C 80.318156 -125.923344 79.583781 -126.657719 79.583781 -127.560063 C 79.583781 -128.466313 80.318156 -129.196781 81.2205 -129.196781 C 82.122844 -129.196781 82.857219 -128.466313 82.857219 -127.560063 Z M 82.857219 -127.560063 " transform="matrix(1, 0, 0, -1, 39.1545, 16.854)"/>
</g>
<g clip-path="url(#clip-12)">
<path fill="none" stroke-width="0.797" stroke-linecap="butt" stroke-linejoin="miter" stroke="rgb(0%, 0%, 0%)" stroke-opacity="1" stroke-miterlimit="10" d="M 50.118937 -112.435063 C 54.868937 -115.478031 57.318156 -124.712406 55.587687 -133.063969 C 54.661906 -137.536625 52.658 -141.056156 50.118937 -142.685063 " transform="matrix(1, 0, 0, -1, 39.1545, 16.854)"/>
</g>
</svg>
