<?xml version="1.0" encoding="UTF-8"?>
<svg xmlns="http://www.w3.org/2000/svg" xmlns:xlink="http://www.w3.org/1999/xlink" width="56.712pt" height="114.616pt" viewBox="0 0 56.712 114.616">
<defs>
<clipPath id="clip-0">
<path clip-rule="nonzero" d="M 0 14 L 56.566406 14 L 56.566406 16 L 0 16 Z M 0 14 "/>
</clipPath>
<clipPath id="clip-1">
<path clip-rule="nonzero" d="M 0 26 L 56.566406 26 L 56.566406 89 L 0 89 Z M 0 26 "/>
</clipPath>
<clipPath id="clip-2">
<path clip-rule="nonzero" d="M 13 85 L 43 85 L 43 114.425781 L 13 114.425781 Z M 13 85 "/>
</clipPath>
<clipPath id="clip-3">
<path clip-rule="nonzero" d="M 1 73 L 55 73 L 55 114.425781 L 1 114.425781 Z M 1 73 "/>
</clipPath>
<clipPath id="clip-4">
<path clip-rule="nonzero" d="M 4 76 L 52 76 L 52 114.425781 L 4 114.425781 Z M 4 76 "/>
</clipPath>
<clipPath id="clip-5">
<path clip-rule="nonzero" d="M 7 104 L 22 104 L 22 114.425781 L 7 114.425781 Z M 7 104 "/>
</clipPath>
</defs>
<g clip-path="url(#clip-0)">
<path fill="none" stroke-width="0.3985" stroke-linecap="butt" stroke-linejoin="miter" stroke="rgb(0%, 0%, 0%)" stroke-opacity="1" stroke-miterlimit="10" d="M -0.00171875 85.039344 L 14.455313 85.039344 M 42.236563 85.039344 L 56.693594 85.039344 " transform="matrix(1, 0, 0, -1, -0.135, 100.137)"/>
</g>
<path fill="none" stroke-width="0.797" stroke-linecap="butt" stroke-linejoin="miter" stroke="rgb(0%, 0%, 0%)" stroke-opacity="1" stroke-miterlimit="10" d="M 14.455313 98.929969 L 42.236563 98.929969 L 42.236563 71.148719 L 14.455313 71.148719 Z M 14.455313 98.929969 " transform="matrix(1, 0, 0, -1, -0.135, 100.137)"/>
<path fill="none" stroke-width="0.3985" stroke-linecap="butt" stroke-linejoin="miter" stroke="rgb(100%, 50%, 0%)" stroke-opacity="1" stroke-miterlimit="10" d="M 21.400625 91.984656 C 22.533438 93.762 23.615469 95.457312 24.873281 95.457312 C 26.131094 95.457312 27.213125 93.762 28.345938 91.984656 C 29.47875 90.207312 30.560781 88.512 31.818594 88.512 C 33.076406 88.512 34.158438 90.207312 35.29125 91.984656 M 30.431875 94.070594 L 26.263906 89.902625 " transform="matrix(1, 0, 0, -1, -0.135, 100.137)"/>
<path fill="none" stroke-width="0.3985" stroke-linecap="butt" stroke-linejoin="miter" stroke="rgb(100%, 50%, 0%)" stroke-opacity="1" stroke-miterlimit="10" d="M 21.400625 85.039344 C 22.533438 86.816687 23.615469 88.512 24.873281 88.512 C 26.131094 88.512 27.213125 86.816687 28.345938 85.039344 C 29.47875 83.262 30.560781 81.566687 31.818594 81.566687 C 33.076406 81.566687 34.158438 83.262 35.29125 85.039344 " transform="matrix(1, 0, 0, -1, -0.135, 100.137)"/>
<path fill="none" stroke-width="0.3985" stroke-linecap="butt" stroke-linejoin="miter" stroke="rgb(100%, 50%, 0%)" stroke-opacity="1" stroke-miterlimit="10" d="M 21.400625 78.094031 C 22.533438 79.875281 23.615469 81.566687 24.873281 81.566687 C 26.131094 81.566687 27.213125 79.875281 28.345938 78.094031 C 29.47875 76.316687 30.560781 74.621375 31.818594 74.621375 C 33.076406 74.621375 34.158438 76.316687 35.29125 78.094031 M 30.431875 80.179969 L 26.263906 76.012 " transform="matrix(1, 0, 0, -1, -0.135, 100.137)"/>
<path fill="none" stroke-width="0.797" stroke-linecap="butt" stroke-linejoin="miter" stroke="rgb(0%, 0%, 0%)" stroke-opacity="1" stroke-miterlimit="10" d="M 14.455313 56.410437 L 42.236563 56.410437 L 42.236563 28.629187 L 14.455313 28.629187 Z M 14.455313 56.410437 " transform="matrix(1, 0, 0, -1, -0.135, 100.137)"/>
<g clip-path="url(#clip-1)">
<path fill="none" stroke-width="1.19551" stroke-linecap="butt" stroke-linejoin="miter" stroke="rgb(100%, 50%, 0%)" stroke-opacity="1" stroke-miterlimit="10" d="M 14.455313 56.410437 L 42.236563 28.629187 M 42.236563 56.410437 L 14.455313 28.629187 M 21.400625 56.410437 L 42.236563 35.5745 M 35.29125 56.410437 L 14.455313 35.5745 M 28.345938 56.410437 L 42.236563 42.519812 M 28.345938 56.410437 L 14.455313 42.519812 M 35.29125 56.410437 L 42.236563 49.465125 M 21.400625 56.410437 L 14.455313 49.465125 M 35.29125 28.629187 L 42.236563 35.5745 M 21.400625 28.629187 L 14.455313 35.5745 M 28.345938 28.629187 L 42.236563 42.519812 M 28.345938 28.629187 L 14.455313 42.519812 M 21.400625 28.629187 L 42.236563 49.465125 M 35.29125 28.629187 L 14.455313 49.465125 " transform="matrix(1, 0, 0, -1, -0.135, 100.137)"/>
</g>
<g clip-path="url(#clip-2)">
<path fill="none" stroke-width="0.797" stroke-linecap="butt" stroke-linejoin="miter" stroke="rgb(0%, 0%, 0%)" stroke-opacity="1" stroke-miterlimit="10" d="M 14.455313 13.890906 L 42.236563 13.890906 L 42.236563 -13.890344 L 14.455313 -13.890344 Z M 14.455313 13.890906 " transform="matrix(1, 0, 0, -1, -0.135, 100.137)"/>
</g>
<g clip-path="url(#clip-3)">
<path fill="none" stroke-width="1.19551" stroke-linecap="butt" stroke-linejoin="miter" stroke="rgb(100%, 50%, 0%)" stroke-opacity="1" stroke-miterlimit="10" d="M 38.068594 0.00028125 C 38.068594 5.371375 33.717031 9.722937 28.345938 9.722937 C 22.97875 9.722937 18.623281 5.371375 18.623281 0.00028125 C 18.623281 -5.370813 22.97875 -9.722375 28.345938 -9.722375 C 33.717031 -9.722375 38.068594 -5.370813 38.068594 0.00028125 Z M 38.068594 0.00028125 " transform="matrix(1, 0, 0, -1, -0.135, 100.137)"/>
</g>
<g clip-path="url(#clip-4)">
<path fill="none" stroke-width="1.19551" stroke-linecap="butt" stroke-linejoin="miter" stroke="rgb(100%, 50%, 0%)" stroke-opacity="1" stroke-miterlimit="10" d="M 21.470938 6.875281 L 35.220938 -6.874719 M 35.220938 6.875281 L 21.470938 -6.874719 " transform="matrix(1, 0, 0, -1, -0.135, 100.137)"/>
</g>
<path fill-rule="nonzero" fill="rgb(100%, 0%, 0%)" fill-opacity="1" stroke-width="0.3985" stroke-linecap="butt" stroke-linejoin="miter" stroke="rgb(100%, 0%, 0%)" stroke-opacity="1" stroke-miterlimit="10" d="M 16.045156 96.152625 C 16.045156 97.027625 15.334219 97.738562 14.455313 97.738562 C 13.580313 97.738562 12.869375 97.027625 12.869375 96.152625 C 12.869375 95.277625 13.580313 94.566687 14.455313 94.566687 C 15.334219 94.566687 16.045156 95.277625 16.045156 96.152625 Z M 16.045156 96.152625 " transform="matrix(1, 0, 0, -1, -0.135, 100.137)"/>
<path fill-rule="nonzero" fill="rgb(0%, 0%, 100%)" fill-opacity="1" stroke-width="0.3985" stroke-linecap="butt" stroke-linejoin="miter" stroke="rgb(0%, 0%, 100%)" stroke-opacity="1" stroke-miterlimit="10" d="M 16.045156 73.929969 C 16.045156 74.804969 15.334219 75.515906 14.455313 75.515906 C 13.580313 75.515906 12.869375 74.804969 12.869375 73.929969 C 12.869375 73.051062 13.580313 72.340125 14.455313 72.340125 C 15.334219 72.340125 16.045156 73.051062 16.045156 73.929969 Z M 16.045156 73.929969 " transform="matrix(1, 0, 0, -1, -0.135, 100.137)"/>
<path fill-rule="nonzero" fill="rgb(0%, 100%, 0%)" fill-opacity="1" stroke-width="0.3985" stroke-linecap="butt" stroke-linejoin="miter" stroke="rgb(0%, 100%, 0%)" stroke-opacity="1" stroke-miterlimit="10" d="M 43.8225 87.816687 C 43.8225 88.695594 43.111563 89.406531 42.236563 89.406531 C 41.361563 89.406531 40.650625 88.695594 40.650625 87.816687 C 40.650625 86.941687 41.361563 86.23075 42.236563 86.23075 C 43.111563 86.23075 43.8225 86.941687 43.8225 87.816687 Z M 43.8225 87.816687 " transform="matrix(1, 0, 0, -1, -0.135, 100.137)"/>
<path fill-rule="nonzero" fill="rgb(100%, 50%, 0%)" fill-opacity="1" stroke-width="0.3985" stroke-linecap="butt" stroke-linejoin="miter" stroke="rgb(100%, 50%, 0%)" stroke-opacity="1" stroke-miterlimit="10" d="M 43.8225 82.262 C 43.8225 83.140906 43.111563 83.847937 42.236563 83.847937 C 41.361563 83.847937 40.650625 83.140906 40.650625 82.262 C 40.650625 81.387 41.361563 80.676062 42.236563 80.676062 C 43.111563 80.676062 43.8225 81.387 43.8225 82.262 Z M 43.8225 82.262 " transform="matrix(1, 0, 0, -1, -0.135, 100.137)"/>
<path fill-rule="nonzero" fill="rgb(100%, 0%, 0%)" fill-opacity="1" stroke-width="0.3985" stroke-linecap="butt" stroke-linejoin="miter" stroke="rgb(100%, 0%, 0%)" stroke-opacity="1" stroke-miterlimit="10" d="M 16.045156 11.113562 C 16.045156 11.988562 15.334219 12.6995 14.455313 12.6995 C 13.580313 12.6995 12.869375 11.988562 12.869375 11.113562 C 12.869375 10.234656 13.580313 9.523719 14.455313 9.523719 C 15.334219 9.523719 16.045156 10.234656 16.045156 11.113562 Z M 16.045156 11.113562 " transform="matrix(1, 0, 0, -1, -0.135, 100.137)"/>
<path fill-rule="nonzero" fill="rgb(0%, 0%, 100%)" fill-opacity="1" d="M 15.910156 111.25 C 15.910156 110.371094 15.199219 109.660156 14.320312 109.660156 C 13.445312 109.660156 12.734375 110.371094 12.734375 111.25 C 12.734375 112.125 13.445312 112.835938 14.320312 112.835938 C 15.199219 112.835938 15.910156 112.125 15.910156 111.25 Z M 15.910156 111.25 "/>
<g clip-path="url(#clip-5)">
<path fill="none" stroke-width="0.3985" stroke-linecap="butt" stroke-linejoin="miter" stroke="rgb(0%, 0%, 100%)" stroke-opacity="1" stroke-miterlimit="10" d="M 16.045156 -11.113 C 16.045156 -10.234094 15.334219 -9.523156 14.455313 -9.523156 C 13.580313 -9.523156 12.869375 -10.234094 12.869375 -11.113 C 12.869375 -11.988 13.580313 -12.698938 14.455313 -12.698938 C 15.334219 -12.698938 16.045156 -11.988 16.045156 -11.113 Z M 16.045156 -11.113 " transform="matrix(1, 0, 0, -1, -0.135, 100.137)"/>
</g>
<path fill-rule="nonzero" fill="rgb(0%, 100%, 0%)" fill-opacity="1" stroke-width="0.3985" stroke-linecap="butt" stroke-linejoin="miter" stroke="rgb(0%, 100%, 0%)" stroke-opacity="1" stroke-miterlimit="10" d="M 43.8225 2.777625 C 43.8225 3.652625 43.111563 4.363562 42.236563 4.363562 C 41.361563 4.363562 40.650625 3.652625 40.650625 2.777625 C 40.650625 1.902625 41.361563 1.191687 42.236563 1.191687 C 43.111563 1.191687 43.8225 1.902625 43.8225 2.777625 Z M 43.8225 2.777625 " transform="matrix(1, 0, 0, -1, -0.135, 100.137)"/>
<path fill-rule="nonzero" fill="rgb(100%, 50%, 0%)" fill-opacity="1" stroke-width="0.3985" stroke-linecap="butt" stroke-linejoin="miter" stroke="rgb(100%, 50%, 0%)" stroke-opacity="1" stroke-miterlimit="10" d="M 43.8225 -2.777063 C 43.8225 -1.902063 43.111563 -1.191125 42.236563 -1.191125 C 41.361563 -1.191125 40.650625 -1.902063 40.650625 -2.777063 C 40.650625 -3.655969 41.361563 -4.366906 42.236563 -4.366906 C 43.111563 -4.366906 43.8225 -3.655969 43.8225 -2.777063 Z M 43.8225 -2.777063 " transform="matrix(1, 0, 0, -1, -0.135, 100.137)"/>
<path fill-rule="nonzero" fill="rgb(100%, 0%, 0%)" fill-opacity="1" stroke-width="0.3985" stroke-linecap="butt" stroke-linejoin="miter" stroke="rgb(100%, 0%, 0%)" stroke-opacity="1" stroke-miterlimit="10" d="M 16.045156 53.633094 C 16.045156 54.508094 15.334219 55.219031 14.455313 55.219031 C 13.580313 55.219031 12.869375 54.508094 12.869375 53.633094 C 12.869375 52.754187 13.580313 52.04325 14.455313 52.04325 C 15.334219 52.04325 16.045156 52.754187 16.045156 53.633094 Z M 16.045156 53.633094 " transform="matrix(1, 0, 0, -1, -0.135, 100.137)"/>
<path fill-rule="nonzero" fill="rgb(0%, 0%, 100%)" fill-opacity="1" stroke-width="0.3985" stroke-linecap="butt" stroke-linejoin="miter" stroke="rgb(0%, 0%, 100%)" stroke-opacity="1" stroke-miterlimit="10" d="M 16.045156 31.406531 C 16.045156 32.285437 15.334219 32.996375 14.455313 32.996375 C 13.580313 32.996375 12.869375 32.285437 12.869375 31.406531 C 12.869375 30.531531 13.580313 29.820594 14.455313 29.820594 C 15.334219 29.820594 16.045156 30.531531 16.045156 31.406531 Z M 16.045156 31.406531 " transform="matrix(1, 0, 0, -1, -0.135, 100.137)"/>
<path fill-rule="nonzero" fill="rgb(0%, 100%, 0%)" fill-opacity="1" stroke-width="0.3985" stroke-linecap="butt" stroke-linejoin="miter" stroke="rgb(0%, 100%, 0%)" stroke-opacity="1" stroke-miterlimit="10" d="M 43.8225 45.297156 C 43.8225 46.176062 43.111563 46.887 42.236563 46.887 C 41.361563 46.887 40.650625 46.176062 40.650625 45.297156 C 40.650625 44.422156 41.361563 43.711219 42.236563 43.711219 C 43.111563 43.711219 43.8225 44.422156 43.8225 45.297156 Z M 43.8225 45.297156 " transform="matrix(1, 0, 0, -1, -0.135, 100.137)"/>
<path fill-rule="nonzero" fill="rgb(100%, 50%, 0%)" fill-opacity="1" stroke-width="0.3985" stroke-linecap="butt" stroke-linejoin="miter" stroke="rgb(100%, 50%, 0%)" stroke-opacity="1" stroke-miterlimit="10" d="M 43.8225 39.742469 C 43.8225 40.617469 43.111563 41.328406 42.236563 41.328406 C 41.361563 41.328406 40.650625 40.617469 40.650625 39.742469 C 40.650625 38.867469 41.361563 38.156531 42.236563 38.156531 C 43.111563 38.156531 43.8225 38.867469 43.8225 39.742469 Z M 43.8225 39.742469 " transform="matrix(1, 0, 0, -1, -0.135, 100.137)"/>
</svg>
