<?xml version="1.0" encoding="UTF-8"?>
<svg xmlns="http://www.w3.org/2000/svg" xmlns:xlink="http://www.w3.org/1999/xlink" width="78.722pt" height="34.264pt" viewBox="0 0 78.722 34.264">
<defs>
<clipPath id="clip-0">
<path clip-rule="nonzero" d="M 0 0 L 13 0 L 13 33.894531 L 0 33.894531 Z M 0 0 "/>
</clipPath>
<clipPath id="clip-1">
<path clip-rule="nonzero" d="M 21 17 L 78.582031 17 L 78.582031 18 L 21 18 Z M 21 17 "/>
</clipPath>
</defs>
<g clip-path="url(#clip-0)">
<path fill="none" stroke-width="0.797" stroke-linecap="butt" stroke-linejoin="bevel" stroke="rgb(0%, 0%, 0%)" stroke-opacity="1" stroke-miterlimit="10" d="M -0.00009375 16.270906 L 5.953031 13.227938 L -5.953219 7.938875 L 5.953031 2.645906 L -5.953219 -2.647062 L 5.953031 -7.936125 L -5.953219 -13.229094 L -0.00009375 -16.272062 " transform="matrix(1, 0, 0, -1, 6.004, 17.267)"/>
</g>
<path fill="none" stroke-width="0.797" stroke-linecap="butt" stroke-linejoin="bevel" stroke="rgb(0%, 0%, 0%)" stroke-opacity="1" stroke-miterlimit="10" d="M 15.874906 0.001375 L 9.062406 0.001375 " transform="matrix(1, 0, 0, -1, 6.004, 17.267)"/>
<path fill-rule="nonzero" fill="rgb(0%, 0%, 0%)" fill-opacity="1" d="M 11.957031 17.265625 C 13.253906 17.527344 15.582031 18.042969 17.136719 19.210938 C 15.84375 17.785156 15.84375 16.75 17.136719 15.324219 C 15.582031 16.488281 13.253906 17.007812 11.957031 17.265625 Z M 11.957031 17.265625 "/>
<g clip-path="url(#clip-1)">
<path fill="none" stroke-width="0.3985" stroke-linecap="butt" stroke-linejoin="miter" stroke="rgb(0%, 0%, 0%)" stroke-opacity="1" stroke-miterlimit="10" d="M 15.874906 0.001375 L 32.316312 0.001375 M 56.124906 0.001375 L 72.566312 0.001375 " transform="matrix(1, 0, 0, -1, 6.004, 17.267)"/>
</g>
<path fill="none" stroke-width="0.797" stroke-linecap="butt" stroke-linejoin="bevel" stroke="rgb(0%, 0%, 0%)" stroke-opacity="1" stroke-miterlimit="10" d="M 31.917875 -0.158781 C 31.917875 3.126375 33.550687 5.794344 35.566312 5.794344 C 37.585844 5.794344 39.218656 3.126375 39.218656 -0.158781 C 39.218656 -1.803312 38.554594 -3.135344 37.730375 -3.135344 C 36.910062 -3.135344 36.242094 -1.803312 36.242094 -0.158781 C 36.242094 3.126375 37.878812 5.794344 39.894437 5.794344 C 41.910062 5.794344 43.546781 3.126375 43.546781 -0.158781 C 43.546781 -1.803312 42.878812 -3.135344 42.0585 -3.135344 C 41.234281 -3.135344 40.570219 -1.803312 40.570219 -0.158781 C 40.570219 3.126375 42.203031 5.794344 44.222562 5.794344 C 46.238187 5.794344 47.871 3.126375 47.871 -0.158781 C 47.871 -1.803312 47.206937 -3.135344 46.382719 -3.135344 C 45.562406 -3.135344 44.894437 -1.803312 44.894437 -0.158781 C 44.894437 3.126375 46.531156 5.794344 48.546781 5.794344 C 50.562406 5.794344 52.199125 3.126375 52.199125 -0.158781 C 52.199125 -1.803312 51.531156 -3.135344 50.710844 -3.135344 C 49.890531 -3.135344 49.222562 -1.803312 49.222562 -0.158781 C 49.222562 3.126375 50.855375 5.794344 52.874906 5.794344 C 54.890531 5.794344 56.523344 3.126375 56.523344 -0.158781 " transform="matrix(1, 0, 0, -1, 6.004, 17.267)"/>
</svg>
