<?xml version="1.0" encoding="UTF-8"?>
<svg xmlns="http://www.w3.org/2000/svg" xmlns:xlink="http://www.w3.org/1999/xlink" width="56.712pt" height="13.474pt" viewBox="0 0 56.712 13.474">
<defs>
<clipPath id="clip-0">
<path clip-rule="nonzero" d="M 0 10 L 56.566406 10 L 56.566406 12 L 0 12 Z M 0 10 "/>
</clipPath>
<clipPath id="clip-1">
<path clip-rule="nonzero" d="M 0 0 L 56.566406 0 L 56.566406 13.210938 L 0 13.210938 Z M 0 0 "/>
</clipPath>
<clipPath id="clip-2">
<path clip-rule="nonzero" d="M 15 0 L 42 0 L 42 13.210938 L 15 13.210938 Z M 15 0 "/>
</clipPath>
<clipPath id="clip-3">
<path clip-rule="nonzero" d="M 11 3 L 26 3 L 26 13.210938 L 11 13.210938 Z M 11 3 "/>
</clipPath>
<clipPath id="clip-4">
<path clip-rule="nonzero" d="M 30 3 L 46 3 L 46 13.210938 L 30 13.210938 Z M 30 3 "/>
</clipPath>
</defs>
<g clip-path="url(#clip-0)">
<path fill="none" stroke-width="0.3985" stroke-linecap="butt" stroke-linejoin="miter" stroke="rgb(0%, 0%, 0%)" stroke-opacity="1" stroke-miterlimit="10" d="M -0.00171875 -0.00140625 L 18.424063 -0.00140625 M 38.267813 -0.00140625 L 56.693594 -0.00140625 " transform="matrix(1, 0, 0, -1, -0.135, 11.065)"/>
</g>
<g clip-path="url(#clip-1)">
<path fill="none" stroke-width="3.17429" stroke-linecap="round" stroke-linejoin="miter" stroke="rgb(0%, 0%, 0%)" stroke-opacity="1" stroke-miterlimit="10" d="M 18.424063 -0.00140625 L 38.267813 2.381406 " transform="matrix(1, 0, 0, -1, -0.135, 11.065)"/>
</g>
<g clip-path="url(#clip-2)">
<path fill="none" stroke-width="0.797" stroke-linecap="butt" stroke-linejoin="miter" stroke="rgb(0%, 0%, 0%)" stroke-opacity="1" stroke-miterlimit="10" d="M 30.150625 -2.067812 C 30.834219 1.818906 29.545156 5.72125 26.842031 8.420469 " transform="matrix(1, 0, 0, -1, -0.135, 11.065)"/>
</g>
<path fill-rule="nonzero" fill="rgb(0%, 0%, 0%)" fill-opacity="1" d="M 24.242188 0.753906 C 25.023438 1.820312 26.390625 3.777344 26.75 5.6875 C 26.757812 3.761719 27.457031 2.996094 29.375 2.820312 C 27.441406 2.632812 25.375 1.4375 24.242188 0.753906 Z M 24.242188 0.753906 "/>
<path fill-rule="nonzero" fill="rgb(100%, 100%, 100%)" fill-opacity="1" d="M 19.878906 11.066406 C 19.878906 10.1875 19.167969 9.476562 18.289062 9.476562 C 17.414062 9.476562 16.703125 10.1875 16.703125 11.066406 C 16.703125 11.941406 17.414062 12.652344 18.289062 12.652344 C 19.167969 12.652344 19.878906 11.941406 19.878906 11.066406 Z M 19.878906 11.066406 "/>
<g clip-path="url(#clip-3)">
<path fill="none" stroke-width="0.3985" stroke-linecap="butt" stroke-linejoin="miter" stroke="rgb(0%, 0%, 0%)" stroke-opacity="1" stroke-miterlimit="10" d="M 20.013906 -0.00140625 C 20.013906 0.8775 19.302969 1.588438 18.424063 1.588438 C 17.549063 1.588438 16.838125 0.8775 16.838125 -0.00140625 C 16.838125 -0.876406 17.549063 -1.587344 18.424063 -1.587344 C 19.302969 -1.587344 20.013906 -0.876406 20.013906 -0.00140625 Z M 20.013906 -0.00140625 " transform="matrix(1, 0, 0, -1, -0.135, 11.065)"/>
</g>
<path fill-rule="nonzero" fill="rgb(100%, 100%, 100%)" fill-opacity="1" d="M 39.71875 11.066406 C 39.71875 10.1875 39.007812 9.476562 38.132812 9.476562 C 37.257812 9.476562 36.546875 10.1875 36.546875 11.066406 C 36.546875 11.941406 37.257812 12.652344 38.132812 12.652344 C 39.007812 12.652344 39.71875 11.941406 39.71875 11.066406 Z M 39.71875 11.066406 "/>
<g clip-path="url(#clip-4)">
<path fill="none" stroke-width="0.3985" stroke-linecap="butt" stroke-linejoin="miter" stroke="rgb(0%, 0%, 0%)" stroke-opacity="1" stroke-miterlimit="10" d="M 39.85375 -0.00140625 C 39.85375 0.8775 39.142813 1.588438 38.267813 1.588438 C 37.392813 1.588438 36.681875 0.8775 36.681875 -0.00140625 C 36.681875 -0.876406 37.392813 -1.587344 38.267813 -1.587344 C 39.142813 -1.587344 39.85375 -0.876406 39.85375 -0.00140625 Z M 39.85375 -0.00140625 " transform="matrix(1, 0, 0, -1, -0.135, 11.065)"/>
</g>
</svg>
