<?xml version="1.0" encoding="UTF-8"?>
<svg xmlns="http://www.w3.org/2000/svg" xmlns:xlink="http://www.w3.org/1999/xlink" width="300.341pt" height="60.958pt" viewBox="0 0 300.341 60.958">
<defs>
<clipPath id="clip-0">
<path clip-rule="nonzero" d="M 0 0 L 60 0 L 60 60.9375 L 0 60.9375 Z M 0 0 "/>
</clipPath>
<clipPath id="clip-1">
<path clip-rule="nonzero" d="M 84 0 L 145 0 L 145 60.9375 L 84 60.9375 Z M 84 0 "/>
</clipPath>
<clipPath id="clip-2">
<path clip-rule="nonzero" d="M 187 0 L 212 0 L 212 60.9375 L 187 60.9375 Z M 187 0 "/>
</clipPath>
<clipPath id="clip-3">
<path clip-rule="nonzero" d="M 290 10 L 300.011719 10 L 300.011719 52 L 290 52 Z M 290 10 "/>
</clipPath>
<clipPath id="clip-4">
<path clip-rule="nonzero" d="M 272 0 L 297 0 L 297 60.9375 L 272 60.9375 Z M 272 0 "/>
</clipPath>
</defs>
<path fill="none" stroke-width="0.797" stroke-linecap="butt" stroke-linejoin="bevel" stroke="rgb(0%, 0%, 0%)" stroke-opacity="1" stroke-miterlimit="10" d="M -12.064594 4.36625 C -8.775531 4.36625 -6.111469 2.413125 -6.111469 -0.0009375 C -6.111469 -2.411094 -8.775531 -4.368125 -12.064594 -4.368125 " transform="matrix(1, 0, 0, -1, 29.4435, 30.96)"/>
<path fill="none" stroke-width="0.797" stroke-linecap="butt" stroke-linejoin="bevel" stroke="rgb(0%, 0%, 0%)" stroke-opacity="1" stroke-miterlimit="10" d="M 12.064312 -16.274375 C 8.779156 -16.274375 6.111187 -14.450156 6.111187 -12.204063 C 6.111187 -9.957969 8.779156 -8.137656 12.064312 -8.137656 C 8.779156 -8.137656 6.111187 -6.313438 6.111187 -4.067344 C 6.111187 -1.82125 8.779156 -0.0009375 12.064312 -0.0009375 C 8.779156 -0.0009375 6.111187 1.823281 6.111187 4.069375 C 6.111187 6.315469 8.779156 8.135781 12.064312 8.135781 C 8.779156 8.135781 6.111187 9.956094 6.111187 12.206094 C 6.111187 14.452187 8.779156 16.2725 12.064312 16.2725 " transform="matrix(1, 0, 0, -1, 29.4435, 30.96)"/>
<g clip-path="url(#clip-0)">
<path fill="none" stroke-width="0.3985" stroke-linecap="butt" stroke-linejoin="miter" stroke="rgb(0%, 0%, 0%)" stroke-opacity="1" stroke-miterlimit="10" d="M -29.763813 29.764687 L -11.904438 29.764687 L -11.904438 3.967812 M -11.904438 -3.969688 L -11.904438 -29.762656 L -29.763813 -29.762656 M 29.763531 29.764687 L 11.904156 29.764687 L 11.904156 15.874062 M 11.904156 -15.875938 L 11.904156 -29.762656 L 29.763531 -29.762656 " transform="matrix(1, 0, 0, -1, 29.4435, 30.96)"/>
</g>
<path fill="none" stroke-width="0.797" stroke-linecap="butt" stroke-linejoin="miter" stroke="rgb(0%, 0%, 0%)" stroke-opacity="1" stroke-miterlimit="10" d="M 1.486187 -14.88375 L 1.486187 14.881875 M -1.486469 -14.88375 L -1.486469 14.881875 " transform="matrix(1, 0, 0, -1, 29.4435, 30.96)"/>
<path fill="none" stroke-width="0.797" stroke-linecap="butt" stroke-linejoin="bevel" stroke="rgb(0%, 0%, 0%)" stroke-opacity="1" stroke-miterlimit="10" d="M 72.974469 16.2725 C 76.263531 16.2725 78.927594 14.452187 78.927594 12.206094 C 78.927594 9.956094 76.263531 8.135781 72.974469 8.135781 C 76.263531 8.135781 78.927594 6.315469 78.927594 4.069375 C 78.927594 1.823281 76.263531 -0.0009375 72.974469 -0.0009375 C 76.263531 -0.0009375 78.927594 -1.82125 78.927594 -4.067344 C 78.927594 -6.313438 76.263531 -8.137656 72.974469 -8.137656 C 76.263531 -8.137656 78.927594 -9.957969 78.927594 -12.204063 C 78.927594 -14.450156 76.263531 -16.274375 72.974469 -16.274375 " transform="matrix(1, 0, 0, -1, 29.4435, 30.96)"/>
<path fill="none" stroke-width="0.797" stroke-linecap="butt" stroke-linejoin="bevel" stroke="rgb(0%, 0%, 0%)" stroke-opacity="1" stroke-miterlimit="10" d="M 97.103375 -16.274375 C 93.818219 -16.274375 91.154156 -14.450156 91.154156 -12.204063 C 91.154156 -9.957969 93.818219 -8.137656 97.103375 -8.137656 C 93.818219 -8.137656 91.154156 -6.313438 91.154156 -4.067344 C 91.154156 -1.82125 93.818219 -0.0009375 97.103375 -0.0009375 C 93.818219 -0.0009375 91.154156 1.823281 91.154156 4.069375 C 91.154156 6.315469 93.818219 8.135781 97.103375 8.135781 C 93.818219 8.135781 91.154156 9.956094 91.154156 12.206094 C 91.154156 14.452187 93.818219 16.2725 97.103375 16.2725 " transform="matrix(1, 0, 0, -1, 29.4435, 30.96)"/>
<g clip-path="url(#clip-1)">
<path fill="none" stroke-width="0.3985" stroke-linecap="butt" stroke-linejoin="miter" stroke="rgb(0%, 0%, 0%)" stroke-opacity="1" stroke-miterlimit="10" d="M 55.27525 29.764687 L 73.134625 29.764687 L 73.134625 15.874062 M 73.134625 -15.875938 L 73.134625 -29.762656 L 55.27525 -29.762656 M 114.802594 29.764687 L 96.947125 29.764687 L 96.947125 15.874062 M 96.947125 -15.875938 L 96.947125 -29.762656 L 114.802594 -29.762656 " transform="matrix(1, 0, 0, -1, 29.4435, 30.96)"/>
</g>
<path fill="none" stroke-width="0.797" stroke-linecap="butt" stroke-linejoin="bevel" stroke="rgb(0%, 0%, 0%)" stroke-opacity="1" stroke-miterlimit="10" d="M 158.017437 4.36625 C 161.302594 4.36625 163.966656 2.944375 163.966656 1.190469 C 163.966656 -0.563438 161.302594 -1.985313 158.017437 -1.985313 C 156.372906 -1.985313 155.040875 -1.094688 155.040875 -0.0009375 C 155.040875 1.096719 156.372906 1.983437 158.017437 1.983437 C 161.302594 1.983437 163.966656 0.561562 163.966656 -1.192344 C 163.966656 -2.94625 161.302594 -4.368125 158.017437 -4.368125 " transform="matrix(1, 0, 0, -1, 29.4435, 30.96)"/>
<path fill="none" stroke-width="0.797" stroke-linecap="butt" stroke-linejoin="bevel" stroke="rgb(0%, 0%, 0%)" stroke-opacity="1" stroke-miterlimit="10" d="M 182.146344 -12.305625 C 178.857281 -12.305625 176.193219 -10.668906 176.193219 -8.653281 C 176.193219 -6.637656 178.857281 -5.000938 182.146344 -5.000938 C 183.790875 -5.000938 185.122906 -5.668906 185.122906 -6.489219 C 185.122906 -7.313438 183.790875 -7.9775 182.146344 -7.9775 C 178.857281 -7.9775 176.193219 -6.344688 176.193219 -4.325156 C 176.193219 -2.309531 178.857281 -0.676719 182.146344 -0.676719 C 183.790875 -0.676719 185.122906 -1.340781 185.122906 -2.165 C 185.122906 -2.985313 183.790875 -3.653281 182.146344 -3.653281 C 178.857281 -3.653281 176.193219 -2.016563 176.193219 -0.0009375 C 176.193219 2.014687 178.857281 3.651406 182.146344 3.651406 C 183.790875 3.651406 185.122906 2.983437 185.122906 2.163125 C 185.122906 1.342812 183.790875 0.674844 182.146344 0.674844 C 178.857281 0.674844 176.193219 2.311562 176.193219 4.327187 C 176.193219 6.342812 178.857281 7.979531 182.146344 7.979531 C 183.790875 7.979531 185.122906 7.311562 185.122906 6.49125 C 185.122906 5.667031 183.790875 5.002969 182.146344 5.002969 C 178.857281 5.002969 176.193219 6.635781 176.193219 8.651406 C 176.193219 10.670937 178.857281 12.30375 182.146344 12.30375 " transform="matrix(1, 0, 0, -1, 29.4435, 30.96)"/>
<g clip-path="url(#clip-2)">
<path fill="none" stroke-width="0.3985" stroke-linecap="butt" stroke-linejoin="miter" stroke="rgb(0%, 0%, 0%)" stroke-opacity="1" stroke-miterlimit="10" d="M 158.173687 29.764687 L 158.173687 3.967812 M 158.173687 -3.969688 L 158.173687 -29.762656 M 181.986187 29.764687 L 181.986187 11.905312 M 181.986187 -11.907188 L 181.986187 -29.762656 " transform="matrix(1, 0, 0, -1, 29.4435, 30.96)"/>
</g>
<path fill="none" stroke-width="0.797" stroke-linecap="butt" stroke-linejoin="miter" stroke="rgb(0%, 0%, 0%)" stroke-opacity="1" stroke-miterlimit="10" d="M 171.568219 -14.88375 L 171.568219 14.881875 M 168.591656 -14.88375 L 168.591656 14.881875 " transform="matrix(1, 0, 0, -1, 29.4435, 30.96)"/>
<path fill="none" stroke-width="0.797" stroke-linecap="butt" stroke-linejoin="bevel" stroke="rgb(0%, 0%, 0%)" stroke-opacity="1" stroke-miterlimit="10" d="M 243.0565 4.36625 C 246.345562 4.36625 249.009625 2.413125 249.009625 -0.0009375 C 249.009625 -2.411094 246.345562 -4.368125 243.0565 -4.368125 " transform="matrix(1, 0, 0, -1, 29.4435, 30.96)"/>
<g clip-path="url(#clip-3)">
<path fill="none" stroke-width="0.797" stroke-linecap="butt" stroke-linejoin="bevel" stroke="rgb(0%, 0%, 0%)" stroke-opacity="1" stroke-miterlimit="10" d="M 267.185406 -20.243125 C 263.90025 -20.243125 261.232281 -18.313438 261.232281 -15.930625 C 261.232281 -13.551719 263.90025 -11.622031 267.185406 -11.622031 C 268.829938 -11.622031 270.161969 -12.364219 270.161969 -13.278281 C 270.161969 -14.188438 268.829938 -14.930625 267.185406 -14.930625 C 263.90025 -14.930625 261.232281 -13.000938 261.232281 -10.622031 C 261.232281 -8.243125 263.90025 -6.313438 267.185406 -6.313438 C 268.829938 -6.313438 270.161969 -7.051719 270.161969 -7.965781 C 270.161969 -8.879844 268.829938 -9.618125 267.185406 -9.618125 C 263.90025 -9.618125 261.232281 -7.692344 261.232281 -5.309531 C 261.232281 -2.930625 263.90025 -1.000938 267.185406 -1.000938 C 268.829938 -1.000938 270.161969 -1.743125 270.161969 -2.657188 C 270.161969 -3.567344 268.829938 -4.309531 267.185406 -4.309531 C 263.90025 -4.309531 261.232281 -2.379844 261.232281 -0.0009375 C 261.232281 2.377969 263.90025 4.307656 267.185406 4.307656 C 268.829938 4.307656 270.161969 3.569375 270.161969 2.655312 C 270.161969 1.74125 268.829938 1.002969 267.185406 1.002969 C 263.90025 1.002969 261.232281 2.932656 261.232281 5.311562 C 261.232281 7.690469 263.90025 9.620156 267.185406 9.620156 C 268.829938 9.620156 270.161969 8.877969 270.161969 7.967812 C 270.161969 7.05375 268.829938 6.311562 267.185406 6.311562 C 263.90025 6.311562 261.232281 8.24125 261.232281 10.620156 C 261.232281 13.002969 263.90025 14.92875 267.185406 14.92875 C 268.829938 14.92875 270.161969 14.190469 270.161969 13.276406 C 270.161969 12.362344 268.829938 11.624062 267.185406 11.624062 C 263.90025 11.624062 261.232281 13.55375 261.232281 15.932656 C 261.232281 18.311562 263.90025 20.24125 267.185406 20.24125 " transform="matrix(1, 0, 0, -1, 29.4435, 30.96)"/>
</g>
<g clip-path="url(#clip-4)">
<path fill="none" stroke-width="0.3985" stroke-linecap="butt" stroke-linejoin="miter" stroke="rgb(0%, 0%, 0%)" stroke-opacity="1" stroke-miterlimit="10" d="M 243.216656 29.764687 L 243.216656 3.967812 M 243.216656 -3.969688 L 243.216656 -29.762656 M 267.02525 29.764687 L 267.02525 19.842812 M 267.02525 -19.840781 L 267.02525 -29.762656 " transform="matrix(1, 0, 0, -1, 29.4435, 30.96)"/>
</g>
<path fill-rule="nonzero" fill="rgb(0%, 0%, 100%)" fill-opacity="1" d="M 18.945312 34.929688 C 18.945312 34.148438 18.316406 33.519531 17.539062 33.519531 C 16.761719 33.519531 16.128906 34.148438 16.128906 34.929688 C 16.128906 35.707031 16.761719 36.335938 17.539062 36.335938 C 18.316406 36.335938 18.945312 35.707031 18.945312 34.929688 Z M 18.945312 34.929688 "/>
<path fill-rule="nonzero" fill="rgb(100%, 0%, 0%)" fill-opacity="1" d="M 18.945312 26.992188 C 18.945312 26.214844 18.316406 25.582031 17.539062 25.582031 C 16.761719 25.582031 16.128906 26.214844 16.128906 26.992188 C 16.128906 27.769531 16.761719 28.402344 17.539062 28.402344 C 18.316406 28.402344 18.945312 27.769531 18.945312 26.992188 Z M 18.945312 26.992188 "/>
<path fill-rule="nonzero" fill="rgb(0%, 0%, 100%)" fill-opacity="1" d="M 42.757812 15.085938 C 42.757812 14.308594 42.128906 13.675781 41.347656 13.675781 C 40.570312 13.675781 39.941406 14.308594 39.941406 15.085938 C 39.941406 15.863281 40.570312 16.496094 41.347656 16.496094 C 42.128906 16.496094 42.757812 15.863281 42.757812 15.085938 Z M 42.757812 15.085938 "/>
<path fill-rule="nonzero" fill="rgb(100%, 0%, 0%)" fill-opacity="1" d="M 42.757812 46.835938 C 42.757812 46.054688 42.128906 45.425781 41.347656 45.425781 C 40.570312 45.425781 39.941406 46.054688 39.941406 46.835938 C 39.941406 47.613281 40.570312 48.242188 41.347656 48.242188 C 42.128906 48.242188 42.757812 47.613281 42.757812 46.835938 Z M 42.757812 46.835938 "/>
<path fill-rule="nonzero" fill="rgb(0%, 0%, 100%)" fill-opacity="1" d="M 103.988281 46.835938 C 103.988281 46.054688 103.355469 45.425781 102.578125 45.425781 C 101.800781 45.425781 101.167969 46.054688 101.167969 46.835938 C 101.167969 47.613281 101.800781 48.242188 102.578125 48.242188 C 103.355469 48.242188 103.988281 47.613281 103.988281 46.835938 Z M 103.988281 46.835938 "/>
<path fill-rule="nonzero" fill="rgb(100%, 0%, 0%)" fill-opacity="1" d="M 103.988281 15.085938 C 103.988281 14.308594 103.355469 13.675781 102.578125 13.675781 C 101.800781 13.675781 101.167969 14.308594 101.167969 15.085938 C 101.167969 15.863281 101.800781 16.496094 102.578125 16.496094 C 103.355469 16.496094 103.988281 15.863281 103.988281 15.085938 Z M 103.988281 15.085938 "/>
<path fill-rule="nonzero" fill="rgb(0%, 0%, 100%)" fill-opacity="1" d="M 127.796875 15.085938 C 127.796875 14.308594 127.167969 13.675781 126.390625 13.675781 C 125.609375 13.675781 124.980469 14.308594 124.980469 15.085938 C 124.980469 15.863281 125.609375 16.496094 126.390625 16.496094 C 127.167969 16.496094 127.796875 15.863281 127.796875 15.085938 Z M 127.796875 15.085938 "/>
<path fill-rule="nonzero" fill="rgb(100%, 0%, 0%)" fill-opacity="1" d="M 127.796875 46.835938 C 127.796875 46.054688 127.167969 45.425781 126.390625 45.425781 C 125.609375 45.425781 124.980469 46.054688 124.980469 46.835938 C 124.980469 47.613281 125.609375 48.242188 126.390625 48.242188 C 127.167969 48.242188 127.796875 47.613281 127.796875 46.835938 Z M 127.796875 46.835938 "/>
<path fill-rule="nonzero" fill="rgb(0%, 0%, 100%)" fill-opacity="1" d="M 189.027344 34.929688 C 189.027344 34.148438 188.398438 33.519531 187.617188 33.519531 C 186.839844 33.519531 186.210938 34.148438 186.210938 34.929688 C 186.210938 35.707031 186.839844 36.335938 187.617188 36.335938 C 188.398438 36.335938 189.027344 35.707031 189.027344 34.929688 Z M 189.027344 34.929688 "/>
<path fill-rule="nonzero" fill="rgb(100%, 0%, 0%)" fill-opacity="1" d="M 189.027344 26.992188 C 189.027344 26.214844 188.398438 25.582031 187.617188 25.582031 C 186.839844 25.582031 186.210938 26.214844 186.210938 26.992188 C 186.210938 27.769531 186.839844 28.402344 187.617188 28.402344 C 188.398438 28.402344 189.027344 27.769531 189.027344 26.992188 Z M 189.027344 26.992188 "/>
<path fill-rule="nonzero" fill="rgb(0%, 0%, 100%)" fill-opacity="1" d="M 212.839844 19.054688 C 212.839844 18.277344 212.207031 17.644531 211.429688 17.644531 C 210.652344 17.644531 210.019531 18.277344 210.019531 19.054688 C 210.019531 19.832031 210.652344 20.464844 211.429688 20.464844 C 212.207031 20.464844 212.839844 19.832031 212.839844 19.054688 Z M 212.839844 19.054688 "/>
<path fill-rule="nonzero" fill="rgb(100%, 0%, 0%)" fill-opacity="1" d="M 212.839844 42.867188 C 212.839844 42.085938 212.207031 41.457031 211.429688 41.457031 C 210.652344 41.457031 210.019531 42.085938 210.019531 42.867188 C 210.019531 43.644531 210.652344 44.273438 211.429688 44.273438 C 212.207031 44.273438 212.839844 43.644531 212.839844 42.867188 Z M 212.839844 42.867188 "/>
<path fill-rule="nonzero" fill="rgb(0%, 0%, 100%)" fill-opacity="1" d="M 274.066406 34.929688 C 274.066406 34.148438 273.4375 33.519531 272.660156 33.519531 C 271.882812 33.519531 271.25 34.148438 271.25 34.929688 C 271.25 35.707031 271.882812 36.335938 272.660156 36.335938 C 273.4375 36.335938 274.066406 35.707031 274.066406 34.929688 Z M 274.066406 34.929688 "/>
<path fill-rule="nonzero" fill="rgb(100%, 0%, 0%)" fill-opacity="1" d="M 274.066406 26.992188 C 274.066406 26.214844 273.4375 25.582031 272.660156 25.582031 C 271.882812 25.582031 271.25 26.214844 271.25 26.992188 C 271.25 27.769531 271.882812 28.402344 272.660156 28.402344 C 273.4375 28.402344 274.066406 27.769531 274.066406 26.992188 Z M 274.066406 26.992188 "/>
<path fill-rule="nonzero" fill="rgb(0%, 0%, 100%)" fill-opacity="1" d="M 297.878906 11.117188 C 297.878906 10.339844 297.25 9.707031 296.46875 9.707031 C 295.691406 9.707031 295.0625 10.339844 295.0625 11.117188 C 295.0625 11.894531 295.691406 12.527344 296.46875 12.527344 C 297.25 12.527344 297.878906 11.894531 297.878906 11.117188 Z M 297.878906 11.117188 "/>
<path fill-rule="nonzero" fill="rgb(100%, 0%, 0%)" fill-opacity="1" d="M 297.878906 50.800781 C 297.878906 50.023438 297.25 49.394531 296.46875 49.394531 C 295.691406 49.394531 295.0625 50.023438 295.0625 50.800781 C 295.0625 51.582031 295.691406 52.210938 296.46875 52.210938 C 297.25 52.210938 297.878906 51.582031 297.878906 50.800781 Z M 297.878906 50.800781 "/>
</svg>
