<?xml version="1.0" encoding="UTF-8"?>
<svg xmlns="http://www.w3.org/2000/svg" xmlns:xlink="http://www.w3.org/1999/xlink" width="45.36pt" height="25.948pt" viewBox="0 0 45.36 25.948">
<defs>
<clipPath id="clip-0">
<path clip-rule="nonzero" d="M 0 24 L 45.035156 24 L 45.035156 25.921875 L 0 25.921875 Z M 0 24 "/>
</clipPath>
<clipPath id="clip-1">
<path clip-rule="nonzero" d="M 25 0 L 45.035156 0 L 45.035156 25.921875 L 25 25.921875 Z M 25 0 "/>
</clipPath>
</defs>
<g clip-path="url(#clip-0)">
<path fill="none" stroke-width="1.59404" stroke-linecap="butt" stroke-linejoin="miter" stroke="rgb(0%, 0%, 0%)" stroke-opacity="1" stroke-miterlimit="10" d="M 0.00090625 -0.001375 L 49.891531 -0.001375 M 176.883719 -0.001375 L 226.774344 -0.001375 " transform="matrix(1, 0, 0, -1, -22.997, 25.108)"/>
</g>
<g clip-path="url(#clip-1)">
<path fill="none" stroke-width="1.59404" stroke-linecap="butt" stroke-linejoin="bevel" stroke="rgb(0%, 0%, 0%)" stroke-opacity="1" stroke-miterlimit="10" d="M 49.094656 -0.001375 L 55.442312 -0.001375 L 65.766531 23.811125 L 84.813406 -23.809969 L 103.864187 23.811125 L 122.911062 -23.809969 L 141.961844 23.811125 L 161.008719 -23.809969 L 171.329031 -0.001375 L 177.680594 -0.001375 " transform="matrix(1, 0, 0, -1, -22.997, 25.108)"/>
</g>
</svg>
