<?xml version="1.0" encoding="UTF-8"?>
<svg xmlns="http://www.w3.org/2000/svg" xmlns:xlink="http://www.w3.org/1999/xlink" width="39.3pt" height="13.726pt" viewBox="0 0 39.3 13.726">
<defs>
<clipPath id="clip-0">
<path clip-rule="nonzero" d="M 8 1 L 38.949219 1 L 38.949219 13.589844 L 8 13.589844 Z M 8 1 "/>
</clipPath>
<clipPath id="clip-1">
<path clip-rule="nonzero" d="M 0 0 L 38.949219 0 L 38.949219 13.589844 L 0 13.589844 Z M 0 0 "/>
</clipPath>
<clipPath id="clip-2">
<path clip-rule="nonzero" d="M 0 0 L 26 0 L 26 13.589844 L 0 13.589844 Z M 0 0 "/>
</clipPath>
</defs>
<g clip-path="url(#clip-0)">
<path fill-rule="nonzero" fill="rgb(70.001221%, 90.351868%, 98.118591%)" fill-opacity="1" d="M 11.753906 1.277344 L 35.566406 1.277344 C 37.210938 1.277344 38.542969 3.941406 38.542969 7.230469 C 38.542969 10.519531 37.210938 13.183594 35.566406 13.183594 L 11.753906 13.183594 C 10.109375 13.183594 8.777344 10.519531 8.777344 7.230469 C 8.777344 3.941406 10.109375 1.277344 11.753906 1.277344 "/>
</g>
<g clip-path="url(#clip-1)">
<path fill="none" stroke-width="0.797" stroke-linecap="butt" stroke-linejoin="miter" stroke="rgb(0%, 0%, 0%)" stroke-opacity="1" stroke-miterlimit="10" d="M 11.904906 5.953656 L 35.717406 5.953656 C 37.361938 5.953656 38.693969 3.289594 38.693969 0.00053125 C 38.693969 -3.288531 37.361938 -5.952594 35.717406 -5.952594 L 11.904906 -5.952594 C 10.260375 -5.952594 8.928344 -3.288531 8.928344 0.00053125 C 8.928344 3.289594 10.260375 5.953656 11.904906 5.953656 " transform="matrix(1, 0, 0, -1, -0.151, 7.231)"/>
</g>
<g clip-path="url(#clip-2)">
<path fill="none" stroke-width="0.797" stroke-linecap="butt" stroke-linejoin="miter" stroke="rgb(0%, 0%, 0%)" stroke-opacity="1" stroke-miterlimit="10" d="M 11.904906 5.953656 C 13.549438 5.953656 14.881469 3.289594 14.881469 0.00053125 C 14.881469 -3.288531 13.549438 -5.952594 11.904906 -5.952594 " transform="matrix(1, 0, 0, -1, -0.151, 7.231)"/>
</g>
<path fill="none" stroke-width="0.3985" stroke-linecap="butt" stroke-linejoin="miter" stroke="rgb(0%, 0%, 0%)" stroke-opacity="1" stroke-miterlimit="10" d="M -0.00134375 0.00053125 L 11.904906 0.00053125 " transform="matrix(1, 0, 0, -1, -0.151, 7.231)"/>
</svg>
