<?xml version="1.0" encoding="UTF-8"?>
<svg xmlns="http://www.w3.org/2000/svg" xmlns:xlink="http://www.w3.org/1999/xlink" width="56.712pt" height="20.978pt" viewBox="0 0 56.712 20.978">
<defs>
<clipPath id="clip-0">
<path clip-rule="nonzero" d="M 0 12 L 56.566406 12 L 56.566406 13 L 0 13 Z M 0 12 "/>
</clipPath>
<clipPath id="clip-1">
<path clip-rule="nonzero" d="M 18 4 L 35 4 L 35 20.96875 L 18 20.96875 Z M 18 4 "/>
</clipPath>
<clipPath id="clip-2">
<path clip-rule="nonzero" d="M 17 4 L 35 4 L 35 20.96875 L 17 20.96875 Z M 17 4 "/>
</clipPath>
<clipPath id="clip-3">
<path clip-rule="nonzero" d="M 17 0 L 39 0 L 39 20.96875 L 17 20.96875 Z M 17 0 "/>
</clipPath>
</defs>
<g clip-path="url(#clip-0)">
<path fill="none" stroke-width="0.3985" stroke-linecap="butt" stroke-linejoin="miter" stroke="rgb(0%, 0%, 0%)" stroke-opacity="1" stroke-miterlimit="10" d="M -0.00171875 -0.00175 L 18.424063 -0.00175 M 38.267813 -0.00175 L 56.693594 -0.00175 " transform="matrix(1, 0, 0, -1, -0.135, 12.467)"/>
</g>
<g clip-path="url(#clip-1)">
<path fill-rule="nonzero" fill="rgb(70.001221%, 90.351868%, 98.118591%)" fill-opacity="1" d="M 18.289062 20.402344 L 34.164062 20.402344 L 34.164062 4.53125 L 18.289062 4.53125 Z M 18.289062 20.402344 "/>
</g>
<g clip-path="url(#clip-2)">
<path fill="none" stroke-width="0.797" stroke-linecap="butt" stroke-linejoin="miter" stroke="rgb(0%, 0%, 0%)" stroke-opacity="1" stroke-miterlimit="10" d="M 18.424063 -7.935344 L 34.299063 -7.935344 L 34.299063 7.93575 L 18.424063 7.93575 Z M 18.424063 -7.935344 " transform="matrix(1, 0, 0, -1, -0.135, 12.467)"/>
</g>
<g clip-path="url(#clip-3)">
<path fill="none" stroke-width="0.797" stroke-linecap="square" stroke-linejoin="miter" stroke="rgb(0%, 0%, 0%)" stroke-opacity="1" stroke-miterlimit="10" d="M 38.267813 -7.935344 L 38.267813 10.912313 L 18.424063 10.912313 " transform="matrix(1, 0, 0, -1, -0.135, 12.467)"/>
</g>
</svg>
