<?xml version="1.0" encoding="UTF-8"?>
<svg xmlns="http://www.w3.org/2000/svg" xmlns:xlink="http://www.w3.org/1999/xlink" width="56.712pt" height="29.577pt" viewBox="0 0 56.712 29.577">
<defs>
<clipPath id="clip-0">
<path clip-rule="nonzero" d="M 0 14 L 56.566406 14 L 56.566406 16 L 0 16 Z M 0 14 "/>
</clipPath>
<clipPath id="clip-1">
<path clip-rule="nonzero" d="M 13 0 L 43 0 L 43 29.367188 L 13 29.367188 Z M 13 0 "/>
</clipPath>
</defs>
<g clip-path="url(#clip-0)">
<path fill="none" stroke-width="0.3985" stroke-linecap="butt" stroke-linejoin="miter" stroke="rgb(0%, 0%, 0%)" stroke-opacity="1" stroke-miterlimit="10" d="M -0.00171875 -0.000625 L 14.455313 -0.000625 M 42.236563 -0.000625 L 56.693594 -0.000625 " transform="matrix(1, 0, 0, -1, -0.135, 15.0775)"/>
</g>
<path fill-rule="nonzero" fill="rgb(70.001221%, 90.351868%, 98.118591%)" fill-opacity="1" d="M 14.320312 1.1875 L 42.101562 1.1875 L 42.101562 28.96875 L 14.320312 28.96875 Z M 14.320312 1.1875 "/>
<g clip-path="url(#clip-1)">
<path fill="none" stroke-width="0.797" stroke-linecap="butt" stroke-linejoin="miter" stroke="rgb(0%, 0%, 0%)" stroke-opacity="1" stroke-miterlimit="10" d="M 14.455313 13.89 L 42.236563 13.89 L 42.236563 -13.89125 L 14.455313 -13.89125 Z M 14.455313 13.89 " transform="matrix(1, 0, 0, -1, -0.135, 15.0775)"/>
</g>
<path fill="none" stroke-width="0.19925" stroke-linecap="butt" stroke-linejoin="miter" stroke="rgb(0%, 0%, 0%)" stroke-opacity="0.3" stroke-dasharray="1.13367 1.13367" stroke-miterlimit="10" d="M 18.623281 -8.332656 L 38.068594 -8.332656 M 18.623281 -4.168594 L 38.068594 -4.168594 M 18.623281 -0.000625 L 38.068594 -0.000625 M 18.623281 4.167344 L 38.068594 4.167344 M 18.623281 8.335312 L 38.068594 8.335312 M 18.623281 -8.332656 L 18.623281 8.335312 M 23.486563 -8.332656 L 23.486563 8.335312 M 28.345938 -8.332656 L 28.345938 8.335312 M 33.209219 -8.332656 L 33.209219 8.335312 M 38.068594 -8.332656 L 38.068594 8.335312 " transform="matrix(1, 0, 0, -1, -0.135, 15.0775)"/>
<path fill="none" stroke-width="0.797" stroke-linecap="butt" stroke-linejoin="miter" stroke="rgb(0%, 0%, 0%)" stroke-opacity="1" stroke-miterlimit="10" d="M 18.623281 -8.332656 L 28.345938 -8.332656 L 28.345938 8.335312 L 38.068594 8.335312 " transform="matrix(1, 0, 0, -1, -0.135, 15.0775)"/>
</svg>
