<?xml version="1.0" encoding="UTF-8"?>
<svg xmlns="http://www.w3.org/2000/svg" xmlns:xlink="http://www.w3.org/1999/xlink" width="91.134" height="41.626" viewBox="0 0 91.134 41.626">
<defs>
<g>
<g id="glyph-0-0">
<path d="M 6.828125 -4.5 L 6.640625 -6.75 L 0.546875 -6.75 L 0.359375 -4.5 L 0.609375 -4.5 C 0.75 -6.109375 0.890625 -6.4375 2.40625 -6.4375 C 2.578125 -6.4375 2.84375 -6.4375 2.9375 -6.421875 C 3.15625 -6.375 3.15625 -6.265625 3.15625 -6.046875 L 3.15625 -0.78125 C 3.15625 -0.453125 3.15625 -0.3125 2.109375 -0.3125 L 1.703125 -0.3125 L 1.703125 0 C 2.109375 -0.03125 3.125 -0.03125 3.59375 -0.03125 C 4.046875 -0.03125 5.078125 -0.03125 5.484375 0 L 5.484375 -0.3125 L 5.078125 -0.3125 C 4.03125 -0.3125 4.03125 -0.453125 4.03125 -0.78125 L 4.03125 -6.046875 C 4.03125 -6.234375 4.03125 -6.375 4.21875 -6.421875 C 4.328125 -6.4375 4.59375 -6.4375 4.78125 -6.4375 C 6.296875 -6.4375 6.4375 -6.109375 6.578125 -4.5 Z M 6.828125 -4.5 "/>
</g>
<g id="glyph-0-1">
<path d="M 5.140625 0 L 5.140625 -0.3125 C 4.609375 -0.3125 4.421875 -0.328125 4.203125 -0.625 L 2.859375 -2.34375 C 3.15625 -2.71875 3.53125 -3.203125 3.78125 -3.46875 C 4.09375 -3.828125 4.5 -3.984375 4.96875 -3.984375 L 4.96875 -4.296875 C 4.703125 -4.28125 4.40625 -4.265625 4.140625 -4.265625 C 3.84375 -4.265625 3.3125 -4.28125 3.1875 -4.296875 L 3.1875 -3.984375 C 3.40625 -3.96875 3.484375 -3.84375 3.484375 -3.671875 C 3.484375 -3.515625 3.375 -3.390625 3.328125 -3.328125 L 2.71875 -2.546875 L 1.9375 -3.5625 C 1.84375 -3.65625 1.84375 -3.671875 1.84375 -3.734375 C 1.84375 -3.890625 2 -3.984375 2.1875 -3.984375 L 2.1875 -4.296875 L 1.109375 -4.265625 C 0.90625 -4.265625 0.4375 -4.28125 0.171875 -4.296875 L 0.171875 -3.984375 C 0.875 -3.984375 0.875 -3.984375 1.34375 -3.375 L 2.328125 -2.09375 C 1.859375 -1.5 1.859375 -1.46875 1.390625 -0.90625 C 0.921875 -0.328125 0.328125 -0.3125 0.125 -0.3125 L 0.125 0 C 0.375 -0.015625 0.6875 -0.03125 0.953125 -0.03125 L 1.890625 0 L 1.890625 -0.3125 C 1.671875 -0.34375 1.609375 -0.46875 1.609375 -0.625 C 1.609375 -0.84375 1.890625 -1.171875 2.5 -1.890625 L 3.265625 -0.890625 C 3.34375 -0.78125 3.46875 -0.625 3.46875 -0.5625 C 3.46875 -0.46875 3.375 -0.3125 3.109375 -0.3125 L 3.109375 0 L 4.1875 -0.03125 C 4.453125 -0.03125 4.84375 -0.015625 5.140625 0 Z M 5.140625 0 "/>
</g>
<g id="glyph-1-0">
<path d="M 3.0625 -1.109375 L 3.0625 -1.625 L 2.8125 -1.625 L 2.8125 -1.140625 C 2.8125 -0.46875 2.53125 -0.15625 2.21875 -0.15625 C 1.609375 -0.15625 1.609375 -0.9375 1.609375 -1.109375 L 1.609375 -3.59375 L 2.921875 -3.59375 L 2.921875 -3.859375 L 1.609375 -3.859375 L 1.609375 -5.515625 L 1.359375 -5.515625 C 1.359375 -4.765625 1.046875 -3.84375 0.171875 -3.8125 L 0.171875 -3.59375 L 0.953125 -3.59375 L 0.953125 -1.109375 C 0.953125 -0.109375 1.671875 0.09375 2.15625 0.09375 C 2.75 0.09375 3.0625 -0.46875 3.0625 -1.109375 Z M 3.0625 -1.109375 "/>
</g>
<g id="glyph-1-1">
<path d="M 4.34375 -1.90625 C 4.34375 -3.078125 3.40625 -4.015625 2.3125 -4.015625 C 1.171875 -4.015625 0.265625 -3.0625 0.265625 -1.90625 C 0.265625 -0.796875 1.1875 0.09375 2.296875 0.09375 C 3.4375 0.09375 4.34375 -0.8125 4.34375 -1.90625 Z M 3.5625 -1.984375 C 3.5625 -1.65625 3.5625 -1.140625 3.34375 -0.75 C 3.09375 -0.328125 2.6875 -0.15625 2.3125 -0.15625 C 1.859375 -0.15625 1.484375 -0.375 1.28125 -0.71875 C 1.046875 -1.109375 1.03125 -1.578125 1.03125 -1.984375 C 1.03125 -2.328125 1.03125 -2.828125 1.25 -3.203125 C 1.53125 -3.65625 1.96875 -3.796875 2.296875 -3.796875 C 2.8125 -3.796875 3.171875 -3.5 3.359375 -3.203125 C 3.5625 -2.828125 3.5625 -2.375 3.5625 -1.984375 Z M 3.5625 -1.984375 "/>
</g>
<g id="glyph-1-2">
<path d="M 4.8125 -1.9375 C 4.8125 -3.0625 3.921875 -3.96875 2.875 -3.96875 C 2.390625 -3.96875 1.9375 -3.765625 1.59375 -3.40625 L 1.59375 -3.96875 L 0.265625 -3.859375 L 0.265625 -3.59375 C 0.90625 -3.59375 0.953125 -3.53125 0.953125 -3.140625 L 0.953125 1.046875 C 0.953125 1.46875 0.859375 1.46875 0.265625 1.46875 L 0.265625 1.734375 C 0.6875 1.71875 0.859375 1.71875 1.296875 1.71875 C 1.71875 1.71875 1.84375 1.71875 2.3125 1.734375 L 2.3125 1.46875 C 1.71875 1.46875 1.625 1.46875 1.625 1.046875 L 1.625 -0.4375 C 1.859375 -0.203125 2.15625 0.09375 2.75 0.09375 C 3.828125 0.09375 4.8125 -0.765625 4.8125 -1.9375 Z M 4.03125 -1.9375 C 4.03125 -0.921875 3.421875 -0.125 2.703125 -0.125 C 2.296875 -0.125 1.953125 -0.359375 1.734375 -0.671875 C 1.625 -0.859375 1.625 -0.875 1.625 -1.046875 L 1.625 -3.015625 C 1.921875 -3.53125 2.421875 -3.71875 2.796875 -3.71875 C 3.5 -3.71875 4.03125 -2.90625 4.03125 -1.9375 Z M 4.03125 -1.9375 "/>
</g>
<g id="glyph-1-3">
<path d="M 3.828125 -1.0625 C 3.828125 -1.171875 3.734375 -1.171875 3.703125 -1.171875 C 3.609375 -1.171875 3.609375 -1.15625 3.546875 -1 C 3.34375 -0.390625 2.84375 -0.15625 2.390625 -0.15625 C 1.8125 -0.15625 1.078125 -0.625 1.078125 -1.953125 C 1.078125 -3.34375 1.796875 -3.765625 2.328125 -3.765625 C 2.453125 -3.765625 2.9375 -3.75 3.265625 -3.53125 C 3.078125 -3.484375 2.890625 -3.359375 2.890625 -3.109375 C 2.890625 -2.875 3.078125 -2.6875 3.3125 -2.6875 C 3.546875 -2.6875 3.734375 -2.84375 3.734375 -3.125 C 3.734375 -3.671875 3.109375 -4.015625 2.3125 -4.015625 C 1.171875 -4.015625 0.3125 -3.0625 0.3125 -1.9375 C 0.3125 -0.78125 1.234375 0.09375 2.296875 0.09375 C 3.546875 0.09375 3.828125 -0.984375 3.828125 -1.0625 Z M 3.828125 -1.0625 "/>
</g>
<g id="glyph-1-4">
<path d="M 3.828125 -1.0625 C 3.828125 -1.125 3.78125 -1.1875 3.703125 -1.1875 C 3.609375 -1.1875 3.59375 -1.125 3.578125 -1.078125 C 3.28125 -0.171875 2.46875 -0.15625 2.34375 -0.15625 C 1.90625 -0.15625 1.546875 -0.390625 1.34375 -0.703125 C 1.046875 -1.140625 1.03125 -1.671875 1.03125 -2.046875 L 3.59375 -2.046875 C 3.78125 -2.046875 3.828125 -2.046875 3.828125 -2.25 C 3.828125 -3.171875 3.328125 -4.015625 2.171875 -4.015625 C 1.109375 -4.015625 0.265625 -3.078125 0.265625 -1.96875 C 0.265625 -0.796875 1.203125 0.09375 2.296875 0.09375 C 3.390625 0.09375 3.828125 -0.859375 3.828125 -1.0625 Z M 3.21875 -2.265625 L 1.046875 -2.265625 C 1.125 -3.65625 1.921875 -3.796875 2.171875 -3.796875 C 2.671875 -3.796875 3.203125 -3.421875 3.21875 -2.265625 Z M 3.21875 -2.265625 "/>
</g>
<g id="glyph-1-5">
<path d="M 4.90625 0 L 4.90625 -0.28125 C 4.453125 -0.28125 4.21875 -0.28125 4.21875 -0.5625 L 4.21875 -2.28125 C 4.21875 -3.015625 4.21875 -3.28125 3.96875 -3.59375 C 3.765625 -3.84375 3.421875 -3.96875 2.96875 -3.96875 C 2.140625 -3.96875 1.75 -3.34375 1.625 -3.09375 L 1.609375 -3.09375 L 1.609375 -3.96875 L 0.3125 -3.859375 L 0.3125 -3.59375 C 0.921875 -3.59375 1 -3.53125 1 -3.078125 L 1 -0.6875 C 1 -0.28125 0.90625 -0.28125 0.3125 -0.28125 L 0.3125 0 C 0.734375 -0.015625 0.90625 -0.03125 1.34375 -0.03125 C 1.765625 -0.03125 1.890625 -0.015625 2.359375 0 L 2.359375 -0.28125 C 1.765625 -0.28125 1.671875 -0.28125 1.671875 -0.6875 L 1.671875 -2.328125 C 1.671875 -3.28125 2.34375 -3.734375 2.90625 -3.734375 C 3.4375 -3.734375 3.546875 -3.296875 3.546875 -2.765625 L 3.546875 -0.6875 C 3.546875 -0.28125 3.453125 -0.28125 2.859375 -0.28125 L 2.859375 0 C 3.28125 -0.015625 3.453125 -0.03125 3.890625 -0.03125 C 4.3125 -0.03125 4.4375 -0.015625 4.90625 0 Z M 4.90625 0 "/>
</g>
<g id="glyph-1-6">
<path d="M 3.34375 -3.40625 C 3.34375 -3.6875 3.078125 -3.96875 2.671875 -3.96875 C 2.140625 -3.96875 1.765625 -3.59375 1.546875 -3.03125 L 1.546875 -3.96875 L 0.265625 -3.859375 L 0.265625 -3.59375 C 0.875 -3.59375 0.953125 -3.53125 0.953125 -3.078125 L 0.953125 -0.6875 C 0.953125 -0.28125 0.859375 -0.28125 0.265625 -0.28125 L 0.265625 0 C 0.75 -0.015625 0.859375 -0.03125 1.3125 -0.03125 L 2.453125 0 L 2.453125 -0.28125 L 2.28125 -0.28125 C 1.625 -0.28125 1.59375 -0.375 1.59375 -0.703125 L 1.59375 -2.046875 C 1.59375 -2.421875 1.6875 -3.734375 2.71875 -3.734375 C 2.703125 -3.71875 2.5625 -3.609375 2.5625 -3.40625 C 2.5625 -3.15625 2.75 -3 2.953125 -3 C 3.140625 -3 3.34375 -3.140625 3.34375 -3.40625 Z M 3.34375 -3.40625 "/>
</g>
<g id="glyph-1-7">
<path d="M 6.46875 -3.59375 L 6.46875 -3.859375 C 6.109375 -3.84375 6.09375 -3.84375 5.796875 -3.84375 C 5.453125 -3.84375 5.328125 -3.84375 4.96875 -3.859375 L 4.96875 -3.59375 C 5.359375 -3.578125 5.484375 -3.34375 5.484375 -3.15625 C 5.484375 -3.0625 5.46875 -3.015625 5.4375 -2.953125 L 4.609375 -0.703125 L 3.703125 -3.171875 C 3.65625 -3.28125 3.65625 -3.3125 3.65625 -3.34375 C 3.65625 -3.5625 3.9375 -3.59375 4.171875 -3.59375 L 4.171875 -3.859375 C 3.765625 -3.84375 3.390625 -3.84375 3.25 -3.84375 C 2.96875 -3.84375 2.703125 -3.84375 2.421875 -3.859375 L 2.421875 -3.59375 C 2.703125 -3.59375 2.890625 -3.578125 2.984375 -3.453125 C 3.0625 -3.359375 3.1875 -3 3.1875 -2.96875 L 3.140625 -2.84375 L 2.40625 -0.828125 L 1.546875 -3.15625 C 1.5 -3.296875 1.5 -3.3125 1.5 -3.34375 C 1.5 -3.59375 1.84375 -3.59375 2.015625 -3.59375 L 2.015625 -3.859375 L 1.046875 -3.84375 C 0.75 -3.84375 0.484375 -3.84375 0.171875 -3.859375 L 0.171875 -3.59375 C 0.609375 -3.59375 0.71875 -3.5625 0.828125 -3.265625 L 1.984375 -0.09375 C 2.03125 0.015625 2.0625 0.09375 2.203125 0.09375 C 2.328125 0.09375 2.375 0 2.40625 -0.09375 L 3.3125 -2.59375 L 4.25 -0.09375 C 4.28125 0 4.3125 0.09375 4.453125 0.09375 C 4.578125 0.09375 4.609375 0.015625 4.640625 -0.078125 L 5.71875 -3 C 5.90625 -3.546875 6.28125 -3.578125 6.46875 -3.59375 Z M 6.46875 -3.59375 "/>
</g>
<g id="glyph-1-8">
<path d="M 4.453125 -0.796875 L 4.453125 -1.296875 L 4.203125 -1.296875 L 4.203125 -0.8125 C 4.203125 -0.703125 4.203125 -0.265625 3.890625 -0.265625 C 3.5625 -0.265625 3.5625 -0.6875 3.5625 -0.828125 L 3.5625 -2.40625 C 3.5625 -2.921875 3.5625 -3.21875 3.15625 -3.59375 C 2.828125 -3.890625 2.390625 -4.015625 1.953125 -4.015625 C 1.1875 -4.015625 0.5625 -3.640625 0.5625 -3.0625 C 0.5625 -2.796875 0.75 -2.640625 0.984375 -2.640625 C 1.234375 -2.640625 1.40625 -2.8125 1.40625 -3.046875 C 1.40625 -3.4375 1 -3.484375 1 -3.484375 C 1.234375 -3.71875 1.671875 -3.796875 1.921875 -3.796875 C 2.390625 -3.796875 2.890625 -3.453125 2.890625 -2.65625 L 2.890625 -2.375 C 2.40625 -2.34375 1.734375 -2.3125 1.140625 -2.015625 C 0.5 -1.703125 0.296875 -1.234375 0.296875 -0.875 C 0.296875 -0.140625 1.171875 0.09375 1.765625 0.09375 C 2.515625 0.09375 2.859375 -0.390625 2.984375 -0.640625 C 3.015625 -0.265625 3.28125 0.046875 3.671875 0.046875 C 3.890625 0.046875 4.453125 -0.078125 4.453125 -0.796875 Z M 2.890625 -1.265625 C 2.890625 -0.390625 2.21875 -0.125 1.828125 -0.125 C 1.40625 -0.125 1.015625 -0.4375 1.015625 -0.875 C 1.015625 -1.46875 1.53125 -2.09375 2.890625 -2.15625 Z M 2.890625 -1.265625 "/>
</g>
<g id="glyph-1-9">
<path d="M 4.671875 -3.59375 L 4.671875 -3.859375 C 4.40625 -3.84375 3.984375 -3.84375 3.984375 -3.84375 C 3.734375 -3.84375 3.453125 -3.84375 3.203125 -3.859375 L 3.203125 -3.59375 C 3.46875 -3.5625 3.609375 -3.4375 3.609375 -3.203125 C 3.609375 -3.109375 3.609375 -3.09375 3.5625 -3 L 2.640625 -0.734375 L 1.609375 -3.1875 C 1.59375 -3.234375 1.5625 -3.296875 1.5625 -3.359375 C 1.5625 -3.59375 1.890625 -3.59375 2.0625 -3.59375 L 2.0625 -3.859375 C 1.671875 -3.84375 1.46875 -3.84375 1.078125 -3.84375 C 0.765625 -3.84375 0.5 -3.84375 0.171875 -3.859375 L 0.171875 -3.59375 C 0.59375 -3.59375 0.765625 -3.59375 0.90625 -3.25 L 2.21875 -0.078125 C 2.265625 0.078125 2.34375 0.09375 2.421875 0.09375 C 2.5 0.09375 2.578125 0.078125 2.640625 -0.078125 L 3.859375 -3.015625 C 4.046875 -3.46875 4.359375 -3.578125 4.671875 -3.59375 Z M 4.671875 -3.59375 "/>
</g>
<g id="glyph-1-10">
<path d="M 3.3125 -1.140625 C 3.3125 -1.546875 3.140625 -1.796875 2.9375 -2 C 2.640625 -2.296875 2.3125 -2.359375 1.65625 -2.484375 C 1.421875 -2.53125 0.765625 -2.640625 0.765625 -3.15625 C 0.765625 -3.4375 0.96875 -3.828125 1.78125 -3.828125 C 2.75 -3.828125 2.8125 -3.078125 2.828125 -2.859375 C 2.84375 -2.75 2.84375 -2.6875 2.953125 -2.6875 C 3.078125 -2.6875 3.078125 -2.75 3.078125 -2.921875 L 3.078125 -3.78125 C 3.078125 -3.9375 3.078125 -4.015625 2.984375 -4.015625 C 2.9375 -4.015625 2.921875 -4.015625 2.796875 -3.90625 C 2.78125 -3.890625 2.703125 -3.8125 2.640625 -3.765625 C 2.375 -3.96875 2.09375 -4.015625 1.78125 -4.015625 C 0.59375 -4.015625 0.3125 -3.359375 0.3125 -2.90625 C 0.3125 -2.625 0.4375 -2.390625 0.640625 -2.1875 C 0.9375 -1.90625 1.28125 -1.84375 1.734375 -1.765625 C 2.203125 -1.671875 2.34375 -1.65625 2.546875 -1.5 C 2.640625 -1.421875 2.859375 -1.25 2.859375 -0.921875 C 2.859375 -0.125 1.953125 -0.125 1.828125 -0.125 C 0.921875 -0.125 0.6875 -0.890625 0.578125 -1.375 C 0.546875 -1.46875 0.53125 -1.515625 0.4375 -1.515625 C 0.3125 -1.515625 0.3125 -1.4375 0.3125 -1.28125 L 0.3125 -0.140625 C 0.3125 0.015625 0.3125 0.09375 0.40625 0.09375 C 0.46875 0.09375 0.46875 0.09375 0.640625 -0.078125 C 0.671875 -0.140625 0.765625 -0.25 0.8125 -0.296875 C 1.1875 0.078125 1.609375 0.09375 1.828125 0.09375 C 2.9375 0.09375 3.3125 -0.546875 3.3125 -1.140625 Z M 3.3125 -1.140625 "/>
</g>
</g>
<clipPath id="clip-0">
<path clip-rule="nonzero" d="M 37 4 L 80 4 L 80 41.4375 L 37 41.4375 Z M 37 4 "/>
</clipPath>
<clipPath id="clip-1">
<path clip-rule="nonzero" d="M 37.8125 24.269531 L 79.480469 4.425781 L 79.480469 44.113281 Z M 37.8125 24.269531 "/>
</clipPath>
<clipPath id="clip-2">
<path clip-rule="nonzero" d="M 30 27 L 45 27 L 45 41.4375 L 30 41.4375 Z M 30 27 "/>
</clipPath>
<clipPath id="clip-3">
<path clip-rule="nonzero" d="M 83 6 L 90.699219 6 L 90.699219 11 L 83 11 Z M 83 6 "/>
</clipPath>
</defs>
<path fill-rule="nonzero" fill="rgb(70.001221%, 90.351868%, 98.118591%)" fill-opacity="1" stroke-width="0.797" stroke-linecap="butt" stroke-linejoin="bevel" stroke="rgb(0%, 0%, 0%)" stroke-opacity="1" stroke-miterlimit="10" d="M 0.0005 -0.00040625 L -9.921375 19.843344 L 9.922375 19.843344 Z M 0.0005 -0.00040625 " transform="matrix(1, 0, 0, -1, 37.812, 34.191)"/>
<path fill="none" stroke-width="0.3985" stroke-linecap="butt" stroke-linejoin="miter" stroke="rgb(0%, 0%, 0%)" stroke-opacity="1" stroke-miterlimit="10" d="M 0.0005 -0.00040625 L 0.0005 19.843344 " transform="matrix(1, 0, 0, -1, 37.812, 34.191)"/>
<g clip-path="url(#clip-0)">
<g clip-path="url(#clip-1)">
<path fill="none" stroke-width="0.3985" stroke-linecap="butt" stroke-linejoin="miter" stroke="rgb(0%, 0%, 0%)" stroke-opacity="1" stroke-miterlimit="10" d="M 39.684094 9.921469 C 39.684094 31.839437 21.918469 49.605062 0.0005 49.605062 C -21.917469 49.605062 -39.687 31.839437 -39.687 9.921469 C -39.687 -11.9965 -21.917469 -29.762125 0.0005 -29.762125 C 21.918469 -29.762125 39.684094 -11.9965 39.684094 9.921469 Z M 34.723156 9.921469 C 34.723156 29.101156 19.176281 44.644125 0.0005 44.644125 C -19.179188 44.644125 -34.726063 29.101156 -34.726063 9.921469 C -34.726063 -9.258219 -19.179188 -24.805094 0.0005 -24.805094 C 19.176281 -24.805094 34.723156 -9.258219 34.723156 9.921469 Z M 29.762219 9.921469 C 29.762219 26.358969 16.438 39.687094 0.0005 39.687094 C -16.437 39.687094 -29.765125 26.358969 -29.765125 9.921469 C -29.765125 -6.516031 -16.437 -19.844156 0.0005 -19.844156 C 16.438 -19.844156 29.762219 -6.516031 29.762219 9.921469 Z M 24.805187 9.921469 C 24.805187 23.620687 13.699719 34.726156 0.0005 34.726156 C -13.698719 34.726156 -24.804188 23.620687 -24.804188 9.921469 C -24.804188 -3.77775 -13.698719 -14.883219 0.0005 -14.883219 C 13.699719 -14.883219 24.805187 -3.77775 24.805187 9.921469 Z M 19.84425 9.921469 C 19.84425 20.8785 10.957531 29.765219 0.0005 29.765219 C -10.960438 29.765219 -19.84325 20.8785 -19.84325 9.921469 C -19.84325 -1.039469 -10.960438 -9.922281 0.0005 -9.922281 C 10.957531 -9.922281 19.84425 -1.039469 19.84425 9.921469 Z M 14.883312 9.921469 C 14.883312 18.140219 8.21925 24.804281 0.0005 24.804281 C -8.21825 24.804281 -14.882313 18.140219 -14.882313 9.921469 C -14.882313 1.702719 -8.21825 -4.961344 0.0005 -4.961344 C 8.21925 -4.961344 14.883312 1.702719 14.883312 9.921469 Z M 14.883312 9.921469 " transform="matrix(1, 0, 0, -1, 37.812, 34.191)"/>
</g>
</g>
<g fill="rgb(0%, 0%, 0%)" fill-opacity="1">
<use xlink:href="#glyph-0-0" x="16.268" y="27.701"/>
</g>
<g fill="rgb(0%, 0%, 0%)" fill-opacity="1">
<use xlink:href="#glyph-0-1" x="22.636094" y="27.701"/>
</g>
<path fill="none" stroke-width="0.3985" stroke-linecap="butt" stroke-linejoin="miter" stroke="rgb(100%, 0%, 0%)" stroke-opacity="1" stroke-miterlimit="10" d="M 1.410656 19.843344 C 1.410656 20.620687 0.777844 21.2535 0.0005 21.2535 C -0.776844 21.2535 -1.409656 20.620687 -1.409656 19.843344 C -1.409656 19.066 -0.776844 18.433187 0.0005 18.433187 C 0.777844 18.433187 1.410656 19.066 1.410656 19.843344 Z M 1.410656 19.843344 " transform="matrix(1, 0, 0, -1, 37.812, 34.191)"/>
<g fill="rgb(100%, 0%, 0%)" fill-opacity="1">
<use xlink:href="#glyph-1-0" x="31.156" y="6.331"/>
<use xlink:href="#glyph-1-1" x="34.73987" y="6.331"/>
<use xlink:href="#glyph-1-2" x="39.347703" y="6.331"/>
</g>
<path fill="none" stroke-width="0.19925" stroke-linecap="butt" stroke-linejoin="miter" stroke="rgb(100%, 0%, 0%)" stroke-opacity="1" stroke-miterlimit="10" d="M 0.0005 21.452719 L 0.0005 25.421469 " transform="matrix(1, 0, 0, -1, 37.812, 34.191)"/>
<g clip-path="url(#clip-2)">
<path fill="none" stroke-width="0.3985" stroke-linecap="butt" stroke-linejoin="miter" stroke="rgb(100%, 0%, 0%)" stroke-opacity="1" stroke-miterlimit="10" d="M 1.410656 -0.00040625 C 1.410656 0.776937 0.777844 1.40975 0.0005 1.40975 C -0.776844 1.40975 -1.409656 0.776937 -1.409656 -0.00040625 C -1.409656 -0.77775 -0.776844 -1.410563 0.0005 -1.410563 C 0.777844 -1.410563 1.410656 -0.77775 1.410656 -0.00040625 Z M 1.410656 -0.00040625 " transform="matrix(1, 0, 0, -1, 37.812, 34.191)"/>
</g>
<g fill="rgb(100%, 0%, 0%)" fill-opacity="1">
<use xlink:href="#glyph-1-3" x="-0.745" y="36.899"/>
<use xlink:href="#glyph-1-4" x="3.350852" y="36.899"/>
<use xlink:href="#glyph-1-5" x="7.45029" y="36.899"/>
</g>
<g fill="rgb(100%, 0%, 0%)" fill-opacity="1">
<use xlink:href="#glyph-1-0" x="12.310078" y="36.899"/>
<use xlink:href="#glyph-1-4" x="15.893948" y="36.899"/>
<use xlink:href="#glyph-1-6" x="19.993387" y="36.899"/>
</g>
<path fill="none" stroke-width="0.19925" stroke-linecap="butt" stroke-linejoin="miter" stroke="rgb(100%, 0%, 0%)" stroke-opacity="1" stroke-miterlimit="10" d="M -1.608875 -0.00040625 L -13.515125 -0.00040625 " transform="matrix(1, 0, 0, -1, 37.812, 34.191)"/>
<path fill="none" stroke-width="0.3985" stroke-linecap="butt" stroke-linejoin="miter" stroke="rgb(100%, 0%, 0%)" stroke-opacity="1" stroke-miterlimit="10" d="M 43.078625 9.921469 C 43.078625 10.698812 42.449719 11.331625 41.668469 11.331625 C 40.891125 11.331625 40.262219 10.698812 40.262219 9.921469 C 40.262219 9.144125 40.891125 8.511312 41.668469 8.511312 C 42.449719 8.511312 43.078625 9.144125 43.078625 9.921469 Z M 43.078625 9.921469 " transform="matrix(1, 0, 0, -1, 37.812, 34.191)"/>
<g fill="rgb(100%, 0%, 0%)" fill-opacity="1">
<use xlink:href="#glyph-1-7" x="67.934" y="10.059"/>
</g>
<g fill="rgb(100%, 0%, 0%)" fill-opacity="1">
<use xlink:href="#glyph-1-8" x="74.329733" y="10.059"/>
</g>
<g fill="rgb(100%, 0%, 0%)" fill-opacity="1">
<use xlink:href="#glyph-1-9" x="78.686507" y="10.059"/>
</g>
<g clip-path="url(#clip-3)">
<g fill="rgb(100%, 0%, 0%)" fill-opacity="1">
<use xlink:href="#glyph-1-4" x="83.289857" y="10.059"/>
<use xlink:href="#glyph-1-10" x="87.389295" y="10.059"/>
</g>
</g>
<path fill="none" stroke-width="0.19925" stroke-linecap="butt" stroke-linejoin="miter" stroke="rgb(100%, 0%, 0%)" stroke-opacity="1" stroke-miterlimit="10" d="M 41.668469 11.530844 L 41.668469 23.437094 " transform="matrix(1, 0, 0, -1, 37.812, 34.191)"/>
</svg>
