<?xml version="1.0" encoding="UTF-8"?>
<svg xmlns="http://www.w3.org/2000/svg" xmlns:xlink="http://www.w3.org/1999/xlink" width="170.107pt" height="69.292pt" viewBox="0 0 170.107 69.292">
<defs>
<clipPath id="clip-0">
<path clip-rule="nonzero" d="M 126 16 L 169.660156 16 L 169.660156 18 L 126 18 Z M 126 16 "/>
</clipPath>
<clipPath id="clip-1">
<path clip-rule="nonzero" d="M 125 0 L 169.660156 0 L 169.660156 37 L 125 37 Z M 125 0 "/>
</clipPath>
<clipPath id="clip-2">
<path clip-rule="nonzero" d="M 0 33 L 44 33 L 44 68.9375 L 0 68.9375 Z M 0 33 "/>
</clipPath>
<clipPath id="clip-3">
<path clip-rule="nonzero" d="M 40 29 L 87 29 L 87 68.9375 L 40 68.9375 Z M 40 29 "/>
</clipPath>
<clipPath id="clip-4">
<path clip-rule="nonzero" d="M 82 29 L 130 29 L 130 68.9375 L 82 68.9375 Z M 82 29 "/>
</clipPath>
<clipPath id="clip-5">
<path clip-rule="nonzero" d="M 126 56 L 169.660156 56 L 169.660156 57 L 126 57 Z M 126 56 "/>
</clipPath>
<clipPath id="clip-6">
<path clip-rule="nonzero" d="M 125 29 L 169.660156 29 L 169.660156 68.9375 L 125 68.9375 Z M 125 29 "/>
</clipPath>
<clipPath id="clip-7">
<path clip-rule="nonzero" d="M 134 54 L 163 54 L 163 68.9375 L 134 68.9375 Z M 134 54 "/>
</clipPath>
</defs>
<path fill="none" stroke-width="0.3985" stroke-linecap="butt" stroke-linejoin="miter" stroke="rgb(0%, 0%, 0%)" stroke-opacity="1" stroke-miterlimit="10" d="M 42.52 39.6835 L 51.875469 39.6835 M 75.687969 39.6835 L 85.039531 39.6835 " transform="matrix(1, 0, 0, -1, -42.9575, 56.621)"/>
<path fill="none" stroke-width="0.797" stroke-linecap="butt" stroke-linejoin="miter" stroke="rgb(0%, 0%, 0%)" stroke-opacity="1" stroke-miterlimit="10" d="M 72.711406 51.58975 L 54.852031 51.58975 C 53.2075 51.58975 51.875469 50.257719 51.875469 48.613187 L 51.875469 30.757719 C 51.875469 29.113187 53.2075 27.781156 54.852031 27.781156 L 72.711406 27.781156 C 74.352031 27.781156 75.687969 29.113187 75.687969 30.757719 L 75.687969 48.613187 C 75.687969 50.257719 74.352031 51.58975 72.711406 51.58975 Z M 72.711406 51.58975 " transform="matrix(1, 0, 0, -1, -42.9575, 56.621)"/>
<path fill="none" stroke-width="0.3985" stroke-linecap="butt" stroke-linejoin="miter" stroke="rgb(0%, 0%, 0%)" stroke-opacity="1" stroke-miterlimit="10" d="M 57.617656 41.253812 C 61.652812 42.335844 65.906719 42.335844 69.941875 41.253812 L 71.484844 47.003812 C 66.437969 48.355375 61.121562 48.355375 56.078594 47.003812 Z M 67.504375 41.773344 L 68.250469 46.476469 " transform="matrix(1, 0, 0, -1, -42.9575, 56.621)"/>
<path fill="none" stroke-width="0.3985" stroke-linecap="butt" stroke-linejoin="miter" stroke="rgb(0%, 0%, 0%)" stroke-opacity="1" stroke-miterlimit="10" d="M 85.039531 39.6835 L 94.395 39.6835 M 118.2075 39.6835 L 127.559062 39.6835 " transform="matrix(1, 0, 0, -1, -42.9575, 56.621)"/>
<path fill="none" stroke-width="0.797" stroke-linecap="butt" stroke-linejoin="miter" stroke="rgb(0%, 0%, 0%)" stroke-opacity="1" stroke-miterlimit="10" d="M 114.23875 55.5585 L 98.36375 55.5585 C 96.172344 55.5585 94.395 53.781156 94.395 51.58975 L 94.395 35.718656 C 94.395 33.523344 96.172344 31.749906 98.36375 31.749906 L 114.23875 31.749906 C 116.430156 31.749906 118.2075 33.523344 118.2075 35.718656 L 118.2075 51.58975 C 118.2075 53.781156 116.430156 55.5585 114.23875 55.5585 Z M 114.23875 55.5585 " transform="matrix(1, 0, 0, -1, -42.9575, 56.621)"/>
<path fill="none" stroke-width="0.3985" stroke-linecap="butt" stroke-linejoin="miter" stroke="rgb(0%, 0%, 0%)" stroke-opacity="1" stroke-miterlimit="10" d="M 98.80125 45.179594 C 103.734844 46.320219 108.867656 46.320219 113.797344 45.179594 L 115.227031 51.367094 C 109.355937 52.722562 103.246562 52.722562 97.371562 51.367094 Z M 110.824687 45.726469 L 111.469219 50.441312 " transform="matrix(1, 0, 0, -1, -42.9575, 56.621)"/>
<path fill="none" stroke-width="0.3985" stroke-linecap="butt" stroke-linejoin="miter" stroke="rgb(0%, 0%, 0%)" stroke-opacity="1" stroke-miterlimit="10" d="M 94.395 39.6835 L 118.2075 39.6835 " transform="matrix(1, 0, 0, -1, -42.9575, 56.621)"/>
<path fill-rule="nonzero" fill="rgb(0%, 0%, 0%)" fill-opacity="1" stroke-width="0.3985" stroke-linecap="butt" stroke-linejoin="miter" stroke="rgb(0%, 0%, 0%)" stroke-opacity="1" stroke-miterlimit="10" d="M 104.562969 39.6835 L 104.562969 37.703031 L 108.781719 39.6835 L 104.562969 41.667875 Z M 104.562969 39.6835 " transform="matrix(1, 0, 0, -1, -42.9575, 56.621)"/>
<path fill="none" stroke-width="0.3985" stroke-linecap="butt" stroke-linejoin="miter" stroke="rgb(0%, 0%, 0%)" stroke-opacity="1" stroke-miterlimit="10" d="M 127.559062 39.6835 L 136.914531 39.6835 M 160.727031 39.6835 L 170.0825 39.6835 " transform="matrix(1, 0, 0, -1, -42.9575, 56.621)"/>
<path fill="none" stroke-width="0.797" stroke-linecap="butt" stroke-linejoin="miter" stroke="rgb(0%, 0%, 0%)" stroke-opacity="1" stroke-miterlimit="10" d="M 156.758281 55.5585 L 140.883281 55.5585 C 138.691875 55.5585 136.914531 53.781156 136.914531 51.58975 L 136.914531 35.718656 C 136.914531 33.523344 138.691875 31.749906 140.883281 31.749906 L 156.758281 31.749906 C 158.949687 31.749906 160.727031 33.523344 160.727031 35.718656 L 160.727031 51.58975 C 160.727031 53.781156 158.949687 55.5585 156.758281 55.5585 Z M 156.758281 55.5585 " transform="matrix(1, 0, 0, -1, -42.9575, 56.621)"/>
<path fill="none" stroke-width="0.3985" stroke-linecap="butt" stroke-linejoin="miter" stroke="rgb(0%, 0%, 0%)" stroke-opacity="1" stroke-miterlimit="10" d="M 141.320781 45.179594 C 146.254375 46.320219 151.387187 46.320219 156.320781 45.179594 L 157.746562 51.367094 C 151.875469 52.722562 145.766094 52.722562 139.895 51.367094 Z M 153.344219 45.726469 L 153.98875 50.441312 " transform="matrix(1, 0, 0, -1, -42.9575, 56.621)"/>
<path fill="none" stroke-width="0.3985" stroke-linecap="butt" stroke-linejoin="miter" stroke="rgb(0%, 0%, 0%)" stroke-opacity="1" stroke-miterlimit="10" d="M 136.914531 39.6835 L 141.67625 39.6835 M 144.852031 39.6835 C 144.852031 40.562406 144.141094 41.273344 143.266094 41.273344 C 142.387187 41.273344 141.67625 40.562406 141.67625 39.6835 C 141.67625 38.8085 142.387187 38.097562 143.266094 38.097562 C 144.141094 38.097562 144.852031 38.8085 144.852031 39.6835 Z M 155.965312 39.6835 L 160.727031 39.6835 M 155.965312 39.6835 C 155.965312 40.562406 155.254375 41.273344 154.375469 41.273344 C 153.500469 41.273344 152.789531 40.562406 152.789531 39.6835 C 152.789531 38.8085 153.500469 38.097562 154.375469 38.097562 C 155.254375 38.097562 155.965312 38.8085 155.965312 39.6835 Z M 155.965312 39.6835 " transform="matrix(1, 0, 0, -1, -42.9575, 56.621)"/>
<path fill="none" stroke-width="0.797" stroke-linecap="butt" stroke-linejoin="miter" stroke="rgb(0%, 0%, 0%)" stroke-opacity="1" stroke-miterlimit="10" d="M 143.266094 37.304594 L 143.266094 34.128812 M 141.67625 35.718656 L 144.852031 35.718656 M 155.965312 35.718656 L 152.789531 35.718656 " transform="matrix(1, 0, 0, -1, -42.9575, 56.621)"/>
<g clip-path="url(#clip-0)">
<path fill="none" stroke-width="0.3985" stroke-linecap="butt" stroke-linejoin="miter" stroke="rgb(0%, 0%, 0%)" stroke-opacity="1" stroke-miterlimit="10" d="M 170.0825 39.6835 L 179.434062 39.6835 M 203.246562 39.6835 L 212.602031 39.6835 " transform="matrix(1, 0, 0, -1, -42.9575, 56.621)"/>
</g>
<g clip-path="url(#clip-1)">
<path fill="none" stroke-width="0.797" stroke-linecap="butt" stroke-linejoin="miter" stroke="rgb(0%, 0%, 0%)" stroke-opacity="1" stroke-miterlimit="10" d="M 199.277812 55.5585 L 183.402812 55.5585 C 181.211406 55.5585 179.434062 53.781156 179.434062 51.58975 L 179.434062 35.718656 C 179.434062 33.523344 181.211406 31.749906 183.402812 31.749906 L 199.277812 31.749906 C 201.469219 31.749906 203.246562 33.523344 203.246562 35.718656 L 203.246562 51.58975 C 203.246562 53.781156 201.469219 55.5585 199.277812 55.5585 Z M 199.277812 55.5585 " transform="matrix(1, 0, 0, -1, -42.9575, 56.621)"/>
</g>
<path fill="none" stroke-width="0.3985" stroke-linecap="butt" stroke-linejoin="miter" stroke="rgb(0%, 0%, 0%)" stroke-opacity="1" stroke-miterlimit="10" d="M 183.840312 45.179594 C 188.773906 46.320219 193.906719 46.320219 198.840312 45.179594 L 200.266094 51.367094 C 194.395 52.722562 188.285625 52.722562 182.414531 51.367094 Z M 195.86375 45.726469 L 196.512187 50.441312 " transform="matrix(1, 0, 0, -1, -42.9575, 56.621)"/>
<path fill="none" stroke-width="0.3985" stroke-linecap="butt" stroke-linejoin="miter" stroke="rgb(0%, 0%, 0%)" stroke-opacity="1" stroke-miterlimit="10" d="M 179.434062 39.6835 L 203.246562 39.6835 " transform="matrix(1, 0, 0, -1, -42.9575, 56.621)"/>
<path fill-rule="nonzero" fill="rgb(0%, 0%, 0%)" fill-opacity="1" stroke-width="0.3985" stroke-linecap="butt" stroke-linejoin="miter" stroke="rgb(0%, 0%, 0%)" stroke-opacity="1" stroke-miterlimit="10" d="M 189.605937 39.6835 L 189.605937 37.703031 L 193.820781 39.6835 L 189.605937 41.667875 Z M 189.605937 39.6835 " transform="matrix(1, 0, 0, -1, -42.9575, 56.621)"/>
<path fill="none" stroke-width="0.3985" stroke-linecap="butt" stroke-linejoin="miter" stroke="rgb(0%, 0%, 0%)" stroke-opacity="1" stroke-miterlimit="10" d="M 185.785625 34.925687 C 185.785625 35.800687 185.074687 36.511625 184.195781 36.511625 C 183.320781 36.511625 182.609844 35.800687 182.609844 34.925687 C 182.609844 34.046781 183.320781 33.335844 184.195781 33.335844 C 185.074687 33.335844 185.785625 34.046781 185.785625 34.925687 Z M 184.195781 33.335844 L 184.195781 31.749906 M 200.070781 34.925687 C 200.070781 35.800687 199.359844 36.511625 198.484844 36.511625 C 197.609844 36.511625 196.898906 35.800687 196.898906 34.925687 C 196.898906 34.046781 197.609844 33.335844 198.484844 33.335844 C 199.359844 33.335844 200.070781 34.046781 200.070781 34.925687 Z M 198.484844 33.335844 L 198.484844 31.749906 " transform="matrix(1, 0, 0, -1, -42.9575, 56.621)"/>
<path fill="none" stroke-width="0.797" stroke-linecap="butt" stroke-linejoin="miter" stroke="rgb(0%, 0%, 0%)" stroke-opacity="1" stroke-miterlimit="10" d="M 188.9575 36.511625 L 188.9575 33.335844 M 187.371562 34.925687 L 190.547344 34.925687 M 192.137187 34.925687 L 195.309062 34.925687 " transform="matrix(1, 0, 0, -1, -42.9575, 56.621)"/>
<path fill="none" stroke-width="0.3985" stroke-linecap="butt" stroke-linejoin="miter" stroke="rgb(0%, 0%, 0%)" stroke-opacity="1" stroke-miterlimit="10" d="M 42.52 -0.00009375 L 51.875469 -0.00009375 M 75.687969 -0.00009375 L 85.039531 -0.00009375 " transform="matrix(1, 0, 0, -1, -42.9575, 56.621)"/>
<g clip-path="url(#clip-2)">
<path fill="none" stroke-width="0.797" stroke-linecap="butt" stroke-linejoin="miter" stroke="rgb(0%, 0%, 0%)" stroke-opacity="1" stroke-miterlimit="10" d="M 72.711406 11.906156 L 54.852031 11.906156 C 53.2075 11.906156 51.875469 10.574125 51.875469 8.929594 L 51.875469 -8.929781 C 51.875469 -10.574313 53.2075 -11.906344 54.852031 -11.906344 L 72.711406 -11.906344 C 74.352031 -11.906344 75.687969 -10.574313 75.687969 -8.929781 L 75.687969 8.929594 C 75.687969 10.574125 74.352031 11.906156 72.711406 11.906156 Z M 72.711406 11.906156 " transform="matrix(1, 0, 0, -1, -42.9575, 56.621)"/>
</g>
<path fill="none" stroke-width="0.3985" stroke-linecap="butt" stroke-linejoin="miter" stroke="rgb(0%, 0%, 0%)" stroke-opacity="1" stroke-miterlimit="10" d="M 57.617656 1.570219 C 61.652812 2.65225 65.906719 2.65225 69.941875 1.570219 L 71.484844 7.320219 C 66.437969 8.671781 61.121562 8.671781 56.078594 7.320219 Z M 63.781719 2.382719 L 63.781719 7.144437 " transform="matrix(1, 0, 0, -1, -42.9575, 56.621)"/>
<path fill="none" stroke-width="0.3985" stroke-linecap="butt" stroke-linejoin="miter" stroke="rgb(0%, 0%, 0%)" stroke-opacity="1" stroke-miterlimit="10" d="M 85.039531 -0.00009375 L 94.395 -0.00009375 M 118.2075 -0.00009375 L 127.559062 -0.00009375 " transform="matrix(1, 0, 0, -1, -42.9575, 56.621)"/>
<g clip-path="url(#clip-3)">
<path fill="none" stroke-width="0.797" stroke-linecap="butt" stroke-linejoin="miter" stroke="rgb(0%, 0%, 0%)" stroke-opacity="1" stroke-miterlimit="10" d="M 114.23875 15.874906 L 98.36375 15.874906 C 96.172344 15.874906 94.395 14.097562 94.395 11.906156 L 94.395 -3.968844 C 94.395 -6.16025 96.172344 -7.937594 98.36375 -7.937594 L 114.23875 -7.937594 C 116.430156 -7.937594 118.2075 -6.16025 118.2075 -3.968844 L 118.2075 11.906156 C 118.2075 14.097562 116.430156 15.874906 114.23875 15.874906 Z M 114.23875 15.874906 " transform="matrix(1, 0, 0, -1, -42.9575, 56.621)"/>
</g>
<path fill="none" stroke-width="0.3985" stroke-linecap="butt" stroke-linejoin="miter" stroke="rgb(0%, 0%, 0%)" stroke-opacity="1" stroke-miterlimit="10" d="M 98.80125 5.496 C 103.734844 6.632719 108.867656 6.632719 113.797344 5.496 L 115.227031 11.6835 C 109.355937 13.038969 103.246562 13.038969 97.371562 11.6835 Z M 102.527812 6.132719 L 101.98875 10.867094 " transform="matrix(1, 0, 0, -1, -42.9575, 56.621)"/>
<path fill="none" stroke-width="0.3985" stroke-linecap="butt" stroke-linejoin="miter" stroke="rgb(0%, 0%, 0%)" stroke-opacity="1" stroke-miterlimit="10" d="M 94.395 -0.00009375 L 118.2075 -0.00009375 " transform="matrix(1, 0, 0, -1, -42.9575, 56.621)"/>
<path fill-rule="nonzero" fill="rgb(0%, 0%, 0%)" fill-opacity="1" stroke-width="0.3985" stroke-linecap="butt" stroke-linejoin="miter" stroke="rgb(0%, 0%, 0%)" stroke-opacity="1" stroke-miterlimit="10" d="M 104.562969 -0.00009375 L 104.562969 -1.984469 L 108.781719 -0.00009375 L 104.562969 1.984281 Z M 104.562969 -0.00009375 " transform="matrix(1, 0, 0, -1, -42.9575, 56.621)"/>
<path fill="none" stroke-width="0.3985" stroke-linecap="butt" stroke-linejoin="miter" stroke="rgb(0%, 0%, 0%)" stroke-opacity="1" stroke-miterlimit="10" d="M 127.559062 -0.00009375 L 136.914531 -0.00009375 M 160.727031 -0.00009375 L 170.0825 -0.00009375 " transform="matrix(1, 0, 0, -1, -42.9575, 56.621)"/>
<g clip-path="url(#clip-4)">
<path fill="none" stroke-width="0.797" stroke-linecap="butt" stroke-linejoin="miter" stroke="rgb(0%, 0%, 0%)" stroke-opacity="1" stroke-miterlimit="10" d="M 156.758281 15.874906 L 140.883281 15.874906 C 138.691875 15.874906 136.914531 14.097562 136.914531 11.906156 L 136.914531 -3.968844 C 136.914531 -6.16025 138.691875 -7.937594 140.883281 -7.937594 L 156.758281 -7.937594 C 158.949687 -7.937594 160.727031 -6.16025 160.727031 -3.968844 L 160.727031 11.906156 C 160.727031 14.097562 158.949687 15.874906 156.758281 15.874906 Z M 156.758281 15.874906 " transform="matrix(1, 0, 0, -1, -42.9575, 56.621)"/>
</g>
<path fill="none" stroke-width="0.3985" stroke-linecap="butt" stroke-linejoin="miter" stroke="rgb(0%, 0%, 0%)" stroke-opacity="1" stroke-miterlimit="10" d="M 141.320781 5.496 C 146.254375 6.632719 151.387187 6.632719 156.320781 5.496 L 157.746562 11.6835 C 151.875469 13.038969 145.766094 13.038969 139.895 11.6835 Z M 145.047344 6.132719 L 144.508281 10.867094 " transform="matrix(1, 0, 0, -1, -42.9575, 56.621)"/>
<path fill="none" stroke-width="0.3985" stroke-linecap="butt" stroke-linejoin="miter" stroke="rgb(0%, 0%, 0%)" stroke-opacity="1" stroke-miterlimit="10" d="M 136.914531 -0.00009375 L 141.67625 -0.00009375 M 144.852031 -0.00009375 C 144.852031 0.874906 144.141094 1.585844 143.266094 1.585844 C 142.387187 1.585844 141.67625 0.874906 141.67625 -0.00009375 C 141.67625 -0.875094 142.387187 -1.586031 143.266094 -1.586031 C 144.141094 -1.586031 144.852031 -0.875094 144.852031 -0.00009375 Z M 155.965312 -0.00009375 L 160.727031 -0.00009375 M 155.965312 -0.00009375 C 155.965312 0.874906 155.254375 1.585844 154.375469 1.585844 C 153.500469 1.585844 152.789531 0.874906 152.789531 -0.00009375 C 152.789531 -0.875094 153.500469 -1.586031 154.375469 -1.586031 C 155.254375 -1.586031 155.965312 -0.875094 155.965312 -0.00009375 Z M 155.965312 -0.00009375 " transform="matrix(1, 0, 0, -1, -42.9575, 56.621)"/>
<path fill="none" stroke-width="0.797" stroke-linecap="butt" stroke-linejoin="miter" stroke="rgb(0%, 0%, 0%)" stroke-opacity="1" stroke-miterlimit="10" d="M 143.266094 -2.379 L 143.266094 -5.554781 M 141.67625 -3.968844 L 144.852031 -3.968844 M 155.965312 -3.968844 L 152.789531 -3.968844 " transform="matrix(1, 0, 0, -1, -42.9575, 56.621)"/>
<g clip-path="url(#clip-5)">
<path fill="none" stroke-width="0.3985" stroke-linecap="butt" stroke-linejoin="miter" stroke="rgb(0%, 0%, 0%)" stroke-opacity="1" stroke-miterlimit="10" d="M 170.0825 -0.00009375 L 179.434062 -0.00009375 M 203.246562 -0.00009375 L 212.602031 -0.00009375 " transform="matrix(1, 0, 0, -1, -42.9575, 56.621)"/>
</g>
<g clip-path="url(#clip-6)">
<path fill="none" stroke-width="0.797" stroke-linecap="butt" stroke-linejoin="miter" stroke="rgb(0%, 0%, 0%)" stroke-opacity="1" stroke-miterlimit="10" d="M 199.277812 15.874906 L 183.402812 15.874906 C 181.211406 15.874906 179.434062 14.097562 179.434062 11.906156 L 179.434062 -3.968844 C 179.434062 -6.16025 181.211406 -7.937594 183.402812 -7.937594 L 199.277812 -7.937594 C 201.469219 -7.937594 203.246562 -6.16025 203.246562 -3.968844 L 203.246562 11.906156 C 203.246562 14.097562 201.469219 15.874906 199.277812 15.874906 Z M 199.277812 15.874906 " transform="matrix(1, 0, 0, -1, -42.9575, 56.621)"/>
</g>
<path fill="none" stroke-width="0.3985" stroke-linecap="butt" stroke-linejoin="miter" stroke="rgb(0%, 0%, 0%)" stroke-opacity="1" stroke-miterlimit="10" d="M 183.840312 5.496 C 188.773906 6.632719 193.906719 6.632719 198.840312 5.496 L 200.266094 11.6835 C 194.395 13.038969 188.285625 13.038969 182.414531 11.6835 Z M 187.566875 6.132719 L 187.027812 10.867094 " transform="matrix(1, 0, 0, -1, -42.9575, 56.621)"/>
<path fill="none" stroke-width="0.3985" stroke-linecap="butt" stroke-linejoin="miter" stroke="rgb(0%, 0%, 0%)" stroke-opacity="1" stroke-miterlimit="10" d="M 179.434062 -0.00009375 L 203.246562 -0.00009375 " transform="matrix(1, 0, 0, -1, -42.9575, 56.621)"/>
<path fill-rule="nonzero" fill="rgb(0%, 0%, 0%)" fill-opacity="1" stroke-width="0.3985" stroke-linecap="butt" stroke-linejoin="miter" stroke="rgb(0%, 0%, 0%)" stroke-opacity="1" stroke-miterlimit="10" d="M 189.605937 -0.00009375 L 189.605937 -1.984469 L 193.820781 -0.00009375 L 189.605937 1.984281 Z M 189.605937 -0.00009375 " transform="matrix(1, 0, 0, -1, -42.9575, 56.621)"/>
<g clip-path="url(#clip-7)">
<path fill="none" stroke-width="0.3985" stroke-linecap="butt" stroke-linejoin="miter" stroke="rgb(0%, 0%, 0%)" stroke-opacity="1" stroke-miterlimit="10" d="M 185.785625 -4.761813 C 185.785625 -3.886813 185.074687 -3.175875 184.195781 -3.175875 C 183.320781 -3.175875 182.609844 -3.886813 182.609844 -4.761813 C 182.609844 -5.636813 183.320781 -6.34775 184.195781 -6.34775 C 185.074687 -6.34775 185.785625 -5.636813 185.785625 -4.761813 Z M 184.195781 -6.34775 L 184.195781 -7.937594 M 200.070781 -4.761813 C 200.070781 -3.886813 199.359844 -3.175875 198.484844 -3.175875 C 197.609844 -3.175875 196.898906 -3.886813 196.898906 -4.761813 C 196.898906 -5.636813 197.609844 -6.34775 198.484844 -6.34775 C 199.359844 -6.34775 200.070781 -5.636813 200.070781 -4.761813 Z M 198.484844 -6.34775 L 198.484844 -7.937594 " transform="matrix(1, 0, 0, -1, -42.9575, 56.621)"/>
</g>
<path fill="none" stroke-width="0.797" stroke-linecap="butt" stroke-linejoin="miter" stroke="rgb(0%, 0%, 0%)" stroke-opacity="1" stroke-miterlimit="10" d="M 188.9575 -3.175875 L 188.9575 -6.34775 M 187.371562 -4.761813 L 190.547344 -4.761813 M 192.137187 -4.761813 L 195.309062 -4.761813 " transform="matrix(1, 0, 0, -1, -42.9575, 56.621)"/>
</svg>
