<?xml version="1.0" encoding="UTF-8"?>
<svg xmlns="http://www.w3.org/2000/svg" xmlns:xlink="http://www.w3.org/1999/xlink" width="84.896" height="45.064" viewBox="0 0 84.896 45.064">
<defs>
<clipPath id="clip-0">
<path clip-rule="nonzero" d="M 13 0 L 29 0 L 29 44.597656 L 13 44.597656 Z M 13 0 "/>
</clipPath>
<clipPath id="clip-1">
<path clip-rule="nonzero" d="M 67 0 L 84.84375 0 L 84.84375 25 L 67 25 Z M 67 0 "/>
</clipPath>
<clipPath id="clip-2">
<path clip-rule="nonzero" d="M 67 20 L 84.84375 20 L 84.84375 44.597656 L 67 44.597656 Z M 67 20 "/>
</clipPath>
</defs>
<g clip-path="url(#clip-0)">
<path fill="none" stroke-width="0.3985" stroke-linecap="butt" stroke-linejoin="miter" stroke="rgb(0%, 0%, 0%)" stroke-opacity="1" stroke-miterlimit="10" d="M 0.0015 -34.669156 L 0.0015 -49.055875 L -13.889125 -49.055875 M -13.889125 -64.333219 L 0.0015 -64.333219 L 0.0015 -78.719937 " transform="matrix(1, 0, 0, -1, 27.936, -34.134)"/>
</g>
<path fill="none" stroke-width="2.39102" stroke-linecap="round" stroke-linejoin="miter" stroke="rgb(0%, 0%, 0%)" stroke-opacity="1" stroke-miterlimit="10" d="M -13.889125 -45.778531 L -13.889125 -67.606656 " transform="matrix(1, 0, 0, -1, 27.936, -34.134)"/>
<path fill="none" stroke-width="2.39102" stroke-linecap="round" stroke-linejoin="miter" stroke="rgb(0%, 0%, 0%)" stroke-opacity="1" stroke-miterlimit="10" d="M -17.225063 -49.055875 L -17.225063 -64.333219 " transform="matrix(1, 0, 0, -1, 27.936, -34.134)"/>
<path fill="none" stroke-width="0.3985" stroke-linecap="butt" stroke-linejoin="miter" stroke="rgb(0%, 0%, 0%)" stroke-opacity="1" stroke-miterlimit="10" d="M -17.225063 -56.692594 L -27.978969 -56.692594 " transform="matrix(1, 0, 0, -1, 27.936, -34.134)"/>
<g clip-path="url(#clip-1)">
<path fill="none" stroke-width="0.3985" stroke-linecap="butt" stroke-linejoin="miter" stroke="rgb(0%, 0%, 0%)" stroke-opacity="1" stroke-miterlimit="10" d="M 56.692906 -34.669156 L 56.692906 -47.962125 L 44.786656 -53.419156 " transform="matrix(1, 0, 0, -1, 27.936, -34.134)"/>
</g>
<path fill="none" stroke-width="2.39102" stroke-linecap="round" stroke-linejoin="miter" stroke="rgb(0%, 0%, 0%)" stroke-opacity="1" stroke-miterlimit="10" d="M 44.786656 -47.962125 L 44.786656 -65.423062 " transform="matrix(1, 0, 0, -1, 27.936, -34.134)"/>
<g clip-path="url(#clip-2)">
<path fill="none" stroke-width="0.3985" stroke-linecap="butt" stroke-linejoin="miter" stroke="rgb(0%, 0%, 0%)" stroke-opacity="1" stroke-miterlimit="10" d="M 44.786656 -59.966031 L 56.692906 -65.423062 L 56.692906 -78.719937 " transform="matrix(1, 0, 0, -1, 27.936, -34.134)"/>
</g>
<path fill-rule="nonzero" fill="rgb(0%, 0%, 0%)" fill-opacity="1" d="M 76.917969 27.753906 L 77.871094 25.675781 L 81.5625 29.882812 L 75.964844 29.835938 Z M 76.917969 27.753906 "/>
<path fill="none" stroke-width="0.3985" stroke-linecap="butt" stroke-linejoin="miter" stroke="rgb(0%, 0%, 0%)" stroke-opacity="1" stroke-miterlimit="10" d="M 44.786656 -56.692594 L 32.681187 -56.692594 " transform="matrix(1, 0, 0, -1, 27.936, -34.134)"/>
<path fill="none" stroke-width="0.3985" stroke-linecap="butt" stroke-linejoin="miter" stroke="rgb(0%, 0%, 0%)" stroke-opacity="1" stroke-miterlimit="10" d="M 0.0015 -34.868375 L 28.34525 -34.868375 " transform="matrix(1, 0, 0, -1, 27.936, -34.134)"/>
</svg>
