<?xml version="1.0" encoding="UTF-8"?>
<svg xmlns="http://www.w3.org/2000/svg" xmlns:xlink="http://www.w3.org/1999/xlink" width="186.588" height="128.836" viewBox="0 0 186.588 128.836">
<defs>
<g>
<g id="glyph-0-0">
<path d="M 4.375 -1.375 C 4.375 -1.546875 4.21875 -1.546875 4.125 -1.546875 L 0.765625 -1.546875 C 0.6875 -1.546875 0.53125 -1.546875 0.53125 -1.375 C 0.53125 -1.203125 0.6875 -1.203125 0.765625 -1.203125 L 4.125 -1.203125 C 4.203125 -1.203125 4.375 -1.203125 4.375 -1.375 Z M 4.375 -1.375 "/>
</g>
<g id="glyph-1-0">
<path d="M 4.546875 -1.375 C 4.546875 -1.546875 4.390625 -1.546875 4.3125 -1.546875 L 2.609375 -1.546875 L 2.609375 -3.234375 C 2.609375 -3.3125 2.609375 -3.46875 2.453125 -3.46875 C 2.28125 -3.46875 2.28125 -3.3125 2.28125 -3.234375 L 2.28125 -1.546875 L 0.59375 -1.546875 C 0.515625 -1.546875 0.34375 -1.546875 0.34375 -1.375 C 0.34375 -1.203125 0.515625 -1.203125 0.59375 -1.203125 L 2.28125 -1.203125 L 2.28125 0.5 C 2.28125 0.5625 2.28125 0.71875 2.453125 0.71875 C 2.609375 0.71875 2.609375 0.5625 2.609375 0.5 L 2.609375 -1.203125 L 4.3125 -1.203125 C 4.375 -1.203125 4.546875 -1.203125 4.546875 -1.375 Z M 4.546875 -1.375 "/>
</g>
<g id="glyph-2-0">
<path d="M 2.5625 -1.671875 C 2.5625 -3.25 2.453125 -3.40625 1.4375 -3.40625 C 0.421875 -3.40625 0.3125 -3.265625 0.3125 -1.671875 C 0.3125 -0.09375 0.421875 0.0625 1.4375 0.0625 C 2.453125 0.0625 2.5625 -0.09375 2.5625 -1.671875 Z M 2.1875 -1.71875 C 2.1875 -1.375 2.1875 -1 2.125 -0.703125 C 2.0625 -0.390625 1.921875 -0.28125 1.4375 -0.28125 C 0.953125 -0.28125 0.8125 -0.390625 0.75 -0.65625 C 0.6875 -0.9375 0.6875 -1.421875 0.6875 -1.71875 C 0.6875 -2.0625 0.6875 -2.4375 0.75 -2.6875 C 0.8125 -3.015625 0.984375 -3.078125 1.4375 -3.078125 C 1.84375 -3.078125 2.046875 -3.03125 2.125 -2.71875 C 2.1875 -2.46875 2.1875 -2.0625 2.1875 -1.71875 Z M 2.1875 -1.71875 "/>
</g>
<g id="glyph-2-1">
<path d="M 2.71875 -0.171875 C 2.71875 -0.234375 2.703125 -0.296875 2.625 -0.3125 C 2.59375 -0.328125 2.484375 -0.328125 2.390625 -0.328125 L 1.734375 -3.203125 C 1.6875 -3.40625 1.609375 -3.421875 1.4375 -3.421875 C 1.28125 -3.421875 1.1875 -3.421875 1.140625 -3.203125 L 0.484375 -0.328125 C 0.40625 -0.328125 0.28125 -0.328125 0.234375 -0.328125 C 0.1875 -0.296875 0.140625 -0.234375 0.140625 -0.171875 C 0.140625 0 0.296875 0 0.390625 0 L 0.9375 0 C 1.046875 0 1.171875 0 1.171875 -0.171875 C 1.171875 -0.328125 1.0625 -0.328125 0.859375 -0.328125 L 1 -0.90625 L 1.875 -0.90625 L 2 -0.328125 C 1.8125 -0.328125 1.703125 -0.328125 1.703125 -0.171875 C 1.703125 0 1.828125 0 1.9375 0 L 2.484375 0 C 2.578125 0 2.71875 0 2.71875 -0.171875 Z M 1.796875 -1.234375 L 1.078125 -1.234375 L 1.4375 -2.96875 Z M 1.796875 -1.234375 "/>
</g>
<g id="glyph-2-2">
<path d="M 2.421875 -0.171875 C 2.421875 -0.328125 2.296875 -0.328125 2.203125 -0.328125 L 1.703125 -0.328125 L 1.703125 -3.1875 C 1.703125 -3.28125 1.703125 -3.40625 1.546875 -3.40625 C 1.4375 -3.40625 1.40625 -3.34375 1.375 -3.28125 C 1.171875 -2.8125 0.890625 -2.75 0.78125 -2.734375 C 0.6875 -2.734375 0.578125 -2.71875 0.578125 -2.578125 C 0.578125 -2.4375 0.671875 -2.40625 0.75 -2.40625 C 0.859375 -2.40625 1.078125 -2.4375 1.328125 -2.65625 L 1.328125 -0.328125 L 0.828125 -0.328125 C 0.734375 -0.328125 0.609375 -0.328125 0.609375 -0.171875 C 0.609375 0 0.75 0 0.828125 0 L 2.203125 0 C 2.28125 0 2.421875 0 2.421875 -0.171875 Z M 2.421875 -0.171875 "/>
</g>
<g id="glyph-3-0">
<path d="M 3.546875 -3.03125 C 3.546875 -2.84375 3.453125 -2.46875 3.234375 -2.25 C 3.09375 -2.109375 2.8125 -1.9375 2.3125 -1.9375 L 1.703125 -1.9375 L 2.0625 -3.375 C 2.09375 -3.5 2.109375 -3.546875 2.203125 -3.5625 C 2.265625 -3.578125 2.4375 -3.578125 2.546875 -3.578125 C 2.9375 -3.578125 3.546875 -3.578125 3.546875 -3.03125 Z M 4.140625 -0.515625 C 4.140625 -0.578125 4.078125 -0.578125 4.078125 -0.578125 C 4.03125 -0.578125 4.015625 -0.53125 4 -0.5 C 3.859375 -0.09375 3.625 0 3.5 0 C 3.328125 0 3.28125 -0.125 3.28125 -0.328125 C 3.28125 -0.5 3.3125 -0.78125 3.34375 -0.953125 C 3.34375 -1.03125 3.359375 -1.140625 3.359375 -1.21875 C 3.359375 -1.640625 3 -1.8125 2.84375 -1.859375 C 3.40625 -1.984375 4.046875 -2.375 4.046875 -2.921875 C 4.046875 -3.390625 3.5625 -3.75 2.84375 -3.75 L 1.28125 -3.75 C 1.171875 -3.75 1.125 -3.75 1.125 -3.640625 C 1.125 -3.578125 1.171875 -3.578125 1.265625 -3.578125 C 1.265625 -3.578125 1.390625 -3.578125 1.484375 -3.5625 C 1.578125 -3.546875 1.625 -3.546875 1.625 -3.484375 C 1.625 -3.453125 1.625 -3.4375 1.609375 -3.375 L 0.875 -0.421875 C 0.8125 -0.21875 0.8125 -0.171875 0.375 -0.171875 C 0.28125 -0.171875 0.21875 -0.171875 0.21875 -0.0625 C 0.21875 0 0.296875 0 0.296875 0 L 1 -0.015625 L 1.6875 0 C 1.734375 0 1.796875 0 1.796875 -0.109375 C 1.796875 -0.171875 1.75 -0.171875 1.640625 -0.171875 C 1.4375 -0.171875 1.28125 -0.171875 1.28125 -0.265625 C 1.28125 -0.296875 1.296875 -0.328125 1.3125 -0.359375 L 1.671875 -1.8125 L 2.3125 -1.8125 C 2.8125 -1.8125 2.921875 -1.515625 2.921875 -1.3125 C 2.921875 -1.234375 2.875 -1.0625 2.84375 -0.9375 C 2.796875 -0.78125 2.75 -0.578125 2.75 -0.46875 C 2.75 0.125 3.40625 0.125 3.484375 0.125 C 3.953125 0.125 4.140625 -0.4375 4.140625 -0.515625 Z M 4.140625 -0.515625 "/>
</g>
<g id="glyph-3-1">
<path d="M 3.546875 -1.3125 C 3.546875 -1.375 3.484375 -1.375 3.484375 -1.375 C 3.453125 -1.375 3.421875 -1.359375 3.40625 -1.3125 C 3.359375 -1.15625 3.234375 -0.765625 2.859375 -0.453125 C 2.484375 -0.140625 2.140625 -0.046875 1.84375 -0.046875 C 1.359375 -0.046875 0.765625 -0.328125 0.765625 -1.1875 C 0.765625 -1.5 0.890625 -2.390625 1.4375 -3.03125 C 1.765625 -3.421875 2.28125 -3.703125 2.78125 -3.703125 C 3.328125 -3.703125 3.65625 -3.28125 3.65625 -2.640625 C 3.65625 -2.421875 3.640625 -2.40625 3.640625 -2.359375 C 3.640625 -2.296875 3.703125 -2.296875 3.71875 -2.296875 C 3.796875 -2.296875 3.796875 -2.3125 3.828125 -2.40625 L 4.171875 -3.8125 C 4.171875 -3.828125 4.15625 -3.859375 4.109375 -3.859375 C 4.09375 -3.859375 4.078125 -3.859375 4.03125 -3.796875 L 3.640625 -3.375 C 3.59375 -3.453125 3.34375 -3.859375 2.734375 -3.859375 C 1.515625 -3.859375 0.28125 -2.65625 0.28125 -1.375 C 0.28125 -0.484375 0.921875 0.125 1.765625 0.125 C 2.234375 0.125 2.65625 -0.09375 2.9375 -0.34375 C 3.453125 -0.796875 3.546875 -1.296875 3.546875 -1.3125 Z M 3.546875 -1.3125 "/>
</g>
<g id="glyph-3-2">
<path d="M 2.5625 -2.046875 C 2.5625 -2.34375 2.421875 -2.421875 2.328125 -2.421875 C 2.1875 -2.421875 2.0625 -2.28125 2.0625 -2.15625 C 2.0625 -2.09375 2.078125 -2.0625 2.140625 -2 C 2.265625 -1.890625 2.328125 -1.75 2.328125 -1.546875 C 2.328125 -1.3125 2 -0.0625 1.359375 -0.0625 C 1.078125 -0.0625 0.953125 -0.25 0.953125 -0.53125 C 0.953125 -0.84375 1.09375 -1.25 1.265625 -1.703125 C 1.3125 -1.796875 1.328125 -1.875 1.328125 -1.96875 C 1.328125 -2.21875 1.15625 -2.421875 0.890625 -2.421875 C 0.375 -2.421875 0.15625 -1.625 0.15625 -1.578125 C 0.15625 -1.53125 0.21875 -1.53125 0.21875 -1.53125 C 0.28125 -1.53125 0.28125 -1.53125 0.3125 -1.625 C 0.46875 -2.171875 0.703125 -2.296875 0.859375 -2.296875 C 0.90625 -2.296875 1 -2.296875 1 -2.125 C 1 -1.984375 0.953125 -1.84375 0.90625 -1.75 C 0.671875 -1.109375 0.59375 -0.859375 0.59375 -0.625 C 0.59375 -0.03125 1.078125 0.0625 1.328125 0.0625 C 2.25 0.0625 2.5625 -1.75 2.5625 -2.046875 Z M 2.5625 -2.046875 "/>
</g>
<g id="glyph-3-3">
<path d="M 3.53125 -1.359375 C 3.53125 -1.375 3.515625 -1.421875 3.453125 -1.421875 C 3.40625 -1.421875 3.40625 -1.390625 3.375 -1.296875 C 3.1875 -0.796875 2.9375 -0.171875 1.984375 -0.171875 L 1.46875 -0.171875 C 1.40625 -0.171875 1.390625 -0.171875 1.359375 -0.171875 C 1.296875 -0.1875 1.28125 -0.1875 1.28125 -0.234375 C 1.28125 -0.25 1.28125 -0.25 1.3125 -0.359375 L 2.046875 -3.3125 C 2.09375 -3.515625 2.109375 -3.578125 2.625 -3.578125 C 2.796875 -3.578125 2.84375 -3.578125 2.84375 -3.6875 C 2.84375 -3.75 2.78125 -3.75 2.75 -3.75 L 1.9375 -3.734375 L 1.21875 -3.75 C 1.171875 -3.75 1.109375 -3.75 1.109375 -3.640625 C 1.109375 -3.578125 1.15625 -3.578125 1.265625 -3.578125 C 1.265625 -3.578125 1.375 -3.578125 1.46875 -3.5625 C 1.5625 -3.546875 1.625 -3.546875 1.625 -3.484375 C 1.625 -3.453125 1.609375 -3.4375 1.59375 -3.375 L 0.859375 -0.421875 C 0.8125 -0.21875 0.796875 -0.171875 0.359375 -0.171875 C 0.265625 -0.171875 0.21875 -0.171875 0.21875 -0.0625 C 0.21875 0 0.265625 0 0.359375 0 L 2.90625 0 C 3.03125 0 3.03125 0 3.078125 -0.09375 L 3.5 -1.28125 C 3.53125 -1.34375 3.53125 -1.359375 3.53125 -1.359375 Z M 3.53125 -1.359375 "/>
</g>
<g id="glyph-3-4">
<path d="M 1.828125 -0.109375 C 1.828125 -0.171875 1.78125 -0.171875 1.671875 -0.171875 C 1.5625 -0.171875 1.546875 -0.171875 1.4375 -0.1875 C 1.3125 -0.1875 1.296875 -0.21875 1.296875 -0.28125 C 1.296875 -0.3125 1.3125 -0.359375 1.3125 -0.40625 L 2.046875 -3.328125 C 2.09375 -3.515625 2.109375 -3.578125 2.546875 -3.578125 C 2.6875 -3.578125 2.71875 -3.578125 2.71875 -3.6875 C 2.71875 -3.75 2.671875 -3.75 2.640625 -3.75 L 1.921875 -3.734375 L 1.1875 -3.75 C 1.15625 -3.75 1.078125 -3.75 1.078125 -3.640625 C 1.078125 -3.578125 1.125 -3.578125 1.234375 -3.578125 C 1.46875 -3.578125 1.609375 -3.578125 1.609375 -3.46875 C 1.609375 -3.4375 1.609375 -3.4375 1.59375 -3.390625 L 0.859375 -0.421875 C 0.8125 -0.21875 0.796875 -0.171875 0.359375 -0.171875 C 0.234375 -0.171875 0.1875 -0.171875 0.1875 -0.0625 C 0.1875 0 0.25 0 0.265625 0 L 0.984375 -0.015625 L 1.71875 0 C 1.765625 0 1.828125 0 1.828125 -0.109375 Z M 1.828125 -0.109375 "/>
</g>
<g id="glyph-3-5">
<path d="M 4.40625 -2.359375 C 4.40625 -3.125 3.9375 -3.75 3.125 -3.75 L 1.28125 -3.75 C 1.171875 -3.75 1.109375 -3.75 1.109375 -3.640625 C 1.109375 -3.578125 1.15625 -3.578125 1.265625 -3.578125 C 1.34375 -3.578125 1.4375 -3.5625 1.515625 -3.5625 C 1.59375 -3.546875 1.625 -3.53125 1.625 -3.484375 C 1.625 -3.453125 1.625 -3.4375 1.609375 -3.375 L 0.875 -0.421875 C 0.8125 -0.21875 0.8125 -0.171875 0.375 -0.171875 C 0.28125 -0.171875 0.21875 -0.171875 0.21875 -0.0625 C 0.21875 0 0.265625 0 0.375 0 L 2.1875 0 C 3.328125 0 4.40625 -1.15625 4.40625 -2.359375 Z M 3.9375 -2.5625 C 3.9375 -2.296875 3.828125 -1.390625 3.359375 -0.796875 C 3.203125 -0.59375 2.765625 -0.171875 2.09375 -0.171875 L 1.46875 -0.171875 C 1.390625 -0.171875 1.375 -0.171875 1.34375 -0.171875 C 1.296875 -0.1875 1.28125 -0.1875 1.28125 -0.234375 C 1.28125 -0.25 1.28125 -0.25 1.3125 -0.359375 L 2.0625 -3.375 C 2.109375 -3.5625 2.109375 -3.578125 2.359375 -3.578125 L 2.9375 -3.578125 C 3.484375 -3.578125 3.9375 -3.28125 3.9375 -2.5625 Z M 3.9375 -2.5625 "/>
</g>
<g id="glyph-3-6">
<path d="M 3.421875 -1.40625 C 3.421875 -1.4375 3.40625 -1.46875 3.34375 -1.46875 C 3.296875 -1.46875 3.296875 -1.4375 3.25 -1.328125 C 3.015625 -0.578125 2.75 -0.1875 1.828125 -0.1875 L 0.890625 -0.1875 L 3.953125 -3.609375 C 3.953125 -3.640625 3.96875 -3.65625 3.96875 -3.703125 C 3.96875 -3.75 3.9375 -3.75 3.828125 -3.75 L 1.515625 -3.75 C 1.375 -3.75 1.375 -3.734375 1.34375 -3.640625 L 1.046875 -2.65625 C 1.03125 -2.625 1.03125 -2.578125 1.03125 -2.578125 C 1.03125 -2.578125 1.03125 -2.515625 1.09375 -2.515625 C 1.140625 -2.515625 1.15625 -2.546875 1.15625 -2.5625 C 1.375 -3.21875 1.65625 -3.578125 2.515625 -3.578125 L 3.40625 -3.578125 L 0.34375 -0.140625 C 0.34375 -0.140625 0.3125 -0.0625 0.3125 -0.046875 C 0.3125 0 0.359375 0 0.453125 0 L 2.84375 0 C 2.96875 0 2.984375 0 3.015625 -0.109375 L 3.40625 -1.328125 C 3.40625 -1.34375 3.421875 -1.375 3.421875 -1.40625 Z M 3.421875 -1.40625 "/>
</g>
<g id="glyph-4-0">
<path d="M 1.234375 -2.390625 C 1.234375 -2.453125 1.1875 -2.53125 1.09375 -2.53125 C 0.984375 -2.53125 0.875 -2.4375 0.875 -2.328125 C 0.875 -2.265625 0.921875 -2.1875 1.03125 -2.1875 C 1.140625 -2.1875 1.234375 -2.296875 1.234375 -2.390625 Z M 1.34375 -0.546875 C 1.34375 -0.59375 1.296875 -0.59375 1.28125 -0.59375 C 1.21875 -0.59375 1.21875 -0.578125 1.203125 -0.53125 C 1.125 -0.21875 0.953125 -0.0625 0.796875 -0.0625 C 0.71875 -0.0625 0.703125 -0.125 0.703125 -0.203125 C 0.703125 -0.296875 0.734375 -0.359375 0.765625 -0.453125 L 0.890625 -0.75 L 1.078125 -1.234375 C 1.09375 -1.28125 1.09375 -1.328125 1.09375 -1.359375 C 1.09375 -1.546875 0.953125 -1.6875 0.734375 -1.6875 C 0.359375 -1.6875 0.1875 -1.171875 0.1875 -1.109375 C 0.1875 -1.046875 0.234375 -1.046875 0.25 -1.046875 C 0.296875 -1.046875 0.296875 -1.078125 0.3125 -1.109375 C 0.40625 -1.4375 0.578125 -1.578125 0.71875 -1.578125 C 0.78125 -1.578125 0.8125 -1.546875 0.8125 -1.453125 C 0.8125 -1.359375 0.796875 -1.296875 0.703125 -1.0625 L 0.453125 -0.453125 C 0.4375 -0.390625 0.421875 -0.359375 0.421875 -0.28125 C 0.421875 -0.109375 0.578125 0.03125 0.78125 0.03125 C 1.171875 0.03125 1.34375 -0.484375 1.34375 -0.546875 Z M 1.34375 -0.546875 "/>
</g>
<g id="glyph-4-1">
<path d="M 2.03125 -1.015625 C 2.03125 -1.4375 1.71875 -1.6875 1.34375 -1.6875 C 0.765625 -1.6875 0.234375 -1.15625 0.234375 -0.625 C 0.234375 -0.25 0.515625 0.03125 0.9375 0.03125 C 1.484375 0.03125 2.03125 -0.46875 2.03125 -1.015625 Z M 1.71875 -1.15625 C 1.71875 -1.0625 1.671875 -0.6875 1.5 -0.421875 C 1.359375 -0.1875 1.125 -0.0625 0.9375 -0.0625 C 0.75 -0.0625 0.5625 -0.1875 0.5625 -0.5 C 0.5625 -0.65625 0.625 -1.03125 0.78125 -1.25 C 0.9375 -1.484375 1.15625 -1.578125 1.34375 -1.578125 C 1.546875 -1.578125 1.71875 -1.4375 1.71875 -1.15625 Z M 1.71875 -1.15625 "/>
</g>
<g id="glyph-4-2">
<path d="M 1.71875 -0.59375 C 1.71875 -0.953125 1.34375 -1.015625 1.1875 -1.046875 C 1.15625 -1.046875 1.0625 -1.0625 1.046875 -1.078125 C 0.90625 -1.09375 0.828125 -1.171875 0.828125 -1.265625 C 0.828125 -1.34375 0.90625 -1.453125 0.984375 -1.515625 C 1.09375 -1.578125 1.21875 -1.578125 1.28125 -1.578125 C 1.359375 -1.578125 1.5625 -1.5625 1.65625 -1.4375 C 1.546875 -1.421875 1.484375 -1.34375 1.484375 -1.265625 C 1.484375 -1.171875 1.5625 -1.140625 1.609375 -1.140625 C 1.65625 -1.140625 1.796875 -1.15625 1.796875 -1.359375 C 1.796875 -1.609375 1.53125 -1.6875 1.296875 -1.6875 C 0.6875 -1.6875 0.578125 -1.25 0.578125 -1.125 C 0.578125 -0.984375 0.671875 -0.890625 0.71875 -0.84375 C 0.8125 -0.765625 0.890625 -0.765625 1.15625 -0.71875 C 1.234375 -0.703125 1.484375 -0.65625 1.484375 -0.453125 C 1.484375 -0.390625 1.4375 -0.25 1.28125 -0.15625 C 1.125 -0.0625 0.9375 -0.0625 0.890625 -0.0625 C 0.734375 -0.0625 0.515625 -0.109375 0.4375 -0.234375 C 0.5625 -0.25 0.640625 -0.34375 0.640625 -0.453125 C 0.640625 -0.546875 0.578125 -0.59375 0.5 -0.59375 C 0.375 -0.59375 0.265625 -0.5 0.265625 -0.328125 C 0.265625 -0.109375 0.515625 0.03125 0.890625 0.03125 C 1.59375 0.03125 1.71875 -0.4375 1.71875 -0.59375 Z M 1.71875 -0.59375 "/>
</g>
<g id="glyph-4-3">
<path d="M 3.015625 -0.8125 C 3.015625 -1.09375 2.765625 -1.328125 2.359375 -1.359375 C 2.8125 -1.453125 3.203125 -1.734375 3.203125 -2.078125 C 3.203125 -2.359375 2.90625 -2.609375 2.40625 -2.609375 L 1.015625 -2.609375 C 0.953125 -2.609375 0.890625 -2.609375 0.890625 -2.53125 C 0.890625 -2.484375 0.9375 -2.484375 1.015625 -2.484375 C 1.015625 -2.484375 1.09375 -2.484375 1.15625 -2.46875 C 1.25 -2.46875 1.25 -2.453125 1.25 -2.421875 C 1.25 -2.421875 1.25 -2.390625 1.234375 -2.328125 L 0.734375 -0.296875 C 0.6875 -0.171875 0.6875 -0.140625 0.390625 -0.140625 C 0.328125 -0.140625 0.28125 -0.140625 0.28125 -0.0625 C 0.28125 0 0.328125 0 0.390625 0 L 1.875 0 C 2.515625 0 3.015625 -0.4375 3.015625 -0.8125 Z M 2.828125 -2.078125 C 2.828125 -1.765625 2.484375 -1.40625 1.96875 -1.40625 L 1.34375 -1.40625 L 1.578125 -2.34375 C 1.609375 -2.46875 1.609375 -2.484375 1.765625 -2.484375 L 2.34375 -2.484375 C 2.734375 -2.484375 2.828125 -2.21875 2.828125 -2.078125 Z M 2.625 -0.84375 C 2.625 -0.46875 2.234375 -0.140625 1.765625 -0.140625 L 1.15625 -0.140625 C 1.03125 -0.140625 1.03125 -0.140625 1.03125 -0.171875 C 1.03125 -0.171875 1.03125 -0.203125 1.046875 -0.25 L 1.3125 -1.3125 L 2.125 -1.3125 C 2.484375 -1.3125 2.625 -1.0625 2.625 -0.84375 Z M 2.625 -0.84375 "/>
</g>
<g id="glyph-4-4">
<path d="M 3.6875 -0.546875 C 3.6875 -0.59375 3.640625 -0.59375 3.640625 -0.59375 C 3.578125 -0.59375 3.578125 -0.578125 3.5625 -0.53125 C 3.46875 -0.21875 3.3125 -0.0625 3.15625 -0.0625 C 3.078125 -0.0625 3.0625 -0.125 3.0625 -0.203125 C 3.0625 -0.296875 3.078125 -0.34375 3.140625 -0.515625 C 3.1875 -0.625 3.34375 -1.03125 3.34375 -1.25 C 3.34375 -1.3125 3.34375 -1.46875 3.203125 -1.578125 C 3.140625 -1.640625 3.03125 -1.6875 2.859375 -1.6875 C 2.5 -1.6875 2.296875 -1.46875 2.171875 -1.296875 C 2.140625 -1.625 1.875 -1.6875 1.671875 -1.6875 C 1.359375 -1.6875 1.140625 -1.5 1.03125 -1.34375 C 1 -1.609375 0.78125 -1.6875 0.625 -1.6875 C 0.453125 -1.6875 0.375 -1.5625 0.3125 -1.484375 C 0.234375 -1.34375 0.1875 -1.125 0.1875 -1.109375 C 0.1875 -1.046875 0.234375 -1.046875 0.25 -1.046875 C 0.296875 -1.046875 0.296875 -1.0625 0.328125 -1.171875 C 0.390625 -1.390625 0.453125 -1.578125 0.609375 -1.578125 C 0.703125 -1.578125 0.734375 -1.5 0.734375 -1.390625 C 0.734375 -1.328125 0.703125 -1.171875 0.671875 -1.078125 L 0.59375 -0.734375 L 0.46875 -0.234375 C 0.453125 -0.1875 0.421875 -0.09375 0.421875 -0.078125 C 0.421875 0 0.5 0.03125 0.5625 0.03125 C 0.625 0.03125 0.6875 -0.015625 0.703125 -0.046875 C 0.734375 -0.078125 0.765625 -0.203125 0.78125 -0.28125 L 0.859375 -0.625 C 0.890625 -0.71875 0.90625 -0.796875 0.921875 -0.890625 C 0.96875 -1.046875 0.96875 -1.078125 1.09375 -1.234375 C 1.1875 -1.375 1.375 -1.578125 1.65625 -1.578125 C 1.890625 -1.578125 1.890625 -1.390625 1.890625 -1.3125 C 1.890625 -1.21875 1.875 -1.171875 1.828125 -0.953125 L 1.65625 -0.3125 C 1.640625 -0.234375 1.609375 -0.109375 1.609375 -0.078125 C 1.609375 0 1.671875 0.03125 1.734375 0.03125 C 1.8125 0.03125 1.875 -0.015625 1.890625 -0.046875 C 1.90625 -0.078125 1.9375 -0.203125 1.953125 -0.28125 L 2.046875 -0.625 C 2.0625 -0.71875 2.09375 -0.796875 2.109375 -0.890625 C 2.140625 -1.046875 2.140625 -1.0625 2.21875 -1.171875 C 2.34375 -1.359375 2.53125 -1.578125 2.84375 -1.578125 C 3.046875 -1.578125 3.0625 -1.40625 3.0625 -1.3125 C 3.0625 -1.078125 2.890625 -0.65625 2.84375 -0.5 C 2.796875 -0.390625 2.78125 -0.359375 2.78125 -0.296875 C 2.78125 -0.09375 2.953125 0.03125 3.140625 0.03125 C 3.53125 0.03125 3.6875 -0.484375 3.6875 -0.546875 Z M 3.6875 -0.546875 "/>
</g>
<g id="glyph-4-5">
<path d="M 2.765625 -0.953125 C 2.765625 -0.96875 2.75 -1 2.6875 -1 C 2.65625 -1 2.640625 -0.984375 2.625 -0.921875 C 2.46875 -0.5625 2.296875 -0.140625 1.609375 -0.140625 L 1.171875 -0.140625 C 1.046875 -0.140625 1.046875 -0.140625 1.046875 -0.171875 C 1.046875 -0.171875 1.046875 -0.203125 1.0625 -0.25 L 1.578125 -2.296875 C 1.609375 -2.4375 1.625 -2.484375 1.96875 -2.484375 C 2.09375 -2.484375 2.125 -2.484375 2.125 -2.5625 C 2.125 -2.5625 2.125 -2.609375 2.0625 -2.609375 C 1.984375 -2.609375 1.875 -2.609375 1.78125 -2.609375 L 1.484375 -2.59375 L 1.21875 -2.609375 C 1.140625 -2.609375 1.046875 -2.609375 0.96875 -2.609375 C 0.9375 -2.609375 0.890625 -2.609375 0.890625 -2.53125 C 0.890625 -2.484375 0.9375 -2.484375 1 -2.484375 C 1 -2.484375 1.078125 -2.484375 1.15625 -2.46875 C 1.234375 -2.46875 1.234375 -2.453125 1.234375 -2.421875 C 1.234375 -2.421875 1.234375 -2.390625 1.21875 -2.328125 L 0.71875 -0.296875 C 0.6875 -0.171875 0.671875 -0.140625 0.375 -0.140625 C 0.3125 -0.140625 0.265625 -0.140625 0.265625 -0.0625 C 0.265625 0 0.3125 0 0.375 0 L 2.296875 0 C 2.40625 0 2.40625 0 2.4375 -0.078125 C 2.46875 -0.1875 2.765625 -0.921875 2.765625 -0.953125 Z M 2.765625 -0.953125 "/>
</g>
<g id="glyph-5-0">
<path d="M 3.984375 0.0625 C 3.984375 0 3.984375 -0.0625 3.921875 -0.0625 C 3.875 -0.0625 3.875 -0.015625 3.859375 0.03125 C 3.828125 0.328125 3.609375 0.5 3.375 0.5 C 3.109375 0.5 2.96875 0.3125 2.84375 -0.03125 C 3.484375 -0.328125 3.953125 -1.03125 3.953125 -1.859375 C 3.953125 -2.984375 3.125 -3.859375 2.125 -3.859375 C 1.140625 -3.859375 0.3125 -2.984375 0.3125 -1.859375 C 0.3125 -0.75 1.140625 0.125 2.140625 0.125 C 2.296875 0.125 2.5 0.09375 2.65625 0.03125 C 2.734375 0.5625 2.8125 1.0625 3.328125 1.0625 C 3.890625 1.0625 3.984375 0.328125 3.984375 0.0625 Z M 3.40625 -1.859375 C 3.40625 -1.4375 3.34375 -0.65625 2.765625 -0.234375 C 2.640625 -0.53125 2.46875 -0.8125 2.140625 -0.8125 C 1.859375 -0.8125 1.6875 -0.578125 1.6875 -0.34375 C 1.6875 -0.203125 1.765625 -0.09375 1.765625 -0.09375 C 1.46875 -0.203125 0.859375 -0.59375 0.859375 -1.859375 C 0.859375 -3.28125 1.625 -3.734375 2.125 -3.734375 C 2.65625 -3.734375 3.40625 -3.25 3.40625 -1.859375 Z M 2.609375 -0.140625 C 2.421875 -0.03125 2.25 -0.015625 2.140625 -0.015625 C 1.859375 -0.015625 1.8125 -0.265625 1.8125 -0.34375 C 1.8125 -0.515625 1.921875 -0.6875 2.140625 -0.6875 C 2.4375 -0.6875 2.5625 -0.453125 2.609375 -0.140625 Z M 2.609375 -0.140625 "/>
</g>
<g id="glyph-5-1">
<path d="M 2.296875 0 L 2.296875 -0.171875 L 2.125 -0.171875 C 1.625 -0.171875 1.609375 -0.234375 1.609375 -0.4375 L 1.609375 -3.515625 C 1.609375 -3.640625 1.609375 -3.65625 1.484375 -3.65625 C 1.140625 -3.296875 0.65625 -3.296875 0.484375 -3.296875 L 0.484375 -3.125 C 0.59375 -3.125 0.921875 -3.125 1.203125 -3.28125 L 1.203125 -0.4375 C 1.203125 -0.234375 1.1875 -0.171875 0.703125 -0.171875 L 0.515625 -0.171875 L 0.515625 0 C 0.71875 -0.015625 1.1875 -0.015625 1.40625 -0.015625 C 1.625 -0.015625 2.109375 -0.015625 2.296875 0 Z M 2.296875 0 "/>
</g>
<g id="glyph-5-2">
<path d="M 2.46875 -0.953125 L 2.328125 -0.953125 C 2.296875 -0.796875 2.265625 -0.546875 2.203125 -0.46875 C 2.171875 -0.421875 1.796875 -0.421875 1.6875 -0.421875 L 0.703125 -0.421875 L 1.28125 -0.984375 C 2.140625 -1.75 2.46875 -2.046875 2.46875 -2.59375 C 2.46875 -3.21875 1.96875 -3.65625 1.296875 -3.65625 C 0.6875 -3.65625 0.28125 -3.140625 0.28125 -2.65625 C 0.28125 -2.359375 0.546875 -2.359375 0.5625 -2.359375 C 0.65625 -2.359375 0.84375 -2.421875 0.84375 -2.640625 C 0.84375 -2.78125 0.75 -2.921875 0.5625 -2.921875 C 0.515625 -2.921875 0.5 -2.921875 0.484375 -2.921875 C 0.609375 -3.28125 0.90625 -3.484375 1.234375 -3.484375 C 1.734375 -3.484375 1.96875 -3.03125 1.96875 -2.59375 C 1.96875 -2.15625 1.6875 -1.71875 1.390625 -1.375 L 0.328125 -0.203125 C 0.28125 -0.140625 0.28125 -0.125 0.28125 0 L 2.3125 0 Z M 2.46875 -0.953125 "/>
</g>
<g id="glyph-6-0">
<path d="M 2.40625 0 C 2.40625 -0.03125 2.375 -0.046875 2.359375 -0.046875 C 2.359375 -0.046875 2.328125 -0.046875 2.3125 -0.015625 C 2.234375 0.203125 2 0.21875 1.953125 0.21875 C 1.84375 0.21875 1.78125 0.1875 1.703125 -0.015625 C 2.25 -0.203125 2.640625 -0.6875 2.640625 -1.140625 C 2.640625 -1.578125 2.28125 -1.921875 1.734375 -1.921875 C 0.984375 -1.921875 0.3125 -1.3125 0.3125 -0.71875 C 0.3125 -0.28125 0.671875 0.0625 1.234375 0.0625 C 1.265625 0.0625 1.390625 0.0625 1.546875 0.015625 C 1.578125 0.28125 1.59375 0.53125 1.875 0.53125 C 2.21875 0.53125 2.40625 0.078125 2.40625 0 Z M 2.359375 -1.203125 C 2.359375 -0.890625 2.171875 -0.359375 1.65625 -0.125 C 1.609375 -0.296875 1.515625 -0.421875 1.34375 -0.421875 C 1.171875 -0.421875 1 -0.296875 1 -0.140625 C 1 -0.125 1 -0.09375 1.015625 -0.078125 C 0.71875 -0.171875 0.609375 -0.40625 0.609375 -0.671875 C 0.609375 -1.21875 1.0625 -1.828125 1.703125 -1.828125 C 2.046875 -1.828125 2.359375 -1.625 2.359375 -1.203125 Z M 1.546875 -0.078125 C 1.40625 -0.046875 1.3125 -0.046875 1.265625 -0.046875 C 1.21875 -0.046875 1.09375 -0.046875 1.09375 -0.140625 C 1.09375 -0.25 1.21875 -0.328125 1.34375 -0.328125 C 1.453125 -0.328125 1.515625 -0.265625 1.546875 -0.078125 Z M 1.546875 -0.078125 "/>
</g>
<g id="glyph-7-0">
<path d="M 2.46875 -1.109375 C 2.46875 -1.75 2.015625 -2.296875 1.421875 -2.296875 C 1.15625 -2.296875 0.921875 -2.21875 0.71875 -2.03125 L 0.71875 -3.09375 C 0.828125 -3.0625 1.015625 -3.015625 1.1875 -3.015625 C 1.859375 -3.015625 2.25 -3.515625 2.25 -3.59375 C 2.25 -3.625 2.234375 -3.65625 2.1875 -3.65625 C 2.1875 -3.65625 2.171875 -3.65625 2.15625 -3.640625 C 2.046875 -3.59375 1.765625 -3.484375 1.40625 -3.484375 C 1.1875 -3.484375 0.9375 -3.515625 0.671875 -3.625 C 0.625 -3.640625 0.609375 -3.640625 0.609375 -3.640625 C 0.546875 -3.640625 0.546875 -3.609375 0.546875 -3.515625 L 0.546875 -1.890625 C 0.546875 -1.796875 0.546875 -1.75 0.625 -1.75 C 0.671875 -1.75 0.6875 -1.765625 0.703125 -1.796875 C 0.765625 -1.890625 0.96875 -2.1875 1.40625 -2.1875 C 1.6875 -2.1875 1.828125 -1.9375 1.875 -1.828125 C 1.96875 -1.625 1.96875 -1.421875 1.96875 -1.140625 C 1.96875 -0.953125 1.96875 -0.625 1.84375 -0.390625 C 1.71875 -0.171875 1.515625 -0.03125 1.25 -0.03125 C 0.859375 -0.03125 0.546875 -0.328125 0.453125 -0.640625 C 0.46875 -0.640625 0.484375 -0.640625 0.546875 -0.640625 C 0.71875 -0.640625 0.8125 -0.765625 0.8125 -0.90625 C 0.8125 -1.03125 0.71875 -1.171875 0.546875 -1.171875 C 0.46875 -1.171875 0.28125 -1.140625 0.28125 -0.890625 C 0.28125 -0.40625 0.65625 0.125 1.265625 0.125 C 1.90625 0.125 2.46875 -0.40625 2.46875 -1.109375 Z M 2.46875 -1.109375 "/>
</g>
<g id="glyph-7-1">
<path d="M 4 -3.578125 L 4 -3.75 C 3.828125 -3.734375 3.609375 -3.734375 3.46875 -3.734375 L 2.84375 -3.75 L 2.84375 -3.578125 C 3.125 -3.5625 3.25 -3.421875 3.25 -3.296875 C 3.25 -3.25 3.234375 -3.21875 3.21875 -3.1875 L 2.21875 -0.546875 L 1.171875 -3.3125 C 1.140625 -3.390625 1.140625 -3.421875 1.140625 -3.421875 C 1.140625 -3.578125 1.453125 -3.578125 1.578125 -3.578125 L 1.578125 -3.75 C 1.390625 -3.734375 1.015625 -3.734375 0.796875 -3.734375 L 0.109375 -3.75 L 0.109375 -3.578125 C 0.453125 -3.578125 0.5625 -3.578125 0.640625 -3.375 L 1.90625 0 C 1.953125 0.109375 1.984375 0.125 2.046875 0.125 C 2.140625 0.125 2.15625 0.09375 2.1875 0.015625 L 3.40625 -3.203125 C 3.484375 -3.40625 3.625 -3.5625 4 -3.578125 Z M 4 -3.578125 "/>
</g>
<g id="glyph-8-0">
<path d="M 3.8125 -1.375 C 3.8125 -1.484375 3.703125 -1.484375 3.625 -1.484375 L 0.640625 -1.484375 C 0.5625 -1.484375 0.453125 -1.484375 0.453125 -1.375 C 0.453125 -1.265625 0.5625 -1.265625 0.640625 -1.265625 L 3.625 -1.265625 C 3.703125 -1.265625 3.8125 -1.265625 3.8125 -1.375 Z M 3.8125 -1.375 "/>
</g>
</g>
<clipPath id="clip-0">
<path clip-rule="nonzero" d="M 91 106 L 119 106 L 119 128.753906 L 91 128.753906 Z M 91 106 "/>
</clipPath>
<clipPath id="clip-1">
<path clip-rule="nonzero" d="M 184 67 L 186.382812 67 L 186.382812 70 L 184 70 Z M 184 67 "/>
</clipPath>
<clipPath id="clip-2">
<path clip-rule="nonzero" d="M 124 106 L 152 106 L 152 128.753906 L 124 128.753906 Z M 124 106 "/>
</clipPath>
<clipPath id="clip-3">
<path clip-rule="nonzero" d="M 136 124 L 139 124 L 139 128.753906 L 136 128.753906 Z M 136 124 "/>
</clipPath>
<clipPath id="clip-4">
<path clip-rule="nonzero" d="M 139 124 L 144 124 L 144 128.753906 L 139 128.753906 Z M 139 124 "/>
</clipPath>
</defs>
<path fill="none" stroke-width="1.19551" stroke-linecap="butt" stroke-linejoin="miter" stroke="rgb(0%, 0%, 0%)" stroke-opacity="1" stroke-miterlimit="10" d="M 12.987906 0.00071875 L -12.988656 15.278062 L -12.988656 -15.280531 Z M 12.987906 0.00071875 " transform="matrix(1, 0, 0, -1, 55.641, 51.864)"/>
<path fill="none" stroke-width="0.3985" stroke-linecap="square" stroke-linejoin="miter" stroke="rgb(0%, 0%, 0%)" stroke-opacity="1" stroke-miterlimit="10" d="M -18.551156 7.641344 L -12.988656 7.641344 M -18.551156 -7.639906 L -12.988656 -7.639906 M 18.554313 0.00071875 L 12.987906 0.00071875 " transform="matrix(1, 0, 0, -1, 55.641, 51.864)"/>
<g fill="rgb(0%, 0%, 0%)" fill-opacity="1">
<use xlink:href="#glyph-0-0" x="44.481" y="45.648"/>
</g>
<g fill="rgb(0%, 0%, 0%)" fill-opacity="1">
<use xlink:href="#glyph-1-0" x="44.481" y="60.93"/>
</g>
<g fill="rgb(0%, 0%, 0%)" fill-opacity="1">
<use xlink:href="#glyph-2-0" x="50.463" y="53.505"/>
<use xlink:href="#glyph-2-1" x="53.339701" y="53.505"/>
<use xlink:href="#glyph-2-2" x="56.216402" y="53.505"/>
</g>
<path fill="none" stroke-width="0.3985" stroke-linecap="butt" stroke-linejoin="miter" stroke="rgb(0%, 0%, 0%)" stroke-opacity="1" stroke-miterlimit="10" d="M -18.555062 7.641344 L -18.555062 15.438219 M -18.555062 15.438219 L -18.555062 23.231187 L -6.98475 23.235094 M 6.984 23.235094 L 18.554313 23.231187 L 18.558219 11.617906 M 18.558219 11.617906 L 18.554313 0.00071875 " transform="matrix(1, 0, 0, -1, 55.641, 51.864)"/>
<path fill="none" stroke-width="0.3985" stroke-linecap="butt" stroke-linejoin="bevel" stroke="rgb(0%, 0%, 0%)" stroke-opacity="1" stroke-miterlimit="10" d="M -7.183969 23.231187 L -5.820687 25.852281 L -3.492562 20.614 L -1.164437 25.852281 L 1.163688 20.614 L 3.491813 25.852281 L 5.819938 20.614 L 7.183219 23.231187 " transform="matrix(1, 0, 0, -1, 55.641, 51.864)"/>
<g fill="rgb(0%, 0%, 0%)" fill-opacity="1">
<use xlink:href="#glyph-3-0" x="53.54" y="37.723"/>
</g>
<path fill="none" stroke-width="0.3985" stroke-linecap="butt" stroke-linejoin="miter" stroke="rgb(0%, 0%, 0%)" stroke-opacity="1" stroke-miterlimit="10" d="M -18.555062 23.231187 L -18.558969 31.031969 M -18.558969 31.031969 L -18.555062 38.824937 L -1.144906 38.828844 M 1.144156 38.828844 L 18.554313 38.824937 L 18.558219 19.414781 M 18.558219 19.414781 L 18.554313 0.00071875 " transform="matrix(1, 0, 0, -1, 55.641, 51.864)"/>
<path fill="none" stroke-width="0.3985" stroke-linecap="butt" stroke-linejoin="miter" stroke="rgb(0%, 0%, 0%)" stroke-opacity="1" stroke-miterlimit="10" d="M -1.144906 43.406969 L -1.144906 34.239 M 1.144156 43.406969 L 1.144156 34.242906 " transform="matrix(1, 0, 0, -1, 55.641, 51.864)"/>
<g fill="rgb(0%, 0%, 0%)" fill-opacity="1">
<use xlink:href="#glyph-3-1" x="53.486" y="4.771"/>
</g>
<path fill="none" stroke-width="0.3985" stroke-linecap="butt" stroke-linejoin="miter" stroke="rgb(0%, 0%, 0%)" stroke-opacity="1" stroke-miterlimit="10" d="M -18.555062 -7.639906 L -18.555062 -23.858656 M -18.555062 -30.405531 L -18.555062 -46.616469 " transform="matrix(1, 0, 0, -1, 55.641, 51.864)"/>
<path fill="none" stroke-width="0.3985" stroke-linecap="butt" stroke-linejoin="miter" stroke="rgb(0%, 0%, 0%)" stroke-opacity="1" stroke-miterlimit="10" d="M -18.555062 -26.046156 L -18.555062 -23.85475 M -18.555062 -28.210219 L -18.555062 -30.401625 " transform="matrix(1, 0, 0, -1, 55.641, 51.864)"/>
<path fill="none" stroke-width="0.797" stroke-linecap="butt" stroke-linejoin="miter" stroke="rgb(0%, 0%, 0%)" stroke-opacity="1" stroke-miterlimit="10" d="M -12.004281 -26.046156 L -25.101937 -26.046156 " transform="matrix(1, 0, 0, -1, 55.641, 51.864)"/>
<path fill="none" stroke-width="2.39102" stroke-linecap="butt" stroke-linejoin="miter" stroke="rgb(0%, 0%, 0%)" stroke-opacity="1" stroke-miterlimit="10" d="M -15.281625 -28.210219 L -21.8285 -28.210219 " transform="matrix(1, 0, 0, -1, 55.641, 51.864)"/>
<g fill="rgb(0%, 0%, 0%)" fill-opacity="1">
<use xlink:href="#glyph-3-2" x="45.897" y="80.176"/>
</g>
<g fill="rgb(0%, 0%, 0%)" fill-opacity="1">
<use xlink:href="#glyph-4-0" x="48.55295" y="80.9977"/>
<use xlink:href="#glyph-4-1" x="50.103295" y="80.9977"/>
</g>
<path fill="none" stroke-width="0.3985" stroke-linecap="butt" stroke-linejoin="miter" stroke="rgb(0%, 0%, 0%)" stroke-opacity="1" stroke-miterlimit="10" d="M -18.555062 -46.616469 L -18.555062 -53.163344 " transform="matrix(1, 0, 0, -1, 55.641, 51.864)"/>
<path fill="none" stroke-width="0.3985" stroke-linecap="butt" stroke-linejoin="miter" stroke="rgb(0%, 0%, 0%)" stroke-opacity="1" stroke-miterlimit="10" d="M -21.8285 -53.163344 L -15.281625 -53.163344 M -20.738656 -54.257094 L -16.371469 -54.257094 M -19.918344 -55.346938 L -17.191781 -55.346938 " transform="matrix(1, 0, 0, -1, 55.641, 51.864)"/>
<path fill="none" stroke-width="0.3985" stroke-linecap="butt" stroke-linejoin="miter" stroke="rgb(0%, 0%, 0%)" stroke-opacity="1" stroke-miterlimit="10" d="M -18.555062 7.641344 L -28.910531 7.641344 M -39.391 7.641344 L -49.73475 7.641344 L -49.742562 -13.596938 M -49.746469 -25.386 L -49.738656 -46.620375 " transform="matrix(1, 0, 0, -1, 55.641, 51.864)"/>
<path fill="none" stroke-width="0.3985" stroke-linecap="butt" stroke-linejoin="bevel" stroke="rgb(0%, 0%, 0%)" stroke-opacity="1" stroke-miterlimit="10" d="M -28.707406 7.797594 C -28.707406 6.352281 -29.430062 5.180406 -30.316781 5.180406 C -31.207406 5.180406 -31.930062 6.352281 -31.930062 7.797594 C -31.930062 8.524156 -31.637094 9.110094 -31.273812 9.110094 C -30.914437 9.110094 -30.621469 8.524156 -30.621469 7.797594 C -30.621469 6.352281 -31.340219 5.180406 -32.230844 5.180406 C -33.121469 5.180406 -33.844125 6.352281 -33.844125 7.797594 C -33.844125 8.524156 -33.551156 9.110094 -33.187875 9.110094 C -32.8285 9.110094 -32.535531 8.524156 -32.535531 7.797594 C -32.535531 6.352281 -33.254281 5.180406 -34.144906 5.180406 C -35.035531 5.180406 -35.758187 6.352281 -35.758187 7.797594 C -35.758187 8.524156 -35.461312 9.110094 -35.101937 9.110094 C -34.738656 9.110094 -34.445687 8.524156 -34.445687 7.797594 C -34.445687 6.352281 -35.168344 5.180406 -36.058969 5.180406 C -36.949594 5.180406 -37.668344 6.352281 -37.668344 7.797594 C -37.668344 8.524156 -37.375375 9.110094 -37.016 9.110094 C -36.652719 9.110094 -36.35975 8.524156 -36.35975 7.797594 C -36.35975 6.352281 -37.082406 5.180406 -37.973031 5.180406 C -38.85975 5.180406 -39.582406 6.352281 -39.582406 7.797594 " transform="matrix(1, 0, 0, -1, 55.641, 51.864)"/>
<g fill="rgb(0%, 0%, 0%)" fill-opacity="1">
<use xlink:href="#glyph-3-3" x="19.627" y="53.316"/>
</g>
<path fill-rule="nonzero" fill="rgb(100%, 94.898987%, 0%)" fill-opacity="1" stroke-width="0.3985" stroke-linecap="butt" stroke-linejoin="miter" stroke="rgb(0%, 0%, 0%)" stroke-opacity="1" stroke-miterlimit="10" d="M -43.844125 -19.491469 C -43.844125 -16.233656 -46.480844 -13.596938 -49.738656 -13.596938 C -52.992562 -13.596938 -55.629281 -16.233656 -55.629281 -19.491469 C -55.629281 -22.745375 -52.992562 -25.382094 -49.738656 -25.382094 C -46.48475 -25.382094 -43.844125 -22.745375 -43.844125 -19.491469 Z M -43.844125 -19.491469 " transform="matrix(1, 0, 0, -1, 55.641, 51.864)"/>
<path fill="none" stroke-width="0.3985" stroke-linecap="butt" stroke-linejoin="miter" stroke="rgb(0%, 0%, 0%)" stroke-opacity="1" stroke-miterlimit="10" d="M -52.683969 -19.491469 C -52.2035 -18.737563 -51.742562 -18.014906 -51.211312 -18.014906 C -50.676156 -18.014906 -50.219125 -18.737563 -49.738656 -19.491469 C -49.258187 -20.245375 -48.79725 -20.964125 -48.266 -20.964125 C -47.730844 -20.964125 -47.269906 -20.245375 -46.789437 -19.491469 " transform="matrix(1, 0, 0, -1, 55.641, 51.864)"/>
<g fill="rgb(0%, 0%, 0%)" fill-opacity="1">
<use xlink:href="#glyph-3-2" x="13.989" y="72.536"/>
</g>
<g fill="rgb(0%, 0%, 0%)" fill-opacity="1">
<use xlink:href="#glyph-4-2" x="16.64495" y="73.35825"/>
</g>
<path fill="none" stroke-width="0.3985" stroke-linecap="butt" stroke-linejoin="miter" stroke="rgb(0%, 0%, 0%)" stroke-opacity="1" stroke-miterlimit="10" d="M -49.738656 -46.620375 L -49.738656 -53.16725 " transform="matrix(1, 0, 0, -1, 55.641, 51.864)"/>
<path fill="none" stroke-width="0.3985" stroke-linecap="butt" stroke-linejoin="miter" stroke="rgb(0%, 0%, 0%)" stroke-opacity="1" stroke-miterlimit="10" d="M -53.012094 -53.16725 L -46.465219 -53.16725 M -51.92225 -54.261 L -47.555062 -54.261 M -51.101937 -55.350844 L -48.375375 -55.350844 " transform="matrix(1, 0, 0, -1, 55.641, 51.864)"/>
<path fill="none" stroke-width="0.3985" stroke-linecap="butt" stroke-linejoin="miter" stroke="rgb(0%, 0%, 0%)" stroke-opacity="1" stroke-miterlimit="10" d="M 18.554313 0.00071875 L 27.163688 0.00071875 M 41.136344 0.00071875 L 49.734 0.00071875 L 49.741813 9.699937 M 49.741813 21.489 L 49.734 31.180406 " transform="matrix(1, 0, 0, -1, 55.641, 51.864)"/>
<path fill="none" stroke-width="0.3985" stroke-linecap="butt" stroke-linejoin="bevel" stroke="rgb(0%, 0%, 0%)" stroke-opacity="1" stroke-miterlimit="10" d="M 26.960563 0.00071875 L 28.323844 2.617906 L 30.651969 -2.620375 L 32.980094 2.617906 L 35.308219 -2.620375 L 37.636344 2.617906 L 39.964469 -2.620375 L 41.32775 0.00071875 " transform="matrix(1, 0, 0, -1, 55.641, 51.864)"/>
<g fill="rgb(0%, 0%, 0%)" fill-opacity="1">
<use xlink:href="#glyph-3-0" x="86.542" y="45.765"/>
</g>
<g fill="rgb(0%, 0%, 0%)" fill-opacity="1">
<use xlink:href="#glyph-4-2" x="90.7022" y="46.5867"/>
</g>
<path fill="none" stroke-width="0.3985" stroke-linecap="butt" stroke-linejoin="miter" stroke="rgb(0%, 0%, 0%)" stroke-opacity="1" stroke-miterlimit="10" d="M 43.843375 15.590562 C 43.843375 18.844469 46.480094 21.485094 49.734 21.485094 C 52.991813 21.485094 55.628531 18.844469 55.628531 15.590562 C 55.628531 12.336656 52.991813 9.696031 49.734 9.696031 C 46.480094 9.696031 43.843375 12.336656 43.843375 15.590562 Z M 43.843375 15.590562 " transform="matrix(1, 0, 0, -1, 55.641, 51.864)"/>
<path fill="none" stroke-width="0.3985" stroke-linecap="butt" stroke-linejoin="miter" stroke="rgb(0%, 0%, 0%)" stroke-opacity="1" stroke-miterlimit="10" d="M 49.734 19.715562 L 49.734 11.465562 " transform="matrix(1, 0, 0, -1, 55.641, 51.864)"/>
<path fill-rule="nonzero" fill="rgb(0%, 0%, 0%)" fill-opacity="1" stroke-width="0.3985" stroke-linecap="butt" stroke-linejoin="miter" stroke="rgb(0%, 0%, 0%)" stroke-opacity="1" stroke-miterlimit="10" d="M 49.734 13.598375 L 50.82775 13.598375 L 49.734 11.278062 L 48.644156 13.598375 Z M 49.734 13.598375 " transform="matrix(1, 0, 0, -1, 55.641, 51.864)"/>
<g fill="rgb(0%, 0%, 0%)" fill-opacity="1">
<use xlink:href="#glyph-3-4" x="113.476" y="37.451"/>
</g>
<g fill="rgb(0%, 0%, 0%)" fill-opacity="1">
<use xlink:href="#glyph-4-3" x="115.88445" y="38.2727"/>
</g>
<path fill="none" stroke-width="0.797" stroke-linecap="butt" stroke-linejoin="miter" stroke="rgb(0%, 0%, 0%)" stroke-opacity="1" stroke-miterlimit="10" d="M 47.554313 34.672594 L 49.734 37.731187 L 51.917594 34.672594 " transform="matrix(1, 0, 0, -1, 55.641, 51.864)"/>
<path fill="none" stroke-width="0.3985" stroke-linecap="butt" stroke-linejoin="miter" stroke="rgb(0%, 0%, 0%)" stroke-opacity="1" stroke-miterlimit="10" d="M 49.734 31.180406 L 49.734 37.731187 " transform="matrix(1, 0, 0, -1, 55.641, 51.864)"/>
<path fill="none" stroke-width="0.3985" stroke-linecap="butt" stroke-linejoin="miter" stroke="rgb(0%, 0%, 0%)" stroke-opacity="1" stroke-miterlimit="10" d="M 49.737906 0.00071875 L 49.745719 -12.971938 M 49.745719 -18.214125 L 49.737906 -31.182875 L 49.745719 -39.79225 M 49.745719 -53.764906 L 49.737906 -62.362563 " transform="matrix(1, 0, 0, -1, 55.641, 51.864)"/>
<path fill="none" stroke-width="0.3985" stroke-linecap="butt" stroke-linejoin="miter" stroke="rgb(0%, 0%, 0%)" stroke-opacity="1" stroke-miterlimit="10" d="M 49.737906 -18.210219 L 53.01525 -12.971938 L 46.464469 -12.971938 Z M 49.737906 -18.210219 " transform="matrix(1, 0, 0, -1, 55.641, 51.864)"/>
<path fill="none" stroke-width="0.3985" stroke-linecap="butt" stroke-linejoin="miter" stroke="rgb(0%, 0%, 0%)" stroke-opacity="1" stroke-miterlimit="10" d="M 46.464469 -18.210219 L 53.01525 -18.210219 " transform="matrix(1, 0, 0, -1, 55.641, 51.864)"/>
<path fill-rule="nonzero" fill="rgb(0%, 0%, 0%)" fill-opacity="1" stroke-width="0.3985" stroke-linecap="butt" stroke-linejoin="miter" stroke="rgb(0%, 0%, 0%)" stroke-opacity="1" stroke-miterlimit="10" d="M 50.612906 0.00071875 C 50.612906 0.481187 50.222281 0.871812 49.737906 0.871812 C 49.257438 0.871812 48.866813 0.481187 48.866813 0.00071875 C 48.866813 -0.483656 49.257438 -0.874281 49.737906 -0.874281 C 50.222281 -0.874281 50.612906 -0.483656 50.612906 0.00071875 Z M 50.612906 0.00071875 " transform="matrix(1, 0, 0, -1, 55.641, 51.864)"/>
<g fill="rgb(0%, 0%, 0%)" fill-opacity="1">
<use xlink:href="#glyph-3-5" x="110.597" y="68.636"/>
</g>
<path fill="none" stroke-width="0.3985" stroke-linecap="butt" stroke-linejoin="bevel" stroke="rgb(0%, 0%, 0%)" stroke-opacity="1" stroke-miterlimit="10" d="M 49.737906 -39.589125 L 52.359 -40.952406 L 47.120719 -43.280531 L 52.359 -45.608656 L 47.120719 -47.936781 L 52.359 -50.264906 L 47.120719 -52.593031 L 49.737906 -53.956313 " transform="matrix(1, 0, 0, -1, 55.641, 51.864)"/>
<g fill="rgb(0%, 0%, 0%)" fill-opacity="1">
<use xlink:href="#glyph-3-0" x="109.877" y="99.822"/>
</g>
<g fill="rgb(0%, 0%, 0%)" fill-opacity="1">
<use xlink:href="#glyph-4-4" x="114.03775" y="100.6437"/>
</g>
<g clip-path="url(#clip-0)">
<path fill="none" stroke-width="0.797" stroke-linecap="butt" stroke-linejoin="miter" stroke="rgb(0%, 0%, 0%)" stroke-opacity="1" stroke-miterlimit="10" d="M 47.558219 -65.85475 L 49.737906 -68.909438 L 51.9215 -65.85475 " transform="matrix(1, 0, 0, -1, 55.641, 51.864)"/>
</g>
<path fill="none" stroke-width="0.3985" stroke-linecap="butt" stroke-linejoin="miter" stroke="rgb(0%, 0%, 0%)" stroke-opacity="1" stroke-miterlimit="10" d="M 49.737906 -62.362563 L 49.737906 -68.909438 " transform="matrix(1, 0, 0, -1, 55.641, 51.864)"/>
<path fill="none" stroke-width="0.3985" stroke-linecap="butt" stroke-linejoin="miter" stroke="rgb(0%, 0%, 0%)" stroke-opacity="1" stroke-miterlimit="10" d="M 49.737906 0.00071875 L 65.331656 0.00071875 " transform="matrix(1, 0, 0, -1, 55.641, 51.864)"/>
<path fill="none" stroke-width="0.3985" stroke-linecap="butt" stroke-linejoin="miter" stroke="rgb(0%, 0%, 0%)" stroke-opacity="1" stroke-miterlimit="10" d="M 82.355094 15.805406 L 82.355094 6.242906 L 73.843375 2.340562 " transform="matrix(1, 0, 0, -1, 55.641, 51.864)"/>
<path fill="none" stroke-width="1.19551" stroke-linecap="butt" stroke-linejoin="miter" stroke="rgb(0%, 0%, 0%)" stroke-opacity="1" stroke-miterlimit="10" d="M 73.843375 6.242906 L 73.843375 -6.241469 " transform="matrix(1, 0, 0, -1, 55.641, 51.864)"/>
<path fill="none" stroke-width="0.3985" stroke-linecap="butt" stroke-linejoin="miter" stroke="rgb(0%, 0%, 0%)" stroke-opacity="1" stroke-miterlimit="10" d="M 73.843375 -2.339125 L 82.355094 -6.241469 L 82.355094 -15.803969 " transform="matrix(1, 0, 0, -1, 55.641, 51.864)"/>
<path fill-rule="nonzero" fill="rgb(0%, 0%, 0%)" fill-opacity="1" d="M 135.257812 56.851562 L 135.835938 55.582031 L 138.175781 58.191406 L 134.675781 58.117188 Z M 135.257812 56.851562 "/>
<path fill="none" stroke-width="0.3985" stroke-linecap="butt" stroke-linejoin="miter" stroke="rgb(0%, 0%, 0%)" stroke-opacity="1" stroke-miterlimit="10" d="M 73.843375 0.00071875 L 65.132438 0.00071875 " transform="matrix(1, 0, 0, -1, 55.641, 51.864)"/>
<g fill="rgb(0%, 0%, 0%)" fill-opacity="1">
<use xlink:href="#glyph-5-0" x="139.414" y="53.219"/>
<use xlink:href="#glyph-5-1" x="143.675901" y="53.219"/>
</g>
<path fill="none" stroke-width="0.3985" stroke-linecap="butt" stroke-linejoin="miter" stroke="rgb(0%, 0%, 0%)" stroke-opacity="1" stroke-miterlimit="10" d="M 49.741813 -31.182875 L 65.335563 -31.182875 " transform="matrix(1, 0, 0, -1, 55.641, 51.864)"/>
<path fill="none" stroke-width="0.3985" stroke-linecap="butt" stroke-linejoin="miter" stroke="rgb(0%, 0%, 0%)" stroke-opacity="1" stroke-miterlimit="10" d="M 82.359 -15.378188 L 82.359 -24.940688 L 73.847281 -28.843031 " transform="matrix(1, 0, 0, -1, 55.641, 51.864)"/>
<path fill="none" stroke-width="1.19551" stroke-linecap="butt" stroke-linejoin="miter" stroke="rgb(0%, 0%, 0%)" stroke-opacity="1" stroke-miterlimit="10" d="M 73.847281 -24.940688 L 73.847281 -37.425063 " transform="matrix(1, 0, 0, -1, 55.641, 51.864)"/>
<path fill="none" stroke-width="0.3985" stroke-linecap="butt" stroke-linejoin="miter" stroke="rgb(0%, 0%, 0%)" stroke-opacity="1" stroke-miterlimit="10" d="M 73.847281 -33.522719 L 82.359 -37.425063 L 82.359 -46.991469 " transform="matrix(1, 0, 0, -1, 55.641, 51.864)"/>
<path fill-rule="nonzero" fill="rgb(0%, 0%, 0%)" fill-opacity="1" d="M 132.40625 79.367188 L 132.988281 80.636719 L 129.488281 80.707031 L 131.828125 78.101562 Z M 132.40625 79.367188 "/>
<path fill="none" stroke-width="0.3985" stroke-linecap="butt" stroke-linejoin="miter" stroke="rgb(0%, 0%, 0%)" stroke-opacity="1" stroke-miterlimit="10" d="M 73.847281 -31.182875 L 65.132438 -31.182875 " transform="matrix(1, 0, 0, -1, 55.641, 51.864)"/>
<g fill="rgb(0%, 0%, 0%)" fill-opacity="1">
<use xlink:href="#glyph-5-0" x="139.418" y="84.402"/>
<use xlink:href="#glyph-5-2" x="143.679901" y="84.402"/>
</g>
<path fill="none" stroke-width="0.3985" stroke-linecap="butt" stroke-linejoin="miter" stroke="rgb(0%, 0%, 0%)" stroke-opacity="1" stroke-miterlimit="10" d="M 82.362906 -15.608656 L 82.362906 -15.577406 M 82.366813 -15.593031 L 101.870719 -15.596938 M 101.870719 -15.596938 L 121.347281 -15.593031 " transform="matrix(1, 0, 0, -1, 55.641, 51.864)"/>
<path fill-rule="nonzero" fill="rgb(0%, 0%, 0%)" fill-opacity="1" stroke-width="0.3985" stroke-linecap="butt" stroke-linejoin="miter" stroke="rgb(0%, 0%, 0%)" stroke-opacity="1" stroke-miterlimit="10" d="M 83.241813 -15.593031 C 83.241813 -15.112563 82.851188 -14.721938 82.366813 -14.721938 C 81.886344 -14.721938 81.495719 -15.112563 81.495719 -15.593031 C 81.495719 -16.077406 81.886344 -16.468031 82.366813 -16.468031 C 82.851188 -16.468031 83.241813 -16.077406 83.241813 -15.593031 Z M 83.241813 -15.593031 " transform="matrix(1, 0, 0, -1, 55.641, 51.864)"/>
<path fill-rule="nonzero" fill="rgb(100%, 100%, 100%)" fill-opacity="1" stroke-width="0.3985" stroke-linecap="butt" stroke-linejoin="miter" stroke="rgb(0%, 0%, 0%)" stroke-opacity="1" stroke-miterlimit="10" d="M 122.218375 -15.593031 C 122.218375 -15.112563 121.82775 -14.721938 121.347281 -14.721938 C 120.862906 -14.721938 120.472281 -15.112563 120.472281 -15.593031 C 120.472281 -16.077406 120.862906 -16.468031 121.347281 -16.468031 C 121.82775 -16.468031 122.218375 -16.077406 122.218375 -15.593031 Z M 122.218375 -15.593031 " transform="matrix(1, 0, 0, -1, 55.641, 51.864)"/>
<g fill="rgb(0%, 0%, 0%)" fill-opacity="1">
<use xlink:href="#glyph-3-2" x="178.921" y="67.685"/>
</g>
<g fill="rgb(0%, 0%, 0%)" fill-opacity="1">
<use xlink:href="#glyph-4-1" x="181.57695" y="68.5067"/>
</g>
<g clip-path="url(#clip-1)">
<g fill="rgb(0%, 0%, 0%)" fill-opacity="1">
<use xlink:href="#glyph-6-0" x="183.7401" y="69.0578"/>
</g>
</g>
<path fill="none" stroke-width="0.3985" stroke-linecap="butt" stroke-linejoin="miter" stroke="rgb(0%, 0%, 0%)" stroke-opacity="1" stroke-miterlimit="10" d="M 101.862906 -15.596938 L 101.878531 -24.128188 M 101.878531 -38.096938 L 101.862906 -46.620375 " transform="matrix(1, 0, 0, -1, 55.641, 51.864)"/>
<path fill="none" stroke-width="0.3985" stroke-linecap="butt" stroke-linejoin="miter" stroke="rgb(0%, 0%, 0%)" stroke-opacity="1" stroke-miterlimit="10" d="M 99.245719 -38.093031 L 99.245719 -24.124281 L 104.484 -24.124281 L 104.484 -38.093031 Z M 99.245719 -38.093031 " transform="matrix(1, 0, 0, -1, 55.641, 51.864)"/>
<path fill-rule="nonzero" fill="rgb(0%, 0%, 0%)" fill-opacity="1" stroke-width="0.3985" stroke-linecap="butt" stroke-linejoin="miter" stroke="rgb(0%, 0%, 0%)" stroke-opacity="1" stroke-miterlimit="10" d="M 102.737906 -15.596938 C 102.737906 -15.112563 102.347281 -14.721938 101.862906 -14.721938 C 101.382438 -14.721938 100.991813 -15.112563 100.991813 -15.596938 C 100.991813 -16.077406 101.382438 -16.468031 101.862906 -16.468031 C 102.347281 -16.468031 102.737906 -16.077406 102.737906 -15.596938 Z M 102.737906 -15.596938 " transform="matrix(1, 0, 0, -1, 55.641, 51.864)"/>
<g fill="rgb(0%, 0%, 0%)" fill-opacity="1">
<use xlink:href="#glyph-3-6" x="162.008" y="84.155"/>
</g>
<g fill="rgb(0%, 0%, 0%)" fill-opacity="1">
<use xlink:href="#glyph-4-5" x="165.74855" y="84.97725"/>
</g>
<path fill="none" stroke-width="0.3985" stroke-linecap="butt" stroke-linejoin="miter" stroke="rgb(0%, 0%, 0%)" stroke-opacity="1" stroke-miterlimit="10" d="M 101.862906 -46.620375 L 101.862906 -53.16725 " transform="matrix(1, 0, 0, -1, 55.641, 51.864)"/>
<path fill="none" stroke-width="0.3985" stroke-linecap="butt" stroke-linejoin="miter" stroke="rgb(0%, 0%, 0%)" stroke-opacity="1" stroke-miterlimit="10" d="M 98.589469 -53.16725 L 105.14025 -53.16725 M 99.683219 -54.261 L 104.0465 -54.261 M 100.499625 -55.350844 L 103.230094 -55.350844 " transform="matrix(1, 0, 0, -1, 55.641, 51.864)"/>
<path fill="none" stroke-width="0.3985" stroke-linecap="butt" stroke-linejoin="miter" stroke="rgb(0%, 0%, 0%)" stroke-opacity="1" stroke-miterlimit="10" d="M 82.362906 15.606187 L 82.362906 31.184312 " transform="matrix(1, 0, 0, -1, 55.641, 51.864)"/>
<path fill="none" stroke-width="0.797" stroke-linecap="butt" stroke-linejoin="miter" stroke="rgb(0%, 0%, 0%)" stroke-opacity="1" stroke-miterlimit="10" d="M 80.179313 34.6765 L 82.362906 37.731187 L 84.542594 34.6765 " transform="matrix(1, 0, 0, -1, 55.641, 51.864)"/>
<path fill="none" stroke-width="0.3985" stroke-linecap="butt" stroke-linejoin="miter" stroke="rgb(0%, 0%, 0%)" stroke-opacity="1" stroke-miterlimit="10" d="M 82.362906 31.184312 L 82.362906 37.731187 " transform="matrix(1, 0, 0, -1, 55.641, 51.864)"/>
<g fill="rgb(0%, 0%, 0%)" fill-opacity="1">
<use xlink:href="#glyph-7-0" x="134.099" y="10.063"/>
</g>
<g fill="rgb(0%, 0%, 0%)" fill-opacity="1">
<use xlink:href="#glyph-7-1" x="137.75378" y="10.063"/>
</g>
<path fill="none" stroke-width="0.3985" stroke-linecap="butt" stroke-linejoin="miter" stroke="rgb(0%, 0%, 0%)" stroke-opacity="1" stroke-miterlimit="10" d="M 82.362906 -46.79225 L 82.362906 -62.366469 " transform="matrix(1, 0, 0, -1, 55.641, 51.864)"/>
<g clip-path="url(#clip-2)">
<path fill="none" stroke-width="0.797" stroke-linecap="butt" stroke-linejoin="miter" stroke="rgb(0%, 0%, 0%)" stroke-opacity="1" stroke-miterlimit="10" d="M 80.183219 -65.858656 L 82.362906 -68.91725 L 84.5465 -65.858656 " transform="matrix(1, 0, 0, -1, 55.641, 51.864)"/>
</g>
<path fill="none" stroke-width="0.3985" stroke-linecap="butt" stroke-linejoin="miter" stroke="rgb(0%, 0%, 0%)" stroke-opacity="1" stroke-miterlimit="10" d="M 82.362906 -62.366469 L 82.362906 -68.91725 " transform="matrix(1, 0, 0, -1, 55.641, 51.864)"/>
<g fill="rgb(0%, 0%, 0%)" fill-opacity="1">
<use xlink:href="#glyph-8-0" x="131.971" y="128.623"/>
</g>
<g clip-path="url(#clip-3)">
<g fill="rgb(0%, 0%, 0%)" fill-opacity="1">
<use xlink:href="#glyph-7-0" x="136.232901" y="128.623"/>
</g>
</g>
<g clip-path="url(#clip-4)">
<g fill="rgb(0%, 0%, 0%)" fill-opacity="1">
<use xlink:href="#glyph-7-1" x="139.88768" y="128.623"/>
</g>
</g>
</svg>
