<?xml version="1.0" encoding="UTF-8"?>
<svg xmlns="http://www.w3.org/2000/svg" xmlns:xlink="http://www.w3.org/1999/xlink" width="56.712pt" height="11.134pt" viewBox="0 0 56.712 11.134">
<defs>
<clipPath id="clip-0">
<path clip-rule="nonzero" d="M 0 8 L 56.566406 8 L 56.566406 10 L 0 10 Z M 0 8 "/>
</clipPath>
<clipPath id="clip-1">
<path clip-rule="nonzero" d="M 9 0 L 44 0 L 44 10.699219 L 9 10.699219 Z M 9 0 "/>
</clipPath>
<clipPath id="clip-2">
<path clip-rule="nonzero" d="M 23 1 L 30 1 L 30 10.699219 L 23 10.699219 Z M 23 1 "/>
</clipPath>
</defs>
<g clip-path="url(#clip-0)">
<path fill="none" stroke-width="0.3985" stroke-linecap="butt" stroke-linejoin="miter" stroke="rgb(0%, 0%, 0%)" stroke-opacity="1" stroke-miterlimit="10" d="M -0.00171875 0.001125 L 21.400625 0.001125 M 35.29125 0.001125 L 56.693594 0.001125 " transform="matrix(1, 0, 0, -1, -0.135, 9.173)"/>
</g>
<g clip-path="url(#clip-1)">
<path fill="none" stroke-width="0.797" stroke-linecap="butt" stroke-linejoin="miter" stroke="rgb(0%, 0%, 0%)" stroke-opacity="1" stroke-miterlimit="10" d="M 21.400625 0.001125 L 32.513906 6.946437 " transform="matrix(1, 0, 0, -1, -0.135, 9.173)"/>
</g>
<g clip-path="url(#clip-2)">
<path fill="none" stroke-width="0.797" stroke-linecap="butt" stroke-linejoin="bevel" stroke="rgb(0%, 0%, 0%)" stroke-opacity="1" stroke-miterlimit="10" d="M 29.607656 -1.448094 C 30.127188 1.4855 29.04125 4.469875 26.76 6.383937 C 26.060781 6.969875 25.275625 7.430812 24.443594 7.758937 " transform="matrix(1, 0, 0, -1, -0.135, 9.173)"/>
</g>
<path fill-rule="nonzero" fill="rgb(0%, 0%, 0%)" fill-opacity="1" d="M 21.265625 0.839844 C 22.421875 1.480469 24.480469 2.6875 25.605469 4.273438 C 24.808594 2.519531 25.125 1.535156 26.792969 0.574219 C 24.957031 1.207031 22.578125 0.988281 21.265625 0.839844 Z M 21.265625 0.839844 "/>
</svg>
