<?xml version="1.0" encoding="UTF-8"?>
<svg xmlns="http://www.w3.org/2000/svg" xmlns:xlink="http://www.w3.org/1999/xlink" width="56.712pt" height="13.703pt" viewBox="0 0 56.712 13.703">
<defs>
<clipPath id="clip-0">
<path clip-rule="nonzero" d="M 0 7 L 56.566406 7 L 56.566406 8 L 0 8 Z M 0 7 "/>
</clipPath>
<clipPath id="clip-1">
<path clip-rule="nonzero" d="M 12 1 L 45 1 L 45 13.554688 L 12 13.554688 Z M 12 1 "/>
</clipPath>
<clipPath id="clip-2">
<path clip-rule="nonzero" d="M 11 0 L 45 0 L 45 13.554688 L 11 13.554688 Z M 11 0 "/>
</clipPath>
<clipPath id="clip-3">
<path clip-rule="nonzero" d="M 1 0 L 56 0 L 56 13.554688 L 1 13.554688 Z M 1 0 "/>
</clipPath>
</defs>
<g clip-path="url(#clip-0)">
<path fill="none" stroke-width="0.3985" stroke-linecap="butt" stroke-linejoin="miter" stroke="rgb(0%, 0%, 0%)" stroke-opacity="1" stroke-miterlimit="10" d="M -0.00171875 -0.000625 L 12.470938 -0.000625 M 44.220938 -0.000625 L 56.693594 -0.000625 " transform="matrix(1, 0, 0, -1, -0.135, 7.2025)"/>
</g>
<g clip-path="url(#clip-1)">
<path fill-rule="nonzero" fill="rgb(70.001221%, 90.351868%, 98.118591%)" fill-opacity="1" d="M 12.335938 1.25 L 44.085938 1.25 L 44.085938 13.15625 L 12.335938 13.15625 Z M 12.335938 1.25 "/>
</g>
<g clip-path="url(#clip-2)">
<path fill="none" stroke-width="0.797" stroke-linecap="butt" stroke-linejoin="miter" stroke="rgb(0%, 0%, 0%)" stroke-opacity="1" stroke-miterlimit="10" d="M 12.470938 5.9525 L 44.220938 5.9525 L 44.220938 -5.95375 L 12.470938 -5.95375 Z M 12.470938 5.9525 " transform="matrix(1, 0, 0, -1, -0.135, 7.2025)"/>
</g>
<g clip-path="url(#clip-3)">
<path fill="none" stroke-width="0.797" stroke-linecap="butt" stroke-linejoin="miter" stroke="rgb(0%, 0%, 0%)" stroke-opacity="1" stroke-miterlimit="10" d="M 12.470938 5.9525 L 44.220938 -5.95375 M 44.220938 5.9525 L 12.470938 -5.95375 " transform="matrix(1, 0, 0, -1, -0.135, 7.2025)"/>
</g>
</svg>
