<?xml version="1.0" encoding="UTF-8"?>
<svg xmlns="http://www.w3.org/2000/svg" xmlns:xlink="http://www.w3.org/1999/xlink" width="170.099pt" height="171.082pt" viewBox="0 0 170.099 171.082">
<defs>
<clipPath id="clip-0">
<path clip-rule="nonzero" d="M 84 85 L 169.648438 85 L 169.648438 86 L 84 86 Z M 84 85 "/>
</clipPath>
<clipPath id="clip-1">
<path clip-rule="nonzero" d="M 84 85 L 85 85 L 85 170.621094 L 84 170.621094 Z M 84 85 "/>
</clipPath>
</defs>
<g clip-path="url(#clip-0)">
<path fill="none" stroke-width="0.3985" stroke-linecap="butt" stroke-linejoin="miter" stroke="rgb(0%, 0%, 0%)" stroke-opacity="1" stroke-miterlimit="10" d="M -0.00084375 -0.00003125 L 30.616344 -0.00003125 M 54.424938 -0.00003125 L 85.042125 -0.00003125 " transform="matrix(1, 0, 0, -1, 84.5985, 85.582)"/>
</g>
<path fill="none" stroke-width="0.797" stroke-linecap="butt" stroke-linejoin="miter" stroke="rgb(0%, 0%, 0%)" stroke-opacity="1" stroke-miterlimit="10" d="M 51.448375 11.906219 L 33.589 11.906219 C 31.948375 11.906219 30.616344 10.574188 30.616344 8.929656 L 30.616344 -8.929719 C 30.616344 -10.57425 31.948375 -11.906281 33.589 -11.906281 L 51.448375 -11.906281 C 53.092906 -11.906281 54.424938 -10.57425 54.424938 -8.929719 L 54.424938 8.929656 C 54.424938 10.574188 53.092906 11.906219 51.448375 11.906219 Z M 51.448375 11.906219 " transform="matrix(1, 0, 0, -1, 84.5985, 85.582)"/>
<path fill="none" stroke-width="0.19925" stroke-linecap="butt" stroke-linejoin="miter" stroke="rgb(0%, 0%, 0%)" stroke-opacity="0.5" stroke-miterlimit="10" d="M 33.589 -5.921906 L 51.448375 -5.921906 M 33.589 -2.960969 L 51.448375 -2.960969 M 33.589 -0.00003125 L 51.448375 -0.00003125 M 33.589 2.960906 L 51.448375 2.960906 M 33.589 5.921844 L 51.448375 5.921844 M 33.635875 -5.953156 L 33.635875 5.953094 M 36.596813 -5.953156 L 36.596813 5.953094 M 39.55775 -5.953156 L 39.55775 5.953094 M 42.518688 -5.953156 L 42.518688 5.953094 M 45.483531 -5.953156 L 45.483531 5.953094 M 48.444469 -5.953156 L 48.444469 5.953094 M 51.405406 -5.953156 L 51.405406 5.953094 " transform="matrix(1, 0, 0, -1, 84.5985, 85.582)"/>
<path fill="none" stroke-width="0.797" stroke-linecap="butt" stroke-linejoin="miter" stroke="rgb(0%, 0%, 0%)" stroke-opacity="1" stroke-miterlimit="10" d="M 33.592906 -2.976594 L 41.924938 2.976531 L 41.924938 -2.976594 L 50.256969 2.976531 L 50.256969 -2.976594 " transform="matrix(1, 0, 0, -1, 84.5985, 85.582)"/>
<path fill="none" stroke-width="0.3985" stroke-linecap="butt" stroke-linejoin="miter" stroke="rgb(0%, 0%, 0%)" stroke-opacity="1" stroke-miterlimit="10" d="M -0.00084375 -0.00003125 L 21.647594 21.648406 M 38.483531 38.484344 L 60.131969 60.132781 " transform="matrix(1, 0, 0, -1, 84.5985, 85.582)"/>
<path fill="none" stroke-width="0.797" stroke-linecap="butt" stroke-linejoin="miter" stroke="rgb(0%, 0%, 0%)" stroke-opacity="1" stroke-miterlimit="10" d="M 27.960094 44.80075 L 15.335094 32.171844 C 14.171031 31.007781 14.171031 29.124969 15.335094 27.960906 L 27.960094 15.332 C 29.124156 14.171844 31.006969 14.171844 32.171031 15.332 L 44.799938 27.960906 C 45.960094 29.124969 45.960094 31.007781 44.799938 32.171844 L 32.171031 44.80075 C 31.006969 45.960906 29.124156 45.960906 27.960094 44.80075 Z M 27.960094 44.80075 " transform="matrix(1, 0, 0, -1, 84.5985, 85.582)"/>
<path fill="none" stroke-width="0.19925" stroke-linecap="butt" stroke-linejoin="miter" stroke="rgb(0%, 0%, 0%)" stroke-opacity="0.5" stroke-miterlimit="10" d="M 21.135875 24.1445 L 38.99525 24.1445 M 21.135875 27.105438 L 38.99525 27.105438 M 21.135875 30.066375 L 38.99525 30.066375 M 21.135875 33.027313 L 38.99525 33.027313 M 21.135875 35.98825 L 38.99525 35.98825 M 21.18275 24.11325 L 21.18275 36.0195 M 24.143688 24.11325 L 24.143688 36.0195 M 27.104625 24.11325 L 27.104625 36.0195 M 30.065563 24.11325 L 30.065563 36.0195 M 33.0265 24.11325 L 33.0265 36.0195 M 35.991344 24.11325 L 35.991344 36.0195 M 38.952281 24.11325 L 38.952281 36.0195 " transform="matrix(1, 0, 0, -1, 84.5985, 85.582)"/>
<path fill="none" stroke-width="0.797" stroke-linecap="butt" stroke-linejoin="miter" stroke="rgb(0%, 0%, 0%)" stroke-opacity="1" stroke-miterlimit="10" d="M 21.135875 27.089813 L 29.471813 33.042938 L 29.471813 27.089813 L 37.803844 33.042938 L 37.803844 27.089813 " transform="matrix(1, 0, 0, -1, 84.5985, 85.582)"/>
<path fill="none" stroke-width="0.3985" stroke-linecap="butt" stroke-linejoin="miter" stroke="rgb(0%, 0%, 0%)" stroke-opacity="1" stroke-miterlimit="10" d="M -0.00084375 -0.00003125 L -0.00084375 30.61325 M -0.00084375 54.42575 L -0.00084375 85.039031 " transform="matrix(1, 0, 0, -1, 84.5985, 85.582)"/>
<path fill="none" stroke-width="0.797" stroke-linecap="butt" stroke-linejoin="miter" stroke="rgb(0%, 0%, 0%)" stroke-opacity="1" stroke-miterlimit="10" d="M -11.907094 51.449188 L -11.907094 33.589813 C -11.907094 31.945281 -10.575062 30.61325 -8.930531 30.61325 L 8.928844 30.61325 C 10.573375 30.61325 11.905406 31.945281 11.905406 33.589813 L 11.905406 51.449188 C 11.905406 53.093719 10.573375 54.42575 8.928844 54.42575 L -8.930531 54.42575 C -10.575062 54.42575 -11.907094 53.093719 -11.907094 51.449188 Z M -11.907094 51.449188 " transform="matrix(1, 0, 0, -1, 84.5985, 85.582)"/>
<path fill="none" stroke-width="0.19925" stroke-linecap="butt" stroke-linejoin="miter" stroke="rgb(0%, 0%, 0%)" stroke-opacity="0.5" stroke-miterlimit="10" d="M -8.930531 36.597625 L 8.928844 36.597625 M -8.930531 39.558563 L 8.928844 39.558563 M -8.930531 42.5195 L 8.928844 42.5195 M -8.930531 45.480438 L 8.928844 45.480438 M -8.930531 48.441375 L 8.928844 48.441375 M -8.883656 36.566375 L -8.883656 48.472625 M -5.922719 36.566375 L -5.922719 48.472625 M -2.961781 36.566375 L -2.961781 48.472625 M -0.00084375 36.566375 L -0.00084375 48.472625 M 2.960094 36.566375 L 2.960094 48.472625 M 5.924938 36.566375 L 5.924938 48.472625 M 8.885875 36.566375 L 8.885875 48.472625 " transform="matrix(1, 0, 0, -1, 84.5985, 85.582)"/>
<path fill="none" stroke-width="0.797" stroke-linecap="butt" stroke-linejoin="miter" stroke="rgb(0%, 0%, 0%)" stroke-opacity="1" stroke-miterlimit="10" d="M -8.930531 39.542938 L -0.594594 45.496063 L -0.594594 39.542938 L 7.737438 45.496063 L 7.737438 39.542938 " transform="matrix(1, 0, 0, -1, 84.5985, 85.582)"/>
<path fill="none" stroke-width="0.3985" stroke-linecap="butt" stroke-linejoin="miter" stroke="rgb(0%, 0%, 0%)" stroke-opacity="1" stroke-miterlimit="10" d="M -0.00084375 -0.00003125 L -21.649281 21.648406 M -38.485219 38.484344 L -60.133656 60.132781 " transform="matrix(1, 0, 0, -1, 84.5985, 85.582)"/>
<path fill="none" stroke-width="0.797" stroke-linecap="butt" stroke-linejoin="miter" stroke="rgb(0%, 0%, 0%)" stroke-opacity="1" stroke-miterlimit="10" d="M -44.797719 27.960906 L -32.172719 15.332 C -31.008656 14.171844 -29.125844 14.171844 -27.961781 15.332 L -15.332875 27.960906 C -14.172719 29.124969 -14.172719 31.007781 -15.332875 32.171844 L -27.961781 44.80075 C -29.125844 45.960906 -31.008656 45.960906 -32.172719 44.80075 L -44.797719 32.171844 C -45.961781 31.007781 -45.961781 29.124969 -44.797719 27.960906 Z M -44.797719 27.960906 " transform="matrix(1, 0, 0, -1, 84.5985, 85.582)"/>
<path fill="none" stroke-width="0.19925" stroke-linecap="butt" stroke-linejoin="miter" stroke="rgb(0%, 0%, 0%)" stroke-opacity="0.5" stroke-miterlimit="10" d="M -38.996937 24.1445 L -21.137562 24.1445 M -38.996937 27.105438 L -21.137562 27.105438 M -38.996937 30.066375 L -21.137562 30.066375 M -38.996937 33.027313 L -21.137562 33.027313 M -38.996937 35.98825 L -21.137562 35.98825 M -38.950062 24.11325 L -38.950062 36.0195 M -35.989125 24.11325 L -35.989125 36.0195 M -33.028187 24.11325 L -33.028187 36.0195 M -30.06725 24.11325 L -30.06725 36.0195 M -27.106312 24.11325 L -27.106312 36.0195 M -24.141469 24.11325 L -24.141469 36.0195 M -21.180531 24.11325 L -21.180531 36.0195 " transform="matrix(1, 0, 0, -1, 84.5985, 85.582)"/>
<path fill="none" stroke-width="0.797" stroke-linecap="butt" stroke-linejoin="miter" stroke="rgb(0%, 0%, 0%)" stroke-opacity="1" stroke-miterlimit="10" d="M -38.996937 27.089813 L -30.661 33.042938 L -30.661 27.089813 L -22.328969 33.042938 L -22.328969 27.089813 " transform="matrix(1, 0, 0, -1, 84.5985, 85.582)"/>
<path fill="none" stroke-width="0.3985" stroke-linecap="butt" stroke-linejoin="miter" stroke="rgb(0%, 0%, 0%)" stroke-opacity="1" stroke-miterlimit="10" d="M -0.00084375 -0.00003125 L -30.614125 -0.00003125 M -54.426625 -0.00003125 L -85.039906 -0.00003125 " transform="matrix(1, 0, 0, -1, 84.5985, 85.582)"/>
<path fill="none" stroke-width="0.797" stroke-linecap="butt" stroke-linejoin="miter" stroke="rgb(0%, 0%, 0%)" stroke-opacity="1" stroke-miterlimit="10" d="M -51.450062 -11.906281 L -33.590687 -11.906281 C -31.946156 -11.906281 -30.614125 -10.57425 -30.614125 -8.929719 L -30.614125 8.929656 C -30.614125 10.574188 -31.946156 11.906219 -33.590687 11.906219 L -51.450062 11.906219 C -53.094594 11.906219 -54.426625 10.574188 -54.426625 8.929656 L -54.426625 -8.929719 C -54.426625 -10.57425 -53.094594 -11.906281 -51.450062 -11.906281 Z M -51.450062 -11.906281 " transform="matrix(1, 0, 0, -1, 84.5985, 85.582)"/>
<path fill="none" stroke-width="0.19925" stroke-linecap="butt" stroke-linejoin="miter" stroke="rgb(0%, 0%, 0%)" stroke-opacity="0.5" stroke-miterlimit="10" d="M -51.450062 -5.921906 L -33.590687 -5.921906 M -51.450062 -2.960969 L -33.590687 -2.960969 M -51.450062 -0.00003125 L -33.590687 -0.00003125 M -51.450062 2.960906 L -33.590687 2.960906 M -51.450062 5.921844 L -33.590687 5.921844 M -51.403187 -5.953156 L -51.403187 5.953094 M -48.44225 -5.953156 L -48.44225 5.953094 M -45.481312 -5.953156 L -45.481312 5.953094 M -42.520375 -5.953156 L -42.520375 5.953094 M -39.559437 -5.953156 L -39.559437 5.953094 M -36.5985 -5.953156 L -36.5985 5.953094 M -33.637562 -5.953156 L -33.637562 5.953094 " transform="matrix(1, 0, 0, -1, 84.5985, 85.582)"/>
<path fill="none" stroke-width="0.797" stroke-linecap="butt" stroke-linejoin="miter" stroke="rgb(0%, 0%, 0%)" stroke-opacity="1" stroke-miterlimit="10" d="M -51.450062 -2.976594 L -43.114125 2.976531 L -43.114125 -2.976594 L -34.782094 2.976531 L -34.782094 -2.976594 " transform="matrix(1, 0, 0, -1, 84.5985, 85.582)"/>
<path fill="none" stroke-width="0.3985" stroke-linecap="butt" stroke-linejoin="miter" stroke="rgb(0%, 0%, 0%)" stroke-opacity="1" stroke-miterlimit="10" d="M -0.00084375 -0.00003125 L -21.649281 -21.648469 M -38.485219 -38.484406 L -60.133656 -60.132844 " transform="matrix(1, 0, 0, -1, 84.5985, 85.582)"/>
<path fill="none" stroke-width="0.797" stroke-linecap="butt" stroke-linejoin="miter" stroke="rgb(0%, 0%, 0%)" stroke-opacity="1" stroke-miterlimit="10" d="M -27.961781 -44.800812 L -15.332875 -32.171906 C -14.172719 -31.007844 -14.172719 -29.125031 -15.332875 -27.960969 L -27.961781 -15.332062 C -29.125844 -14.171906 -31.008656 -14.171906 -32.172719 -15.332062 L -44.797719 -27.960969 C -45.961781 -29.125031 -45.961781 -31.007844 -44.797719 -32.171906 L -32.172719 -44.800812 C -31.008656 -45.960969 -29.125844 -45.960969 -27.961781 -44.800812 Z M -27.961781 -44.800812 " transform="matrix(1, 0, 0, -1, 84.5985, 85.582)"/>
<path fill="none" stroke-width="0.19925" stroke-linecap="butt" stroke-linejoin="miter" stroke="rgb(0%, 0%, 0%)" stroke-opacity="0.5" stroke-miterlimit="10" d="M -38.996937 -35.988312 L -21.137562 -35.988312 M -38.996937 -33.027375 L -21.137562 -33.027375 M -38.996937 -30.066437 L -21.137562 -30.066437 M -38.996937 -27.1055 L -21.137562 -27.1055 M -38.996937 -24.144562 L -21.137562 -24.144562 M -38.950062 -36.019562 L -38.950062 -24.113312 M -35.989125 -36.019562 L -35.989125 -24.113312 M -33.028187 -36.019562 L -33.028187 -24.113312 M -30.06725 -36.019562 L -30.06725 -24.113312 M -27.106312 -36.019562 L -27.106312 -24.113312 M -24.141469 -36.019562 L -24.141469 -24.113312 M -21.180531 -36.019562 L -21.180531 -24.113312 " transform="matrix(1, 0, 0, -1, 84.5985, 85.582)"/>
<path fill="none" stroke-width="0.797" stroke-linecap="butt" stroke-linejoin="miter" stroke="rgb(0%, 0%, 0%)" stroke-opacity="1" stroke-miterlimit="10" d="M -38.996937 -33.043 L -30.661 -27.089875 L -30.661 -33.043 L -22.328969 -27.089875 L -22.328969 -33.043 " transform="matrix(1, 0, 0, -1, 84.5985, 85.582)"/>
<g clip-path="url(#clip-1)">
<path fill="none" stroke-width="0.3985" stroke-linecap="butt" stroke-linejoin="miter" stroke="rgb(0%, 0%, 0%)" stroke-opacity="1" stroke-miterlimit="10" d="M -0.00084375 -0.00003125 L -0.00084375 -30.613312 M -0.00084375 -54.425812 L -0.00084375 -85.039094 " transform="matrix(1, 0, 0, -1, 84.5985, 85.582)"/>
</g>
<path fill="none" stroke-width="0.797" stroke-linecap="butt" stroke-linejoin="miter" stroke="rgb(0%, 0%, 0%)" stroke-opacity="1" stroke-miterlimit="10" d="M 11.905406 -51.44925 L 11.905406 -33.589875 C 11.905406 -31.945344 10.573375 -30.613312 8.928844 -30.613312 L -8.930531 -30.613312 C -10.575062 -30.613312 -11.907094 -31.945344 -11.907094 -33.589875 L -11.907094 -51.44925 C -11.907094 -53.093781 -10.575062 -54.425812 -8.930531 -54.425812 L 8.928844 -54.425812 C 10.573375 -54.425812 11.905406 -53.093781 11.905406 -51.44925 Z M 11.905406 -51.44925 " transform="matrix(1, 0, 0, -1, 84.5985, 85.582)"/>
<path fill="none" stroke-width="0.19925" stroke-linecap="butt" stroke-linejoin="miter" stroke="rgb(0%, 0%, 0%)" stroke-opacity="0.5" stroke-miterlimit="10" d="M -8.930531 -48.441437 L 8.928844 -48.441437 M -8.930531 -45.4805 L 8.928844 -45.4805 M -8.930531 -42.519562 L 8.928844 -42.519562 M -8.930531 -39.558625 L 8.928844 -39.558625 M -8.930531 -36.597687 L 8.928844 -36.597687 M -8.883656 -48.472687 L -8.883656 -36.566437 M -5.922719 -48.472687 L -5.922719 -36.566437 M -2.961781 -48.472687 L -2.961781 -36.566437 M -0.00084375 -48.472687 L -0.00084375 -36.566437 M 2.960094 -48.472687 L 2.960094 -36.566437 M 5.924938 -48.472687 L 5.924938 -36.566437 M 8.885875 -48.472687 L 8.885875 -36.566437 " transform="matrix(1, 0, 0, -1, 84.5985, 85.582)"/>
<path fill="none" stroke-width="0.797" stroke-linecap="butt" stroke-linejoin="miter" stroke="rgb(0%, 0%, 0%)" stroke-opacity="1" stroke-miterlimit="10" d="M -8.930531 -45.496125 L -0.594594 -39.543 L -0.594594 -45.496125 L 7.737438 -39.543 L 7.737438 -45.496125 " transform="matrix(1, 0, 0, -1, 84.5985, 85.582)"/>
<path fill="none" stroke-width="0.3985" stroke-linecap="butt" stroke-linejoin="miter" stroke="rgb(0%, 0%, 0%)" stroke-opacity="1" stroke-miterlimit="10" d="M -0.00084375 -0.00003125 L 21.647594 -21.648469 M 38.483531 -38.484406 L 60.131969 -60.132844 " transform="matrix(1, 0, 0, -1, 84.5985, 85.582)"/>
<path fill="none" stroke-width="0.797" stroke-linecap="butt" stroke-linejoin="miter" stroke="rgb(0%, 0%, 0%)" stroke-opacity="1" stroke-miterlimit="10" d="M 44.799938 -27.960969 L 32.171031 -15.332062 C 31.006969 -14.171906 29.124156 -14.171906 27.960094 -15.332062 L 15.335094 -27.960969 C 14.171031 -29.125031 14.171031 -31.007844 15.335094 -32.171906 L 27.960094 -44.800812 C 29.124156 -45.960969 31.006969 -45.960969 32.171031 -44.800812 L 44.799938 -32.171906 C 45.960094 -31.007844 45.960094 -29.125031 44.799938 -27.960969 Z M 44.799938 -27.960969 " transform="matrix(1, 0, 0, -1, 84.5985, 85.582)"/>
<path fill="none" stroke-width="0.19925" stroke-linecap="butt" stroke-linejoin="miter" stroke="rgb(0%, 0%, 0%)" stroke-opacity="0.5" stroke-miterlimit="10" d="M 21.135875 -35.988312 L 38.99525 -35.988312 M 21.135875 -33.027375 L 38.99525 -33.027375 M 21.135875 -30.066437 L 38.99525 -30.066437 M 21.135875 -27.1055 L 38.99525 -27.1055 M 21.135875 -24.144562 L 38.99525 -24.144562 M 21.18275 -36.019562 L 21.18275 -24.113312 M 24.143688 -36.019562 L 24.143688 -24.113312 M 27.104625 -36.019562 L 27.104625 -24.113312 M 30.065563 -36.019562 L 30.065563 -24.113312 M 33.0265 -36.019562 L 33.0265 -24.113312 M 35.991344 -36.019562 L 35.991344 -24.113312 M 38.952281 -36.019562 L 38.952281 -24.113312 " transform="matrix(1, 0, 0, -1, 84.5985, 85.582)"/>
<path fill="none" stroke-width="0.797" stroke-linecap="butt" stroke-linejoin="miter" stroke="rgb(0%, 0%, 0%)" stroke-opacity="1" stroke-miterlimit="10" d="M 21.135875 -33.043 L 29.471813 -27.089875 L 29.471813 -33.043 L 37.803844 -27.089875 L 37.803844 -33.043 " transform="matrix(1, 0, 0, -1, 84.5985, 85.582)"/>
</svg>
