<?xml version="1.0" encoding="UTF-8"?>
<svg xmlns="http://www.w3.org/2000/svg" xmlns:xlink="http://www.w3.org/1999/xlink" width="130.418pt" height="96.67pt" viewBox="0 0 130.418 96.67">
<defs>
<clipPath id="clip-0">
<path clip-rule="nonzero" d="M 70 0 L 130.128906 0 L 130.128906 96.503906 L 70 96.503906 Z M 70 0 "/>
</clipPath>
</defs>
<path fill="none" stroke-width="0.797" stroke-linecap="butt" stroke-linejoin="bevel" stroke="rgb(0%, 0%, 0%)" stroke-opacity="1" stroke-miterlimit="10" d="M -12.064031 36.115406 C -8.778875 36.115406 -6.110906 34.256031 -6.110906 31.963062 C -6.110906 29.670094 -8.778875 27.810719 -12.064031 27.810719 C -13.708562 27.810719 -15.040594 28.478687 -15.040594 29.299 C -15.040594 30.123219 -13.708562 30.787281 -12.064031 30.787281 C -8.778875 30.787281 -6.110906 28.927906 -6.110906 26.634937 C -6.110906 24.341969 -8.778875 22.482594 -12.064031 22.482594 C -13.708562 22.482594 -15.040594 23.150562 -15.040594 23.970875 C -15.040594 24.795094 -13.708562 25.459156 -12.064031 25.459156 C -8.778875 25.459156 -6.110906 23.603687 -6.110906 21.310719 C -6.110906 19.01775 -8.778875 17.158375 -12.064031 17.158375 C -13.708562 17.158375 -15.040594 17.822437 -15.040594 18.646656 C -15.040594 19.466969 -13.708562 20.134937 -12.064031 20.134937 C -8.778875 20.134937 -6.110906 18.275562 -6.110906 15.982594 C -6.110906 13.689625 -8.778875 11.83025 -12.064031 11.83025 C -13.708562 11.83025 -15.040594 12.494312 -15.040594 13.318531 C -15.040594 14.138844 -13.708562 14.806812 -12.064031 14.806812 C -8.778875 14.806812 -6.110906 12.947437 -6.110906 10.654469 C -6.110906 8.3615 -8.778875 6.502125 -12.064031 6.502125 C -13.708562 6.502125 -15.040594 7.170094 -15.040594 7.990406 C -15.040594 8.814625 -13.708562 9.478687 -12.064031 9.478687 C -8.778875 9.478687 -6.110906 7.619312 -6.110906 5.326344 C -6.110906 3.033375 -8.778875 1.174 -12.064031 1.174 C -13.708562 1.174 -15.040594 1.841969 -15.040594 2.662281 C -15.040594 3.4865 -13.708562 4.150562 -12.064031 4.150562 C -8.778875 4.150562 -6.110906 2.291187 -6.110906 -0.00178125 C -6.110906 -2.29475 -8.778875 -4.150219 -12.064031 -4.150219 C -13.708562 -4.150219 -15.040594 -3.486156 -15.040594 -2.661938 C -15.040594 -1.841625 -13.708562 -1.173656 -12.064031 -1.173656 C -8.778875 -1.173656 -6.110906 -3.033031 -6.110906 -5.326 C -6.110906 -7.618969 -8.778875 -9.478344 -12.064031 -9.478344 C -13.708562 -9.478344 -15.040594 -8.814281 -15.040594 -7.990063 C -15.040594 -7.16975 -13.708562 -6.501781 -12.064031 -6.501781 C -8.778875 -6.501781 -6.110906 -8.361156 -6.110906 -10.654125 C -6.110906 -12.947094 -8.778875 -14.806469 -12.064031 -14.806469 C -13.708562 -14.806469 -15.040594 -14.1385 -15.040594 -13.318188 C -15.040594 -12.497875 -13.708562 -11.829906 -12.064031 -11.829906 C -8.778875 -11.829906 -6.110906 -13.689281 -6.110906 -15.98225 C -6.110906 -18.275219 -8.778875 -20.134594 -12.064031 -20.134594 C -13.708562 -20.134594 -15.040594 -19.466625 -15.040594 -18.646313 C -15.040594 -17.822094 -13.708562 -17.158031 -12.064031 -17.158031 C -8.778875 -17.158031 -6.110906 -19.017406 -6.110906 -21.310375 C -6.110906 -23.603344 -8.778875 -25.462719 -12.064031 -25.462719 C -13.708562 -25.462719 -15.040594 -24.79475 -15.040594 -23.974438 C -15.040594 -23.150219 -13.708562 -22.486156 -12.064031 -22.486156 C -8.778875 -22.486156 -6.110906 -24.341625 -6.110906 -26.634594 C -6.110906 -28.927563 -8.778875 -30.786938 -12.064031 -30.786938 C -13.708562 -30.786938 -15.040594 -30.122875 -15.040594 -29.298656 C -15.040594 -28.478344 -13.708562 -27.810375 -12.064031 -27.810375 C -8.778875 -27.810375 -6.110906 -29.66975 -6.110906 -31.962719 C -6.110906 -34.255688 -8.778875 -36.115063 -12.064031 -36.115063 " transform="matrix(1, 0, 0, -1, 29.482, 48.674)"/>
<path fill="none" stroke-width="0.797" stroke-linecap="butt" stroke-linejoin="bevel" stroke="rgb(0%, 0%, 0%)" stroke-opacity="1" stroke-miterlimit="10" d="M 12.064875 -12.302563 C 8.775813 -12.302563 6.11175 -10.66975 6.11175 -8.654125 C 6.11175 -6.634594 8.775813 -5.001781 12.064875 -5.001781 C 13.709406 -5.001781 15.041438 -5.665844 15.041438 -6.490063 C 15.041438 -7.310375 13.709406 -7.978344 12.064875 -7.978344 C 8.775813 -7.978344 6.11175 -6.341625 6.11175 -4.326 C 6.11175 -2.310375 8.775813 -0.673656 12.064875 -0.673656 C 13.709406 -0.673656 15.041438 -1.341625 15.041438 -2.161938 C 15.041438 -2.986156 13.709406 -3.650219 12.064875 -3.650219 C 8.775813 -3.650219 6.11175 -2.017406 6.11175 -0.00178125 C 6.11175 2.01775 8.775813 3.650562 12.064875 3.650562 C 13.709406 3.650562 15.041438 2.9865 15.041438 2.162281 C 15.041438 1.341969 13.709406 0.674 12.064875 0.674 C 8.775813 0.674 6.11175 2.310719 6.11175 4.326344 C 6.11175 6.341969 8.775813 7.978687 12.064875 7.978687 C 13.709406 7.978687 15.041438 7.310719 15.041438 6.490406 C 15.041438 5.666187 13.709406 5.002125 12.064875 5.002125 C 8.775813 5.002125 6.11175 6.634937 6.11175 8.654469 C 6.11175 10.670094 8.775813 12.302906 12.064875 12.302906 " transform="matrix(1, 0, 0, -1, 29.482, 48.674)"/>
<path fill="none" stroke-width="0.3985" stroke-linecap="butt" stroke-linejoin="miter" stroke="rgb(0%, 0%, 0%)" stroke-opacity="1" stroke-miterlimit="10" d="M -29.76325 29.763844 L -11.903875 29.763844 L -11.903875 35.716969 M -11.903875 -35.716625 L -11.903875 -29.7635 L -29.76325 -29.7635 M 29.764094 29.763844 L 11.904719 29.763844 L 11.904719 11.904469 M 11.904719 -11.904125 L 11.904719 -29.7635 L 29.764094 -29.7635 " transform="matrix(1, 0, 0, -1, 29.482, 48.674)"/>
<path fill="none" stroke-width="0.797" stroke-linecap="butt" stroke-linejoin="miter" stroke="rgb(0%, 0%, 0%)" stroke-opacity="1" stroke-miterlimit="10" d="M 1.48675 -14.880688 L 1.48675 14.881031 M -1.485906 -14.880688 L -1.485906 14.881031 " transform="matrix(1, 0, 0, -1, 29.482, 48.674)"/>
<path fill="none" stroke-width="0.797" stroke-linecap="butt" stroke-linejoin="bevel" stroke="rgb(0%, 0%, 0%)" stroke-opacity="1" stroke-miterlimit="10" d="M 58.803156 36.115406 C 62.088313 36.115406 64.756281 34.256031 64.756281 31.963062 C 64.756281 29.670094 62.088313 27.810719 58.803156 27.810719 C 57.158625 27.810719 55.826594 28.478687 55.826594 29.299 C 55.826594 30.123219 57.158625 30.787281 58.803156 30.787281 C 62.088313 30.787281 64.756281 28.927906 64.756281 26.634937 C 64.756281 24.341969 62.088313 22.482594 58.803156 22.482594 C 57.158625 22.482594 55.826594 23.150562 55.826594 23.970875 C 55.826594 24.795094 57.158625 25.459156 58.803156 25.459156 C 62.088313 25.459156 64.756281 23.603687 64.756281 21.310719 C 64.756281 19.01775 62.088313 17.158375 58.803156 17.158375 C 57.158625 17.158375 55.826594 17.822437 55.826594 18.646656 C 55.826594 19.466969 57.158625 20.134937 58.803156 20.134937 C 62.088313 20.134937 64.756281 18.275562 64.756281 15.982594 C 64.756281 13.689625 62.088313 11.83025 58.803156 11.83025 C 57.158625 11.83025 55.826594 12.494312 55.826594 13.318531 C 55.826594 14.138844 57.158625 14.806812 58.803156 14.806812 C 62.088313 14.806812 64.756281 12.947437 64.756281 10.654469 C 64.756281 8.3615 62.088313 6.502125 58.803156 6.502125 C 57.158625 6.502125 55.826594 7.170094 55.826594 7.990406 C 55.826594 8.814625 57.158625 9.478687 58.803156 9.478687 C 62.088313 9.478687 64.756281 7.619312 64.756281 5.326344 C 64.756281 3.033375 62.088313 1.174 58.803156 1.174 C 57.158625 1.174 55.826594 1.841969 55.826594 2.662281 C 55.826594 3.4865 57.158625 4.150562 58.803156 4.150562 C 62.088313 4.150562 64.756281 2.291187 64.756281 -0.00178125 C 64.756281 -2.29475 62.088313 -4.150219 58.803156 -4.150219 C 57.158625 -4.150219 55.826594 -3.486156 55.826594 -2.661938 C 55.826594 -1.841625 57.158625 -1.173656 58.803156 -1.173656 C 62.088313 -1.173656 64.756281 -3.033031 64.756281 -5.326 C 64.756281 -7.618969 62.088313 -9.478344 58.803156 -9.478344 C 57.158625 -9.478344 55.826594 -8.814281 55.826594 -7.990063 C 55.826594 -7.16975 57.158625 -6.501781 58.803156 -6.501781 C 62.088313 -6.501781 64.756281 -8.361156 64.756281 -10.654125 C 64.756281 -12.947094 62.088313 -14.806469 58.803156 -14.806469 C 57.158625 -14.806469 55.826594 -14.1385 55.826594 -13.318188 C 55.826594 -12.497875 57.158625 -11.829906 58.803156 -11.829906 C 62.088313 -11.829906 64.756281 -13.689281 64.756281 -15.98225 C 64.756281 -18.275219 62.088313 -20.134594 58.803156 -20.134594 C 57.158625 -20.134594 55.826594 -19.466625 55.826594 -18.646313 C 55.826594 -17.822094 57.158625 -17.158031 58.803156 -17.158031 C 62.088313 -17.158031 64.756281 -19.017406 64.756281 -21.310375 C 64.756281 -23.603344 62.088313 -25.462719 58.803156 -25.462719 C 57.158625 -25.462719 55.826594 -24.79475 55.826594 -23.974438 C 55.826594 -23.150219 57.158625 -22.486156 58.803156 -22.486156 C 62.088313 -22.486156 64.756281 -24.341625 64.756281 -26.634594 C 64.756281 -28.927563 62.088313 -30.786938 58.803156 -30.786938 C 57.158625 -30.786938 55.826594 -30.122875 55.826594 -29.298656 C 55.826594 -28.478344 57.158625 -27.810375 58.803156 -27.810375 C 62.088313 -27.810375 64.756281 -29.66975 64.756281 -31.962719 C 64.756281 -34.255688 62.088313 -36.115063 58.803156 -36.115063 " transform="matrix(1, 0, 0, -1, 29.482, 48.674)"/>
<path fill="none" stroke-width="0.797" stroke-linecap="butt" stroke-linejoin="bevel" stroke="rgb(0%, 0%, 0%)" stroke-opacity="1" stroke-miterlimit="10" d="M 82.932063 -12.302563 C 79.643 -12.302563 76.978938 -10.66975 76.978938 -8.654125 C 76.978938 -6.634594 79.643 -5.001781 82.932063 -5.001781 C 84.576594 -5.001781 85.908625 -5.665844 85.908625 -6.490063 C 85.908625 -7.310375 84.576594 -7.978344 82.932063 -7.978344 C 79.643 -7.978344 76.978938 -6.341625 76.978938 -4.326 C 76.978938 -2.310375 79.643 -0.673656 82.932063 -0.673656 C 84.576594 -0.673656 85.908625 -1.341625 85.908625 -2.161938 C 85.908625 -2.986156 84.576594 -3.650219 82.932063 -3.650219 C 79.643 -3.650219 76.978938 -2.017406 76.978938 -0.00178125 C 76.978938 2.01775 79.643 3.650562 82.932063 3.650562 C 84.576594 3.650562 85.908625 2.9865 85.908625 2.162281 C 85.908625 1.341969 84.576594 0.674 82.932063 0.674 C 79.643 0.674 76.978938 2.310719 76.978938 4.326344 C 76.978938 6.341969 79.643 7.978687 82.932063 7.978687 C 84.576594 7.978687 85.908625 7.310719 85.908625 6.490406 C 85.908625 5.666187 84.576594 5.002125 82.932063 5.002125 C 79.643 5.002125 76.978938 6.634937 76.978938 8.654469 C 76.978938 10.670094 79.643 12.302906 82.932063 12.302906 " transform="matrix(1, 0, 0, -1, 29.482, 48.674)"/>
<g clip-path="url(#clip-0)">
<path fill="none" stroke-width="0.3985" stroke-linecap="butt" stroke-linejoin="miter" stroke="rgb(0%, 0%, 0%)" stroke-opacity="1" stroke-miterlimit="10" d="M 41.103938 47.623219 L 58.963313 47.623219 L 58.963313 35.716969 M 58.963313 -35.716625 L 58.963313 -47.622875 L 41.103938 -47.622875 M 100.631281 47.623219 L 82.771906 47.623219 L 82.771906 11.904469 M 82.771906 -11.904125 L 82.771906 -47.622875 L 100.631281 -47.622875 " transform="matrix(1, 0, 0, -1, 29.482, 48.674)"/>
</g>
<path fill="none" stroke-width="0.797" stroke-linecap="butt" stroke-linejoin="miter" stroke="rgb(0%, 0%, 0%)" stroke-opacity="1" stroke-miterlimit="10" d="M 72.353938 -23.810375 L 72.353938 23.810719 M 69.377375 -23.810375 L 69.377375 23.810719 " transform="matrix(1, 0, 0, -1, 29.482, 48.674)"/>
</svg>
