<?xml version="1.0" encoding="UTF-8"?>
<svg xmlns="http://www.w3.org/2000/svg" xmlns:xlink="http://www.w3.org/1999/xlink" width="59.552pt" height="60.958pt" viewBox="0 0 59.552 60.958">
<defs>
<clipPath id="clip-0">
<path clip-rule="nonzero" d="M 0 0 L 59.328125 0 L 59.328125 60.9375 L 0 60.9375 Z M 0 0 "/>
</clipPath>
</defs>
<g clip-path="url(#clip-0)">
<path fill="none" stroke-width="0.3985" stroke-linecap="butt" stroke-linejoin="miter" stroke="rgb(0%, 0%, 0%)" stroke-opacity="1" stroke-miterlimit="10" d="M -29.763844 29.764687 L -11.904469 29.764687 L -11.904469 -29.762656 L -29.763844 -29.762656 M 29.7635 29.764687 L 11.904125 29.764687 L 11.904125 -29.762656 L 29.7635 -29.762656 " transform="matrix(1, 0, 0, -1, 29.549, 30.96)"/>
</g>
<path fill-rule="nonzero" fill="rgb(70.001221%, 90.351868%, 98.118591%)" fill-opacity="1" stroke-width="0.797" stroke-linecap="butt" stroke-linejoin="miter" stroke="rgb(0%, 0%, 0%)" stroke-opacity="1" stroke-miterlimit="10" d="M -11.904469 -8.332969 C -7.302906 -8.332969 -3.572438 -4.6025 -3.572438 -0.0009375 C -3.572438 4.600625 -7.302906 8.335 -11.904469 8.335 Z M -11.904469 -8.332969 " transform="matrix(1, 0, 0, -1, 29.549, 30.96)"/>
<path fill-rule="nonzero" fill="rgb(70.001221%, 90.351868%, 98.118591%)" fill-opacity="1" stroke-width="0.797" stroke-linecap="butt" stroke-linejoin="miter" stroke="rgb(0%, 0%, 0%)" stroke-opacity="1" stroke-miterlimit="10" d="M 11.904125 8.335 C 7.302562 8.335 3.572094 4.600625 3.572094 -0.0009375 C 3.572094 -4.6025 7.302562 -8.332969 11.904125 -8.332969 Z M 11.904125 8.335 " transform="matrix(1, 0, 0, -1, 29.549, 30.96)"/>
</svg>
