<?xml version="1.0" encoding="UTF-8"?>
<svg xmlns="http://www.w3.org/2000/svg" xmlns:xlink="http://www.w3.org/1999/xlink" width="101.992pt" height="75.772pt" viewBox="0 0 101.992 75.772">
<defs>
<clipPath id="clip-0">
<path clip-rule="nonzero" d="M 5 70 L 19 70 L 19 75.65625 L 5 75.65625 Z M 5 70 "/>
</clipPath>
<clipPath id="clip-1">
<path clip-rule="nonzero" d="M 98 30 L 101.988281 30 L 101.988281 35 L 98 35 Z M 98 30 "/>
</clipPath>
<clipPath id="clip-2">
<path clip-rule="nonzero" d="M 92 25 L 101.988281 25 L 101.988281 40 L 92 40 Z M 92 25 "/>
</clipPath>
<clipPath id="clip-3">
<path clip-rule="nonzero" d="M 98 1 L 101.988281 1 L 101.988281 5 L 98 5 Z M 98 1 "/>
</clipPath>
<clipPath id="clip-4">
<path clip-rule="nonzero" d="M 92 0 L 101.988281 0 L 101.988281 10 L 92 10 Z M 92 0 "/>
</clipPath>
<clipPath id="clip-5">
<path clip-rule="nonzero" d="M 98 60 L 101.988281 60 L 101.988281 64 L 98 64 Z M 98 60 "/>
</clipPath>
<clipPath id="clip-6">
<path clip-rule="nonzero" d="M 92 54 L 101.988281 54 L 101.988281 70 L 92 70 Z M 92 54 "/>
</clipPath>
</defs>
<path fill="none" stroke-width="0.3985" stroke-linecap="butt" stroke-linejoin="miter" stroke="rgb(0%, 0%, 0%)" stroke-opacity="1" stroke-miterlimit="10" d="M -0.00159375 0.0001875 L -0.00159375 16.441594 M -0.00159375 40.254094 L -0.00159375 56.6955 L 28.346063 56.6955 " transform="matrix(1, 0, 0, -1, 12.318, 59.383)"/>
<path fill="none" stroke-width="0.3985" stroke-linecap="butt" stroke-linejoin="miter" stroke="rgb(0%, 0%, 0%)" stroke-opacity="1" stroke-miterlimit="10" d="M -0.00159375 0.0001875 L -0.00159375 -11.906063 " transform="matrix(1, 0, 0, -1, 12.318, 59.383)"/>
<g clip-path="url(#clip-0)">
<path fill="none" stroke-width="0.797" stroke-linecap="butt" stroke-linejoin="miter" stroke="rgb(0%, 0%, 0%)" stroke-opacity="1" stroke-miterlimit="10" d="M -5.954719 -11.906063 L 5.951531 -11.906063 M -3.970344 -13.890438 L 3.967156 -13.890438 M -2.482062 -15.874813 L 2.478875 -15.874813 " transform="matrix(1, 0, 0, -1, 12.318, 59.383)"/>
</g>
<path fill="none" stroke-width="0.797" stroke-linecap="butt" stroke-linejoin="miter" stroke="rgb(0%, 0%, 0%)" stroke-opacity="1" stroke-miterlimit="10" d="M -11.903937 28.347844 C -11.903937 21.769719 -6.575812 16.441594 -0.00159375 16.441594 C 6.576531 16.441594 11.904656 21.769719 11.904656 28.347844 C 11.904656 34.922062 6.576531 40.254094 -0.00159375 40.254094 C -6.575812 40.254094 -11.903937 34.922062 -11.903937 28.347844 Z M -11.903937 28.347844 " transform="matrix(1, 0, 0, -1, 12.318, 59.383)"/>
<path fill="none" stroke-width="0.797" stroke-linecap="butt" stroke-linejoin="miter" stroke="rgb(0%, 0%, 0%)" stroke-opacity="1" stroke-miterlimit="10" d="M 5.951531 28.347844 C 4.982781 26.824406 4.053094 25.371281 2.974969 25.371281 C 1.90075 25.371281 0.971063 26.824406 -0.00159375 28.347844 C -0.970344 29.871281 -1.900031 31.324406 -2.978156 31.324406 C -4.052375 31.324406 -4.982062 29.871281 -5.954719 28.347844 " transform="matrix(1, 0, 0, -1, 12.318, 59.383)"/>
<path fill="none" stroke-width="0.797" stroke-linecap="butt" stroke-linejoin="bevel" stroke="rgb(0%, 0%, 0%)" stroke-opacity="1" stroke-miterlimit="10" d="M 46.045281 39.234562 C 49.334344 39.234562 51.998406 37.871281 51.998406 36.191594 C 51.998406 34.511906 49.334344 33.148625 46.045281 33.148625 C 44.40075 33.148625 43.068719 33.679875 43.068719 34.340031 C 43.068719 34.996281 44.40075 35.527531 46.045281 35.527531 C 49.334344 35.527531 51.998406 34.168156 51.998406 32.484562 C 51.998406 30.804875 49.334344 29.4455 46.045281 29.4455 C 44.40075 29.4455 43.068719 29.97675 43.068719 30.633 C 43.068719 31.293156 44.40075 31.824406 46.045281 31.824406 C 49.334344 31.824406 51.998406 30.461125 51.998406 28.781437 C 51.998406 27.10175 49.334344 25.738469 46.045281 25.738469 C 44.40075 25.738469 43.068719 26.273625 43.068719 26.929875 C 43.068719 27.586125 44.40075 28.121281 46.045281 28.121281 C 49.334344 28.121281 51.998406 26.758 51.998406 25.078312 C 51.998406 23.398625 49.334344 22.035344 46.045281 22.035344 C 44.40075 22.035344 43.068719 22.566594 43.068719 23.22675 C 43.068719 23.883 44.40075 24.41425 46.045281 24.41425 C 49.334344 24.41425 51.998406 23.054875 51.998406 21.371281 C 51.998406 19.691594 49.334344 18.328312 46.045281 18.328312 C 44.40075 18.328312 43.068719 18.863469 43.068719 19.519719 C 43.068719 20.179875 44.40075 20.711125 46.045281 20.711125 C 49.334344 20.711125 51.998406 19.347844 51.998406 17.668156 C 51.998406 15.988469 49.334344 14.625187 46.045281 14.625187 " transform="matrix(1, 0, 0, -1, 12.318, 59.383)"/>
<path fill="none" stroke-width="0.797" stroke-linecap="butt" stroke-linejoin="bevel" stroke="rgb(0%, 0%, 0%)" stroke-opacity="1" stroke-miterlimit="10" d="M 70.174188 14.625187 C 66.889031 14.625187 64.221063 15.988469 64.221063 17.668156 C 64.221063 19.347844 66.889031 20.711125 70.174188 20.711125 C 71.818719 20.711125 73.15075 20.179875 73.15075 19.519719 C 73.15075 18.863469 71.818719 18.328312 70.174188 18.328312 C 66.889031 18.328312 64.221063 19.691594 64.221063 21.371281 C 64.221063 23.054875 66.889031 24.41425 70.174188 24.41425 C 71.818719 24.41425 73.15075 23.883 73.15075 23.22675 C 73.15075 22.566594 71.818719 22.035344 70.174188 22.035344 C 66.889031 22.035344 64.221063 23.398625 64.221063 25.078312 C 64.221063 26.758 66.889031 28.121281 70.174188 28.121281 C 71.818719 28.121281 73.15075 27.586125 73.15075 26.929875 C 73.15075 26.273625 71.818719 25.738469 70.174188 25.738469 C 66.889031 25.738469 64.221063 27.10175 64.221063 28.781437 C 64.221063 30.461125 66.889031 31.824406 70.174188 31.824406 C 71.818719 31.824406 73.15075 31.293156 73.15075 30.633 C 73.15075 29.97675 71.818719 29.4455 70.174188 29.4455 C 66.889031 29.4455 64.221063 30.804875 64.221063 32.484562 C 64.221063 34.168156 66.889031 35.527531 70.174188 35.527531 C 71.818719 35.527531 73.15075 34.996281 73.15075 34.340031 C 73.15075 33.679875 71.818719 33.148625 70.174188 33.148625 C 66.889031 33.148625 64.221063 34.511906 64.221063 36.191594 C 64.221063 37.871281 66.889031 39.234562 70.174188 39.234562 " transform="matrix(1, 0, 0, -1, 12.318, 59.383)"/>
<path fill="none" stroke-width="0.3985" stroke-linecap="butt" stroke-linejoin="miter" stroke="rgb(0%, 0%, 0%)" stroke-opacity="1" stroke-miterlimit="10" d="M 28.346063 56.6955 L 46.205438 56.6955 L 46.205438 38.836125 M 46.205438 15.023625 L 46.205438 -2.83575 L 28.346063 -2.83575 M 87.873406 56.6955 L 70.017938 56.6955 L 70.017938 38.836125 M 70.017938 15.023625 L 70.017938 -2.83575 L 87.873406 -2.83575 " transform="matrix(1, 0, 0, -1, 12.318, 59.383)"/>
<path fill="none" stroke-width="0.3985" stroke-linecap="butt" stroke-linejoin="miter" stroke="rgb(0%, 0%, 0%)" stroke-opacity="1" stroke-miterlimit="10" d="M 28.346063 -2.83575 L 14.174188 -2.83575 M 14.174188 -2.83575 L -0.00159375 -2.83575 " transform="matrix(1, 0, 0, -1, 12.318, 59.383)"/>
<path fill-rule="nonzero" fill="rgb(0%, 0%, 0%)" fill-opacity="1" stroke-width="0.3985" stroke-linecap="butt" stroke-linejoin="miter" stroke="rgb(0%, 0%, 0%)" stroke-opacity="1" stroke-miterlimit="10" d="M 1.58825 -2.83575 C 1.58825 -1.956844 0.877313 -1.245906 -0.00159375 -1.245906 C -0.876594 -1.245906 -1.587531 -1.956844 -1.587531 -2.83575 C -1.587531 -3.71075 -0.876594 -4.421688 -0.00159375 -4.421688 C 0.877313 -4.421688 1.58825 -3.71075 1.58825 -2.83575 Z M 1.58825 -2.83575 " transform="matrix(1, 0, 0, -1, 12.318, 59.383)"/>
<path fill="none" stroke-width="0.3985" stroke-linecap="butt" stroke-linejoin="miter" stroke="rgb(0%, 0%, 0%)" stroke-opacity="1" stroke-miterlimit="10" d="M 72.990594 26.929875 L 80.432 26.929875 M 80.432 26.929875 L 87.873406 26.929875 " transform="matrix(1, 0, 0, -1, 12.318, 59.383)"/>
<path fill-rule="nonzero" fill="rgb(0%, 0%, 0%)" fill-opacity="1" stroke-width="0.3985" stroke-linecap="butt" stroke-linejoin="miter" stroke="rgb(0%, 0%, 0%)" stroke-opacity="1" stroke-miterlimit="10" d="M 74.580438 26.929875 C 74.580438 27.804875 73.8695 28.515812 72.990594 28.515812 C 72.115594 28.515812 71.404656 27.804875 71.404656 26.929875 C 71.404656 26.054875 72.115594 25.343937 72.990594 25.343937 C 73.8695 25.343937 74.580438 26.054875 74.580438 26.929875 Z M 74.580438 26.929875 " transform="matrix(1, 0, 0, -1, 12.318, 59.383)"/>
<g clip-path="url(#clip-1)">
<path fill-rule="nonzero" fill="rgb(100%, 100%, 100%)" fill-opacity="1" d="M 101.78125 32.453125 C 101.78125 31.578125 101.070312 30.867188 100.191406 30.867188 C 99.316406 30.867188 98.605469 31.578125 98.605469 32.453125 C 98.605469 33.328125 99.316406 34.039062 100.191406 34.039062 C 101.070312 34.039062 101.78125 33.328125 101.78125 32.453125 Z M 101.78125 32.453125 "/>
</g>
<g clip-path="url(#clip-2)">
<path fill="none" stroke-width="0.3985" stroke-linecap="butt" stroke-linejoin="miter" stroke="rgb(0%, 0%, 0%)" stroke-opacity="1" stroke-miterlimit="10" d="M 89.46325 26.929875 C 89.46325 27.804875 88.752313 28.515812 87.873406 28.515812 C 86.998406 28.515812 86.287469 27.804875 86.287469 26.929875 C 86.287469 26.054875 86.998406 25.343937 87.873406 25.343937 C 88.752313 25.343937 89.46325 26.054875 89.46325 26.929875 Z M 89.46325 26.929875 " transform="matrix(1, 0, 0, -1, 12.318, 59.383)"/>
</g>
<g clip-path="url(#clip-3)">
<path fill-rule="nonzero" fill="rgb(100%, 100%, 100%)" fill-opacity="1" d="M 101.78125 2.6875 C 101.78125 1.8125 101.070312 1.101562 100.191406 1.101562 C 99.316406 1.101562 98.605469 1.8125 98.605469 2.6875 C 98.605469 3.566406 99.316406 4.277344 100.191406 4.277344 C 101.070312 4.277344 101.78125 3.566406 101.78125 2.6875 Z M 101.78125 2.6875 "/>
</g>
<g clip-path="url(#clip-4)">
<path fill="none" stroke-width="0.3985" stroke-linecap="butt" stroke-linejoin="miter" stroke="rgb(0%, 0%, 0%)" stroke-opacity="1" stroke-miterlimit="10" d="M 89.46325 56.6955 C 89.46325 57.5705 88.752313 58.281437 87.873406 58.281437 C 86.998406 58.281437 86.287469 57.5705 86.287469 56.6955 C 86.287469 55.816594 86.998406 55.105656 87.873406 55.105656 C 88.752313 55.105656 89.46325 55.816594 89.46325 56.6955 Z M 89.46325 56.6955 " transform="matrix(1, 0, 0, -1, 12.318, 59.383)"/>
</g>
<g clip-path="url(#clip-5)">
<path fill-rule="nonzero" fill="rgb(100%, 100%, 100%)" fill-opacity="1" d="M 101.78125 62.21875 C 101.78125 61.339844 101.070312 60.628906 100.191406 60.628906 C 99.316406 60.628906 98.605469 61.339844 98.605469 62.21875 C 98.605469 63.09375 99.316406 63.804688 100.191406 63.804688 C 101.070312 63.804688 101.78125 63.09375 101.78125 62.21875 Z M 101.78125 62.21875 "/>
</g>
<g clip-path="url(#clip-6)">
<path fill="none" stroke-width="0.3985" stroke-linecap="butt" stroke-linejoin="miter" stroke="rgb(0%, 0%, 0%)" stroke-opacity="1" stroke-miterlimit="10" d="M 89.46325 -2.83575 C 89.46325 -1.956844 88.752313 -1.245906 87.873406 -1.245906 C 86.998406 -1.245906 86.287469 -1.956844 86.287469 -2.83575 C 86.287469 -3.71075 86.998406 -4.421688 87.873406 -4.421688 C 88.752313 -4.421688 89.46325 -3.71075 89.46325 -2.83575 Z M 89.46325 -2.83575 " transform="matrix(1, 0, 0, -1, 12.318, 59.383)"/>
</g>
</svg>
