<?xml version="1.0" encoding="UTF-8"?>
<svg xmlns="http://www.w3.org/2000/svg" xmlns:xlink="http://www.w3.org/1999/xlink" width="43.676pt" height="33.562pt" viewBox="0 0 43.676 33.562">
<defs>
<clipPath id="clip-0">
<path clip-rule="nonzero" d="M 0 8 L 43.515625 8 L 43.515625 26 L 0 26 Z M 0 8 "/>
</clipPath>
<clipPath id="clip-1">
<path clip-rule="nonzero" d="M 0 0 L 43.515625 0 L 43.515625 33.34375 L 0 33.34375 Z M 0 0 "/>
</clipPath>
<clipPath id="clip-2">
<path clip-rule="nonzero" d="M 0 0 L 22 0 L 22 33.34375 L 0 33.34375 Z M 0 0 "/>
</clipPath>
</defs>
<g clip-path="url(#clip-0)">
<path fill="none" stroke-width="0.3985" stroke-linecap="butt" stroke-linejoin="miter" stroke="rgb(0%, 0%, 0%)" stroke-opacity="1" stroke-miterlimit="10" d="M -39.288344 7.938187 L -30.362563 7.938187 M -39.288344 -7.936813 L -30.362563 -7.936813 M 4.364 0.0006875 L -2.182875 0.0006875 " transform="matrix(1, 0, 0, -1, 39.136, 17.071)"/>
</g>
<path fill-rule="nonzero" fill="rgb(70.001221%, 90.351868%, 98.118591%)" fill-opacity="1" d="M 6.394531 1.195312 C 11.5625 4.386719 14.222656 14.082031 12.34375 22.847656 C 11.335938 27.539062 9.160156 31.234375 6.394531 32.941406 C 28.222656 32.945312 28.222656 25.007812 33.679688 17.070312 C 28.222656 9.132812 28.222656 1.195312 6.394531 1.195312 Z M 36.953125 17.070312 C 36.953125 16.167969 36.21875 15.433594 35.316406 15.433594 C 34.414062 15.433594 33.679688 16.167969 33.679688 17.070312 C 33.679688 17.976562 34.414062 18.707031 35.316406 18.707031 C 36.21875 18.707031 36.953125 17.976562 36.953125 17.070312 Z M 36.953125 17.070312 "/>
<g clip-path="url(#clip-1)">
<path fill="none" stroke-width="0.797" stroke-linecap="butt" stroke-linejoin="miter" stroke="rgb(0%, 0%, 0%)" stroke-opacity="1" stroke-miterlimit="10" d="M -32.741469 15.875687 C -27.5735 12.684281 -24.913344 2.988969 -26.79225 -5.776656 C -27.800063 -10.468063 -29.975844 -14.163375 -32.741469 -15.870406 C -10.913344 -15.874313 -10.913344 -7.936813 -5.456313 0.0006875 C -10.913344 7.938187 -10.913344 15.875687 -32.741469 15.875687 Z M -2.182875 0.0006875 C -2.182875 0.903031 -2.91725 1.637406 -3.819594 1.637406 C -4.721938 1.637406 -5.456313 0.903031 -5.456313 0.0006875 C -5.456313 -0.905563 -4.721938 -1.636031 -3.819594 -1.636031 C -2.91725 -1.636031 -2.182875 -0.905563 -2.182875 0.0006875 Z M -2.182875 0.0006875 " transform="matrix(1, 0, 0, -1, 39.136, 17.071)"/>
</g>
<g clip-path="url(#clip-2)">
<path fill="none" stroke-width="0.797" stroke-linecap="butt" stroke-linejoin="miter" stroke="rgb(0%, 0%, 0%)" stroke-opacity="1" stroke-miterlimit="10" d="M -34.925063 15.125687 C -30.171156 12.082719 -27.721938 2.848344 -29.452406 -5.503219 C -30.378188 -9.975875 -32.382094 -13.495406 -34.925063 -15.124313 " transform="matrix(1, 0, 0, -1, 39.136, 17.071)"/>
</g>
</svg>
