<?xml version="1.0" encoding="UTF-8"?>
<svg xmlns="http://www.w3.org/2000/svg" xmlns:xlink="http://www.w3.org/1999/xlink" width="90.225pt" height="98.884pt" viewBox="0 0 90.225 98.884">
<defs>
<clipPath id="clip-0">
<path clip-rule="nonzero" d="M 84 42 L 89.835938 42 L 89.835938 48 L 84 48 Z M 84 42 "/>
</clipPath>
<clipPath id="clip-1">
<path clip-rule="nonzero" d="M 79 37 L 89.835938 37 L 89.835938 54 L 79 54 Z M 79 37 "/>
</clipPath>
<clipPath id="clip-2">
<path clip-rule="nonzero" d="M 0 82 L 89.835938 82 L 89.835938 94 L 0 94 Z M 0 82 "/>
</clipPath>
<clipPath id="clip-3">
<path clip-rule="nonzero" d="M 29 65 L 74 65 L 74 98.824219 L 29 98.824219 Z M 29 65 "/>
</clipPath>
<clipPath id="clip-4">
<path clip-rule="nonzero" d="M 15 65 L 60 65 L 60 98.824219 L 15 98.824219 Z M 15 65 "/>
</clipPath>
</defs>
<path fill="none" stroke-width="0.3985" stroke-linecap="butt" stroke-linejoin="miter" stroke="rgb(0%, 0%, 0%)" stroke-opacity="1" stroke-miterlimit="10" d="M 0.001625 0.0013125 L 24.669594 0.0013125 M 60.39225 0.0013125 L 85.040688 0.0013125 " transform="matrix(1, 0, 0, -1, 2.2015, 45.181)"/>
<path fill="none" stroke-width="0.797" stroke-linecap="butt" stroke-linejoin="miter" stroke="rgb(0%, 0%, 0%)" stroke-opacity="1" stroke-miterlimit="10" d="M 60.380531 0.0013125 C 60.380531 5.919281 55.57975 10.716156 49.661781 10.716156 C 43.747719 10.716156 38.946938 5.919281 38.946938 0.0013125 C 38.946938 -5.916656 43.747719 -10.713531 49.661781 -10.713531 C 55.57975 -10.713531 60.380531 -5.916656 60.380531 0.0013125 Z M 60.380531 0.0013125 " transform="matrix(1, 0, 0, -1, 2.2015, 45.181)"/>
<path fill="none" stroke-width="0.797" stroke-linecap="butt" stroke-linejoin="miter" stroke="rgb(0%, 0%, 0%)" stroke-opacity="1" stroke-miterlimit="10" d="M 46.091469 0.0013125 C 46.091469 5.919281 41.294594 10.716156 35.376625 10.716156 C 29.458656 10.716156 24.661781 5.919281 24.661781 0.0013125 C 24.661781 -5.916656 29.458656 -10.713531 35.376625 -10.713531 C 41.294594 -10.713531 46.091469 -5.916656 46.091469 0.0013125 Z M 46.091469 0.0013125 " transform="matrix(1, 0, 0, -1, 2.2015, 45.181)"/>
<path fill="none" stroke-width="0.797" stroke-linecap="butt" stroke-linejoin="miter" stroke="rgb(0%, 0%, 0%)" stroke-opacity="1" stroke-miterlimit="10" d="M 50.021156 13.931 C 50.021156 18.071625 46.661781 21.431 42.521156 21.431 C 38.376625 21.431 35.021156 18.071625 35.021156 13.931 C 35.021156 9.786469 38.376625 6.431 42.521156 6.431 C 46.661781 6.431 50.021156 9.786469 50.021156 13.931 Z M 50.021156 13.931 " transform="matrix(1, 0, 0, -1, 2.2015, 45.181)"/>
<path fill="none" stroke-width="0.797" stroke-linecap="butt" stroke-linejoin="miter" stroke="rgb(0%, 0%, 0%)" stroke-opacity="1" stroke-miterlimit="10" d="M 31.806313 3.204437 L 34.57975 -1.60025 L 29.028969 -1.60025 Z M 31.806313 3.204437 " transform="matrix(1, 0, 0, -1, 2.2015, 45.181)"/>
<path fill="none" stroke-width="0.797" stroke-linecap="butt" stroke-linejoin="miter" stroke="rgb(0%, 0%, 0%)" stroke-opacity="1" stroke-miterlimit="10" d="M 53.236 3.204437 L 53.236 0.0013125 L 56.009438 -1.60025 M 53.236 0.0013125 L 50.462563 -1.60025 " transform="matrix(1, 0, 0, -1, 2.2015, 45.181)"/>
<path fill="none" stroke-width="0.797" stroke-linecap="butt" stroke-linejoin="miter" stroke="rgb(0%, 0%, 0%)" stroke-opacity="1" stroke-miterlimit="10" d="M 42.521156 18.419281 L 45.294594 13.614594 L 39.747719 13.614594 Z M 42.521156 18.419281 " transform="matrix(1, 0, 0, -1, 2.2015, 45.181)"/>
<path fill-rule="nonzero" fill="rgb(100%, 100%, 100%)" fill-opacity="1" stroke-width="0.3985" stroke-linecap="butt" stroke-linejoin="miter" stroke="rgb(0%, 0%, 0%)" stroke-opacity="1" stroke-miterlimit="10" d="M 2.380531 0.0013125 C 2.380531 1.313812 1.314125 2.380219 0.001625 2.380219 C -1.314781 2.380219 -2.381187 1.313812 -2.381187 0.0013125 C -2.381187 -1.315094 -1.314781 -2.3815 0.001625 -2.3815 C 1.314125 -2.3815 2.380531 -1.315094 2.380531 0.0013125 Z M 2.380531 0.0013125 " transform="matrix(1, 0, 0, -1, 2.2015, 45.181)"/>
<g clip-path="url(#clip-0)">
<path fill-rule="nonzero" fill="rgb(100%, 100%, 100%)" fill-opacity="1" d="M 89.621094 45.179688 C 89.621094 43.867188 88.558594 42.800781 87.242188 42.800781 C 85.925781 42.800781 84.859375 43.867188 84.859375 45.179688 C 84.859375 46.496094 85.925781 47.5625 87.242188 47.5625 C 88.558594 47.5625 89.621094 46.496094 89.621094 45.179688 Z M 89.621094 45.179688 "/>
</g>
<g clip-path="url(#clip-1)">
<path fill="none" stroke-width="0.3985" stroke-linecap="butt" stroke-linejoin="miter" stroke="rgb(0%, 0%, 0%)" stroke-opacity="1" stroke-miterlimit="10" d="M 87.419594 0.0013125 C 87.419594 1.313812 86.357094 2.380219 85.040688 2.380219 C 83.724281 2.380219 82.657875 1.313812 82.657875 0.0013125 C 82.657875 -1.315094 83.724281 -2.3815 85.040688 -2.3815 C 86.357094 -2.3815 87.419594 -1.315094 87.419594 0.0013125 Z M 87.419594 0.0013125 " transform="matrix(1, 0, 0, -1, 2.2015, 45.181)"/>
</g>
<path fill="none" stroke-width="0.3985" stroke-linecap="butt" stroke-linejoin="miter" stroke="rgb(0%, 0%, 0%)" stroke-opacity="1" stroke-miterlimit="10" d="M 35.380531 0.0013125 L 20.650063 -8.502594 " transform="matrix(1, 0, 0, -1, 2.2015, 45.181)"/>
<path fill="none" stroke-width="0.3985" stroke-linecap="butt" stroke-linejoin="miter" stroke="rgb(0%, 0%, 0%)" stroke-opacity="1" stroke-miterlimit="10" d="M 20.650063 -8.502594 L 20.650063 -26.361969 " transform="matrix(1, 0, 0, -1, 2.2015, 45.181)"/>
<path fill="none" stroke-width="0.797" stroke-linecap="butt" stroke-linejoin="miter" stroke="rgb(0%, 0%, 0%)" stroke-opacity="1" stroke-miterlimit="10" d="M 11.724281 -26.361969 L 29.57975 -26.361969 M 14.700844 -29.338531 L 26.603188 -29.338531 M 16.931313 -32.315094 L 24.372719 -32.315094 " transform="matrix(1, 0, 0, -1, 2.2015, 45.181)"/>
<path fill="none" stroke-width="0.3985" stroke-linecap="butt" stroke-linejoin="miter" stroke="rgb(0%, 0%, 0%)" stroke-opacity="1" stroke-miterlimit="10" d="M 42.525063 21.431 L 42.525063 25.684906 " transform="matrix(1, 0, 0, -1, 2.2015, 45.181)"/>
<path fill="none" stroke-width="0.797" stroke-linecap="butt" stroke-linejoin="miter" stroke="rgb(0%, 0%, 0%)" stroke-opacity="1" stroke-miterlimit="10" d="M 36.571938 35.208344 L 42.525063 43.544281 L 48.478188 35.208344 " transform="matrix(1, 0, 0, -1, 2.2015, 45.181)"/>
<path fill="none" stroke-width="0.3985" stroke-linecap="butt" stroke-linejoin="miter" stroke="rgb(0%, 0%, 0%)" stroke-opacity="1" stroke-miterlimit="10" d="M 42.525063 25.684906 L 42.525063 43.544281 " transform="matrix(1, 0, 0, -1, 2.2015, 45.181)"/>
<path fill="none" stroke-width="0.3985" stroke-linecap="butt" stroke-linejoin="miter" stroke="rgb(100%, 0%, 0%)" stroke-opacity="1" stroke-miterlimit="10" d="M 42.525063 15.216156 L 50.052406 22.739594 M 50.052406 22.739594 L 57.556313 30.251312 " transform="matrix(1, 0, 0, -1, 2.2015, 45.181)"/>
<path fill-rule="nonzero" fill="rgb(100%, 100%, 100%)" fill-opacity="1" stroke-width="0.3985" stroke-linecap="butt" stroke-linejoin="miter" stroke="rgb(100%, 0%, 0%)" stroke-opacity="1" stroke-miterlimit="10" d="M 59.939125 30.251312 C 59.939125 31.563812 58.872719 32.630219 57.556313 32.630219 C 56.243813 32.630219 55.177406 31.563812 55.177406 30.251312 C 55.177406 28.934906 56.243813 27.8685 57.556313 27.8685 C 58.872719 27.8685 59.939125 28.934906 59.939125 30.251312 Z M 59.939125 30.251312 " transform="matrix(1, 0, 0, -1, 2.2015, 45.181)"/>
<g clip-path="url(#clip-2)">
<path fill="none" stroke-width="0.3985" stroke-linecap="butt" stroke-linejoin="miter" stroke="rgb(0%, 0%, 0%)" stroke-opacity="1" stroke-miterlimit="10" d="M 0.001625 -42.522125 L 24.669594 -42.529938 M 60.39225 -42.529938 L 85.040688 -42.522125 " transform="matrix(1, 0, 0, -1, 2.2015, 45.181)"/>
</g>
<g clip-path="url(#clip-3)">
<path fill="none" stroke-width="0.797" stroke-linecap="butt" stroke-linejoin="miter" stroke="rgb(0%, 0%, 0%)" stroke-opacity="1" stroke-miterlimit="10" d="M 60.380531 -42.522125 C 60.380531 -36.604156 55.57975 -31.803375 49.661781 -31.803375 C 43.747719 -31.803375 38.946938 -36.604156 38.946938 -42.522125 C 38.946938 -48.436188 43.747719 -53.236969 49.661781 -53.236969 C 55.57975 -53.236969 60.380531 -48.436188 60.380531 -42.522125 Z M 60.380531 -42.522125 " transform="matrix(1, 0, 0, -1, 2.2015, 45.181)"/>
</g>
<g clip-path="url(#clip-4)">
<path fill="none" stroke-width="0.797" stroke-linecap="butt" stroke-linejoin="miter" stroke="rgb(0%, 0%, 0%)" stroke-opacity="1" stroke-miterlimit="10" d="M 46.091469 -42.522125 C 46.091469 -36.604156 41.294594 -31.803375 35.376625 -31.803375 C 29.458656 -31.803375 24.661781 -36.604156 24.661781 -42.522125 C 24.661781 -48.436188 29.458656 -53.236969 35.376625 -53.236969 C 41.294594 -53.236969 46.091469 -48.436188 46.091469 -42.522125 Z M 46.091469 -42.522125 " transform="matrix(1, 0, 0, -1, 2.2015, 45.181)"/>
</g>
<path fill="none" stroke-width="0.797" stroke-linecap="butt" stroke-linejoin="miter" stroke="rgb(0%, 0%, 0%)" stroke-opacity="1" stroke-miterlimit="10" d="M 53.236 -28.592438 C 53.236 -22.674469 48.439125 -17.873688 42.521156 -17.873688 C 36.603188 -17.873688 31.806313 -22.674469 31.806313 -28.592438 C 31.806313 -34.5065 36.603188 -39.307281 42.521156 -39.307281 C 48.439125 -39.307281 53.236 -34.5065 53.236 -28.592438 Z M 53.236 -28.592438 " transform="matrix(1, 0, 0, -1, 2.2015, 45.181)"/>
</svg>
