<?xml version="1.0" encoding="UTF-8"?>
<svg xmlns="http://www.w3.org/2000/svg" xmlns:xlink="http://www.w3.org/1999/xlink" width="56.712pt" height="29.577pt" viewBox="0 0 56.712 29.577">
<defs>
<clipPath id="clip-0">
<path clip-rule="nonzero" d="M 0 14 L 56.566406 14 L 56.566406 16 L 0 16 Z M 0 14 "/>
</clipPath>
<clipPath id="clip-1">
<path clip-rule="nonzero" d="M 13 0 L 43 0 L 43 29.367188 L 13 29.367188 Z M 13 0 "/>
</clipPath>
</defs>
<g clip-path="url(#clip-0)">
<path fill="none" stroke-width="0.3985" stroke-linecap="butt" stroke-linejoin="miter" stroke="rgb(0%, 0%, 0%)" stroke-opacity="1" stroke-miterlimit="10" d="M -0.00171875 -0.000625 L 14.455313 -0.000625 M 42.236563 -0.000625 L 56.693594 -0.000625 " transform="matrix(1, 0, 0, -1, -0.135, 15.0775)"/>
</g>
<path fill-rule="nonzero" fill="rgb(70.001221%, 90.351868%, 98.118591%)" fill-opacity="1" d="M 14.320312 1.1875 L 42.101562 1.1875 L 42.101562 28.96875 L 14.320312 28.96875 Z M 14.320312 1.1875 "/>
<g clip-path="url(#clip-1)">
<path fill="none" stroke-width="0.797" stroke-linecap="butt" stroke-linejoin="miter" stroke="rgb(0%, 0%, 0%)" stroke-opacity="1" stroke-miterlimit="10" d="M 14.455313 13.89 L 42.236563 13.89 L 42.236563 -13.89125 L 14.455313 -13.89125 Z M 14.455313 13.89 " transform="matrix(1, 0, 0, -1, -0.135, 15.0775)"/>
</g>
<path fill="none" stroke-width="0.3985" stroke-linecap="butt" stroke-linejoin="miter" stroke="rgb(0%, 0%, 0%)" stroke-opacity="1" stroke-miterlimit="10" d="M 31.123281 5.554062 C 31.123281 8.624375 28.638906 11.112656 25.568594 11.112656 C 22.502188 11.112656 20.013906 8.624375 20.013906 5.554062 C 20.013906 2.487656 22.502188 -0.000625 25.568594 -0.000625 C 28.638906 -0.000625 31.123281 2.487656 31.123281 5.554062 Z M 33.904531 5.554062 C 33.904531 8.624375 31.41625 11.112656 28.345938 11.112656 C 25.279531 11.112656 22.79125 8.624375 22.79125 5.554062 C 22.79125 2.487656 25.279531 -0.000625 28.345938 -0.000625 C 31.41625 -0.000625 33.904531 2.487656 33.904531 5.554062 Z M 36.681875 5.554062 C 36.681875 8.624375 34.193594 11.112656 31.123281 11.112656 C 28.056875 11.112656 25.568594 8.624375 25.568594 5.554062 C 25.568594 2.487656 28.056875 -0.000625 31.123281 -0.000625 C 34.193594 -0.000625 36.681875 2.487656 36.681875 5.554062 Z M 36.681875 5.554062 " transform="matrix(1, 0, 0, -1, -0.135, 15.0775)"/>
<path fill="none" stroke-width="0.3985" stroke-linecap="butt" stroke-linejoin="miter" stroke="rgb(0%, 0%, 0%)" stroke-opacity="1" stroke-miterlimit="10" d="M 14.455313 -0.000625 L 42.236563 -0.000625 " transform="matrix(1, 0, 0, -1, -0.135, 15.0775)"/>
</svg>
