<?xml version="1.0" encoding="UTF-8"?>
<svg xmlns="http://www.w3.org/2000/svg" xmlns:xlink="http://www.w3.org/1999/xlink" width="56.712pt" height="13.6pt" viewBox="0 0 56.712 13.6">
<defs>
<clipPath id="clip-0">
<path clip-rule="nonzero" d="M 0 0 L 56.566406 0 L 56.566406 2 L 0 2 Z M 0 0 "/>
</clipPath>
<clipPath id="clip-1">
<path clip-rule="nonzero" d="M 19 0 L 37 0 L 37 13.398438 L 19 13.398438 Z M 19 0 "/>
</clipPath>
<clipPath id="clip-2">
<path clip-rule="nonzero" d="M 14 0 L 40 0 L 40 13.398438 L 14 13.398438 Z M 14 0 "/>
</clipPath>
</defs>
<g clip-path="url(#clip-0)">
<path fill="none" stroke-width="0.3985" stroke-linecap="butt" stroke-linejoin="miter" stroke="rgb(0%, 0%, 0%)" stroke-opacity="1" stroke-miterlimit="10" d="M -0.00171875 0.0001875 L 25.568594 0.0001875 M 31.123281 0.0001875 L 56.693594 0.0001875 " transform="matrix(1, 0, 0, -1, -0.135, 1.008)"/>
</g>
<g clip-path="url(#clip-1)">
<path fill="none" stroke-width="0.3985" stroke-linecap="square" stroke-linejoin="miter" stroke="rgb(0%, 0%, 0%)" stroke-opacity="1" stroke-miterlimit="10" d="M 25.568594 0.0001875 L 25.568594 -5.952938 L 28.345938 -11.906063 L 31.123281 -5.952938 L 31.123281 0.0001875 " transform="matrix(1, 0, 0, -1, -0.135, 1.008)"/>
</g>
<g clip-path="url(#clip-2)">
<path fill="none" stroke-width="0.797" stroke-linecap="round" stroke-linejoin="miter" stroke="rgb(0%, 0%, 0%)" stroke-opacity="1" stroke-miterlimit="10" d="M 25.568594 -5.952938 L 28.345938 -11.906063 " transform="matrix(1, 0, 0, -1, -0.135, 1.008)"/>
</g>
</svg>
