<?xml version="1.0" encoding="UTF-8"?>
<svg xmlns="http://www.w3.org/2000/svg" xmlns:xlink="http://www.w3.org/1999/xlink" width="80.881pt" height="96.958pt" viewBox="0 0 80.881 96.958">
<defs>
<clipPath id="clip-0">
<path clip-rule="nonzero" d="M 0 47 L 44 47 L 44 96.9375 L 0 96.9375 Z M 0 47 "/>
</clipPath>
<clipPath id="clip-1">
<path clip-rule="nonzero" d="M 10 93 L 14 93 L 14 96.9375 L 10 96.9375 Z M 10 93 "/>
</clipPath>
<clipPath id="clip-2">
<path clip-rule="nonzero" d="M 4 87 L 20 87 L 20 96.9375 L 4 96.9375 Z M 4 87 "/>
</clipPath>
<clipPath id="clip-3">
<path clip-rule="nonzero" d="M 35 0 L 80.820312 0 L 80.820312 44 L 35 44 Z M 35 0 "/>
</clipPath>
<clipPath id="clip-4">
<path clip-rule="nonzero" d="M 69 23 L 80.820312 23 L 80.820312 39 L 69 39 Z M 69 23 "/>
</clipPath>
<clipPath id="clip-5">
<path clip-rule="nonzero" d="M 77 19 L 80.820312 19 L 80.820312 23 L 77 23 Z M 77 19 "/>
</clipPath>
<clipPath id="clip-6">
<path clip-rule="nonzero" d="M 71 13 L 80.820312 13 L 80.820312 28 L 71 28 Z M 71 13 "/>
</clipPath>
<clipPath id="clip-7">
<path clip-rule="nonzero" d="M 69 3 L 80.820312 3 L 80.820312 18 L 69 18 Z M 69 3 "/>
</clipPath>
<clipPath id="clip-8">
<path clip-rule="nonzero" d="M 67 93 L 71 93 L 71 96.9375 L 67 96.9375 Z M 67 93 "/>
</clipPath>
<clipPath id="clip-9">
<path clip-rule="nonzero" d="M 61 87 L 76 87 L 76 96.9375 L 61 96.9375 Z M 61 87 "/>
</clipPath>
<clipPath id="clip-10">
<path clip-rule="nonzero" d="M 69 80 L 80.820312 80 L 80.820312 95 L 69 95 Z M 69 80 "/>
</clipPath>
<clipPath id="clip-11">
<path clip-rule="nonzero" d="M 77 75 L 80.820312 75 L 80.820312 79 L 77 79 Z M 77 75 "/>
</clipPath>
<clipPath id="clip-12">
<path clip-rule="nonzero" d="M 71 70 L 80.820312 70 L 80.820312 85 L 71 85 Z M 71 70 "/>
</clipPath>
<clipPath id="clip-13">
<path clip-rule="nonzero" d="M 69 59 L 80.820312 59 L 80.820312 75 L 69 75 Z M 69 59 "/>
</clipPath>
</defs>
<path fill="none" stroke-width="1.58714" stroke-linecap="round" stroke-linejoin="miter" stroke="rgb(0%, 0%, 100%)" stroke-opacity="1" stroke-miterlimit="10" d="M -10.295125 56.694719 L 9.052531 63.737687 " transform="matrix(1, 0, 0, -1, 12.0295, 77.308)"/>
<path fill="none" stroke-width="0.797" stroke-linecap="butt" stroke-linejoin="miter" stroke="rgb(0%, 0%, 100%)" stroke-opacity="1" stroke-miterlimit="10" d="M -6.775594 66.366594 C -3.318563 65.108781 -0.795125 62.104875 -0.1545 58.479875 C 0.0837812 57.128312 0.0447187 55.753312 -0.252156 54.433 " transform="matrix(1, 0, 0, -1, 12.0295, 77.308)"/>
<path fill-rule="nonzero" fill="rgb(0%, 0%, 100%)" fill-opacity="1" d="M 10.648438 25.761719 C 11.246094 24.585938 12.371094 22.476562 13.914062 21.292969 C 12.191406 22.160156 11.195312 21.878906 10.167969 20.25 C 10.875 22.058594 10.75 24.445312 10.648438 25.761719 Z M 10.648438 25.761719 "/>
<path fill-rule="nonzero" fill="rgb(100%, 100%, 100%)" fill-opacity="1" stroke-width="0.3985" stroke-linecap="butt" stroke-linejoin="miter" stroke="rgb(0%, 0%, 100%)" stroke-opacity="1" stroke-miterlimit="10" d="M 1.587687 38.862687 C 1.587687 39.737687 0.87675 40.448625 0.00175 40.448625 C -0.877156 40.448625 -1.588094 39.737687 -1.588094 38.862687 C -1.588094 37.983781 -0.877156 37.272844 0.00175 37.272844 C 0.87675 37.272844 1.587687 37.983781 1.587687 38.862687 Z M 1.587687 38.862687 " transform="matrix(1, 0, 0, -1, 12.0295, 77.308)"/>
<path fill-rule="nonzero" fill="rgb(100%, 100%, 100%)" fill-opacity="1" stroke-width="0.3985" stroke-linecap="butt" stroke-linejoin="miter" stroke="rgb(0%, 0%, 100%)" stroke-opacity="1" stroke-miterlimit="10" d="M 9.122844 46.397844 C 9.122844 47.272844 8.411906 47.983781 7.536906 47.983781 C 6.661906 47.983781 5.950969 47.272844 5.950969 46.397844 C 5.950969 45.522844 6.661906 44.811906 7.536906 44.811906 C 8.411906 44.811906 9.122844 45.522844 9.122844 46.397844 Z M 9.122844 46.397844 " transform="matrix(1, 0, 0, -1, 12.0295, 77.308)"/>
<path fill-rule="nonzero" fill="rgb(100%, 100%, 100%)" fill-opacity="1" stroke-width="0.3985" stroke-linecap="butt" stroke-linejoin="miter" stroke="rgb(0%, 0%, 100%)" stroke-opacity="1" stroke-miterlimit="10" d="M 11.880656 56.694719 C 11.880656 57.569719 11.173625 58.280656 10.294719 58.280656 C 9.419719 58.280656 8.708781 57.569719 8.708781 56.694719 C 8.708781 55.815812 9.419719 55.104875 10.294719 55.104875 C 11.173625 55.104875 11.880656 55.815812 11.880656 56.694719 Z M 11.880656 56.694719 " transform="matrix(1, 0, 0, -1, 12.0295, 77.308)"/>
<path fill-rule="nonzero" fill="rgb(100%, 100%, 100%)" fill-opacity="1" stroke-width="0.3985" stroke-linecap="butt" stroke-linejoin="miter" stroke="rgb(0%, 0%, 100%)" stroke-opacity="1" stroke-miterlimit="10" d="M 9.122844 66.987687 C 9.122844 67.866594 8.411906 68.577531 7.536906 68.577531 C 6.661906 68.577531 5.950969 67.866594 5.950969 66.987687 C 5.950969 66.112687 6.661906 65.40175 7.536906 65.40175 C 8.411906 65.40175 9.122844 66.112687 9.122844 66.987687 Z M 9.122844 66.987687 " transform="matrix(1, 0, 0, -1, 12.0295, 77.308)"/>
<path fill-rule="nonzero" fill="rgb(100%, 100%, 100%)" fill-opacity="1" stroke-width="0.3985" stroke-linecap="butt" stroke-linejoin="miter" stroke="rgb(0%, 0%, 100%)" stroke-opacity="1" stroke-miterlimit="10" d="M 1.587687 74.52675 C 1.587687 75.40175 0.87675 76.112687 0.00175 76.112687 C -0.877156 76.112687 -1.588094 75.40175 -1.588094 74.52675 C -1.588094 73.647844 -0.877156 72.936906 0.00175 72.936906 C 0.87675 72.936906 1.587687 73.647844 1.587687 74.52675 Z M 1.587687 74.52675 " transform="matrix(1, 0, 0, -1, 12.0295, 77.308)"/>
<path fill-rule="nonzero" fill="rgb(100%, 100%, 100%)" fill-opacity="1" stroke-width="0.3985" stroke-linecap="butt" stroke-linejoin="miter" stroke="rgb(0%, 0%, 100%)" stroke-opacity="1" stroke-miterlimit="10" d="M -8.709188 56.694719 C -8.709188 57.569719 -9.420125 58.280656 -10.295125 58.280656 C -11.170125 58.280656 -11.881063 57.569719 -11.881063 56.694719 C -11.881063 55.815812 -11.170125 55.104875 -10.295125 55.104875 C -9.420125 55.104875 -8.709188 55.815812 -8.709188 56.694719 Z M -8.709188 56.694719 " transform="matrix(1, 0, 0, -1, 12.0295, 77.308)"/>
<g clip-path="url(#clip-0)">
<path fill="none" stroke-width="1.58714" stroke-linecap="round" stroke-linejoin="miter" stroke="rgb(0%, 0%, 0%)" stroke-opacity="1" stroke-miterlimit="10" d="M -10.295125 -0.00059375 L 9.052531 7.042375 " transform="matrix(1, 0, 0, -1, 12.0295, 77.308)"/>
</g>
<path fill="none" stroke-width="0.797" stroke-linecap="butt" stroke-linejoin="miter" stroke="rgb(0%, 0%, 0%)" stroke-opacity="1" stroke-miterlimit="10" d="M -6.775594 9.675187 C -3.318563 8.417375 -0.795125 5.409562 -0.1545 1.788469 C 0.0837812 0.436906 0.0447187 -0.942 -0.252156 -2.262313 " transform="matrix(1, 0, 0, -1, 12.0295, 77.308)"/>
<path fill-rule="nonzero" fill="rgb(0%, 0%, 0%)" fill-opacity="1" d="M 10.648438 82.457031 C 11.246094 81.277344 12.371094 79.171875 13.914062 77.988281 C 12.191406 78.851562 11.195312 78.574219 10.167969 76.945312 C 10.875 78.753906 10.75 81.136719 10.648438 82.457031 Z M 10.648438 82.457031 "/>
<g clip-path="url(#clip-1)">
<path fill-rule="nonzero" fill="rgb(0%, 0%, 0%)" fill-opacity="1" d="M 13.617188 95.140625 C 13.617188 94.265625 12.90625 93.554688 12.03125 93.554688 C 11.152344 93.554688 10.441406 94.265625 10.441406 95.140625 C 10.441406 96.015625 11.152344 96.726562 12.03125 96.726562 C 12.90625 96.726562 13.617188 96.015625 13.617188 95.140625 Z M 13.617188 95.140625 "/>
</g>
<g clip-path="url(#clip-2)">
<path fill="none" stroke-width="0.3985" stroke-linecap="butt" stroke-linejoin="miter" stroke="rgb(0%, 0%, 0%)" stroke-opacity="1" stroke-miterlimit="10" d="M 1.587687 -17.832625 C 1.587687 -16.957625 0.87675 -16.246688 0.00175 -16.246688 C -0.877156 -16.246688 -1.588094 -16.957625 -1.588094 -17.832625 C -1.588094 -18.707625 -0.877156 -19.418563 0.00175 -19.418563 C 0.87675 -19.418563 1.587687 -18.707625 1.587687 -17.832625 Z M 1.587687 -17.832625 " transform="matrix(1, 0, 0, -1, 12.0295, 77.308)"/>
</g>
<path fill-rule="nonzero" fill="rgb(0%, 0%, 0%)" fill-opacity="1" stroke-width="0.3985" stroke-linecap="butt" stroke-linejoin="miter" stroke="rgb(0%, 0%, 0%)" stroke-opacity="1" stroke-miterlimit="10" d="M 9.122844 -10.293563 C 9.122844 -9.418563 8.411906 -8.707625 7.536906 -8.707625 C 6.661906 -8.707625 5.950969 -9.418563 5.950969 -10.293563 C 5.950969 -11.172469 6.661906 -11.883406 7.536906 -11.883406 C 8.411906 -11.883406 9.122844 -11.172469 9.122844 -10.293563 Z M 9.122844 -10.293563 " transform="matrix(1, 0, 0, -1, 12.0295, 77.308)"/>
<path fill-rule="nonzero" fill="rgb(0%, 0%, 0%)" fill-opacity="1" stroke-width="0.3985" stroke-linecap="butt" stroke-linejoin="miter" stroke="rgb(0%, 0%, 0%)" stroke-opacity="1" stroke-miterlimit="10" d="M 11.880656 -0.00059375 C 11.880656 0.878312 11.173625 1.585344 10.294719 1.585344 C 9.419719 1.585344 8.708781 0.878312 8.708781 -0.00059375 C 8.708781 -0.875594 9.419719 -1.586531 10.294719 -1.586531 C 11.173625 -1.586531 11.880656 -0.875594 11.880656 -0.00059375 Z M 11.880656 -0.00059375 " transform="matrix(1, 0, 0, -1, 12.0295, 77.308)"/>
<path fill-rule="nonzero" fill="rgb(0%, 0%, 0%)" fill-opacity="1" stroke-width="0.3985" stroke-linecap="butt" stroke-linejoin="miter" stroke="rgb(0%, 0%, 0%)" stroke-opacity="1" stroke-miterlimit="10" d="M 9.122844 10.296281 C 9.122844 11.171281 8.411906 11.882219 7.536906 11.882219 C 6.661906 11.882219 5.950969 11.171281 5.950969 10.296281 C 5.950969 9.417375 6.661906 8.706437 7.536906 8.706437 C 8.411906 8.706437 9.122844 9.417375 9.122844 10.296281 Z M 9.122844 10.296281 " transform="matrix(1, 0, 0, -1, 12.0295, 77.308)"/>
<path fill-rule="nonzero" fill="rgb(0%, 0%, 0%)" fill-opacity="1" stroke-width="0.3985" stroke-linecap="butt" stroke-linejoin="miter" stroke="rgb(0%, 0%, 0%)" stroke-opacity="1" stroke-miterlimit="10" d="M 1.587687 17.831437 C 1.587687 18.710344 0.87675 19.421281 0.00175 19.421281 C -0.877156 19.421281 -1.588094 18.710344 -1.588094 17.831437 C -1.588094 16.956437 -0.877156 16.2455 0.00175 16.2455 C 0.87675 16.2455 1.587687 16.956437 1.587687 17.831437 Z M 1.587687 17.831437 " transform="matrix(1, 0, 0, -1, 12.0295, 77.308)"/>
<path fill-rule="nonzero" fill="rgb(0%, 0%, 0%)" fill-opacity="1" stroke-width="0.3985" stroke-linecap="butt" stroke-linejoin="miter" stroke="rgb(0%, 0%, 0%)" stroke-opacity="1" stroke-miterlimit="10" d="M -8.709188 -0.00059375 C -8.709188 0.878312 -9.420125 1.585344 -10.295125 1.585344 C -11.170125 1.585344 -11.881063 0.878312 -11.881063 -0.00059375 C -11.881063 -0.875594 -11.170125 -1.586531 -10.295125 -1.586531 C -9.420125 -1.586531 -8.709188 -0.875594 -8.709188 -0.00059375 Z M -8.709188 -0.00059375 " transform="matrix(1, 0, 0, -1, 12.0295, 77.308)"/>
<g clip-path="url(#clip-3)">
<path fill="none" stroke-width="1.58714" stroke-linecap="round" stroke-linejoin="miter" stroke="rgb(100%, 0%, 0%)" stroke-opacity="1" stroke-miterlimit="10" d="M 46.396281 56.694719 L 65.747844 63.737687 " transform="matrix(1, 0, 0, -1, 12.0295, 77.308)"/>
</g>
<path fill="none" stroke-width="0.19925" stroke-linecap="butt" stroke-linejoin="miter" stroke="rgb(100%, 0%, 0%)" stroke-opacity="1" stroke-miterlimit="10" d="M 49.919719 66.366594 C 53.37675 65.108781 55.900187 62.104875 56.536906 58.479875 C 56.837687 56.768937 56.700969 55.022844 56.150187 53.393937 " transform="matrix(1, 0, 0, -1, 12.0295, 77.308)"/>
<path fill-rule="nonzero" fill="rgb(100%, 0%, 0%)" fill-opacity="1" d="M 67.34375 25.761719 C 67.800781 25.027344 68.652344 23.71875 69.722656 23.035156 C 68.554688 23.503906 67.917969 23.265625 67.34375 22.144531 C 67.699219 23.363281 67.484375 24.910156 67.34375 25.761719 Z M 67.34375 25.761719 "/>
<path fill-rule="nonzero" fill="rgb(100%, 0%, 0%)" fill-opacity="1" stroke-width="0.3985" stroke-linecap="butt" stroke-linejoin="miter" stroke="rgb(100%, 0%, 0%)" stroke-opacity="1" stroke-miterlimit="10" d="M 58.279094 38.862687 C 58.279094 39.737687 57.572062 40.448625 56.693156 40.448625 C 55.818156 40.448625 55.107219 39.737687 55.107219 38.862687 C 55.107219 37.983781 55.818156 37.272844 56.693156 37.272844 C 57.572062 37.272844 58.279094 37.983781 58.279094 38.862687 Z M 58.279094 38.862687 " transform="matrix(1, 0, 0, -1, 12.0295, 77.308)"/>
<path fill-rule="nonzero" fill="rgb(100%, 0%, 0%)" fill-opacity="1" d="M 77.847656 30.910156 C 77.847656 30.035156 77.136719 29.324219 76.261719 29.324219 C 75.382812 29.324219 74.671875 30.035156 74.671875 30.910156 C 74.671875 31.785156 75.382812 32.496094 76.261719 32.496094 C 77.136719 32.496094 77.847656 31.785156 77.847656 30.910156 Z M 77.847656 30.910156 "/>
<g clip-path="url(#clip-4)">
<path fill="none" stroke-width="0.3985" stroke-linecap="butt" stroke-linejoin="miter" stroke="rgb(100%, 0%, 0%)" stroke-opacity="1" stroke-miterlimit="10" d="M 65.818156 46.397844 C 65.818156 47.272844 65.107219 47.983781 64.232219 47.983781 C 63.353312 47.983781 62.642375 47.272844 62.642375 46.397844 C 62.642375 45.522844 63.353312 44.811906 64.232219 44.811906 C 65.107219 44.811906 65.818156 45.522844 65.818156 46.397844 Z M 65.818156 46.397844 " transform="matrix(1, 0, 0, -1, 12.0295, 77.308)"/>
</g>
<g clip-path="url(#clip-5)">
<path fill-rule="nonzero" fill="rgb(100%, 0%, 0%)" fill-opacity="1" d="M 80.605469 20.613281 C 80.605469 19.738281 79.894531 19.027344 79.019531 19.027344 C 78.140625 19.027344 77.429688 19.738281 77.429688 20.613281 C 77.429688 21.492188 78.140625 22.203125 79.019531 22.203125 C 79.894531 22.203125 80.605469 21.492188 80.605469 20.613281 Z M 80.605469 20.613281 "/>
</g>
<g clip-path="url(#clip-6)">
<path fill="none" stroke-width="0.3985" stroke-linecap="butt" stroke-linejoin="miter" stroke="rgb(100%, 0%, 0%)" stroke-opacity="1" stroke-miterlimit="10" d="M 68.575969 56.694719 C 68.575969 57.569719 67.865031 58.280656 66.990031 58.280656 C 66.111125 58.280656 65.400187 57.569719 65.400187 56.694719 C 65.400187 55.815812 66.111125 55.104875 66.990031 55.104875 C 67.865031 55.104875 68.575969 55.815812 68.575969 56.694719 Z M 68.575969 56.694719 " transform="matrix(1, 0, 0, -1, 12.0295, 77.308)"/>
</g>
<path fill-rule="nonzero" fill="rgb(100%, 0%, 0%)" fill-opacity="1" d="M 77.847656 10.320312 C 77.847656 9.441406 77.136719 8.730469 76.261719 8.730469 C 75.382812 8.730469 74.671875 9.441406 74.671875 10.320312 C 74.671875 11.195312 75.382812 11.90625 76.261719 11.90625 C 77.136719 11.90625 77.847656 11.195312 77.847656 10.320312 Z M 77.847656 10.320312 "/>
<g clip-path="url(#clip-7)">
<path fill="none" stroke-width="0.3985" stroke-linecap="butt" stroke-linejoin="miter" stroke="rgb(100%, 0%, 0%)" stroke-opacity="1" stroke-miterlimit="10" d="M 65.818156 66.987687 C 65.818156 67.866594 65.107219 68.577531 64.232219 68.577531 C 63.353312 68.577531 62.642375 67.866594 62.642375 66.987687 C 62.642375 66.112687 63.353312 65.40175 64.232219 65.40175 C 65.107219 65.40175 65.818156 66.112687 65.818156 66.987687 Z M 65.818156 66.987687 " transform="matrix(1, 0, 0, -1, 12.0295, 77.308)"/>
</g>
<path fill-rule="nonzero" fill="rgb(100%, 0%, 0%)" fill-opacity="1" stroke-width="0.3985" stroke-linecap="butt" stroke-linejoin="miter" stroke="rgb(100%, 0%, 0%)" stroke-opacity="1" stroke-miterlimit="10" d="M 58.279094 74.52675 C 58.279094 75.40175 57.572062 76.112687 56.693156 76.112687 C 55.818156 76.112687 55.107219 75.40175 55.107219 74.52675 C 55.107219 73.647844 55.818156 72.936906 56.693156 72.936906 C 57.572062 72.936906 58.279094 73.647844 58.279094 74.52675 Z M 58.279094 74.52675 " transform="matrix(1, 0, 0, -1, 12.0295, 77.308)"/>
<path fill-rule="nonzero" fill="rgb(100%, 0%, 0%)" fill-opacity="1" stroke-width="0.3985" stroke-linecap="butt" stroke-linejoin="miter" stroke="rgb(100%, 0%, 0%)" stroke-opacity="1" stroke-miterlimit="10" d="M 47.986125 56.694719 C 47.986125 57.569719 47.275187 58.280656 46.396281 58.280656 C 45.521281 58.280656 44.810344 57.569719 44.810344 56.694719 C 44.810344 55.815812 45.521281 55.104875 46.396281 55.104875 C 47.275187 55.104875 47.986125 55.815812 47.986125 56.694719 Z M 47.986125 56.694719 " transform="matrix(1, 0, 0, -1, 12.0295, 77.308)"/>
<g clip-path="url(#clip-8)">
<path fill-rule="nonzero" fill="rgb(75%, 0%, 25%)" fill-opacity="1" d="M 70.308594 95.140625 C 70.308594 94.265625 69.601562 93.554688 68.722656 93.554688 C 67.847656 93.554688 67.136719 94.265625 67.136719 95.140625 C 67.136719 96.015625 67.847656 96.726562 68.722656 96.726562 C 69.601562 96.726562 70.308594 96.015625 70.308594 95.140625 Z M 70.308594 95.140625 "/>
</g>
<g clip-path="url(#clip-9)">
<path fill="none" stroke-width="0.3985" stroke-linecap="butt" stroke-linejoin="miter" stroke="rgb(75%, 0%, 25%)" stroke-opacity="1" stroke-miterlimit="10" d="M 58.279094 -17.832625 C 58.279094 -16.957625 57.572062 -16.246688 56.693156 -16.246688 C 55.818156 -16.246688 55.107219 -16.957625 55.107219 -17.832625 C 55.107219 -18.707625 55.818156 -19.418563 56.693156 -19.418563 C 57.572062 -19.418563 58.279094 -18.707625 58.279094 -17.832625 Z M 58.279094 -17.832625 " transform="matrix(1, 0, 0, -1, 12.0295, 77.308)"/>
</g>
<path fill-rule="nonzero" fill="rgb(75%, 0%, 25%)" fill-opacity="1" d="M 77.847656 87.601562 C 77.847656 86.726562 77.136719 86.015625 76.261719 86.015625 C 75.382812 86.015625 74.671875 86.726562 74.671875 87.601562 C 74.671875 88.480469 75.382812 89.191406 76.261719 89.191406 C 77.136719 89.191406 77.847656 88.480469 77.847656 87.601562 Z M 77.847656 87.601562 "/>
<g clip-path="url(#clip-10)">
<path fill="none" stroke-width="0.3985" stroke-linecap="butt" stroke-linejoin="miter" stroke="rgb(75%, 0%, 25%)" stroke-opacity="1" stroke-miterlimit="10" d="M 65.818156 -10.293563 C 65.818156 -9.418563 65.107219 -8.707625 64.232219 -8.707625 C 63.353312 -8.707625 62.642375 -9.418563 62.642375 -10.293563 C 62.642375 -11.172469 63.353312 -11.883406 64.232219 -11.883406 C 65.107219 -11.883406 65.818156 -11.172469 65.818156 -10.293563 Z M 65.818156 -10.293563 " transform="matrix(1, 0, 0, -1, 12.0295, 77.308)"/>
</g>
<g clip-path="url(#clip-11)">
<path fill-rule="nonzero" fill="rgb(75%, 0%, 25%)" fill-opacity="1" d="M 80.605469 77.308594 C 80.605469 76.429688 79.894531 75.722656 79.019531 75.722656 C 78.140625 75.722656 77.429688 76.429688 77.429688 77.308594 C 77.429688 78.183594 78.140625 78.894531 79.019531 78.894531 C 79.894531 78.894531 80.605469 78.183594 80.605469 77.308594 Z M 80.605469 77.308594 "/>
</g>
<g clip-path="url(#clip-12)">
<path fill="none" stroke-width="0.3985" stroke-linecap="butt" stroke-linejoin="miter" stroke="rgb(75%, 0%, 25%)" stroke-opacity="1" stroke-miterlimit="10" d="M 68.575969 -0.00059375 C 68.575969 0.878312 67.865031 1.585344 66.990031 1.585344 C 66.111125 1.585344 65.400187 0.878312 65.400187 -0.00059375 C 65.400187 -0.875594 66.111125 -1.586531 66.990031 -1.586531 C 67.865031 -1.586531 68.575969 -0.875594 68.575969 -0.00059375 Z M 68.575969 -0.00059375 " transform="matrix(1, 0, 0, -1, 12.0295, 77.308)"/>
</g>
<path fill-rule="nonzero" fill="rgb(75%, 0%, 25%)" fill-opacity="1" d="M 77.847656 67.011719 C 77.847656 66.136719 77.136719 65.425781 76.261719 65.425781 C 75.382812 65.425781 74.671875 66.136719 74.671875 67.011719 C 74.671875 67.890625 75.382812 68.601562 76.261719 68.601562 C 77.136719 68.601562 77.847656 67.890625 77.847656 67.011719 Z M 77.847656 67.011719 "/>
<g clip-path="url(#clip-13)">
<path fill="none" stroke-width="0.3985" stroke-linecap="butt" stroke-linejoin="miter" stroke="rgb(75%, 0%, 25%)" stroke-opacity="1" stroke-miterlimit="10" d="M 65.818156 10.296281 C 65.818156 11.171281 65.107219 11.882219 64.232219 11.882219 C 63.353312 11.882219 62.642375 11.171281 62.642375 10.296281 C 62.642375 9.417375 63.353312 8.706437 64.232219 8.706437 C 65.107219 8.706437 65.818156 9.417375 65.818156 10.296281 Z M 65.818156 10.296281 " transform="matrix(1, 0, 0, -1, 12.0295, 77.308)"/>
</g>
<path fill-rule="nonzero" fill="rgb(75%, 0%, 25%)" fill-opacity="1" stroke-width="0.3985" stroke-linecap="butt" stroke-linejoin="miter" stroke="rgb(75%, 0%, 25%)" stroke-opacity="1" stroke-miterlimit="10" d="M 58.279094 17.831437 C 58.279094 18.710344 57.572062 19.421281 56.693156 19.421281 C 55.818156 19.421281 55.107219 18.710344 55.107219 17.831437 C 55.107219 16.956437 55.818156 16.2455 56.693156 16.2455 C 57.572062 16.2455 58.279094 16.956437 58.279094 17.831437 Z M 58.279094 17.831437 " transform="matrix(1, 0, 0, -1, 12.0295, 77.308)"/>
<path fill-rule="nonzero" fill="rgb(75%, 0%, 25%)" fill-opacity="1" stroke-width="0.3985" stroke-linecap="butt" stroke-linejoin="miter" stroke="rgb(75%, 0%, 25%)" stroke-opacity="1" stroke-miterlimit="10" d="M 47.986125 -0.00059375 C 47.986125 0.878312 47.275187 1.585344 46.396281 1.585344 C 45.521281 1.585344 44.810344 0.878312 44.810344 -0.00059375 C 44.810344 -0.875594 45.521281 -1.586531 46.396281 -1.586531 C 47.275187 -1.586531 47.986125 -0.875594 47.986125 -0.00059375 Z M 47.986125 -0.00059375 " transform="matrix(1, 0, 0, -1, 12.0295, 77.308)"/>
</svg>
