<?xml version="1.0" encoding="UTF-8"?>
<svg xmlns="http://www.w3.org/2000/svg" xmlns:xlink="http://www.w3.org/1999/xlink" width="56.712pt" height="16.016pt" viewBox="0 0 56.712 16.016">
<defs>
<clipPath id="clip-0">
<path clip-rule="nonzero" d="M 0 7 L 56.566406 7 L 56.566406 9 L 0 9 Z M 0 7 "/>
</clipPath>
<clipPath id="clip-1">
<path clip-rule="nonzero" d="M 19 0 L 37 0 L 37 15.523438 L 19 15.523438 Z M 19 0 "/>
</clipPath>
</defs>
<g clip-path="url(#clip-0)">
<path fill="none" stroke-width="0.3985" stroke-linecap="butt" stroke-linejoin="miter" stroke="rgb(0%, 0%, 0%)" stroke-opacity="1" stroke-miterlimit="10" d="M -0.00171875 0.000375 L 20.408438 0.000375 M 36.283438 0.000375 L 56.693594 0.000375 " transform="matrix(1, 0, 0, -1, -0.135, 8.016)"/>
</g>
<path fill-rule="nonzero" fill="rgb(70.001221%, 90.351868%, 98.118591%)" fill-opacity="1" d="M 30.59375 14.960938 L 36.148438 14.960938 L 36.148438 1.070312 L 30.59375 1.070312 Z M 30.59375 14.960938 "/>
<path fill="none" stroke-width="0.3985" stroke-linecap="butt" stroke-linejoin="miter" stroke="rgb(0%, 0%, 0%)" stroke-opacity="1" stroke-miterlimit="10" d="M 20.408438 0.000375 L 30.72875 0.000375 " transform="matrix(1, 0, 0, -1, -0.135, 8.016)"/>
<g clip-path="url(#clip-1)">
<path fill="none" stroke-width="0.797" stroke-linecap="square" stroke-linejoin="miter" stroke="rgb(0%, 0%, 0%)" stroke-opacity="1" stroke-miterlimit="10" d="M 20.408438 -6.944938 L 36.283438 -6.944938 L 36.283438 6.945687 L 20.408438 6.945687 " transform="matrix(1, 0, 0, -1, -0.135, 8.016)"/>
</g>
<path fill="none" stroke-width="0.797" stroke-linecap="butt" stroke-linejoin="miter" stroke="rgb(0%, 0%, 0%)" stroke-opacity="1" stroke-miterlimit="10" d="M 30.72875 -5.554313 L 30.72875 5.555062 " transform="matrix(1, 0, 0, -1, -0.135, 8.016)"/>
</svg>
