<?xml version="1.0" encoding="UTF-8"?>
<svg xmlns="http://www.w3.org/2000/svg" xmlns:xlink="http://www.w3.org/1999/xlink" width="56.712pt" height="12.52pt" viewBox="0 0 56.712 12.52">
<defs>
<clipPath id="clip-0">
<path clip-rule="nonzero" d="M 0 8 L 56.566406 8 L 56.566406 9 L 0 9 Z M 0 8 "/>
</clipPath>
<clipPath id="clip-1">
<path clip-rule="nonzero" d="M 15 2 L 41 2 L 41 12.28125 L 15 12.28125 Z M 15 2 "/>
</clipPath>
</defs>
<g clip-path="url(#clip-0)">
<path fill="none" stroke-width="0.3985" stroke-linecap="butt" stroke-linejoin="miter" stroke="rgb(0%, 0%, 0%)" stroke-opacity="1" stroke-miterlimit="10" d="M -0.00171875 -0.00028125 L 16.439688 -0.00028125 M 40.252188 -0.00028125 L 56.693594 -0.00028125 " transform="matrix(1, 0, 0, -1, -0.135, 8.738)"/>
</g>
<g clip-path="url(#clip-1)">
<path fill="none" stroke-width="0.797" stroke-linecap="butt" stroke-linejoin="bevel" stroke="rgb(0%, 0%, 0%)" stroke-opacity="1" stroke-miterlimit="10" d="M 16.04125 -0.160437 C 16.04125 3.128625 17.677969 5.792688 19.693594 5.792688 C 21.709219 5.792688 23.345938 3.128625 23.345938 -0.160437 C 23.345938 -1.804969 22.677969 -3.137 21.857656 -3.137 C 21.033438 -3.137 20.369375 -1.804969 20.369375 -0.160437 C 20.369375 3.128625 22.002188 5.792688 24.021719 5.792688 C 26.037344 5.792688 27.670156 3.128625 27.670156 -0.160437 C 27.670156 -1.804969 27.006094 -3.137 26.181875 -3.137 C 25.361563 -3.137 24.693594 -1.804969 24.693594 -0.160437 C 24.693594 3.128625 26.330313 5.792688 28.345938 5.792688 C 30.361563 5.792688 31.998281 3.128625 31.998281 -0.160437 C 31.998281 -1.804969 31.330313 -3.137 30.51 -3.137 C 29.689688 -3.137 29.021719 -1.804969 29.021719 -0.160437 C 29.021719 3.128625 30.658438 5.792688 32.674063 5.792688 C 34.689688 5.792688 36.326406 3.128625 36.326406 -0.160437 C 36.326406 -1.804969 35.658438 -3.137 34.838125 -3.137 C 34.013906 -3.137 33.349844 -1.804969 33.349844 -0.160437 C 33.349844 3.128625 34.982656 5.792688 36.998281 5.792688 C 39.017813 5.792688 40.650625 3.128625 40.650625 -0.160437 " transform="matrix(1, 0, 0, -1, -0.135, 8.738)"/>
</g>
<path fill="none" stroke-width="0.797" stroke-linecap="butt" stroke-linejoin="bevel" stroke="rgb(0%, 0%, 0%)" stroke-opacity="1" stroke-miterlimit="10" d="M 16.439688 7.577844 L 40.252188 7.577844 " transform="matrix(1, 0, 0, -1, -0.135, 8.738)"/>
</svg>
